<svg fill="#9368aa" height="457pt" viewBox="-62 0 457 457.14286" width="457pt" xmlns="http://www.w3.org/2000/svg">
  <path d="m302.519531 0h-271.179687c-17.242188 0-31.2695315 13.988281-31.2695315 31.179688v394.785156c0 17.191406 14.0273435 31.179687 31.2695315 31.179687h271.179687c17.238281 0 31.265625-13.988281 31.265625-31.179687v-394.785156c0-17.191407-14.027344-31.179688-31.265625-31.179688zm-271.179687 18.285156h271.179687c7.15625 0 12.980469 5.785156 12.980469 12.894532v29.390624h-297.144531v-29.390624c0-7.109376 5.828125-12.894532 12.984375-12.894532zm284.160156 60.570313v299.429687h-297.144531v-299.429687zm-12.980469 360h-271.179687c-7.15625 0-12.984375-5.785157-12.984375-12.890625v-29.394532h297.144531v29.394532c0 7.105468-5.824219 12.890625-12.980469 12.890625zm0 0"/><path d="m178.355469 408.570312h-22.855469c-5.050781 0-9.144531 4.09375-9.144531 9.144532 0 5.046875 4.09375 9.140625 9.144531 9.140625h22.855469c5.050781 0 9.144531-4.09375 9.144531-9.140625 0-5.050782-4.09375-9.144532-9.144531-9.144532zm0 0"/><path d="m154.871094 46.933594h62.855468c5.050782 0 9.144532-4.09375 9.144532-9.144532 0-5.046874-4.09375-9.140624-9.144532-9.140624h-62.855468c-5.050782 0-9.144532 4.09375-9.144532 9.140624 0 5.050782 4.09375 9.144532 9.144532 9.144532zm0 0"/><path d="m116.09375 46.902344c2.46875 0 4.753906-.914063 6.492188-2.652344 1.734374-1.738281 2.652343-4.023438 2.652343-6.492188 0-2.378906-.917969-4.753906-2.652343-6.402343-3.386719-3.472657-9.511719-3.472657-12.894532 0-1.734375 1.648437-2.742187 4.023437-2.742187 6.402343 0 2.46875 1.007812 4.753907 2.742187 6.492188 1.648438 1.738281 4.023438 2.652344 6.402344 2.652344zm0 0"/><path d="m92.847656 241.1875 66.835938 86.855469c1.730468 2.25 4.40625 3.570312 7.246094 3.570312 2.839843 0 5.511718-1.320312 7.246093-3.570312l66.832031-86.855469c2.125-2.757812 2.496094-6.492188.957032-9.617188-1.535156-3.125-4.71875-5.101562-8.203125-5.101562h-27.242188v-91.792969c0-5.050781-4.09375-9.144531-9.144531-9.144531h-60.894531c-5.046875 0-9.140625 4.09375-9.140625 9.144531v91.792969h-27.246094c-3.480469 0-6.664062 1.976562-8.199219 5.101562-1.542969 3.125-1.171875 6.859376.953125 9.617188zm43.632813 3.566406c5.050781 0 9.144531-4.09375 9.144531-9.140625v-91.796875h42.605469v91.796875c0 5.046875 4.09375 9.140625 9.144531 9.140625h17.816406l-48.261718 62.722656-48.265626-62.722656zm0 0"/>
</svg>
