<?xml version="1.0" encoding="utf-8"?>
<!-- Generator: Adobe Illustrator 17.0.0, SVG Export Plug-In . SVG Version: 6.00 Build 0)  -->
<!DOCTYPE svg PUBLIC "-//W3C//DTD SVG 1.1//EN" "http://www.w3.org/Graphics/SVG/1.1/DTD/svg11.dtd">
<svg version="1.1" id="Layer_1" xmlns="http://www.w3.org/2000/svg" xmlns:xlink="http://www.w3.org/1999/xlink" x="0px" y="0px"
	 width="80.288px" height="140.025px" viewBox="0 0 80.288 140.025" enable-background="new 0 0 80.288 140.025"
	 xml:space="preserve">
<g>
	<path fill="#17C5FF" d="M72.341,47.227H56.806c-0.07-3.843-0.11-7.215,0.176-10.505c0.075-0.871,0.264-1.146,0.266-1.148
		c0.108-0.097,0.781-0.42,2.293-0.509c1.381-0.081,2.887-0.119,4.74-0.119c1.325,0,2.666,0.019,4.035,0.037
		c1.491,0.021,3.014,0.041,4.581,0.041h7v-7V7.235v-7h-7c-2.41,0-4.884-0.059-7.276-0.117C63.184,0.06,60.664,0,58.163,0
		c-3.686,0-6.742,0.131-9.618,0.412C33.734,1.862,22.08,13.615,20.203,28.992c-0.525,4.304-0.718,8.585-0.905,12.726
		c-0.042,0.921-0.083,1.843-0.128,2.763c-0.033,0.683-0.053,1.352-0.063,2.026H7.322H1.355l-0.945,5.892
		c-1.391,8.673-0.927,16.289-0.437,24.353L0,77.178l0.4,6.575h6.588h11.638v49.271v7h7h24.388h7v-7V83.943h12.438h6.166l0.778-6.116
		l2.89-22.717l1.003-7.883H72.341z M69.451,76.943c-6.762,0-12.96,0-19.438,0c0,18.966,0,37.106,0,56.082H25.625
		c0-18.751,0-37.139,0-56.271c-6.43,0-12.379,0-18.638,0C6.5,68.746,6.031,61.56,7.322,53.506c6.365,0,12.285,0,18.817,0
		c0-3.5-0.104-6.097,0.022-8.683c0.245-5,0.385-10.022,0.99-14.984c1.446-11.848,10.38-21.316,22.076-22.461
		C52.186,7.089,55.165,7,58.163,7c4.86,0,9.772,0.235,14.734,0.235c0,7.29,0,13.719,0,20.788c-3.007,0-5.847-0.078-8.616-0.078
		c-1.737,0-3.446,0.031-5.151,0.131c-5.511,0.324-8.674,2.868-9.122,8.04c-0.491,5.668-0.112,11.412-0.112,18.11
		c7.807,0,14.75,0,22.445,0C71.321,62.25,70.438,69.185,69.451,76.943z"/>
</g>
</svg>
