<?xml version="1.0" encoding="utf-8"?>
<!-- Generator: Adobe Illustrator 17.0.0, SVG Export Plug-In . SVG Version: 6.00 Build 0)  -->
<!DOCTYPE svg PUBLIC "-//W3C//DTD SVG 1.1//EN" "http://www.w3.org/Graphics/SVG/1.1/DTD/svg11.dtd">
<svg version="1.1" id="Layer_1" xmlns="http://www.w3.org/2000/svg" xmlns:xlink="http://www.w3.org/1999/xlink" x="0px" y="0px"
	 width="203.962px" height="275.685px" viewBox="0 0 203.962 275.685" enable-background="new 0 0 203.962 275.685"
	 xml:space="preserve">
<g>
	<path fill="#FFFFFF" d="M192.846,158.85c-4.886-9.908-12.747-15.047-24.035-15.707c-6.508-0.389-12.652,1.756-18.373,6.337
		c-0.412,0.331-0.845,0.646-1.352,1.011l-0.69,0.501l-6.765,4.974l-0.014-42.929c-0.004-28.442-0.009-57.852-0.062-86.777
		c-0.012-6.316-2.664-11.109-8.109-14.652c-5.878-3.825-11.888-4.122-17.948-0.877c-6.444,3.45-9.581,8.751-9.589,16.207
		c-0.006,5.656-0.002,11.313,0.002,16.969l0.005,16.513l-5.958-2.611c-2.847-1.248-5.719-1.88-8.534-1.88
		c-8.665,0-15.846,5.954-17.87,14.814l-1.196,5.236l-4.822-2.365c-5.236-2.568-10.33-2.838-15.37-0.801
		c-5.091,2.058-8.482,5.797-10.672,11.769l-1.529,4.168l-4.099-1.708c-0.454-0.189-0.891-0.381-1.317-0.569
		c-0.808-0.355-1.506-0.663-2.153-0.869c-1.106-0.351-2.286-0.629-3.507-0.827c-0.877-0.142-1.774-0.213-2.666-0.213
		c-7.27,0-14.058,4.73-16.507,11.504c-0.83,2.295-1.215,4.795-1.211,7.866l0.012,10.071c0.032,26.848,0.065,54.61-0.006,81.919
		c-0.018,6.656,0.596,12.211,1.932,17.479c4.337,17.105,12.745,30.099,25.704,39.722c12.564,9.328,26.369,14.059,41.031,14.059
		c5.046,0,10.289-0.56,15.583-1.663c12.136-2.531,22.842-8.126,31.822-16.631c1.302-1.233,2.542-2.531,3.855-3.904
		c1.408-1.473,2.863-2.995,4.417-4.449c6.527-6.108,13.192-12.279,19.639-18.247c3.472-3.214,6.943-6.428,10.41-9.647
		c2.346-2.178,4.699-4.347,7.054-6.516c5.862-5.403,11.925-10.99,17.73-16.609C195.512,181.939,197.73,168.756,192.846,158.85z"/>
	<path fill="#212120" d="M200.473,155.09c-6.182-12.538-16.958-19.605-31.165-20.437c-6.771-0.396-13.169,1.205-19.181,4.73
		l-0.006-26.349c-0.004-28.445-0.009-57.859-0.062-86.791c-0.018-9.152-4.158-16.678-11.976-21.765
		c-8.467-5.51-17.814-5.949-26.6-1.247c-9.199,4.924-14.067,13.118-14.079,23.695c-0.006,5.661-0.002,11.322,0.002,16.984
		l0.002,4.161c-1.992-0.432-3.992-0.649-5.986-0.649c-10.907,0-20.476,6.685-24.667,16.747c-5.957-1.845-11.983-1.586-17.778,0.757
		c-5.999,2.425-10.591,6.678-13.694,12.673c-0.104-0.035-0.208-0.07-0.314-0.103c-1.503-0.478-3.093-0.854-4.725-1.118
		c-1.324-0.214-2.678-0.322-4.022-0.322c-10.955,0-20.803,6.878-24.504,17.116C0.557,96.384-0.005,99.907,0,103.941l0.012,10.071
		c0.032,26.84,0.065,54.593-0.006,81.887c-0.019,7.286,0.698,13.694,2.193,19.591c4.77,18.814,14.486,33.773,28.877,44.46
		c14.062,10.44,29.572,15.734,46.1,15.734c5.628,0,11.455-0.62,17.319-1.843c13.703-2.856,25.792-9.176,35.934-18.781
		c1.455-1.378,2.828-2.813,4.155-4.202c1.388-1.452,2.699-2.824,4.08-4.116c6.511-6.093,13.167-12.256,19.605-18.216
		c3.475-3.217,6.949-6.434,10.42-9.655c2.337-2.171,4.684-4.333,7.029-6.495c5.9-5.438,12.001-11.061,17.882-16.752
		C204.136,185.427,207.025,168.379,200.473,155.09z M169.956,206.124c-2.354,2.169-4.708,4.338-7.054,6.516
		c-3.467,3.22-6.938,6.434-10.41,9.647c-6.446,5.968-13.111,12.139-19.639,18.247c-1.554,1.454-3.009,2.977-4.417,4.449
		c-1.313,1.373-2.554,2.671-3.855,3.904c-8.979,8.505-19.686,14.1-31.822,16.631c-5.294,1.104-10.537,1.663-15.583,1.663
		c-14.662,0-28.467-4.73-41.031-14.059c-12.959-9.623-21.367-22.616-25.704-39.722c-1.336-5.269-1.95-10.823-1.932-17.479
		c0.071-27.309,0.038-55.071,0.006-81.919l-0.012-10.071c-0.004-3.071,0.381-5.57,1.211-7.866
		c2.449-6.773,9.237-11.504,16.507-11.504c0.892,0,1.789,0.072,2.666,0.213c1.221,0.198,2.401,0.476,3.507,0.827
		c0.647,0.206,1.345,0.513,2.153,0.869c0.427,0.188,0.863,0.38,1.317,0.569l4.099,1.708l1.529-4.168
		c2.19-5.971,5.582-9.71,10.672-11.769c5.04-2.037,10.133-1.767,15.37,0.801l4.822,2.365l1.196-5.236
		c2.024-8.861,9.206-14.814,17.87-14.814c2.815,0,5.687,0.633,8.534,1.88l5.958,2.611l-0.005-16.513
		c-0.004-5.656-0.008-11.312-0.002-16.969c0.008-7.456,3.145-12.757,9.589-16.207c6.061-3.244,12.07-2.948,17.948,0.877
		c5.445,3.543,8.098,8.336,8.109,14.652c0.054,28.925,0.059,58.335,0.062,86.777l0.014,42.929l6.765-4.974l0.69-0.501
		c0.507-0.365,0.939-0.68,1.352-1.011c5.721-4.581,11.865-6.726,18.373-6.337c11.288,0.66,19.149,5.799,24.035,15.707
		c4.884,9.906,2.666,23.089-5.159,30.664C181.881,195.133,175.818,200.72,169.956,206.124z"/>
</g>
</svg>
