<?xml version="1.0" encoding="utf-8"?>
<!-- Generator: Adobe Illustrator 17.0.0, SVG Export Plug-In . SVG Version: 6.00 Build 0)  -->
<!DOCTYPE svg PUBLIC "-//W3C//DTD SVG 1.1//EN" "http://www.w3.org/Graphics/SVG/1.1/DTD/svg11.dtd">
<svg version="1.1" id="Layer_1" xmlns="http://www.w3.org/2000/svg" xmlns:xlink="http://www.w3.org/1999/xlink" x="0px" y="0px"
	 width="20.827px" height="20.696px" viewBox="0 0 20.827 20.696" enable-background="new 0 0 20.827 20.696" xml:space="preserve">
<g>
	<g id="rpxEmz.tif">
		<g>
			<path fill="#156EB7" d="M9.284,15.959c0.919,0,1.834,0,2.754,0c0,0.197,0,0.389,0,0.594c-0.131,0.01-0.263,0.003-0.395,0.004
				c-0.134,0.001-0.267,0-0.401,0c-0.13,0-0.26,0-0.39,0c-0.133,0-0.267,0-0.402,0c0.416,1.176,1.726,2.596,3.647,2.822
				c1.133,0.133,2.178-0.116,3.12-0.761c0.94-0.644,1.553-1.526,1.857-2.628c0.204,0,0.407,0,0.61,0
				c-0.327,1.634-1.682,3.366-3.801,3.881c-1.222,0.297-2.406,0.168-3.533-0.395c-1.122-0.56-1.927-1.43-2.461-2.564
				c0,0.596,0,1.192,0,1.796c-0.206,0-0.404,0-0.606,0C9.284,17.79,9.284,16.878,9.284,15.959z"/>
			<path fill="#156EB7" d="M19.694,11.19c0,0.925,0,1.835,0,2.752c-0.918,0-1.832,0-2.753,0c0-0.196,0-0.39,0-0.596
				c0.531,0,1.059,0,1.592,0c-0.535-1.412-2.034-2.784-4.048-2.855c-2.137-0.075-4.041,1.348-4.58,3.42c-0.203,0-0.409,0-0.615,0
				c0.394-1.848,1.933-3.559,4.138-3.952c0.571-0.102,1.145-0.103,1.719-0.011c0.574,0.092,1.115,0.277,1.626,0.552
				c0.511,0.276,0.962,0.629,1.357,1.056c0.394,0.426,0.704,0.907,0.956,1.433c0-0.594,0-1.188,0-1.798
				C19.291,11.183,19.488,11.187,19.694,11.19z"/>
		</g>
	</g>
	<g>
		<path fill="#156EB7" d="M12.27,9.345c0.133-0.169,0.25-0.436,0.301-0.86c0.043-0.362-0.073-0.63-0.221-0.792
			c0.183-0.605,0.62-2.354-0.062-3.453c-0.278-0.447-0.703-0.725-1.265-0.827C10.734,3.02,10.148,2.806,9.35,2.806
			C8.153,2.828,7.28,3.19,6.755,3.882C6.122,4.716,6.012,5.995,6.428,7.686C6.277,7.848,6.156,8.119,6.2,8.485
			c0.089,0.742,0.382,1.006,0.606,1.098c0.105,0.589,0.442,1.287,0.749,1.565c0,0.067,0.001,0.132,0.001,0.196
			c0.003,0.348,0.005,0.649-0.028,1.043c-0.214,0.52-0.92,0.798-1.735,1.118c-0.622,0.245-1.318,0.521-1.878,0.958
			c-1.432-1.414-2.322-3.376-2.322-5.543c0-4.297,3.496-7.792,7.793-7.792c4.297,0,7.792,3.496,7.792,7.792
			c0,0.358-0.027,0.71-0.074,1.056l0.489-0.213c0.028-0.277,0.044-0.558,0.044-0.843c0-4.55-3.702-8.252-8.252-8.252
			c-4.55,0-8.252,3.702-8.252,8.252c0,2.689,1.297,5.078,3.294,6.585l3.929-1.713C8.705,11.671,10.246,9.952,12.27,9.345z"/>
	</g>
</g>
</svg>
