<?xml version="1.0" encoding="utf-8"?>
<!-- Generator: Adobe Illustrator 17.0.0, SVG Export Plug-In . SVG Version: 6.00 Build 0)  -->
<!DOCTYPE svg PUBLIC "-//W3C//DTD SVG 1.1//EN" "http://www.w3.org/Graphics/SVG/1.1/DTD/svg11.dtd">
<svg version="1.1" id="Layer_1" xmlns="http://www.w3.org/2000/svg" xmlns:xlink="http://www.w3.org/1999/xlink" x="0px" y="0px"
	 width="20.827px" height="20.696px" viewBox="0 0 20.827 20.696" enable-background="new 0 0 20.827 20.696" xml:space="preserve">
<g id="football-2_19_">
	<polygon fill="#FFFFFF" points="6.71,5.901 7.503,6.695 8.05,6.148 8.57,6.668 8.023,7.214 8.802,7.994 9.349,7.448 9.869,7.967 
		9.322,8.514 10.102,9.294 10.648,8.747 11.168,9.266 10.622,9.813 11.4,10.592 11.947,10.046 12.467,10.565 11.92,11.112 
		12.699,11.892 13.246,11.345 13.766,11.864 13.219,12.411 13.999,13.191 14.545,12.644 15.065,13.163 14.519,13.71 15.313,14.504 
		14.793,15.024 13.999,14.23 13.419,14.809 12.9,14.289 13.48,13.71 12.699,12.931 12.12,13.51 11.601,12.99 12.18,12.411 
		11.4,11.632 10.821,12.211 10.302,11.691 10.881,11.112 10.102,10.333 9.522,10.912 9.003,10.392 9.583,9.813 8.802,9.033 
		8.223,9.613 7.704,9.093 8.283,8.514 7.503,7.734 6.924,8.314 6.405,7.794 6.984,7.214 6.19,6.421 	"/>
	<path fill="#FFFFFF" d="M1.3,6.752c0.351,2.705,1.315,6.476,3.918,9.079c3.17,3.17,7.841,3.835,11.202,3.835
		c1.64,0,2.734-0.164,2.78-0.171l0.259-0.039l0.047-0.257c0.065-0.354,1.534-8.734-3.693-13.961
		C12.154,1.577,6.672,1.031,3.73,1.031c-1.352,0-2.218,0.112-2.254,0.116L1.189,1.185l-0.03,0.289C1.149,1.569,0.923,3.84,1.3,6.752
		z M15.714,18.918l3.271-3.27c0.037,1.493-0.092,2.656-0.161,3.154c-0.414,0.048-1.283,0.129-2.403,0.129
		C16.201,18.93,15.962,18.925,15.714,18.918z M1.929,5.669l3.793-3.817c2.903,0.248,6.804,1.137,9.571,3.903
		c2.607,2.607,3.439,6.133,3.642,8.902l-4.209,4.209c-2.717-0.206-6.429-0.996-8.988-3.556C3.088,12.661,2.199,8.672,1.929,5.669z
		 M1.867,1.845C2.223,1.812,2.88,1.766,3.73,1.766c0.311,0,0.655,0.008,1.019,0.024L1.861,4.695
		C1.791,3.367,1.836,2.327,1.867,1.845z"/>
</g>
</svg>
