<?xml version="1.0" encoding="utf-8"?>
<!-- Generator: Adobe Illustrator 17.0.0, SVG Export Plug-In . SVG Version: 6.00 Build 0)  -->
<!DOCTYPE svg PUBLIC "-//W3C//DTD SVG 1.1//EN" "http://www.w3.org/Graphics/SVG/1.1/DTD/svg11.dtd">
<svg version="1.1" id="Layer_1" xmlns="http://www.w3.org/2000/svg" xmlns:xlink="http://www.w3.org/1999/xlink" x="0px" y="0px"
	 width="38.425px" height="38.418px" viewBox="0 0 38.425 38.418" enable-background="new 0 0 38.425 38.418" xml:space="preserve">
<g>
	<path fill="none" d="M27.979,23.396l-0.576,0.106l-0.224-0.776c-0.091-0.381-0.313-0.625-0.717-0.785
		c-0.305-0.121-0.649-0.17-1.007-0.137c-0.829,0.061-1.552-0.074-2.147-0.458c-0.246-0.161-0.428-0.348-0.554-0.573
		c-0.038-0.068-0.078-0.134-0.12-0.199c0.026,0.199-0.028,0.412-0.166,0.617c-0.126,0.186-0.277,0.322-0.387,0.422
		c-0.21,0.188-0.427,0.389-0.593,0.614c-0.285,0.388-0.318,0.736-0.111,1.165c0.099,0.205,0.239,0.411,0.428,0.631
		c0.31,0.361,0.677,0.695,1.095,0.995c0.373,0.269,0.536,0.631,0.483,1.077c-0.023,0.19-0.028,0.381-0.035,0.572l-0.068,2.094
		c-0.009,0.282-0.05,0.708-0.289,1.138c-0.114,0.205-0.07,0.298-0.004,0.391l0.117,0.166l0.007,0.636l-0.356,0.206
		c-0.025,0.003-0.035,0.044-0.011,0.151c0.082,0.356,0.26,0.637,0.543,0.859c0.051,0.016,0.049-0.051,0.042-0.108
		c-0.046-0.367,0-0.712,0.136-1.023c0.052-0.119,0.053-0.161,0.05-0.19c-0.033-0.313,0.077-0.568,0.15-0.737
		c0.106-0.243,0.238-0.471,0.409-0.713c0.332-0.47,0.729-0.923,1.288-1.472c0.787-0.773,1.651-1.522,2.567-2.228
		c0.011-0.179,0.051-0.341,0.083-0.476c0.173-0.717,0.504-1.314,0.985-1.787c-0.012-0.008-0.025-0.015-0.038-0.022
		C28.65,23.378,28.328,23.331,27.979,23.396z"/>
	<path fill="none" d="M19.213,16.494c0.195-0.107,0.391-0.156,0.561-0.194c0.54-0.119,0.916-0.202,1.208-0.416l0.171-0.125
		l0.301-0.033c0.105,0,0.209,0.022,0.305,0.064c0.085-0.209,0.221-0.42,0.43-0.624l1.416-1.374c0.145-0.141,0.339-0.329,0.592-0.481
		c-0.167-0.213-0.224-0.496-0.154-0.827c0.147-0.687,0.647-0.789,0.932-0.789c0.35,0.018,0.597,0.06,0.839,0.125l0.068,0.018
		c0.011-0.029,0.024-0.058,0.04-0.087c-0.677-0.653-1.422-1.181-2.213-1.57c-0.162-0.08-0.301-0.131-0.429-0.157
		c-0.012,0.068-0.013,0.149-0.013,0.229l0.015,1.008c0.002,0.139-0.004,0.353-0.085,0.582c-0.212,0.594-0.692,0.658-0.888,0.658
		l-0.163-0.011c-0.315-0.043-0.58-0.152-0.775-0.243c-0.941-0.436-1.713-1.066-2.343-1.625c-0.327-0.289-0.363-0.59-0.336-0.792
		c0.028-0.203,0.147-0.489,0.557-0.687c0.184-0.088,0.377-0.146,0.572-0.2l0.157-0.042c0.188-0.051,0.377-0.099,0.554-0.183
		c0.04-0.018,0.145-0.069,0.124-0.263c-0.005-0.045-0.012-0.112-0.161-0.147c-0.285-0.066-0.641-0.056-0.989-0.015
		c-0.468,0.056-0.932,0.169-1.421,0.287l-0.281,0.068c-1.034,0.247-2.001,0.04-2.841-0.609c-0.13-0.1-0.237-0.161-0.338-0.193
		c-0.453-0.14-0.777-0.186-1.108-0.147c-0.201,0.025-0.401,0.064-0.6,0.109c-0.851,0.191-1.551,0.23-2.288,0.096
		c-0.231-0.009-0.365,0.017-0.516,0.236C9.95,8.375,9.837,8.664,9.739,8.942C9.65,9.195,9.581,9.456,9.511,9.717
		C9.508,9.731,9.504,9.744,9.5,9.757c0.958-0.2,1.915-0.094,2.839,0.311c0.349,0.152,0.65,0.365,0.893,0.633
		c0.343,0.378,0.473,0.838,0.368,1.297c-0.051,0.219-0.018,0.446,0.113,0.786c0.156,0.402,0.393,0.768,0.626,1.105
		c0.32,0.463,0.674,0.899,1.028,1.337c0.183,0.226,0.366,0.452,0.545,0.681l0.093,0.118c0.187,0.236,0.398,0.502,0.543,0.832
		l0.046-0.004c0.4-0.024,1.104,0.033,1.656,0.818c0.202,0.287,0.366,0.614,0.518,1.027c0.034,0.092,0.054,0.12,0.054,0.121
		c0.318-0.092,0.59-0.1,0.86-0.109l0.08-0.002c0.387,0,0.772,0.093,1.146,0.276c-0.008-0.033-0.013-0.068-0.017-0.102l-0.021-0.195
		c-0.141-0.111-0.228-0.133-0.313-0.155l-0.851-0.208c-0.243-0.061-0.445-0.157-0.617-0.292c-0.261-0.205-0.397-0.499-0.372-0.807
		C18.742,16.919,18.922,16.652,19.213,16.494z"/>
	<path fill="none" d="M32.034,6.517c-3.398-3.431-7.935-5.326-12.777-5.336C9.3,1.181,1.209,9.265,1.181,19.2
		c0.02,9.892,8.063,17.984,17.929,18.037l0.099,0.643h0.001v-0.643c9.869,0,17.96-8.02,18.035-17.879
		C37.28,14.507,35.43,9.946,32.034,6.517z M30.034,24.38c-0.382,0.322-0.631,0.739-0.76,1.274c-0.027,0.111-0.052,0.216-0.052,0.281
		c0,0.36-0.149,0.656-0.442,0.881c-0.898,0.687-1.742,1.417-2.509,2.171c-0.502,0.492-0.853,0.891-1.138,1.296
		c-0.12,0.169-0.209,0.323-0.273,0.468c-0.023,0.054-0.051,0.119-0.056,0.142c0.039,0.31-0.059,0.593-0.15,0.799
		c-0.041,0.095-0.054,0.212-0.037,0.348c0.023,0.191,0.015,0.384-0.025,0.607c-0.108,0.591-0.599,1.003-1.194,1.003
		c-0.088,0-0.178-0.009-0.266-0.028c-0.234-0.05-0.447-0.149-0.636-0.296c-0.521-0.407-0.86-0.941-1.01-1.589
		c-0.109-0.473-0.034-0.889,0.204-1.203c-0.119-0.41-0.061-0.844,0.173-1.266c0.081-0.145,0.118-0.31,0.127-0.553l0.066-2.023
		c0.009-0.26,0.016-0.467,0.036-0.665c-0.485-0.358-0.906-0.744-1.264-1.162c-0.264-0.306-0.464-0.604-0.612-0.911
		c-0.415-0.86-0.335-1.722,0.233-2.495c0.209-0.284,0.453-0.522,0.677-0.725c-0.016-0.015-0.033-0.03-0.05-0.046l-0.178-0.159
		c-0.147-0.124-0.3-0.241-0.468-0.336c-0.229-0.128-0.446-0.191-0.665-0.191v-0.639l0,0l-0.037,0.64
		c-0.248,0.008-0.497,0.016-0.743,0.037c-1.016,0.095-1.273-0.475-1.428-0.894c-0.112-0.307-0.228-0.538-0.363-0.731
		c-0.169-0.241-0.302-0.274-0.42-0.274l-0.145,0.007c-0.211,0.028-0.913,0.061-1.257-0.756c-0.076-0.183-0.223-0.367-0.378-0.563
		l-0.1-0.127c-0.174-0.222-0.351-0.442-0.53-0.662c-0.374-0.462-0.748-0.925-1.086-1.414c-0.265-0.383-0.563-0.845-0.768-1.375
		c-0.152-0.396-0.309-0.928-0.167-1.543c0.004-0.017,0.012-0.052-0.064-0.136c-0.121-0.133-0.269-0.236-0.454-0.317
		c-0.744-0.326-1.495-0.387-2.257-0.181c-0.19,0.052-0.378,0.137-0.572,0.262c-0.066,0.053-0.26,0.207-0.561,0.207H7.383
		l0.464-0.937c0.186-0.373,0.297-0.786,0.414-1.222c0.078-0.293,0.157-0.586,0.258-0.871C8.647,8.149,8.8,7.764,9.051,7.401
		c0.462-0.665,1.047-0.804,1.456-0.804c0.114,0,0.233,0.011,0.357,0.033c0.557,0.102,1.093,0.067,1.769-0.086
		c0.24-0.054,0.482-0.1,0.725-0.131c0.523-0.066,1.017-0.002,1.652,0.195c0.25,0.078,0.495,0.21,0.746,0.406
		c0.532,0.411,1.094,0.531,1.749,0.373l0.277-0.066c0.505-0.123,1.027-0.249,1.571-0.315c0.499-0.059,1.003-0.063,1.438,0.04
		c0.643,0.15,1.086,0.636,1.153,1.268c0.074,0.682-0.254,1.284-0.855,1.57c-0.21,0.1-0.432,0.169-0.655,0.232
		c0.44,0.355,0.934,0.701,1.481,0.954c0.025,0.011,0.049,0.021,0.071,0.032l-0.013-0.841c-0.002-0.255,0.013-0.53,0.133-0.816
		c0.193-0.458,0.597-0.731,1.081-0.731l0.179,0.011c0.297,0.039,0.587,0.132,0.914,0.294c0.913,0.449,1.769,1.056,2.544,1.804
		c0.166,0.159,0.297,0.321,0.401,0.493c0.114,0.191,0.154,0.396,0.124,0.585l0.31,0.113c0.131,0.049,0.303,0.128,0.456,0.285
		l0.281,0.289l-0.107,0.497c-0.1,0.286-0.36,0.477-0.675,0.494c-0.207-0.003-0.33-0.026-0.433-0.054l-1.134-0.304
		c0.013,0.085,0.016,0.176,0.007,0.272c-0.056,0.592-0.485,0.857-0.885,0.857c-0.203-0.003-0.398,0.112-0.663,0.37l-1.414,1.371
		c-0.157,0.154-0.179,0.267-0.164,0.389c0.093,0.715-0.303,0.963-0.548,1.049l-0.278,0.048c-0.383,0-0.607-0.262-0.692-0.36
		c-0.018-0.02-0.035-0.037-0.051-0.054c-0.118,0.059-0.236,0.108-0.355,0.15c0.122,0.035,0.242,0.077,0.356,0.131
		c0.42,0.201,0.691,0.543,0.775,0.976c0.469,0.169,0.809,0.492,1.108,0.825c0.243,0.273,0.458,0.573,0.638,0.894
		c0.017,0.031,0.044,0.066,0.129,0.121c0.351,0.227,0.808,0.296,1.34,0.255c0.55-0.044,1.097,0.03,1.587,0.224
		c0.667,0.264,1.141,0.722,1.387,1.337c0.44,0.008,0.866,0.125,1.264,0.346c0.219,0.122,0.394,0.257,0.535,0.414
		c0.088,0.098,0.353,0.392,0.325,0.806C30.431,23.913,30.291,24.162,30.034,24.38z"/>
	<path fill="#FFFFFF" d="M32.953,5.607c-3.642-3.678-8.506-5.709-13.735-5.72C8.589-0.113-0.084,8.549-0.113,19.2
		c0.021,10.604,8.642,19.275,19.217,19.332h0.106c10.578,0,19.249-8.597,19.329-19.163C38.577,14.17,36.594,9.282,32.953,5.607z
		 M19.209,37.237v0.643h-0.001l-0.099-0.643C9.244,37.184,1.201,29.092,1.181,19.2C1.209,9.265,9.3,1.181,19.257,1.181
		c4.841,0.01,9.379,1.905,12.777,5.336c3.397,3.429,5.247,7.99,5.21,12.841C37.169,29.217,29.078,37.237,19.209,37.237z"/>
	<path fill="#FFFFFF" d="M29.591,22.421c-0.398-0.221-0.823-0.338-1.264-0.346c-0.246-0.614-0.72-1.072-1.387-1.337
		c-0.49-0.194-1.037-0.268-1.587-0.224c-0.533,0.041-0.99-0.028-1.34-0.255c-0.085-0.055-0.112-0.09-0.129-0.121
		c-0.181-0.32-0.395-0.621-0.638-0.894c-0.299-0.334-0.639-0.657-1.108-0.825c-0.084-0.432-0.355-0.775-0.775-0.976
		c-0.114-0.054-0.234-0.095-0.356-0.131c0.119-0.042,0.238-0.092,0.355-0.15c0.016,0.017,0.033,0.035,0.051,0.054
		c0.085,0.099,0.309,0.36,0.692,0.36l0.278-0.048c0.245-0.086,0.641-0.334,0.548-1.049c-0.016-0.123,0.006-0.236,0.164-0.389
		l1.414-1.371c0.265-0.257,0.459-0.373,0.663-0.37c0.4,0,0.828-0.265,0.885-0.857c0.009-0.096,0.006-0.186-0.007-0.272l1.134,0.304
		c0.103,0.028,0.226,0.051,0.433,0.054c0.315-0.017,0.575-0.208,0.675-0.494l0.107-0.497l-0.281-0.289
		c-0.153-0.157-0.325-0.236-0.456-0.285l-0.31-0.113c0.03-0.189-0.009-0.394-0.124-0.585c-0.104-0.172-0.234-0.334-0.401-0.493
		c-0.775-0.748-1.631-1.355-2.544-1.804c-0.327-0.162-0.617-0.255-0.914-0.294l-0.179-0.011c-0.484,0-0.888,0.273-1.081,0.731
		c-0.12,0.286-0.135,0.561-0.133,0.816l0.013,0.841c-0.023-0.01-0.047-0.02-0.071-0.032c-0.547-0.253-1.041-0.599-1.481-0.954
		c0.223-0.063,0.444-0.131,0.655-0.232c0.601-0.286,0.929-0.888,0.855-1.57c-0.068-0.633-0.51-1.119-1.153-1.268
		c-0.435-0.102-0.938-0.099-1.438-0.04c-0.544,0.066-1.066,0.192-1.571,0.315l-0.277,0.066c-0.655,0.157-1.217,0.038-1.749-0.373
		c-0.252-0.195-0.496-0.328-0.746-0.406c-0.635-0.197-1.129-0.262-1.652-0.195c-0.243,0.03-0.485,0.077-0.725,0.131
		c-0.676,0.153-1.213,0.188-1.769,0.086c-0.124-0.023-0.243-0.033-0.357-0.033c-0.41,0-0.994,0.14-1.456,0.804
		C8.8,7.764,8.647,8.149,8.519,8.512c-0.1,0.285-0.179,0.578-0.258,0.871c-0.117,0.436-0.227,0.849-0.414,1.222l-0.464,0.937H8.43
		c0.301,0,0.495-0.154,0.561-0.207c0.194-0.124,0.382-0.21,0.572-0.262c0.762-0.206,1.512-0.145,2.257,0.181
		c0.185,0.081,0.333,0.185,0.454,0.317c0.076,0.085,0.068,0.119,0.064,0.136c-0.142,0.615,0.015,1.147,0.167,1.543
		c0.205,0.53,0.504,0.992,0.768,1.375c0.339,0.489,0.712,0.952,1.086,1.414c0.178,0.22,0.356,0.44,0.53,0.662l0.1,0.127
		c0.155,0.196,0.301,0.38,0.378,0.563c0.344,0.817,1.046,0.784,1.257,0.756l0.145-0.007c0.118,0,0.25,0.033,0.42,0.274
		c0.135,0.193,0.25,0.425,0.363,0.731c0.155,0.42,0.413,0.99,1.428,0.894c0.246-0.021,0.495-0.028,0.743-0.037l0.037-0.64l0,0v0.639
		c0.219,0,0.436,0.063,0.665,0.191c0.169,0.095,0.321,0.211,0.468,0.336l0.178,0.159c0.016,0.015,0.033,0.03,0.05,0.046
		c-0.224,0.203-0.468,0.441-0.677,0.725c-0.568,0.773-0.648,1.635-0.233,2.495c0.149,0.307,0.349,0.605,0.612,0.911
		c0.358,0.418,0.779,0.804,1.264,1.162c-0.02,0.198-0.027,0.405-0.036,0.665l-0.066,2.023c-0.009,0.243-0.046,0.408-0.127,0.553
		c-0.234,0.422-0.292,0.857-0.173,1.266c-0.238,0.315-0.313,0.731-0.204,1.203c0.15,0.648,0.489,1.182,1.01,1.589
		c0.189,0.147,0.403,0.246,0.636,0.296c0.088,0.018,0.178,0.028,0.266,0.028c0.595,0,1.086-0.412,1.194-1.003
		c0.04-0.224,0.049-0.416,0.025-0.607c-0.016-0.136-0.004-0.253,0.037-0.348c0.09-0.207,0.189-0.49,0.15-0.799
		c0.005-0.023,0.033-0.088,0.056-0.142c0.064-0.145,0.153-0.299,0.273-0.468c0.286-0.404,0.636-0.804,1.138-1.296
		c0.767-0.754,1.611-1.484,2.509-2.171c0.293-0.225,0.442-0.521,0.442-0.881c0-0.065,0.025-0.171,0.052-0.281
		c0.13-0.535,0.378-0.952,0.76-1.274c0.257-0.219,0.397-0.467,0.416-0.739c0.028-0.414-0.237-0.708-0.325-0.806
		C29.984,22.678,29.809,22.543,29.591,22.421z M19.088,18.032c0.172,0.135,0.373,0.231,0.617,0.292l0.851,0.208
		c0.085,0.022,0.173,0.044,0.313,0.155l0.021,0.195c0.004,0.035,0.009,0.07,0.017,0.102c-0.374-0.183-0.759-0.276-1.146-0.276
		l-0.08,0.002c-0.27,0.008-0.542,0.017-0.86,0.109c-0.001-0.001-0.02-0.03-0.054-0.121c-0.152-0.413-0.317-0.74-0.518-1.027
		c-0.552-0.785-1.256-0.842-1.656-0.818l-0.046,0.004c-0.145-0.331-0.356-0.597-0.543-0.832l-0.093-0.118
		c-0.179-0.229-0.362-0.456-0.545-0.681c-0.354-0.437-0.708-0.874-1.028-1.337c-0.233-0.336-0.47-0.703-0.626-1.105
		c-0.131-0.34-0.164-0.568-0.113-0.786c0.106-0.459-0.025-0.919-0.368-1.297c-0.243-0.267-0.543-0.48-0.893-0.633
		C11.415,9.664,10.458,9.558,9.5,9.757c0.004-0.013,0.008-0.027,0.011-0.04c0.07-0.261,0.14-0.522,0.229-0.775
		c0.097-0.277,0.21-0.566,0.375-0.803c0.151-0.219,0.285-0.245,0.516-0.236c0.737,0.134,1.438,0.095,2.288-0.096
		c0.198-0.045,0.399-0.084,0.6-0.109c0.331-0.039,0.655,0.007,1.108,0.147c0.101,0.032,0.209,0.093,0.338,0.193
		c0.839,0.649,1.807,0.856,2.841,0.609l0.281-0.068c0.49-0.118,0.953-0.231,1.421-0.287c0.348-0.042,0.704-0.051,0.989,0.015
		c0.149,0.035,0.155,0.102,0.161,0.147c0.021,0.194-0.085,0.245-0.124,0.263c-0.177,0.084-0.366,0.132-0.554,0.183l-0.157,0.042
		c-0.195,0.054-0.388,0.111-0.572,0.2c-0.41,0.198-0.529,0.483-0.557,0.687c-0.028,0.202,0.008,0.502,0.336,0.792
		c0.631,0.559,1.402,1.189,2.343,1.625c0.196,0.09,0.461,0.2,0.775,0.243l0.163,0.011c0.196,0,0.676-0.064,0.888-0.658
		c0.08-0.229,0.087-0.443,0.085-0.582l-0.015-1.008c-0.001-0.08,0.001-0.161,0.013-0.229c0.128,0.027,0.267,0.077,0.429,0.157
		c0.791,0.389,1.536,0.917,2.213,1.57c-0.016,0.029-0.028,0.058-0.04,0.087l-0.068-0.018c-0.243-0.065-0.489-0.107-0.839-0.125
		c-0.285,0-0.786,0.102-0.932,0.789c-0.07,0.331-0.013,0.614,0.154,0.827c-0.253,0.152-0.447,0.34-0.592,0.481l-1.416,1.374
		c-0.209,0.204-0.346,0.415-0.43,0.624c-0.097-0.042-0.2-0.064-0.305-0.064l-0.301,0.033l-0.171,0.125
		c-0.293,0.215-0.669,0.298-1.208,0.416c-0.169,0.038-0.366,0.087-0.561,0.194c-0.29,0.158-0.471,0.425-0.496,0.731
		C18.691,17.533,18.827,17.827,19.088,18.032z M28.013,25.36c-0.032,0.135-0.071,0.297-0.083,0.476
		c-0.916,0.705-1.78,1.455-2.567,2.228c-0.559,0.549-0.956,1.002-1.288,1.472c-0.171,0.242-0.303,0.47-0.409,0.713
		c-0.073,0.169-0.183,0.424-0.15,0.737c0.003,0.03,0.003,0.071-0.05,0.19c-0.136,0.312-0.181,0.657-0.136,1.023
		c0.007,0.057,0.009,0.124-0.042,0.108c-0.284-0.222-0.461-0.502-0.543-0.859c-0.025-0.107-0.015-0.149,0.011-0.151l0.356-0.206
		l-0.007-0.636l-0.117-0.166c-0.065-0.093-0.109-0.186,0.004-0.391c0.239-0.43,0.279-0.855,0.289-1.138l0.068-2.094
		c0.007-0.191,0.013-0.382,0.035-0.572c0.053-0.446-0.109-0.808-0.483-1.077c-0.417-0.3-0.785-0.634-1.095-0.995
		c-0.19-0.22-0.33-0.427-0.428-0.631c-0.207-0.428-0.174-0.777,0.111-1.165c0.166-0.225,0.382-0.425,0.593-0.614
		c0.11-0.099,0.261-0.235,0.387-0.422c0.138-0.205,0.191-0.418,0.166-0.617c0.042,0.065,0.082,0.131,0.12,0.199
		c0.126,0.226,0.308,0.413,0.554,0.573c0.595,0.384,1.318,0.519,2.147,0.458c0.358-0.033,0.702,0.015,1.007,0.137
		c0.404,0.16,0.626,0.404,0.717,0.785l0.224,0.776l0.576-0.106c0.349-0.064,0.671-0.018,0.981,0.155
		c0.013,0.008,0.026,0.015,0.038,0.022C28.517,24.046,28.186,24.644,28.013,25.36z"/>
</g>
</svg>
