<?xml version="1.0" encoding="utf-8"?>
<!-- Generator: Adobe Illustrator 17.0.0, SVG Export Plug-In . SVG Version: 6.00 Build 0)  -->
<!DOCTYPE svg PUBLIC "-//W3C//DTD SVG 1.1//EN" "http://www.w3.org/Graphics/SVG/1.1/DTD/svg11.dtd">
<svg version="1.1" id="Layer_1" xmlns="http://www.w3.org/2000/svg" xmlns:xlink="http://www.w3.org/1999/xlink" x="0px" y="0px"
	 width="29.387px" height="29.387px" viewBox="0 0 29.387 29.387" enable-background="new 0 0 29.387 29.387" xml:space="preserve">
<g>
	<circle fill="#FFFFFF" cx="14.694" cy="14.694" r="14.694"/>
	<circle fill="#55ACEF" cx="14.694" cy="14.694" r="12.015"/>
	<path fill="#FFFFFF" d="M21.589,14.611c0.493,0.203,1.416,0.316,2.054,0.208c-0.404,0.432-1.055,0.826-2.164,0.815
		c-1.477,5.991-11.398,8.531-15.96,2.313c1.749,1.667,4.791,1.812,6.722-0.179c-1.131,0.164-1.957-0.945-0.564-1.544
		c-1.252,0.136-1.946-0.528-2.231-1.094c0.294-0.307,0.616-0.448,1.241-0.491c-1.369-0.322-1.874-0.992-2.03-1.803
		c0.381-0.091,0.856-0.171,1.118-0.134c-1.202-0.627-1.617-1.57-1.55-2.281c2.143,0.798,3.507,1.436,4.648,2.047
		c0.409,0.216,0.86,0.608,1.373,1.103c0.651-1.721,1.457-3.5,2.837-4.378c-0.024,0.199-0.132,0.387-0.272,0.538
		c0.393-0.357,0.902-0.599,1.418-0.67c-0.054,0.352-0.515,0.562-0.852,0.696c-0.037,0.013-0.071,0.026-0.104,0.039
		c0.026-0.009,0.061-0.022,0.104-0.039c0.406-0.154,1.522-0.614,1.656-0.305c0.175,0.391-0.934,0.575-1.124,0.642
		c-0.143,0.048-0.283,0.099-0.422,0.154c1.719-0.171,3.362,1.25,3.842,3.01c0.032,0.128,0.067,0.268,0.099,0.417
		c0.629,0.231,1.769-0.013,2.136-0.238C23.294,14.064,22.605,14.527,21.589,14.611z"/>
</g>
</svg>
