<?xml version="1.0" encoding="utf-8"?>
<!-- Generator: Adobe Illustrator 17.0.0, SVG Export Plug-In . SVG Version: 6.00 Build 0)  -->
<!DOCTYPE svg PUBLIC "-//W3C//DTD SVG 1.1//EN" "http://www.w3.org/Graphics/SVG/1.1/DTD/svg11.dtd">
<svg version="1.1" id="Layer_1" xmlns="http://www.w3.org/2000/svg" xmlns:xlink="http://www.w3.org/1999/xlink" x="0px" y="0px"
	 width="20.827px" height="20.696px" viewBox="0 0 20.827 20.696" enable-background="new 0 0 20.827 20.696" xml:space="preserve">
<g>
	<g>
		<rect x="12.632" y="7.175" fill="#7736DD" width="7.714" height="0.962"/>
		<rect x="12.632" y="9.029" fill="#7736DD" width="7.714" height="0.962"/>
		<rect x="12.632" y="10.883" fill="#7736DD" width="7.714" height="0.962"/>
		<rect x="12.632" y="12.736" fill="#7736DD" width="7.714" height="0.962"/>
		<rect x="10.671" y="7.175" fill="#7736DD" width="1.189" height="0.962"/>
		<rect x="10.671" y="9.029" fill="#7736DD" width="1.189" height="0.962"/>
		<rect x="10.671" y="10.883" fill="#7736DD" width="1.189" height="0.962"/>
		<rect x="10.671" y="12.736" fill="#7736DD" width="1.189" height="0.962"/>
	</g>
	<g id="lZOGyr.tif_1_">
		<g>
			<path fill="#7736DD" d="M5.068,8.819c0.436,0.252,0.868,0.501,1.3,0.75c0.282,0.163,0.564,0.326,0.846,0.488
				c0.035,0.02,0.053,0.041,0.053,0.085c-0.002,0.518-0.001,2.603-0.001,3.121c0,0.014-0.002,0.027-0.002,0.044
				c-0.76,0.439-1.52,0.878-2.283,1.318c-0.016-0.008-0.032-0.015-0.048-0.024c-0.672-0.388-1.344-0.776-2.017-1.163
				c-0.037-0.021-0.05-0.045-0.05-0.087c0.001-0.546,0.001-2.658,0-3.204c0-0.041,0.011-0.066,0.049-0.088
				c0.707-0.406,1.413-0.814,2.119-1.222C5.044,8.831,5.054,8.826,5.068,8.819z"/>
			<path fill="#7736DD" d="M2.302,13.081C2.223,13.036,2.157,13,2.091,12.962c-0.499-0.289-0.998-0.58-1.499-0.864
				C0.509,12.05,0.479,12,0.48,11.904c0.006-0.527,0.003-2.621,0.003-3.148c0-0.028,0-0.055,0-0.088
				C0.565,8.62,0.645,8.571,0.727,8.524c0.426-0.246,0.852-0.491,1.277-0.736C2.2,7.675,2.397,7.563,2.592,7.449
				c0.036-0.021,0.063-0.023,0.1-0.001c0.247,0.145,0.496,0.286,0.744,0.429C3.738,8.051,4.04,8.225,4.341,8.399
				c0.048,0.028,0.095,0.056,0.152,0.089C4.471,8.506,4.457,8.52,4.441,8.53c-0.31,0.179-0.62,0.357-0.929,0.536
				C3.21,9.24,2.908,9.415,2.606,9.589c-0.08,0.046-0.159,0.095-0.241,0.137C2.318,9.751,2.301,9.781,2.301,9.835
				c0.002,0.529,0.001,2.626,0.001,3.155C2.302,13.015,2.302,13.04,2.302,13.081z"/>
			<path fill="#7736DD" d="M7.401,7.471c0.692,0.4,1.379,0.796,2.072,1.196c0,0.021,0,0.044,0,0.067
				c0,0.552-0.001,2.672,0.001,3.224c0,0.053-0.015,0.083-0.061,0.109c-0.233,0.132-0.464,0.268-0.695,0.401
				c-0.262,0.151-0.524,0.302-0.786,0.452c-0.027,0.016-0.056,0.03-0.095,0.05c-0.002-0.038-0.005-0.065-0.005-0.091
				c0-0.488-0.002-2.542,0.001-3.03c0-0.065-0.021-0.099-0.076-0.13c-0.413-0.235-0.824-0.473-1.236-0.71
				C6.248,8.852,5.974,8.693,5.7,8.535c-0.018-0.01-0.034-0.023-0.06-0.04c0.03-0.02,0.052-0.038,0.077-0.052
				C6.135,8.201,6.553,7.96,6.97,7.719C7.112,7.637,7.254,7.556,7.401,7.471z"/>
			<path fill="#7736DD" d="M5.066,8.169C4.448,7.812,3.833,7.457,3.206,7.095c0.595-0.344,1.18-0.682,1.772-1.023
				C5.593,6.427,6.21,6.783,6.838,7.146C6.245,7.488,5.659,7.827,5.066,8.169z"/>
		</g>
	</g>
</g>
</svg>
