<?xml version="1.0" encoding="utf-8"?>
<!-- Generator: Adobe Illustrator 17.0.0, SVG Export Plug-In . SVG Version: 6.00 Build 0)  -->
<!DOCTYPE svg PUBLIC "-//W3C//DTD SVG 1.1//EN" "http://www.w3.org/Graphics/SVG/1.1/DTD/svg11.dtd">
<svg version="1.1" id="Layer_1" xmlns="http://www.w3.org/2000/svg" xmlns:xlink="http://www.w3.org/1999/xlink" x="0px" y="0px"
	 width="20.827px" height="20.696px" viewBox="0 0 20.827 20.696" enable-background="new 0 0 20.827 20.696" xml:space="preserve">
<g>
	<g id="vTOkn3.tif">
		<g>
			<path fill="#18C5FF" d="M0.659,10.345c0.002-2.719,2.206-4.937,4.948-4.929c2.72,0.008,4.93,2.22,4.915,4.961
				c-0.015,2.707-2.22,4.92-4.968,4.901C2.853,15.261,0.66,13.066,0.659,10.345z M5.592,14.83c2.465,0.004,4.465-1.995,4.482-4.448
				C10.09,7.89,8.085,5.899,5.659,5.865C3.147,5.83,1.129,7.852,1.108,10.307C1.088,12.811,3.117,14.836,5.592,14.83z"/>
			<path fill="#18C5FF" d="M6.205,10.282c0.149,0.017,0.248,0.103,0.332,0.208c0.051,0.064,0.095,0.134,0.142,0.201
				c0.014,0.02,0.029,0.042,0.048,0.056c0.106,0.076,0.223,0.122,0.356,0.122c0.093,0,0.187-0.003,0.28,0.001
				c0.102,0.004,0.198,0.032,0.285,0.085c0.106,0.064,0.176,0.156,0.205,0.279c0.004,0.016,0.008,0.031,0.012,0.046
				c0.001,0.002,0.002,0.004,0.006,0.009c0.076-0.013,0.155-0.018,0.233,0.004c0.071,0.02,0.139,0.045,0.196,0.093
				c0.027,0.023,0.051,0.052,0.07,0.082c0.019,0.029,0.013,0.061-0.012,0.088c-0.009,0.01-0.02,0.019-0.03,0.028
				c-0.168,0.145-0.253,0.331-0.272,0.549c-0.003,0.039-0.018,0.061-0.047,0.083c-0.202,0.156-0.398,0.32-0.584,0.497
				c-0.149,0.141-0.296,0.285-0.414,0.455c-0.032,0.047-0.06,0.097-0.087,0.147c-0.013,0.024-0.029,0.052-0.027,0.076
				c0.01,0.099-0.046,0.183-0.054,0.278c-0.003,0.032-0.001,0.063-0.002,0.095c-0.002,0.039,0,0.078-0.008,0.115
				c-0.014,0.07-0.09,0.12-0.162,0.104c-0.039-0.008-0.08-0.024-0.111-0.048c-0.11-0.082-0.178-0.194-0.204-0.329
				c-0.022-0.113,0.002-0.161,0.099-0.221c-0.015-0.03-0.033-0.059-0.044-0.091c-0.025-0.072-0.009-0.142,0.027-0.204
				c0.042-0.072,0.054-0.149,0.056-0.229c0.006-0.175,0.011-0.351,0.018-0.526c0.003-0.071,0.004-0.142,0.011-0.212
				c0.005-0.045-0.014-0.069-0.047-0.096c-0.093-0.077-0.186-0.155-0.274-0.238c-0.075-0.071-0.137-0.153-0.185-0.245
				c-0.097-0.184-0.079-0.362,0.055-0.521c0.051-0.061,0.112-0.113,0.167-0.171c0.025-0.026,0.051-0.052,0.072-0.082
				c0.022-0.031,0.019-0.048-0.008-0.071c-0.079-0.066-0.156-0.133-0.237-0.195c-0.117-0.089-0.249-0.131-0.397-0.119
				c-0.057,0.005-0.114,0.008-0.171,0.01c-0.029,0.001-0.06,0-0.088-0.007c-0.046-0.01-0.073-0.042-0.088-0.087
				c-0.029-0.089-0.067-0.175-0.12-0.252c-0.014-0.021-0.03-0.04-0.047-0.059C5.097,9.92,5.021,9.887,4.928,9.892
				c-0.03,0.002-0.059,0.002-0.089,0.001C4.804,9.893,4.777,9.879,4.761,9.847c-0.08-0.169-0.206-0.306-0.321-0.45
				C4.309,9.23,4.173,9.067,4.067,8.882C4.011,8.785,3.96,8.685,3.945,8.573c-0.006-0.047-0.007-0.096,0-0.142
				c0.015-0.093-0.006-0.17-0.076-0.236c-0.056-0.053-0.12-0.091-0.19-0.119C3.461,7.989,3.238,7.97,3.009,8.031
				C2.918,8.055,2.835,8.097,2.749,8.159c0.009-0.022,0.015-0.034,0.019-0.047c0.037-0.115,0.073-0.23,0.111-0.344
				c0.035-0.106,0.068-0.212,0.108-0.316c0.018-0.046,0.046-0.089,0.074-0.13C3.132,7.221,3.231,7.177,3.352,7.2
				c0.183,0.035,0.363,0.016,0.542-0.023C3.956,7.163,4.019,7.15,4.082,7.143C4.205,7.13,4.324,7.152,4.438,7.195
				C4.484,7.212,4.53,7.237,4.569,7.267c0.184,0.14,0.387,0.186,0.612,0.131c0.128-0.031,0.257-0.06,0.387-0.084
				c0.128-0.024,0.257-0.03,0.387-0.009c0.17,0.027,0.242,0.221,0.133,0.366C6.068,7.698,6.034,7.72,6.001,7.733
				C5.936,7.759,5.867,7.777,5.8,7.799C5.766,7.81,5.73,7.819,5.696,7.832C5.679,7.838,5.662,7.847,5.648,7.857
				C5.614,7.883,5.611,7.905,5.636,7.938c0.005,0.007,0.011,0.014,0.018,0.02c0.173,0.149,0.35,0.294,0.559,0.39
				c0.053,0.025,0.11,0.043,0.167,0.058c0.054,0.015,0.089-0.006,0.103-0.06C6.493,8.313,6.496,8.276,6.497,8.24
				c0.001-0.087-0.004-0.173-0.003-0.26c0.001-0.043,0.005-0.087,0.017-0.128c0.023-0.077,0.078-0.111,0.157-0.094
				C6.73,7.77,6.793,7.788,6.85,7.816c0.232,0.111,0.438,0.262,0.624,0.44c0.023,0.022,0.044,0.046,0.063,0.072
				C7.55,8.347,7.56,8.37,7.572,8.393C7.553,8.41,7.538,8.423,7.524,8.437C7.491,8.47,7.493,8.495,7.531,8.521
				c0.021,0.014,0.044,0.024,0.067,0.033c0.047,0.018,0.094,0.034,0.141,0.052c0.021,0.008,0.043,0.016,0.061,0.029
				c0.011,0.008,0.022,0.025,0.021,0.037C7.82,8.693,7.799,8.692,7.783,8.689C7.754,8.683,7.725,8.677,7.697,8.67
				C7.543,8.629,7.389,8.587,7.234,8.547C7.197,8.538,7.158,8.534,7.119,8.53C7.064,8.526,7.041,8.548,7.029,8.609
				C7.016,8.67,7.03,8.699,7.081,8.718c0.03,0.011,0.062,0.016,0.092,0.027c0.043,0.016,0.054,0.035,0.05,0.078
				c-0.004,0.042-0.021,0.061-0.062,0.07C7.156,8.894,7.152,8.895,7.147,8.895C7.038,8.885,6.962,8.946,6.89,9.016
				c-0.113,0.11-0.226,0.219-0.339,0.329C6.522,9.373,6.492,9.401,6.465,9.432C6.416,9.487,6.39,9.551,6.399,9.627
				c0.002,0.018,0.002,0.036,0.002,0.055C6.402,9.705,6.398,9.728,6.375,9.74c-0.025,0.013-0.044-0.003-0.06-0.02
				c-0.018-0.018-0.034-0.037-0.05-0.056C6.249,9.648,6.234,9.63,6.219,9.614c-0.02-0.021-0.042-0.025-0.067-0.007
				C6.053,9.68,5.938,9.707,5.822,9.733C5.776,9.743,5.73,9.757,5.684,9.772c-0.032,0.01-0.058,0.031-0.06,0.067
				c-0.002,0.036,0.02,0.062,0.05,0.076c0.041,0.019,0.084,0.036,0.127,0.048c0.059,0.017,0.12,0.027,0.18,0.042
				c0.031,0.008,0.062,0.016,0.091,0.029c0.075,0.033,0.119,0.089,0.124,0.173C6.197,10.23,6.201,10.253,6.205,10.282z"/>
		</g>
	</g>
	<g>
		<rect x="12.894" y="7.576" fill="#18C5FF" width="7.273" height="0.907"/>
		<rect x="12.894" y="9.324" fill="#18C5FF" width="7.273" height="0.907"/>
		<rect x="12.894" y="11.072" fill="#18C5FF" width="7.273" height="0.907"/>
		<rect x="12.894" y="12.819" fill="#18C5FF" width="7.273" height="0.907"/>
		<rect x="11.045" y="7.576" fill="#18C5FF" width="1.121" height="0.907"/>
		<rect x="11.045" y="9.324" fill="#18C5FF" width="1.121" height="0.907"/>
		<rect x="11.045" y="11.072" fill="#18C5FF" width="1.121" height="0.907"/>
		<rect x="11.045" y="12.819" fill="#18C5FF" width="1.121" height="0.907"/>
	</g>
</g>
</svg>
