<?xml version="1.0" encoding="utf-8"?>
<!-- Generator: Adobe Illustrator 17.0.0, SVG Export Plug-In . SVG Version: 6.00 Build 0)  -->
<!DOCTYPE svg PUBLIC "-//W3C//DTD SVG 1.1//EN" "http://www.w3.org/Graphics/SVG/1.1/DTD/svg11.dtd">
<svg version="1.1" id="Layer_1" xmlns="http://www.w3.org/2000/svg" xmlns:xlink="http://www.w3.org/1999/xlink" x="0px" y="0px"
	 width="20.827px" height="20.696px" viewBox="0 0 20.827 20.696" enable-background="new 0 0 20.827 20.696" xml:space="preserve">
<g>
	<path fill="#414042" d="M17.059,17.645c2-1.813,3.259-4.431,3.259-7.337c0-5.461-4.443-9.904-9.904-9.904
		c-5.462,0-9.905,4.443-9.905,9.904c0,3.338,1.662,6.294,4.2,8.089c0.003,0.002,0.006,0.004,0.009,0.006
		c0.097,0.069,0.196,0.136,0.296,0.201c0.063,0.042,0.127,0.083,0.192,0.123c0.05,0.031,0.101,0.062,0.152,0.092
		c0.101,0.061,0.204,0.12,0.308,0.177c0.021,0.011,0.042,0.023,0.063,0.034c1.475,0.8,3.208,1.26,4.91,1.26
		c0.791,0,1.616-0.174,2.406-0.437c1.459-0.403,2.784-1.131,3.891-2.103C16.981,17.715,17.023,17.679,17.059,17.645z M1.061,10.308
		c0-5.157,4.196-9.353,9.353-9.353c5.157,0,9.352,4.196,9.352,9.353c0,2.599-1.067,4.954-2.784,6.65
		c-0.669-0.523-1.5-0.854-2.243-1.148c-0.975-0.385-1.819-0.718-2.075-1.342c-0.04-0.471-0.037-0.831-0.034-1.247
		c0.001-0.079,0.001-0.16,0.002-0.243c0.359-0.333,0.753-1.169,0.878-1.877c0.268-0.11,0.619-0.428,0.727-1.318
		c0.052-0.434-0.088-0.756-0.266-0.951c0.22-0.726,0.744-2.826-0.075-4.145c-0.333-0.537-0.843-0.87-1.518-0.992
		c-0.345-0.471-1.049-0.728-2.007-0.728C8.935,2.994,7.887,3.428,7.257,4.259C6.497,5.26,6.365,6.795,6.864,8.824
		c-0.182,0.195-0.327,0.52-0.273,0.96c0.107,0.891,0.458,1.208,0.727,1.318c0.126,0.707,0.53,1.545,0.899,1.878
		c0,0.08,0.001,0.159,0.002,0.235c0.004,0.417,0.007,0.779-0.034,1.252c-0.257,0.624-1.104,0.957-2.083,1.342
		c-0.746,0.294-1.582,0.626-2.254,1.15C2.128,15.264,1.061,12.909,1.061,10.308z"/>
</g>
</svg>
