<?xml version="1.0" encoding="utf-8"?>
<!-- Generator: Adobe Illustrator 17.0.0, SVG Export Plug-In . SVG Version: 6.00 Build 0)  -->
<!DOCTYPE svg PUBLIC "-//W3C//DTD SVG 1.1//EN" "http://www.w3.org/Graphics/SVG/1.1/DTD/svg11.dtd">
<svg version="1.1" id="Layer_1" xmlns="http://www.w3.org/2000/svg" xmlns:xlink="http://www.w3.org/1999/xlink" x="0px" y="0px"
	 width="20.827px" height="20.696px" viewBox="0 0 20.827 20.696" enable-background="new 0 0 20.827 20.696" xml:space="preserve">
<g id="JzPQZM.tif">
	<g>
		<path fill="#414042" d="M15.577,13.458c-3.451,0-6.877,0-10.317,0c-0.005-0.063-0.014-0.12-0.014-0.177
			c-0.001-1.647-0.008-3.293,0.002-4.939c0.012-2.187,1.44-4.137,3.516-4.825c0.151-0.05,0.302-0.075,0.461-0.074
			c0.793,0.004,1.587-0.001,2.38,0.004c0.125,0.001,0.256,0.014,0.374,0.054c1.913,0.658,3.094,1.973,3.515,3.955
			c0.06,0.283,0.087,0.578,0.088,0.868c0.008,1.654,0.004,3.308,0.004,4.962C15.584,13.337,15.58,13.389,15.577,13.458z"/>
		<path fill="#414042" d="M10.413,17.245c-1.938,0-3.876-0.001-5.814,0.001c-0.279,0-0.554-0.019-0.82-0.102
			c-0.551-0.172-0.952-0.506-1.082-1.09C2.485,15.11,3,14.33,3.952,14.144c0.197-0.038,0.401-0.056,0.601-0.056
			c3.906-0.003,7.812-0.002,11.718-0.003c0.427,0,0.835,0.073,1.202,0.299c0.55,0.339,0.763,0.852,0.691,1.474
			c-0.083,0.721-0.564,1.198-1.313,1.332c-0.212,0.038-0.431,0.051-0.647,0.052C14.274,17.246,12.343,17.245,10.413,17.245z"/>
		<path fill="#414042" d="M12.024,17.92c0.049,0.733-0.12,1.357-0.781,1.745c-0.554,0.325-1.129,0.319-1.678-0.013
			c-0.647-0.391-0.808-1.011-0.76-1.716C8.977,17.896,11.673,17.882,12.024,17.92z"/>
		<path fill="#414042" d="M9.071,2.778C9.054,2.413,9.045,2.064,9.157,1.724c0.229-0.695,0.777-1.025,1.519-0.909
			c0.537,0.084,0.917,0.49,1.042,1.071c0.062,0.288,0.053,0.578,0.043,0.867C11.591,2.802,9.645,2.821,9.071,2.778z"/>
	</g>
</g>
</svg>
