<?xml version="1.0" encoding="utf-8"?>
<!-- Generator: Adobe Illustrator 17.0.0, SVG Export Plug-In . SVG Version: 6.00 Build 0)  -->
<!DOCTYPE svg PUBLIC "-//W3C//DTD SVG 1.1//EN" "http://www.w3.org/Graphics/SVG/1.1/DTD/svg11.dtd">
<svg version="1.1" id="Layer_1" xmlns="http://www.w3.org/2000/svg" xmlns:xlink="http://www.w3.org/1999/xlink" x="0px" y="0px"
	 width="29.44px" height="28.623px" viewBox="0 0 29.44 28.623" enable-background="new 0 0 29.44 28.623" xml:space="preserve">
<g id="agiBtO.tif">
	<g>
		<path fill="#FFFFFF" d="M17.105,14.296c0,4.077,0,8.154,0,12.232c0,0.382-0.039,0.756-0.239,1.094
			c-0.404,0.684-1.01,1.01-1.799,1.002c-0.158-0.002-0.318-0.02-0.474-0.044c-0.22-0.035-0.414-0.128-0.588-0.272
			c-1.469-1.212-2.941-2.423-4.411-3.633c-0.871-0.717-1.744-1.433-2.612-2.154c-0.114-0.095-0.227-0.137-0.377-0.137
			c-1.255,0.005-2.51-0.014-3.765,0.008c-1.117,0.02-2.102-1.012-2.099-2.092c0.01-3.905,0.005-7.809,0.003-11.714
			c0-0.632,0.286-1.09,0.825-1.397C1.954,6.97,2.374,6.895,2.813,6.896C4.035,6.899,5.257,6.895,6.479,6.9
			C6.627,6.9,6.739,6.862,6.852,6.761c1.338-1.192,2.681-2.378,4.022-3.566c0.989-0.876,1.978-1.751,2.964-2.629
			c0.299-0.266,0.635-0.453,1.03-0.53c1.108-0.215,2.035,0.572,2.195,1.434c0.035,0.188,0.04,0.383,0.04,0.575
			C17.106,6.128,17.105,10.212,17.105,14.296z M13.358,23.236c0-5.799,0-11.577,0-17.384c-0.07,0.058-0.121,0.097-0.169,0.14
			c-1.492,1.337-2.985,2.674-4.476,4.013c-0.469,0.421-1,0.647-1.644,0.632c-0.876-0.02-1.753-0.005-2.629-0.005
			c-0.053,0-0.106,0.001-0.159,0.002c-0.056,0.001-0.084,0.031-0.085,0.087c-0.001,0.04-0.002,0.08-0.002,0.119
			c0,2.543,0,5.086,0,7.629c0,0.057,0.007,0.115,0.012,0.188c0.083,0,0.155,0,0.227,0c1.003,0,2.005-0.002,3.008,0.002
			c0.178,0.001,0.358,0.015,0.535,0.042c0.218,0.034,0.418,0.113,0.589,0.267c1.542,1.381,3.087,2.76,4.632,4.138
			C13.245,23.15,13.298,23.188,13.358,23.236z"/>
	</g>
</g>
</svg>
