<?xml version="1.0" encoding="utf-8"?>
<!-- Generator: Adobe Illustrator 17.0.0, SVG Export Plug-In . SVG Version: 6.00 Build 0)  -->
<!DOCTYPE svg PUBLIC "-//W3C//DTD SVG 1.1//EN" "http://www.w3.org/Graphics/SVG/1.1/DTD/svg11.dtd">
<svg version="1.1" id="Layer_1" xmlns="http://www.w3.org/2000/svg" xmlns:xlink="http://www.w3.org/1999/xlink" x="0px" y="0px"
	 width="29.44px" height="28.623px" viewBox="0 0 29.44 28.623" enable-background="new 0 0 29.44 28.623" xml:space="preserve">
<g id="agiBtO.tif">
	<g>
		<path fill="#FFFFFF" d="M17.105,14.296c0,4.077,0,8.154,0,12.232c0,0.382-0.039,0.756-0.239,1.094
			c-0.404,0.684-1.01,1.01-1.799,1.002c-0.158-0.002-0.318-0.02-0.474-0.044c-0.22-0.035-0.414-0.128-0.588-0.272
			c-1.469-1.212-2.941-2.423-4.411-3.633c-0.871-0.717-1.744-1.433-2.612-2.154c-0.114-0.095-0.227-0.137-0.377-0.137
			c-1.255,0.005-2.51-0.014-3.765,0.008c-1.117,0.02-2.102-1.012-2.099-2.092c0.01-3.905,0.005-7.809,0.003-11.714
			c0-0.632,0.286-1.09,0.825-1.397C1.954,6.97,2.374,6.895,2.813,6.896C4.035,6.899,5.257,6.895,6.479,6.9
			C6.627,6.9,6.739,6.862,6.852,6.761c1.338-1.192,2.681-2.378,4.022-3.566c0.989-0.876,1.978-1.751,2.964-2.629
			c0.299-0.266,0.635-0.453,1.03-0.53c1.108-0.215,2.035,0.572,2.195,1.434c0.035,0.188,0.04,0.383,0.04,0.575
			C17.106,6.128,17.105,10.212,17.105,14.296z M13.358,23.236c0-5.799,0-11.577,0-17.384c-0.07,0.058-0.121,0.097-0.169,0.14
			c-1.492,1.337-2.985,2.674-4.476,4.013c-0.469,0.421-1,0.647-1.644,0.632c-0.876-0.02-1.753-0.005-2.629-0.005
			c-0.053,0-0.106,0.001-0.159,0.002c-0.056,0.001-0.084,0.031-0.085,0.087c-0.001,0.04-0.002,0.08-0.002,0.119
			c0,2.543,0,5.086,0,7.629c0,0.057,0.007,0.115,0.012,0.188c0.083,0,0.155,0,0.227,0c1.003,0,2.005-0.002,3.008,0.002
			c0.178,0.001,0.358,0.015,0.535,0.042c0.218,0.034,0.418,0.113,0.589,0.267c1.542,1.381,3.087,2.76,4.632,4.138
			C13.245,23.15,13.298,23.188,13.358,23.236z"/>
		<path fill="#FFFFFF" d="M26.526,14.238c0.068,0.072,0.117,0.126,0.168,0.178c0.732,0.732,1.467,1.462,2.194,2.199
			c0.138,0.14,0.261,0.301,0.367,0.467c0.135,0.21,0.203,0.443,0.181,0.7c-0.012,0.138-0.012,0.28,0,0.418
			c0.025,0.293-0.077,0.546-0.226,0.787c-0.382,0.62-1.148,0.962-1.865,0.843c-0.415-0.069-0.763-0.254-1.057-0.549
			c-0.741-0.742-1.483-1.483-2.224-2.225c-0.028-0.028-0.056-0.057-0.085-0.084c-0.093-0.085-0.1-0.088-0.193,0.003
			c-0.242,0.237-0.48,0.477-0.72,0.716c-0.488,0.488-0.977,0.975-1.463,1.466c-0.283,0.286-0.615,0.493-1.01,0.562
			c-0.553,0.096-1.07-0.01-1.518-0.367c-0.44-0.351-0.682-0.819-0.709-1.372c-0.027-0.546,0.166-1.028,0.559-1.42
			c0.714-0.713,1.427-1.426,2.141-2.14c0.051-0.051,0.1-0.105,0.165-0.175c-0.054-0.061-0.101-0.122-0.155-0.176
			c-0.68-0.681-1.356-1.366-2.042-2.041c-0.675-0.665-0.759-1.73-0.172-2.482c0.264-0.339,0.606-0.564,1.032-0.663
			c0.704-0.164,1.295,0.035,1.798,0.533c0.679,0.673,1.353,1.351,2.029,2.026c0.028,0.028,0.057,0.056,0.084,0.085
			c0.051,0.054,0.101,0.056,0.153,0.001c0.037-0.038,0.076-0.074,0.114-0.112c0.713-0.713,1.425-1.428,2.14-2.14
			c0.456-0.454,1.017-0.631,1.64-0.523c0.674,0.116,1.164,0.513,1.412,1.156c0.288,0.747,0.133,1.428-0.419,1.999
			c-0.632,0.654-1.283,1.288-1.926,1.931C26.792,13.966,26.668,14.094,26.526,14.238z"/>
	</g>
</g>
</svg>
