<?xml version="1.0" encoding="utf-8"?>
<!-- Generator: Adobe Illustrator 17.0.0, SVG Export Plug-In . SVG Version: 6.00 Build 0)  -->
<!DOCTYPE svg PUBLIC "-//W3C//DTD SVG 1.1//EN" "http://www.w3.org/Graphics/SVG/1.1/DTD/svg11.dtd">
<svg version="1.1" id="Layer_1" xmlns="http://www.w3.org/2000/svg" xmlns:xlink="http://www.w3.org/1999/xlink" x="0px" y="0px"
	 width="20.827px" height="20.696px" viewBox="0 0 20.827 20.696" enable-background="new 0 0 20.827 20.696" xml:space="preserve">
<g id="_x38_Q2Hn8.tif">
	<g>
		<path fill="#414042" d="M11.352,14.677c0,1.66-0.001,3.32,0.001,4.98c0,0.237-0.076,0.435-0.25,0.594
			c-0.121,0.11-0.262,0.173-0.427,0.175c-0.168,0.002-0.336,0.005-0.504,0c-0.377-0.012-0.687-0.326-0.698-0.702
			c-0.001-0.022,0-0.043,0-0.065c0-3.314,0.001-6.629-0.001-9.943c0-0.257,0.09-0.464,0.29-0.623
			c0.114-0.09,0.243-0.144,0.389-0.146c0.174-0.003,0.347-0.007,0.521,0.001c0.361,0.016,0.662,0.323,0.679,0.686
			c0.002,0.043,0,0.087,0,0.13C11.352,11.401,11.352,13.039,11.352,14.677z"/>
		<path fill="#414042" d="M4.32,5.057c0-1.339,0.002-2.679-0.002-4.018C4.318,0.767,4.419,0.556,4.635,0.398
			c0.112-0.082,0.24-0.125,0.379-0.126C5.177,0.269,5.34,0.265,5.502,0.272C5.859,0.287,6.147,0.56,6.186,0.915
			C6.194,0.99,6.199,1.066,6.199,1.141C6.2,3.766,6.2,6.39,6.199,9.015c0,0.086-0.005,0.173-0.016,0.259
			C6.142,9.6,5.848,9.868,5.518,9.877C5.355,9.882,5.192,9.879,5.03,9.878c-0.409-0.002-0.716-0.37-0.711-0.722
			C4.325,8.587,4.32,8.018,4.32,7.449C4.32,6.651,4.32,5.854,4.32,5.057z"/>
		<path fill="#414042" d="M10.413,4.722c0.45,0,0.9,0.01,1.35-0.003c0.387-0.012,0.768,0.318,0.763,0.759
			c-0.008,0.748-0.009,1.497,0.001,2.245c0.005,0.347-0.264,0.759-0.745,0.757c-0.889-0.003-1.779-0.001-2.668,0
			c-0.269,0-0.5-0.077-0.668-0.302C8.353,8.051,8.302,7.911,8.302,7.754C8.302,6.979,8.299,6.203,8.303,5.428
			c0.002-0.381,0.328-0.702,0.71-0.705C9.48,4.718,9.946,4.722,10.413,4.722z"/>
		<path fill="#414042" d="M15.578,12.222c-0.461,0-0.921,0.001-1.382,0c-0.307-0.001-0.523-0.15-0.666-0.415
			c-0.064-0.118-0.073-0.249-0.074-0.379c-0.002-0.721-0.001-1.442-0.001-2.163c0-0.219,0.054-0.417,0.217-0.576
			c0.151-0.148,0.33-0.217,0.542-0.217c0.694,0.003,1.388,0.001,2.081,0.001c0.211,0,0.423,0.006,0.634-0.001
			c0.421-0.016,0.757,0.354,0.752,0.749c-0.011,0.753-0.012,1.507,0,2.26c0.006,0.392-0.339,0.762-0.754,0.745
			C16.478,12.207,16.028,12.222,15.578,12.222z"/>
		<path fill="#414042" d="M5.271,14.097c-0.466,0-0.933,0-1.399,0c-0.26,0-0.456-0.118-0.603-0.326
			c-0.083-0.118-0.121-0.251-0.121-0.397c0.001-0.764,0.006-1.529-0.002-2.293c-0.004-0.411,0.366-0.74,0.749-0.736
			c0.911,0.01,1.822,0.009,2.732,0.001c0.38-0.003,0.729,0.33,0.732,0.665c0.001,0.076,0.011,0.151,0.011,0.227
			c0.001,0.661,0.001,1.323,0,1.984c0,0.081-0.009,0.162-0.013,0.243C7.344,13.771,7.019,14.11,6.653,14.1
			C6.193,14.088,5.731,14.097,5.271,14.097z"/>
		<path fill="#414042" d="M16.506,4.13c0,1.031-0.001,2.062,0.001,3.092c0,0.173-0.027,0.334-0.132,0.476
			c-0.144,0.196-0.331,0.307-0.579,0.306c-0.152-0.001-0.304,0.002-0.456-0.001c-0.352-0.006-0.657-0.279-0.7-0.627
			c-0.009-0.075-0.014-0.151-0.014-0.227c-0.001-2.002-0.001-4.004,0-6.005c0-0.076,0.005-0.152,0.013-0.227
			c0.04-0.364,0.331-0.635,0.697-0.646c0.152-0.005,0.304-0.004,0.456,0c0.4,0.01,0.708,0.316,0.712,0.718
			c0.005,0.548,0.001,1.096,0.001,1.644C16.506,3.132,16.506,3.631,16.506,4.13z"/>
		<path fill="#414042" d="M16.506,16.576c0,1.031-0.002,2.061,0.001,3.092c0.001,0.232-0.074,0.425-0.245,0.579
			c-0.125,0.113-0.27,0.179-0.442,0.178c-0.157,0-0.315,0.003-0.472-0.001c-0.376-0.009-0.669-0.278-0.709-0.651
			c-0.008-0.075-0.012-0.151-0.012-0.227c-0.001-1.996-0.001-3.993,0-5.989c0-0.103,0.004-0.207,0.024-0.307
			c0.061-0.306,0.361-0.551,0.678-0.558c0.152-0.004,0.304-0.002,0.456,0c0.396,0.005,0.714,0.313,0.72,0.71
			c0.006,0.396,0.002,0.792,0.002,1.188C16.506,15.253,16.506,15.914,16.506,16.576z"/>
		<path fill="#414042" d="M4.32,17.494c0-0.727,0.002-1.453-0.001-2.18c-0.001-0.287,0.122-0.502,0.363-0.646
			c0.081-0.048,0.18-0.083,0.274-0.089c0.205-0.013,0.412-0.017,0.616,0c0.308,0.025,0.574,0.298,0.612,0.605
			c0.009,0.07,0.015,0.14,0.015,0.21C6.2,16.794,6.199,18.193,6.2,19.592c0,0.204-0.026,0.4-0.163,0.565
			c-0.139,0.167-0.31,0.268-0.532,0.269c-0.152,0.001-0.304-0.002-0.455,0.001c-0.419,0.007-0.736-0.368-0.731-0.736
			C4.327,18.959,4.32,18.227,4.32,17.494z"/>
		<path fill="#414042" d="M11.352,2.275c0,0.423,0.003,0.845-0.001,1.268c-0.003,0.338-0.241,0.648-0.571,0.693
			c-0.238,0.032-0.489,0.031-0.727-0.004C9.71,4.181,9.475,3.873,9.475,3.527c-0.002-0.845-0.003-1.691,0-2.536
			c0.001-0.395,0.317-0.712,0.71-0.72c0.152-0.003,0.303-0.003,0.455,0c0.393,0.008,0.708,0.326,0.711,0.72
			C11.354,1.419,11.352,1.847,11.352,2.275z"/>
	</g>
</g>
</svg>
