<?xml version="1.0" encoding="utf-8"?>
<!-- Generator: Adobe Illustrator 17.0.0, SVG Export Plug-In . SVG Version: 6.00 Build 0)  -->
<!DOCTYPE svg PUBLIC "-//W3C//DTD SVG 1.1//EN" "http://www.w3.org/Graphics/SVG/1.1/DTD/svg11.dtd">
<svg version="1.1" id="Layer_1" xmlns="http://www.w3.org/2000/svg" xmlns:xlink="http://www.w3.org/1999/xlink" x="0px" y="0px"
	 width="30.182px" height="23.647px" viewBox="0 0 30.182 23.647" enable-background="new 0 0 30.182 23.647" xml:space="preserve">
<g>
	<g>
		<polygon fill="#FFFFFF" points="0,0 0,18.399 6.169,18.399 6.169,17.44 0.959,17.44 0.959,0.959 29.223,0.959 29.223,17.44 
			24.009,17.44 24.009,18.399 30.182,18.399 30.182,0 		"/>
		<polygon fill="#FFFFFF" points="9.285,23.647 9.285,19.224 15.091,13.976 20.897,19.224 20.897,23.647 15.027,18.398 		"/>
		<circle fill="#C61818" cx="25.96" cy="4.319" r="0.989"/>
	</g>
	<g>
		<g>
			<path fill="#C61818" d="M7.153,12.077V3.265h1.123v7.825h2.584v0.986H7.153z"/>
			<path fill="#C61818" d="M11.821,12.077V3.265h1.086v8.812H11.821z"/>
			<path fill="#C61818" d="M15.428,12.077L13.78,3.265h1.123l1.223,7.726l1.223-7.726h1.111l-1.635,8.812H15.428z"/>
			<path fill="#C61818" d="M19.335,12.077V3.265h3.882v0.986h-2.783v2.621h2.434v0.998h-2.434v3.22h2.871v0.986H19.335z"/>
		</g>
	</g>
</g>
</svg>
