<?xml version="1.0" encoding="utf-8"?>
<!-- Generator: Adobe Illustrator 17.0.0, SVG Export Plug-In . SVG Version: 6.00 Build 0)  -->
<!DOCTYPE svg PUBLIC "-//W3C//DTD SVG 1.1//EN" "http://www.w3.org/Graphics/SVG/1.1/DTD/svg11.dtd">
<svg version="1.1" id="Layer_1" xmlns="http://www.w3.org/2000/svg" xmlns:xlink="http://www.w3.org/1999/xlink" x="0px" y="0px"
	 width="20.827px" height="20.696px" viewBox="0 0 20.827 20.696" enable-background="new 0 0 20.827 20.696" xml:space="preserve">
<g>
	<path fill="#FFFFFF" d="M17.136,9.372h-1.581V5.388c0-0.292-0.03-0.576-0.076-0.854h0.018c-0.407-2.439-2.523-4.297-5.074-4.297
		c-0.003,0-0.006,0-0.009,0c-0.003,0-0.006,0-0.009,0c-2.552,0-4.667,1.858-5.074,4.297h0.018C5.302,4.812,5.272,5.096,5.272,5.388
		v3.984h0.727V5.388c0-2.436,1.98-4.418,4.415-4.423c2.435,0.005,4.415,1.987,4.415,4.423v3.984H5.999H5.272H3.691
		c-1.007,0-1.817,0.814-1.817,1.817v7.452c0,1.007,0.81,1.817,1.817,1.817h13.445c1.007,0,1.817-0.81,1.817-1.817v-7.452
		C18.954,10.186,18.143,9.372,17.136,9.372z M10.786,14.124v1.797h-0.727v-1.797c-0.216-0.126-0.363-0.358-0.363-0.626
		c0-0.402,0.326-0.727,0.727-0.727c0.402,0,0.727,0.325,0.727,0.727C11.15,13.766,11.003,13.999,10.786,14.124z"/>
	
		<line fill="#FFFFFF" stroke="#18C5FF" stroke-width="0" stroke-linecap="round" stroke-linejoin="round" x1="5.999" y1="9.372" x2="5.272" y2="9.372"/>
	
		<line fill="#FFFFFF" stroke="#18C5FF" stroke-width="0" stroke-linecap="round" stroke-linejoin="round" x1="14.828" y1="9.372" x2="5.999" y2="9.372"/>
	
		<line fill="#FFFFFF" stroke="#18C5FF" stroke-width="0" stroke-linecap="round" stroke-linejoin="round" x1="3.691" y1="9.372" x2="5.272" y2="9.372"/>
	
		<line fill="#FFFFFF" stroke="#18C5FF" stroke-width="0" stroke-linecap="round" stroke-linejoin="round" x1="15.555" y1="9.372" x2="17.136" y2="9.372"/>
</g>
</svg>
