<?xml version="1.0" encoding="utf-8"?>
<!-- Generator: Adobe Illustrator 17.0.0, SVG Export Plug-In . SVG Version: 6.00 Build 0)  -->
<!DOCTYPE svg PUBLIC "-//W3C//DTD SVG 1.1//EN" "http://www.w3.org/Graphics/SVG/1.1/DTD/svg11.dtd">
<svg version="1.1" id="Layer_1" xmlns="http://www.w3.org/2000/svg" xmlns:xlink="http://www.w3.org/1999/xlink" x="0px" y="0px"
	 width="128.957px" height="123.077px" viewBox="-7.761 -5.083 128.957 123.077"
	 enable-background="new -7.761 -5.083 128.957 123.077" xml:space="preserve">
<g>
	<circle fill="#231F20" cx="48.487" cy="61.747" r="56.247"/>
	<g>
		<path fill="#17C5FF" d="M48.559,109.186c-2.369,0-4.763-0.177-7.176-0.542c-12.605-1.909-23.711-8.612-31.274-18.874
			C2.547,79.507-0.567,66.914,1.341,54.309C3.25,41.705,9.953,30.598,20.215,23.035c10.262-7.563,22.856-10.678,35.46-8.768
			c1.896,0.287,3.201,2.057,2.914,3.954c-0.287,1.897-2.055,3.202-3.954,2.914c-10.771-1.631-21.531,1.03-30.299,7.492
			C15.567,35.089,9.84,44.579,8.209,55.349c-3.367,22.233,11.982,43.059,34.214,46.426c22.233,3.368,43.059-11.982,46.426-34.214
			c0.287-1.897,2.056-3.201,3.954-2.914c1.896,0.287,3.201,2.057,2.914,3.954C92.143,92.208,71.743,109.186,48.559,109.186z"/>
	</g>
	<g>
		
			<rect x="52.536" y="23.312" transform="matrix(0.7071 -0.7071 0.7071 0.7071 0.7213 68.3165)" fill="none" width="60.58" height="19.951"/>
		<path fill="#17C5FF" d="M97.19-5.082L44.455,47.652l24.006,24.006l52.735-52.735L97.19-5.082z M68.461,61.76L54.354,47.652
			L97.19,4.815l14.107,14.107"/>
		<polygon fill="#17C5FF" points="37.296,78.817 63.653,74.897 41.217,52.461 		"/>
	</g>
</g>
</svg>
