<?xml version="1.0" encoding="utf-8"?>
<!-- Generator: Adobe Illustrator 17.0.0, SVG Export Plug-In . SVG Version: 6.00 Build 0)  -->
<!DOCTYPE svg PUBLIC "-//W3C//DTD SVG 1.1//EN" "http://www.w3.org/Graphics/SVG/1.1/DTD/svg11.dtd">
<svg version="1.1" id="Layer_1" xmlns="http://www.w3.org/2000/svg" xmlns:xlink="http://www.w3.org/1999/xlink" x="0px" y="0px"
	 width="112.493px" height="112.493px" viewBox="0 0 112.493 112.493" enable-background="new 0 0 112.493 112.493"
	 xml:space="preserve">
<g>
	<circle fill="#231F20" cx="56.246" cy="56.246" r="56.247"/>
	<g>
		<path fill="#ED1C24" d="M50.156,103.618c-0.173,0-0.348-0.013-0.525-0.04c-12.605-1.909-23.712-8.612-31.275-18.874
			S7.68,61.849,9.588,49.245c3.941-26.02,28.309-43.984,54.334-40.043c26.02,3.94,43.983,28.315,40.043,54.334
			c-0.287,1.897-2.061,3.201-3.954,2.914c-1.896-0.287-3.201-2.057-2.914-3.954c3.367-22.232-11.982-43.059-34.215-46.426
			C40.65,12.706,19.823,28.052,16.456,50.285c-1.631,10.77,1.03,21.53,7.492,30.299c6.462,8.769,15.953,14.496,26.723,16.127
			c1.896,0.287,3.201,2.057,2.914,3.954C53.324,102.385,51.844,103.618,50.156,103.618z"/>
	</g>
	<polygon fill="#ED1C24" points="83.214,36.795 76.119,29.7 57.297,48.523 38.474,29.7 31.379,36.795 50.201,55.618 31.379,74.441 
		38.474,81.535 57.297,62.713 76.119,81.535 83.214,74.441 64.392,55.618 	"/>
</g>
</svg>
