<?xml version="1.0" encoding="utf-8"?>
<!-- Generator: Adobe Illustrator 17.0.0, SVG Export Plug-In . SVG Version: 6.00 Build 0)  -->
<!DOCTYPE svg PUBLIC "-//W3C//DTD SVG 1.1//EN" "http://www.w3.org/Graphics/SVG/1.1/DTD/svg11.dtd">
<svg version="1.1" id="Layer_1" xmlns="http://www.w3.org/2000/svg" xmlns:xlink="http://www.w3.org/1999/xlink" x="0px" y="0px"
	 width="131.937px" height="131.938px" viewBox="0 0 131.937 131.938" enable-background="new 0 0 131.937 131.938"
	 xml:space="preserve">
<g>
	<path fill="#17C5FF" d="M0,0v131.938h131.937V0H0z M123.937,123.938H8V8h115.937V123.938z"/>
	<path fill="#17C5FF" d="M65.969,101.818c19.768,0,35.85-16.082,35.85-35.85s-16.082-35.85-35.85-35.85
		c-19.769,0-35.851,16.082-35.851,35.85S46.2,101.818,65.969,101.818z M65.969,38.119c15.356,0,27.85,12.493,27.85,27.85
		s-12.493,27.85-27.85,27.85s-27.851-12.493-27.851-27.85S50.612,38.119,65.969,38.119z"/>
	<circle fill="#17C5FF" cx="105.968" cy="25.969" r="10.219"/>
</g>
</svg>
