<?xml version="1.0" encoding="utf-8"?>
<!-- Generator: Adobe Illustrator 17.0.0, SVG Export Plug-In . SVG Version: 6.00 Build 0)  -->
<!DOCTYPE svg PUBLIC "-//W3C//DTD SVG 1.1//EN" "http://www.w3.org/Graphics/SVG/1.1/DTD/svg11.dtd">
<svg version="1.1" id="Layer_1" xmlns="http://www.w3.org/2000/svg" xmlns:xlink="http://www.w3.org/1999/xlink" x="0px" y="0px"
	 width="110.183px" height="46.114px" viewBox="0 0 110.183 46.114" enable-background="new 0 0 110.183 46.114"
	 xml:space="preserve">
<g>
	<g>
		<path fill="#FEFEFE" d="M65.936,23.764c0.13,0.423,0.324,0.802,0.569,1.154c0.808,1.16,1.917,1.846,3.31,2.069
			c1.789,0.287,3.384-0.143,4.771-1.317c0.127-0.107,0.243-0.228,0.356-0.35c0.106-0.116,0.201-0.243,0.31-0.377
			c0.696,0,1.403,0,2.115,0c-0.575,1.209-1.434,2.138-2.597,2.783c-0.851,0.472-1.76,0.763-2.724,0.892
			c-1.461,0.196-2.884,0.056-4.256-0.483c-2.072-0.815-3.431-2.309-3.899-4.479c-0.461-2.139,0.066-4.054,1.735-5.562
			c1.099-0.993,2.384-1.608,3.862-1.809c1.347-0.184,2.674-0.108,3.973,0.3c1.169,0.367,2.12,1.055,2.898,1.999
			c0.8,0.971,1.267,2.085,1.492,3.311c0.025,0.138,0.05,0.276,0.062,0.415c0.034,0.37-0.139,0.635-0.465,0.775
			c-0.263,0.113-0.545,0.186-0.825,0.252c-0.555,0.132-1.123,0.197-1.692,0.196c-0.428-0.001-0.855-0.06-1.283-0.099
			c-0.462-0.042-0.924-0.09-1.385-0.138c-0.601-0.063-1.203-0.114-1.801-0.197c-0.808-0.113-1.609-0.08-2.408,0.055
			c-0.665,0.112-1.313,0.291-1.944,0.533C66.055,23.706,66.003,23.734,65.936,23.764z M65.786,21.938
			c0.122-0.039,0.204-0.067,0.287-0.093c0.991-0.308,2.003-0.503,3.043-0.488c0.524,0.008,1.048,0.068,1.571,0.11
			c0.75,0.061,1.5,0.127,2.249,0.194c0.497,0.045,0.994,0.089,1.489,0.147c0.485,0.057,0.949-0.063,1.433-0.119
			c-0.012-0.057-0.019-0.09-0.027-0.124c-0.01-0.043-0.019-0.085-0.03-0.127c-0.274-1.027-0.791-1.898-1.636-2.562
			c-0.849-0.666-1.832-0.967-2.89-1.046c-0.995-0.074-1.951,0.085-2.861,0.509c-1.013,0.472-1.79,1.183-2.264,2.205
			C65.952,20.974,65.82,21.423,65.786,21.938z"/>
		<path fill="#FEFEFE" d="M50.147,26.639c0,1.991,0,3.95,0,5.918c-0.649,0-1.295,0-1.973,0c0-0.086,0-0.171,0-0.255
			c0.006-1.973,0.011-3.946,0.02-5.92c0.005-1.14,0.009-2.28,0.028-3.419c0.018-1.06,0.211-2.087,0.662-3.054
			c0.649-1.391,1.699-2.382,3.074-3.039c0.766-0.365,1.576-0.561,2.42-0.639c1.167-0.108,2.31-0.001,3.418,0.381
			c1.482,0.512,2.711,1.374,3.578,2.704c0.496,0.761,0.767,1.6,0.86,2.505c0.079,0.778,0.018,1.539-0.192,2.288
			c-0.223,0.797-0.623,1.502-1.173,2.117c-0.973,1.087-2.134,1.886-3.563,2.255c-1.004,0.259-2.022,0.309-3.049,0.19
			c-1.293-0.15-2.448-0.632-3.464-1.444C50.575,27.054,50.379,26.852,50.147,26.639z M55.213,17.861
			c-1.411-0.017-2.643,0.381-3.663,1.325c-1.379,1.275-1.81,2.845-1.286,4.632c0.422,1.439,1.427,2.381,2.823,2.896
			c1.209,0.446,2.446,0.467,3.694,0.176c0.864-0.201,1.632-0.597,2.248-1.232c1.148-1.186,1.5-2.614,1.166-4.214
			c-0.234-1.12-0.893-1.963-1.805-2.616C57.431,18.142,56.349,17.851,55.213,17.861z"/>
		<path fill="#FEFEFE" d="M81.33,26.606c0,2.003,0,3.966,0,5.944c-0.63,0-1.248,0-1.882,0c-0.006-0.04-0.02-0.089-0.02-0.138
			c0-3.157-0.006-6.314,0.007-9.47c0.005-1.088,0.226-2.14,0.722-3.116c0.891-1.757,2.312-2.883,4.207-3.372
			c2.019-0.521,3.982-0.322,5.821,0.694c1.256,0.693,2.248,1.663,2.849,2.992c0.341,0.754,0.473,1.548,0.47,2.374
			c-0.007,1.697-0.695,3.077-1.917,4.221c-0.784,0.734-1.664,1.304-2.692,1.635c-0.894,0.288-1.811,0.39-2.745,0.355
			c-1.826-0.068-3.408-0.705-4.704-2.013C81.423,26.687,81.396,26.665,81.33,26.606z M86.411,17.839
			c-0.366,0.034-0.736,0.044-1.097,0.106c-1.104,0.191-2.045,0.697-2.815,1.515c-1.186,1.26-1.524,2.739-1.022,4.372
			c0.44,1.432,1.46,2.36,2.846,2.885c0.864,0.328,1.764,0.414,2.686,0.332c0.822-0.073,1.6-0.277,2.315-0.696
			c1.79-1.049,2.593-2.989,2.078-5.024c-0.271-1.069-0.934-1.869-1.805-2.506C88.652,18.131,87.573,17.858,86.411,17.839z"/>
		<path fill="#FEFEFE" d="M103.445,17.098c-0.324,0.532-0.62,1.017-0.925,1.517c-0.042-0.023-0.08-0.038-0.112-0.061
			c-0.546-0.397-1.169-0.593-1.827-0.672c-0.399-0.047-0.804-0.061-1.207-0.055c-0.495,0.007-0.974,0.117-1.408,0.366
			c-0.473,0.272-0.742,0.674-0.758,1.236c-0.016,0.554,0.269,0.933,0.71,1.204c0.282,0.173,0.582,0.324,0.89,0.445
			c0.626,0.245,1.263,0.462,1.894,0.692c0.593,0.217,1.172,0.464,1.69,0.831c0.627,0.445,1.099,1.017,1.275,1.775
			c0.304,1.312-0.088,2.516-1.229,3.329c-0.795,0.567-1.692,0.857-2.657,0.967c-0.63,0.072-1.262,0.076-1.891,0.033
			c-1.12-0.076-2.187-0.366-3.187-0.885c-0.022-0.011-0.039-0.03-0.077-0.06c0.277-0.505,0.552-1.009,0.829-1.514
			c0.845,0.497,1.753,0.775,2.708,0.871c0.87,0.088,1.737,0.036,2.546-0.345c0.554-0.26,0.924-0.682,1.015-1.311
			c0.043-0.297-0.023-0.576-0.144-0.842c-0.169-0.37-0.44-0.645-0.798-0.844c-0.569-0.315-1.17-0.549-1.787-0.746
			c-0.675-0.215-1.342-0.451-1.963-0.8c-0.517-0.291-0.982-0.644-1.338-1.125c-0.641-0.867-0.689-1.787-0.225-2.744
			c0.417-0.86,1.141-1.377,1.989-1.746c0.593-0.257,1.223-0.368,1.862-0.407c0.915-0.056,1.825-0.002,2.699,0.297
			C102.498,16.667,102.954,16.891,103.445,17.098z"/>
		<path fill="#FEFEFE" d="M106.077,28.428c0-3.97,0-7.924,0-11.894c0.642,0,1.288,0,1.936,0c0.058,0.196,0.087,10.885,0.03,11.871
			C107.863,28.457,106.591,28.475,106.077,28.428z"/>
		<path fill="#FEFEFE" d="M108.172,13.913c0,0.149-0.014,0.299,0.003,0.446c0.025,0.216-0.072,0.378-0.215,0.511
			c-0.384,0.359-0.846,0.448-1.341,0.31c-0.448-0.125-0.786-0.405-0.887-0.876c-0.174-0.804,0.124-1.462,0.94-1.708
			c0.438-0.132,0.848-0.032,1.201,0.266c0.203,0.171,0.34,0.37,0.302,0.658C108.158,13.649,108.172,13.782,108.172,13.913z"/>
	</g>
	<g>
		<path fill="#024785" d="M21.799,43.032c-0.045-0.017-0.089-0.046-0.135-0.049c-1.926-0.113-3.792-0.516-5.6-1.179
			c-2.054-0.753-3.934-1.821-5.638-3.193c-2.406-1.938-4.278-4.304-5.604-7.094c-0.811-1.707-1.378-3.494-1.656-5.365
			C3.073,25.529,3.022,24.9,2.95,24.274c-0.005-0.047-0.031-0.092-0.047-0.138c0-0.807,0-1.614,0-2.421
			c0.016-0.035,0.045-0.069,0.047-0.104c0.063-1.211,0.263-2.401,0.558-3.574c0.379-1.506,0.93-2.948,1.648-4.327
			c1.088-2.087,2.495-3.932,4.227-5.524c2.184-2.009,4.688-3.474,7.517-4.375c1.178-0.375,2.38-0.636,3.607-0.789
			c1.064-0.132,2.131-0.18,3.201-0.14c2.338,0.088,4.595,0.563,6.764,1.445c2.371,0.964,4.488,2.324,6.334,4.097
			c2.845,2.731,4.745,6.01,5.677,9.845c0.311,1.279,0.483,2.577,0.537,3.894c0.038,0.922,0.012,1.841-0.078,2.757
			c-0.217,2.193-0.777,4.296-1.69,6.303c-1.147,2.522-2.746,4.718-4.796,6.579c-2.359,2.142-5.073,3.651-8.149,4.501
			c-1.124,0.311-2.265,0.53-3.427,0.628c-0.236,0.02-0.472,0.034-0.707,0.055c-0.038,0.003-0.074,0.029-0.111,0.045
			C23.308,43.032,22.554,43.032,21.799,43.032z M42.663,22.963c0.027-10.82-8.737-19.7-19.654-19.723
			C12.118,3.218,3.279,12.033,3.272,22.936C3.265,33.785,12.007,42.61,22.877,42.658C33.902,42.707,42.679,33.763,42.663,22.963z"/>
		<path fill="#FEFEFE" d="M42.663,22.963c0.016,10.8-8.76,19.744-19.786,19.695C12.007,42.61,3.265,33.785,3.272,22.936
			C3.279,12.033,12.118,3.218,23.009,3.241C33.926,3.263,42.69,12.143,42.663,22.963z M7.944,34.138
			c12.854-3.647,22.908-14.263,26.272-26.122c-2.27-1.981-6.775-3.967-11.641-3.826c-4.999,0.145-9.319,1.951-12.85,5.489
			C2.439,16.98,2.941,27.7,7.944,34.138z M8.646,35.036c4.042,4.884,10.945,7.837,18.309,6.252
			c6.931-1.492,12.535-6.853,14.254-13.95c0.394-1.626,0.544-3.278,0.5-4.951c-0.045-1.681-0.314-3.325-0.807-4.931
			c-0.501-1.632-1.685-4.144-2.095-4.469c-0.004,0.016-0.013,0.033-0.012,0.049c0.003,0.035,0.007,0.07,0.017,0.104
			c0.366,1.29,0.51,2.606,0.475,3.945c-0.021,0.799-0.111,1.589-0.277,2.37c-0.492,2.305-1.551,4.317-3.135,6.056
			c-1.342,1.472-2.954,2.569-4.745,3.418c-1.681,0.797-3.446,1.354-5.236,1.837c-2.084,0.562-4.2,0.992-6.303,1.476
			c-1.66,0.382-3.326,0.741-4.979,1.154c-1.669,0.417-3.325,0.885-4.986,1.336C9.298,34.821,8.977,34.933,8.646,35.036z
			 M38.786,12.906c-0.004-0.006-0.007-0.012-0.011-0.018c-0.001,0.011-0.001,0.023-0.002,0.034
			C38.778,12.917,38.782,12.911,38.786,12.906z"/>
		<path fill="#E5252D" d="M7.944,34.138C2.941,27.7,2.439,16.98,9.724,9.679c3.531-3.538,7.851-5.344,12.85-5.489
			c4.866-0.141,9.371,1.844,11.641,3.826C30.852,19.875,20.797,30.491,7.944,34.138z"/>
		<path fill="#024785" d="M8.646,35.036c0.331-0.103,0.652-0.215,0.98-0.304c1.661-0.451,3.317-0.919,4.986-1.336
			c1.653-0.413,3.319-0.772,4.979-1.154c2.103-0.484,4.219-0.913,6.303-1.476c1.79-0.483,3.555-1.04,5.236-1.837
			c1.791-0.849,3.404-1.945,4.745-3.418c1.585-1.739,2.644-3.751,3.135-6.056c0.167-0.781,0.256-1.57,0.277-2.37
			c0.035-1.339-0.109-2.655-0.475-3.945c-0.01-0.034-0.014-0.069-0.017-0.104c-0.001-0.016,0.008-0.033,0.012-0.049
			c0.41,0.326,1.594,2.837,2.095,4.469c0.493,1.606,0.762,3.249,0.807,4.931c0.045,1.673-0.106,3.325-0.5,4.951
			c-1.719,7.097-7.323,12.458-14.254,13.95C19.591,42.873,12.687,39.92,8.646,35.036z"/>
		<path fill="#024785" d="M38.786,12.906c-0.004,0.005-0.009,0.011-0.013,0.016c0.001-0.011,0.001-0.023,0.002-0.034
			C38.779,12.894,38.783,12.9,38.786,12.906z"/>
	</g>
</g>
</svg>
