<?xml version="1.0" encoding="utf-8"?>
<!-- Generator: Adobe Illustrator 17.0.0, SVG Export Plug-In . SVG Version: 6.00 Build 0)  -->
<!DOCTYPE svg PUBLIC "-//W3C//DTD SVG 1.1//EN" "http://www.w3.org/Graphics/SVG/1.1/DTD/svg11.dtd">
<svg version="1.1" id="Layer_1" xmlns="http://www.w3.org/2000/svg" xmlns:xlink="http://www.w3.org/1999/xlink" x="0px" y="0px"
	 width="125.5px" height="125.5px" viewBox="0 0 125.5 125.5" enable-background="new 0 0 125.5 125.5" xml:space="preserve">
<path fill="#231F20" d="M62.75,0C28.15,0,0,28.149,0,62.75C0,97.351,28.15,125.5,62.75,125.5c34.6,0,62.75-28.149,62.75-62.75
	C125.5,28.149,97.35,0,62.75,0z M62.75,118.5C32.009,118.5,7,93.491,7,62.75S32.009,7,62.75,7s55.75,25.009,55.75,55.75
	S93.491,118.5,62.75,118.5z"/>
<polygon fill="#231F20" points="27.388,53.673 33.504,47.558 33.504,99.012 46.504,99.012 46.504,16.173 18.196,44.481 "/>
<rect x="51.979" y="92.543" fill="#231F20" width="46.726" height="6"/>
<rect x="51.979" y="79.533" fill="#231F20" width="46.726" height="6"/>
<rect x="51.979" y="66.523" fill="#231F20" width="46.726" height="6"/>
<rect x="51.979" y="53.512" fill="#231F20" width="46.726" height="6"/>
<rect x="51.979" y="40.502" fill="#231F20" width="46.726" height="6"/>
<rect x="51.979" y="27.491" fill="#231F20" width="46.726" height="6"/>
</svg>
