<?xml version="1.0" encoding="utf-8"?>
<!-- Generator: Adobe Illustrator 17.0.0, SVG Export Plug-In . SVG Version: 6.00 Build 0)  -->
<!DOCTYPE svg PUBLIC "-//W3C//DTD SVG 1.1//EN" "http://www.w3.org/Graphics/SVG/1.1/DTD/svg11.dtd">
<svg version="1.1" id="Layer_1" xmlns="http://www.w3.org/2000/svg" xmlns:xlink="http://www.w3.org/1999/xlink" x="0px" y="0px"
	 width="125.5px" height="125.5px" viewBox="0 0 125.5 125.5" enable-background="new 0 0 125.5 125.5" xml:space="preserve">
<path fill="#9368AA" d="M62.75,0C28.149,0,0,28.149,0,62.75s28.149,62.75,62.75,62.75s62.75-28.149,62.75-62.75S97.351,0,62.75,0z
	 M62.75,118.5C32.01,118.5,7,93.491,7,62.75S32.01,7,62.75,7s55.75,25.009,55.75,55.75S93.49,118.5,62.75,118.5z"/>
<path fill="#9368AA" d="M77.484,78.317c-1.499-6.766-2.994-13.533-4.503-20.297c-0.083-0.372-0.008-0.588,0.285-0.836
	c2.141-1.815,3.667-4.062,4.609-6.705c0.92-2.582,1.111-5.225,0.642-7.919c-0.336-1.93-1.018-3.73-2.023-5.412
	c-0.869-1.454-1.962-2.715-3.244-3.815c-1.682-1.443-3.594-2.481-5.716-3.107c-2.271-0.671-4.581-0.809-6.929-0.446
	c-2.333,0.36-4.469,1.212-6.402,2.539c-2.379,1.634-4.2,3.76-5.397,6.404c-1.347,2.976-1.774,6.08-1.201,9.291
	c0.662,3.709,2.447,6.803,5.319,9.252c0.235,0.2,0.285,0.368,0.213,0.67c-0.91,3.784-1.802,7.572-2.7,11.359
	c-1.86,7.845-3.722,15.69-5.583,23.535c-0.242,1.018-0.481,2.038-0.728,3.088c12.422,0,24.802,0,37.248,0
	c-0.04-0.204-0.069-0.365-0.104-0.525C80.008,89.7,78.745,84.009,77.484,78.317z"/>
</svg>
