<?xml version="1.0" encoding="utf-8"?>
<!-- Generator: Adobe Illustrator 17.0.0, SVG Export Plug-In . SVG Version: 6.00 Build 0)  -->
<!DOCTYPE svg PUBLIC "-//W3C//DTD SVG 1.1//EN" "http://www.w3.org/Graphics/SVG/1.1/DTD/svg11.dtd">
<svg version="1.1" id="Layer_1" xmlns="http://www.w3.org/2000/svg" xmlns:xlink="http://www.w3.org/1999/xlink" x="0px" y="0px"
	 width="125.5px" height="125.5px" viewBox="0 0 125.5 125.5" enable-background="new 0 0 125.5 125.5" xml:space="preserve">
<g>
	<path fill="#353874" d="M62.75,0C28.149,0,0,28.15,0,62.75s28.149,62.75,62.75,62.75s62.75-28.149,62.75-62.75S97.35,0,62.75,0z
		 M62.75,118.5C32.009,118.5,7,93.491,7,62.75S32.009,7,62.75,7s55.75,25.009,55.75,55.75S93.491,118.5,62.75,118.5z"/>
	<rect x="49.396" y="92.277" fill="#353874" width="46.726" height="6"/>
	<rect x="49.396" y="79.266" fill="#353874" width="46.726" height="6"/>
	<rect x="49.396" y="66.256" fill="#353874" width="46.726" height="6"/>
	<rect x="49.396" y="53.246" fill="#353874" width="46.726" height="6"/>
	<rect x="49.396" y="40.235" fill="#353874" width="46.726" height="6"/>
	<rect x="49.396" y="27.225" fill="#353874" width="46.726" height="6"/>
	<rect x="29.378" y="92.276" fill="#353874" width="12.199" height="6"/>
	<rect x="29.378" y="79.265" fill="#353874" width="12.199" height="6"/>
	<rect x="29.378" y="66.255" fill="#353874" width="12.199" height="6"/>
	<rect x="29.378" y="53.245" fill="#353874" width="12.199" height="6"/>
	<rect x="29.378" y="40.234" fill="#353874" width="12.199" height="6"/>
	<rect x="29.378" y="27.224" fill="#353874" width="12.199" height="6"/>
</g>
</svg>
