<?xml version="1.0" encoding="utf-8"?>
<!-- Generator: Adobe Illustrator 24.0.3, SVG Export Plug-In . SVG Version: 6.00 Build 0)  -->
<svg version="1.1" id="Layer_1" xmlns="http://www.w3.org/2000/svg" xmlns:xlink="http://www.w3.org/1999/xlink" x="0px" y="0px"
	 viewBox="0 0 122 103.1" style="enable-background:new 0 0 122 103.1;" xml:space="preserve">
<style type="text/css">
	.st0{fill:#FFFFFF;}
</style>
<g>
	<g id="xjpuqg.tif_3_">
		<g>
			<path class="st0" d="M0,51.5c0-5,0-10,0-15c0-2.7,1-5,3.2-6.7c2.5-2,5.7-2.1,8.4-0.5c7.8,4.8,15.6,9.6,23.4,14.4
				c0.6,0.4,1.2,0.7,1.7,1.1c4.7,3.1,4.8,10.3,0.1,13.4c-3.1,2.1-6.4,4-9.6,6c-5,3.1-10,6.2-15,9.3c-3.1,1.9-6.5,1.9-9.2-0.2
				c-2.1-1.7-3-4-3-6.7C0,61.6,0,56.5,0,51.5z M34,51.5c0-0.7-0.4-1.2-1.1-1.6c-5.8-3.6-11.6-7.2-17.5-10.8
				c-2.3-1.4-4.6-2.8-6.9-4.2c-0.9-0.5-1.7-0.2-2,0.8c-0.1,0.3-0.1,0.6-0.1,1c0,9.9,0,19.9,0,29.8c0,0.4,0.1,0.8,0.2,1.1
				c0.3,0.9,0.9,1.1,1.8,0.7c0.2-0.1,0.5-0.3,0.7-0.4c5.2-3.2,10.4-6.4,15.6-9.6c2.8-1.7,5.5-3.4,8.3-5.1C33.5,52.9,34,52.4,34,51.5
				z"/>
		</g>
	</g>
	<g id="xjpuqg.tif_2_">
		<g>
			<path class="st0" d="M122,51.6c0,5,0,10,0,15c0,2.7-1,5-3.2,6.7c-2.5,2-5.7,2.1-8.4,0.5c-7.8-4.8-15.6-9.6-23.4-14.4
				c-0.6-0.4-1.2-0.7-1.7-1.1c-4.7-3.1-4.8-10.3-0.1-13.4c3.1-2.1,6.4-4,9.6-6c5-3.1,10-6.2,15-9.3c3.1-1.9,6.5-1.9,9.2,0.2
				c2.1,1.7,3,4,3,6.7C122,41.6,122,46.6,122,51.6z"/>
		</g>
	</g>
	<path class="st0" d="M61,103.1L61,103.1c-3.8,0-7-3.1-7-7V7c0-3.8,3.1-7,7-7h0c3.8,0,7,3.1,7,7v89.2C67.9,100,64.8,103.1,61,103.1z
		"/>
</g>
</svg>
