<?xml version="1.0" encoding="utf-8"?>
<!-- Generator: Adobe Illustrator 24.0.3, SVG Export Plug-In . SVG Version: 6.00 Build 0)  -->
<svg version="1.1" id="Layer_1" xmlns="http://www.w3.org/2000/svg" xmlns:xlink="http://www.w3.org/1999/xlink" x="0px" y="0px"
	 viewBox="0 0 61.3 92.1" style="enable-background:new 0 0 61.3 92.1;" xml:space="preserve">
<style type="text/css">
	.st0{fill:#FFFFFF;}
</style>
<g id="zzmMhH.tif">
	<g>
		<path class="st0" d="M30.6,61.4c-17,0-31.1-14-30.6-31.6C0.4,13.5,13.7,0,30.7,0c16.9,0,30.6,13.5,30.6,30.6
			C61.4,47.8,47.5,61.4,30.6,61.4z"/>
		<path class="st0" d="M11.1,62c13.1,7.4,26.1,7.4,39.2,0c0.1,0.3,0.1,0.5,0.1,0.7c0.2,3.2,0.4,6.5,0.6,9.7
			c0.2,3.4,0.5,6.9,0.7,10.3c0.1,2,0.3,4,0.4,6c0.1,1.8-1,3.1-2.8,3.3c-0.6,0.1-1.3-0.1-1.9-0.4c-5.3-2.6-10.5-5.2-15.8-7.9
			c-0.7-0.3-1.2-0.4-1.9,0c-5.2,2.6-10.4,5.2-15.6,7.8c-1.1,0.5-2.1,0.8-3.2,0.2c-1.1-0.6-1.6-1.5-1.7-2.7c0-0.8,0.1-1.7,0.1-2.5
			c0.3-5,0.7-10,1-15c0.2-3,0.4-6,0.7-9.1C11,62.4,11.1,62.2,11.1,62z"/>
	</g>
</g>
</svg>
