<?xml version="1.0" encoding="utf-8"?>
<!-- Generator: Adobe Illustrator 17.0.0, SVG Export Plug-In . SVG Version: 6.00 Build 0)  -->
<!DOCTYPE svg PUBLIC "-//W3C//DTD SVG 1.1//EN" "http://www.w3.org/Graphics/SVG/1.1/DTD/svg11.dtd">
<svg version="1.1" id="Layer_1" xmlns="http://www.w3.org/2000/svg" xmlns:xlink="http://www.w3.org/1999/xlink" x="0px" y="0px"
	 width="118.5px" height="118.5px" viewBox="0 0 118.5 118.5" enable-background="new 0 0 118.5 118.5" xml:space="preserve">
<path fill="#FFB600" d="M59.25,0C26.527,0,0,26.527,0,59.25c0,32.723,26.527,59.25,59.25,59.25c32.723,0,59.25-26.527,59.25-59.25
	C118.5,26.527,91.973,0,59.25,0z M59.25,6.85c18.119,0,34.089,9.198,43.499,23.178c-0.318-0.06-0.635-0.118-0.952-0.164
	c-1.555-0.225-3.094-0.339-4.621-0.339c-4.127,0-8.084,0.848-11.87,2.544c-3.787,1.696-7.363,3.957-10.725,6.783
	c-0.024,0.02-0.046,0.042-0.07,0.062c0.083-0.774,0.127-1.473,0.127-2.083c0-2.819-0.439-5.357-1.314-7.615
	c-0.877-2.256-2.289-4.187-4.239-5.796c-1.95-1.608-4.48-2.849-7.588-3.724c-3.109-0.874-6.868-1.312-11.277-1.312
	c-6.274,0-11.997,0.522-17.169,1.564c-4.88,0.985-9.097,2.375-12.668,4.162C29.971,13.511,43.832,6.85,59.25,6.85z M57.682,41.276
	c-0.339,1.471-0.933,2.84-1.781,4.112s-2.007,2.346-3.476,3.222c-1.47,0.877-3.391,1.399-5.765,1.569l2.204-21.027
	c2.769,0,5.016,0.707,6.74,2.12c1.723,1.414,2.586,3.306,2.586,5.68C58.19,38.365,58.021,39.806,57.682,41.276z M73.267,57.546
	c1.696-2.402,3.405-4.549,5.129-6.444c1.723-1.893,3.434-3.447,5.129-4.663c1.696-1.215,3.334-1.963,4.918-2.247l-3.561,32.473
	c-2.6-2.148-5.243-4.183-7.927-6.105c-2.685-1.921-5.498-3.702-8.436-5.341C69.988,62.506,71.571,59.949,73.267,57.546z M6.85,59.25
	c0-4.988,0.712-9.807,2.014-14.377c0.355,0.884,0.824,1.697,1.423,2.431c0.734,0.902,1.611,1.621,2.628,2.157
	c1.017,0.535,2.176,0.803,3.476,0.803c1.13,0,2.218-0.225,3.264-0.678c1.045-0.452,1.95-1.073,2.713-1.865
	c0.763-0.791,1.384-1.696,1.865-2.713c0.479-1.017,0.72-2.09,0.72-3.222c0-1.243-0.354-2.501-1.06-3.773
	c-0.707-1.272-1.682-2.275-2.925-3.01c1.017-0.848,2.444-1.653,4.282-2.416c1.836-0.763,3.913-1.427,6.232-1.993l-5.511,53.33
	h17.296l2.458-22.892l6.189,0.085c1.822,0.068,3.491-0.062,5.041-0.347c-2.374,4.173-4.853,9.337-7.006,15.642
	c-0.936,2.742-1.88,5.299-2.586,7.758c-0.707,2.459-1.244,4.748-1.611,6.867c-0.368,2.12-0.551,4-0.551,5.638h12.803
	c0-1.582,0.169-3.307,0.509-5.172c0.339-1.865,0.791-3.815,1.356-5.85c0.564-2.035,1.243-4.112,2.035-6.232
	c0.791-2.12,1.667-4.253,2.628-6.402c1.808,1.018,3.603,2.162,5.384,3.434c1.78,1.272,3.476,2.558,5.087,3.858
	c1.611,1.301,3.137,2.601,4.578,3.9c1.441,1.301,2.783,2.516,4.027,3.646l-1.017,8.818h13.319
	c-9.451,9.259-22.386,14.975-36.662,14.975C30.31,111.65,6.85,88.19,6.85,59.25z M100.661,91.339l5.392-55.646
	c3.573,7.084,5.597,15.082,5.597,23.557C111.65,71.344,107.542,82.471,100.661,91.339z"/>
</svg>
