<?xml version="1.0" encoding="utf-8"?>
<!-- Generator: Adobe Illustrator 24.0.3, SVG Export Plug-In . SVG Version: 6.00 Build 0)  -->
<svg version="1.1" id="Layer_1" xmlns="http://www.w3.org/2000/svg" xmlns:xlink="http://www.w3.org/1999/xlink" x="0px" y="0px"
	 viewBox="0 0 123 123" style="enable-background:new 0 0 123 123;" xml:space="preserve">
<style type="text/css">
	.st0{fill:#FFFFFF;}
</style>
<g>
	<g>
		<g id="hv3zpG.tif_9_">
			<g>
				<path class="st0" d="M62.8,8.9c0-1.5,0-2.9,0-4.4c0-0.8,0.2-1.5,0.7-2.1c0.9-1.1,2.1-1.5,3.4-1.1c0.4,0.1,0.8,0.3,1.1,0.6
					c4.7,3.4,9.4,6.7,14,10.1c1.4,1,1.9,2.6,1.1,4c-0.4,0.6-0.9,1.2-1.5,1.6c-3.5,2.5-7,5-10.5,7.5c-1.1,0.8-2.1,1.6-3.2,2.3
					c-1.4,1-2.8,1-3.9,0c-0.9-0.7-1.2-1.7-1.2-2.7c0-1.6,0-3.2,0-4.9c0-0.3,0-0.6,0-1c-2,0.1-3.9,0.2-5.8,0.4c-3,0.3-6,1-8.9,1.9
					c-5.5,1.9-10.4,4.7-14.8,8.5c-4.6,4.1-8.2,9-10.7,14.7c-1.4,3.3-2.5,6.7-3.1,10.2c-0.5,3.4-0.7,6.8-0.4,10.3
					c0.5,6,2.1,11.6,5,16.8c2.9,5.3,6.7,9.9,11.6,13.6c5,3.8,10.6,6.5,16.8,7.8c5.2,1.1,10.5,1.3,15.8,0.5c6.5-1,12.4-3.4,17.8-7.2
					c3.7-2.6,6.9-5.7,9.6-9.4c3.6-4.8,6-10.1,7.4-15.9c0.1-0.5,0.2-1.1,0.4-1.6c0.5-2.1,1.9-3.3,3.9-3.7c2-0.4,3.7,0.2,5,1.9
					c1,1.3,1.3,2.7,1,4.2c-1.7,8.4-5.2,15.9-10.5,22.6c-6.5,8.1-14.7,13.8-24.5,17.1c-6.2,2.1-12.7,3-19.2,2.7
					c-11.5-0.6-21.8-4.4-30.7-11.7C18.5,94.4,12.2,84,9.8,71.3c-2.5-13.3-0.2-25.7,6.7-37.3c4.5-7.6,10.7-13.5,18.3-18
					c4.2-2.5,8.7-4.3,13.5-5.6c4.2-1.1,8.4-1.6,12.7-1.7C61.5,8.7,62.1,8.8,62.8,8.9z"/>
				<path class="st0" d="M113.7,54c0,2.8-2.4,5.1-5.2,5.1c-2.7,0-5-2.3-5-5.1c0-2.8,2.3-5.1,5.1-5.1C111.5,48.9,113.8,51.2,113.7,54
					z"/>
				<path class="st0" d="M103,42.9c-2.8,0.1-5.1-2.2-5.2-5.1c-0.1-2.6,2.2-5,4.9-5.1c3.3-0.1,5.2,2.5,5.3,4.8
					C108.1,40.5,105.9,42.9,103,42.9z"/>
				<path class="st0" d="M91.9,19.7c2.8,0,5,2,5.1,4.8c0.1,2.6-1.5,5.2-5.1,5.3c-2.8,0.1-5-2.3-5.1-5C86.8,22.3,88.9,19.7,91.9,19.7
					z"/>
			</g>
		</g>
		<g id="_x36_6DjA5.tif_9_">
			<g>
				<path class="st0" d="M80.2,73.5c0.3,0,0.6,0,0.9,0c1.4,0.1,2.5,1.1,2.8,2.5c0.3,1.4-0.4,2.7-1.6,3.4c-0.6,0.3-1.2,0.4-1.8,0.4
					c-3.9,0-7.8,0-11.7,0c-0.2,0-0.4,0-0.7,0c0.2,2.5-0.7,4.5-2.6,6.1c-1.4,1.2-3.1,1.6-4.9,1.5c-3.3-0.3-6.6-3.2-6.2-7.5
					c-0.2,0-0.5,0-0.7,0c-3.9,0-7.9,0-11.8,0c-0.9,0-1.7-0.2-2.4-0.8c-0.9-0.8-1.3-2.1-0.8-3.3c0.4-1.1,1.5-2,2.7-2c0.3,0,0.6,0,1,0
					c0-0.6,0.1-1.1,0.1-1.7c0.3-4.3,0.6-8.6,0.9-13c0.1-1.5,0.2-3,0.5-4.5c0.5-2.3,1.3-4.4,2.5-6.4c1.3-2.1,3-3.9,5-5.3
					c1.5-1,3.1-1.8,4.8-2.3c0.3-0.1,0.5-0.2,0.8-0.2c0.1,0,0.1,0,0.2-0.1c-0.7-1.3-0.8-2.6-0.4-4c0.3-1,1-1.9,1.9-2.5
					c1.7-1.2,4.2-1.1,5.8,0.3c1.6,1.3,2.3,3.9,1.1,6.2c0.3,0.1,0.6,0.2,0.9,0.3c2.7,0.8,5,2.1,7,4c2,1.9,3.5,4.2,4.5,6.8
					c0.9,2.3,1.3,4.7,1.4,7.1c0.1,2.4,0.3,4.7,0.5,7.1c0.2,2.5,0.4,5,0.5,7.5C80.2,73.1,80.2,73.3,80.2,73.5z"/>
			</g>
		</g>
	</g>
</g>
</svg>
