<?xml version="1.0" encoding="utf-8"?>
<!-- Generator: Adobe Illustrator 17.0.0, SVG Export Plug-In . SVG Version: 6.00 Build 0)  -->
<!DOCTYPE svg PUBLIC "-//W3C//DTD SVG 1.1//EN" "http://www.w3.org/Graphics/SVG/1.1/DTD/svg11.dtd">
<svg version="1.1" id="Layer_1" xmlns="http://www.w3.org/2000/svg" xmlns:xlink="http://www.w3.org/1999/xlink" x="0px" y="0px"
	 width="125.5px" height="125.5px" viewBox="0 0 125.5 125.5" enable-background="new 0 0 125.5 125.5" xml:space="preserve">
<g>
	<path fill="#17C5FF" d="M104.272,108.343c12.497-11.33,20.359-27.685,20.359-45.842c0-34.121-27.759-61.88-61.878-61.88
		C28.63,0.62,0.869,28.379,0.869,62.5c0,20.857,10.384,39.324,26.242,50.54c0.019,0.013,0.037,0.026,0.056,0.039
		c0.609,0.43,1.224,0.85,1.849,1.258c0.395,0.261,0.795,0.517,1.199,0.77c0.314,0.195,0.629,0.386,0.947,0.576
		c0.634,0.38,1.275,0.75,1.926,1.109c0.131,0.072,0.262,0.142,0.393,0.214c9.213,4.996,20.043,7.875,30.679,7.875
		c4.943,0,10.099-1.087,15.032-2.732c9.116-2.516,17.391-7.067,24.311-13.138C103.781,108.777,104.043,108.551,104.272,108.343z
		 M4.315,62.5c0-32.221,26.215-58.434,58.437-58.434c32.22,0,58.432,26.213,58.432,58.434c0,16.24-6.664,30.95-17.395,41.55
		c-4.178-3.27-9.373-5.339-14.015-7.171c-6.091-2.404-11.365-4.486-12.966-8.384c-0.252-2.94-0.233-5.192-0.21-7.789
		c0.004-0.495,0.009-1,0.011-1.518c2.24-2.078,4.705-7.301,5.485-11.726c1.677-0.69,3.87-2.671,4.541-8.235
		c0.324-2.713-0.548-4.724-1.66-5.942c1.375-4.537,4.65-17.654-0.467-25.895c-2.082-3.352-5.27-5.435-9.484-6.2
		c-2.158-2.943-6.555-4.551-12.541-4.551c-8.973,0.165-15.519,2.879-19.457,8.067c-4.749,6.256-5.572,15.849-2.452,28.525
		c-1.136,1.216-2.04,3.25-1.708,5.997c0.667,5.566,2.864,7.546,4.542,8.235c0.787,4.414,3.313,9.652,5.615,11.736
		c0.002,0.501,0.006,0.991,0.01,1.471c0.022,2.608,0.041,4.87-0.213,7.824c-1.603,3.897-6.899,5.98-13.014,8.386
		c-4.664,1.834-9.886,3.91-14.082,7.185C10.987,93.463,4.315,78.748,4.315,62.5z"/>
</g>
</svg>
