<?xml version="1.0" encoding="utf-8"?>
<!-- Generator: Adobe Illustrator 17.0.0, SVG Export Plug-In . SVG Version: 6.00 Build 0)  -->
<!DOCTYPE svg PUBLIC "-//W3C//DTD SVG 1.1//EN" "http://www.w3.org/Graphics/SVG/1.1/DTD/svg11.dtd">
<svg version="1.1" id="Layer_1" xmlns="http://www.w3.org/2000/svg" xmlns:xlink="http://www.w3.org/1999/xlink" x="0px" y="0px"
	 width="125.5px" height="125.5px" viewBox="0 0 125.5 125.5" enable-background="new 0 0 125.5 125.5" xml:space="preserve">
<g>
	<path fill="none" d="M62.75,7C32.009,7,7,32.009,7,62.75s25.009,55.75,55.75,55.75s55.75-25.01,55.75-55.75S93.491,7,62.75,7z
		 M76.105,98.276H29.379v-6h46.726V98.276z M96.121,85.266H29.379v-6h66.742V85.266z M96.121,72.255H29.379v-6h66.742V72.255z
		 M96.121,59.245H29.379v-6h66.742V59.245z M96.121,46.234H29.379v-6h66.742V46.234z M96.121,33.224H29.379v-6h66.742V33.224z"/>
	<path fill="#58595B" d="M62.75,0C28.15,0,0,28.149,0,62.75C0,97.351,28.15,125.5,62.75,125.5c34.6,0,62.75-28.149,62.75-62.75
		C125.5,28.149,97.35,0,62.75,0z M62.75,118.5C32.009,118.5,7,93.491,7,62.75S32.009,7,62.75,7s55.75,25.009,55.75,55.75
		S93.491,118.5,62.75,118.5z"/>
	<rect x="29.379" y="92.276" fill="#58595B" width="46.726" height="6"/>
	<rect x="29.379" y="79.266" fill="#58595B" width="66.742" height="6"/>
	<rect x="29.379" y="66.255" fill="#58595B" width="66.742" height="6"/>
	<rect x="29.379" y="53.245" fill="#58595B" width="66.742" height="6"/>
	<rect x="29.379" y="40.234" fill="#58595B" width="66.742" height="6"/>
	<rect x="29.379" y="27.224" fill="#58595B" width="66.742" height="6"/>
</g>
</svg>
