<?xml version="1.0" encoding="utf-8"?>
<!-- Generator: Adobe Illustrator 17.0.0, SVG Export Plug-In . SVG Version: 6.00 Build 0)  -->
<!DOCTYPE svg PUBLIC "-//W3C//DTD SVG 1.1//EN" "http://www.w3.org/Graphics/SVG/1.1/DTD/svg11.dtd">
<svg version="1.1" id="Layer_1" xmlns="http://www.w3.org/2000/svg" xmlns:xlink="http://www.w3.org/1999/xlink" x="0px" y="0px"
	 width="125.5px" height="125.5px" viewBox="0 0 125.5 125.5" enable-background="new 0 0 125.5 125.5" xml:space="preserve">
<g>
	<path fill="#C61718" d="M101.963,13.758c-2.751-2.205-5.705-4.189-8.779-5.897l-3.4,6.119c2.732,1.518,5.357,3.281,7.803,5.24
		L101.963,13.758z"/>
	<path fill="#C61718" d="M88.448,5.487c-3.217-1.446-6.577-2.625-9.987-3.503l-1.748,6.778c3.027,0.78,6.011,1.827,8.866,3.11
		L88.448,5.487z"/>
	<path fill="#C61718" d="M117.985,55.144l6.936-0.943c-0.475-3.492-1.252-6.965-2.311-10.324l-6.676,2.104
		C116.873,48.961,117.563,52.044,117.985,55.144z"/>
	<path fill="#C61718" d="M125.5,62.746c-0.001-1.101-0.029-2.205-0.085-3.279l-6.99,0.358c0.049,0.958,0.074,1.942,0.075,2.926
		C118.499,93.492,93.49,118.5,62.75,118.5C32.009,118.5,7,93.491,7,62.75S32.009,7,62.75,7c3.144,0,6.294,0.264,9.366,0.783
		l1.168-6.902C69.828,0.296,66.284,0,62.75,0C28.15,0,0,28.149,0,62.75C0,97.351,28.15,125.5,62.75,125.5
		c34.6,0,62.75-28.149,62.75-62.75H122L125.5,62.746z"/>
	<path fill="#C61718" d="M114.333,41.561l6.475-2.662c-1.337-3.25-2.963-6.414-4.834-9.403l-5.934,3.714
		C111.702,35.866,113.146,38.675,114.333,41.561z"/>
	<path fill="#C61718" d="M107.38,29.334l5.6-4.2c-2.11-2.813-4.475-5.47-7.029-7.896l-4.82,5.076
		C103.401,24.47,105.504,26.832,107.38,29.334z"/>
	<polygon fill="#C61718" points="57.251,59.848 57.252,94.378 68.252,94.378 68.252,65.655 103.928,41.271 97.721,32.189 	"/>
</g>
</svg>
