<?xml version="1.0" encoding="utf-8"?>
<!-- Generator: Adobe Illustrator 24.0.3, SVG Export Plug-In . SVG Version: 6.00 Build 0)  -->
<svg version="1.1" id="Layer_1" xmlns="http://www.w3.org/2000/svg" xmlns:xlink="http://www.w3.org/1999/xlink" x="0px" y="0px"
	 viewBox="0 0 77.6 91.7" style="enable-background:new 0 0 77.6 91.7;" xml:space="preserve">
<style type="text/css">
	.st0{fill:#FFFFFF;}
</style>
<g id="cCnyGB.tif">
	<g>
		<g>
			<path class="st0" d="M47.9,44.7c-0.1,1.1-0.2,2.1-0.2,3.1C47.3,53.4,47,59,46.7,64.6c-0.1,2.3-1.3,3.5-3.8,3.5
				c-2.9-0.1-5.7,0-8.6,0c-1.7,0-3.1-1.1-3.2-2.9c0-0.6-0.1-1.1-0.1-1.7c-0.2-4.5-0.5-8.9-0.7-13.4c-0.1-1.5-0.2-3.1-0.2-4.6
				c0-0.9-0.1-0.9-0.9-1c-1.3-0.2-2.7-0.4-4-0.7c-1.4-0.3-1.9-1.2-1.8-2.6c0.3-2.3,0.5-4.6,0.8-6.9c0.2-1.2,0.2-2.4,0.6-3.5
				c1.2-4.3,5-7.5,9.5-7.7c3-0.1,6.1-0.1,9.1,0c4.6,0.2,8.5,3.5,9.6,7.9c0.3,1.4,0.5,2.8,0.7,4.2c0.3,2,0.5,4,0.7,6
				c0.2,1.6-0.4,2.4-2,2.7c-1.2,0.3-2.4,0.4-3.7,0.7C48.4,44.6,48.2,44.6,47.9,44.7z"/>
			<path class="st0" d="M22.4,25.1c-1.3,1.7-2.1,3.7-2.5,5.8c-0.3,1.6-0.4,3.3-0.6,5c-0.2,1.8-0.5,3.6-0.6,5.4
				c-0.2,2.7,0.9,4.8,3.2,6.2c0.5,0.3,0.6,0.6,0.6,1.1c-0.2,3-0.4,6.1-0.5,9.2c-0.1,1.6-0.2,3.2-0.3,4.9c-0.1,1.9-1.1,3-3.1,3.1
				c-2.8,0-5.5,0-8.3,0c-2,0-3-1.2-3.1-3.2c-0.2-3.7-0.4-7.3-0.7-11c-0.1-2.2-0.3-4.5-0.4-6.7c-0.1-0.8-0.1-0.8-0.8-0.9
				c-1.2-0.2-2.4-0.4-3.5-0.6C0.5,42.9-0.1,42,0,40.6c0.3-2.8,0.6-5.7,1-8.5c0.4-2.8,1.9-5,4.2-6.6c1.7-1.2,3.7-1.7,5.8-1.7
				c2.7,0,5.4,0,8,0.1c1.1,0,2.1,0.4,3,0.9C22.2,24.8,22.3,25,22.4,25.1z"/>
			<path class="st0" d="M55.2,25c1-0.7,2.1-1.1,3.2-1.1c3.1-0.1,6.2-0.1,9.3,0c4,0.2,7.8,3.5,8.7,7.6c0.4,2.1,0.6,4.2,0.8,6.3
				c0.1,1,0.2,1.9,0.3,2.9c0.2,1.2-0.3,2.1-1.5,2.4c-1.2,0.3-2.4,0.5-3.6,0.7c-0.9,0.1-0.9,0.1-1,1.1c-0.3,4.6-0.6,9.2-0.9,13.8
				c-0.1,1.4-0.2,2.8-0.3,4.2c-0.1,1.7-1.1,2.7-2.8,2.7c-2.9,0.1-5.8,0.1-8.7,0c-1.7,0-2.8-1.1-2.9-2.8c-0.2-2.6-0.3-5.2-0.5-7.8
				c-0.1-2.2-0.2-4.4-0.4-6.6c0-0.4,0-0.7,0.5-1c2.5-1.5,3.6-3.8,3.3-6.7c-0.4-3.3-0.8-6.7-1.2-10c-0.2-1.8-1-3.4-1.9-4.9
				C55.6,25.6,55.4,25.3,55.2,25z"/>
			<path class="st0" d="M28.8,10.1C28.8,4.5,33.3,0,38.9,0C44.5,0,49,4.5,49,10.2c0,5.6-4.6,10.1-10.1,10.1
				C33.2,20.2,28.7,15.7,28.8,10.1z"/>
			<path class="st0" d="M14.5,2.4c5.2,0,9.4,4.2,9.4,9.5c0,5.2-4.2,9.4-9.5,9.4c-5.2,0-9.4-4.2-9.4-9.5C5,6.6,9.3,2.4,14.5,2.4z"/>
			<path class="st0" d="M63.2,2.4c5.2,0,9.5,4.2,9.5,9.4c0,5.2-4.2,9.4-9.4,9.5c-5.2,0-9.5-4.2-9.5-9.4C53.8,6.6,58,2.4,63.2,2.4z"
				/>
			<path class="st0" d="M62.8,71.1c1.1,0,1.6,0.4,1.9,1.1c0.4,1,0.8,1.9,1.2,2.9c0.3,0.9,0.9,1.3,1.9,1.4c1.1,0,2.2,0.2,3.3,0.3
				c0.7,0.1,1.2,0.4,1.4,1c0.3,0.7,0,1.3-0.5,1.8c-0.8,0.7-1.6,1.4-2.5,2.1c-0.7,0.6-1,1.3-0.8,2.2c0.2,1.1,0.4,2.2,0.5,3.4
				c0.1,0.7-0.1,1.2-0.7,1.6c-0.6,0.4-1.1,0.4-1.7,0c-1-0.6-2-1.2-3-1.8c-0.6-0.4-1.2-0.4-1.9,0c-1,0.6-2,1.2-3,1.8
				c-0.9,0.6-2,0.1-2.3-0.8c-0.1-0.4-0.1-0.9,0-1.3c0.2-1,0.4-2,0.7-3c0.2-0.8,0-1.5-0.6-2c-0.9-0.7-1.7-1.4-2.5-2.2
				c-0.6-0.5-0.8-1.3-0.5-1.9c0.3-0.6,0.7-0.9,1.3-0.9c1.1-0.1,2.3-0.2,3.4-0.3c0.9-0.1,1.5-0.5,1.8-1.3c0.4-1,0.8-2,1.3-3.1
				C61.9,71.5,62.4,71.1,62.8,71.1z"/>
			<path class="st0" d="M14.4,71.1c0.8,0,1.3,0.5,1.6,1.2c0.4,0.9,0.8,1.9,1.2,2.8c0.3,0.9,0.9,1.4,2,1.4c1.1,0,2.1,0.2,3.2,0.2
				c0.7,0,1.3,0.3,1.5,1c0.2,0.7-0.1,1.3-0.7,1.7c-0.8,0.7-1.6,1.4-2.5,2.1c-0.8,0.7-1.1,1.4-0.8,2.4c0.3,1,0.5,1.9,0.7,2.9
				c0.1,0.6,0.1,1.2-0.4,1.7c-0.6,0.5-1.2,0.6-1.9,0.2c-1-0.6-2-1.2-3-1.8c-0.7-0.4-1.3-0.4-2,0c-0.9,0.6-1.8,1.1-2.7,1.6
				c-0.7,0.4-1.4,0.6-2,0c-0.6-0.5-0.7-1.1-0.5-1.9c0.3-1,0.5-2.1,0.8-3.2c0.2-0.8,0-1.4-0.6-1.9c-0.8-0.7-1.6-1.4-2.5-2.1
				c-0.4-0.4-0.7-0.8-0.7-1.4c0-0.8,0.6-1.4,1.4-1.5c1.1-0.1,2.3-0.2,3.4-0.3c0.9-0.1,1.6-0.5,1.9-1.4c0.4-1,0.8-2.1,1.3-3.1
				C13.2,71.4,13.6,71.1,14.4,71.1z"/>
			<path class="st0" d="M32.4,89.8c0.2-0.9,0.4-1.9,0.7-2.9c0.1-0.2,0.1-0.5,0.2-0.7c0.3-0.7,0-1.3-0.6-1.8
				c-0.9-0.7-1.7-1.5-2.6-2.2c-0.4-0.4-0.7-0.8-0.6-1.3c0-0.9,0.6-1.5,1.5-1.5c1.2-0.1,2.3-0.2,3.5-0.3c0.8,0,1.3-0.5,1.6-1.2
				c0.4-1,0.8-2,1.1-2.9c0.3-0.7,0.7-1.2,1.5-1.2c0.8,0,1.3,0.4,1.6,1.1c0.4,1,0.8,1.9,1.2,2.9c0.3,0.8,0.8,1.3,1.8,1.3
				c1.1,0,2.2,0.2,3.2,0.2c0.7,0,1.3,0.2,1.6,0.9c0.3,0.7,0,1.3-0.6,1.8c-0.8,0.7-1.6,1.5-2.5,2.2c-0.8,0.6-1,1.4-0.7,2.3
				c0.3,1,0.5,2,0.7,3c0.2,0.7,0.1,1.3-0.5,1.8c-0.6,0.4-1.2,0.5-1.8,0.1c-1-0.6-1.9-1.1-2.8-1.7c-0.8-0.5-1.5-0.5-2.3,0
				c-0.9,0.6-1.9,1.2-2.8,1.7C33.6,92,32.3,91.2,32.4,89.8z"/>
		</g>
	</g>
</g>
</svg>
