<?xml version="1.0" encoding="utf-8"?>
<!-- Generator: Adobe Illustrator 24.0.3, SVG Export Plug-In . SVG Version: 6.00 Build 0)  -->
<svg version="1.1" id="Layer_1" xmlns="http://www.w3.org/2000/svg" xmlns:xlink="http://www.w3.org/1999/xlink" x="0px" y="0px"
	 viewBox="0 0 44.2 80.8" style="enable-background:new 0 0 44.2 80.8;" xml:space="preserve">
<style type="text/css">
	.st0{fill:#FFFFFF;}
</style>
<path class="st0" d="M33.6,42.9c-0.6-2-0.5-1.9,1.1-3.1c5.2-3.7,8.5-8.7,9.2-15c0.9-7.6-1.5-14.2-7.4-19.4
	C26.9-3.3,10.9-1.2,3.8,9.8c-6.1,9.4-4.4,21.7,4.2,28.9c1,0.8,2,1.6,3.1,2.3C7.4,54.3,3.7,67.5,0,80.8c14.8,0,29.5,0,44.2,0
	c-0.1-0.5-0.2-0.9-0.3-1.3C40.4,67.4,37,55.2,33.6,42.9z"/>
</svg>
