<?xml version="1.0" encoding="utf-8"?>
<!-- Generator: Adobe Illustrator 17.0.0, SVG Export Plug-In . SVG Version: 6.00 Build 0)  -->
<!DOCTYPE svg PUBLIC "-//W3C//DTD SVG 1.1//EN" "http://www.w3.org/Graphics/SVG/1.1/DTD/svg11.dtd">
<svg version="1.1" id="Layer_1" xmlns="http://www.w3.org/2000/svg" xmlns:xlink="http://www.w3.org/1999/xlink" x="0px" y="0px"
	 width="125.5px" height="125.5px" viewBox="0 0 125.5 125.5" enable-background="new 0 0 125.5 125.5" xml:space="preserve">
<g id="PxPRFX.tif_1_">
	<g>
		<path fill="#F1F2F2" d="M16.456,61.233c2.029,0.531,3.915,1.057,5.82,1.504c0.674,0.158,0.548,0.597,0.548,1.025
			c0.004,4.407,0.002,8.815,0.002,13.222c0,4.375,0,8.75,0,13.125c0,0.351,0,0.702,0,1.135c14.971,4.575,29.911,9.14,44.942,13.732
			c0-18.214,0-36.324,0-54.695c-0.474,0.708-0.823,1.223-1.167,1.742c-3.218,4.848-6.432,9.698-9.653,14.543
			c-1.186,1.784-2.16,2.162-4.263,1.618C38.166,64.43,23.65,60.666,9.132,56.907c-2.021-0.523-4.048-1.021-6.065-1.559
			c-2.829-0.756-3.614-3.007-1.887-5.375c4.926-6.754,9.889-13.481,14.757-20.276c1.044-1.457,2.275-2.358,3.958-2.967
			c11.896-4.301,23.779-8.641,35.62-13.089c2.051-0.77,3.928-0.293,5.867-0.019c8.272,1.167,16.537,2.39,24.804,3.597
			c6.391,0.933,12.78,1.875,19.171,2.806c0.347,0.051,0.704,0.041,1.056,0.049c1.097,0.026,2.01,0.432,2.647,1.341
			c5.165,7.372,10.34,14.738,15.473,22.133c1.295,1.865,0.74,3.739-1.289,4.719c-3.846,1.856-7.698,3.702-11.558,5.529
			c-2.491,1.179-5.017,2.285-7.502,3.476c-6.481,3.105-12.949,6.237-19.422,9.359c-0.232,0.112-0.46,0.23-0.696,0.332
			c-2.039,0.879-3.684,0.297-4.648-1.697c-1.062-2.196-2.079-4.413-3.117-6.621c-0.709-1.508-1.42-3.016-2.242-4.762
			c0,16.739,0,33.223,0,49.816c0.854-0.469,1.664-0.907,2.468-1.355c9.009-5.018,18.013-10.046,27.036-15.04
			c0.687-0.381,0.904-0.809,0.902-1.575c-0.027-8.396-0.005-16.793-0.038-25.189c-0.003-0.772,0.234-1.13,0.933-1.409
			c1.782-0.711,3.53-1.505,5.458-2.338c0,0.49,0,0.825,0,1.16c0,10.101-0.011,20.203,0.011,30.304
			c0.004,1.627-0.685,2.725-2.087,3.501c-11.973,6.627-23.94,13.266-35.9,19.918c-1.161,0.646-2.253,0.776-3.573,0.369
			c-16.688-5.149-33.394-10.243-50.094-15.354c-1.917-0.587-2.719-1.682-2.719-3.688c-0.001-10.23,0-20.46,0-30.69
			C16.456,61.994,16.456,61.674,16.456,61.233z M95.012,24.838c-0.357-0.07-0.472-0.098-0.587-0.115
			c-5.056-0.739-10.111-1.477-15.167-2.215c-6.805-0.993-13.608-1.999-20.417-2.957c-0.632-0.089-1.353-0.001-1.956,0.217
			c-7.577,2.743-15.14,5.524-22.706,8.299c-0.849,0.311-1.691,0.64-2.74,1.038c0.453,0.11,0.668,0.173,0.887,0.213
			c12.384,2.279,24.767,4.565,37.158,6.807c0.636,0.115,1.415,0.016,2.002-0.256c7.11-3.291,14.197-6.632,21.289-9.962
			C93.457,25.587,94.134,25.258,95.012,24.838z"/>
	</g>
</g>
</svg>
