<?xml version="1.0" encoding="utf-8"?>
<!-- Generator: Adobe Illustrator 17.0.0, SVG Export Plug-In . SVG Version: 6.00 Build 0)  -->
<!DOCTYPE svg PUBLIC "-//W3C//DTD SVG 1.1//EN" "http://www.w3.org/Graphics/SVG/1.1/DTD/svg11.dtd">
<svg version="1.1" id="Layer_1" xmlns="http://www.w3.org/2000/svg" xmlns:xlink="http://www.w3.org/1999/xlink" x="0px" y="0px"
	 width="28.062px" height="22.323px" viewBox="0 0 28.062 22.323" enable-background="new 0 0 28.062 22.323" xml:space="preserve">
<g>
	<path fill="none" d="M20.048,9.329c-0.492,0.54-0.979,1.152-1.463,1.837c-0.483,0.685-0.935,1.414-1.354,2.188
		c0.838,0.468,1.64,0.975,2.405,1.523c0.765,0.548,1.519,1.128,2.26,1.741l1.015-9.259c-0.451,0.081-0.919,0.294-1.402,0.641
		C21.027,8.346,20.54,8.789,20.048,9.329z"/>
	<path fill="none" d="M14.287,5.294c0-0.677-0.246-1.217-0.737-1.62c-0.492-0.403-1.132-0.604-1.922-0.604l-0.628,5.995
		c0.677-0.048,1.225-0.197,1.644-0.447c0.419-0.25,0.749-0.556,0.991-0.919c0.242-0.363,0.411-0.753,0.508-1.172
		C14.239,6.108,14.287,5.697,14.287,5.294z"/>
	<path fill="#FFFFFF" d="M26.72,3.273c-0.443-0.064-0.882-0.097-1.318-0.097c-1.177,0-2.305,0.242-3.384,0.725
		c-1.08,0.483-2.099,1.128-3.058,1.934c-0.007,0.006-0.013,0.012-0.02,0.017c0.024-0.221,0.036-0.42,0.036-0.593
		c0-0.804-0.125-1.527-0.375-2.171c-0.25-0.643-0.653-1.194-1.209-1.653c-0.556-0.459-1.277-0.812-2.164-1.062
		C14.343,0.125,13.272,0,12.015,0c-1.789,0-3.421,0.149-4.895,0.446c-1.475,0.298-2.74,0.723-3.795,1.278
		C2.268,2.278,1.45,2.95,0.87,3.737S0,5.401,0,6.365c0,0.354,0.052,0.691,0.157,1.013c0.105,0.322,0.262,0.611,0.471,0.868
		c0.209,0.257,0.459,0.462,0.749,0.615c0.29,0.153,0.62,0.229,0.991,0.229c0.322,0,0.632-0.064,0.931-0.193
		C3.598,8.767,3.856,8.59,4.073,8.364c0.218-0.225,0.395-0.483,0.532-0.774c0.137-0.29,0.205-0.596,0.205-0.919
		c0-0.354-0.101-0.713-0.302-1.076c-0.202-0.363-0.48-0.649-0.834-0.858c0.29-0.242,0.697-0.471,1.221-0.689
		c0.523-0.218,1.116-0.407,1.777-0.568L5.101,18.687h4.932l0.701-6.527l1.765,0.024c0.516,0.019,0.992-0.012,1.431-0.092
		c-0.675,1.188-1.38,2.661-1.992,4.453c-0.267,0.782-0.536,1.511-0.737,2.212c-0.202,0.701-0.355,1.354-0.459,1.958
		c-0.105,0.604-0.157,1.14-0.157,1.608h3.65c0-0.451,0.048-0.943,0.145-1.475c0.097-0.532,0.225-1.088,0.387-1.668
		c0.161-0.58,0.354-1.172,0.58-1.777c0.225-0.604,0.475-1.212,0.749-1.825c0.516,0.29,1.027,0.617,1.535,0.979
		c0.508,0.363,0.991,0.729,1.45,1.1c0.459,0.371,0.894,0.741,1.305,1.112c0.411,0.371,0.794,0.717,1.148,1.039l-0.29,2.514h5.004
		l1.813-18.711C27.611,3.451,27.163,3.338,26.72,3.273z M12.643,8.618c-0.419,0.25-0.967,0.399-1.644,0.447l0.628-5.995
		c0.789,0,1.43,0.202,1.922,0.604c0.491,0.403,0.737,0.943,0.737,1.62c0,0.403-0.048,0.814-0.145,1.233
		c-0.097,0.419-0.266,0.81-0.508,1.172C13.393,8.062,13.062,8.368,12.643,8.618z M21.897,16.617
		c-0.741-0.612-1.495-1.193-2.26-1.741c-0.766-0.548-1.568-1.055-2.405-1.523c0.419-0.774,0.87-1.503,1.354-2.188
		c0.483-0.685,0.971-1.297,1.463-1.837c0.491-0.54,0.979-0.983,1.463-1.33c0.483-0.346,0.951-0.56,1.402-0.641L21.897,16.617z"/>
</g>
</svg>
