<?xml version="1.0" encoding="utf-8"?>
<!-- Generator: Adobe Illustrator 17.0.0, SVG Export Plug-In . SVG Version: 6.00 Build 0)  -->
<!DOCTYPE svg PUBLIC "-//W3C//DTD SVG 1.1//EN" "http://www.w3.org/Graphics/SVG/1.1/DTD/svg11.dtd">
<svg version="1.1" id="Layer_1" xmlns="http://www.w3.org/2000/svg" xmlns:xlink="http://www.w3.org/1999/xlink" x="0px" y="0px"
	 width="58.007px" height="58.007px" viewBox="0 0 58.007 58.007" enable-background="new 0 0 58.007 58.007" xml:space="preserve">
<path fill="#FFFFFF" d="M29.003,0v5.67c12.866,0,23.334,10.468,23.334,23.334S41.869,52.337,29.003,52.337S5.67,41.87,5.67,29.004
	c0-3.142,0.618-6.192,1.807-9.023c0.13,0.008,0.258,0.02,0.39,0.02c3.55,0,6.428-2.878,6.428-6.428c0-3.55-2.878-6.428-6.428-6.428
	s-6.428,2.878-6.428,6.428c0,1.331,0.405,2.568,1.097,3.593C0.878,20.861,0,24.865,0,29.004c0,15.992,13.011,29.003,29.003,29.003
	s29.004-13.011,29.004-29.003S44.995,0,29.003,0z"/>
</svg>
