<?xml version="1.0" encoding="utf-8"?>
<!-- Generator: Adobe Illustrator 23.0.1, SVG Export Plug-In . SVG Version: 6.00 Build 0)  -->
<svg version="1.1" id="Layer_1" xmlns="http://www.w3.org/2000/svg" xmlns:xlink="http://www.w3.org/1999/xlink" x="0px" y="0px"
	 viewBox="0 0 47 47" style="enable-background:new 0 0 47 47;" xml:space="preserve">
<style type="text/css">
	.st0{fill:#FFFFFF;}
</style>
<g>
	<path d="M41.93,22c0.04,0.5,0.07,1,0.07,1.5C42,33.7,33.7,42,23.5,42S5,33.7,5,23.5S13.3,5,23.5,5c0.51,0,1,0.03,1.5,0.07V4.06
		C24.5,4.02,24,4,23.5,4C12.73,4,4,12.73,4,23.5C4,34.27,12.73,43,23.5,43S43,34.27,43,23.5c0-0.51-0.03-1-0.07-1.5H41.93z"/>
	<g>
		<path class="st0" d="M38.18,22c0.57,13.16-15.14,22-25.11,11.92C3.16,23.9,11.71,8.22,25,8.82c2.03,0.09,3.75-1.79,3.75-3.75
			c0-0.34,0-0.67,0-1.01c0-2.09-1.72-3.67-3.75-3.75C4.3-0.5-8.07,24.83,7.07,39.93C22.1,54.94,47.68,42.8,46.68,22
			c-0.1-2.02-1.64-3.75-3.75-3.75c-0.33,0-0.66,0-0.99,0c-4.83,0-4.83,7.5,0,7.5c0.33,0,0.66,0,0.99,0c-1.25-1.25-2.5-2.5-3.75-3.75
			c0.68,14.14-16.23,23.21-26.81,12.63C1.74,24,10.9,7.26,25,7.81c-1.25-1.25-2.5-2.5-3.75-3.75c0,0.34,0,0.67,0,1.01
			c1.25-1.25,2.5-2.5,3.75-3.75C5.15,0.43-6.68,24.77,7.77,39.23C22.24,53.7,46.55,41.85,45.68,22C45.48,17.19,37.98,17.17,38.18,22
			z"/>
	</g>
</g>
</svg>
