<?xml version="1.0" encoding="utf-8"?>
<!-- Generator: Adobe Illustrator 24.0.3, SVG Export Plug-In . SVG Version: 6.00 Build 0)  -->
<svg version="1.1" id="Layer_1" xmlns="http://www.w3.org/2000/svg" xmlns:xlink="http://www.w3.org/1999/xlink" x="0px" y="0px"
	 viewBox="0 0 118.1 124.1" style="enable-background:new 0 0 118.1 124.1;" xml:space="preserve">
<style type="text/css">
	.st0{fill:#FFFFFF;}
	.st1{fill:#FFB600;}
</style>
<g>
	<path class="st0" d="M98.1,88.9c2.9-0.5,5.5-1,7.9-1.8c6.2-1.9,7.9-3.9,8-4.4v-5.9c0,0,0.1,0,0.1-0.1c-3.5,2.2-9.2,3.9-16,5
		C98.1,83.2,98.1,86.3,98.1,88.9z"/>
	<path class="st0" d="M96.3,76.5c2.9-0.4,5.7-0.9,8.2-1.6c4.5-1.2,6.8-2.6,7.8-3.4c-0.4-0.4-1.1-0.8-2.1-1.3c-3.2,1.3-7.3,2.3-12,3
		C98,74.3,97.4,75.4,96.3,76.5z"/>
	<path class="st0" d="M98.1,61.7c0,1.5,0,4.6,0,7.2c2.9-0.5,5.5-1,7.9-1.8c6.2-1.9,7.9-3.9,8-4.4v-5.9c0,0,0.1,0,0.1-0.1
		C110.6,58.9,104.9,60.7,98.1,61.7z"/>
	<path class="st0" d="M90.8,54.4c0.2,0.1,0.4,0.2,0.6,0.2c0.3,0.1,0.6,0.3,0.9,0.4c0.1,0,0.2,0.1,0.3,0.1c0.2,0.1,0.4,0.2,0.6,0.3
		c0.1,0.1,0.2,0.1,0.3,0.2c0.2,0.1,0.3,0.2,0.5,0.3c0.1,0,0.2,0.1,0.2,0.1c0.2,0.1,0.4,0.2,0.6,0.4c0,0,0.1,0.1,0.1,0.1
		c0.1,0,0.1,0.1,0.2,0.1c3.4-0.4,6.6-1,9.5-1.8c4.5-1.2,6.8-2.6,7.8-3.4c-0.4-0.4-1.1-0.8-2.1-1.3c-5.1,2-12.3,3.4-20.4,3.9
		C90.1,54.1,90.4,54.2,90.8,54.4z"/>
	<path class="st0" d="M77.9,49.8c1.2,0.1,2.3,0.1,3.5,0.2v-7.2c-1.2,0-2.4-0.1-3.5-0.2V49.8z"/>
	<path class="st0" d="M84.1,42.7C84.1,42.7,84.1,42.7,84.1,42.7C84.1,42.7,84.1,42.7,84.1,42.7v7.2h0c8.2,0,16-1,21.9-2.8
		c6.2-1.9,7.9-3.9,8-4.4v-5.9c0,0,0.1,0,0.1-0.1C108.4,40.3,97.1,42.7,84.1,42.7z"/>
	<path class="st0" d="M69.2,48.8c1.1,0.2,2.1,0.3,3.2,0.5V42c0,0,0.1,0,0.1,0c-1.2-0.1-2.3-0.3-3.4-0.5c0,0,0.1,0,0.1,0V48.8z"/>
	<path class="st0" d="M68.1,32.7c0,0.9,0,1.9,0,3.1c4.8,0.9,10.3,1.4,16,1.4c7.5,0,14.7-0.9,20.3-2.4c4.5-1.2,6.8-2.6,7.8-3.4
		c-0.4-0.4-1.1-0.8-2.1-1.3c-6.2,2.5-15.6,4-26,4C78.3,34.1,72.9,33.6,68.1,32.7z"/>
	<path class="st0" d="M108.9,3.6C108.9,3.6,108.9,3.6,108.9,3.6C108.9,3.6,108.9,3.6,108.9,3.6z"/>
	<path class="st0" d="M81.4,22.7c-1.2,0-2.4-0.1-3.5-0.2v7.2c1.2,0.1,2.3,0.1,3.5,0.2V22.7z"/>
	<path class="st0" d="M54.2,22.2c0.1,0,0.2,0.1,0.3,0.1c0.3,0.1,0.5,0.1,0.8,0.2c0.1,0,0.3,0.1,0.4,0.1c0.4,0.1,0.8,0.2,1.1,0.3
		c0,0,0.1,0,0.1,0c0.8,0.2,1.6,0.5,2.3,0.8c0.5,0.2,1,0.4,1.5,0.6c0,0,0.1,0,0.1,0v-4.7c-2.7-0.8-5-1.8-6.8-2.9c0,0,0.1,0,0.1,0.1
		V22.2z"/>
	<path class="st0" d="M84.1,22.7C84.1,22.7,84.1,22.7,84.1,22.7C84.1,22.7,84.1,22.7,84.1,22.7v7.2h0c8.2,0,16-1,21.9-2.8
		c6.2-1.9,7.9-3.9,8-4.4v-5.9c0,0,0.1,0,0.1-0.1C108.4,20.3,97.1,22.7,84.1,22.7z"/>
	<path class="st0" d="M72.5,22C72.5,22,72.5,22,72.5,22c-1.1-0.1-2.2-0.3-3.3-0.5c0,0,0.1,0,0.1,0v7.2c1.1,0.2,2.1,0.3,3.2,0.5V22z"
		/>
	<path class="st0" d="M84.1,17.2c7.5,0,14.7-0.9,20.3-2.4c4.5-1.2,6.8-2.6,7.8-3.4c-1-0.8-3.3-2.2-7.8-3.4
		c-5.6-1.6-12.9-2.4-20.3-2.4S69.4,6.4,63.8,7.9c-4.5,1.2-6.8,2.6-7.8,3.4c1,0.8,3.3,2.2,7.8,3.4C69.4,16.3,76.6,17.2,84.1,17.2z"/>
	<path class="st1" d="M118.1,22.7c0-2.1,0-9.3,0-11.4c0-0.2,0-0.4,0-0.5c0-0.1,0-0.1,0-0.2c0-0.1,0-0.2-0.1-0.4c0-0.1,0-0.1-0.1-0.2
		c0-0.1-0.1-0.2-0.1-0.4c0-0.1,0-0.1-0.1-0.2c-0.1-0.1-0.1-0.3-0.2-0.4c0,0,0-0.1-0.1-0.1c-0.1-0.2-0.2-0.3-0.3-0.5
		c0,0-0.1-0.1-0.1-0.1c-0.1-0.1-0.2-0.2-0.3-0.4c-0.1-0.1-0.1-0.1-0.2-0.2c-0.1-0.1-0.2-0.2-0.3-0.3c-0.1-0.1-0.1-0.1-0.2-0.2
		c-0.1-0.1-0.3-0.2-0.4-0.3c-0.1,0-0.1-0.1-0.2-0.1c-0.2-0.2-0.4-0.3-0.6-0.5c0,0-0.1-0.1-0.1-0.1c-0.2-0.1-0.4-0.2-0.6-0.4
		c-0.1,0-0.2-0.1-0.2-0.1c-0.2-0.1-0.3-0.2-0.5-0.3c-0.1-0.1-0.2-0.1-0.3-0.2c-0.2-0.1-0.4-0.2-0.6-0.3c-0.1,0-0.2-0.1-0.3-0.1
		c-0.3-0.1-0.6-0.3-0.9-0.4c-0.2-0.1-0.4-0.2-0.6-0.2c-0.5-0.2-1-0.4-1.5-0.6c-0.1,0-0.2-0.1-0.3-0.1c0,0-0.1,0-0.1,0
		c-0.6-0.2-1.2-0.4-1.9-0.6c0,0-0.1,0-0.1,0c-0.4-0.1-0.7-0.2-1.1-0.3c-0.1,0-0.3-0.1-0.4-0.1c-0.3-0.1-0.5-0.1-0.8-0.2
		c-0.2,0-0.3-0.1-0.5-0.1c-0.3-0.1-0.5-0.1-0.8-0.2c-0.2,0-0.4-0.1-0.6-0.1c-0.3-0.1-0.5-0.1-0.8-0.2c-0.2,0-0.4-0.1-0.6-0.1
		c-0.3-0.1-0.5-0.1-0.8-0.1c-0.2,0-0.4-0.1-0.6-0.1c-0.3,0-0.5-0.1-0.8-0.1c-0.2,0-0.4-0.1-0.7-0.1c-0.3,0-0.5-0.1-0.8-0.1
		c-0.2,0-0.4-0.1-0.7-0.1c-0.3,0-0.5-0.1-0.8-0.1c-0.2,0-0.5-0.1-0.7-0.1c-0.3,0-0.6-0.1-0.8-0.1c-0.2,0-0.5-0.1-0.7-0.1
		c-0.3,0-0.6-0.1-0.9-0.1c-0.2,0-0.5,0-0.7-0.1c-0.3,0-0.6,0-0.9-0.1c-0.2,0-0.5,0-0.7-0.1c-0.3,0-0.6,0-0.9-0.1c-0.2,0-0.5,0-0.7,0
		c-0.3,0-0.7,0-1,0c-0.2,0-0.4,0-0.7,0c-0.4,0-0.7,0-1.1,0c-0.2,0-0.4,0-0.6,0c-0.6,0-1.1,0-1.7,0c-0.6,0-1.2,0-1.9,0
		c-0.2,0-0.4,0-0.6,0c-0.4,0-0.8,0-1.2,0c-0.2,0-0.5,0-0.7,0c-0.4,0-0.7,0-1.1,0.1c-0.2,0-0.5,0-0.7,0c-0.4,0-0.7,0-1.1,0.1
		c-0.2,0-0.5,0-0.7,0.1c-0.3,0-0.7,0.1-1,0.1c-0.2,0-0.5,0-0.7,0.1c-0.4,0-0.7,0.1-1,0.1c-0.2,0-0.4,0-0.7,0.1
		c-0.4,0-0.8,0.1-1.1,0.1c-0.2,0-0.4,0-0.5,0.1c-1.1,0.2-2.1,0.3-3.2,0.5c-0.2,0-0.3,0.1-0.5,0.1c-0.3,0.1-0.7,0.1-1,0.2
		c-0.2,0-0.4,0.1-0.6,0.1c-0.3,0.1-0.6,0.1-0.9,0.2c-0.2,0-0.4,0.1-0.6,0.1c-0.3,0.1-0.6,0.1-0.8,0.2c-0.2,0-0.4,0.1-0.6,0.1
		c-0.3,0.1-0.5,0.1-0.8,0.2c-0.2,0.1-0.4,0.1-0.5,0.2C61.2,3,60.9,3,60.7,3.1c-0.2,0.1-0.3,0.1-0.5,0.2c-0.3,0.1-0.6,0.2-0.8,0.3
		c-0.1,0-0.3,0.1-0.4,0.1c-0.4,0.1-0.8,0.3-1.1,0.4c0,0,0,0,0,0c-0.3,0.1-0.6,0.3-0.9,0.4c-0.1,0-0.2,0.1-0.3,0.1
		C56.4,4.8,56.2,4.9,56,5c-0.1,0.1-0.2,0.1-0.3,0.2c-0.2,0.1-0.3,0.2-0.5,0.3c-0.1,0.1-0.2,0.1-0.3,0.2c-0.2,0.1-0.3,0.2-0.5,0.3
		C54.2,5.9,54.1,6,54,6c-0.2,0.1-0.3,0.2-0.4,0.3c-0.1,0.1-0.2,0.1-0.3,0.2c-0.2,0.1-0.3,0.2-0.4,0.3c-0.1,0.1-0.1,0.1-0.2,0.2
		c-0.4,0.3-0.8,0.6-1.1,1c-0.1,0.1-0.1,0.1-0.1,0.2c-0.1,0.1-0.2,0.2-0.3,0.3c-0.1,0.1-0.1,0.1-0.1,0.2c-0.1,0.1-0.2,0.2-0.2,0.3
		c0,0.1-0.1,0.1-0.1,0.2c-0.1,0.1-0.1,0.2-0.2,0.3c0,0.1-0.1,0.1-0.1,0.2c0,0.1-0.1,0.2-0.1,0.3c0,0.1,0,0.1-0.1,0.2
		c0,0.1-0.1,0.2-0.1,0.4c0,0.1,0,0.1,0,0.2c0,0.2,0,0.4,0,0.6c0,1.7,0,7.1,0,10c-0.1,0-0.1,0-0.2,0c-0.3,0-0.5-0.1-0.8-0.1
		c-0.2,0-0.4-0.1-0.7-0.1c-0.3,0-0.5-0.1-0.8-0.1c-0.2,0-0.4-0.1-0.7-0.1c-0.3,0-0.5-0.1-0.8-0.1c-0.2,0-0.5-0.1-0.7-0.1
		c-0.3,0-0.6-0.1-0.8-0.1c-0.2,0-0.5-0.1-0.7-0.1c-0.3,0-0.6-0.1-0.9-0.1c-0.2,0-0.5,0-0.7-0.1c-0.3,0-0.6,0-0.9-0.1
		c-0.2,0-0.5,0-0.7-0.1c-0.3,0-0.6,0-0.9-0.1c-0.2,0-0.5,0-0.7,0c-0.3,0-0.7,0-1,0c-0.2,0-0.4,0-0.7,0c-0.4,0-0.7,0-1.1,0
		c-0.2,0-0.4,0-0.6,0c-0.6,0-1.1,0-1.7,0c-0.6,0-1.2,0-1.9,0c-0.2,0-0.4,0-0.6,0c-0.4,0-0.8,0-1.2,0c-0.2,0-0.5,0-0.7,0
		c-0.4,0-0.7,0-1.1,0.1c-0.2,0-0.5,0-0.7,0c-0.4,0-0.7,0-1.1,0.1c-0.2,0-0.5,0-0.7,0.1c-0.3,0-0.7,0.1-1,0.1c-0.2,0-0.5,0-0.7,0.1
		c-0.4,0-0.7,0.1-1,0.1c-0.2,0-0.4,0-0.7,0.1c-0.4,0-0.8,0.1-1.1,0.1c-0.2,0-0.4,0-0.5,0.1c-1.1,0.2-2.1,0.3-3.2,0.5
		c-0.2,0-0.3,0.1-0.5,0.1c-0.3,0.1-0.7,0.1-1,0.2c-0.2,0-0.4,0.1-0.6,0.1C15.3,21.9,15,22,14.7,22c-0.2,0-0.4,0.1-0.6,0.1
		c-0.3,0.1-0.6,0.1-0.8,0.2c-0.2,0-0.4,0.1-0.6,0.1c-0.3,0.1-0.5,0.1-0.8,0.2c-0.2,0.1-0.4,0.1-0.5,0.2c-0.3,0.1-0.5,0.2-0.8,0.2
		c-0.2,0.1-0.3,0.1-0.5,0.2c-0.3,0.1-0.6,0.2-0.8,0.3c-0.1,0-0.3,0.1-0.4,0.1c-0.4,0.1-0.8,0.3-1.1,0.4c0,0,0,0,0,0
		c-0.3,0.1-0.6,0.3-0.9,0.4c-0.1,0-0.2,0.1-0.3,0.1c-0.2,0.1-0.4,0.2-0.6,0.3c-0.1,0.1-0.2,0.1-0.3,0.2c-0.2,0.1-0.3,0.2-0.5,0.3
		c-0.1,0.1-0.2,0.1-0.3,0.2c-0.2,0.1-0.3,0.2-0.5,0.3C4.2,25.9,4.1,26,4,26c-0.2,0.1-0.3,0.2-0.4,0.3c-0.1,0.1-0.2,0.1-0.3,0.2
		c-0.2,0.1-0.3,0.2-0.4,0.3c-0.1,0.1-0.1,0.1-0.2,0.2c-0.4,0.3-0.8,0.6-1.1,1c-0.1,0.1-0.1,0.1-0.1,0.2c-0.1,0.1-0.2,0.2-0.3,0.3
		C1.1,28.5,1,28.6,1,28.7c-0.1,0.1-0.2,0.2-0.2,0.3c0,0.1-0.1,0.1-0.1,0.2c-0.1,0.1-0.1,0.2-0.2,0.3c0,0.1-0.1,0.1-0.1,0.2
		c0,0.1-0.1,0.2-0.1,0.3c0,0.1,0,0.1-0.1,0.2c0,0.1-0.1,0.2-0.1,0.4c0,0.1,0,0.1,0,0.2c0,0.2,0,0.4,0,0.6c0,2.1,0,9.3,0,11.4
		c0,1.5,0.9,3,2.6,4.3c-0.4,0.3-0.7,0.6-1,0.9c-0.1,0.1-0.1,0.1-0.1,0.2c-0.1,0.1-0.2,0.2-0.3,0.3C1.1,48.5,1,48.6,1,48.7
		c-0.1,0.1-0.2,0.2-0.2,0.3c0,0.1-0.1,0.1-0.1,0.2c-0.1,0.1-0.1,0.2-0.2,0.3c0,0.1-0.1,0.1-0.1,0.2c0,0.1-0.1,0.2-0.1,0.3
		c0,0.1,0,0.1-0.1,0.2c0,0.1-0.1,0.2-0.1,0.4c0,0.1,0,0.1,0,0.2c0,0.2,0,0.4,0,0.6c0,2.1,0,9.3,0,11.4c0,1.5,0.9,3,2.6,4.3
		c-0.4,0.3-0.7,0.6-1,0.9c-0.1,0.1-0.1,0.1-0.1,0.2c-0.1,0.1-0.2,0.2-0.3,0.3C1.1,68.6,1,68.6,1,68.7c-0.1,0.1-0.2,0.2-0.2,0.3
		c0,0.1-0.1,0.1-0.1,0.2c-0.1,0.1-0.1,0.2-0.2,0.3c0,0.1-0.1,0.1-0.1,0.2c0,0.1-0.1,0.2-0.1,0.3c0,0.1,0,0.1-0.1,0.2
		c0,0.1-0.1,0.2-0.1,0.4c0,0.1,0,0.1,0,0.2c0,0.2,0,0.4,0,0.6c0,2.1,0,9.3,0,11.4C0,88.6,13.2,93.4,30.2,94c0.4,1.1,1.2,2.1,2.4,3.1
		c-0.4,0.3-0.7,0.6-1,0.9c-0.1,0.1-0.1,0.1-0.1,0.2c-0.1,0.1-0.2,0.2-0.3,0.3c-0.1,0.1-0.1,0.1-0.1,0.2c-0.1,0.1-0.2,0.2-0.2,0.3
		c0,0.1-0.1,0.1-0.1,0.2c-0.1,0.1-0.1,0.2-0.2,0.3c0,0.1-0.1,0.1-0.1,0.2c0,0.1-0.1,0.2-0.1,0.3c0,0.1,0,0.1-0.1,0.2
		c0,0.1-0.1,0.2-0.1,0.4c0,0.1,0,0.1,0,0.2c0,0.2,0,0.4,0,0.6c0,2.1,0,9.3,0,11.4c0,6.3,15.2,11.3,34.1,11.3
		c18.8,0,34.1-5.1,34.1-11.3c0-2.1,0-9.3,0-11.4c0-0.2,0-0.4,0-0.5c0-0.1,0-0.1,0-0.2c0-0.1,0-0.2-0.1-0.4c0-0.1,0-0.1-0.1-0.2
		c0-0.1-0.1-0.2-0.1-0.4c0-0.1,0-0.1-0.1-0.2c-0.1-0.1-0.1-0.3-0.2-0.4c0,0,0-0.1-0.1-0.1c-0.1-0.2-0.2-0.3-0.3-0.5
		c0,0-0.1-0.1-0.1-0.1c-0.1-0.1-0.2-0.2-0.3-0.4c-0.1-0.1-0.1-0.1-0.2-0.2c-0.1-0.1-0.2-0.2-0.3-0.3c-0.1-0.1-0.1-0.1-0.2-0.2
		c-0.1-0.1-0.3-0.2-0.4-0.3c0,0,0,0,0,0c1.5-1.2,2.4-2.6,2.5-4c11.8-1.8,20-5.7,20-10.3c0-2.1,0-9.3,0-11.4c0-0.2,0-0.4,0-0.5
		c0-0.1,0-0.1,0-0.2c0-0.1,0-0.2-0.1-0.4c0-0.1,0-0.1-0.1-0.2c0-0.1-0.1-0.2-0.1-0.4c0-0.1,0-0.1-0.1-0.2c-0.1-0.1-0.1-0.3-0.2-0.4
		c0,0,0-0.1-0.1-0.1c-0.1-0.2-0.2-0.3-0.3-0.5c0,0-0.1-0.1-0.1-0.1c-0.1-0.1-0.2-0.2-0.3-0.4c-0.1-0.1-0.1-0.1-0.2-0.2
		c-0.1-0.1-0.2-0.2-0.3-0.3c-0.1-0.1-0.1-0.1-0.2-0.2c-0.1-0.1-0.3-0.2-0.4-0.3c0,0,0,0,0,0c1.7-1.3,2.6-2.8,2.6-4.3
		c0-2.1,0-9.3,0-11.4c0-0.2,0-0.4,0-0.5c0-0.1,0-0.1,0-0.2c0-0.1,0-0.2-0.1-0.4c0-0.1,0-0.1-0.1-0.2c0-0.1-0.1-0.2-0.1-0.4
		c0-0.1,0-0.1-0.1-0.2c-0.1-0.1-0.1-0.3-0.2-0.4c0,0,0-0.1-0.1-0.1c-0.1-0.2-0.2-0.3-0.3-0.5c0,0-0.1-0.1-0.1-0.1
		c-0.1-0.1-0.2-0.2-0.3-0.4c-0.1-0.1-0.1-0.1-0.2-0.2c-0.1-0.1-0.2-0.2-0.3-0.3c-0.1-0.1-0.1-0.1-0.2-0.2c-0.1-0.1-0.3-0.2-0.4-0.3
		c0,0,0,0,0,0c1.7-1.3,2.6-2.8,2.6-4.3c0-2.1,0-9.3,0-11.4c0-0.2,0-0.4,0-0.5c0-0.1,0-0.1,0-0.2c0-0.1,0-0.2-0.1-0.4
		c0-0.1,0-0.1-0.1-0.2c0-0.1-0.1-0.2-0.1-0.4c0-0.1,0-0.1-0.1-0.2c-0.1-0.1-0.1-0.3-0.2-0.4c0,0,0-0.1-0.1-0.1
		c-0.1-0.2-0.2-0.3-0.3-0.5c0,0-0.1-0.1-0.1-0.1c-0.1-0.1-0.2-0.2-0.3-0.4c-0.1-0.1-0.1-0.1-0.2-0.2c-0.1-0.1-0.2-0.2-0.3-0.3
		c-0.1-0.1-0.1-0.1-0.2-0.2c-0.1-0.1-0.3-0.2-0.4-0.3c0,0,0,0,0,0C117.2,25.7,118.1,24.2,118.1,22.7z M114.1,16.7
		C114.1,16.7,114.1,16.7,114.1,16.7l-0.1,6c-0.1,0.5-1.9,2.5-8,4.4c-5.9,1.8-13.7,2.8-21.9,2.8h0v-7.2c0,0,0,0,0,0c0,0,0,0,0,0
		C97.1,22.7,108.4,20.3,114.1,16.7z M114,36.8v5.9c-0.1,0.5-1.9,2.5-8,4.4c-5.9,1.8-13.7,2.8-21.9,2.8h0v-7.2c0,0,0,0,0,0
		c0,0,0,0,0,0C97.1,42.7,108.4,40.3,114,36.8C114.1,36.7,114.1,36.8,114,36.8z M114,56.8v5.9c-0.1,0.5-1.9,2.5-8,4.4
		c-2.4,0.7-5,1.3-7.9,1.8c0-2.6,0-5.7,0-7.2C104.9,60.7,110.6,58.9,114,56.8C114.1,56.8,114.1,56.8,114,56.8z M64.1,87.3
		c-7.5,0-14.7-0.9-20.3-2.4c-4.5-1.2-6.8-2.6-7.8-3.4c0.4-0.4,1.1-0.8,2.1-1.3c6.2,2.5,15.6,4,26,4c10.4,0,19.7-1.6,26-4
		c1,0.5,1.7,1,2.1,1.3c-1,0.8-3.3,2.2-7.8,3.4C78.8,86.4,71.6,87.3,64.1,87.3z M61.4,100c-1.2,0-2.4-0.1-3.5-0.2v-7.2
		c1.2,0.1,2.3,0.1,3.5,0.2V100z M27.8,69.8v-7.2c0.7,0,1.5,0.1,2.2,0.1c0,1.9,0,4.9,0,7.2C29.3,69.8,28.6,69.8,27.8,69.8z M4.1,62.7
		v-5.9c0,0-0.1,0-0.1-0.1c1.8,1.1,4.1,2.1,6.8,2.9v7C5.7,64.9,4.2,63.1,4.1,62.7z M19.2,41.6C19.2,41.6,19.1,41.6,19.2,41.6
		c1,0.2,2.2,0.3,3.3,0.5c0,0-0.1,0-0.1,0v7.2c-1.1-0.1-2.2-0.3-3.2-0.5V41.6z M27.8,42.5c1.2,0.1,2.3,0.1,3.5,0.2v7.2
		c-1.2,0-2.4-0.1-3.5-0.2V42.5z M34.1,42.7C34,42.7,34,42.7,34.1,42.7C34,42.7,34,42.7,34.1,42.7c13,0,24.3-2.4,30-6
		c0,0-0.1,0-0.1,0.1v5.9c-0.1,0.5-1.9,2.5-8,4.4c-5.9,1.8-13.7,2.8-21.9,2.8l0,0V42.7z M69.1,41.6c1.1,0.2,2.2,0.3,3.4,0.5
		c0,0-0.1,0-0.1,0v7.2c-1.1-0.1-2.2-0.3-3.2-0.5L69.1,41.6C69.2,41.6,69.2,41.6,69.1,41.6z M92.2,61.4c-1,0.8-3.3,2.2-7.8,3.4
		c-5.6,1.6-12.9,2.4-20.3,2.4s-14.7-0.9-20.3-2.4c-4.5-1.2-6.8-2.6-7.8-3.4c1-0.8,3.3-2.2,7.8-3.4c5.6-1.6,12.9-2.4,20.3-2.4
		s14.7,0.9,20.3,2.4C88.9,59.2,91.2,60.6,92.2,61.4z M61.4,79.9c-1.2,0-2.4-0.1-3.5-0.2v-7.2c1.2,0.1,2.3,0.1,3.5,0.2V79.9z
		 M34.1,72.7v-5.9c0,0-0.1,0-0.1-0.1c1.8,1.1,4.1,2.1,6.8,2.9v7C35.8,74.9,34.3,73.2,34.1,72.7z M49.2,71.6
		C49.2,71.6,49.1,71.6,49.2,71.6c1,0.2,2.2,0.3,3.3,0.5c0,0-0.1,0-0.1,0v7.2c-1.1-0.1-2.2-0.3-3.2-0.5V71.6z M60.1,50.1
		c-0.1,0-0.2,0-0.3,0c0.1,0,0.1-0.1,0.2-0.1C60.1,50.1,60.1,50.1,60.1,50.1z M81.4,49.9c-1.2,0-2.4-0.1-3.5-0.2v-7.2
		c1.2,0.1,2.3,0.1,3.5,0.2V49.9z M19.2,61.6C19.2,61.6,19.1,61.6,19.2,61.6c1,0.2,2.2,0.3,3.3,0.5c0,0-0.1,0-0.1,0v7.2
		c-1.1-0.1-2.2-0.3-3.2-0.5V61.6z M34.1,92.7v-5.9c0,0-0.1,0-0.1-0.1c1.8,1.1,4.1,2.1,6.8,2.9v7C35.8,94.9,34.3,93.2,34.1,92.7z
		 M49.2,91.6C49.2,91.6,49.1,91.6,49.2,91.6c1,0.2,2.2,0.3,3.3,0.5c0,0-0.1,0-0.1,0v7.2c-1.1-0.1-2.2-0.3-3.2-0.5V91.6z M86,77.1
		C80.1,79,72.3,80,64.1,80h0v-7.2c0,0,0,0,0,0c0,0,0,0,0,0c13,0,24.3-2.4,30-6c0,0-0.1,0-0.1,0.1v5.9C93.9,73.2,92.1,75.2,86,77.1z
		 M88.9,53.6C88.9,53.6,88.9,53.6,88.9,53.6C88.9,53.6,88.9,53.6,88.9,53.6z M69.2,21.6C69.2,21.6,69.2,21.6,69.2,21.6
		c1,0.2,2.2,0.3,3.3,0.5c0,0-0.1,0-0.1,0v7.2c-1.1-0.1-2.2-0.3-3.2-0.5V21.6z M77.9,22.5c1.2,0.1,2.3,0.1,3.5,0.2v7.2
		c-1.2,0-2.4-0.1-3.5-0.2V22.5z M63.8,7.9c5.6-1.6,12.9-2.4,20.3-2.4s14.7,0.9,20.3,2.4c4.5,1.2,6.8,2.6,7.8,3.4
		c-1,0.8-3.3,2.2-7.8,3.4c-5.6,1.6-12.9,2.4-20.3,2.4s-14.7-0.9-20.3-2.4c-4.5-1.2-6.8-2.6-7.8-3.4C57,10.5,59.3,9.2,63.8,7.9z
		 M60.8,19.6v4.7c0,0-0.1,0-0.1,0c-0.5-0.2-1-0.4-1.5-0.6c-0.7-0.3-1.5-0.5-2.3-0.8c0,0-0.1,0-0.1,0c-0.4-0.1-0.7-0.2-1.1-0.3
		c-0.1,0-0.3-0.1-0.4-0.1c-0.3-0.1-0.5-0.1-0.8-0.2c-0.1,0-0.2-0.1-0.3-0.1v-5.4c0,0-0.1,0-0.1-0.1C55.8,17.8,58.1,18.8,60.8,19.6z
		 M13.7,27.9c5.6-1.6,12.9-2.4,20.3-2.4c7.5,0,14.7,0.9,20.3,2.4c4.5,1.2,6.8,2.6,7.8,3.4c-1,0.8-3.3,2.2-7.8,3.4
		c-5.6,1.6-12.9,2.4-20.3,2.4c-7.5,0-14.7-0.9-20.3-2.4c-4.5-1.2-6.8-2.6-7.8-3.4C6.9,30.5,9.3,29.2,13.7,27.9z M10.8,39.7v7
		c-5.1-1.8-6.6-3.5-6.7-4v-5.9c0,0-0.1,0-0.1-0.1C5.8,37.8,8.1,38.8,10.8,39.7z M34.1,54.1c1.4,0,2.9,0,4.3-0.1
		c-0.2,0.1-0.3,0.1-0.5,0.2c0,0,0,0,0,0c-0.3,0.1-0.6,0.3-0.9,0.4c-0.1,0-0.2,0.1-0.3,0.1c-0.2,0.1-0.4,0.2-0.6,0.3
		c-0.1,0.1-0.2,0.1-0.3,0.2c-0.2,0.1-0.3,0.2-0.5,0.3c-0.1,0.1-0.2,0.1-0.3,0.2c-0.2,0.1-0.3,0.2-0.5,0.3c-0.1,0.1-0.2,0.1-0.3,0.2
		c-0.2,0.1-0.3,0.2-0.4,0.3c-0.1,0.1-0.2,0.1-0.3,0.2c-0.2,0.1-0.3,0.2-0.4,0.3c-0.1,0.1-0.1,0.1-0.2,0.2c-0.1,0.1-0.2,0.1-0.3,0.2
		c-6.9-0.1-13.5-1-18.7-2.4c-4.5-1.2-6.8-2.6-7.8-3.4c0.4-0.4,1.1-0.8,2.1-1.3C14.3,52.5,23.6,54.1,34.1,54.1z M10.8,86.7
		c-5.1-1.8-6.6-3.5-6.7-4v-5.9c0,0-0.1,0-0.1-0.1c1.8,1.1,4.1,2.1,6.8,2.9V86.7z M5.9,71.4c0.4-0.4,1.1-0.8,2.1-1.3
		c5.5,2.2,13.3,3.6,22.2,3.9c0.4,1.1,1.2,2.1,2.4,3.1c-0.1,0.1-0.1,0.1-0.2,0.2c-6.9-0.1-13.5-1-18.7-2.4
		C9.3,73.6,6.9,72.2,5.9,71.4z M22.4,82.1v7.2c-1.1-0.1-2.2-0.3-3.2-0.5v-7.2c0,0-0.1,0-0.1,0C20.2,81.8,21.3,81.9,22.4,82.1
		C22.5,82.1,22.5,82.1,22.4,82.1z M27.8,82.6c0.7,0,1.5,0.1,2.2,0.1c0,1.9,0,4.9,0,7.2c-0.7,0-1.5-0.1-2.2-0.1V82.6z M40.8,116.7
		c-5.1-1.8-6.6-3.5-6.7-4v-5.9c0,0-0.1,0-0.1-0.1c1.8,1.1,4.1,2.1,6.8,2.9V116.7z M52.5,112.1v7.2c-1.1-0.1-2.2-0.3-3.2-0.5v-7.2
		c0,0-0.1,0-0.1,0C50.2,111.8,51.4,112,52.5,112.1C52.5,112.1,52.5,112.1,52.5,112.1z M61.4,120c-1.2,0-2.4-0.1-3.5-0.2v-7.2
		c1.2,0.1,2.3,0.1,3.5,0.2V120z M94,106.8v5.9c-0.1,0.5-1.9,2.5-8,4.4c-5.9,1.8-13.7,2.8-21.9,2.8h0v-7.2c0,0,0,0,0,0c0,0,0,0,0,0
		C77.1,112.8,88.3,110.3,94,106.8C94.1,106.8,94,106.8,94,106.8z M92.2,101.4c-1,0.8-3.3,2.2-7.8,3.4c-5.6,1.6-12.9,2.4-20.3,2.4
		s-14.7-0.9-20.3-2.4c-4.5-1.2-6.8-2.6-7.8-3.4c0.4-0.4,1.1-0.8,2.1-1.3c6.2,2.5,15.6,4,26,4c10.4,0,19.7-1.6,26-4
		C91,100.6,91.8,101.1,92.2,101.4z M86,97.2C80.1,99,72.3,100,64.1,100h0v-7.2c0,0,0,0,0,0c0,0,0,0,0,0c13,0,24.3-2.4,30-6
		c0,0-0.1,0-0.1,0.1v5.9C93.9,93.2,92.1,95.3,86,97.2z M114,76.8v5.9c-0.1,0.5-1.9,2.5-8,4.4c-2.4,0.7-5,1.3-7.9,1.8
		c0-2.6,0-5.7,0-7.2C104.9,80.7,110.6,79,114,76.8C114.1,76.8,114.1,76.8,114,76.8z M112.2,71.4c-1,0.8-3.3,2.2-7.8,3.4
		c-2.5,0.7-5.2,1.2-8.2,1.6c1.1-1.1,1.7-2.2,1.8-3.4c4.6-0.7,8.7-1.7,12-3C111.1,70.6,111.8,71,112.2,71.4z M112.2,51.4
		c-1,0.8-3.3,2.2-7.8,3.4c-2.8,0.8-6,1.4-9.5,1.8c-0.1,0-0.1-0.1-0.2-0.1c0,0-0.1-0.1-0.1-0.1c-0.2-0.1-0.4-0.2-0.6-0.4
		c-0.1,0-0.2-0.1-0.2-0.1c-0.2-0.1-0.3-0.2-0.5-0.3c-0.1-0.1-0.2-0.1-0.3-0.2c-0.2-0.1-0.4-0.2-0.6-0.3c-0.1,0-0.2-0.1-0.3-0.1
		c-0.3-0.1-0.6-0.3-0.9-0.4c-0.2-0.1-0.4-0.2-0.6-0.2c-0.4-0.2-0.7-0.3-1.1-0.4c8.1-0.4,15.3-1.9,20.4-3.9
		C111.1,50.6,111.8,51,112.2,51.4z M112.2,31.4c-1,0.8-3.3,2.2-7.8,3.4c-5.6,1.6-12.9,2.4-20.3,2.4c-5.7,0-11.2-0.5-16-1.4
		c0-1.1,0-2.2,0-3.1c4.8,0.8,10.2,1.3,16,1.3c10.4,0,19.7-1.6,26-4C111.1,30.5,111.8,31,112.2,31.4z"/>
	<path class="st0" d="M30,82.7c-0.7,0-1.5-0.1-2.2-0.1v7.2c0.7,0,1.5,0.1,2.2,0.1C30,87.5,30,84.5,30,82.7z"/>
	<path class="st0" d="M4.1,76.8v5.9c0.1,0.4,1.6,2.2,6.7,4v-7C8.1,78.8,5.8,77.9,4.1,76.8C4.1,76.8,4.1,76.8,4.1,76.8z"/>
	<path class="st0" d="M19.2,81.6v7.2c1.1,0.2,2.1,0.3,3.2,0.5v-7.2c0,0,0.1,0,0.1,0C21.3,81.9,20.2,81.8,19.2,81.6
		C19.1,81.6,19.2,81.6,19.2,81.6z"/>
	<path class="st0" d="M32.6,77.1c-1.2-1-2-2-2.4-3.1c-8.9-0.3-16.7-1.8-22.2-3.9c-1,0.5-1.7,1-2.1,1.3c1,0.8,3.3,2.2,7.8,3.4
		c5.2,1.5,11.8,2.3,18.7,2.4C32.5,77.2,32.5,77.1,32.6,77.1z"/>
	<path class="st0" d="M30,62.6c-0.7,0-1.5-0.1-2.2-0.1v7.2c0.7,0,1.5,0.1,2.2,0.1C30,67.5,30,64.5,30,62.6z"/>
	<path class="st0" d="M10.8,59.7c-2.7-0.8-5-1.8-6.8-2.9c0,0,0.1,0,0.1,0.1v5.9c0.1,0.4,1.6,2.2,6.7,4V59.7z"/>
	<path class="st0" d="M22.4,62.1C22.5,62.1,22.5,62.1,22.4,62.1c-1.1-0.1-2.2-0.3-3.3-0.5c0,0,0.1,0,0.1,0v7.2
		c1.1,0.2,2.1,0.3,3.2,0.5V62.1z"/>
	<path class="st0" d="M13.7,54.8c5.2,1.5,11.8,2.3,18.7,2.4c0.1-0.1,0.2-0.1,0.3-0.2c0.1-0.1,0.1-0.1,0.2-0.2
		c0.1-0.1,0.3-0.2,0.4-0.3c0.1-0.1,0.2-0.1,0.3-0.2c0.1-0.1,0.3-0.2,0.4-0.3c0.1-0.1,0.2-0.1,0.3-0.2c0.2-0.1,0.3-0.2,0.5-0.3
		c0.1-0.1,0.2-0.1,0.3-0.2c0.2-0.1,0.3-0.2,0.5-0.3c0.1-0.1,0.2-0.1,0.3-0.2c0.2-0.1,0.4-0.2,0.6-0.3c0.1,0,0.2-0.1,0.3-0.1
		c0.3-0.1,0.6-0.3,0.9-0.4c0,0,0,0,0,0c0.2-0.1,0.3-0.1,0.5-0.2c-1.4,0.1-2.8,0.1-4.3,0.1c-10.4,0-19.7-1.6-26-4
		c-1,0.5-1.7,1-2.1,1.3C6.9,52.2,9.3,53.6,13.7,54.8z"/>
	<path class="st0" d="M60.1,50.1c0,0-0.1,0-0.1-0.1c-0.1,0-0.1,0.1-0.2,0.1C59.9,50.1,60,50.1,60.1,50.1z"/>
	<path class="st0" d="M31.3,42.7c-1.2,0-2.4-0.1-3.5-0.2v7.2c1.2,0.1,2.3,0.1,3.5,0.2V42.7z"/>
	<path class="st0" d="M4.1,42.7c0.1,0.4,1.6,2.2,6.7,4v-7c-2.7-0.8-5-1.8-6.8-2.9c0,0,0.1,0,0.1,0.1V42.7z"/>
	<path class="st0" d="M56,47.1c6.2-1.9,7.9-3.9,8-4.4v-5.9c0,0,0.1,0,0.1-0.1c-5.7,3.6-17,6-30,6c0,0,0,0,0,0c0,0,0,0,0,0v7.2l0,0
		C42.3,49.9,50,48.9,56,47.1z"/>
	<path class="st0" d="M22.4,42C22.5,42,22.5,42,22.4,42c-1.1-0.1-2.2-0.3-3.3-0.5c0,0,0.1,0,0.1,0v7.2c1.1,0.2,2.1,0.3,3.2,0.5V42z"
		/>
	<path class="st0" d="M34.1,37.2c7.5,0,14.7-0.9,20.3-2.4c4.5-1.2,6.8-2.6,7.8-3.4c-1-0.8-3.3-2.2-7.8-3.4
		c-5.6-1.6-12.9-2.4-20.3-2.4c-7.5,0-14.7,0.9-20.3,2.4c-4.5,1.2-6.8,2.6-7.8,3.4c1,0.8,3.3,2.2,7.8,3.4
		C19.4,36.4,26.6,37.2,34.1,37.2z"/>
	<path class="st0" d="M57.9,119.8c1.2,0.1,2.3,0.1,3.5,0.2v-7.2c-1.2,0-2.4-0.1-3.5-0.2V119.8z"/>
	<path class="st0" d="M34.1,106.8v5.9c0.1,0.4,1.6,2.2,6.7,4v-7C38.1,108.9,35.8,107.9,34.1,106.8C34.1,106.8,34.1,106.8,34.1,106.8
		z"/>
	<path class="st0" d="M64,112.8C64.1,112.8,64.1,112.8,64,112.8l0,7.2h0c8.2,0,16-1,21.9-2.8c6.2-1.9,7.9-3.9,8-4.4v-5.9
		c0,0,0.1,0,0.1-0.1C88.3,110.3,77.1,112.8,64,112.8C64.1,112.8,64.1,112.8,64,112.8z"/>
	<path class="st0" d="M49.2,111.6v7.2c1.1,0.2,2.1,0.3,3.2,0.5v-7.2c0,0,0.1,0,0.1,0C51.4,112,50.2,111.8,49.2,111.6
		C49.1,111.6,49.2,111.6,49.2,111.6z"/>
	<path class="st0" d="M38.1,100.1c-1,0.5-1.7,1-2.1,1.3c1,0.8,3.3,2.2,7.8,3.4c5.6,1.6,12.9,2.4,20.3,2.4s14.7-0.9,20.3-2.4
		c4.5-1.2,6.8-2.6,7.8-3.4c-0.4-0.4-1.1-0.8-2.1-1.3c-6.2,2.5-15.6,4-26,4C53.7,104.1,44.4,102.5,38.1,100.1z"/>
	<path class="st0" d="M57.9,99.8c1.2,0.1,2.3,0.1,3.5,0.2v-7.2c-1.2,0-2.4-0.1-3.5-0.2V99.8z"/>
	<path class="st0" d="M40.8,89.7c-2.7-0.8-5-1.8-6.8-2.9c0,0,0.1,0,0.1,0.1v5.9c0.1,0.4,1.6,2.2,6.7,4V89.7z"/>
	<path class="st0" d="M94,92.7v-5.9c0,0,0.1,0,0.1-0.1c-5.7,3.6-17,6-30,6c0,0,0,0,0,0c0,0,0,0,0,0v7.2h0c8.2,0,16-1,21.9-2.8
		C92.1,95.3,93.9,93.2,94,92.7z"/>
	<path class="st0" d="M52.5,92.1C52.5,92.1,52.5,92.1,52.5,92.1c-1.1-0.1-2.2-0.3-3.3-0.5c0,0,0.1,0,0.1,0v7.2
		c1.1,0.2,2.1,0.3,3.2,0.5V92.1z"/>
	<path class="st0" d="M92.2,81.4c-0.4-0.4-1.1-0.8-2.1-1.3c-6.2,2.5-15.6,4-26,4c-10.4,0-19.7-1.6-26-4c-1,0.5-1.7,1-2.1,1.3
		c1,0.8,3.3,2.2,7.8,3.4c5.6,1.6,12.9,2.4,20.3,2.4s14.7-0.9,20.3-2.4C88.9,83.6,91.2,82.2,92.2,81.4z"/>
	<path class="st0" d="M89,53.6C88.9,53.6,88.9,53.6,89,53.6C88.9,53.6,88.9,53.6,89,53.6z"/>
	<path class="st0" d="M61.4,72.7c-1.2,0-2.4-0.1-3.5-0.2v7.2c1.2,0.1,2.3,0.1,3.5,0.2V72.7z"/>
	<path class="st0" d="M40.8,76.7v-7c-2.7-0.8-5-1.8-6.8-2.9c0,0,0.1,0,0.1,0.1v5.9C34.3,73.2,35.8,74.9,40.8,76.7z"/>
	<path class="st0" d="M94,66.8C94,66.8,94.1,66.8,94,66.8c-5.7,3.5-16.9,5.9-29.9,5.9c0,0,0,0,0,0c0,0,0,0,0,0V80h0
		c8.2,0,16-1,21.9-2.8c6.2-1.9,7.9-3.9,8-4.4V66.8z"/>
	<path class="st0" d="M52.5,79.3v-7.2c0,0,0.1,0,0.1,0c-1.2-0.1-2.3-0.3-3.4-0.5c0,0,0.1,0,0.1,0v7.2C50.3,79,51.3,79.1,52.5,79.3z"
		/>
	<path class="st0" d="M64.1,55.5c-7.5,0-14.7,0.9-20.3,2.4c-4.5,1.2-6.8,2.6-7.8,3.4c1,0.8,3.3,2.2,7.8,3.4
		c5.6,1.6,12.9,2.4,20.3,2.4s14.7-0.9,20.3-2.4c4.5-1.2,6.8-2.6,7.8-3.4c-1-0.8-3.3-2.2-7.8-3.4C78.8,56.4,71.6,55.5,64.1,55.5z"/>
</g>
</svg>
