<?xml version="1.0" encoding="utf-8"?>
<!-- Generator: Adobe Illustrator 24.0.3, SVG Export Plug-In . SVG Version: 6.00 Build 0)  -->
<svg version="1.1" id="Layer_1" xmlns="http://www.w3.org/2000/svg" xmlns:xlink="http://www.w3.org/1999/xlink" x="0px" y="0px"
	 viewBox="0 0 101.1 125.7" style="enable-background:new 0 0 101.1 125.7;" xml:space="preserve">
<style type="text/css">
	.st0{fill:#FFFFFF;}
	.st1{fill:#FFB600;}
</style>
<g>
	<path class="st0" d="M20.5,97.4c-0.5,0-1,0-1.5-0.1v4.9c0.5,0,1,0,1.5,0.1C20.5,100.7,20.5,98.7,20.5,97.4z"/>
	<path class="st0" d="M2.8,93.4v4c0.1,0.3,1.1,1.5,4.6,2.7v-4.8C5.5,94.8,4,94.1,2.8,93.4C2.8,93.4,2.8,93.4,2.8,93.4z"/>
	<path class="st0" d="M13.1,96.7v4.9c0.7,0.1,1.5,0.2,2.2,0.3V97c0,0,0,0,0.1,0C14.6,96.9,13.8,96.8,13.1,96.7
		C13.1,96.7,13.1,96.7,13.1,96.7z"/>
	<path class="st0" d="M22.3,93.6c-0.8-0.7-1.4-1.4-1.6-2.1c-6-0.2-11.4-1.2-15.1-2.7c-0.7,0.3-1.2,0.7-1.5,0.9
		c0.7,0.6,2.3,1.5,5.3,2.3c3.6,1,8.1,1.6,12.8,1.6C22.2,93.7,22.2,93.6,22.3,93.6z"/>
	<path class="st0" d="M20.5,83.7c-0.5,0-1,0-1.5-0.1v4.9c0.5,0,1,0,1.5,0.1C20.5,87.1,20.5,85,20.5,83.7z"/>
	<path class="st0" d="M7.4,81.7c-1.8-0.6-3.4-1.3-4.6-2c0,0,0,0,0.1,0v4c0.1,0.3,1.1,1.5,4.6,2.7V81.7z"/>
	<path class="st0" d="M15.3,83.3C15.3,83.4,15.3,83.4,15.3,83.3c-0.7-0.1-1.5-0.2-2.3-0.3c0,0,0,0,0.1,0v4.9
		c0.7,0.1,1.5,0.2,2.2,0.3V83.3z"/>
	<path class="st0" d="M9.4,78.4c3.6,1,8.1,1.6,12.8,1.6c0,0,0.1-0.1,0.1-0.1c-0.8-0.7-1.4-1.4-1.6-2.1c-6-0.2-11.4-1.2-15.1-2.7
		c-0.7,0.3-1.2,0.7-1.5,0.9C4.7,76.6,6.3,77.6,9.4,78.4z"/>
	<path class="st0" d="M20.5,70.1c-0.5,0-1,0-1.5-0.1V75c0.5,0,1,0,1.5,0.1C20.5,73.4,20.5,71.4,20.5,70.1z"/>
	<path class="st0" d="M7.4,68.1c-1.8-0.6-3.4-1.3-4.6-2c0,0,0,0,0.1,0v4c0.1,0.3,1.1,1.5,4.6,2.7V68.1z"/>
	<path class="st0" d="M15.3,69.7C15.3,69.7,15.3,69.7,15.3,69.7c-0.7-0.1-1.5-0.2-2.3-0.3c0,0,0,0,0.1,0v4.9
		c0.7,0.1,1.5,0.2,2.2,0.3V69.7z"/>
	<path class="st0" d="M9.4,64.7c3.6,1,8.1,1.6,12.8,1.6c0,0,0.1-0.1,0.1-0.1c-0.8-0.7-1.4-1.4-1.6-2.1C14.6,64,9.3,63,5.5,61.5
		c-0.7,0.3-1.2,0.7-1.5,0.9C4.7,63,6.3,63.9,9.4,64.7z"/>
	<path class="st0" d="M20.5,56.4c-0.5,0-1,0-1.5-0.1v4.9c0.5,0,1,0,1.5,0.1C20.5,59.8,20.5,57.7,20.5,56.4z"/>
	<path class="st0" d="M7.4,54.4c-1.8-0.6-3.4-1.3-4.6-2c0,0,0,0,0.1,0v4c0.1,0.3,1.1,1.5,4.6,2.7V54.4z"/>
	<path class="st0" d="M15.3,56C15.3,56,15.3,56,15.3,56c-0.7-0.1-1.5-0.2-2.3-0.3c0,0,0,0,0.1,0v4.9c0.7,0.1,1.5,0.2,2.2,0.3V56z"/>
	<path class="st0" d="M9.4,51.1c3.6,1,8.1,1.6,12.8,1.6c0.1,0,0.1-0.1,0.2-0.1c0,0,0.1-0.1,0.1-0.1c0.1-0.1,0.2-0.1,0.3-0.2
		c0.1,0,0.1-0.1,0.2-0.1c0.1-0.1,0.2-0.1,0.3-0.2c0.1,0,0.1-0.1,0.2-0.1c0.1-0.1,0.2-0.1,0.3-0.2c0.1,0,0.1-0.1,0.2-0.1
		c0.1-0.1,0.2-0.1,0.4-0.2c0.1,0,0.1-0.1,0.2-0.1c0.1-0.1,0.3-0.1,0.4-0.2c0.1,0,0.1-0.1,0.2-0.1c0.2-0.1,0.4-0.2,0.6-0.3
		c0,0,0,0,0,0c0.1,0,0.2-0.1,0.3-0.1c-1,0-1.9,0.1-2.9,0.1c-7.1,0-13.5-1.1-17.7-2.7c-0.7,0.3-1.2,0.7-1.5,0.9
		C4.7,49.3,6.3,50.2,9.4,51.1z"/>
	<path class="st0" d="M41.1,47.9C41,47.9,41,47.8,41.1,47.9c-0.1,0-0.2,0-0.2,0C40.9,47.9,41,47.9,41.1,47.9z"/>
	<path class="st0" d="M21.4,42.8c-0.8,0-1.6-0.1-2.4-0.1v4.9c0.8,0.1,1.6,0.1,2.4,0.1V42.8z"/>
	<path class="st0" d="M7.4,40.7c-1.8-0.6-3.4-1.3-4.6-2c0,0,0,0,0.1,0v4c0.1,0.3,1.1,1.5,4.6,2.7V40.7z"/>
	<path class="st0" d="M38.2,45.8c4.2-1.3,5.4-2.7,5.5-3v-4c0,0,0,0,0.1,0c-3.9,2.4-11.6,4.1-20.5,4.1c0,0,0,0,0,0c0,0,0,0,0,0v4.9h0
		C28.8,47.8,34.2,47.1,38.2,45.8z"/>
	<path class="st0" d="M15.3,42.4C15.3,42.4,15.3,42.4,15.3,42.4c-0.7-0.1-1.5-0.2-2.3-0.3c0,0,0,0,0.1,0v4.9
		c0.7,0.1,1.5,0.2,2.2,0.3V42.4z"/>
	<path class="st0" d="M9.4,37.4c3.8,1.1,8.8,1.7,13.9,1.7c5.1,0,10-0.6,13.9-1.7c3-0.8,4.6-1.8,5.3-2.3c-0.3-0.2-0.8-0.6-1.5-0.9
		c-4.3,1.7-10.6,2.7-17.7,2.7c-7.1,0-13.5-1.1-17.7-2.7c-0.7,0.3-1.2,0.7-1.5,0.9C4.7,35.6,6.3,36.6,9.4,37.4z"/>
	<path class="st0" d="M21.4,29.1c-0.8,0-1.6-0.1-2.4-0.1V34c0.8,0.1,1.6,0.1,2.4,0.1V29.1z"/>
	<path class="st0" d="M7.4,27.1c-1.8-0.6-3.4-1.3-4.6-2c0,0,0,0,0.1,0v4c0.1,0.3,1.1,1.5,4.6,2.7V27.1z"/>
	<path class="st0" d="M43.7,29.1v-4c0,0,0,0,0.1,0c-3.9,2.4-11.6,4.1-20.5,4.1c0,0,0,0,0,0c0,0,0,0,0,0v4.9h0c5.6,0,10.9-0.7,15-1.9
		C42.4,30.9,43.6,29.5,43.7,29.1z"/>
	<path class="st0" d="M15.3,28.7C15.3,28.7,15.3,28.7,15.3,28.7c-0.7-0.1-1.5-0.2-2.3-0.3c0,0,0,0,0.1,0v4.9
		c0.7,0.1,1.5,0.2,2.2,0.3V28.7z"/>
	<path class="st0" d="M9.4,23.8c3.8,1.1,8.8,1.7,13.9,1.7c5.1,0,10-0.6,13.9-1.7c3-0.8,4.6-1.8,5.3-2.3c-0.3-0.2-0.8-0.6-1.5-0.9
		c-4.3,1.7-10.6,2.7-17.7,2.7c-7.1,0-13.5-1.1-17.7-2.7c-0.7,0.3-1.2,0.7-1.5,0.9C4.7,22,6.3,22.9,9.4,23.8z"/>
	<path class="st0" d="M39.3,2.1c0.3,0.1,0.7,0.2,1,0.3C40,2.4,39.6,2.3,39.3,2.1z"/>
	<path class="st0" d="M21.4,15.5c-0.8,0-1.6-0.1-2.4-0.1v4.9c0.8,0.1,1.6,0.1,2.4,0.1V15.5z"/>
	<path class="st0" d="M2.8,15.5c0.1,0.3,1.1,1.5,4.6,2.7v-4.8c-1.8-0.6-3.4-1.3-4.6-2c0,0,0,0,0.1,0V15.5z"/>
	<path class="st0" d="M23.2,15.5C23.2,15.5,23.2,15.5,23.2,15.5C23.2,15.5,23.2,15.5,23.2,15.5v4.9h0c5.6,0,10.9-0.7,15-1.9
		c4.2-1.3,5.4-2.7,5.5-3v-4c0,0,0,0,0.1,0C39.8,13.8,32.1,15.5,23.2,15.5z"/>
	<path class="st0" d="M15.3,15C15.3,15,15.3,15,15.3,15c-0.7-0.1-1.5-0.2-2.3-0.3c0,0,0,0,0.1,0v4.9c0.7,0.1,1.5,0.2,2.2,0.3V15z"/>
	<path class="st0" d="M23.2,11.7c5.1,0,10-0.6,13.9-1.7c3-0.8,4.6-1.8,5.3-2.3c-0.7-0.6-2.3-1.5-5.3-2.3c-3.8-1.1-8.8-1.7-13.9-1.7
		c-5.1,0-10,0.6-13.9,1.7c-3,0.8-4.6,1.8-5.3,2.3c0.7,0.6,2.3,1.5,5.3,2.3C13.2,11.2,18.1,11.7,23.2,11.7z"/>
	<path class="st0" d="M73.7,102.3c0.8,0.1,1.6,0.1,2.4,0.1v-4.9c-0.8,0-1.6-0.1-2.4-0.1V102.3z"/>
	<path class="st0" d="M77.9,97.5C77.9,97.5,77.9,97.5,77.9,97.5l0,4.9l0,0c5.6,0,10.9-0.7,15-1.9c4.2-1.3,5.4-2.7,5.5-3v-4
		c0,0,0,0,0.1,0C94.5,95.8,86.8,97.5,77.9,97.5C77.9,97.5,77.9,97.5,77.9,97.5z"/>
	<path class="st0" d="M67.8,96.7v4.9c0.7,0.1,1.5,0.2,2.2,0.3V97c0,0,0,0,0.1,0C69.2,96.9,68.4,96.8,67.8,96.7
		C67.7,96.7,67.7,96.7,67.8,96.7z"/>
	<path class="st0" d="M67,90.7c0,0.7-0.3,1.3-0.7,1.9c3.4,0.7,7.5,1.1,11.7,1.1c5.1,0,10-0.6,13.9-1.7c3-0.8,4.6-1.8,5.3-2.3
		c-0.3-0.2-0.8-0.6-1.5-0.9c-4.3,1.7-10.6,2.7-17.7,2.7C74,91.6,70.2,91.2,67,90.7z"/>
	<path class="st0" d="M76.1,83.8c-0.8,0-1.6-0.1-2.4-0.1v4.9c0.8,0.1,1.6,0.1,2.4,0.1V83.8z"/>
	<path class="st0" d="M77.9,83.8C77.9,83.8,77.9,83.8,77.9,83.8C77.9,83.8,77.9,83.8,77.9,83.8v4.9l0,0c5.6,0,10.9-0.7,15-1.9
		c4.2-1.3,5.4-2.7,5.5-3v-4c0,0,0,0,0.1,0C94.5,82.2,86.8,83.8,77.9,83.8z"/>
	<path class="st0" d="M70,83.3C70,83.4,70,83.4,70,83.3c-0.7-0.1-1.5-0.2-2.3-0.3c0,0,0,0,0.1,0v4.9c0.7,0.1,1.5,0.2,2.2,0.3V83.3z"
		/>
	<path class="st0" d="M67,77c0,0.7-0.3,1.3-0.7,1.9c3.4,0.7,7.5,1.1,11.7,1.1c5.1,0,10-0.6,13.9-1.7c3-0.8,4.6-1.8,5.3-2.3
		c-0.3-0.2-0.8-0.6-1.5-0.9c-4.3,1.7-10.6,2.7-17.7,2.7C74,77.9,70.2,77.6,67,77z"/>
	<path class="st0" d="M76.1,70.1c-0.8,0-1.6-0.1-2.4-0.1V75c0.8,0.1,1.6,0.1,2.4,0.1V70.1z"/>
	<path class="st0" d="M77.9,70.1C77.9,70.1,77.9,70.1,77.9,70.1C77.9,70.1,77.9,70.1,77.9,70.1v4.9l0,0c5.6,0,10.9-0.7,15-1.9
		c4.2-1.3,5.4-2.7,5.5-3v-4c0,0,0,0,0.1,0C94.5,68.5,86.8,70.1,77.9,70.1z"/>
	<path class="st0" d="M70,69.7C70,69.7,70,69.7,70,69.7c-0.7-0.1-1.5-0.2-2.3-0.3c0,0,0,0,0.1,0v4.9c0.7,0.1,1.5,0.2,2.2,0.3V69.7z"
		/>
	<path class="st0" d="M67,63.3c0,0.7-0.3,1.3-0.7,1.9c3.4,0.7,7.5,1.1,11.7,1.1c5.1,0,10-0.6,13.9-1.7c3-0.8,4.6-1.8,5.3-2.3
		c-0.3-0.2-0.8-0.6-1.5-0.9c-4.3,1.7-10.6,2.7-17.7,2.7C74,64.2,70.2,63.9,67,63.3z"/>
	<path class="st0" d="M76.1,56.5c-0.8,0-1.6-0.1-2.4-0.1v4.9c0.8,0.1,1.6,0.1,2.4,0.1V56.5z"/>
	<path class="st0" d="M77.9,56.5C77.9,56.5,77.9,56.5,77.9,56.5C77.9,56.5,77.9,56.5,77.9,56.5v4.9l0,0c5.6,0,10.9-0.7,15-1.9
		c4.2-1.3,5.4-2.7,5.5-3v-4c0,0,0,0,0.1,0C94.5,54.8,86.8,56.5,77.9,56.5z"/>
	<path class="st0" d="M70,56C70,56,70,56,70,56c-0.7-0.1-1.5-0.2-2.3-0.3c0,0,0,0,0.1,0v4.9c0.7,0.1,1.5,0.2,2.2,0.3V56z"/>
	<path class="st0" d="M60.2,47.8c-0.7,0.3-1.2,0.7-1.5,0.9c0.7,0.6,2.3,1.5,5.3,2.3c3.8,1.1,8.8,1.7,13.9,1.7s10-0.6,13.9-1.7
		c3-0.8,4.6-1.8,5.3-2.3c-0.3-0.2-0.8-0.6-1.5-0.9c-4.3,1.7-10.6,2.7-17.7,2.7S64.4,49.5,60.2,47.8z"/>
	<path class="st0" d="M93.9,29.5c0.4,0.1,0.7,0.2,1,0.3C94.6,29.7,94.3,29.6,93.9,29.5z"/>
	<path class="st0" d="M76.1,42.8c-0.8,0-1.6-0.1-2.4-0.1v4.9c0.8,0.1,1.6,0.1,2.4,0.1V42.8z"/>
	<path class="st0" d="M57.5,42.8c0.1,0.3,1.1,1.5,4.6,2.7v-4.8c-1.8-0.6-3.4-1.3-4.6-2c0,0,0,0,0.1,0V42.8z"/>
	<path class="st0" d="M77.9,42.8C77.9,42.8,77.9,42.8,77.9,42.8C77.9,42.8,77.9,42.8,77.9,42.8v4.9l0,0c5.6,0,10.9-0.7,15-1.9
		c4.2-1.3,5.4-2.7,5.5-3v-4c0,0,0,0,0.1,0C94.5,41.2,86.8,42.8,77.9,42.8z"/>
	<path class="st0" d="M70,42.4C70,42.4,70,42.4,70,42.4c-0.7-0.1-1.5-0.2-2.3-0.3c0,0,0,0,0.1,0v4.9c0.7,0.1,1.5,0.2,2.2,0.3V42.4z"
		/>
	<path class="st0" d="M77.9,39.1c5.1,0,10-0.6,13.9-1.7c3-0.8,4.6-1.8,5.3-2.3c-0.7-0.6-2.3-1.5-5.3-2.3c-3.8-1.1-8.8-1.7-13.9-1.7
		s-10,0.6-13.9,1.7c-3,0.8-4.6,1.8-5.3,2.3c0.7,0.6,2.3,1.5,5.3,2.3C67.9,38.5,72.8,39.1,77.9,39.1z"/>
	<path class="st1" d="M101.1,42.8c0-1.4,0-6.3,0-7.7c0-0.1,0-0.2,0-0.4c0,0,0-0.1,0-0.1c0-0.1,0-0.2-0.1-0.3c0,0,0-0.1,0-0.1
		c0-0.1-0.1-0.2-0.1-0.2c0,0,0-0.1-0.1-0.1c0-0.1-0.1-0.2-0.2-0.3c0,0,0,0,0-0.1c-0.1-0.1-0.2-0.2-0.2-0.3c0,0-0.1-0.1-0.1-0.1
		c-0.1-0.1-0.1-0.2-0.2-0.2c0,0-0.1-0.1-0.1-0.1c-0.1-0.1-0.1-0.1-0.2-0.2c0,0-0.1-0.1-0.1-0.1c-0.1-0.1-0.2-0.2-0.3-0.2
		c0,0-0.1-0.1-0.1-0.1c-0.1-0.1-0.3-0.2-0.4-0.3c0,0-0.1,0-0.1-0.1c-0.1-0.1-0.3-0.2-0.4-0.3c-0.1,0-0.1-0.1-0.2-0.1
		c-0.1-0.1-0.2-0.1-0.3-0.2c-0.1,0-0.1-0.1-0.2-0.1c-0.1-0.1-0.3-0.1-0.4-0.2c-0.1,0-0.1-0.1-0.2-0.1c-0.2-0.1-0.4-0.2-0.6-0.3
		c-0.1-0.1-0.3-0.1-0.4-0.2c-0.3-0.1-0.7-0.3-1-0.4c0,0-0.1,0-0.2-0.1c-0.3-0.1-0.7-0.2-1-0.3c-0.1,0-0.3-0.1-0.4-0.1c0,0,0,0-0.1,0
		c-0.2-0.1-0.5-0.1-0.8-0.2c-0.1,0-0.2-0.1-0.3-0.1c-0.2,0-0.4-0.1-0.5-0.1c-0.1,0-0.2-0.1-0.4-0.1c-0.2,0-0.3-0.1-0.5-0.1
		c-0.1,0-0.3-0.1-0.4-0.1c-0.2,0-0.3-0.1-0.5-0.1c-0.1,0-0.3-0.1-0.4-0.1c-0.2,0-0.3-0.1-0.5-0.1c-0.1,0-0.3-0.1-0.4-0.1
		c-0.2,0-0.4-0.1-0.5-0.1c-0.1,0-0.3,0-0.5-0.1c-0.2,0-0.4-0.1-0.5-0.1c-0.2,0-0.3,0-0.5-0.1c-0.2,0-0.4,0-0.6-0.1
		c-0.2,0-0.3,0-0.5-0.1c-0.2,0-0.4,0-0.6-0.1c-0.2,0-0.3,0-0.5-0.1c-0.2,0-0.4,0-0.6-0.1c-0.2,0-0.3,0-0.5,0c-0.2,0-0.4,0-0.6,0
		c-0.2,0-0.3,0-0.5,0c-0.2,0-0.4,0-0.6,0c-0.2,0-0.3,0-0.5,0c-0.2,0-0.4,0-0.7,0c-0.2,0-0.3,0-0.5,0c-0.3,0-0.5,0-0.8,0
		c-0.1,0-0.3,0-0.4,0c-0.4,0-0.8,0-1.2,0c-0.4,0-0.9,0-1.3,0c-0.1,0-0.3,0-0.4,0c-0.3,0-0.6,0-0.8,0c-0.2,0-0.3,0-0.5,0
		c-0.3,0-0.5,0-0.8,0c-0.2,0-0.3,0-0.5,0c-0.2,0-0.5,0-0.7,0c-0.2,0-0.3,0-0.5,0c-0.2,0-0.5,0-0.7,0.1c-0.2,0-0.3,0-0.5,0
		c-0.2,0-0.5,0.1-0.7,0.1c-0.1,0-0.3,0-0.4,0.1c-0.3,0-0.5,0.1-0.8,0.1c-0.1,0-0.2,0-0.4,0c-0.7,0.1-1.5,0.2-2.2,0.3
		c-0.1,0-0.2,0-0.3,0.1c-0.2,0-0.5,0.1-0.7,0.1c-0.1,0-0.3,0.1-0.4,0.1c-0.2,0-0.4,0.1-0.6,0.1c-0.1,0-0.3,0.1-0.4,0.1
		c-0.2,0-0.4,0.1-0.6,0.1c-0.1,0-0.3,0.1-0.4,0.1c-0.2,0-0.4,0.1-0.6,0.2c-0.1,0-0.2,0.1-0.4,0.1c-0.2,0.1-0.4,0.1-0.5,0.2
		c-0.1,0-0.2,0.1-0.3,0.1c-0.2,0.1-0.4,0.1-0.6,0.2c-0.1,0-0.2,0.1-0.3,0.1c-0.3,0.1-0.5,0.2-0.8,0.3c0,0,0,0,0,0
		c-0.2,0.1-0.4,0.2-0.6,0.3c-0.1,0-0.1,0.1-0.2,0.1c-0.1,0.1-0.3,0.1-0.4,0.2c-0.1,0-0.2,0.1-0.2,0.1c-0.1,0.1-0.2,0.1-0.4,0.2
		c-0.1,0-0.1,0.1-0.2,0.1c-0.1,0.1-0.2,0.1-0.3,0.2c-0.1,0-0.1,0.1-0.2,0.1c-0.1,0.1-0.2,0.1-0.3,0.2c-0.1,0-0.1,0.1-0.2,0.1
		c-0.1,0.1-0.2,0.1-0.3,0.2c0,0-0.1,0.1-0.1,0.1c-0.3,0.2-0.5,0.4-0.7,0.7c0,0-0.1,0.1-0.1,0.1c-0.1,0.1-0.1,0.2-0.2,0.2
		c0,0-0.1,0.1-0.1,0.1c-0.1,0.1-0.1,0.1-0.2,0.2c0,0-0.1,0.1-0.1,0.1c0,0.1-0.1,0.1-0.1,0.2c0,0,0,0.1-0.1,0.1
		c0,0.1-0.1,0.2-0.1,0.2c0,0,0,0.1,0,0.1c0,0.1,0,0.2-0.1,0.2c0,0,0,0.1,0,0.1c0,0.1,0,0.2,0,0.4c0,1.4,0,6.3,0,7.7c0,1,0.6,2,1.8,3
		c-0.3,0.2-0.5,0.4-0.7,0.6c0,0-0.1,0.1-0.1,0.1c-0.1,0.1-0.1,0.2-0.2,0.2c0,0-0.1,0.1-0.1,0.1c-0.1,0.1-0.1,0.1-0.2,0.2
		c0,0-0.1,0.1-0.1,0.1c0,0.1-0.1,0.1-0.1,0.2c0,0,0,0.1-0.1,0.1c0,0.1-0.1,0.2-0.1,0.2c0,0,0,0.1,0,0.1c0,0.1,0,0.2-0.1,0.2
		c0,0,0,0.1,0,0.1c0,0.1,0,0.2,0,0.4c0,0-0.1,0-0.1,0c-0.2,0-0.4-0.1-0.5-0.1c-0.1,0-0.3,0-0.5-0.1c-0.2,0-0.4-0.1-0.5-0.1
		c-0.2,0-0.3,0-0.5-0.1c-0.2,0-0.4,0-0.6-0.1c-0.2,0-0.3,0-0.5-0.1c-0.2,0-0.4,0-0.6-0.1c-0.2,0-0.3,0-0.5-0.1c-0.2,0-0.4,0-0.6-0.1
		c-0.2,0-0.3,0-0.5,0c-0.2,0-0.4,0-0.6,0c-0.2,0-0.3,0-0.5,0c-0.2,0-0.4,0-0.6,0c-0.2,0-0.3,0-0.5,0c-0.2,0-0.4,0-0.7,0
		c-0.1,0-0.1,0-0.2,0c0-0.1-0.1-0.2-0.1-0.2c0,0,0-0.1-0.1-0.1c0-0.1-0.1-0.2-0.2-0.3c0,0,0,0,0-0.1c-0.1-0.1-0.2-0.2-0.2-0.3
		c0,0-0.1-0.1-0.1-0.1c-0.1-0.1-0.1-0.2-0.2-0.2c0,0-0.1-0.1-0.1-0.1c-0.1-0.1-0.1-0.1-0.2-0.2c0,0-0.1-0.1-0.1-0.1
		c-0.1-0.1-0.2-0.2-0.3-0.2c0,0,0,0,0,0c1.1-0.9,1.8-1.9,1.8-3c0-1.4,0-6.3,0-7.7c0-0.1,0-0.2,0-0.4c0,0,0-0.1,0-0.1
		c0-0.1,0-0.2-0.1-0.3c0,0,0-0.1,0-0.1c0-0.1-0.1-0.2-0.1-0.2c0,0,0-0.1-0.1-0.1c0-0.1-0.1-0.2-0.2-0.3c0,0,0,0,0-0.1
		c-0.1-0.1-0.2-0.2-0.2-0.3c0,0-0.1-0.1-0.1-0.1c-0.1-0.1-0.1-0.2-0.2-0.2c0,0-0.1-0.1-0.1-0.1c-0.1-0.1-0.1-0.1-0.2-0.2
		c0,0-0.1-0.1-0.1-0.1c-0.1-0.1-0.2-0.2-0.3-0.2c0,0,0,0,0,0c1.1-0.9,1.8-1.9,1.8-3c0-1.4,0-6.3,0-7.7c0-0.1,0-0.2,0-0.4
		c0,0,0-0.1,0-0.1c0-0.1,0-0.2-0.1-0.3c0,0,0-0.1,0-0.1c0-0.1-0.1-0.2-0.1-0.2c0,0,0-0.1-0.1-0.1c0-0.1-0.1-0.2-0.2-0.3
		c0,0,0,0,0-0.1c-0.1-0.1-0.2-0.2-0.2-0.3c0,0-0.1-0.1-0.1-0.1c-0.1-0.1-0.1-0.2-0.2-0.2c0,0-0.1-0.1-0.1-0.1
		c-0.1-0.1-0.1-0.1-0.2-0.2c0,0-0.1-0.1-0.1-0.1c-0.1-0.1-0.2-0.2-0.3-0.2c0,0,0,0,0,0c1.1-0.9,1.8-1.9,1.8-3c0-1.4,0-6.3,0-7.7
		c0-0.1,0-0.2,0-0.4c0,0,0-0.1,0-0.1c0-0.1,0-0.2-0.1-0.3c0,0,0-0.1,0-0.1c0-0.1-0.1-0.2-0.1-0.2c0,0,0-0.1-0.1-0.1
		c0-0.1-0.1-0.2-0.2-0.3c0,0,0,0,0-0.1c-0.1-0.1-0.2-0.2-0.2-0.3c0,0-0.1-0.1-0.1-0.1c-0.1-0.1-0.1-0.2-0.2-0.2c0,0-0.1-0.1-0.1-0.1
		c-0.1-0.1-0.1-0.1-0.2-0.2c0,0-0.1-0.1-0.1-0.1c-0.1-0.1-0.2-0.2-0.3-0.2c0,0-0.1-0.1-0.1-0.1c-0.1-0.1-0.3-0.2-0.4-0.3
		c0,0-0.1,0-0.1-0.1c-0.1-0.1-0.3-0.2-0.4-0.3c-0.1,0-0.1-0.1-0.2-0.1c-0.1-0.1-0.2-0.1-0.3-0.2c-0.1,0-0.1-0.1-0.2-0.1
		c-0.1-0.1-0.3-0.1-0.4-0.2c-0.1,0-0.1-0.1-0.2-0.1c-0.2-0.1-0.4-0.2-0.6-0.3c-0.1-0.1-0.3-0.1-0.4-0.2c-0.3-0.1-0.7-0.3-1-0.4
		c0,0-0.1,0-0.2-0.1c-0.3-0.1-0.7-0.2-1-0.3c-0.1,0-0.3-0.1-0.4-0.1c0,0,0,0-0.1,0c-0.2-0.1-0.5-0.1-0.8-0.2c-0.1,0-0.2-0.1-0.3-0.1
		c-0.2,0-0.4-0.1-0.5-0.1c-0.1,0-0.2-0.1-0.4-0.1c-0.2,0-0.3-0.1-0.5-0.1c-0.1,0-0.3-0.1-0.4-0.1c-0.2,0-0.3-0.1-0.5-0.1
		c-0.1,0-0.3-0.1-0.4-0.1C34.8,1,34.6,1,34.5,1c-0.1,0-0.3-0.1-0.4-0.1c-0.2,0-0.4-0.1-0.5-0.1c-0.1,0-0.3,0-0.5-0.1
		c-0.2,0-0.4-0.1-0.5-0.1c-0.2,0-0.3,0-0.5-0.1c-0.2,0-0.4,0-0.6-0.1c-0.2,0-0.3,0-0.5-0.1c-0.2,0-0.4,0-0.6-0.1
		c-0.2,0-0.3,0-0.5-0.1c-0.2,0-0.4,0-0.6-0.1c-0.2,0-0.3,0-0.5,0c-0.2,0-0.4,0-0.6,0c-0.2,0-0.3,0-0.5,0c-0.2,0-0.4,0-0.6,0
		c-0.2,0-0.3,0-0.5,0c-0.2,0-0.4,0-0.7,0c-0.2,0-0.3,0-0.5,0c-0.3,0-0.5,0-0.8,0c-0.1,0-0.3,0-0.4,0c-0.4,0-0.8,0-1.2,0
		c-0.4,0-0.9,0-1.3,0c-0.1,0-0.3,0-0.4,0c-0.3,0-0.6,0-0.8,0c-0.2,0-0.3,0-0.5,0c-0.3,0-0.5,0-0.8,0c-0.2,0-0.3,0-0.5,0
		c-0.2,0-0.5,0-0.7,0c-0.2,0-0.3,0-0.5,0c-0.2,0-0.5,0-0.7,0.1c-0.2,0-0.3,0-0.5,0c-0.2,0-0.5,0-0.7,0.1c-0.1,0-0.3,0-0.4,0.1
		c-0.3,0-0.5,0.1-0.8,0.1c-0.1,0-0.2,0-0.4,0c-0.7,0.1-1.5,0.2-2.2,0.3C12,1,11.9,1,11.8,1c-0.2,0-0.5,0.1-0.7,0.1
		c-0.1,0-0.3,0.1-0.4,0.1c-0.2,0-0.4,0.1-0.6,0.1c-0.1,0-0.3,0.1-0.4,0.1c-0.2,0-0.4,0.1-0.6,0.1C9,1.6,8.8,1.7,8.7,1.7
		c-0.2,0-0.4,0.1-0.6,0.2C8,1.9,7.9,1.9,7.8,2C7.6,2,7.4,2.1,7.2,2.1C7.1,2.2,7,2.2,6.9,2.2C6.7,2.3,6.5,2.4,6.4,2.4
		c-0.1,0-0.2,0.1-0.3,0.1C5.8,2.6,5.6,2.7,5.3,2.8c0,0,0,0,0,0C5.1,2.9,4.9,3,4.7,3.1c-0.1,0-0.1,0.1-0.2,0.1C4.3,3.3,4.2,3.3,4,3.4
		C4,3.4,3.9,3.5,3.8,3.5C3.7,3.6,3.6,3.6,3.5,3.7c-0.1,0-0.1,0.1-0.2,0.1C3.1,3.9,3,3.9,2.9,4C2.9,4,2.8,4.1,2.7,4.1
		C2.6,4.2,2.5,4.2,2.4,4.3c-0.1,0-0.1,0.1-0.2,0.1C2.1,4.5,2,4.6,1.9,4.6c0,0-0.1,0.1-0.1,0.1C1.5,5,1.3,5.2,1.1,5.4
		C1,5.5,1,5.5,1,5.5C0.9,5.6,0.8,5.7,0.8,5.8c0,0-0.1,0.1-0.1,0.1C0.6,6,0.6,6.1,0.5,6.1c0,0-0.1,0.1-0.1,0.1c0,0.1-0.1,0.1-0.1,0.2
		c0,0,0,0.1-0.1,0.1c0,0.1-0.1,0.2-0.1,0.2c0,0,0,0.1,0,0.1c0,0.1,0,0.2-0.1,0.2c0,0,0,0.1,0,0.1c0,0.1,0,0.2,0,0.4
		c0,1.4,0,6.3,0,7.7c0,1,0.6,2,1.8,3c-0.3,0.2-0.5,0.4-0.7,0.6c0,0-0.1,0.1-0.1,0.1c-0.1,0.1-0.1,0.2-0.2,0.2c0,0-0.1,0.1-0.1,0.1
		c-0.1,0.1-0.1,0.1-0.2,0.2c0,0-0.1,0.1-0.1,0.1c0,0.1-0.1,0.1-0.1,0.2c0,0,0,0.1-0.1,0.1c0,0.1-0.1,0.2-0.1,0.2c0,0,0,0.1,0,0.1
		c0,0.1,0,0.2-0.1,0.2C0,21,0,21,0,21c0,0.1,0,0.2,0,0.4c0,1.4,0,6.3,0,7.7c0,1,0.6,2,1.8,3c-0.3,0.2-0.5,0.4-0.7,0.6
		c0,0-0.1,0.1-0.1,0.1c-0.1,0.1-0.1,0.2-0.2,0.2c0,0-0.1,0.1-0.1,0.1c-0.1,0.1-0.1,0.1-0.2,0.2c0,0-0.1,0.1-0.1,0.1
		c0,0.1-0.1,0.1-0.1,0.2c0,0,0,0.1-0.1,0.1c0,0.1-0.1,0.2-0.1,0.2c0,0,0,0.1,0,0.1c0,0.1,0,0.2-0.1,0.2c0,0,0,0.1,0,0.1
		c0,0.1,0,0.2,0,0.4c0,1.4,0,6.3,0,7.7c0,1,0.6,2,1.8,3c-0.3,0.2-0.5,0.4-0.7,0.6c0,0-0.1,0.1-0.1,0.1c-0.1,0.1-0.1,0.2-0.2,0.2
		c0,0-0.1,0.1-0.1,0.1C0.6,47,0.6,47,0.5,47.1c0,0-0.1,0.1-0.1,0.1c0,0.1-0.1,0.1-0.1,0.2c0,0,0,0.1-0.1,0.1c0,0.1-0.1,0.2-0.1,0.2
		c0,0,0,0.1,0,0.1c0,0.1,0,0.2-0.1,0.2c0,0,0,0.1,0,0.1c0,0.1,0,0.2,0,0.4c0,1.4,0,6.3,0,7.7c0,1,0.6,2,1.8,3
		c-0.3,0.2-0.5,0.4-0.7,0.6c0,0-0.1,0.1-0.1,0.1c-0.1,0.1-0.1,0.2-0.2,0.2c0,0-0.1,0.1-0.1,0.1c-0.1,0.1-0.1,0.1-0.2,0.2
		c0,0-0.1,0.1-0.1,0.1c0,0.1-0.1,0.1-0.1,0.2c0,0,0,0.1-0.1,0.1c0,0.1-0.1,0.2-0.1,0.2c0,0,0,0.1,0,0.1c0,0.1,0,0.2-0.1,0.2
		c0,0,0,0.1,0,0.1c0,0.1,0,0.2,0,0.4c0,1.4,0,6.3,0,7.7c0,1,0.6,2,1.8,3c-0.3,0.2-0.5,0.4-0.7,0.6c0,0-0.1,0.1-0.1,0.1
		c-0.1,0.1-0.1,0.2-0.2,0.2c0,0-0.1,0.1-0.1,0.1c-0.1,0.1-0.1,0.1-0.2,0.2c0,0-0.1,0.1-0.1,0.1c0,0.1-0.1,0.1-0.1,0.2
		c0,0,0,0.1-0.1,0.1c0,0.1-0.1,0.2-0.1,0.2c0,0,0,0.1,0,0.1c0,0.1,0,0.2-0.1,0.2c0,0,0,0.1,0,0.1c0,0.1,0,0.2,0,0.4
		c0,1.4,0,6.3,0,7.7c0,1,0.6,2,1.8,3c-0.3,0.2-0.5,0.4-0.7,0.6c0,0-0.1,0.1-0.1,0.1c-0.1,0.1-0.1,0.2-0.2,0.2c0,0-0.1,0.1-0.1,0.1
		C0.6,88,0.6,88,0.5,88.1c0,0-0.1,0.1-0.1,0.1c0,0.1-0.1,0.1-0.1,0.2c0,0,0,0.1-0.1,0.1c0,0.1-0.1,0.2-0.1,0.2c0,0,0,0.1,0,0.1
		c0,0.1,0,0.2-0.1,0.2c0,0,0,0.1,0,0.1c0,0.1,0,0.2,0,0.4c0,1.4,0,6.3,0,7.7c0,4,9,7.3,20.6,7.7c0.2,0.7,0.8,1.4,1.6,2.1
		c-0.3,0.2-0.5,0.4-0.7,0.6c0,0-0.1,0.1-0.1,0.1c-0.1,0.1-0.1,0.2-0.2,0.2c0,0-0.1,0.1-0.1,0.1c-0.1,0.1-0.1,0.1-0.2,0.2
		c0,0-0.1,0.1-0.1,0.1c0,0.1-0.1,0.1-0.1,0.2c0,0,0,0.1-0.1,0.1c0,0.1-0.1,0.2-0.1,0.2c0,0,0,0.1,0,0.1c0,0.1,0,0.2-0.1,0.2
		c0,0,0,0.1,0,0.1c0,0.1,0,0.2,0,0.4c0,1.4,0,6.3,0,7.7c0,4.3,10.4,7.7,23.2,7.7c12.8,0,23.2-3.5,23.2-7.7c0-1.4,0-6.3,0-7.7
		c0-0.1,0-0.2,0-0.4c0,0,0-0.1,0-0.1c0-0.1,0-0.2-0.1-0.3c0,0,0-0.1,0-0.1c0-0.1-0.1-0.2-0.1-0.2c0,0,0-0.1-0.1-0.1
		c0-0.1-0.1-0.2-0.2-0.3c0,0,0,0,0-0.1c-0.1-0.1-0.2-0.2-0.2-0.3c0,0-0.1-0.1-0.1-0.1c-0.1-0.1-0.1-0.2-0.2-0.2c0,0-0.1-0.1-0.1-0.1
		c-0.1-0.1-0.1-0.1-0.2-0.2c0,0-0.1-0.1-0.1-0.1c-0.1-0.1-0.2-0.2-0.3-0.2c0,0,0,0,0,0c1.1-0.9,1.8-1.9,1.8-2.9
		c3.3,0.6,7,0.9,10.9,0.9c12.8,0,23.2-3.5,23.2-7.7c0-1.4,0-6.3,0-7.7c0-0.1,0-0.2,0-0.4c0,0,0-0.1,0-0.1c0-0.1,0-0.2-0.1-0.3
		c0,0,0-0.1,0-0.1c0-0.1-0.1-0.2-0.1-0.2c0,0,0-0.1-0.1-0.1c0-0.1-0.1-0.2-0.2-0.3c0,0,0,0,0-0.1c-0.1-0.1-0.2-0.2-0.2-0.3
		c0,0-0.1-0.1-0.1-0.1c-0.1-0.1-0.1-0.2-0.2-0.2c0,0-0.1-0.1-0.1-0.1c-0.1-0.1-0.1-0.1-0.2-0.2c0,0-0.1-0.1-0.1-0.1
		c-0.1-0.1-0.2-0.2-0.3-0.2c0,0,0,0,0,0c1.1-0.9,1.8-1.9,1.8-3c0-1.4,0-6.3,0-7.7c0-0.1,0-0.2,0-0.4c0,0,0-0.1,0-0.1
		c0-0.1,0-0.2-0.1-0.3c0,0,0-0.1,0-0.1c0-0.1-0.1-0.2-0.1-0.2c0,0,0-0.1-0.1-0.1c0-0.1-0.1-0.2-0.2-0.3c0,0,0,0,0-0.1
		c-0.1-0.1-0.2-0.2-0.2-0.3c0,0-0.1-0.1-0.1-0.1c-0.1-0.1-0.1-0.2-0.2-0.2c0,0-0.1-0.1-0.1-0.1c-0.1-0.1-0.1-0.1-0.2-0.2
		c0,0-0.1-0.1-0.1-0.1c-0.1-0.1-0.2-0.2-0.3-0.2c0,0,0,0,0,0c1.1-0.9,1.8-1.9,1.8-3c0-1.4,0-6.3,0-7.7c0-0.1,0-0.2,0-0.4
		c0,0,0-0.1,0-0.1c0-0.1,0-0.2-0.1-0.3c0,0,0-0.1,0-0.1c0-0.1-0.1-0.2-0.1-0.2c0,0,0-0.1-0.1-0.1c0-0.1-0.1-0.2-0.2-0.3
		c0,0,0,0,0-0.1c-0.1-0.1-0.2-0.2-0.2-0.3c0,0-0.1-0.1-0.1-0.1c-0.1-0.1-0.1-0.2-0.2-0.2c0,0-0.1-0.1-0.1-0.1
		c-0.1-0.1-0.1-0.1-0.2-0.2c0,0-0.1-0.1-0.1-0.1c-0.1-0.1-0.2-0.2-0.3-0.2c0,0,0,0,0,0c1.1-0.9,1.8-1.9,1.8-3c0-1.4,0-6.3,0-7.7
		c0-0.1,0-0.2,0-0.4c0,0,0-0.1,0-0.1c0-0.1,0-0.2-0.1-0.3c0,0,0-0.1,0-0.1c0-0.1-0.1-0.2-0.1-0.2c0,0,0-0.1-0.1-0.1
		c0-0.1-0.1-0.2-0.2-0.3c0,0,0,0,0-0.1c-0.1-0.1-0.2-0.2-0.2-0.3c0,0-0.1-0.1-0.1-0.1c-0.1-0.1-0.1-0.2-0.2-0.2c0,0-0.1-0.1-0.1-0.1
		c-0.1-0.1-0.1-0.1-0.2-0.2c0,0-0.1-0.1-0.1-0.1c-0.1-0.1-0.2-0.2-0.3-0.2c0,0,0,0,0,0C100.5,44.9,101.1,43.9,101.1,42.8z
		 M98.4,38.7C98.4,38.7,98.3,38.8,98.4,38.7l-0.1,4.1c-0.1,0.3-1.3,1.7-5.5,3c-4,1.2-9.4,1.9-15,1.9l0,0v-4.9c0,0,0,0,0,0
		c0,0,0,0,0,0C86.8,42.8,94.5,41.2,98.4,38.7z M67.8,42C67.7,42,67.7,42,67.8,42c0.7,0.1,1.5,0.2,2.3,0.3c0,0,0,0-0.1,0v4.9
		c-0.8-0.1-1.5-0.2-2.2-0.3V42z M73.7,42.7c0.8,0,1.6,0.1,2.4,0.1v4.9c-0.8,0-1.6-0.1-2.4-0.1V42.7z M64,32.7
		c3.8-1.1,8.8-1.7,13.9-1.7s10,0.6,13.9,1.7c3,0.8,4.6,1.8,5.3,2.3c-0.7,0.6-2.3,1.5-5.3,2.3c-3.8,1.1-8.8,1.7-13.9,1.7
		s-10-0.6-13.9-1.7c-3-0.8-4.6-1.8-5.3-2.3C59.4,34.5,61,33.6,64,32.7z M62,40.7v4.8c-3.5-1.2-4.5-2.4-4.6-2.7v-4c0,0,0,0-0.1,0
		C58.6,39.5,60.2,40.2,62,40.7z M98.3,52.4v4c-0.1,0.3-1.3,1.7-5.5,3c-4,1.2-9.4,1.9-15,1.9l0,0v-4.9c0,0,0,0,0,0c0,0,0,0,0,0
		C86.8,56.5,94.5,54.8,98.3,52.4C98.4,52.4,98.3,52.4,98.3,52.4z M98.3,66.1v4c-0.1,0.3-1.3,1.7-5.5,3c-4,1.2-9.4,1.9-15,1.9l0,0
		v-4.9c0,0,0,0,0,0c0,0,0,0,0,0C86.8,70.1,94.5,68.5,98.3,66.1C98.4,66.1,98.3,66.1,98.3,66.1z M98.3,79.8v4c-0.1,0.3-1.3,1.7-5.5,3
		c-4,1.2-9.4,1.9-15,1.9l0,0v-4.9c0,0,0,0,0,0c0,0,0,0,0,0C86.8,83.8,94.5,82.2,98.3,79.8C98.4,79.7,98.3,79.7,98.3,79.8z
		 M57.6,98.9c-3.8,1.1-8.8,1.7-13.9,1.7s-10-0.6-13.9-1.7c-3-0.8-4.6-1.8-5.3-2.3c0.3-0.2,0.8-0.6,1.5-0.9
		c4.3,1.7,10.6,2.7,17.7,2.7c7.1,0,13.5-1.1,17.7-2.7c0.7,0.3,1.2,0.7,1.5,0.9C62.3,97.1,60.7,98.1,57.6,98.9z M19,88.6v-4.9
		c0.5,0,1,0,1.5,0.1c0,1.3,0,3.3,0,4.9C20,88.7,19.5,88.6,19,88.6z M2.8,83.8v-4c0,0,0,0-0.1,0c1.2,0.7,2.8,1.4,4.6,2v4.8
		C3.9,85.3,2.9,84.1,2.8,83.8z M19,75V70c0.5,0,1,0,1.5,0.1c0,1.3,0,3.3,0,4.9C20,75,19.5,75,19,75z M2.8,70.1v-4c0,0,0,0-0.1,0
		c1.2,0.7,2.8,1.4,4.6,2v4.8C3.9,71.6,2.9,70.4,2.8,70.1z M19,61.3v-4.9c0.5,0,1,0,1.5,0.1c0,1.3,0,3.3,0,4.9
		C20,61.3,19.5,61.3,19,61.3z M2.8,56.5v-4c0,0,0,0-0.1,0c1.2,0.7,2.8,1.4,4.6,2v4.8C3.9,58,2.9,56.8,2.8,56.5z M2.8,42.8v-4
		c0,0,0,0-0.1,0c1.2,0.7,2.8,1.4,4.6,2v4.8C3.9,44.3,2.9,43.1,2.8,42.8z M13.1,42C13.1,42,13.1,42,13.1,42c0.7,0.1,1.5,0.2,2.3,0.3
		c0,0,0,0-0.1,0v4.9c-0.8-0.1-1.5-0.2-2.2-0.3V42z M19,42.7c0.8,0,1.6,0.1,2.4,0.1v4.9c-0.8,0-1.6-0.1-2.4-0.1V42.7z M23.2,42.8
		C23.2,42.8,23.2,42.8,23.2,42.8C23.2,42.8,23.2,42.8,23.2,42.8c8.9,0,16.6-1.7,20.5-4.1c0,0,0,0-0.1,0v4c-0.1,0.3-1.3,1.7-5.5,3
		c-4,1.2-9.4,1.9-15,1.9h0V42.8z M41.9,68.2c-0.8,0-1.6-0.1-2.4-0.1v-4.9c0.8,0,1.6,0.1,2.4,0.1V68.2z M23.3,63.3v-4c0,0,0,0-0.1,0
		c1.2,0.7,2.8,1.4,4.6,2V66C24.4,64.8,23.4,63.6,23.3,63.3z M33.6,62.5C33.6,62.5,33.6,62.5,33.6,62.5c0.7,0.1,1.5,0.2,2.3,0.3
		c0,0,0,0-0.1,0v4.9c-0.8-0.1-1.5-0.2-2.2-0.3V62.5z M13.1,55.7C13.1,55.7,13.1,55.7,13.1,55.7c0.7,0.1,1.5,0.2,2.3,0.3
		c0,0,0,0-0.1,0v4.9c-0.8-0.1-1.5-0.2-2.2-0.3V55.7z M43.7,71.1c7.1,0,13.5-1.1,17.7-2.7c0.7,0.3,1.2,0.7,1.5,0.9
		c-0.7,0.6-2.3,1.5-5.3,2.3c-3.8,1.1-8.8,1.7-13.9,1.7s-10-0.6-13.9-1.7c-3-0.8-4.6-1.8-5.3-2.3c0.3-0.2,0.8-0.6,1.5-0.9
		C30.3,70,36.6,71.1,43.7,71.1z M41.9,81.9c-0.8,0-1.6-0.1-2.4-0.1v-4.9c0.8,0,1.6,0.1,2.4,0.1V81.9z M23.3,77v-4c0,0,0,0-0.1,0
		c1.2,0.7,2.8,1.4,4.6,2v4.8C24.4,78.5,23.4,77.3,23.3,77z M33.6,76.2C33.6,76.2,33.6,76.2,33.6,76.2c0.7,0.1,1.5,0.2,2.3,0.3
		c0,0,0,0-0.1,0v4.9c-0.8-0.1-1.5-0.2-2.2-0.3V76.2z M13.1,69.4C13.1,69.4,13.1,69.4,13.1,69.4c0.7,0.1,1.5,0.2,2.3,0.3
		c0,0,0,0-0.1,0v4.9c-0.8-0.1-1.5-0.2-2.2-0.3V69.4z M43.7,84.7c7.1,0,13.5-1.1,17.7-2.7c0.7,0.3,1.2,0.7,1.5,0.9
		c-0.7,0.6-2.3,1.5-5.3,2.3c-3.8,1.1-8.8,1.7-13.9,1.7s-10-0.6-13.9-1.7c-3-0.8-4.6-1.8-5.3-2.3c0.3-0.2,0.8-0.6,1.5-0.9
		C30.3,83.7,36.6,84.7,43.7,84.7z M41.9,95.6c-0.8,0-1.6-0.1-2.4-0.1v-4.9c0.8,0,1.6,0.1,2.4,0.1V95.6z M23.3,90.6v-4c0,0,0,0-0.1,0
		c1.2,0.7,2.8,1.4,4.6,2v4.8C24.4,92.1,23.4,90.9,23.3,90.6z M33.6,89.9C33.6,89.9,33.6,89.9,33.6,89.9c0.7,0.1,1.5,0.2,2.3,0.3
		c0,0,0,0-0.1,0v4.9c-0.8-0.1-1.5-0.2-2.2-0.3V89.9z M13.1,83C13.1,83,13.1,83,13.1,83c0.7,0.1,1.5,0.2,2.3,0.3c0,0,0,0-0.1,0v4.9
		c-0.8-0.1-1.5-0.2-2.2-0.3V83z M23.3,104.3v-4c0,0,0,0-0.1,0c1.2,0.7,2.8,1.4,4.6,2v4.8C24.4,105.8,23.4,104.6,23.3,104.3z
		 M33.6,103.5C33.6,103.5,33.6,103.5,33.6,103.5c0.7,0.1,1.5,0.2,2.3,0.3c0,0,0,0-0.1,0v4.9c-0.8-0.1-1.5-0.2-2.2-0.3V103.5z
		 M39.5,104.2c0.8,0,1.6,0.1,2.4,0.1v4.9c-0.8,0-1.6-0.1-2.4-0.1V104.2z M58.7,93.6c-4,1.2-9.4,1.9-15,1.9h0v-4.9c0,0,0,0,0,0
		c0,0,0,0,0,0c8.9,0,16.6-1.7,20.5-4.1c0,0,0,0-0.1,0v4C64.1,91,62.9,92.3,58.7,93.6z M67.8,83C67.7,83,67.7,83,67.8,83
		c0.7,0.1,1.5,0.2,2.3,0.3c0,0,0,0-0.1,0v4.9c-0.8-0.1-1.5-0.2-2.2-0.3V83z M73.7,83.7c0.8,0,1.6,0.1,2.4,0.1v4.9
		c-0.8,0-1.6-0.1-2.4-0.1V83.7z M58.7,80c-4,1.2-9.4,1.9-15,1.9h0V77c0,0,0,0,0,0c0,0,0,0,0,0c8.9,0,16.6-1.7,20.5-4.1
		c0,0,0,0-0.1,0v4C64.1,77.3,62.9,78.7,58.7,80z M67.8,69.4C67.7,69.4,67.7,69.4,67.8,69.4c0.7,0.1,1.5,0.2,2.3,0.3c0,0,0,0-0.1,0
		v4.9c-0.8-0.1-1.5-0.2-2.2-0.3V69.4z M73.7,70c0.8,0,1.6,0.1,2.4,0.1v4.9c-0.8,0-1.6-0.1-2.4-0.1V70z M58.7,66.3
		c-4,1.2-9.4,1.9-15,1.9h0v-4.9c0,0,0,0,0,0c0,0,0,0,0,0c8.9,0,16.6-1.7,20.5-4.1c0,0,0,0-0.1,0v4C64.1,63.6,62.9,65,58.7,66.3z
		 M67.8,55.7C67.7,55.7,67.7,55.7,67.8,55.7c0.7,0.1,1.5,0.2,2.3,0.3c0,0,0,0-0.1,0v4.9c-0.8-0.1-1.5-0.2-2.2-0.3V55.7z M73.7,56.4
		c0.8,0,1.6,0.1,2.4,0.1v4.9c-0.8,0-1.6-0.1-2.4-0.1V56.4z M59.8,50c0.3,0.1,0.7,0.2,1,0.3C60.5,50.2,60.1,50.1,59.8,50z M57.6,53.2
		c3,0.8,4.6,1.8,5.3,2.3c-0.7,0.6-2.3,1.5-5.3,2.3c-3.8,1.1-8.8,1.7-13.9,1.7s-10-0.6-13.9-1.7c-3-0.8-4.6-1.8-5.3-2.3
		c0.7-0.6,2.3-1.5,5.3-2.3c3.8-1.1,8.8-1.7,13.9-1.7S53.8,52.2,57.6,53.2z M41.1,47.9c-0.1,0-0.2,0-0.2,0
		C40.9,47.9,40.9,47.8,41.1,47.9C41,47.8,41,47.9,41.1,47.9z M23.2,34.1L23.2,34.1l0-4.9c0,0,0,0,0,0c0,0,0,0,0,0
		c8.9,0,16.6-1.7,20.5-4.1c0,0,0,0-0.1,0v4c-0.1,0.3-1.3,1.7-5.5,3C34.2,33.4,28.8,34.1,23.2,34.1z M2.8,29.1v-4c0,0,0,0-0.1,0
		c1.2,0.7,2.8,1.4,4.6,2v4.8C3.9,30.7,2.9,29.4,2.8,29.1z M13.1,28.4C13.1,28.4,13.1,28.4,13.1,28.4c0.7,0.1,1.5,0.2,2.3,0.3
		c0,0,0,0-0.1,0v4.9c-0.8-0.1-1.5-0.2-2.2-0.3V28.4z M19,29c0.8,0,1.6,0.1,2.4,0.1v4.9C20.6,34,19.8,34,19,34V29z M43.7,11.4
		C43.7,11.4,43.7,11.4,43.7,11.4l-0.1,4.1c-0.1,0.3-1.3,1.7-5.5,3c-4,1.2-9.4,1.9-15,1.9h0v-4.9c0,0,0,0,0,0c0,0,0,0,0,0
		C32.1,15.5,39.8,13.8,43.7,11.4z M13.1,14.7C13.1,14.7,13.1,14.7,13.1,14.7c0.7,0.1,1.5,0.2,2.3,0.3c0,0,0,0-0.1,0v4.9
		c-0.8-0.1-1.5-0.2-2.2-0.3V14.7z M19,15.4c0.8,0,1.6,0.1,2.4,0.1v4.9c-0.8,0-1.6-0.1-2.4-0.1V15.4z M9.4,5.4
		c3.8-1.1,8.8-1.7,13.9-1.7c5.1,0,10,0.6,13.9,1.7c3,0.8,4.6,1.8,5.3,2.3c-0.7,0.6-2.3,1.5-5.3,2.3c-3.8,1.1-8.8,1.7-13.9,1.7
		c-5.1,0-10-0.6-13.9-1.7c-3-0.8-4.6-1.8-5.3-2.3C4.7,7.2,6.3,6.3,9.4,5.4z M7.4,13.4v4.8c-3.5-1.2-4.5-2.4-4.6-2.7v-4
		c0,0,0,0-0.1,0C4,12.2,5.5,12.8,7.4,13.4z M23.2,23.2c7.1,0,13.5-1.1,17.7-2.7c0.7,0.3,1.2,0.7,1.5,0.9c-0.7,0.6-2.3,1.5-5.3,2.3
		c-3.8,1.1-8.8,1.7-13.9,1.7c-5.1,0-10-0.6-13.9-1.7c-3-0.8-4.6-1.8-5.3-2.3c0.3-0.2,0.8-0.6,1.5-0.9C9.8,22.2,16.1,23.2,23.2,23.2z
		 M23.2,36.9c7.1,0,13.5-1.1,17.7-2.7c0.7,0.3,1.2,0.7,1.5,0.9c-0.7,0.6-2.3,1.5-5.3,2.3c-3.8,1.1-8.8,1.7-13.9,1.7
		c-5.1,0-10-0.6-13.9-1.7c-3-0.8-4.6-1.8-5.3-2.3c0.3-0.2,0.8-0.6,1.5-0.9C9.8,35.8,16.1,36.9,23.2,36.9z M23.2,50.6
		c1,0,2,0,2.9-0.1c-0.1,0-0.2,0.1-0.3,0.1c0,0,0,0,0,0c-0.2,0.1-0.4,0.2-0.6,0.3c-0.1,0-0.1,0.1-0.2,0.1c-0.1,0.1-0.3,0.1-0.4,0.2
		c-0.1,0-0.2,0.1-0.2,0.1c-0.1,0.1-0.2,0.1-0.4,0.2c-0.1,0-0.1,0.1-0.2,0.1c-0.1,0.1-0.2,0.1-0.3,0.2c-0.1,0-0.1,0.1-0.2,0.1
		c-0.1,0.1-0.2,0.1-0.3,0.2c-0.1,0-0.1,0.1-0.2,0.1c-0.1,0.1-0.2,0.1-0.3,0.2c0,0-0.1,0.1-0.1,0.1c-0.1,0-0.1,0.1-0.2,0.1
		c-4.7-0.1-9.2-0.7-12.8-1.6c-3-0.8-4.6-1.8-5.3-2.3c0.3-0.2,0.8-0.6,1.5-0.9C9.8,49.5,16.1,50.6,23.2,50.6z M20.6,64.2
		c0.2,0.7,0.8,1.4,1.6,2.1c0,0-0.1,0.1-0.1,0.1c-4.7-0.1-9.2-0.7-12.8-1.6c-3-0.8-4.6-1.8-5.3-2.3c0.3-0.2,0.8-0.6,1.5-0.9
		C9.3,63,14.6,64,20.6,64.2z M20.6,77.8c0.2,0.7,0.8,1.4,1.6,2.1c0,0-0.1,0.1-0.1,0.1c-4.7-0.1-9.2-0.7-12.8-1.6
		c-3-0.8-4.6-1.8-5.3-2.3c0.3-0.2,0.8-0.6,1.5-0.9C9.3,76.6,14.6,77.6,20.6,77.8z M7.4,100.2c-3.5-1.2-4.5-2.4-4.6-2.7v-4
		c0,0,0,0-0.1,0c1.2,0.7,2.8,1.4,4.6,2V100.2z M4.1,89.7c0.3-0.2,0.8-0.6,1.5-0.9c3.7,1.5,9.1,2.5,15.1,2.7c0.2,0.7,0.8,1.4,1.6,2.1
		c0,0-0.1,0.1-0.1,0.1c-4.7-0.1-9.2-0.7-12.8-1.6C6.3,91.2,4.7,90.3,4.1,89.7z M15.3,97v4.9c-0.8-0.1-1.5-0.2-2.2-0.3v-4.9
		c0,0,0,0-0.1,0C13.8,96.8,14.6,96.9,15.3,97C15.3,97,15.3,97,15.3,97z M19,97.3c0.5,0,1,0,1.5,0.1c0,1.3,0,3.3,0,4.9
		c-0.5,0-1,0-1.5-0.1V97.3z M27.9,120.7c-3.5-1.2-4.5-2.4-4.6-2.7v-4c0,0,0,0-0.1,0c1.2,0.7,2.8,1.4,4.6,2V120.7z M35.8,117.5v4.9
		c-0.8-0.1-1.5-0.2-2.2-0.3v-4.9c0,0,0,0-0.1,0C34.3,117.3,35.1,117.4,35.8,117.5C35.8,117.5,35.8,117.5,35.8,117.5z M41.9,122.9
		c-0.8,0-1.6-0.1-2.4-0.1v-4.9c0.8,0,1.6,0.1,2.4,0.1V122.9z M64.2,113.9v4c-0.1,0.3-1.3,1.7-5.5,3c-4,1.2-9.4,1.9-15,1.9h0V118
		c0,0,0,0,0,0c0,0,0,0,0,0C52.6,118,60.3,116.3,64.2,113.9C64.2,113.9,64.2,113.9,64.2,113.9z M62.9,110.2c-0.7,0.6-2.3,1.5-5.3,2.3
		c-3.8,1.1-8.8,1.7-13.9,1.7s-10-0.6-13.9-1.7c-3-0.8-4.6-1.8-5.3-2.3c0.3-0.2,0.8-0.6,1.5-0.9c4.3,1.7,10.6,2.7,17.7,2.7
		c7.1,0,13.5-1.1,17.7-2.7C62.2,109.7,62.6,110,62.9,110.2z M64.2,104.3c-0.1,0.3-1.3,1.7-5.5,3c-4,1.2-9.4,1.9-15,1.9h0v-4.9
		c0,0,0,0,0,0c0,0,0,0,0,0c8.9,0,16.6-1.7,20.5-4.1c0,0,0,0-0.1,0V104.3z M70,97v4.9c-0.8-0.1-1.5-0.2-2.2-0.3v-4.9c0,0,0,0-0.1,0
		C68.4,96.8,69.2,96.9,70,97C70,97,70,97,70,97z M76.1,102.4c-0.8,0-1.6-0.1-2.4-0.1v-4.9c0.8,0,1.6,0.1,2.4,0.1V102.4z M98.3,93.4
		v4c-0.1,0.3-1.3,1.7-5.5,3c-4,1.2-9.4,1.9-15,1.9l0,0v-4.9c0,0,0,0,0,0c0,0,0,0,0,0C86.8,97.5,94.5,95.8,98.3,93.4
		C98.4,93.4,98.3,93.4,98.3,93.4z M97.1,89.7c-0.7,0.6-2.3,1.5-5.3,2.3c-3.8,1.1-8.8,1.7-13.9,1.7c-4.2,0-8.2-0.4-11.7-1.1
		c0.5-0.6,0.7-1.3,0.7-1.9c3.3,0.6,7,0.9,10.9,0.9c7.1,0,13.5-1.1,17.7-2.7C96.3,89.2,96.8,89.5,97.1,89.7z M97.1,76.1
		c-0.7,0.6-2.3,1.5-5.3,2.3c-3.8,1.1-8.8,1.7-13.9,1.7c-4.2,0-8.2-0.4-11.7-1.1c0.5-0.6,0.7-1.3,0.7-1.9c3.3,0.6,7,0.9,10.9,0.9
		c7.1,0,13.5-1.1,17.7-2.7C96.3,75.5,96.8,75.8,97.1,76.1z M97.1,62.4c-0.7,0.6-2.3,1.5-5.3,2.3c-3.8,1.1-8.8,1.7-13.9,1.7
		c-4.2,0-8.2-0.4-11.7-1.1c0.5-0.6,0.7-1.3,0.7-1.9c3.3,0.6,7,0.9,10.9,0.9c7.1,0,13.5-1.1,17.7-2.7C96.3,61.8,96.8,62.2,97.1,62.4z
		 M97.1,48.7c-0.7,0.6-2.3,1.5-5.3,2.3c-3.8,1.1-8.8,1.7-13.9,1.7s-10-0.6-13.9-1.7c-3-0.8-4.6-1.8-5.3-2.3c0.3-0.2,0.8-0.6,1.5-0.9
		c4.3,1.7,10.6,2.7,17.7,2.7s13.5-1.1,17.7-2.7C96.3,48.2,96.8,48.5,97.1,48.7z"/>
	<path class="st0" d="M39.5,122.8c0.8,0.1,1.6,0.1,2.4,0.1v-4.9c-0.8,0-1.6-0.1-2.4-0.1V122.8z"/>
	<path class="st0" d="M23.3,113.9v4c0.1,0.3,1.1,1.5,4.6,2.7v-4.8C26,115.3,24.5,114.6,23.3,113.9C23.3,113.9,23.3,113.9,23.3,113.9
		z"/>
	<path class="st0" d="M43.7,118C43.7,118,43.7,118,43.7,118l0,4.9h0c5.6,0,10.9-0.7,15-1.9c4.2-1.3,5.4-2.7,5.5-3v-4c0,0,0,0,0.1,0
		C60.3,116.3,52.6,118,43.7,118C43.7,118,43.7,118,43.7,118z"/>
	<path class="st0" d="M33.6,117.2v4.9c0.7,0.1,1.5,0.2,2.2,0.3v-4.9c0,0,0,0,0.1,0C35.1,117.4,34.3,117.3,33.6,117.2
		C33.6,117.2,33.6,117.2,33.6,117.2z"/>
	<path class="st0" d="M26,109.3c-0.7,0.3-1.2,0.7-1.5,0.9c0.7,0.6,2.3,1.5,5.3,2.3c3.8,1.1,8.8,1.7,13.9,1.7s10-0.6,13.9-1.7
		c3-0.8,4.6-1.8,5.3-2.3c-0.3-0.2-0.8-0.6-1.5-0.9c-4.3,1.7-10.6,2.7-17.7,2.7C36.6,112.1,30.3,111,26,109.3z"/>
	<path class="st0" d="M41.9,104.3c-0.8,0-1.6-0.1-2.4-0.1v4.9c0.8,0.1,1.6,0.1,2.4,0.1V104.3z"/>
	<path class="st0" d="M27.9,102.2c-1.8-0.6-3.4-1.3-4.6-2c0,0,0,0,0.1,0v4c0.1,0.3,1.1,1.5,4.6,2.7V102.2z"/>
	<path class="st0" d="M64.2,100.2c-3.9,2.4-11.6,4.1-20.5,4.1c0,0,0,0,0,0c0,0,0,0,0,0v4.9h0c5.6,0,10.9-0.7,15-1.9
		c4.2-1.3,5.4-2.7,5.5-3L64.2,100.2C64.2,100.2,64.2,100.2,64.2,100.2z"/>
	<path class="st0" d="M35.8,103.8C35.8,103.8,35.8,103.8,35.8,103.8c-0.7-0.1-1.5-0.2-2.3-0.3c0,0,0,0,0.1,0v4.9
		c0.7,0.1,1.5,0.2,2.2,0.3V103.8z"/>
	<path class="st0" d="M61.5,95.7c-4.3,1.7-10.6,2.7-17.7,2.7c-7.1,0-13.5-1.1-17.7-2.7c-0.7,0.3-1.2,0.7-1.5,0.9
		c0.7,0.6,2.3,1.5,5.3,2.3c3.8,1.1,8.8,1.7,13.9,1.7s10-0.6,13.9-1.7c3-0.8,4.6-1.8,5.3-2.3C62.6,96.3,62.2,96,61.5,95.7z"/>
	<path class="st0" d="M39.5,90.5v4.9c0.8,0.1,1.6,0.1,2.4,0.1v-4.9C41.1,90.6,40.3,90.6,39.5,90.5z"/>
	<path class="st0" d="M27.9,93.3v-4.8c-1.8-0.6-3.4-1.3-4.6-2c0,0,0,0,0.1,0v4C23.4,90.9,24.4,92.1,27.9,93.3z"/>
	<path class="st0" d="M64.2,86.6C64.2,86.6,64.2,86.6,64.2,86.6c-3.9,2.4-11.6,4.1-20.4,4.1c0,0,0,0,0,0c0,0,0,0,0,0v4.9h0
		c5.6,0,10.9-0.7,15-1.9c4.2-1.3,5.4-2.7,5.5-3V86.6z"/>
	<path class="st0" d="M35.8,90.2C35.8,90.2,35.8,90.2,35.8,90.2c-0.7-0.1-1.5-0.2-2.3-0.3c0,0,0,0,0.1,0v4.9
		c0.7,0.1,1.5,0.2,2.2,0.3V90.2z"/>
	<path class="st0" d="M24.5,82.9c0.7,0.6,2.3,1.5,5.3,2.3c3.8,1.1,8.8,1.7,13.9,1.7s10-0.6,13.9-1.7c3-0.8,4.6-1.8,5.3-2.3
		c-0.3-0.2-0.8-0.6-1.5-0.9c-4.3,1.7-10.6,2.7-17.7,2.7c-7.1,0-13.5-1.1-17.7-2.7C25.3,82.3,24.8,82.7,24.5,82.9z"/>
	<path class="st0" d="M39.5,76.9v4.9c0.8,0.1,1.6,0.1,2.4,0.1V77C41.1,76.9,40.3,76.9,39.5,76.9z"/>
	<path class="st0" d="M27.9,79.7v-4.8c-1.8-0.6-3.4-1.3-4.6-2c0,0,0,0,0.1,0v4C23.4,77.3,24.4,78.5,27.9,79.7z"/>
	<path class="st0" d="M64.2,72.9C64.2,72.9,64.2,72.9,64.2,72.9C60.3,75.3,52.6,77,43.7,77c0,0,0,0,0,0c0,0,0,0,0,0v4.9h0
		c5.6,0,10.9-0.7,15-1.9c4.2-1.3,5.4-2.7,5.5-3V72.9z"/>
	<path class="st0" d="M33.6,81.1c0.7,0.1,1.5,0.2,2.2,0.3v-4.9c0,0,0,0,0.1,0c-0.8-0.1-1.6-0.2-2.3-0.3c0,0,0,0,0.1,0V81.1z"/>
	<path class="st0" d="M24.5,69.2c0.7,0.6,2.3,1.5,5.3,2.3c3.8,1.1,8.8,1.7,13.9,1.7s10-0.6,13.9-1.7c3-0.8,4.6-1.8,5.3-2.3
		c-0.3-0.2-0.8-0.6-1.5-0.9c-4.3,1.7-10.6,2.7-17.7,2.7c-7.1,0-13.5-1.1-17.7-2.7C25.3,68.7,24.8,69,24.5,69.2z"/>
	<path class="st0" d="M60.8,50.3c-0.3-0.1-0.7-0.2-1-0.3C60.1,50.1,60.5,50.2,60.8,50.3z"/>
	<path class="st0" d="M39.5,63.2v4.9c0.8,0.1,1.6,0.1,2.4,0.1v-4.9C41.1,63.3,40.3,63.2,39.5,63.2z"/>
	<path class="st0" d="M27.9,66v-4.8c-1.8-0.6-3.4-1.3-4.6-2c0,0,0,0,0.1,0v4C23.4,63.6,24.4,64.8,27.9,66z"/>
	<path class="st0" d="M64.2,59.3C64.2,59.3,64.2,59.2,64.2,59.3c-3.9,2.4-11.6,4.1-20.4,4.1c0,0,0,0,0,0c0,0,0,0,0,0v4.9h0
		c5.6,0,10.9-0.7,15-1.9c4.2-1.3,5.4-2.7,5.5-3V59.3z"/>
	<path class="st0" d="M33.6,67.4c0.7,0.1,1.5,0.2,2.2,0.3v-4.9c0,0,0,0,0.1,0c-0.8-0.1-1.6-0.2-2.3-0.3c0,0,0,0,0.1,0V67.4z"/>
	<path class="st0" d="M43.7,51.6c-5.1,0-10,0.6-13.9,1.7c-3,0.8-4.6,1.8-5.3,2.3c0.7,0.6,2.3,1.5,5.3,2.3c3.8,1.1,8.8,1.7,13.9,1.7
		s10-0.6,13.9-1.7c3-0.8,4.6-1.8,5.3-2.3c-0.7-0.6-2.3-1.5-5.3-2.3C53.8,52.2,48.8,51.6,43.7,51.6z"/>
</g>
</svg>
