<?xml version="1.0" encoding="utf-8"?>
<!-- Generator: Adobe Illustrator 24.0.3, SVG Export Plug-In . SVG Version: 6.00 Build 0)  -->
<svg version="1.1" id="Layer_1" xmlns="http://www.w3.org/2000/svg" xmlns:xlink="http://www.w3.org/1999/xlink" x="0px" y="0px"
	 viewBox="0 0 217.5 179.2" style="enable-background:new 0 0 217.5 179.2;" xml:space="preserve">
<style type="text/css">
	.st0{fill:#FFFFFF;}
	.st1{fill:#FFB600;}
</style>
<g>
	<path class="st0" d="M195.9,114.2c3.5-0.5,6.7-1.1,9.5-2c6.2-1.9,7.9-3.9,8-4.4v-5.9c0,0,0.1,0,0.1-0.1c-3.8,2.4-10,4.2-17.6,5.2
		C195.9,108.6,195.9,111.6,195.9,114.2z"/>
	<path class="st0" d="M157.3,95.2c0,0,0.1,0,0.1,0c0.1,0,0.2,0,0.3,0c-0.1,0-0.1,0-0.2-0.1C157.5,95.1,157.4,95.1,157.3,95.2z"/>
	<path class="st0" d="M188.6,99.4c0.2,0.1,0.4,0.2,0.6,0.2c0.3,0.1,0.6,0.3,0.9,0.4c0.1,0,0.2,0.1,0.3,0.1c0.2,0.1,0.4,0.2,0.6,0.3
		c0.1,0.1,0.2,0.1,0.3,0.2c0.2,0.1,0.3,0.2,0.5,0.3c0.1,0,0.2,0.1,0.2,0.1c0.2,0.1,0.4,0.2,0.6,0.4c0,0,0.1,0.1,0.1,0.1
		c0.1,0.1,0.3,0.2,0.4,0.3c4-0.4,7.7-1.1,10.9-1.9c4.5-1.2,6.8-2.6,7.8-3.4c-0.4-0.4-1.1-0.8-2.1-1.3c-5.4,2.1-13.1,3.6-21.8,3.9
		C188,99.1,188.3,99.3,188.6,99.4z"/>
	<path class="st0" d="M208.3,68.6C208.3,68.6,208.3,68.6,208.3,68.6C208.3,68.6,208.3,68.6,208.3,68.6z"/>
	<path class="st0" d="M177.3,87.6v7.2c1.2,0.1,2.3,0.1,3.5,0.2v-7.2C179.6,87.7,178.4,87.6,177.3,87.6z"/>
	<path class="st0" d="M153.7,87.4c0.1,0.1,0.1,0.1,0.2,0.2c0.1,0.1,0.2,0.2,0.3,0.3c0.1,0.1,0.1,0.1,0.2,0.2
		c0.1,0.1,0.2,0.2,0.3,0.4c0,0,0.1,0.1,0.1,0.1c0.1,0.2,0.2,0.3,0.3,0.5c0,0,0,0.1,0.1,0.1c0,0.1,0.1,0.1,0.1,0.2
		c1,0.7,2.6,1.5,4.9,2.3v-7c-1.6-0.5-3.1-1.1-4.4-1.7c-0.1,1.4-0.9,2.7-2.3,3.9v0.4C153.6,87.3,153.7,87.4,153.7,87.4z"/>
	<path class="st0" d="M183.5,87.8C183.5,87.8,183.5,87.8,183.5,87.8C183.5,87.8,183.5,87.8,183.5,87.8V95h0c8.2,0,16-1,21.9-2.8
		c6.2-1.9,7.9-3.9,8-4.4v-5.9c0,0,0.1,0,0.1-0.1C207.8,85.3,196.5,87.8,183.5,87.8z"/>
	<path class="st0" d="M168.6,93.8c1.1,0.2,2.1,0.3,3.2,0.5v-7.2c0,0,0.1,0,0.1,0c-1.2-0.1-2.3-0.3-3.4-0.5c0,0,0.1,0,0.1,0V93.8z"/>
	<path class="st0" d="M155.9,76.8c1.2,0.8,3.4,2,7.3,3c5.6,1.6,12.9,2.4,20.3,2.4c7.5,0,14.7-0.9,20.3-2.4c4.5-1.2,6.8-2.6,7.8-3.4
		c-1-0.8-3.3-2.2-7.8-3.4c-5.6-1.6-12.9-2.4-20.3-2.4c-7.5,0-14.7,0.9-20.3,2.4c-3.8,1.1-6.1,2.2-7.3,3
		C155.9,76.3,155.9,76.5,155.9,76.8z"/>
	<path class="st1" d="M217.5,87.8c0-2.1,0-9.3,0-11.4c0-0.2,0-0.4,0-0.5c0-0.1,0-0.1,0-0.2c0-0.1,0-0.2-0.1-0.4c0-0.1,0-0.1-0.1-0.2
		c0-0.1-0.1-0.2-0.1-0.4c0-0.1,0-0.1-0.1-0.2c-0.1-0.1-0.1-0.3-0.2-0.4c0,0,0-0.1-0.1-0.1c-0.1-0.2-0.2-0.3-0.3-0.5
		c0,0-0.1-0.1-0.1-0.1c-0.1-0.1-0.2-0.2-0.3-0.4c-0.1-0.1-0.1-0.1-0.2-0.2c-0.1-0.1-0.2-0.2-0.3-0.3c-0.1-0.1-0.1-0.1-0.2-0.2
		c-0.1-0.1-0.3-0.2-0.4-0.3c-0.1,0-0.1-0.1-0.2-0.1c-0.2-0.2-0.4-0.3-0.6-0.5c0,0-0.1-0.1-0.1-0.1c-0.2-0.1-0.4-0.2-0.6-0.4
		c-0.1,0-0.2-0.1-0.2-0.1c-0.2-0.1-0.3-0.2-0.5-0.3c-0.1-0.1-0.2-0.1-0.3-0.2c-0.2-0.1-0.4-0.2-0.6-0.3c-0.1,0-0.2-0.1-0.3-0.1
		c-0.3-0.1-0.6-0.3-0.9-0.4c-0.2-0.1-0.4-0.2-0.6-0.2c-0.5-0.2-1-0.4-1.5-0.6c-0.1,0-0.2-0.1-0.3-0.1c0,0-0.1,0-0.1,0
		c-0.6-0.2-1.2-0.4-1.9-0.6c0,0-0.1,0-0.1,0c-0.4-0.1-0.7-0.2-1.1-0.3c-0.1,0-0.3-0.1-0.4-0.1c-0.3-0.1-0.5-0.1-0.8-0.2
		c-0.2,0-0.3-0.1-0.5-0.1c-0.3-0.1-0.5-0.1-0.8-0.2c-0.2,0-0.4-0.1-0.6-0.1c-0.3-0.1-0.5-0.1-0.8-0.2c-0.2,0-0.4-0.1-0.6-0.1
		c-0.3-0.1-0.5-0.1-0.8-0.1c-0.2,0-0.4-0.1-0.6-0.1c-0.3,0-0.5-0.1-0.8-0.1c-0.2,0-0.4-0.1-0.7-0.1c-0.3,0-0.5-0.1-0.8-0.1
		c-0.2,0-0.4-0.1-0.7-0.1c-0.3,0-0.5-0.1-0.8-0.1c-0.2,0-0.5-0.1-0.7-0.1c-0.3,0-0.6-0.1-0.8-0.1c-0.2,0-0.5-0.1-0.7-0.1
		c-0.3,0-0.6-0.1-0.9-0.1c-0.2,0-0.5,0-0.7-0.1c-0.3,0-0.6,0-0.9-0.1c-0.2,0-0.5,0-0.7-0.1c-0.3,0-0.6,0-0.9-0.1c-0.2,0-0.5,0-0.7,0
		c-0.3,0-0.7,0-1,0c-0.2,0-0.4,0-0.7,0c-0.4,0-0.7,0-1.1,0c-0.2,0-0.4,0-0.6,0c-0.6,0-1.1,0-1.7,0c-0.6,0-1.2,0-1.9,0
		c-0.2,0-0.4,0-0.6,0c-0.4,0-0.8,0-1.2,0c-0.2,0-0.5,0-0.7,0c-0.4,0-0.7,0-1.1,0.1c-0.2,0-0.5,0-0.7,0c-0.4,0-0.7,0-1.1,0.1
		c-0.2,0-0.5,0-0.7,0.1c-0.3,0-0.7,0.1-1,0.1c-0.2,0-0.5,0-0.7,0.1c-0.4,0-0.7,0.1-1,0.1c-0.2,0-0.4,0-0.7,0.1
		c-0.4,0-0.8,0.1-1.1,0.1c-0.2,0-0.4,0-0.5,0.1c-1.1,0.2-2.1,0.3-3.2,0.5c-0.2,0-0.3,0.1-0.5,0.1c-0.3,0.1-0.7,0.1-1,0.2
		c-0.2,0-0.4,0.1-0.6,0.1c-0.3,0.1-0.6,0.1-0.9,0.2c-0.2,0-0.4,0.1-0.6,0.1c-0.3,0.1-0.6,0.1-0.8,0.2c-0.2,0-0.4,0.1-0.6,0.1
		c-0.3,0.1-0.5,0.1-0.8,0.2c-0.2,0.1-0.4,0.1-0.5,0.2c-0.3,0.1-0.5,0.2-0.8,0.2c-0.2,0.1-0.3,0.1-0.5,0.2c-0.3,0.1-0.6,0.2-0.8,0.3
		c-0.1,0-0.3,0.1-0.4,0.1c-0.4,0.1-0.8,0.3-1.1,0.4c0,0,0,0,0,0c-0.3,0.1-0.6,0.3-0.9,0.4c-0.1,0-0.2,0.1-0.3,0.1
		c-0.1,0.1-0.3,0.1-0.4,0.2c0,0,0-0.1,0-0.1c0-0.1,0-0.1-0.1-0.2c-0.1-0.1-0.1-0.3-0.2-0.4c0,0,0-0.1-0.1-0.1
		c-0.1-0.2-0.2-0.3-0.3-0.5c0,0-0.1-0.1-0.1-0.1c-0.1-0.1-0.2-0.2-0.3-0.4c-0.1-0.1-0.1-0.1-0.2-0.2c-0.1-0.1-0.2-0.2-0.3-0.3
		c-0.1-0.1-0.1-0.1-0.2-0.2c-0.1-0.1-0.3-0.2-0.4-0.3c0,0,0,0,0,0c1.7-1.3,2.6-2.8,2.6-4.3c0-2.1,0-9.3,0-11.4c0-0.2,0-0.4,0-0.5
		c0-0.1,0-0.1,0-0.2c0-0.1,0-0.2-0.1-0.4c0-0.1,0-0.1-0.1-0.2c0-0.1-0.1-0.2-0.1-0.4c0-0.1,0-0.1-0.1-0.2c-0.1-0.1-0.1-0.3-0.2-0.4
		c0,0,0-0.1-0.1-0.1c-0.1-0.2-0.2-0.3-0.3-0.5c0,0-0.1-0.1-0.1-0.1c-0.1-0.1-0.2-0.2-0.3-0.4c-0.1-0.1-0.1-0.1-0.2-0.2
		c-0.1-0.1-0.2-0.2-0.3-0.3c-0.1-0.1-0.1-0.1-0.2-0.2c-0.1-0.1-0.3-0.2-0.4-0.3c0,0,0,0,0,0c1.7-1.3,2.6-2.8,2.6-4.3
		c0-2.1,0-9.3,0-11.4c0-0.2,0-0.4,0-0.5c0-0.1,0-0.1,0-0.2c0-0.1,0-0.2-0.1-0.4c0-0.1,0-0.1-0.1-0.2c0-0.1-0.1-0.2-0.1-0.4
		c0-0.1,0-0.1-0.1-0.2c-0.1-0.1-0.1-0.3-0.2-0.4c0,0,0-0.1-0.1-0.1c-0.1-0.2-0.2-0.3-0.3-0.5c0,0-0.1-0.1-0.1-0.1
		c-0.1-0.1-0.2-0.2-0.3-0.4c-0.1-0.1-0.1-0.1-0.2-0.2c-0.1-0.1-0.2-0.2-0.3-0.3c-0.1-0.1-0.1-0.1-0.2-0.2c-0.1-0.1-0.3-0.2-0.4-0.3
		c0,0,0,0,0,0c1.7-1.3,2.6-2.8,2.6-4.3c0-2.1,0-9.3,0-11.4c0-0.2,0-0.4,0-0.5c0-0.1,0-0.1,0-0.2c0-0.1,0-0.2-0.1-0.4
		c0-0.1,0-0.1-0.1-0.2c0-0.1-0.1-0.2-0.1-0.4c0-0.1,0-0.1-0.1-0.2c-0.1-0.1-0.1-0.3-0.2-0.4c0,0,0-0.1-0.1-0.1
		c-0.1-0.2-0.2-0.3-0.3-0.5c0,0-0.1-0.1-0.1-0.1c-0.1-0.1-0.2-0.2-0.3-0.4c-0.1-0.1-0.1-0.1-0.2-0.2c-0.1-0.1-0.2-0.2-0.3-0.3
		c-0.1-0.1-0.1-0.1-0.2-0.2c-0.1-0.1-0.3-0.2-0.4-0.3c-0.1,0-0.1-0.1-0.2-0.1c-0.2-0.2-0.4-0.3-0.6-0.5c0,0-0.1-0.1-0.1-0.1
		c-0.2-0.1-0.4-0.2-0.6-0.4c-0.1,0-0.2-0.1-0.2-0.1c-0.2-0.1-0.3-0.2-0.5-0.3c-0.1-0.1-0.2-0.1-0.3-0.2c-0.2-0.1-0.4-0.2-0.6-0.3
		c-0.1,0-0.2-0.1-0.3-0.1c-0.3-0.1-0.6-0.3-0.9-0.4c-0.2-0.1-0.4-0.2-0.6-0.2c-0.5-0.2-1-0.4-1.5-0.6c-0.1,0-0.2-0.1-0.3-0.1
		c0,0-0.1,0-0.1,0c-0.6-0.2-1.2-0.4-1.9-0.6c0,0-0.1,0-0.1,0c-0.4-0.1-0.7-0.2-1.1-0.3c-0.1,0-0.3-0.1-0.4-0.1
		c-0.3-0.1-0.5-0.1-0.8-0.2c-0.2,0-0.3-0.1-0.5-0.1C141.5,2.1,141.3,2,141,2c-0.2,0-0.4-0.1-0.6-0.1c-0.3-0.1-0.5-0.1-0.8-0.2
		c-0.2,0-0.4-0.1-0.6-0.1c-0.3-0.1-0.5-0.1-0.8-0.1c-0.2,0-0.4-0.1-0.6-0.1c-0.3,0-0.5-0.1-0.8-0.1c-0.2,0-0.4-0.1-0.7-0.1
		c-0.3,0-0.5-0.1-0.8-0.1c-0.2,0-0.4-0.1-0.7-0.1c-0.3,0-0.5-0.1-0.8-0.1c-0.2,0-0.5-0.1-0.7-0.1c-0.3,0-0.6-0.1-0.8-0.1
		c-0.2,0-0.5-0.1-0.7-0.1c-0.3,0-0.6-0.1-0.9-0.1c-0.2,0-0.5,0-0.7-0.1c-0.3,0-0.6,0-0.9-0.1c-0.2,0-0.5,0-0.7-0.1
		c-0.3,0-0.6,0-0.9-0.1c-0.2,0-0.5,0-0.7,0c-0.3,0-0.7,0-1,0c-0.2,0-0.4,0-0.7,0c-0.4,0-0.7,0-1.1,0c-0.2,0-0.4,0-0.6,0
		c-0.6,0-1.1,0-1.7,0c-0.6,0-1.2,0-1.9,0c-0.2,0-0.4,0-0.6,0c-0.4,0-0.8,0-1.2,0c-0.2,0-0.5,0-0.7,0c-0.4,0-0.7,0-1.1,0.1
		c-0.2,0-0.5,0-0.7,0c-0.4,0-0.7,0-1.1,0.1c-0.2,0-0.5,0-0.7,0.1c-0.3,0-0.7,0.1-1,0.1c-0.2,0-0.5,0-0.7,0.1c-0.4,0-0.7,0.1-1,0.1
		c-0.2,0-0.4,0-0.7,0.1c-0.4,0-0.8,0.1-1.1,0.1c-0.2,0-0.4,0-0.5,0.1c-1.1,0.2-2.1,0.3-3.2,0.5c-0.2,0-0.3,0.1-0.5,0.1
		c-0.3,0.1-0.7,0.1-1,0.2c-0.2,0-0.4,0.1-0.6,0.1c-0.3,0.1-0.6,0.1-0.9,0.2c-0.2,0-0.4,0.1-0.6,0.1c-0.3,0.1-0.6,0.1-0.8,0.2
		c-0.2,0-0.4,0.1-0.6,0.1c-0.3,0.1-0.5,0.1-0.8,0.2c-0.2,0.1-0.4,0.1-0.5,0.2C98.9,3,98.7,3,98.4,3.1c-0.2,0.1-0.3,0.1-0.5,0.2
		c-0.3,0.1-0.6,0.2-0.8,0.3c-0.1,0-0.3,0.1-0.4,0.1c-0.4,0.1-0.8,0.3-1.1,0.4c0,0,0,0,0,0c-0.3,0.1-0.6,0.3-0.9,0.4
		c-0.1,0-0.2,0.1-0.3,0.1c-0.2,0.1-0.4,0.2-0.6,0.3c-0.1,0.1-0.2,0.1-0.3,0.2c-0.2,0.1-0.3,0.2-0.5,0.3c-0.1,0.1-0.2,0.1-0.3,0.2
		c-0.2,0.1-0.3,0.2-0.5,0.3C92,5.9,91.9,6,91.8,6c-0.2,0.1-0.3,0.2-0.4,0.3c-0.1,0.1-0.2,0.1-0.3,0.2c-0.2,0.1-0.3,0.2-0.4,0.3
		c-0.1,0.1-0.1,0.1-0.2,0.2c-0.4,0.3-0.8,0.6-1.1,1c-0.1,0.1-0.1,0.1-0.1,0.2c-0.1,0.1-0.2,0.2-0.3,0.3c-0.1,0.1-0.1,0.1-0.1,0.2
		c-0.1,0.1-0.2,0.2-0.2,0.3c0,0.1-0.1,0.1-0.1,0.2c-0.1,0.1-0.1,0.2-0.2,0.3c0,0.1-0.1,0.1-0.1,0.2c0,0.1-0.1,0.2-0.1,0.3
		c0,0.1,0,0.1-0.1,0.2c0,0.1-0.1,0.2-0.1,0.4c0,0.1,0,0.1,0,0.2c0,0.2,0,0.4,0,0.6c0,2.1,0,9.3,0,11.4c0,1.5,0.9,3,2.6,4.3
		c-0.4,0.3-0.7,0.6-1,0.9c-0.1,0.1-0.1,0.1-0.1,0.2c-0.1,0.1-0.2,0.2-0.3,0.3c-0.1,0.1-0.1,0.1-0.1,0.2c-0.1,0.1-0.2,0.2-0.2,0.3
		c0,0.1-0.1,0.1-0.1,0.2c-0.1,0.1-0.1,0.2-0.2,0.3c0,0.1-0.1,0.1-0.1,0.2c0,0.1-0.1,0.2-0.1,0.3c0,0.1,0,0.1-0.1,0.2
		c0,0.1-0.1,0.2-0.1,0.4c0,0.1,0,0.1,0,0.2c0,0.2,0,0.4,0,0.6c0,2.1,0,9.3,0,11.4c0,1.5,0.9,3,2.6,4.3c-0.4,0.3-0.7,0.6-1,0.9
		c-0.1,0.1-0.1,0.1-0.1,0.2c-0.1,0.1-0.2,0.2-0.3,0.3c-0.1,0.1-0.1,0.1-0.1,0.2c-0.1,0.1-0.2,0.2-0.2,0.3c0,0.1-0.1,0.1-0.1,0.2
		c-0.1,0.1-0.1,0.2-0.2,0.3c0,0.1-0.1,0.1-0.1,0.2c0,0.1-0.1,0.2-0.1,0.3c0,0.1,0,0.1-0.1,0.2c0,0.1-0.1,0.2-0.1,0.4
		c0,0.1,0,0.1,0,0.2c0,0.2,0,0.4,0,0.6c0,0.8,0,2.2,0,3.8c-0.1,0-0.2,0-0.3,0c-0.2,0-0.5,0-0.7,0c-0.3,0-0.7,0-1,0
		c-0.2,0-0.4,0-0.7,0c-0.4,0-0.7,0-1.1,0c-0.2,0-0.4,0-0.6,0c-0.6,0-1.1,0-1.7,0c-0.6,0-1.2,0-1.9,0c-0.2,0-0.4,0-0.6,0
		c-0.4,0-0.8,0-1.2,0c-0.2,0-0.5,0-0.7,0c-0.4,0-0.7,0-1.1,0.1c-0.2,0-0.5,0-0.7,0c-0.4,0-0.7,0-1.1,0.1c-0.2,0-0.5,0-0.7,0.1
		c-0.3,0-0.7,0.1-1,0.1c-0.2,0-0.5,0-0.7,0.1c-0.4,0-0.7,0.1-1,0.1c-0.2,0-0.4,0-0.7,0.1c-0.4,0-0.8,0.1-1.1,0.1
		c-0.2,0-0.4,0-0.5,0.1c-1.1,0.2-2.1,0.3-3.2,0.5c-0.2,0-0.3,0.1-0.5,0.1c-0.3,0.1-0.7,0.1-1,0.2c-0.2,0-0.4,0.1-0.6,0.1
		c-0.3,0.1-0.6,0.1-0.9,0.2c-0.2,0-0.4,0.1-0.6,0.1c-0.3,0.1-0.6,0.1-0.8,0.2c-0.2,0-0.4,0.1-0.6,0.1c-0.3,0.1-0.5,0.1-0.8,0.2
		c-0.2,0.1-0.4,0.1-0.5,0.2c-0.3,0.1-0.5,0.2-0.8,0.2c-0.2,0.1-0.3,0.1-0.5,0.2c-0.3,0.1-0.6,0.2-0.8,0.3c-0.1,0-0.3,0.1-0.4,0.1
		c-0.4,0.1-0.8,0.3-1.1,0.4c0,0,0,0,0,0c-0.3,0.1-0.6,0.3-0.9,0.4c-0.1,0-0.2,0.1-0.3,0.1c-0.2,0.1-0.4,0.2-0.6,0.3
		c-0.1,0.1-0.2,0.1-0.3,0.2c-0.2,0.1-0.3,0.2-0.5,0.3c-0.1,0.1-0.2,0.1-0.3,0.2c-0.2,0.1-0.3,0.2-0.5,0.3c-0.1,0.1-0.2,0.1-0.3,0.2
		c-0.2,0.1-0.3,0.2-0.4,0.3c-0.1,0.1-0.2,0.1-0.3,0.2c-0.2,0.1-0.3,0.2-0.4,0.3c-0.1,0.1-0.1,0.1-0.2,0.2c-0.4,0.3-0.8,0.6-1.1,1
		c-0.1,0.1-0.1,0.1-0.1,0.2c-0.1,0.1-0.2,0.2-0.3,0.3c-0.1,0.1-0.1,0.1-0.1,0.2c-0.1,0.1-0.2,0.2-0.2,0.3c0,0.1-0.1,0.1-0.1,0.2
		c-0.1,0.1-0.1,0.2-0.2,0.3c0,0.1-0.1,0.1-0.1,0.2c0,0.1-0.1,0.2-0.1,0.3c0,0.1,0,0.1-0.1,0.2c0,0.1-0.1,0.2-0.1,0.4
		c0,0.1,0,0.1,0,0.2c0,0.2,0,0.4,0,0.6c0,1.7,0,6.7,0,9.6c0,0-0.1,0-0.1,0c-0.2,0-0.4-0.1-0.7-0.1c-0.3,0-0.5-0.1-0.8-0.1
		c-0.2,0-0.5-0.1-0.7-0.1c-0.3,0-0.6-0.1-0.8-0.1c-0.2,0-0.5-0.1-0.7-0.1c-0.3,0-0.6-0.1-0.9-0.1c-0.2,0-0.5,0-0.7-0.1
		c-0.3,0-0.6,0-0.9-0.1c-0.2,0-0.5,0-0.7-0.1c-0.3,0-0.6,0-0.9-0.1c-0.2,0-0.5,0-0.7,0c-0.3,0-0.7,0-1,0c-0.2,0-0.4,0-0.7,0
		c-0.4,0-0.7,0-1.1,0c-0.2,0-0.4,0-0.6,0c-0.6,0-1.1,0-1.7,0c-0.6,0-1.2,0-1.9,0c-0.2,0-0.4,0-0.6,0c-0.4,0-0.8,0-1.2,0
		c-0.2,0-0.5,0-0.7,0c-0.4,0-0.7,0-1.1,0.1c-0.2,0-0.5,0-0.7,0c-0.4,0-0.7,0-1.1,0.1c-0.2,0-0.5,0-0.7,0.1c-0.3,0-0.7,0.1-1,0.1
		c-0.2,0-0.5,0-0.7,0.1c-0.4,0-0.7,0.1-1,0.1c-0.2,0-0.4,0-0.7,0.1c-0.4,0-0.8,0.1-1.1,0.1c-0.2,0-0.4,0-0.5,0.1
		c-1.1,0.2-2.1,0.3-3.2,0.5c-0.2,0-0.3,0.1-0.5,0.1c-0.3,0.1-0.7,0.1-1,0.2c-0.2,0-0.4,0.1-0.6,0.1c-0.3,0.1-0.6,0.1-0.9,0.2
		c-0.2,0-0.4,0.1-0.6,0.1c-0.3,0.1-0.6,0.1-0.8,0.2c-0.2,0-0.4,0.1-0.6,0.1c-0.3,0.1-0.5,0.1-0.8,0.2c-0.2,0.1-0.4,0.1-0.5,0.2
		c-0.3,0.1-0.5,0.2-0.8,0.2c-0.2,0.1-0.3,0.1-0.5,0.2c-0.3,0.1-0.6,0.2-0.8,0.3c-0.1,0-0.3,0.1-0.4,0.1c-0.4,0.1-0.8,0.3-1.1,0.4
		c0,0,0,0,0,0c-0.3,0.1-0.6,0.3-0.9,0.4c-0.1,0-0.2,0.1-0.3,0.1c-0.2,0.1-0.4,0.2-0.6,0.3c-0.1,0.1-0.2,0.1-0.3,0.2
		c-0.2,0.1-0.3,0.2-0.5,0.3c-0.1,0.1-0.2,0.1-0.3,0.2c-0.2,0.1-0.3,0.2-0.5,0.3C4.2,81,4.1,81,4,81.1c-0.2,0.1-0.3,0.2-0.4,0.3
		c-0.1,0.1-0.2,0.1-0.3,0.2c-0.2,0.1-0.3,0.2-0.4,0.3C2.8,81.9,2.7,82,2.6,82c-0.4,0.3-0.8,0.6-1.1,1c-0.1,0.1-0.1,0.1-0.1,0.2
		c-0.1,0.1-0.2,0.2-0.3,0.3C1.1,83.6,1,83.6,1,83.7c-0.1,0.1-0.2,0.2-0.2,0.3c0,0.1-0.1,0.1-0.1,0.2c-0.1,0.1-0.1,0.2-0.2,0.3
		c0,0.1-0.1,0.1-0.1,0.2c0,0.1-0.1,0.2-0.1,0.3c0,0.1,0,0.1-0.1,0.2c0,0.1-0.1,0.2-0.1,0.4c0,0.1,0,0.1,0,0.2c0,0.2,0,0.4,0,0.6
		c0,2.1,0,9.3,0,11.4c0,1.5,0.9,3,2.6,4.3c-0.4,0.3-0.7,0.6-1,0.9c-0.1,0.1-0.1,0.1-0.1,0.2c-0.1,0.1-0.2,0.2-0.3,0.3
		c-0.1,0.1-0.1,0.1-0.1,0.2c-0.1,0.1-0.2,0.2-0.2,0.3c0,0.1-0.1,0.1-0.1,0.2c-0.1,0.1-0.1,0.2-0.2,0.3c0,0.1-0.1,0.1-0.1,0.2
		c0,0.1-0.1,0.2-0.1,0.3c0,0.1,0,0.1-0.1,0.2c0,0.1-0.1,0.2-0.1,0.4c0,0.1,0,0.1,0,0.2c0,0.2,0,0.4,0,0.6c0,2.1,0,9.3,0,11.4
		c0,6.3,15.2,11.3,34.1,11.3c4.9,0,9.5-0.3,13.7-1c0,3,0,8,0,9.6c0,5.8,13.2,10.6,30.2,11.3c0.4,1.1,1.2,2.1,2.4,3.1
		c-0.4,0.3-0.7,0.6-1,0.9c-0.1,0.1-0.1,0.1-0.1,0.2c-0.1,0.1-0.2,0.2-0.3,0.3c-0.1,0.1-0.1,0.1-0.1,0.2c-0.1,0.1-0.2,0.2-0.2,0.3
		c0,0.1-0.1,0.1-0.1,0.2c-0.1,0.1-0.1,0.2-0.2,0.3c0,0.1-0.1,0.1-0.1,0.2c0,0.1-0.1,0.2-0.1,0.3c0,0.1,0,0.1-0.1,0.2
		c0,0.1-0.1,0.2-0.1,0.4c0,0.1,0,0.1,0,0.2c0,0.2,0,0.4,0,0.6c0,2.1,0,9.3,0,11.4c0,6.3,15.2,11.3,34.1,11.3
		c18.8,0,34.1-5.1,34.1-11.3c0-2.1,0-9.3,0-11.4c0-0.2,0-0.4,0-0.5c0-0.1,0-0.1,0-0.2c0-0.1,0-0.2-0.1-0.4c0-0.1,0-0.1-0.1-0.2
		c0-0.1-0.1-0.2-0.1-0.4c0-0.1,0-0.1-0.1-0.2c-0.1-0.1-0.1-0.3-0.2-0.4c0,0,0-0.1-0.1-0.1c-0.1-0.2-0.2-0.3-0.3-0.5
		c0,0-0.1-0.1-0.1-0.1c-0.1-0.1-0.2-0.2-0.3-0.4c-0.1-0.1-0.1-0.1-0.2-0.2c-0.1-0.1-0.2-0.2-0.3-0.3c-0.1-0.1-0.1-0.1-0.2-0.2
		c-0.1-0.1-0.3-0.2-0.4-0.3c0,0,0,0,0,0c1.7-1.3,2.6-2.8,2.6-4.3c4.8,0.8,10.2,1.3,16,1.3c18.8,0,34.1-5.1,34.1-11.3
		c0-2.1,0-9.3,0-11.4c0-0.2,0-0.4,0-0.5c0-0.1,0-0.1,0-0.2c0-0.1,0-0.2-0.1-0.4c0-0.1,0-0.1-0.1-0.2c0-0.1-0.1-0.2-0.1-0.4
		c0-0.1,0-0.1-0.1-0.2c-0.1-0.1-0.1-0.3-0.2-0.4c0,0,0-0.1-0.1-0.1c-0.1-0.2-0.2-0.3-0.3-0.5c0,0-0.1-0.1-0.1-0.1
		c-0.1-0.1-0.2-0.2-0.3-0.4c-0.1-0.1-0.1-0.1-0.2-0.2c-0.1-0.1-0.2-0.2-0.3-0.3c-0.1-0.1-0.1-0.1-0.2-0.2c-0.1-0.1-0.3-0.2-0.4-0.3
		c0,0,0,0,0,0c1.5-1.2,2.3-2.4,2.5-3.8c12.7-1.7,21.7-5.8,21.7-10.6c0-2.1,0-9.3,0-11.4c0-0.2,0-0.4,0-0.5c0-0.1,0-0.1,0-0.2
		c0-0.1,0-0.2-0.1-0.4c0-0.1,0-0.1-0.1-0.2c0-0.1-0.1-0.2-0.1-0.4c0-0.1,0-0.1-0.1-0.2c-0.1-0.1-0.1-0.3-0.2-0.4c0,0,0-0.1-0.1-0.1
		c-0.1-0.2-0.2-0.3-0.3-0.5c0,0-0.1-0.1-0.1-0.1c-0.1-0.1-0.2-0.2-0.3-0.4c-0.1-0.1-0.1-0.1-0.2-0.2c-0.1-0.1-0.2-0.2-0.3-0.3
		c-0.1-0.1-0.1-0.1-0.2-0.2c-0.1-0.1-0.3-0.2-0.4-0.3c0,0,0,0,0,0C216.6,90.8,217.5,89.3,217.5,87.8z M213.5,81.8
		C213.5,81.8,213.5,81.8,213.5,81.8l-0.1,6c-0.1,0.5-1.9,2.5-8,4.4c-5.9,1.8-13.7,2.8-21.9,2.8h0v-7.2c0,0,0,0,0,0c0,0,0,0,0,0
		C196.5,87.8,207.8,85.3,213.5,81.8z M182.2,109.9c-5.6,1.6-12.9,2.4-20.3,2.4c-7.5,0-14.7-0.9-20.3-2.4c-4.5-1.2-6.8-2.6-7.8-3.4
		c1-0.8,3.3-2.2,7.8-3.4c5.6-1.6,12.9-2.4,20.3-2.4c7.5,0,14.7,0.9,20.3,2.4c4.5,1.2,6.8,2.6,7.8,3.4
		C189,107.2,186.7,108.6,182.2,109.9z M159.2,125c-1.2,0-2.4-0.1-3.5-0.2v-7.2c1.2,0.1,2.3,0.1,3.5,0.2V125z M132.2,139.9
		c-5.6,1.6-12.9,2.4-20.3,2.4s-14.7-0.9-20.3-2.4c-4.5-1.2-6.8-2.6-7.8-3.4c0.4-0.4,1.1-0.8,2.1-1.3c6.2,2.5,15.6,4,26,4
		c10.4,0,19.7-1.6,26-4c1,0.5,1.7,1,2.1,1.3C138.9,137.3,136.6,138.6,132.2,139.9z M75.6,124.8v-7.2c0.7,0,1.5,0.1,2.2,0.1
		c0,1.9,0,4.9,0,7.2C77,124.9,76.3,124.9,75.6,124.8z M51.8,111.8c1.8,1.1,4.1,2.1,6.8,2.9v7c-5.1-1.8-6.6-3.5-6.7-4L51.8,111.8
		C51.8,111.8,51.8,111.8,51.8,111.8z M151.8,56.8v5.9c-0.1,0.5-1.9,2.5-8,4.4C137.8,69,130,70,121.8,70h0v-7.2c0,0,0,0,0,0
		c0,0,0,0,0,0C134.8,62.7,146.1,60.3,151.8,56.8C151.8,56.8,151.8,56.8,151.8,56.8z M115.8,65.9c0-0.1,0-0.1,0-0.2
		c0-0.1,0-0.2-0.1-0.4c0-0.1,0-0.1-0.1-0.2c0,0,0,0,0-0.1v-2.5c1.2,0.1,2.3,0.1,3.5,0.2v7.2c-1.1,0-2.2-0.1-3.3-0.1
		c0-1.4,0-2.7,0-3.4C115.9,66.2,115.8,66,115.8,65.9z M106.6,58.6C106.6,58.6,106.7,58.6,106.6,58.6
		C106.7,58.6,106.6,58.6,106.6,58.6z M111.8,71.8C111.8,71.8,111.8,71.8,111.8,71.8l-0.1,6c-0.1,0.5-1.9,2.5-8,4.4
		C97.8,84,90,85,81.8,85h0v-7.2c0,0,0,0,0,0c0,0,0,0,0,0C94.8,77.7,106.1,75.3,111.8,71.8z M155.9,83c1.3,0.6,2.8,1.2,4.4,1.7v7
		c-2.3-0.8-3.9-1.6-4.9-2.3c0-0.1-0.1-0.1-0.1-0.2c0,0,0-0.1-0.1-0.1c-0.1-0.2-0.2-0.3-0.3-0.5c0,0-0.1-0.1-0.1-0.1
		c-0.1-0.1-0.2-0.2-0.3-0.4c-0.1-0.1-0.1-0.1-0.2-0.2c-0.1-0.1-0.2-0.2-0.3-0.3c-0.1-0.1-0.1-0.1-0.2-0.2c-0.1-0.1-0.1-0.1-0.2-0.2
		v-0.4C155,85.7,155.8,84.4,155.9,83z M109.1,135c-1.2,0-2.4-0.1-3.5-0.2v-7.2c1.2,0.1,2.3,0.1,3.5,0.2V135z M66.9,103.8v-7.2
		c0,0-0.1,0-0.1,0c1.1,0.2,2.2,0.3,3.4,0.5c0,0-0.1,0-0.1,0v7.2C69.1,104.1,68,104,66.9,103.8z M51.8,91.8c1.8,1.1,4.1,2.1,6.8,2.9
		v7c-5.1-1.8-6.6-3.5-6.7-4L51.8,91.8C51.8,91.8,51.8,91.8,51.8,91.8z M119.1,89.9c-1.1,0-2.2-0.1-3.3-0.1c0-1.4,0-2.7,0-3.4
		c0-0.2,0-0.4,0-0.5c0-0.1,0-0.1,0-0.2c0-0.1,0-0.2-0.1-0.4c0-0.1,0-0.1-0.1-0.2c0,0,0,0,0-0.1v-2.5c1.2,0.1,2.3,0.1,3.5,0.2V89.9z
		 M147.8,90.1c1,0.5,1.7,1,2.1,1.3c-1,0.8-3.3,2.2-7.8,3.4c-5.6,1.6-12.9,2.4-20.3,2.4c-2,0-4-0.1-6-0.2c0-0.8,0-1.9,0-3.2
		c1.9,0.1,3.9,0.2,6,0.2C132.3,94.1,141.6,92.5,147.8,90.1z M132.2,119.9c-5.6,1.6-12.9,2.4-20.3,2.4s-14.7-0.9-20.3-2.4
		c-4.5-1.2-6.8-2.6-7.8-3.4c1-0.8,3.3-2.2,7.8-3.4c5.6-1.6,12.9-2.4,20.3-2.4s14.7,0.9,20.3,2.4c4.5,1.2,6.8,2.6,7.8,3.4
		C138.9,117.3,136.6,118.6,132.2,119.9z M119.1,105.3c-0.2,0-0.4,0-0.6,0c-0.3,0-0.6,0-0.9-0.1c-0.2,0-0.5,0-0.7,0c-0.3,0-0.7,0-1,0
		c-0.1,0-0.2,0-0.2,0c0,0,0,0,0,0v-2.5c1.2,0.1,2.3,0.1,3.5,0.2V105.3z M107.8,105.1c0,0,0.1,0,0.1,0.1c-0.1,0-0.2,0-0.3,0
		C107.6,105.1,107.7,105.1,107.8,105.1z M75.6,97.6c1.2,0.1,2.3,0.1,3.5,0.2v7.2c-1.2,0-2.4-0.1-3.5-0.2V97.6z M81.8,97.8
		C81.8,97.8,81.8,97.8,81.8,97.8C81.8,97.8,81.8,97.8,81.8,97.8c13,0,24.3-2.4,30-6c0,0-0.1,0-0.1,0.1v5.9c-0.1,0.5-1.9,2.5-8,4.4
		C97.8,104,90,105,81.8,105h0V97.8z M81.9,127.8v-5.9c0,0-0.1,0-0.1-0.1c1.8,1.1,4.1,2.1,6.8,2.9v7C83.5,130,82,128.2,81.9,127.8z
		 M97,126.6C96.9,126.6,96.9,126.6,97,126.6c1,0.2,2.2,0.3,3.3,0.5c0,0-0.1,0-0.1,0v7.2c-1.1-0.1-2.2-0.3-3.2-0.5V126.6z
		 M136.6,108.7C136.7,108.7,136.7,108.7,136.6,108.7C136.7,108.7,136.7,108.7,136.6,108.7z M129.4,103c-0.1,0.1-0.1,0.1-0.1,0.2
		c-0.1,0.1-0.2,0.2-0.3,0.3c-0.1,0.1-0.1,0.1-0.1,0.2c-0.1,0.1-0.2,0.2-0.2,0.3c0,0.1-0.1,0.1-0.1,0.2c-0.1,0.1-0.1,0.2-0.2,0.3
		c0,0.1-0.1,0.1-0.1,0.2c0,0.1-0.1,0.2-0.1,0.3c0,0.1,0,0.1-0.1,0.2c0,0.1-0.1,0.2-0.1,0.4c0,0.1,0,0.1,0,0.2c0,0.2,0,0.4,0,0.5
		c-0.1,0-0.1,0-0.2,0c-0.3,0-0.5-0.1-0.8-0.1c-0.2,0-0.4-0.1-0.7-0.1c-0.3,0-0.5-0.1-0.8-0.1c-0.2,0-0.4-0.1-0.7-0.1
		c-0.3,0-0.5-0.1-0.8-0.1c-0.2,0-0.5-0.1-0.7-0.1c-0.3,0-0.6-0.1-0.8-0.1c-0.2,0-0.4,0-0.5-0.1v-2.8c0,0,0,0,0,0c0,0,0,0,0,0
		c2.8,0,5.5-0.1,8.2-0.3C129.8,102.6,129.6,102.8,129.4,103z M157.5,95.2c0,0-0.1,0-0.1,0C157.4,95.1,157.5,95.1,157.5,95.2
		c0.1-0.1,0.2,0,0.3,0C157.6,95.2,157.5,95.2,157.5,95.2z M168.5,86.6c1.1,0.2,2.2,0.3,3.4,0.5c0,0-0.1,0-0.1,0v7.2
		c-1.1-0.1-2.2-0.3-3.2-0.5L168.5,86.6C168.6,86.6,168.6,86.6,168.5,86.6z M180.8,94.9c-1.2,0-2.4-0.1-3.5-0.2v-7.2
		c1.2,0.1,2.3,0.1,3.5,0.2V94.9z M151.9,76.8C151.8,76.8,151.8,76.8,151.9,76.8l-0.1,6c-0.1,0.5-1.9,2.5-8,4.4
		C137.8,89,130,90,121.8,90h0v-7.2c0,0,0,0,0,0c0,0,0,0,0,0C134.8,82.7,146.1,80.3,151.9,76.8z M66.9,83.8v-7.2c0,0-0.1,0-0.1,0
		c1.1,0.2,2.2,0.3,3.4,0.5c0,0-0.1,0-0.1,0v7.2C69.1,84.1,68,84,66.9,83.8z M75.6,77.6c1.2,0.1,2.3,0.1,3.5,0.2v7.2
		c-1.2,0-2.4-0.1-3.5-0.2V77.6z M55.8,85.1c6.2,2.5,15.6,4,26,4c10.4,0,19.7-1.6,26-4c1,0.5,1.7,1,2.1,1.3c-1,0.8-3.3,2.2-7.8,3.4
		c-5.6,1.6-12.9,2.4-20.3,2.4s-14.7-0.9-20.3-2.4c-4.5-1.2-6.8-2.6-7.8-3.4C54.1,86.1,54.8,85.6,55.8,85.1z M19.2,96.6
		C19.2,96.6,19.1,96.6,19.2,96.6c1,0.2,2.2,0.3,3.3,0.5c0,0-0.1,0-0.1,0v7.2c-1.1-0.1-2.2-0.3-3.2-0.5V96.6z M27.8,97.6
		c1.2,0.1,2.3,0.1,3.5,0.2v7.2c-1.2,0-2.4-0.1-3.5-0.2V97.6z M34.1,97.8C34,97.8,34,97.8,34.1,97.8C34,97.8,34,97.8,34.1,97.8
		c4.9,0,9.5-0.3,13.7-1c0,0.4,0,0.7,0,1c0,1.5,0.9,3,2.6,4.3c-0.4,0.3-0.7,0.6-1,0.9c-0.1,0.1-0.1,0.1-0.1,0.2
		c-0.1,0.1-0.2,0.2-0.3,0.3c-0.1,0.1-0.1,0.1-0.1,0.2c0,0-0.1,0.1-0.1,0.1c-4.5,0.7-9.4,1.1-14.6,1.1h0V97.8z M53.7,106.4
		c0.4-0.4,1.1-0.8,2.1-1.3c6.2,2.5,15.6,4,26,4c1.4,0,2.9,0,4.3-0.1c-0.2,0.1-0.3,0.1-0.5,0.2c0,0,0,0,0,0c-0.3,0.1-0.6,0.3-0.9,0.4
		c-0.1,0-0.2,0.1-0.3,0.1c-0.2,0.1-0.4,0.2-0.6,0.3c-0.1,0.1-0.2,0.1-0.3,0.2c-0.2,0.1-0.3,0.2-0.5,0.3c-0.1,0.1-0.2,0.1-0.3,0.2
		c-0.2,0.1-0.3,0.2-0.5,0.3c-0.1,0.1-0.2,0.1-0.3,0.2c-0.2,0.1-0.3,0.2-0.4,0.3c-0.1,0.1-0.2,0.1-0.3,0.2c-0.2,0.1-0.3,0.2-0.4,0.3
		c-0.1,0.1-0.1,0.1-0.2,0.2c-0.1,0.1-0.2,0.1-0.3,0.2c-6.9-0.1-13.5-1-18.7-2.4C57,108.6,54.7,107.2,53.7,106.4z M66.9,116.6
		C66.9,116.6,66.9,116.6,66.9,116.6c1,0.2,2.2,0.3,3.3,0.5c0,0-0.1,0-0.1,0v7.2c-1.1-0.1-2.2-0.3-3.2-0.5V116.6z M81.9,147.8v-5.9
		c0,0-0.1,0-0.1-0.1c1.8,1.1,4.1,2.1,6.8,2.9v7C83.5,150,82,148.2,81.9,147.8z M97,146.7C96.9,146.7,96.9,146.7,97,146.7
		c1,0.2,2.2,0.3,3.3,0.5c0,0-0.1,0-0.1,0v7.2c-1.1-0.1-2.2-0.3-3.2-0.5V146.7z M105.6,147.6c1.2,0.1,2.3,0.1,3.5,0.2v7.2
		c-1.2,0-2.4-0.1-3.5-0.2V147.6z M133.7,132.2c-5.9,1.8-13.7,2.8-21.9,2.8h0v-7.2c0,0,0,0,0,0c0,0,0,0,0,0c13,0,24.3-2.4,30-6
		c0,0-0.1,0-0.1,0.1v5.9C141.6,128.2,139.9,130.3,133.7,132.2z M147,116.6C147,116.6,146.9,116.6,147,116.6c1,0.2,2.2,0.3,3.3,0.5
		c0,0-0.1,0-0.1,0v7.2c-1.1-0.1-2.2-0.3-3.2-0.5V116.6z M186.7,98.7C186.7,98.7,186.7,98.7,186.7,98.7
		C186.7,98.7,186.7,98.7,186.7,98.7z M163.2,73c5.6-1.6,12.9-2.4,20.3-2.4c7.5,0,14.7,0.9,20.3,2.4c4.5,1.2,6.8,2.6,7.8,3.4
		c-1,0.8-3.3,2.2-7.8,3.4c-5.6,1.6-12.9,2.4-20.3,2.4c-7.5,0-14.7-0.9-20.3-2.4c-3.8-1.1-6.1-2.2-7.3-3c0-0.3,0-0.5,0-0.8
		C157.1,75.2,159.3,74,163.2,73z M150,71.4c-1,0.8-3.3,2.2-7.8,3.4c-5.6,1.6-12.9,2.4-20.3,2.4c-2,0-4-0.1-6-0.2c0-0.8,0-1.9,0-3.2
		c1.9,0.1,3.9,0.2,6,0.2c10.4,0,19.7-1.6,26-4C148.8,70.6,149.5,71,150,71.4z M121.8,49.9L121.8,49.9l0-7.2c0,0,0,0,0,0c0,0,0,0,0,0
		c13,0,24.3-2.4,30-6c0,0-0.1,0-0.1,0.1v5.9c-0.1,0.5-1.9,2.5-8,4.4C137.8,48.9,130,49.9,121.8,49.9z M91.9,42.7v-5.9
		c0,0-0.1,0-0.1-0.1c1.8,1.1,4.1,2.1,6.8,2.9v7C93.5,44.9,92,43.1,91.9,42.7z M107,41.6C106.9,41.6,106.9,41.6,107,41.6
		c1,0.2,2.2,0.3,3.3,0.5c0,0-0.1,0-0.1,0v7.2c-1.1-0.1-2.2-0.3-3.2-0.5V41.6z M115.6,42.5c1.2,0.1,2.3,0.1,3.5,0.2v7.2
		c-1.2,0-2.4-0.1-3.5-0.2V42.5z M151.9,16.7C151.8,16.7,151.8,16.7,151.9,16.7l-0.1,6c-0.1,0.5-1.9,2.5-8,4.4
		c-5.9,1.8-13.7,2.8-21.9,2.8h0v-7.2c0,0,0,0,0,0c0,0,0,0,0,0C134.8,22.7,146.1,20.3,151.9,16.7z M107,21.6
		C106.9,21.6,106.9,21.6,107,21.6c1,0.2,2.2,0.3,3.3,0.5c0,0-0.1,0-0.1,0v7.2c-1.1-0.1-2.2-0.3-3.2-0.5V21.6z M115.6,22.5
		c1.2,0.1,2.3,0.1,3.5,0.2v7.2c-1.2,0-2.4-0.1-3.5-0.2V22.5z M101.5,7.9c5.6-1.6,12.9-2.4,20.3-2.4c7.5,0,14.7,0.9,20.3,2.4
		c4.5,1.2,6.8,2.6,7.8,3.4c-1,0.8-3.3,2.2-7.8,3.4c-5.6,1.6-12.9,2.4-20.3,2.4c-7.5,0-14.7-0.9-20.3-2.4c-4.5-1.2-6.8-2.6-7.8-3.4
		C94.7,10.5,97.1,9.2,101.5,7.9z M98.6,19.6v7c-5.1-1.8-6.6-3.5-6.7-4v-5.9c0,0-0.1,0-0.1-0.1C93.6,17.8,95.9,18.8,98.6,19.6z
		 M121.8,34.1c10.4,0,19.7-1.6,26-4c1,0.5,1.7,1,2.1,1.3c-1,0.8-3.3,2.2-7.8,3.4c-5.6,1.6-12.9,2.4-20.3,2.4
		c-7.5,0-14.7-0.9-20.3-2.4c-4.5-1.2-6.8-2.6-7.8-3.4c0.4-0.4,1.1-0.8,2.1-1.3C102.1,32.5,111.4,34.1,121.8,34.1z M121.8,54.1
		c10.4,0,19.7-1.6,26-4c1,0.5,1.7,1,2.1,1.3c-1,0.8-3.3,2.2-7.8,3.4c-5.6,1.6-12.9,2.4-20.3,2.4c-7.5,0-14.7-0.9-20.3-2.4
		c-4.5-1.2-6.8-2.6-7.8-3.4c0.4-0.4,1.1-0.8,2.1-1.3C102.1,52.5,111.4,54.1,121.8,54.1z M61.5,63c5.6-1.6,12.9-2.4,20.3-2.4
		s14.7,0.9,20.3,2.4c4.5,1.2,6.8,2.6,7.8,3.4c-1,0.8-3.3,2.2-7.8,3.4c-5.6,1.6-12.9,2.4-20.3,2.4s-14.7-0.9-20.3-2.4
		c-4.5-1.2-6.8-2.6-7.8-3.4C54.7,65.6,57,64.2,61.5,63z M58.6,74.7v7c-5.1-1.8-6.6-3.5-6.7-4v-5.9c0,0-0.1,0-0.1-0.1
		C53.6,72.9,55.9,73.8,58.6,74.7z M13.7,83c5.6-1.6,12.9-2.4,20.3-2.4c5.8,0,11.4,0.5,16.2,1.5c0,0,0,0,0.1,0.1
		c-0.4,0.3-0.7,0.6-1,0.9c-0.1,0.1-0.1,0.1-0.1,0.2c-0.1,0.1-0.2,0.2-0.3,0.3c-0.1,0.1-0.1,0.1-0.1,0.2c-0.1,0.1-0.2,0.2-0.2,0.3
		c0,0.1-0.1,0.1-0.1,0.2c-0.1,0.1-0.1,0.2-0.2,0.3c0,0.1-0.1,0.1-0.1,0.2c0,0.1-0.1,0.2-0.1,0.3c0,0.1,0,0.1-0.1,0.2
		c0,0.1-0.1,0.2-0.1,0.4c0,0.1,0,0.1,0,0.2c0,0.2,0,0.4,0,0.6c0,0.9,0,2.8,0,4.8c-4.2,0.7-8.9,1-13.7,1c-7.5,0-14.7-0.9-20.3-2.4
		c-4.5-1.2-6.8-2.6-7.8-3.4C6.9,85.6,9.3,84.2,13.7,83z M10.8,94.7v7c-5.1-1.8-6.6-3.5-6.7-4v-5.9c0,0-0.1,0-0.1-0.1
		C5.8,92.9,8.1,93.9,10.8,94.7z M10.8,121.7c-5.1-1.8-6.6-3.5-6.7-4v-5.9c0,0-0.1,0-0.1-0.1c1.8,1.1,4.1,2.1,6.8,2.9V121.7z
		 M5.9,106.4c0.4-0.4,1.1-0.8,2.1-1.3c6.2,2.5,15.6,4,26,4c4.9,0,9.5-0.3,13.7-1c0,0.9,0,2,0,3.1c-4.2,0.7-8.9,1-13.7,1
		c-7.5,0-14.7-0.9-20.3-2.4C9.3,108.6,6.9,107.2,5.9,106.4z M22.4,117.1v7.2c-1.1-0.1-2.2-0.3-3.2-0.5v-7.2c0,0-0.1,0-0.1,0
		C20.2,116.8,21.3,117,22.4,117.1C22.5,117.1,22.5,117.1,22.4,117.1z M31.3,125c-1.2,0-2.4-0.1-3.5-0.2v-7.2
		c1.2,0.1,2.3,0.1,3.5,0.2V125z M34.1,125v-7.2c0,0,0,0,0,0c0,0,0,0,0,0c4.9,0,9.5-0.3,13.7-1c0,0.4,0,0.7,0,1c0,1.5,0.9,3,2.6,4.3
		c-0.4,0.3-0.7,0.6-1,0.9c-0.1,0.1-0.1,0.1-0.1,0.2c-0.1,0.1-0.2,0.2-0.3,0.3c-0.1,0.1-0.1,0.1-0.1,0.2c0,0-0.1,0.1-0.1,0.1
		C44.2,124.6,39.2,125,34.1,125L34.1,125z M58.6,141.8c-5.1-1.8-6.6-3.5-6.7-4v-5.9c0,0-0.1,0-0.1-0.1c1.8,1.1,4.1,2.1,6.8,2.9
		V141.8z M53.7,126.4c0.4-0.4,1.1-0.8,2.1-1.3c5.5,2.2,13.3,3.6,22.2,3.9c0.4,1.1,1.2,2.1,2.4,3.1c-0.1,0.1-0.1,0.1-0.2,0.2
		c-6.9-0.1-13.5-1-18.7-2.4C57,128.6,54.7,127.3,53.7,126.4z M70.2,137.1v7.2c-1.1-0.1-2.2-0.3-3.2-0.5v-7.2c0,0-0.1,0-0.1,0
		C68,136.8,69.1,137,70.2,137.1C70.2,137.1,70.2,137.1,70.2,137.1z M75.6,137.6c0.7,0,1.5,0.1,2.2,0.1c0,1.9,0,4.9,0,7.2
		c-0.7,0-1.5-0.1-2.2-0.1V137.6z M88.6,171.8c-5.1-1.8-6.6-3.5-6.7-4v-5.9c0,0-0.1,0-0.1-0.1c1.8,1.1,4.1,2.1,6.8,2.9V171.8z
		 M100.2,167.1v7.2c-1.1-0.1-2.2-0.3-3.2-0.5v-7.2c0,0-0.1,0-0.1,0C98,166.8,99.1,167,100.2,167.1
		C100.3,167.1,100.2,167.1,100.2,167.1z M109.1,175c-1.2,0-2.4-0.1-3.5-0.2v-7.2c1.2,0.1,2.3,0.1,3.5,0.2V175z M141.8,161.9v5.9
		c-0.1,0.5-1.9,2.5-8,4.4c-5.9,1.8-13.7,2.8-21.9,2.8h0v-7.2c0,0,0,0,0,0c0,0,0,0,0,0C124.8,167.8,136.1,165.4,141.8,161.9
		C141.8,161.8,141.8,161.9,141.8,161.9z M139.9,156.5c-1,0.8-3.3,2.2-7.8,3.4c-5.6,1.6-12.9,2.4-20.3,2.4s-14.7-0.9-20.3-2.4
		c-4.5-1.2-6.8-2.6-7.8-3.4c0.4-0.4,1.1-0.8,2.1-1.3c6.2,2.5,15.6,4,26,4c10.4,0,19.7-1.6,26-4C138.8,155.6,139.5,156.1,139.9,156.5
		z M141.8,147.8c-0.1,0.5-1.9,2.5-8,4.4c-5.9,1.8-13.7,2.8-21.9,2.8h0v-7.2c0,0,0,0,0,0c0,0,0,0,0,0c13,0,24.3-2.4,30-6
		c0,0-0.1,0-0.1,0.1V147.8z M150.3,137.1v7.2c-1.1-0.1-2.2-0.3-3.2-0.5v-7.2c0,0-0.1,0-0.1,0C148,136.8,149.2,137,150.3,137.1
		C150.3,137.1,150.3,137.1,150.3,137.1z M159.2,145c-1.2,0-2.4-0.1-3.5-0.2v-7.2c1.2,0.1,2.3,0.1,3.5,0.2V145z M191.8,131.9v5.9
		c-0.1,0.5-1.9,2.5-8,4.4c-5.9,1.8-13.7,2.8-21.9,2.8h0v-7.2c0,0,0,0,0,0c0,0,0,0,0,0C174.9,137.8,186.1,135.4,191.8,131.9
		C191.9,131.8,191.8,131.8,191.8,131.9z M190,126.4c-1,0.8-3.3,2.2-7.8,3.4c-5.6,1.6-12.9,2.4-20.3,2.4c-6.1,0-12-0.6-17.1-1.7
		c0.7-0.9,1.1-1.9,1.1-2.9c4.8,0.8,10.2,1.3,16,1.3c10.4,0,19.7-1.6,26-4C188.8,125.6,189.6,126.1,190,126.4z M183.8,122.2
		c-5.9,1.8-13.7,2.8-21.9,2.8h0v-7.2c0,0,0,0,0,0c0,0,0,0,0,0c13,0,24.3-2.4,30-6c0,0-0.1,0-0.1,0.1v5.9
		C191.7,118.2,189.9,120.3,183.8,122.2z M213.4,101.8v5.9c-0.1,0.5-1.9,2.5-8,4.4c-2.8,0.9-6,1.5-9.5,2c0-2.5,0-5.6,0-7.2
		C203.5,106,209.7,104.1,213.4,101.8C213.5,101.8,213.5,101.8,213.4,101.8z M211.6,96.4c-1,0.8-3.3,2.2-7.8,3.4
		c-3.2,0.9-6.9,1.5-10.9,1.9c-0.1-0.1-0.2-0.2-0.4-0.3c0,0-0.1-0.1-0.1-0.1c-0.2-0.1-0.4-0.2-0.6-0.4c-0.1,0-0.2-0.1-0.2-0.1
		c-0.2-0.1-0.3-0.2-0.5-0.3c-0.1-0.1-0.2-0.1-0.3-0.2c-0.2-0.1-0.4-0.2-0.6-0.3c-0.1,0-0.2-0.1-0.3-0.1c-0.3-0.1-0.6-0.3-0.9-0.4
		c-0.2-0.1-0.4-0.2-0.6-0.2c-0.3-0.1-0.6-0.3-1-0.4c8.7-0.4,16.4-1.8,21.8-3.9C210.5,95.6,211.2,96.1,211.6,96.4z"/>
	<path class="st0" d="M115.6,105.1C115.6,105.1,115.6,105.1,115.6,105.1c0.1,0,0.2,0.1,0.3,0.1c0.3,0,0.7,0,1,0c0.2,0,0.5,0,0.7,0
		c0.3,0,0.6,0,0.9,0.1c0.2,0,0.4,0,0.6,0v-2.6c-1.2,0-2.4-0.1-3.5-0.2V105.1z"/>
	<path class="st0" d="M121.8,102.8C121.8,102.8,121.8,102.8,121.8,102.8l0,2.8c0.2,0,0.4,0,0.5,0.1c0.3,0,0.6,0.1,0.8,0.1
		c0.2,0,0.5,0.1,0.7,0.1c0.3,0,0.5,0.1,0.8,0.1c0.2,0,0.5,0.1,0.7,0.1c0.3,0,0.5,0.1,0.8,0.1c0.2,0,0.4,0.1,0.7,0.1
		c0.3,0,0.5,0.1,0.8,0.1c0.1,0,0.1,0,0.2,0c0-0.2,0-0.4,0-0.5c0-0.1,0-0.1,0-0.2c0-0.1,0-0.2,0.1-0.4c0-0.1,0-0.1,0.1-0.2
		c0-0.1,0.1-0.2,0.1-0.3c0-0.1,0.1-0.1,0.1-0.2c0.1-0.1,0.1-0.2,0.2-0.3c0-0.1,0.1-0.1,0.1-0.2c0.1-0.1,0.1-0.2,0.2-0.3
		c0-0.1,0.1-0.1,0.1-0.2c0.1-0.1,0.2-0.2,0.3-0.3c0-0.1,0.1-0.1,0.1-0.2c0.2-0.2,0.4-0.4,0.6-0.6
		C127.4,102.6,124.7,102.8,121.8,102.8C121.8,102.8,121.8,102.8,121.8,102.8z"/>
	<path class="st0" d="M115.9,93.9c0,1.2,0,2.4,0,3.2c2,0.1,4,0.2,6,0.2c7.5,0,14.7-0.9,20.3-2.4c4.5-1.2,6.8-2.6,7.8-3.4
		c-0.4-0.4-1.1-0.8-2.1-1.3c-6.2,2.5-15.6,4-26,4C119.8,94.1,117.8,94,115.9,93.9z"/>
	<path class="st0" d="M115.6,85.1C115.6,85.1,115.6,85.1,115.6,85.1c0,0.1,0.1,0.2,0.1,0.2c0,0.1,0.1,0.2,0.1,0.4c0,0.1,0,0.1,0,0.2
		c0,0.2,0,0.4,0,0.5c0,0.7,0,1.9,0,3.4c1.1,0.1,2.2,0.1,3.3,0.1v-7.2c-1.2,0-2.4-0.1-3.5-0.2V85.1z"/>
	<path class="st0" d="M121.8,82.7C121.8,82.7,121.8,82.7,121.8,82.7C121.8,82.7,121.8,82.7,121.8,82.7V90h0c8.2,0,16-1,21.9-2.8
		c6.2-1.9,7.9-3.9,8-4.4v-5.9c0,0,0.1,0,0.1-0.1C146.1,80.3,134.8,82.7,121.8,82.7z"/>
	<path class="st0" d="M115.9,73.9c0,1.2,0,2.4,0,3.2c2,0.1,4,0.2,6,0.2c7.5,0,14.7-0.9,20.3-2.4c4.5-1.2,6.8-2.6,7.8-3.4
		c-0.4-0.4-1.1-0.8-2.1-1.3c-6.2,2.5-15.6,4-26,4C119.8,74.1,117.8,74,115.9,73.9z"/>
	<path class="st0" d="M119.1,69.9v-7.2c-1.2,0-2.4-0.1-3.5-0.2v2.5c0,0,0,0,0,0.1c0,0.1,0,0.1,0.1,0.2c0,0.1,0.1,0.2,0.1,0.4
		c0,0.1,0,0.1,0,0.2c0,0.2,0,0.4,0,0.5c0,0.7,0,1.9,0,3.4C116.9,69.8,118,69.9,119.1,69.9z"/>
	<path class="st0" d="M121.8,62.7C121.8,62.7,121.8,62.7,121.8,62.7C121.8,62.7,121.8,62.7,121.8,62.7V70h0c8.2,0,16-1,21.9-2.8
		c6.2-1.9,7.9-3.9,8-4.4v-5.9c0,0,0.1,0,0.1-0.1C146.1,60.3,134.8,62.7,121.8,62.7z"/>
	<path class="st0" d="M101.5,54.8c5.6,1.6,12.9,2.4,20.3,2.4c7.5,0,14.7-0.9,20.3-2.4c4.5-1.2,6.8-2.6,7.8-3.4
		c-0.4-0.4-1.1-0.8-2.1-1.3c-6.2,2.5-15.6,4-26,4c-10.4,0-19.7-1.6-26-4c-1,0.5-1.7,1-2.1,1.3C94.7,52.2,97.1,53.6,101.5,54.8z"/>
	<path class="st0" d="M119.1,42.7c-1.2,0-2.4-0.1-3.5-0.2v7.2c1.2,0.1,2.3,0.1,3.5,0.2V42.7z"/>
	<path class="st0" d="M98.6,39.7c-2.7-0.8-5-1.8-6.8-2.9c0,0,0.1,0,0.1,0.1v5.9c0.1,0.4,1.6,2.2,6.7,4V39.7z"/>
	<path class="st0" d="M151.8,42.7v-5.9c0,0,0.1,0,0.1-0.1c-5.7,3.6-17,6-30,6c0,0,0,0,0,0c0,0,0,0,0,0v7.2h0c8.2,0,16-1,21.9-2.8
		C149.9,45.2,151.6,43.2,151.8,42.7z"/>
	<path class="st0" d="M110.2,42C110.2,42,110.3,42,110.2,42c-1.1-0.1-2.2-0.3-3.3-0.5c0,0,0.1,0,0.1,0v7.2c1.1,0.2,2.1,0.3,3.2,0.5
		V42z"/>
	<path class="st0" d="M101.5,34.8c5.6,1.6,12.9,2.4,20.3,2.4c7.5,0,14.7-0.9,20.3-2.4c4.5-1.2,6.8-2.6,7.8-3.4
		c-0.4-0.4-1.1-0.8-2.1-1.3c-6.2,2.5-15.6,4-26,4c-10.4,0-19.7-1.6-26-4c-1,0.5-1.7,1-2.1,1.3C94.7,32.2,97.1,33.6,101.5,34.8z"/>
	<path class="st0" d="M146.6,3.6C146.7,3.6,146.7,3.6,146.6,3.6C146.7,3.6,146.7,3.6,146.6,3.6z"/>
	<path class="st0" d="M119.1,22.7c-1.2,0-2.4-0.1-3.5-0.2v7.2c1.2,0.1,2.3,0.1,3.5,0.2V22.7z"/>
	<path class="st0" d="M91.9,22.7c0.1,0.4,1.6,2.2,6.7,4v-7c-2.7-0.8-5-1.8-6.8-2.9c0,0,0.1,0,0.1,0.1V22.7z"/>
	<path class="st0" d="M121.8,22.7C121.8,22.7,121.8,22.7,121.8,22.7C121.8,22.7,121.8,22.7,121.8,22.7v7.2h0c8.2,0,16-1,21.9-2.8
		c6.2-1.9,7.9-3.9,8-4.4v-5.9c0,0,0.1,0,0.1-0.1C146.1,20.3,134.8,22.7,121.8,22.7z"/>
	<path class="st0" d="M110.2,22C110.2,22,110.3,22,110.2,22c-1.1-0.1-2.2-0.3-3.3-0.5c0,0,0.1,0,0.1,0v7.2c1.1,0.2,2.1,0.3,3.2,0.5
		V22z"/>
	<path class="st0" d="M121.8,17.2c7.5,0,14.7-0.9,20.3-2.4c4.5-1.2,6.8-2.6,7.8-3.4c-1-0.8-3.3-2.2-7.8-3.4
		c-5.6-1.6-12.9-2.4-20.3-2.4c-7.5,0-14.7,0.9-20.3,2.4c-4.5,1.2-6.8,2.6-7.8,3.4c1,0.8,3.3,2.2,7.8,3.4
		C107.1,16.3,114.4,17.2,121.8,17.2z"/>
	<path class="st0" d="M27.8,124.8c1.2,0.1,2.3,0.1,3.5,0.2v-7.2c-1.2,0-2.4-0.1-3.5-0.2V124.8z"/>
	<path class="st0" d="M4.1,111.8v5.9c0.1,0.4,1.6,2.2,6.7,4v-7C8.1,113.9,5.8,112.9,4.1,111.8C4.1,111.8,4.1,111.8,4.1,111.8z"/>
	<path class="st0" d="M48.7,123.7c0-0.1,0.1-0.1,0.1-0.2c0.1-0.1,0.2-0.2,0.3-0.3c0-0.1,0.1-0.1,0.1-0.2c0.3-0.3,0.6-0.6,1-0.9
		c-1.7-1.3-2.6-2.8-2.6-4.3c0-0.2,0-0.6,0-1c-4.2,0.6-8.8,1-13.7,1c0,0,0,0,0,0c0,0,0,0,0,0v7.2h0c5.2,0,10.1-0.4,14.6-1.1
		C48.7,123.8,48.7,123.8,48.7,123.7z"/>
	<path class="st0" d="M19.2,116.6v7.2c1.1,0.2,2.1,0.3,3.2,0.5v-7.2c0,0,0.1,0,0.1,0C21.3,117,20.2,116.8,19.2,116.6
		C19.1,116.6,19.2,116.6,19.2,116.6z"/>
	<path class="st0" d="M47.8,111.3c0-1.1,0-2.2,0-3.1c-4.2,0.6-8.8,1-13.7,1c-10.4,0-19.7-1.6-26-4c-1,0.5-1.7,1-2.1,1.3
		c1,0.8,3.3,2.2,7.8,3.4c5.6,1.6,12.9,2.4,20.3,2.4C38.8,112.3,43.5,111.9,47.8,111.3z"/>
	<path class="st0" d="M31.3,97.7c-1.2,0-2.4-0.1-3.5-0.2v7.2c1.2,0.1,2.3,0.1,3.5,0.2V97.7z"/>
	<path class="st0" d="M4.1,97.7c0.1,0.4,1.6,2.2,6.7,4v-7c-2.7-0.8-5-1.8-6.8-2.9c0,0,0.1,0,0.1,0.1V97.7z"/>
	<path class="st0" d="M48.7,103.8c0,0,0.1-0.1,0.1-0.1c0-0.1,0.1-0.1,0.1-0.2c0.1-0.1,0.2-0.2,0.3-0.3c0-0.1,0.1-0.1,0.1-0.2
		c0.3-0.3,0.6-0.6,1-0.9c-1.7-1.3-2.6-2.8-2.6-4.3c0-0.2,0-0.6,0-1c-4.2,0.6-8.8,1-13.7,1c0,0,0,0,0,0c0,0,0,0,0,0v7.2h0
		C39.2,105,44.2,104.6,48.7,103.8z"/>
	<path class="st0" d="M22.4,97.1C22.5,97.1,22.5,97.1,22.4,97.1c-1.1-0.1-2.2-0.3-3.3-0.5c0,0,0.1,0,0.1,0v7.2
		c1.1,0.2,2.1,0.3,3.2,0.5V97.1z"/>
	<path class="st0" d="M34.1,92.3c4.8,0,9.5-0.4,13.7-1c0-2,0-3.9,0-4.8c0-0.2,0-0.4,0-0.6c0-0.1,0-0.1,0-0.2c0-0.1,0-0.2,0.1-0.4
		c0-0.1,0-0.1,0.1-0.2c0-0.1,0.1-0.2,0.1-0.3c0-0.1,0.1-0.1,0.1-0.2c0.1-0.1,0.1-0.2,0.2-0.3c0-0.1,0.1-0.1,0.1-0.2
		c0.1-0.1,0.1-0.2,0.2-0.3c0-0.1,0.1-0.1,0.1-0.2c0.1-0.1,0.2-0.2,0.3-0.3c0-0.1,0.1-0.1,0.1-0.2c0.3-0.3,0.6-0.6,1-0.9
		c0,0,0,0-0.1-0.1c-4.8-1-10.5-1.5-16.2-1.5c-7.5,0-14.7,0.9-20.3,2.4c-4.5,1.2-6.8,2.6-7.8,3.4c1,0.8,3.3,2.2,7.8,3.4
		C19.4,91.4,26.6,92.3,34.1,92.3z"/>
	<path class="st0" d="M77.8,137.7c-0.7,0-1.5-0.1-2.2-0.1v7.2c0.7,0,1.5,0.1,2.2,0.1C77.8,142.6,77.8,139.6,77.8,137.7z"/>
	<path class="st0" d="M51.9,131.9v5.9c0.1,0.4,1.6,2.2,6.7,4v-7C55.9,133.9,53.6,132.9,51.9,131.9C51.8,131.8,51.8,131.8,51.9,131.9
		z"/>
	<path class="st0" d="M66.9,136.7v7.2c1.1,0.2,2.1,0.3,3.2,0.5v-7.2c0,0,0.1,0,0.1,0C69.1,137,68,136.8,66.9,136.7
		C66.9,136.6,66.9,136.7,66.9,136.7z"/>
	<path class="st0" d="M80.4,132.1c-1.2-1-2-2-2.4-3.1c-8.9-0.3-16.7-1.8-22.2-3.9c-1,0.5-1.7,1-2.1,1.3c1,0.8,3.3,2.2,7.8,3.4
		c5.2,1.5,11.8,2.3,18.7,2.4C80.2,132.2,80.3,132.2,80.4,132.1z"/>
	<path class="st0" d="M77.8,117.7c-0.7,0-1.5-0.1-2.2-0.1v7.2c0.7,0,1.5,0.1,2.2,0.1C77.8,122.6,77.8,119.6,77.8,117.7z"/>
	<path class="st0" d="M51.9,117.7c0.1,0.4,1.6,2.2,6.7,4v-7c-2.7-0.8-5-1.8-6.8-2.9c0,0,0.1,0,0.1,0.1V117.7z"/>
	<path class="st0" d="M70.2,117.1C70.2,117.1,70.2,117.1,70.2,117.1c-1.1-0.1-2.2-0.3-3.3-0.5c0,0,0.1,0,0.1,0v7.2
		c1.1,0.2,2.1,0.3,3.2,0.5V117.1z"/>
	<path class="st0" d="M107.8,105.1c-0.1,0-0.1,0.1-0.2,0.1c0.1,0,0.2,0,0.3,0C107.9,105.1,107.8,105.1,107.8,105.1z"/>
	<path class="st0" d="M61.5,109.9c5.2,1.5,11.8,2.3,18.7,2.4c0.1-0.1,0.2-0.1,0.3-0.2c0.1-0.1,0.1-0.1,0.2-0.2
		c0.1-0.1,0.3-0.2,0.4-0.3c0.1-0.1,0.2-0.1,0.3-0.2c0.1-0.1,0.3-0.2,0.4-0.3c0.1-0.1,0.2-0.1,0.3-0.2c0.2-0.1,0.3-0.2,0.5-0.3
		c0.1-0.1,0.2-0.1,0.3-0.2c0.2-0.1,0.3-0.2,0.5-0.3c0.1-0.1,0.2-0.1,0.3-0.2c0.2-0.1,0.4-0.2,0.6-0.3c0.1,0,0.2-0.1,0.3-0.1
		c0.3-0.1,0.6-0.3,0.9-0.4c0,0,0,0,0,0c0.2-0.1,0.3-0.1,0.5-0.2c-1.4,0.1-2.8,0.1-4.3,0.1c-10.4,0-19.7-1.6-26-4
		c-1,0.5-1.7,1-2.1,1.3C54.7,107.2,57,108.6,61.5,109.9z"/>
	<path class="st0" d="M79.1,97.7c-1.2,0-2.4-0.1-3.5-0.2v7.2c1.2,0.1,2.3,0.1,3.5,0.2V97.7z"/>
	<path class="st0" d="M51.9,97.7c0.1,0.4,1.6,2.2,6.7,4v-7c-2.7-0.8-5-1.8-6.8-2.9c0,0,0.1,0,0.1,0.1V97.7z"/>
	<path class="st0" d="M103.7,102.2c6.2-1.9,7.9-3.9,8-4.4v-5.9c0,0,0.1,0,0.1-0.1c-5.7,3.6-17,6-30,6c0,0,0,0,0,0c0,0,0,0,0,0v7.2h0
		C90,105,97.8,104,103.7,102.2z"/>
	<path class="st0" d="M70.2,97.1C70.2,97.1,70.2,97.1,70.2,97.1c-1.1-0.1-2.2-0.3-3.3-0.5c0,0,0.1,0,0.1,0v7.2
		c1.1,0.2,2.1,0.3,3.2,0.5V97.1z"/>
	<path class="st0" d="M61.5,89.8c5.6,1.6,12.9,2.4,20.3,2.4s14.7-0.9,20.3-2.4c4.5-1.2,6.8-2.6,7.8-3.4c-0.4-0.4-1.1-0.8-2.1-1.3
		c-6.2,2.5-15.6,4-26,4c-10.4,0-19.7-1.6-26-4c-1,0.5-1.7,1-2.1,1.3C54.7,87.2,57,88.6,61.5,89.8z"/>
	<path class="st0" d="M106.7,58.7C106.7,58.6,106.6,58.6,106.7,58.7C106.6,58.6,106.7,58.6,106.7,58.7z"/>
	<path class="st0" d="M79.1,77.7c-1.2,0-2.4-0.1-3.5-0.2v7.2c1.2,0.1,2.3,0.1,3.5,0.2V77.7z"/>
	<path class="st0" d="M51.9,77.7c0.1,0.4,1.6,2.2,6.7,4v-7c-2.7-0.8-5-1.8-6.8-2.9c0,0,0.1,0,0.1,0.1V77.7z"/>
	<path class="st0" d="M81.8,77.7C81.8,77.7,81.8,77.7,81.8,77.7C81.8,77.7,81.8,77.7,81.8,77.7V85h0c8.2,0,16-1,21.9-2.8
		c6.2-1.9,7.9-3.9,8-4.4v-5.9c0,0,0.1,0,0.1-0.1C106.1,75.3,94.8,77.7,81.8,77.7z"/>
	<path class="st0" d="M70.2,77.1C70.2,77.1,70.2,77.1,70.2,77.1c-1.1-0.1-2.2-0.3-3.3-0.5c0,0,0.1,0,0.1,0v7.2
		c1.1,0.2,2.1,0.3,3.2,0.5V77.1z"/>
	<path class="st0" d="M81.8,72.3c7.5,0,14.7-0.9,20.3-2.4c4.5-1.2,6.8-2.6,7.8-3.4c-1-0.8-3.3-2.2-7.8-3.4
		c-5.6-1.6-12.9-2.4-20.3-2.4S67.1,61.4,61.5,63c-4.5,1.2-6.8,2.6-7.8,3.4c1,0.8,3.3,2.2,7.8,3.4C67.1,71.4,74.3,72.3,81.8,72.3z"/>
	<path class="st0" d="M155.7,144.8c1.2,0.1,2.3,0.1,3.5,0.2v-7.2c-1.2,0-2.4-0.1-3.5-0.2V144.8z"/>
	<path class="st0" d="M161.8,137.8C161.9,137.8,161.9,137.8,161.8,137.8l0,7.2h0c8.2,0,16-1,21.9-2.8c6.2-1.9,7.9-3.9,8-4.4v-5.9
		c0,0,0.1,0,0.1-0.1C186.1,135.4,174.9,137.8,161.8,137.8C161.9,137.8,161.9,137.8,161.8,137.8z"/>
	<path class="st0" d="M147,136.7v7.2c1.1,0.2,2.1,0.3,3.2,0.5v-7.2c0,0,0.1,0,0.1,0C149.2,137,148,136.8,147,136.7
		C146.9,136.6,147,136.7,147,136.7z"/>
	<path class="st0" d="M145.9,127.8c0,1-0.4,1.9-1.1,2.9c5,1.1,11,1.7,17.1,1.7c7.5,0,14.7-0.9,20.3-2.4c4.5-1.2,6.8-2.6,7.8-3.4
		c-0.4-0.4-1.1-0.8-2.1-1.3c-6.2,2.5-15.6,4-26,4C156.1,129.1,150.6,128.6,145.9,127.8z"/>
	<path class="st0" d="M186.8,98.7C186.7,98.7,186.7,98.7,186.8,98.7C186.7,98.7,186.7,98.7,186.8,98.7z"/>
	<path class="st0" d="M155.7,124.8c1.2,0.1,2.3,0.1,3.5,0.2v-7.2c-1.2,0-2.4-0.1-3.5-0.2V124.8z"/>
	<path class="st0" d="M191.8,117.7v-5.9c0,0,0.1,0,0.1-0.1c-5.7,3.6-17,6-30,6c0,0,0,0,0,0c0,0,0,0,0,0v7.2h0c8.2,0,16-1,21.9-2.8
		C189.9,120.3,191.7,118.2,191.8,117.7z"/>
	<path class="st0" d="M150.3,117.1C150.3,117.1,150.3,117.1,150.3,117.1c-1.1-0.1-2.2-0.3-3.3-0.5c0,0,0.1,0,0.1,0v7.2
		c1.1,0.2,2.1,0.3,3.2,0.5V117.1z"/>
	<path class="st0" d="M161.9,100.6c-7.5,0-14.7,0.9-20.3,2.4c-4.5,1.2-6.8,2.6-7.8,3.4c1,0.8,3.3,2.2,7.8,3.4
		c5.6,1.6,12.9,2.4,20.3,2.4c7.5,0,14.7-0.9,20.3-2.4c4.5-1.2,6.8-2.6,7.8-3.4c-1-0.8-3.3-2.2-7.8-3.4
		C176.6,101.4,169.3,100.6,161.9,100.6z"/>
	<path class="st0" d="M105.6,174.9c1.2,0.1,2.3,0.1,3.5,0.2v-7.2c-1.2,0-2.4-0.1-3.5-0.2V174.9z"/>
	<path class="st0" d="M81.9,161.9v5.9c0.1,0.4,1.6,2.2,6.7,4v-7C85.9,163.9,83.6,162.9,81.9,161.9C81.8,161.8,81.9,161.9,81.9,161.9
		z"/>
	<path class="st0" d="M111.8,167.8C111.8,167.8,111.8,167.8,111.8,167.8l0,7.2h0c8.2,0,16-1,21.9-2.8c6.2-1.9,7.9-3.9,8-4.4v-5.9
		c0,0,0.1,0,0.1-0.1C136.1,165.4,124.8,167.8,111.8,167.8C111.8,167.8,111.8,167.8,111.8,167.8z"/>
	<path class="st0" d="M97,166.7v7.2c1.1,0.2,2.1,0.3,3.2,0.5v-7.2c0,0,0.1,0,0.1,0C99.1,167,98,166.8,97,166.7
		C96.9,166.7,96.9,166.7,97,166.7z"/>
	<path class="st0" d="M85.9,155.1c-1,0.5-1.7,1-2.1,1.3c1,0.8,3.3,2.2,7.8,3.4c5.6,1.6,12.9,2.4,20.3,2.4s14.7-0.9,20.3-2.4
		c4.5-1.2,6.8-2.6,7.8-3.4c-0.4-0.4-1.1-0.8-2.1-1.3c-6.2,2.5-15.6,4-26,4C101.4,159.2,92.1,157.6,85.9,155.1z"/>
	<path class="st0" d="M109.1,147.8c-1.2,0-2.4-0.1-3.5-0.2v7.2c1.2,0.1,2.3,0.1,3.5,0.2V147.8z"/>
	<path class="st0" d="M88.6,144.7c-2.7-0.8-5-1.8-6.8-2.9c0,0,0.1,0,0.1,0.1v5.9c0.1,0.4,1.6,2.2,6.7,4V144.7z"/>
	<path class="st0" d="M141.8,141.8c-5.7,3.6-17,6-30,6c0,0,0,0,0,0c0,0,0,0,0,0v7.2h0c8.2,0,16-1,21.9-2.8c6.2-1.9,7.9-3.9,8-4.4
		L141.8,141.8C141.8,141.8,141.8,141.8,141.8,141.8z"/>
	<path class="st0" d="M100.2,147.1C100.2,147.1,100.3,147.1,100.2,147.1c-1.1-0.1-2.2-0.3-3.3-0.5c0,0,0.1,0,0.1,0v7.2
		c1.1,0.2,2.1,0.3,3.2,0.5V147.1z"/>
	<path class="st0" d="M137.8,135.1c-6.2,2.5-15.6,4-26,4c-10.4,0-19.7-1.6-26-4c-1,0.5-1.7,1-2.1,1.3c1,0.8,3.3,2.2,7.8,3.4
		c5.6,1.6,12.9,2.4,20.3,2.4s14.7-0.9,20.3-2.4c4.5-1.2,6.8-2.6,7.8-3.4C139.5,136.1,138.8,135.6,137.8,135.1z"/>
	<path class="st0" d="M136.7,108.7C136.7,108.7,136.7,108.7,136.7,108.7C136.7,108.7,136.7,108.7,136.7,108.7z"/>
	<path class="st0" d="M105.6,127.6v7.2c1.2,0.1,2.3,0.1,3.5,0.2v-7.2C107.9,127.7,106.8,127.7,105.6,127.6z"/>
	<path class="st0" d="M88.6,131.7v-7c-2.7-0.8-5-1.8-6.8-2.9c0,0,0.1,0,0.1,0.1v5.9C82,128.2,83.5,130,88.6,131.7z"/>
	<path class="st0" d="M141.8,121.8C141.8,121.8,141.8,121.8,141.8,121.8c-5.7,3.5-16.9,5.9-29.9,5.9c0,0,0,0,0,0c0,0,0,0,0,0v7.2h0
		c8.2,0,16-1,21.9-2.8c6.2-1.9,7.9-3.9,8-4.4V121.8z"/>
	<path class="st0" d="M100.2,127.1C100.2,127.1,100.3,127.1,100.2,127.1c-1.1-0.1-2.2-0.3-3.3-0.5c0,0,0.1,0,0.1,0v7.2
		c1.1,0.2,2.1,0.3,3.2,0.5V127.1z"/>
	<path class="st0" d="M139.9,116.4c-1-0.8-3.3-2.2-7.8-3.4c-5.6-1.6-12.9-2.4-20.3-2.4s-14.7,0.9-20.3,2.4c-4.5,1.2-6.8,2.6-7.8,3.4
		c1,0.8,3.3,2.2,7.8,3.4c5.6,1.6,12.9,2.4,20.3,2.4s14.7-0.9,20.3-2.4C136.6,118.6,138.9,117.3,139.9,116.4z"/>
</g>
</svg>
