<?xml version="1.0" encoding="utf-8"?>
<!-- Generator: Adobe Illustrator 24.0.3, SVG Export Plug-In . SVG Version: 6.00 Build 0)  -->
<svg version="1.1" id="Layer_1" xmlns="http://www.w3.org/2000/svg" xmlns:xlink="http://www.w3.org/1999/xlink" x="0px" y="0px"
	 viewBox="0 0 123 123" style="enable-background:new 0 0 123 123;" xml:space="preserve">
<style type="text/css">
	.st0{fill:#FFFFFF;}
</style>
<g>
	<g>
		<g id="hv3zpG.tif_10_">
			<g>
				<path class="st0" d="M59.9,8.9c0-1.5,0-2.9,0-4.4c0-0.8-0.2-1.5-0.7-2.1c-0.9-1.1-2.1-1.5-3.4-1.1c-0.4,0.1-0.8,0.3-1.1,0.6
					C50,5.3,45.3,8.6,40.7,12c-1.4,1-1.9,2.6-1.1,4c0.4,0.6,0.9,1.2,1.5,1.6c3.5,2.5,7,5,10.5,7.5c1.1,0.8,2.1,1.6,3.2,2.3
					c1.4,1,2.8,1,3.9,0c0.9-0.7,1.2-1.7,1.2-2.7c0-1.6,0-3.2,0-4.9c0-0.3,0-0.6,0-1c2,0.1,3.9,0.2,5.8,0.4c3,0.3,6,1,8.9,1.9
					c5.5,1.9,10.4,4.7,14.8,8.5c4.6,4.1,8.2,9,10.7,14.7c1.4,3.3,2.5,6.7,3.1,10.2c0.5,3.4,0.7,6.8,0.4,10.3c-0.5,6-2.1,11.6-5,16.8
					c-2.9,5.3-6.7,9.9-11.6,13.6c-5,3.8-10.6,6.5-16.8,7.8c-5.2,1.1-10.5,1.3-15.8,0.5c-6.5-1-12.4-3.4-17.8-7.2
					c-3.7-2.6-6.9-5.7-9.6-9.4c-3.6-4.8-6-10.1-7.4-15.9c-0.1-0.5-0.2-1.1-0.4-1.6c-0.5-2.1-1.9-3.3-3.9-3.7c-2-0.4-3.7,0.2-5,1.9
					c-1,1.3-1.3,2.7-1,4.2c1.7,8.4,5.2,15.9,10.5,22.6c6.5,8.1,14.7,13.8,24.5,17.1c6.2,2.1,12.7,3,19.2,2.7
					c11.5-0.6,21.8-4.4,30.7-11.7c10-8.1,16.3-18.5,18.6-31.2c2.5-13.3,0.2-25.7-6.7-37.3c-4.5-7.6-10.7-13.5-18.3-18
					c-4.2-2.5-8.7-4.3-13.5-5.6c-4.2-1.1-8.4-1.6-12.7-1.7C61.2,8.7,60.6,8.8,59.9,8.9z"/>
				<path class="st0" d="M9,54c0,2.8,2.4,5.1,5.2,5.1c2.7,0,5-2.3,5-5.1c0-2.8-2.3-5.1-5.1-5.1C11.3,48.9,9,51.2,9,54z"/>
				<path class="st0" d="M19.8,42.9c2.8,0.1,5.1-2.2,5.2-5.1c0.1-2.6-2.2-5-4.9-5.1c-3.3-0.1-5.2,2.5-5.3,4.8
					C14.7,40.5,16.9,42.9,19.8,42.9z"/>
				<path class="st0" d="M30.9,19.7c-2.8,0-5,2-5.1,4.8c-0.1,2.6,1.5,5.2,5.1,5.3c2.8,0.1,5-2.3,5.1-5
					C35.9,22.3,33.8,19.7,30.9,19.7z"/>
			</g>
		</g>
	</g>
</g>
</svg>
