<?xml version="1.0" encoding="utf-8"?>
<!-- Generator: Adobe Illustrator 24.0.3, SVG Export Plug-In . SVG Version: 6.00 Build 0)  -->
<svg version="1.1" id="Layer_1" xmlns="http://www.w3.org/2000/svg" xmlns:xlink="http://www.w3.org/1999/xlink" x="0px" y="0px"
	 viewBox="0 0 217.5 259.2" style="enable-background:new 0 0 217.5 259.2;" xml:space="preserve">
<style type="text/css">
	.st0{fill:#FFFFFF;}
	.st1{fill:#FFB600;}
</style>
<g>
	<path class="st0" d="M195.9,194.2c3.5-0.5,6.7-1.1,9.5-2c6.2-1.9,7.9-3.9,8-4.4v-5.9c0,0,0.1,0,0.1-0.1c-3.8,2.4-10,4.2-17.6,5.2
		C195.9,188.7,195.9,191.7,195.9,194.2z"/>
	<path class="st0" d="M193.8,181.8c3.6-0.4,7.1-1,10-1.9c4.5-1.2,6.8-2.6,7.8-3.4c-0.4-0.4-1.1-0.8-2.1-1.3
		c-3.6,1.4-8.3,2.5-13.6,3.2C195.7,179.6,195,180.7,193.8,181.8z"/>
	<path class="st0" d="M195.9,167c0,1.6,0,4.7,0,7.2c3.5-0.5,6.7-1.1,9.5-2c6.2-1.9,7.9-3.9,8-4.4v-5.9c0,0,0.1,0,0.1-0.1
		C209.7,164.2,203.5,166,195.9,167z"/>
	<path class="st0" d="M193.8,161.8c3.6-0.4,7.1-1,10-1.9c4.5-1.2,6.8-2.6,7.8-3.4c-0.4-0.4-1.1-0.8-2.1-1.3
		c-3.6,1.4-8.3,2.5-13.6,3.2C195.7,159.6,195,160.7,193.8,161.8z"/>
	<path class="st0" d="M195.9,147c0,1.6,0,4.7,0,7.2c3.5-0.5,6.7-1.1,9.5-2c6.2-1.9,7.9-3.9,8-4.4v-5.9c0,0,0.1,0,0.1-0.1
		C209.7,144.2,203.5,146,195.9,147z"/>
	<path class="st0" d="M193.8,141.7c3.6-0.4,7.1-1,10-1.9c4.5-1.2,6.8-2.6,7.8-3.4c-0.4-0.4-1.1-0.8-2.1-1.3
		c-3.6,1.4-8.3,2.5-13.6,3.2C195.7,139.5,195,140.7,193.8,141.7z"/>
	<path class="st0" d="M195.9,127c0,1.6,0,4.7,0,7.2c3.5-0.5,6.7-1.1,9.5-2c6.2-1.9,7.9-3.9,8-4.4v-5.9c0,0,0.1,0,0.1-0.1
		C209.7,124.2,203.5,126,195.9,127z"/>
	<path class="st0" d="M157.3,115.2c0,0,0.1,0,0.1,0c0.1,0,0.2,0,0.3,0c-0.1,0-0.1,0-0.2-0.1C157.5,115.1,157.4,115.2,157.3,115.2z"
		/>
	<path class="st0" d="M188.6,119.4c0.2,0.1,0.4,0.2,0.6,0.2c0.3,0.1,0.6,0.3,0.9,0.4c0.1,0,0.2,0.1,0.3,0.1c0.2,0.1,0.4,0.2,0.6,0.3
		c0.1,0.1,0.2,0.1,0.3,0.2c0.2,0.1,0.3,0.2,0.5,0.3c0.1,0,0.2,0.1,0.2,0.1c0.2,0.1,0.4,0.2,0.6,0.4c0,0,0.1,0.1,0.1,0.1
		c0.1,0.1,0.3,0.2,0.4,0.3c4-0.4,7.7-1.1,10.9-1.9c4.5-1.2,6.8-2.6,7.8-3.4c-0.4-0.4-1.1-0.8-2.1-1.3c-5.4,2.1-13.1,3.6-21.8,3.9
		C188,119.2,188.3,119.3,188.6,119.4z"/>
	<path class="st0" d="M208.3,88.6C208.3,88.7,208.3,88.7,208.3,88.6C208.3,88.7,208.3,88.7,208.3,88.6z"/>
	<path class="st0" d="M177.3,107.6v7.2c1.2,0.1,2.3,0.1,3.5,0.2v-7.2C179.6,107.7,178.4,107.7,177.3,107.6z"/>
	<path class="st0" d="M153.7,107.5c0.1,0.1,0.1,0.1,0.2,0.2c0.1,0.1,0.2,0.2,0.3,0.3c0.1,0.1,0.1,0.1,0.2,0.2
		c0.1,0.1,0.2,0.2,0.3,0.4c0,0,0.1,0.1,0.1,0.1c0.1,0.2,0.2,0.3,0.3,0.5c0,0,0,0.1,0.1,0.1c0,0.1,0.1,0.1,0.1,0.2
		c1,0.7,2.6,1.5,4.9,2.3v-7c-1.6-0.5-3.1-1.1-4.4-1.7c-0.1,1.4-0.9,2.7-2.3,3.9v0.4C153.6,107.4,153.7,107.4,153.7,107.5z"/>
	<path class="st0" d="M183.5,107.8C183.5,107.8,183.5,107.8,183.5,107.8C183.5,107.8,183.5,107.8,183.5,107.8v7.2h0
		c8.2,0,16-1,21.9-2.8c6.2-1.9,7.9-3.9,8-4.4v-5.9c0,0,0.1,0,0.1-0.1C207.8,105.3,196.5,107.8,183.5,107.8z"/>
	<path class="st0" d="M168.6,113.8c1.1,0.2,2.1,0.3,3.2,0.5v-7.2c0,0,0.1,0,0.1,0c-1.2-0.1-2.3-0.3-3.4-0.5c0,0,0.1,0,0.1,0V113.8z"
		/>
	<path class="st0" d="M155.9,96.8c1.2,0.8,3.4,2,7.3,3c5.6,1.6,12.9,2.4,20.3,2.4c7.5,0,14.7-0.9,20.3-2.4c4.5-1.2,6.8-2.6,7.8-3.4
		c-1-0.8-3.3-2.2-7.8-3.4c-5.6-1.6-12.9-2.4-20.3-2.4c-7.5,0-14.7,0.9-20.3,2.4c-3.8,1.1-6.1,2.2-7.3,3
		C155.9,96.3,155.9,96.5,155.9,96.8z"/>
	<path class="st1" d="M217.5,107.8c0-2.1,0-9.3,0-11.4c0-0.2,0-0.4,0-0.5c0-0.1,0-0.1,0-0.2c0-0.1,0-0.2-0.1-0.4
		c0-0.1,0-0.1-0.1-0.2c0-0.1-0.1-0.2-0.1-0.4c0-0.1,0-0.1-0.1-0.2c-0.1-0.1-0.1-0.3-0.2-0.4c0,0,0-0.1-0.1-0.1
		c-0.1-0.2-0.2-0.3-0.3-0.5c0,0-0.1-0.1-0.1-0.1c-0.1-0.1-0.2-0.2-0.3-0.4c-0.1-0.1-0.1-0.1-0.2-0.2c-0.1-0.1-0.2-0.2-0.3-0.3
		c-0.1-0.1-0.1-0.1-0.2-0.2c-0.1-0.1-0.3-0.2-0.4-0.3c-0.1,0-0.1-0.1-0.2-0.1c-0.2-0.2-0.4-0.3-0.6-0.5c0,0-0.1-0.1-0.1-0.1
		c-0.2-0.1-0.4-0.2-0.6-0.4c-0.1,0-0.2-0.1-0.2-0.1c-0.2-0.1-0.3-0.2-0.5-0.3c-0.1-0.1-0.2-0.1-0.3-0.2c-0.2-0.1-0.4-0.2-0.6-0.3
		c-0.1,0-0.2-0.1-0.3-0.1c-0.3-0.1-0.6-0.3-0.9-0.4c-0.2-0.1-0.4-0.2-0.6-0.2c-0.5-0.2-1-0.4-1.5-0.6c-0.1,0-0.2-0.1-0.3-0.1
		c0,0-0.1,0-0.1,0c-0.6-0.2-1.2-0.4-1.9-0.6c0,0-0.1,0-0.1,0c-0.4-0.1-0.7-0.2-1.1-0.3c-0.1,0-0.3-0.1-0.4-0.1
		c-0.3-0.1-0.5-0.1-0.8-0.2c-0.2,0-0.3-0.1-0.5-0.1c-0.3-0.1-0.5-0.1-0.8-0.2c-0.2,0-0.4-0.1-0.6-0.1c-0.3-0.1-0.5-0.1-0.8-0.2
		c-0.2,0-0.4-0.1-0.6-0.1c-0.3-0.1-0.5-0.1-0.8-0.1c-0.2,0-0.4-0.1-0.6-0.1c-0.3,0-0.5-0.1-0.8-0.1c-0.2,0-0.4-0.1-0.7-0.1
		c-0.3,0-0.5-0.1-0.8-0.1c-0.2,0-0.4-0.1-0.7-0.1c-0.3,0-0.5-0.1-0.8-0.1c-0.2,0-0.5-0.1-0.7-0.1c-0.3,0-0.6-0.1-0.8-0.1
		c-0.2,0-0.5-0.1-0.7-0.1c-0.3,0-0.6-0.1-0.9-0.1c-0.2,0-0.5,0-0.7-0.1c-0.3,0-0.6,0-0.9-0.1c-0.2,0-0.5,0-0.7-0.1
		c-0.3,0-0.6,0-0.9-0.1c-0.2,0-0.5,0-0.7,0c-0.3,0-0.7,0-1,0c-0.2,0-0.4,0-0.7,0c-0.4,0-0.7,0-1.1,0c-0.2,0-0.4,0-0.6,0
		c-0.6,0-1.1,0-1.7,0c-0.6,0-1.2,0-1.9,0c-0.2,0-0.4,0-0.6,0c-0.4,0-0.8,0-1.2,0c-0.2,0-0.5,0-0.7,0c-0.4,0-0.7,0-1.1,0.1
		c-0.2,0-0.5,0-0.7,0c-0.4,0-0.7,0-1.1,0.1c-0.2,0-0.5,0-0.7,0.1c-0.3,0-0.7,0.1-1,0.1c-0.2,0-0.5,0-0.7,0.1c-0.4,0-0.7,0.1-1,0.1
		c-0.2,0-0.4,0-0.7,0.1c-0.4,0-0.8,0.1-1.1,0.1c-0.2,0-0.4,0-0.5,0.1c-1.1,0.2-2.1,0.3-3.2,0.5c-0.2,0-0.3,0.1-0.5,0.1
		c-0.3,0.1-0.7,0.1-1,0.2c-0.2,0-0.4,0.1-0.6,0.1c-0.3,0.1-0.6,0.1-0.9,0.2c-0.2,0-0.4,0.1-0.6,0.1c-0.3,0.1-0.6,0.1-0.8,0.2
		c-0.2,0-0.4,0.1-0.6,0.1c-0.3,0.1-0.5,0.1-0.8,0.2c-0.2,0.1-0.4,0.1-0.5,0.2c-0.3,0.1-0.5,0.2-0.8,0.2c-0.2,0.1-0.3,0.1-0.5,0.2
		c-0.3,0.1-0.6,0.2-0.8,0.3c-0.1,0-0.3,0.1-0.4,0.1c-0.4,0.1-0.8,0.3-1.1,0.4c0,0,0,0,0,0c-0.3,0.1-0.6,0.3-0.9,0.4
		c-0.1,0-0.2,0.1-0.3,0.1c-0.1,0.1-0.3,0.1-0.4,0.2c0,0,0-0.1,0-0.1c0-0.1,0-0.1-0.1-0.2c-0.1-0.1-0.1-0.3-0.2-0.4
		c0,0,0-0.1-0.1-0.1c-0.1-0.2-0.2-0.3-0.3-0.5c0,0-0.1-0.1-0.1-0.1c-0.1-0.1-0.2-0.2-0.3-0.4c-0.1-0.1-0.1-0.1-0.2-0.2
		c-0.1-0.1-0.2-0.2-0.3-0.3c-0.1-0.1-0.1-0.1-0.2-0.2c-0.1-0.1-0.3-0.2-0.4-0.3c0,0,0,0,0,0c1.7-1.3,2.6-2.8,2.6-4.3
		c0-2.1,0-9.3,0-11.4c0-0.2,0-0.4,0-0.5c0-0.1,0-0.1,0-0.2c0-0.1,0-0.2-0.1-0.4c0-0.1,0-0.1-0.1-0.2c0-0.1-0.1-0.2-0.1-0.4
		c0-0.1,0-0.1-0.1-0.2c-0.1-0.1-0.1-0.3-0.2-0.4c0,0,0-0.1-0.1-0.1c-0.1-0.2-0.2-0.3-0.3-0.5c0,0-0.1-0.1-0.1-0.1
		c-0.1-0.1-0.2-0.2-0.3-0.4c-0.1-0.1-0.1-0.1-0.2-0.2c-0.1-0.1-0.2-0.2-0.3-0.3c-0.1-0.1-0.1-0.1-0.2-0.2c-0.1-0.1-0.3-0.2-0.4-0.3
		c0,0,0,0,0,0c1.7-1.3,2.6-2.8,2.6-4.3c0-2.1,0-9.3,0-11.4c0-0.2,0-0.4,0-0.5c0-0.1,0-0.1,0-0.2c0-0.1,0-0.2-0.1-0.4
		c0-0.1,0-0.1-0.1-0.2c0-0.1-0.1-0.2-0.1-0.4c0-0.1,0-0.1-0.1-0.2c-0.1-0.1-0.1-0.3-0.2-0.4c0,0,0-0.1-0.1-0.1
		c-0.1-0.2-0.2-0.3-0.3-0.5c0,0-0.1-0.1-0.1-0.1c-0.1-0.1-0.2-0.2-0.3-0.4c-0.1-0.1-0.1-0.1-0.2-0.2c-0.1-0.1-0.2-0.2-0.3-0.3
		c-0.1-0.1-0.1-0.1-0.2-0.2c-0.1-0.1-0.3-0.2-0.4-0.3c0,0,0,0,0,0c1.7-1.3,2.6-2.8,2.6-4.3c0-2.1,0-9.3,0-11.4c0-0.2,0-0.4,0-0.5
		c0-0.1,0-0.1,0-0.2c0-0.1,0-0.2-0.1-0.4c0-0.1,0-0.1-0.1-0.2c0-0.1-0.1-0.2-0.1-0.4c0-0.1,0-0.1-0.1-0.2c-0.1-0.1-0.1-0.3-0.2-0.4
		c0,0,0-0.1-0.1-0.1c-0.1-0.2-0.2-0.3-0.3-0.5c0,0-0.1-0.1-0.1-0.1c-0.1-0.1-0.2-0.2-0.3-0.4c-0.1-0.1-0.1-0.1-0.2-0.2
		c-0.1-0.1-0.2-0.2-0.3-0.3c-0.1-0.1-0.1-0.1-0.2-0.2c-0.1-0.1-0.3-0.2-0.4-0.3c0,0,0,0,0,0c1.7-1.3,2.6-2.8,2.6-4.3
		c0-2.1,0-9.3,0-11.4c0-0.2,0-0.4,0-0.5c0-0.1,0-0.1,0-0.2c0-0.1,0-0.2-0.1-0.4c0-0.1,0-0.1-0.1-0.2c0-0.1-0.1-0.2-0.1-0.4
		c0-0.1,0-0.1-0.1-0.2c-0.1-0.1-0.1-0.3-0.2-0.4c0,0,0-0.1-0.1-0.1c-0.1-0.2-0.2-0.3-0.3-0.5c0,0-0.1-0.1-0.1-0.1
		c-0.1-0.1-0.2-0.2-0.3-0.4c-0.1-0.1-0.1-0.1-0.2-0.2c-0.1-0.1-0.2-0.2-0.3-0.3c-0.1-0.1-0.1-0.1-0.2-0.2c-0.1-0.1-0.3-0.2-0.4-0.3
		c-0.1,0-0.1-0.1-0.2-0.1c-0.2-0.2-0.4-0.3-0.6-0.5c0,0-0.1-0.1-0.1-0.1c-0.2-0.1-0.4-0.2-0.6-0.4c-0.1,0-0.2-0.1-0.2-0.1
		c-0.2-0.1-0.3-0.2-0.5-0.3c-0.1-0.1-0.2-0.1-0.3-0.2c-0.2-0.1-0.4-0.2-0.6-0.3c-0.1,0-0.2-0.1-0.3-0.1c-0.3-0.1-0.6-0.3-0.9-0.4
		c-0.2-0.1-0.4-0.2-0.6-0.2c-0.5-0.2-1-0.4-1.5-0.6c-0.1,0-0.2-0.1-0.3-0.1c0,0-0.1,0-0.1,0c-0.6-0.2-1.2-0.4-1.9-0.6
		c0,0-0.1,0-0.1,0c-0.4-0.1-0.7-0.2-1.1-0.3c-0.1,0-0.3-0.1-0.4-0.1c-0.3-0.1-0.5-0.1-0.8-0.2c-0.2,0-0.3-0.1-0.5-0.1
		C141.5,2.1,141.3,2,141,2c-0.2,0-0.4-0.1-0.6-0.1c-0.3-0.1-0.5-0.1-0.8-0.2c-0.2,0-0.4-0.1-0.6-0.1c-0.3-0.1-0.5-0.1-0.8-0.1
		c-0.2,0-0.4-0.1-0.6-0.1c-0.3,0-0.5-0.1-0.8-0.1c-0.2,0-0.4-0.1-0.7-0.1c-0.3,0-0.5-0.1-0.8-0.1c-0.2,0-0.4-0.1-0.7-0.1
		c-0.3,0-0.5-0.1-0.8-0.1c-0.2,0-0.5-0.1-0.7-0.1c-0.3,0-0.6-0.1-0.8-0.1c-0.2,0-0.5-0.1-0.7-0.1c-0.3,0-0.6-0.1-0.9-0.1
		c-0.2,0-0.5,0-0.7-0.1c-0.3,0-0.6,0-0.9-0.1c-0.2,0-0.5,0-0.7-0.1c-0.3,0-0.6,0-0.9-0.1c-0.2,0-0.5,0-0.7,0c-0.3,0-0.7,0-1,0
		c-0.2,0-0.4,0-0.7,0c-0.4,0-0.7,0-1.1,0c-0.2,0-0.4,0-0.6,0c-0.6,0-1.1,0-1.7,0c-0.6,0-1.2,0-1.9,0c-0.2,0-0.4,0-0.6,0
		c-0.4,0-0.8,0-1.2,0c-0.2,0-0.5,0-0.7,0c-0.4,0-0.7,0-1.1,0.1c-0.2,0-0.5,0-0.7,0c-0.4,0-0.7,0-1.1,0.1c-0.2,0-0.5,0-0.7,0.1
		c-0.3,0-0.7,0.1-1,0.1c-0.2,0-0.5,0-0.7,0.1c-0.4,0-0.7,0.1-1,0.1c-0.2,0-0.4,0-0.7,0.1c-0.4,0-0.8,0.1-1.1,0.1
		c-0.2,0-0.4,0-0.5,0.1c-1.1,0.2-2.1,0.3-3.2,0.5c-0.2,0-0.3,0.1-0.5,0.1c-0.3,0.1-0.7,0.1-1,0.2c-0.2,0-0.4,0.1-0.6,0.1
		c-0.3,0.1-0.6,0.1-0.9,0.2c-0.2,0-0.4,0.1-0.6,0.1c-0.3,0.1-0.6,0.1-0.8,0.2c-0.2,0-0.4,0.1-0.6,0.1c-0.3,0.1-0.5,0.1-0.8,0.2
		c-0.2,0.1-0.4,0.1-0.5,0.2C98.9,3,98.7,3,98.4,3.1c-0.2,0.1-0.3,0.1-0.5,0.2c-0.3,0.1-0.6,0.2-0.8,0.3c-0.1,0-0.3,0.1-0.4,0.1
		c-0.4,0.1-0.8,0.3-1.1,0.4c0,0,0,0,0,0c-0.3,0.1-0.6,0.3-0.9,0.4c-0.1,0-0.2,0.1-0.3,0.1c-0.2,0.1-0.4,0.2-0.6,0.3
		c-0.1,0.1-0.2,0.1-0.3,0.2c-0.2,0.1-0.3,0.2-0.5,0.3c-0.1,0.1-0.2,0.1-0.3,0.2c-0.2,0.1-0.3,0.2-0.5,0.3C92,5.9,91.9,6,91.8,6
		c-0.2,0.1-0.3,0.2-0.4,0.3c-0.1,0.1-0.2,0.1-0.3,0.2c-0.2,0.1-0.3,0.2-0.4,0.3c-0.1,0.1-0.1,0.1-0.2,0.2c-0.4,0.3-0.8,0.6-1.1,1
		c-0.1,0.1-0.1,0.1-0.1,0.2c-0.1,0.1-0.2,0.2-0.3,0.3c-0.1,0.1-0.1,0.1-0.1,0.2c-0.1,0.1-0.2,0.2-0.2,0.3c0,0.1-0.1,0.1-0.1,0.2
		c-0.1,0.1-0.1,0.2-0.2,0.3c0,0.1-0.1,0.1-0.1,0.2c0,0.1-0.1,0.2-0.1,0.3c0,0.1,0,0.1-0.1,0.2c0,0.1-0.1,0.2-0.1,0.4
		c0,0.1,0,0.1,0,0.2c0,0.2,0,0.4,0,0.6c0,2.1,0,9.3,0,11.4c0,1.5,0.9,3,2.6,4.3c-0.4,0.3-0.7,0.6-1,0.9c-0.1,0.1-0.1,0.1-0.1,0.2
		c-0.1,0.1-0.2,0.2-0.3,0.3c-0.1,0.1-0.1,0.1-0.1,0.2c-0.1,0.1-0.2,0.2-0.2,0.3c0,0.1-0.1,0.1-0.1,0.2c-0.1,0.1-0.1,0.2-0.2,0.3
		c0,0.1-0.1,0.1-0.1,0.2c0,0.1-0.1,0.2-0.1,0.3c0,0.1,0,0.1-0.1,0.2c0,0.1-0.1,0.2-0.1,0.4c0,0.1,0,0.1,0,0.2c0,0.2,0,0.4,0,0.6
		c0,2.1,0,9.3,0,11.4c0,1.5,0.9,3,2.6,4.3c-0.4,0.3-0.7,0.6-1,0.9c-0.1,0.1-0.1,0.1-0.1,0.2c-0.1,0.1-0.2,0.2-0.3,0.3
		c-0.1,0.1-0.1,0.1-0.1,0.2c-0.1,0.1-0.2,0.2-0.2,0.3c0,0.1-0.1,0.1-0.1,0.2c-0.1,0.1-0.1,0.2-0.2,0.3c0,0.1-0.1,0.1-0.1,0.2
		c0,0.1-0.1,0.2-0.1,0.3c0,0.1,0,0.1-0.1,0.2c0,0.1-0.1,0.2-0.1,0.4c0,0.1,0,0.1,0,0.2c0,0.2,0,0.4,0,0.6c0,2.1,0,9.3,0,11.4
		c0,1.5,0.9,3,2.6,4.3c-0.4,0.3-0.7,0.6-1,0.9c-0.1,0.1-0.1,0.1-0.1,0.2c-0.1,0.1-0.2,0.2-0.3,0.3c-0.1,0.1-0.1,0.1-0.1,0.2
		c-0.1,0.1-0.2,0.2-0.2,0.3c0,0.1-0.1,0.1-0.1,0.2c-0.1,0.1-0.1,0.2-0.2,0.3c0,0.1-0.1,0.1-0.1,0.2c0,0.1-0.1,0.2-0.1,0.3
		c0,0.1,0,0.1-0.1,0.2c0,0.1-0.1,0.2-0.1,0.4c0,0.1,0,0.1,0,0.2c0,0.2,0,0.4,0,0.6c0,0.8,0,2.2,0,3.8c-0.1,0-0.2,0-0.3,0
		c-0.2,0-0.5,0-0.7,0c-0.3,0-0.7,0-1,0c-0.2,0-0.4,0-0.7,0c-0.4,0-0.7,0-1.1,0c-0.2,0-0.4,0-0.6,0c-0.6,0-1.1,0-1.7,0
		c-0.6,0-1.2,0-1.9,0c-0.2,0-0.4,0-0.6,0c-0.4,0-0.8,0-1.2,0c-0.2,0-0.5,0-0.7,0c-0.4,0-0.7,0-1.1,0.1c-0.2,0-0.5,0-0.7,0
		c-0.4,0-0.7,0-1.1,0.1c-0.2,0-0.5,0-0.7,0.1c-0.3,0-0.7,0.1-1,0.1c-0.2,0-0.5,0-0.7,0.1c-0.4,0-0.7,0.1-1,0.1c-0.2,0-0.4,0-0.7,0.1
		c-0.4,0-0.8,0.1-1.1,0.1c-0.2,0-0.4,0-0.5,0.1c-1.1,0.2-2.1,0.3-3.2,0.5c-0.2,0-0.3,0.1-0.5,0.1c-0.3,0.1-0.7,0.1-1,0.2
		c-0.2,0-0.4,0.1-0.6,0.1c-0.3,0.1-0.6,0.1-0.9,0.2c-0.2,0-0.4,0.1-0.6,0.1c-0.3,0.1-0.6,0.1-0.8,0.2c-0.2,0-0.4,0.1-0.6,0.1
		c-0.3,0.1-0.5,0.1-0.8,0.2c-0.2,0.1-0.4,0.1-0.5,0.2c-0.3,0.1-0.5,0.2-0.8,0.2c-0.2,0.1-0.3,0.1-0.5,0.2c-0.3,0.1-0.6,0.2-0.8,0.3
		c-0.1,0-0.3,0.1-0.4,0.1c-0.4,0.1-0.8,0.3-1.1,0.4c0,0,0,0,0,0c-0.3,0.1-0.6,0.3-0.9,0.4c-0.1,0-0.2,0.1-0.3,0.1
		c-0.2,0.1-0.4,0.2-0.6,0.3c-0.1,0.1-0.2,0.1-0.3,0.2c-0.2,0.1-0.3,0.2-0.5,0.3c-0.1,0.1-0.2,0.1-0.3,0.2c-0.2,0.1-0.3,0.2-0.5,0.3
		c-0.1,0.1-0.2,0.1-0.3,0.2c-0.2,0.1-0.3,0.2-0.4,0.3c-0.1,0.1-0.2,0.1-0.3,0.2c-0.2,0.1-0.3,0.2-0.4,0.3c-0.1,0.1-0.1,0.1-0.2,0.2
		c-0.4,0.3-0.8,0.6-1.1,1c-0.1,0.1-0.1,0.1-0.1,0.2c-0.1,0.1-0.2,0.2-0.3,0.3c-0.1,0.1-0.1,0.1-0.1,0.2c-0.1,0.1-0.2,0.2-0.2,0.3
		c0,0.1-0.1,0.1-0.1,0.2c-0.1,0.1-0.1,0.2-0.2,0.3c0,0.1-0.1,0.1-0.1,0.2c0,0.1-0.1,0.2-0.1,0.3c0,0.1,0,0.1-0.1,0.2
		c0,0.1-0.1,0.2-0.1,0.4c0,0.1,0,0.1,0,0.2c0,0.2,0,0.4,0,0.6c0,1.7,0,6.7,0,9.6c0,0-0.1,0-0.1,0c-0.2,0-0.4-0.1-0.7-0.1
		c-0.3,0-0.5-0.1-0.8-0.1c-0.2,0-0.5-0.1-0.7-0.1c-0.3,0-0.6-0.1-0.8-0.1c-0.2,0-0.5-0.1-0.7-0.1c-0.3,0-0.6-0.1-0.9-0.1
		c-0.2,0-0.5,0-0.7-0.1c-0.3,0-0.6,0-0.9-0.1c-0.2,0-0.5,0-0.7-0.1c-0.3,0-0.6,0-0.9-0.1c-0.2,0-0.5,0-0.7,0c-0.3,0-0.7,0-1,0
		c-0.2,0-0.4,0-0.7,0c-0.4,0-0.7,0-1.1,0c-0.2,0-0.4,0-0.6,0c-0.6,0-1.1,0-1.7,0c-0.6,0-1.2,0-1.9,0c-0.2,0-0.4,0-0.6,0
		c-0.4,0-0.8,0-1.2,0c-0.2,0-0.5,0-0.7,0c-0.4,0-0.7,0-1.1,0.1c-0.2,0-0.5,0-0.7,0c-0.4,0-0.7,0-1.1,0.1c-0.2,0-0.5,0-0.7,0.1
		c-0.3,0-0.7,0.1-1,0.1c-0.2,0-0.5,0-0.7,0.1c-0.4,0-0.7,0.1-1,0.1c-0.2,0-0.4,0-0.7,0.1c-0.4,0-0.8,0.1-1.1,0.1
		c-0.2,0-0.4,0-0.5,0.1c-1.1,0.2-2.1,0.3-3.2,0.5c-0.2,0-0.3,0.1-0.5,0.1c-0.3,0.1-0.7,0.1-1,0.2c-0.2,0-0.4,0.1-0.6,0.1
		c-0.3,0.1-0.6,0.1-0.9,0.2c-0.2,0-0.4,0.1-0.6,0.1c-0.3,0.1-0.6,0.1-0.8,0.2c-0.2,0-0.4,0.1-0.6,0.1c-0.3,0.1-0.5,0.1-0.8,0.2
		c-0.2,0.1-0.4,0.1-0.5,0.2c-0.3,0.1-0.5,0.2-0.8,0.2c-0.2,0.1-0.3,0.1-0.5,0.2c-0.3,0.1-0.6,0.2-0.8,0.3c-0.1,0-0.3,0.1-0.4,0.1
		c-0.4,0.1-0.8,0.3-1.1,0.4c0,0,0,0,0,0c-0.3,0.1-0.6,0.3-0.9,0.4c-0.1,0-0.2,0.1-0.3,0.1c-0.2,0.1-0.4,0.2-0.6,0.3
		c-0.1,0.1-0.2,0.1-0.3,0.2c-0.2,0.1-0.3,0.2-0.5,0.3c-0.1,0.1-0.2,0.1-0.3,0.2c-0.2,0.1-0.3,0.2-0.5,0.3C4.2,101,4.1,101,4,101.1
		c-0.2,0.1-0.3,0.2-0.4,0.3c-0.1,0.1-0.2,0.1-0.3,0.2c-0.2,0.1-0.3,0.2-0.4,0.3c-0.1,0.1-0.1,0.1-0.2,0.2c-0.4,0.3-0.8,0.6-1.1,1
		c-0.1,0.1-0.1,0.1-0.1,0.2c-0.1,0.1-0.2,0.2-0.3,0.3c-0.1,0.1-0.1,0.1-0.1,0.2c-0.1,0.1-0.2,0.2-0.2,0.3c0,0.1-0.1,0.1-0.1,0.2
		c-0.1,0.1-0.1,0.2-0.2,0.3c0,0.1-0.1,0.1-0.1,0.2c0,0.1-0.1,0.2-0.1,0.3c0,0.1,0,0.1-0.1,0.2c0,0.1-0.1,0.2-0.1,0.4
		c0,0.1,0,0.1,0,0.2c0,0.2,0,0.4,0,0.6c0,2.1,0,9.3,0,11.4c0,1.5,0.9,3,2.6,4.3c-0.4,0.3-0.7,0.6-1,0.9c-0.1,0.1-0.1,0.1-0.1,0.2
		c-0.1,0.1-0.2,0.2-0.3,0.3c-0.1,0.1-0.1,0.1-0.1,0.2c-0.1,0.1-0.2,0.2-0.2,0.3c0,0.1-0.1,0.1-0.1,0.2c-0.1,0.1-0.1,0.2-0.2,0.3
		c0,0.1-0.1,0.1-0.1,0.2c0,0.1-0.1,0.2-0.1,0.3c0,0.1,0,0.1-0.1,0.2c0,0.1-0.1,0.2-0.1,0.4c0,0.1,0,0.1,0,0.2c0,0.2,0,0.4,0,0.6
		c0,2.1,0,9.3,0,11.4c0,1.5,0.9,3,2.6,4.3c-0.4,0.3-0.7,0.6-1,0.9c-0.1,0.1-0.1,0.1-0.1,0.2c-0.1,0.1-0.2,0.2-0.3,0.3
		c-0.1,0.1-0.1,0.1-0.1,0.2c-0.1,0.1-0.2,0.2-0.2,0.3c0,0.1-0.1,0.1-0.1,0.2c-0.1,0.1-0.1,0.2-0.2,0.3c0,0.1-0.1,0.1-0.1,0.2
		c0,0.1-0.1,0.2-0.1,0.3c0,0.1,0,0.1-0.1,0.2c0,0.1-0.1,0.2-0.1,0.4c0,0.1,0,0.1,0,0.2c0,0.2,0,0.4,0,0.6c0,2.1,0,9.3,0,11.4
		c0,1.5,0.9,3,2.6,4.3c-0.4,0.3-0.7,0.6-1,0.9c-0.1,0.1-0.1,0.1-0.1,0.2c-0.1,0.1-0.2,0.2-0.3,0.3c-0.1,0.1-0.1,0.1-0.1,0.2
		c-0.1,0.1-0.2,0.2-0.2,0.3c0,0.1-0.1,0.1-0.1,0.2c-0.1,0.1-0.1,0.2-0.2,0.3c0,0.1-0.1,0.1-0.1,0.2c0,0.1-0.1,0.2-0.1,0.3
		c0,0.1,0,0.1-0.1,0.2c0,0.1-0.1,0.2-0.1,0.4c0,0.1,0,0.1,0,0.2c0,0.2,0,0.4,0,0.6c0,2.1,0,9.3,0,11.4c0,1.5,0.9,3,2.6,4.3
		c-0.4,0.3-0.7,0.6-1,0.9c-0.1,0.1-0.1,0.1-0.1,0.2c-0.1,0.1-0.2,0.2-0.3,0.3c-0.1,0.1-0.1,0.1-0.1,0.2c-0.1,0.1-0.2,0.2-0.2,0.3
		c0,0.1-0.1,0.1-0.1,0.2c-0.1,0.1-0.1,0.2-0.2,0.3c0,0.1-0.1,0.1-0.1,0.2c0,0.1-0.1,0.2-0.1,0.3c0,0.1,0,0.1-0.1,0.2
		c0,0.1-0.1,0.2-0.1,0.4c0,0.1,0,0.1,0,0.2c0,0.2,0,0.4,0,0.6c0,2.1,0,9.3,0,11.4c0,6.3,15.2,11.3,34.1,11.3c4.9,0,9.5-0.3,13.7-1
		c0,3,0,8,0,9.6c0,5.8,13.2,10.6,30.2,11.3c0.4,1.1,1.2,2.1,2.4,3.1c-0.4,0.3-0.7,0.6-1,0.9c-0.1,0.1-0.1,0.1-0.1,0.2
		c-0.1,0.1-0.2,0.2-0.3,0.3c-0.1,0.1-0.1,0.1-0.1,0.2c-0.1,0.1-0.2,0.2-0.2,0.3c0,0.1-0.1,0.1-0.1,0.2c-0.1,0.1-0.1,0.2-0.2,0.3
		c0,0.1-0.1,0.1-0.1,0.2c0,0.1-0.1,0.2-0.1,0.3c0,0.1,0,0.1-0.1,0.2c0,0.1-0.1,0.2-0.1,0.4c0,0.1,0,0.1,0,0.2c0,0.2,0,0.4,0,0.6
		c0,2.1,0,9.3,0,11.4c0,6.3,15.2,11.3,34.1,11.3c18.8,0,34.1-5.1,34.1-11.3c0-2.1,0-9.3,0-11.4c0-0.2,0-0.4,0-0.5c0-0.1,0-0.1,0-0.2
		c0-0.1,0-0.2-0.1-0.4c0-0.1,0-0.1-0.1-0.2c0-0.1-0.1-0.2-0.1-0.4c0-0.1,0-0.1-0.1-0.2c-0.1-0.1-0.1-0.3-0.2-0.4c0,0,0-0.1-0.1-0.1
		c-0.1-0.2-0.2-0.3-0.3-0.5c0,0-0.1-0.1-0.1-0.1c-0.1-0.1-0.2-0.2-0.3-0.4c-0.1-0.1-0.1-0.1-0.2-0.2c-0.1-0.1-0.2-0.2-0.3-0.3
		c-0.1-0.1-0.1-0.1-0.2-0.2c-0.1-0.1-0.3-0.2-0.4-0.3c0,0,0,0,0,0c1.7-1.3,2.6-2.8,2.6-4.3c4.8,0.8,10.2,1.3,16,1.3
		c18.8,0,34.1-5.1,34.1-11.3c0-2.1,0-9.3,0-11.4c0-0.2,0-0.4,0-0.5c0-0.1,0-0.1,0-0.2c0-0.1,0-0.2-0.1-0.4c0-0.1,0-0.1-0.1-0.2
		c0-0.1-0.1-0.2-0.1-0.4c0-0.1,0-0.1-0.1-0.2c-0.1-0.1-0.1-0.3-0.2-0.4c0,0,0-0.1-0.1-0.1c-0.1-0.2-0.2-0.3-0.3-0.5
		c0,0-0.1-0.1-0.1-0.1c-0.1-0.1-0.2-0.2-0.3-0.4c-0.1-0.1-0.1-0.1-0.2-0.2c-0.1-0.1-0.2-0.2-0.3-0.3c-0.1-0.1-0.1-0.1-0.2-0.2
		c-0.1-0.1-0.3-0.2-0.4-0.3c0,0,0,0,0,0c1.5-1.2,2.3-2.4,2.5-3.8c12.7-1.7,21.7-5.8,21.7-10.6c0-2.1,0-9.3,0-11.4c0-0.2,0-0.4,0-0.5
		c0-0.1,0-0.1,0-0.2c0-0.1,0-0.2-0.1-0.4c0-0.1,0-0.1-0.1-0.2c0-0.1-0.1-0.2-0.1-0.4c0-0.1,0-0.1-0.1-0.2c-0.1-0.1-0.1-0.3-0.2-0.4
		c0,0,0-0.1-0.1-0.1c-0.1-0.2-0.2-0.3-0.3-0.5c0,0-0.1-0.1-0.1-0.1c-0.1-0.1-0.2-0.2-0.3-0.4c-0.1-0.1-0.1-0.1-0.2-0.2
		c-0.1-0.1-0.2-0.2-0.3-0.3c-0.1-0.1-0.1-0.1-0.2-0.2c-0.1-0.1-0.3-0.2-0.4-0.3c0,0,0,0,0,0c1.7-1.3,2.6-2.8,2.6-4.3
		c0-2.1,0-9.3,0-11.4c0-0.2,0-0.4,0-0.5c0-0.1,0-0.1,0-0.2c0-0.1,0-0.2-0.1-0.4c0-0.1,0-0.1-0.1-0.2c0-0.1-0.1-0.2-0.1-0.4
		c0-0.1,0-0.1-0.1-0.2c-0.1-0.1-0.1-0.3-0.2-0.4c0,0,0-0.1-0.1-0.1c-0.1-0.2-0.2-0.3-0.3-0.5c0,0-0.1-0.1-0.1-0.1
		c-0.1-0.1-0.2-0.2-0.3-0.4c-0.1-0.1-0.1-0.1-0.2-0.2c-0.1-0.1-0.2-0.2-0.3-0.3c-0.1-0.1-0.1-0.1-0.2-0.2c-0.1-0.1-0.3-0.2-0.4-0.3
		c0,0,0,0,0,0c1.7-1.3,2.6-2.8,2.6-4.3c0-2.1,0-9.3,0-11.4c0-0.2,0-0.4,0-0.5c0-0.1,0-0.1,0-0.2c0-0.1,0-0.2-0.1-0.4
		c0-0.1,0-0.1-0.1-0.2c0-0.1-0.1-0.2-0.1-0.4c0-0.1,0-0.1-0.1-0.2c-0.1-0.1-0.1-0.3-0.2-0.4c0,0,0-0.1-0.1-0.1
		c-0.1-0.2-0.2-0.3-0.3-0.5c0,0-0.1-0.1-0.1-0.1c-0.1-0.1-0.2-0.2-0.3-0.4c-0.1-0.1-0.1-0.1-0.2-0.2c-0.1-0.1-0.2-0.2-0.3-0.3
		c-0.1-0.1-0.1-0.1-0.2-0.2c-0.1-0.1-0.3-0.2-0.4-0.3c0,0,0,0,0,0c1.7-1.3,2.6-2.8,2.6-4.3c0-2.1,0-9.3,0-11.4c0-0.2,0-0.4,0-0.5
		c0-0.1,0-0.1,0-0.2c0-0.1,0-0.2-0.1-0.4c0-0.1,0-0.1-0.1-0.2c0-0.1-0.1-0.2-0.1-0.4c0-0.1,0-0.1-0.1-0.2c-0.1-0.1-0.1-0.3-0.2-0.4
		c0,0,0-0.1-0.1-0.1c-0.1-0.2-0.2-0.3-0.3-0.5c0,0-0.1-0.1-0.1-0.1c-0.1-0.1-0.2-0.2-0.3-0.4c-0.1-0.1-0.1-0.1-0.2-0.2
		c-0.1-0.1-0.2-0.2-0.3-0.3c-0.1-0.1-0.1-0.1-0.2-0.2c-0.1-0.1-0.3-0.2-0.4-0.3c0,0,0,0,0,0C216.6,110.8,217.5,109.3,217.5,107.8z
		 M213.5,101.8C213.5,101.8,213.5,101.8,213.5,101.8l-0.1,6c-0.1,0.5-1.9,2.5-8,4.4c-5.9,1.8-13.7,2.8-21.9,2.8h0v-7.2c0,0,0,0,0,0
		c0,0,0,0,0,0C196.5,107.8,207.8,105.3,213.5,101.8z M213.4,121.8v5.9c-0.1,0.5-1.9,2.5-8,4.4c-2.8,0.9-6,1.5-9.5,2
		c0-2.5,0-5.6,0-7.2C203.5,126,209.7,124.2,213.4,121.8C213.5,121.8,213.5,121.8,213.4,121.8z M213.4,141.9v5.9
		c-0.1,0.5-1.9,2.5-8,4.4c-2.8,0.9-6,1.5-9.5,2c0-2.5,0-5.6,0-7.2C203.5,146,209.7,144.2,213.4,141.9
		C213.5,141.8,213.5,141.8,213.4,141.9z M213.4,161.9v5.9c-0.1,0.5-1.9,2.5-8,4.4c-2.8,0.9-6,1.5-9.5,2c0-2.5,0-5.6,0-7.2
		C203.5,166,209.7,164.2,213.4,161.9C213.5,161.8,213.5,161.9,213.4,161.9z M182.2,189.9c-5.6,1.6-12.9,2.4-20.3,2.4
		c-6.1,0-12-0.6-17.1-1.7c0.7-0.9,1.1-1.9,1.1-2.9c4.8,0.8,10.2,1.3,16,1.3c10.4,0,19.7-1.6,26-4c1,0.5,1.7,1,2.1,1.3
		C189,187.3,186.7,188.7,182.2,189.9z M159.2,205c-1.2,0-2.4-0.1-3.5-0.2v-7.2c1.2,0.1,2.3,0.1,3.5,0.2V205z M132.2,219.9
		c-5.6,1.6-12.9,2.4-20.3,2.4s-14.7-0.9-20.3-2.4c-4.5-1.2-6.8-2.6-7.8-3.4c0.4-0.4,1.1-0.8,2.1-1.3c6.2,2.5,15.6,4,26,4
		c10.4,0,19.7-1.6,26-4c1,0.5,1.7,1,2.1,1.3C138.9,217.3,136.6,218.7,132.2,219.9z M75.6,204.9v-7.2c0.7,0,1.5,0.1,2.2,0.1
		c0,1.9,0,4.9,0,7.2C77,204.9,76.3,204.9,75.6,204.9z M51.8,191.9c1.8,1.1,4.1,2.1,6.8,2.9v7c-5.1-1.8-6.6-3.5-6.7-4L51.8,191.9
		C51.8,191.9,51.8,191.9,51.8,191.9z M4.1,177.8v-5.9c0,0-0.1,0-0.1-0.1c1.8,1.1,4.1,2.1,6.8,2.9v7C5.7,180,4.2,178.2,4.1,177.8z
		 M4.1,157.8v-5.9c0,0-0.1,0-0.1-0.1c1.8,1.1,4.1,2.1,6.8,2.9v7C5.7,160,4.2,158.2,4.1,157.8z M4.1,137.8v-5.9c0,0-0.1,0-0.1-0.1
		c1.8,1.1,4.1,2.1,6.8,2.9v7C5.7,140,4.2,138.2,4.1,137.8z M151.8,76.8v5.9c-0.1,0.5-1.9,2.5-8,4.4C137.8,89,130,90,121.8,90h0v-7.2
		c0,0,0,0,0,0c0,0,0,0,0,0C134.8,82.7,146.1,80.3,151.8,76.8C151.8,76.8,151.8,76.8,151.8,76.8z M115.8,85.9c0-0.1,0-0.1,0-0.2
		c0-0.1,0-0.2-0.1-0.4c0-0.1,0-0.1-0.1-0.2c0,0,0,0,0-0.1v-2.5c1.2,0.1,2.3,0.1,3.5,0.2v7.2c-1.1,0-2.2-0.1-3.3-0.1
		c0-1.4,0-2.7,0-3.4C115.9,86.2,115.8,86.1,115.8,85.9z M106.6,78.6C106.6,78.6,106.7,78.7,106.6,78.6
		C106.7,78.7,106.6,78.6,106.6,78.6z M111.8,91.8C111.8,91.8,111.8,91.8,111.8,91.8l-0.1,6c-0.1,0.5-1.9,2.5-8,4.4
		C97.8,104,90,105,81.8,105h0v-7.2c0,0,0,0,0,0c0,0,0,0,0,0C94.8,97.8,106.1,95.3,111.8,91.8z M155.9,103c1.3,0.6,2.8,1.2,4.4,1.7v7
		c-2.3-0.8-3.9-1.6-4.9-2.3c0-0.1-0.1-0.1-0.1-0.2c0,0,0-0.1-0.1-0.1c-0.1-0.2-0.2-0.3-0.3-0.5c0,0-0.1-0.1-0.1-0.1
		c-0.1-0.1-0.2-0.2-0.3-0.4c-0.1-0.1-0.1-0.1-0.2-0.2c-0.1-0.1-0.2-0.2-0.3-0.3c-0.1-0.1-0.1-0.1-0.2-0.2c-0.1-0.1-0.1-0.1-0.2-0.2
		v-0.4C155,105.7,155.8,104.4,155.9,103z M182.2,123c4.5,1.2,6.8,2.6,7.8,3.4c-1,0.8-3.3,2.2-7.8,3.4c-5.6,1.6-12.9,2.4-20.3,2.4
		c-7.5,0-14.7-0.9-20.3-2.4c-4.5-1.2-6.8-2.6-7.8-3.4c1-0.8,3.3-2.2,7.8-3.4c5.6-1.6,12.9-2.4,20.3-2.4
		C169.3,120.6,176.6,121.4,182.2,123z M159.2,145c-1.2,0-2.4-0.1-3.5-0.2v-7.2c1.2,0.1,2.3,0.1,3.5,0.2V145z M190,146.5
		c-1,0.8-3.3,2.2-7.8,3.4c-5.6,1.6-12.9,2.4-20.3,2.4c-7.5,0-14.7-0.9-20.3-2.4c-4.5-1.2-6.8-2.6-7.8-3.4c0.4-0.4,1.1-0.8,2.1-1.3
		c6.2,2.5,15.6,4,26,4c10.4,0,19.7-1.6,26-4C188.8,145.6,189.6,146.1,190,146.5z M159.2,165c-1.2,0-2.4-0.1-3.5-0.2v-7.2
		c1.2,0.1,2.3,0.1,3.5,0.2V165z M190,166.5c-1,0.8-3.3,2.2-7.8,3.4c-5.6,1.6-12.9,2.4-20.3,2.4c-6.1,0-12-0.6-17.1-1.7
		c0.7-0.9,1.1-1.9,1.1-2.9c4.8,0.8,10.2,1.3,16,1.3c10.4,0,19.7-1.6,26-4C188.8,165.7,189.6,166.1,190,166.5z M159.2,185
		c-1.2,0-2.4-0.1-3.5-0.2v-7.2c1.2,0.1,2.3,0.1,3.5,0.2V185z M147,183.9v-7.2c0,0-0.1,0-0.1,0c1.1,0.2,2.2,0.3,3.4,0.5
		c0,0-0.1,0-0.1,0v7.2C149.1,184.2,148.1,184,147,183.9z M109.1,215c-1.2,0-2.4-0.1-3.5-0.2v-7.2c1.2,0.1,2.3,0.1,3.5,0.2V215z
		 M75.6,184.9v-7.2c0.7,0,1.5,0.1,2.2,0.1c0,1.9,0,4.9,0,7.2C77,184.9,76.3,184.9,75.6,184.9z M66.9,183.9v-7.2c0,0-0.1,0-0.1,0
		c1.1,0.2,2.2,0.3,3.4,0.5c0,0-0.1,0-0.1,0v7.2C69.1,184.2,68,184,66.9,183.9z M51.8,171.8c1.8,1.1,4.1,2.1,6.8,2.9v7
		c-5.1-1.8-6.6-3.5-6.7-4L51.8,171.8C51.8,171.9,51.8,171.9,51.8,171.8z M75.6,164.8v-7.2c0.7,0,1.5,0.1,2.2,0.1c0,1.9,0,4.9,0,7.2
		C77,164.9,76.3,164.9,75.6,164.8z M66.9,163.8v-7.2c0,0-0.1,0-0.1,0c1.1,0.2,2.2,0.3,3.4,0.5c0,0-0.1,0-0.1,0v7.2
		C69.1,164.2,68,164,66.9,163.8z M51.8,151.8c1.8,1.1,4.1,2.1,6.8,2.9v7c-5.1-1.8-6.6-3.5-6.7-4L51.8,151.8
		C51.8,151.9,51.8,151.8,51.8,151.8z M66.9,143.8v-7.2c0,0-0.1,0-0.1,0c1.1,0.2,2.2,0.3,3.4,0.5c0,0-0.1,0-0.1,0v7.2
		C69.1,144.2,68,144,66.9,143.8z M51.8,131.8c1.8,1.1,4.1,2.1,6.8,2.9v7c-5.1-1.8-6.6-3.5-6.7-4L51.8,131.8
		C51.8,131.8,51.8,131.8,51.8,131.8z M81.8,125L81.8,125l0-7.2c0,0,0,0,0,0c0,0,0,0,0,0c13,0,24.3-2.4,30-6c0,0-0.1,0-0.1,0.1v5.9
		c-0.1,0.5-1.9,2.5-8,4.4C97.8,124,90,125,81.8,125z M66.9,123.8v-7.2c0,0-0.1,0-0.1,0c1.1,0.2,2.2,0.3,3.4,0.5c0,0-0.1,0-0.1,0v7.2
		C69.1,124.2,68,124,66.9,123.8z M51.8,111.8c1.8,1.1,4.1,2.1,6.8,2.9v7c-5.1-1.8-6.6-3.5-6.7-4L51.8,111.8
		C51.8,111.8,51.8,111.8,51.8,111.8z M119.1,110c-1.1,0-2.2-0.1-3.3-0.1c0-1.4,0-2.7,0-3.4c0-0.2,0-0.4,0-0.5c0-0.1,0-0.1,0-0.2
		c0-0.1,0-0.2-0.1-0.4c0-0.1,0-0.1-0.1-0.2c0,0,0,0,0-0.1v-2.5c1.2,0.1,2.3,0.1,3.5,0.2V110z M147.8,110.1c1,0.5,1.7,1,2.1,1.3
		c-1,0.8-3.3,2.2-7.8,3.4c-5.6,1.6-12.9,2.4-20.3,2.4c-2,0-4-0.1-6-0.2c0-0.8,0-1.9,0-3.2c1.9,0.1,3.9,0.2,6,0.2
		C132.3,114.1,141.6,112.6,147.8,110.1z M129.2,123.2c-0.1,0.1-0.2,0.2-0.3,0.3c-0.1,0.1-0.1,0.1-0.1,0.2c-0.1,0.1-0.2,0.2-0.2,0.3
		c0,0.1-0.1,0.1-0.1,0.2c-0.1,0.1-0.1,0.2-0.2,0.3c0,0.1-0.1,0.1-0.1,0.2c0,0.1-0.1,0.2-0.1,0.3c0,0.1,0,0.1-0.1,0.2
		c0,0.1-0.1,0.2-0.1,0.4c0,0.1,0,0.1,0,0.2c0,0.2,0,0.4,0,0.6c0,0.7,0,1.9,0,3.4c-2,0.1-4,0.2-6,0.2h0v-7.2c0,0,0,0,0,0c0,0,0,0,0,0
		c2.8,0,5.5-0.1,8.2-0.3c-0.2,0.2-0.4,0.4-0.6,0.6C129.3,123.1,129.3,123.1,129.2,123.2z M147,143.8v-7.2c0,0-0.1,0-0.1,0
		c1.1,0.2,2.2,0.3,3.4,0.5c0,0-0.1,0-0.1,0v7.2C149.1,144.2,148.1,144,147,143.8z M138.6,134.7v7c-5.1-1.8-6.6-3.5-6.7-4v-5.9
		c0,0-0.1,0-0.1-0.1C133.6,132.9,135.9,133.9,138.6,134.7z M147,163.8v-7.2c0,0-0.1,0-0.1,0c1.1,0.2,2.2,0.3,3.4,0.5
		c0,0-0.1,0-0.1,0v7.2C149.1,164.2,148.1,164,147,163.8z M109.1,195c-1.2,0-2.4-0.1-3.5-0.2v-7.2c1.2,0.1,2.3,0.1,3.5,0.2V195z
		 M81.9,187.8v-5.9c0,0-0.1,0-0.1-0.1c1.8,1.1,4.1,2.1,6.8,2.9v7C83.5,190,82,188.2,81.9,187.8z M97,186.7
		C96.9,186.7,96.9,186.7,97,186.7c1,0.2,2.2,0.3,3.3,0.5c0,0-0.1,0-0.1,0v7.2c-1.1-0.1-2.2-0.3-3.2-0.5V186.7z M133.7,172.2
		c-5.9,1.8-13.7,2.8-21.9,2.8h0v-7.2c0,0,0,0,0,0c0,0,0,0,0,0c13,0,24.3-2.4,30-6c0,0-0.1,0-0.1,0.1v5.9
		C141.6,168.3,139.9,170.3,133.7,172.2z M109.1,175c-1.2,0-2.4-0.1-3.5-0.2v-7.2c1.2,0.1,2.3,0.1,3.5,0.2V175z M83.7,156.5
		c1-0.8,3.3-2.2,7.8-3.4c5.6-1.6,12.9-2.4,20.3-2.4s14.7,0.9,20.3,2.4c4.5,1.2,6.8,2.6,7.8,3.4c-1,0.8-3.3,2.2-7.8,3.4
		c-5.6,1.6-12.9,2.4-20.3,2.4s-14.7-0.9-20.3-2.4C87,158.7,84.7,157.3,83.7,156.5z M115.8,125.9c0-0.1,0-0.1,0-0.2
		c0-0.1,0-0.2-0.1-0.4c0-0.1,0-0.1-0.1-0.2c0,0,0,0,0-0.1v-2.5c1.2,0.1,2.3,0.1,3.5,0.2v7.2c-1.1,0-2.2-0.1-3.3-0.1
		c0-1.4,0-2.7,0-3.4C115.9,126.3,115.8,126.1,115.8,125.9z M121.8,134.1c2,0,4-0.1,6-0.2c0,1.2,0,2.4,0,3.2c-2,0.1-4,0.2-6,0.2
		c-2,0-4-0.1-6-0.2c0-0.8,0-1.9,0-3.2C117.8,134.1,119.8,134.1,121.8,134.1z M107.8,145.1c0,0,0.1,0,0.1,0.1c-0.1,0-0.2,0-0.3,0
		C107.6,145.2,107.7,145.2,107.8,145.1z M118.5,145.3c-0.3,0-0.6,0-0.9-0.1c-0.2,0-0.5,0-0.7,0c-0.3,0-0.7,0-1,0c-0.1,0-0.2,0-0.2,0
		c0,0,0,0,0,0v-2.5c1.2,0.1,2.3,0.1,3.5,0.2v2.6C118.9,145.4,118.7,145.3,118.5,145.3z M129.4,143.1c-0.1,0.1-0.1,0.1-0.1,0.2
		c-0.1,0.1-0.2,0.2-0.3,0.3c-0.1,0.1-0.1,0.1-0.1,0.2c-0.1,0.1-0.2,0.2-0.2,0.3c0,0.1-0.1,0.1-0.1,0.2c-0.1,0.1-0.1,0.2-0.2,0.3
		c0,0.1-0.1,0.1-0.1,0.2c0,0.1-0.1,0.2-0.1,0.3c0,0.1,0,0.1-0.1,0.2c0,0.1-0.1,0.2-0.1,0.4c0,0.1,0,0.1,0,0.2c0,0.2,0,0.4,0,0.5
		c-0.1,0-0.1,0-0.2,0c-0.3,0-0.5-0.1-0.8-0.1c-0.2,0-0.4-0.1-0.7-0.1c-0.3,0-0.5-0.1-0.8-0.1c-0.2,0-0.4-0.1-0.7-0.1
		c-0.3,0-0.5-0.1-0.8-0.1c-0.2,0-0.5-0.1-0.7-0.1c-0.3,0-0.6-0.1-0.8-0.1c-0.2,0-0.4,0-0.5-0.1v-2.8c0,0,0,0,0,0c0,0,0,0,0,0
		c2.8,0,5.5-0.1,8.2-0.3C129.8,142.7,129.6,142.9,129.4,143.1z M81.9,167.8v-5.9c0,0-0.1,0-0.1-0.1c1.8,1.1,4.1,2.1,6.8,2.9v7
		C83.5,170,82,168.2,81.9,167.8z M97,166.7C96.9,166.7,96.9,166.7,97,166.7c1,0.2,2.2,0.3,3.3,0.5c0,0-0.1,0-0.1,0v7.2
		c-1.1-0.1-2.2-0.3-3.2-0.5V166.7z M136.6,148.7C136.7,148.7,136.7,148.7,136.6,148.7C136.7,148.7,136.7,148.7,136.6,148.7z
		 M75.6,117.6c1.2,0.1,2.3,0.1,3.5,0.2v7.2c-1.2,0-2.4-0.1-3.5-0.2V117.6z M75.6,137.6c1.2,0.1,2.3,0.1,3.5,0.2v7.2
		c-1.2,0-2.4-0.1-3.5-0.2V137.6z M81.8,137.8C81.8,137.8,81.8,137.8,81.8,137.8C81.8,137.8,81.8,137.8,81.8,137.8
		c13,0,24.3-2.4,30-6c0,0-0.1,0-0.1,0.1v5.9c-0.1,0.5-1.9,2.5-8,4.4C97.8,144,90,145,81.8,145h0V137.8z M111.8,179.2
		c10.4,0,19.7-1.6,26-4c1,0.5,1.7,1,2.1,1.3c-1,0.8-3.3,2.2-7.8,3.4c-5.6,1.6-12.9,2.4-20.3,2.4s-14.7-0.9-20.3-2.4
		c-4.5-1.2-6.8-2.6-7.8-3.4c0.4-0.4,1.1-0.8,2.1-1.3C92.1,177.6,101.4,179.2,111.8,179.2z M111.8,199.2c10.4,0,19.7-1.6,26-4
		c1,0.5,1.7,1,2.1,1.3c-1,0.8-3.3,2.2-7.8,3.4c-5.6,1.6-12.9,2.4-20.3,2.4s-14.7-0.9-20.3-2.4c-4.5-1.2-6.8-2.6-7.8-3.4
		c0.4-0.4,1.1-0.8,2.1-1.3C92.1,197.6,101.4,199.2,111.8,199.2z M81.9,207.8v-5.9c0,0-0.1,0-0.1-0.1c1.8,1.1,4.1,2.1,6.8,2.9v7
		C83.5,210,82,208.3,81.9,207.8z M97,206.7C96.9,206.7,96.9,206.7,97,206.7c1,0.2,2.2,0.3,3.3,0.5c0,0-0.1,0-0.1,0v7.2
		c-1.1-0.1-2.2-0.3-3.2-0.5V206.7z M133.7,192.2c-5.9,1.8-13.7,2.8-21.9,2.8h0v-7.2c0,0,0,0,0,0c0,0,0,0,0,0c13,0,24.3-2.4,30-6
		c0,0-0.1,0-0.1,0.1v5.9C141.6,188.3,139.9,190.3,133.7,192.2z M157.5,115.2c0,0-0.1,0-0.1,0C157.4,115.2,157.5,115.1,157.5,115.2
		c0.1-0.1,0.2,0,0.3,0C157.6,115.2,157.5,115.2,157.5,115.2z M168.5,106.6c1.1,0.2,2.2,0.3,3.4,0.5c0,0-0.1,0-0.1,0v7.2
		c-1.1-0.1-2.2-0.3-3.2-0.5L168.5,106.6C168.6,106.6,168.6,106.6,168.5,106.6z M180.8,115c-1.2,0-2.4-0.1-3.5-0.2v-7.2
		c1.2,0.1,2.3,0.1,3.5,0.2V115z M151.9,96.8C151.8,96.8,151.8,96.8,151.9,96.8l-0.1,6c-0.1,0.5-1.9,2.5-8,4.4
		c-5.9,1.8-13.7,2.8-21.9,2.8h0v-7.2c0,0,0,0,0,0c0,0,0,0,0,0C134.8,102.8,146.1,100.3,151.9,96.8z M66.9,103.8v-7.2
		c0,0-0.1,0-0.1,0c1.1,0.2,2.2,0.3,3.4,0.5c0,0-0.1,0-0.1,0v7.2C69.1,104.1,68,104,66.9,103.8z M75.6,97.6c1.2,0.1,2.3,0.1,3.5,0.2
		v7.2c-1.2,0-2.4-0.1-3.5-0.2V97.6z M55.8,105.1c6.2,2.5,15.6,4,26,4c10.4,0,19.7-1.6,26-4c1,0.5,1.7,1,2.1,1.3
		c-1,0.8-3.3,2.2-7.8,3.4c-5.6,1.6-12.9,2.4-20.3,2.4s-14.7-0.9-20.3-2.4c-4.5-1.2-6.8-2.6-7.8-3.4
		C54.1,106.1,54.8,105.6,55.8,105.1z M19.2,116.6C19.2,116.6,19.1,116.6,19.2,116.6c1,0.2,2.2,0.3,3.3,0.5c0,0-0.1,0-0.1,0v7.2
		c-1.1-0.1-2.2-0.3-3.2-0.5V116.6z M27.8,117.6c1.2,0.1,2.3,0.1,3.5,0.2v7.2c-1.2,0-2.4-0.1-3.5-0.2V117.6z M34.1,117.8
		C34,117.8,34,117.8,34.1,117.8C34,117.8,34,117.8,34.1,117.8c4.9,0,9.5-0.3,13.7-1c0,0.4,0,0.7,0,1c0,1.5,0.9,3,2.6,4.3
		c-0.4,0.3-0.7,0.6-1,0.9c-0.1,0.1-0.1,0.1-0.1,0.2c-0.1,0.1-0.2,0.2-0.3,0.3c-0.1,0.1-0.1,0.1-0.1,0.2c0,0-0.1,0.1-0.1,0.1
		c-4.5,0.7-9.4,1.1-14.6,1.1h0V117.8z M53.7,126.4c0.4-0.4,1.1-0.8,2.1-1.3c6.2,2.5,15.6,4,26,4c10.4,0,19.7-1.6,26-4
		c1,0.5,1.7,1,2.1,1.3c-1,0.8-3.3,2.2-7.8,3.4c-5.6,1.6-12.9,2.4-20.3,2.4s-14.7-0.9-20.3-2.4C57,128.6,54.7,127.3,53.7,126.4z
		 M19.2,136.7C19.2,136.7,19.1,136.6,19.2,136.7c1,0.2,2.2,0.3,3.3,0.5c0,0-0.1,0-0.1,0v7.2c-1.1-0.1-2.2-0.3-3.2-0.5V136.7z
		 M27.8,137.6c1.2,0.1,2.3,0.1,3.5,0.2v7.2c-1.2,0-2.4-0.1-3.5-0.2V137.6z M34.1,137.8C34,137.8,34,137.8,34.1,137.8
		C34,137.8,34,137.8,34.1,137.8c4.9,0,9.5-0.3,13.7-1c0,0.4,0,0.7,0,1c0,1.5,0.9,3,2.6,4.3c-0.4,0.3-0.7,0.6-1,0.9
		c-0.1,0.1-0.1,0.1-0.1,0.2c-0.1,0.1-0.2,0.2-0.3,0.3c-0.1,0.1-0.1,0.1-0.1,0.2c0,0-0.1,0.1-0.1,0.1c-4.5,0.7-9.4,1.1-14.6,1.1h0
		V137.8z M53.7,146.5c0.4-0.4,1.1-0.8,2.1-1.3c6.2,2.5,15.6,4,26,4c1.4,0,2.9,0,4.3-0.1c-0.2,0.1-0.3,0.1-0.5,0.2c0,0,0,0,0,0
		c-0.3,0.1-0.6,0.3-0.9,0.4c-0.1,0-0.2,0.1-0.3,0.1c-0.2,0.1-0.4,0.2-0.6,0.3c-0.1,0.1-0.2,0.1-0.3,0.2c-0.2,0.1-0.3,0.2-0.5,0.3
		c-0.1,0.1-0.2,0.1-0.3,0.2c-0.2,0.1-0.3,0.2-0.5,0.3c-0.1,0.1-0.2,0.1-0.3,0.2c-0.2,0.1-0.3,0.2-0.4,0.3c-0.1,0.1-0.2,0.1-0.3,0.2
		c-0.2,0.1-0.3,0.2-0.4,0.3c-0.1,0.1-0.1,0.1-0.2,0.2c-0.1,0.1-0.2,0.1-0.3,0.2c-6.9-0.1-13.5-1-18.7-2.4
		C57,148.6,54.7,147.3,53.7,146.5z M19.2,156.7C19.2,156.7,19.1,156.7,19.2,156.7c1,0.2,2.2,0.3,3.3,0.5c0,0-0.1,0-0.1,0v7.2
		c-1.1-0.1-2.2-0.3-3.2-0.5V156.7z M27.8,157.6c1.2,0.1,2.3,0.1,3.5,0.2v7.2c-1.2,0-2.4-0.1-3.5-0.2V157.6z M34.1,157.8
		C34,157.8,34,157.8,34.1,157.8C34,157.8,34,157.8,34.1,157.8c4.9,0,9.5-0.3,13.7-1c0,0.4,0,0.7,0,1c0,1.5,0.9,3,2.6,4.3
		c-0.4,0.3-0.7,0.6-1,0.9c-0.1,0.1-0.1,0.1-0.1,0.2c-0.1,0.1-0.2,0.2-0.3,0.3c-0.1,0.1-0.1,0.1-0.1,0.2c0,0-0.1,0.1-0.1,0.1
		c-4.5,0.7-9.4,1.1-14.6,1.1h0V157.8z M53.7,166.5c0.4-0.4,1.1-0.8,2.1-1.3c5.5,2.2,13.3,3.6,22.2,3.9c0.4,1.1,1.2,2.1,2.4,3.1
		c-0.1,0.1-0.1,0.1-0.2,0.2c-6.9-0.1-13.5-1-18.7-2.4C57,168.7,54.7,167.3,53.7,166.5z M19.2,176.7
		C19.2,176.7,19.1,176.7,19.2,176.7c1,0.2,2.2,0.3,3.3,0.5c0,0-0.1,0-0.1,0v7.2c-1.1-0.1-2.2-0.3-3.2-0.5V176.7z M27.8,177.6
		c1.2,0.1,2.3,0.1,3.5,0.2v7.2c-1.2,0-2.4-0.1-3.5-0.2V177.6z M34.1,177.8C34,177.8,34,177.8,34.1,177.8
		C34,177.8,34,177.8,34.1,177.8c4.9,0,9.5-0.3,13.7-1c0,0.4,0,0.7,0,1c0,1.5,0.9,3,2.6,4.3c-0.4,0.3-0.7,0.6-1,0.9
		c-0.1,0.1-0.1,0.1-0.1,0.2c-0.1,0.1-0.2,0.2-0.3,0.3c-0.1,0.1-0.1,0.1-0.1,0.2c0,0-0.1,0.1-0.1,0.1c-4.5,0.7-9.4,1.1-14.6,1.1h0
		V177.8z M53.7,186.5c0.4-0.4,1.1-0.8,2.1-1.3c5.5,2.2,13.3,3.6,22.2,3.9c0.4,1.1,1.2,2.1,2.4,3.1c-0.1,0.1-0.1,0.1-0.2,0.2
		c-6.9-0.1-13.5-1-18.7-2.4C57,188.7,54.7,187.3,53.7,186.5z M66.9,196.7C66.9,196.7,66.9,196.7,66.9,196.7c1,0.2,2.2,0.3,3.3,0.5
		c0,0-0.1,0-0.1,0v7.2c-1.1-0.1-2.2-0.3-3.2-0.5V196.7z M81.9,227.8v-5.9c0,0-0.1,0-0.1-0.1c1.8,1.1,4.1,2.1,6.8,2.9v7
		C83.5,230.1,82,228.3,81.9,227.8z M97,226.7C96.9,226.7,96.9,226.7,97,226.7c1,0.2,2.2,0.3,3.3,0.5c0,0-0.1,0-0.1,0v7.2
		c-1.1-0.1-2.2-0.3-3.2-0.5V226.7z M105.6,227.7c1.2,0.1,2.3,0.1,3.5,0.2v7.2c-1.2,0-2.4-0.1-3.5-0.2V227.7z M133.7,212.2
		c-5.9,1.8-13.7,2.8-21.9,2.8h0v-7.2c0,0,0,0,0,0c0,0,0,0,0,0c13,0,24.3-2.4,30-6c0,0-0.1,0-0.1,0.1v5.9
		C141.6,208.3,139.9,210.3,133.7,212.2z M147,196.7C147,196.7,146.9,196.7,147,196.7c1,0.2,2.2,0.3,3.3,0.5c0,0-0.1,0-0.1,0v7.2
		c-1.1-0.1-2.2-0.3-3.2-0.5V196.7z M183.8,182.2c-5.9,1.8-13.7,2.8-21.9,2.8h0v-7.2c0,0,0,0,0,0c0,0,0,0,0,0c13,0,24.3-2.4,30-6
		c0,0-0.1,0-0.1,0.1v5.9C191.7,178.3,189.9,180.3,183.8,182.2z M183.8,162.2c-5.9,1.8-13.7,2.8-21.9,2.8h0v-7.2c0,0,0,0,0,0
		c0,0,0,0,0,0c13,0,24.3-2.4,30-6c0,0-0.1,0-0.1,0.1v5.9C191.7,158.3,189.9,160.3,183.8,162.2z M183.8,142.2
		c-5.9,1.8-13.7,2.8-21.9,2.8h0v-7.2c0,0,0,0,0,0c0,0,0,0,0,0c13,0,24.3-2.4,30-6c0,0-0.1,0-0.1,0.1v5.9
		C191.7,138.2,189.9,140.3,183.8,142.2z M186.7,118.7C186.7,118.7,186.7,118.7,186.7,118.7C186.7,118.7,186.7,118.7,186.7,118.7z
		 M163.2,93c5.6-1.6,12.9-2.4,20.3-2.4c7.5,0,14.7,0.9,20.3,2.4c4.5,1.2,6.8,2.6,7.8,3.4c-1,0.8-3.3,2.2-7.8,3.4
		c-5.6,1.6-12.9,2.4-20.3,2.4c-7.5,0-14.7-0.9-20.3-2.4c-3.8-1.1-6.1-2.2-7.3-3c0-0.3,0-0.5,0-0.8C157.1,95.2,159.3,94.1,163.2,93z
		 M150,91.4c-1,0.8-3.3,2.2-7.8,3.4c-5.6,1.6-12.9,2.4-20.3,2.4c-2,0-4-0.1-6-0.2c0-0.8,0-1.9,0-3.2c1.9,0.1,3.9,0.2,6,0.2
		c10.4,0,19.7-1.6,26-4C148.8,90.6,149.5,91.1,150,91.4z M121.8,70L121.8,70l0-7.2c0,0,0,0,0,0c0,0,0,0,0,0c13,0,24.3-2.4,30-6
		c0,0-0.1,0-0.1,0.1v5.9c-0.1,0.5-1.9,2.5-8,4.4C137.8,69,130,70,121.8,70z M91.9,62.7v-5.9c0,0-0.1,0-0.1-0.1
		c1.8,1.1,4.1,2.1,6.8,2.9v7C93.5,64.9,92,63.1,91.9,62.7z M107,61.6C106.9,61.6,106.9,61.6,107,61.6c1,0.2,2.2,0.3,3.3,0.5
		c0,0-0.1,0-0.1,0v7.2c-1.1-0.1-2.2-0.3-3.2-0.5V61.6z M115.6,62.5c1.2,0.1,2.3,0.1,3.5,0.2v7.2c-1.2,0-2.4-0.1-3.5-0.2V62.5z
		 M121.8,49.9L121.8,49.9l0-7.2c0,0,0,0,0,0c0,0,0,0,0,0c13,0,24.3-2.4,30-6c0,0-0.1,0-0.1,0.1v5.9c-0.1,0.5-1.9,2.5-8,4.4
		C137.8,48.9,130,49.9,121.8,49.9z M91.9,42.7v-5.9c0,0-0.1,0-0.1-0.1c1.8,1.1,4.1,2.1,6.8,2.9v7C93.5,44.9,92,43.1,91.9,42.7z
		 M107,41.6C106.9,41.6,106.9,41.6,107,41.6c1,0.2,2.2,0.3,3.3,0.5c0,0-0.1,0-0.1,0v7.2c-1.1-0.1-2.2-0.3-3.2-0.5V41.6z M115.6,42.5
		c1.2,0.1,2.3,0.1,3.5,0.2v7.2c-1.2,0-2.4-0.1-3.5-0.2V42.5z M151.9,16.7C151.8,16.7,151.8,16.7,151.9,16.7l-0.1,6
		c-0.1,0.5-1.9,2.5-8,4.4c-5.9,1.8-13.7,2.8-21.9,2.8h0v-7.2c0,0,0,0,0,0c0,0,0,0,0,0C134.8,22.7,146.1,20.3,151.9,16.7z M107,21.6
		C106.9,21.6,106.9,21.6,107,21.6c1,0.2,2.2,0.3,3.3,0.5c0,0-0.1,0-0.1,0v7.2c-1.1-0.1-2.2-0.3-3.2-0.5V21.6z M115.6,22.5
		c1.2,0.1,2.3,0.1,3.5,0.2v7.2c-1.2,0-2.4-0.1-3.5-0.2V22.5z M101.5,7.9c5.6-1.6,12.9-2.4,20.3-2.4c7.5,0,14.7,0.9,20.3,2.4
		c4.5,1.2,6.8,2.6,7.8,3.4c-1,0.8-3.3,2.2-7.8,3.4c-5.6,1.6-12.9,2.4-20.3,2.4c-7.5,0-14.7-0.9-20.3-2.4c-4.5-1.2-6.8-2.6-7.8-3.4
		C94.7,10.5,97.1,9.2,101.5,7.9z M98.6,19.6v7c-5.1-1.8-6.6-3.5-6.7-4v-5.9c0,0-0.1,0-0.1-0.1C93.6,17.8,95.9,18.8,98.6,19.6z
		 M121.8,34.1c10.4,0,19.7-1.6,26-4c1,0.5,1.7,1,2.1,1.3c-1,0.8-3.3,2.2-7.8,3.4c-5.6,1.6-12.9,2.4-20.3,2.4
		c-7.5,0-14.7-0.9-20.3-2.4c-4.5-1.2-6.8-2.6-7.8-3.4c0.4-0.4,1.1-0.8,2.1-1.3C102.1,32.5,111.4,34.1,121.8,34.1z M121.8,54.1
		c10.4,0,19.7-1.6,26-4c1,0.5,1.7,1,2.1,1.3c-1,0.8-3.3,2.2-7.8,3.4c-5.6,1.6-12.9,2.4-20.3,2.4c-7.5,0-14.7-0.9-20.3-2.4
		c-4.5-1.2-6.8-2.6-7.8-3.4c0.4-0.4,1.1-0.8,2.1-1.3C102.1,52.5,111.4,54.1,121.8,54.1z M121.8,74.1c10.4,0,19.7-1.6,26-4
		c1,0.5,1.7,1,2.1,1.3c-1,0.8-3.3,2.2-7.8,3.4c-5.6,1.6-12.9,2.4-20.3,2.4c-7.5,0-14.7-0.9-20.3-2.4c-4.5-1.2-6.8-2.6-7.8-3.4
		c0.4-0.4,1.1-0.8,2.1-1.3C102.1,72.5,111.4,74.1,121.8,74.1z M61.5,83c5.6-1.6,12.9-2.4,20.3-2.4s14.7,0.9,20.3,2.4
		c4.5,1.2,6.8,2.6,7.8,3.4c-1,0.8-3.3,2.2-7.8,3.4c-5.6,1.6-12.9,2.4-20.3,2.4s-14.7-0.9-20.3-2.4c-4.5-1.2-6.8-2.6-7.8-3.4
		C54.7,85.6,57,84.2,61.5,83z M58.6,94.7v7c-5.1-1.8-6.6-3.5-6.7-4v-5.9c0,0-0.1,0-0.1-0.1C53.6,92.9,55.9,93.9,58.6,94.7z
		 M13.7,103c5.6-1.6,12.9-2.4,20.3-2.4c5.8,0,11.4,0.5,16.2,1.5c0,0,0,0,0.1,0.1c-0.4,0.3-0.7,0.6-1,0.9c-0.1,0.1-0.1,0.1-0.1,0.2
		c-0.1,0.1-0.2,0.2-0.3,0.3c-0.1,0.1-0.1,0.1-0.1,0.2c-0.1,0.1-0.2,0.2-0.2,0.3c0,0.1-0.1,0.1-0.1,0.2c-0.1,0.1-0.1,0.2-0.2,0.3
		c0,0.1-0.1,0.1-0.1,0.2c0,0.1-0.1,0.2-0.1,0.3c0,0.1,0,0.1-0.1,0.2c0,0.1-0.1,0.2-0.1,0.4c0,0.1,0,0.1,0,0.2c0,0.2,0,0.4,0,0.6
		c0,0.9,0,2.8,0,4.8c-4.2,0.7-8.9,1-13.7,1c-7.5,0-14.7-0.9-20.3-2.4c-4.5-1.2-6.8-2.6-7.8-3.4C6.9,105.6,9.3,104.2,13.7,103z
		 M10.8,114.7v7c-5.1-1.8-6.6-3.5-6.7-4v-5.9c0,0-0.1,0-0.1-0.1C5.8,112.9,8.1,113.9,10.8,114.7z M34.1,129.1c4.9,0,9.5-0.3,13.7-1
		c0,0.9,0,2,0,3.1c-4.2,0.7-8.9,1-13.7,1c-7.5,0-14.7-0.9-20.3-2.4c-4.5-1.2-6.8-2.6-7.8-3.4c0.4-0.4,1.1-0.8,2.1-1.3
		C14.3,127.6,23.6,129.1,34.1,129.1z M34.1,149.1c4.9,0,9.5-0.3,13.7-1c0,0.9,0,2,0,3.1c-4.2,0.7-8.9,1-13.7,1
		c-7.5,0-14.7-0.9-20.3-2.4c-4.5-1.2-6.8-2.6-7.8-3.4c0.4-0.4,1.1-0.8,2.1-1.3C14.3,147.6,23.6,149.1,34.1,149.1z M34.1,169.2
		c4.9,0,9.5-0.3,13.7-1c0,0.9,0,2,0,3.1c-4.2,0.7-8.9,1-13.7,1c-7.5,0-14.7-0.9-20.3-2.4c-4.5-1.2-6.8-2.6-7.8-3.4
		c0.4-0.4,1.1-0.8,2.1-1.3C14.3,167.6,23.6,169.2,34.1,169.2z M10.8,201.8c-5.1-1.8-6.6-3.5-6.7-4v-5.9c0,0-0.1,0-0.1-0.1
		c1.8,1.1,4.1,2.1,6.8,2.9V201.8z M5.9,186.5c0.4-0.4,1.1-0.8,2.1-1.3c6.2,2.5,15.6,4,26,4c4.9,0,9.5-0.3,13.7-1c0,0.9,0,2,0,3.1
		c-4.2,0.7-8.9,1-13.7,1c-7.5,0-14.7-0.9-20.3-2.4C9.3,188.7,6.9,187.3,5.9,186.5z M22.4,197.2v7.2c-1.1-0.1-2.2-0.3-3.2-0.5v-7.2
		c0,0-0.1,0-0.1,0C20.2,196.9,21.3,197,22.4,197.2C22.5,197.2,22.5,197.2,22.4,197.2z M31.3,205c-1.2,0-2.4-0.1-3.5-0.2v-7.2
		c1.2,0.1,2.3,0.1,3.5,0.2V205z M34.1,205.1v-7.2c0,0,0,0,0,0c0,0,0,0,0,0c4.9,0,9.5-0.3,13.7-1c0,0.4,0,0.7,0,1
		c0,1.5,0.9,3,2.6,4.3c-0.4,0.3-0.7,0.6-1,0.9c-0.1,0.1-0.1,0.1-0.1,0.2c-0.1,0.1-0.2,0.2-0.3,0.3c-0.1,0.1-0.1,0.1-0.1,0.2
		c0,0-0.1,0.1-0.1,0.1C44.2,204.7,39.2,205.1,34.1,205.1L34.1,205.1z M58.6,221.8c-5.1-1.8-6.6-3.5-6.7-4v-5.9c0,0-0.1,0-0.1-0.1
		c1.8,1.1,4.1,2.1,6.8,2.9V221.8z M53.7,206.5c0.4-0.4,1.1-0.8,2.1-1.3c5.5,2.2,13.3,3.6,22.2,3.9c0.4,1.1,1.2,2.1,2.4,3.1
		c-0.1,0.1-0.1,0.1-0.2,0.2c-6.9-0.1-13.5-1-18.7-2.4C57,208.7,54.7,207.3,53.7,206.5z M70.2,217.2v7.2c-1.1-0.1-2.2-0.3-3.2-0.5
		v-7.2c0,0-0.1,0-0.1,0C68,216.9,69.1,217,70.2,217.2C70.2,217.2,70.2,217.2,70.2,217.2z M75.6,217.7c0.7,0,1.5,0.1,2.2,0.1
		c0,1.9,0,4.9,0,7.2c-0.7,0-1.5-0.1-2.2-0.1V217.7z M88.6,251.8c-5.1-1.8-6.6-3.5-6.7-4v-5.9c0,0-0.1,0-0.1-0.1
		c1.8,1.1,4.1,2.1,6.8,2.9V251.8z M100.2,247.2v7.2c-1.1-0.1-2.2-0.3-3.2-0.5v-7.2c0,0-0.1,0-0.1,0C98,246.9,99.1,247.1,100.2,247.2
		C100.3,247.2,100.2,247.2,100.2,247.2z M109.1,255.1c-1.2,0-2.4-0.1-3.5-0.2v-7.2c1.2,0.1,2.3,0.1,3.5,0.2V255.1z M141.8,241.9v5.9
		c-0.1,0.5-1.9,2.5-8,4.4c-5.9,1.8-13.7,2.8-21.9,2.8h0v-7.2c0,0,0,0,0,0c0,0,0,0,0,0C124.8,247.9,136.1,245.5,141.8,241.9
		C141.8,241.9,141.8,241.9,141.8,241.9z M139.9,236.5c-1,0.8-3.3,2.2-7.8,3.4c-5.6,1.6-12.9,2.4-20.3,2.4s-14.7-0.9-20.3-2.4
		c-4.5-1.2-6.8-2.6-7.8-3.4c0.4-0.4,1.1-0.8,2.1-1.3c6.2,2.5,15.6,4,26,4c10.4,0,19.7-1.6,26-4C138.8,235.7,139.5,236.2,139.9,236.5
		z M141.8,227.8c-0.1,0.5-1.9,2.5-8,4.4c-5.9,1.8-13.7,2.8-21.9,2.8h0v-7.2c0,0,0,0,0,0c0,0,0,0,0,0c13,0,24.3-2.4,30-6
		c0,0-0.1,0-0.1,0.1V227.8z M150.3,217.2v7.2c-1.1-0.1-2.2-0.3-3.2-0.5v-7.2c0,0-0.1,0-0.1,0C148,216.9,149.2,217,150.3,217.2
		C150.3,217.2,150.3,217.2,150.3,217.2z M159.2,225.1c-1.2,0-2.4-0.1-3.5-0.2v-7.2c1.2,0.1,2.3,0.1,3.5,0.2V225.1z M191.8,211.9v5.9
		c-0.1,0.5-1.9,2.5-8,4.4c-5.9,1.8-13.7,2.8-21.9,2.8h0v-7.2c0,0,0,0,0,0c0,0,0,0,0,0C174.9,217.9,186.1,215.4,191.8,211.9
		C191.9,211.9,191.8,211.9,191.8,211.9z M190,206.5c-1,0.8-3.3,2.2-7.8,3.4c-5.6,1.6-12.9,2.4-20.3,2.4c-6.1,0-12-0.6-17.1-1.7
		c0.7-0.9,1.1-1.9,1.1-2.9c4.8,0.8,10.2,1.3,16,1.3c10.4,0,19.7-1.6,26-4C188.8,205.7,189.6,206.2,190,206.5z M183.8,202.2
		c-5.9,1.8-13.7,2.8-21.9,2.8h0v-7.2c0,0,0,0,0,0c0,0,0,0,0,0c13,0,24.3-2.4,30-6c0,0-0.1,0-0.1,0.1v5.9
		C191.7,198.3,189.9,200.3,183.8,202.2z M213.4,181.9v5.9c-0.1,0.5-1.9,2.5-8,4.4c-2.8,0.9-6,1.5-9.5,2c0-2.5,0-5.6,0-7.2
		C203.5,186.1,209.7,184.2,213.4,181.9C213.5,181.9,213.5,181.9,213.4,181.9z M211.6,176.5c-1,0.8-3.3,2.2-7.8,3.4
		c-3,0.8-6.4,1.4-10,1.9c1.2-1.1,1.9-2.2,2.1-3.4c5.3-0.7,10-1.8,13.6-3.2C210.5,175.7,211.2,176.1,211.6,176.5z M211.6,156.5
		c-1,0.8-3.3,2.2-7.8,3.4c-3,0.8-6.4,1.4-10,1.9c1.2-1.1,1.9-2.2,2.1-3.4c5.3-0.7,10-1.8,13.6-3.2
		C210.5,155.6,211.2,156.1,211.6,156.5z M211.6,136.5c-1,0.8-3.3,2.2-7.8,3.4c-3,0.8-6.4,1.4-10,1.9c1.2-1.1,1.9-2.2,2.1-3.4
		c5.3-0.7,10-1.8,13.6-3.2C210.5,135.6,211.2,136.1,211.6,136.5z M211.6,116.4c-1,0.8-3.3,2.2-7.8,3.4c-3.2,0.9-6.9,1.5-10.9,1.9
		c-0.1-0.1-0.2-0.2-0.4-0.3c0,0-0.1-0.1-0.1-0.1c-0.2-0.1-0.4-0.2-0.6-0.4c-0.1,0-0.2-0.1-0.2-0.1c-0.2-0.1-0.3-0.2-0.5-0.3
		c-0.1-0.1-0.2-0.1-0.3-0.2c-0.2-0.1-0.4-0.2-0.6-0.3c-0.1,0-0.2-0.1-0.3-0.1c-0.3-0.1-0.6-0.3-0.9-0.4c-0.2-0.1-0.4-0.2-0.6-0.2
		c-0.3-0.1-0.6-0.3-1-0.4c8.7-0.4,16.4-1.8,21.8-3.9C210.5,115.6,211.2,116.1,211.6,116.4z"/>
	<path class="st0" d="M115.6,142.6v2.5c0,0,0,0,0,0c0.1,0,0.2,0,0.2,0c0.3,0,0.7,0,1,0c0.2,0,0.5,0,0.7,0c0.3,0,0.6,0,0.9,0.1
		c0.2,0,0.4,0,0.6,0v-2.6C117.9,142.7,116.8,142.7,115.6,142.6z"/>
	<path class="st0" d="M121.8,142.8C121.8,142.8,121.8,142.8,121.8,142.8l0,2.8c0.2,0,0.4,0,0.5,0.1c0.3,0,0.6,0.1,0.8,0.1
		c0.2,0,0.5,0.1,0.7,0.1c0.3,0,0.5,0.1,0.8,0.1c0.2,0,0.5,0.1,0.7,0.1c0.3,0,0.5,0.1,0.8,0.1c0.2,0,0.4,0.1,0.7,0.1
		c0.3,0,0.5,0.1,0.8,0.1c0.1,0,0.1,0,0.2,0c0-0.2,0-0.4,0-0.5c0-0.1,0-0.1,0-0.2c0-0.1,0-0.2,0.1-0.4c0-0.1,0-0.1,0.1-0.2
		c0-0.1,0.1-0.2,0.1-0.3c0-0.1,0.1-0.1,0.1-0.2c0.1-0.1,0.1-0.2,0.2-0.3c0-0.1,0.1-0.1,0.1-0.2c0.1-0.1,0.1-0.2,0.2-0.3
		c0-0.1,0.1-0.1,0.1-0.2c0.1-0.1,0.2-0.2,0.3-0.3c0-0.1,0.1-0.1,0.1-0.2c0.2-0.2,0.4-0.4,0.6-0.6
		C127.4,142.7,124.7,142.8,121.8,142.8C121.8,142.8,121.8,142.8,121.8,142.8z"/>
	<path class="st0" d="M121.8,137.3c2,0,4-0.1,6-0.2c0-0.8,0-1.9,0-3.2c-1.9,0.1-3.9,0.2-6,0.2c-2,0-4-0.1-6-0.2c0,1.2,0,2.4,0,3.2
		C117.8,137.2,119.8,137.3,121.8,137.3z"/>
	<path class="st0" d="M119.1,130v-7.2c-1.2,0-2.4-0.1-3.5-0.2v2.5c0,0,0,0,0,0.1c0,0.1,0,0.1,0.1,0.2c0,0.1,0.1,0.2,0.1,0.4
		c0,0.1,0,0.1,0,0.2c0,0.2,0,0.4,0,0.5c0,0.7,0,1.9,0,3.4C116.9,129.9,118,129.9,119.1,130z"/>
	<path class="st0" d="M121.8,122.8C121.8,122.8,121.8,122.8,121.8,122.8C121.8,122.8,121.8,122.8,121.8,122.8v7.2h0c2,0,4-0.1,6-0.2
		c0-1.4,0-2.7,0-3.4c0-0.2,0-0.4,0-0.6c0-0.1,0-0.1,0-0.2c0-0.1,0-0.2,0.1-0.4c0-0.1,0-0.1,0.1-0.2c0-0.1,0.1-0.2,0.1-0.3
		c0-0.1,0.1-0.1,0.1-0.2c0.1-0.1,0.1-0.2,0.2-0.3c0-0.1,0.1-0.1,0.1-0.2c0.1-0.1,0.1-0.2,0.2-0.3c0-0.1,0.1-0.1,0.1-0.2
		c0.1-0.1,0.2-0.2,0.3-0.3c0-0.1,0.1-0.1,0.1-0.2c0.2-0.2,0.4-0.4,0.6-0.6C127.4,122.7,124.7,122.8,121.8,122.8z"/>
	<path class="st0" d="M115.9,113.9c0,1.2,0,2.4,0,3.2c2,0.1,4,0.2,6,0.2c7.5,0,14.7-0.9,20.3-2.4c4.5-1.2,6.8-2.6,7.8-3.4
		c-0.4-0.4-1.1-0.8-2.1-1.3c-6.2,2.5-15.6,4-26,4C119.8,114.1,117.8,114.1,115.9,113.9z"/>
	<path class="st0" d="M115.6,105.1C115.6,105.1,115.6,105.1,115.6,105.1c0,0.1,0.1,0.2,0.1,0.2c0,0.1,0.1,0.2,0.1,0.4
		c0,0.1,0,0.1,0,0.2c0,0.2,0,0.4,0,0.5c0,0.7,0,1.9,0,3.4c1.1,0.1,2.2,0.1,3.3,0.1v-7.2c-1.2,0-2.4-0.1-3.5-0.2V105.1z"/>
	<path class="st0" d="M121.8,102.8C121.8,102.8,121.8,102.8,121.8,102.8C121.8,102.8,121.8,102.8,121.8,102.8v7.2h0
		c8.2,0,16-1,21.9-2.8c6.2-1.9,7.9-3.9,8-4.4v-5.9c0,0,0.1,0,0.1-0.1C146.1,100.3,134.8,102.8,121.8,102.8z"/>
	<path class="st0" d="M115.9,93.9c0,1.2,0,2.4,0,3.2c2,0.1,4,0.2,6,0.2c7.5,0,14.7-0.9,20.3-2.4c4.5-1.2,6.8-2.6,7.8-3.4
		c-0.4-0.4-1.1-0.8-2.1-1.3c-6.2,2.5-15.6,4-26,4C119.8,94.1,117.8,94,115.9,93.9z"/>
	<path class="st0" d="M119.1,89.9v-7.2c-1.2,0-2.4-0.1-3.5-0.2v2.5c0,0,0,0,0,0.1c0,0.1,0,0.1,0.1,0.2c0,0.1,0.1,0.2,0.1,0.4
		c0,0.1,0,0.1,0,0.2c0,0.2,0,0.4,0,0.5c0,0.7,0,1.9,0,3.4C116.9,89.9,118,89.9,119.1,89.9z"/>
	<path class="st0" d="M121.8,82.7C121.8,82.7,121.8,82.7,121.8,82.7C121.8,82.7,121.8,82.7,121.8,82.7V90h0c8.2,0,16-1,21.9-2.8
		c6.2-1.9,7.9-3.9,8-4.4v-5.9c0,0,0.1,0,0.1-0.1C146.1,80.3,134.8,82.7,121.8,82.7z"/>
	<path class="st0" d="M101.5,74.8c5.6,1.6,12.9,2.4,20.3,2.4c7.5,0,14.7-0.9,20.3-2.4c4.5-1.2,6.8-2.6,7.8-3.4
		c-0.4-0.4-1.1-0.8-2.1-1.3c-6.2,2.5-15.6,4-26,4c-10.4,0-19.7-1.6-26-4c-1,0.5-1.7,1-2.1,1.3C94.7,72.2,97.1,73.6,101.5,74.8z"/>
	<path class="st0" d="M119.1,62.7c-1.2,0-2.4-0.1-3.5-0.2v7.2c1.2,0.1,2.3,0.1,3.5,0.2V62.7z"/>
	<path class="st0" d="M98.6,59.7c-2.7-0.8-5-1.8-6.8-2.9c0,0,0.1,0,0.1,0.1v5.9c0.1,0.4,1.6,2.2,6.7,4V59.7z"/>
	<path class="st0" d="M151.8,62.7v-5.9c0,0,0.1,0,0.1-0.1c-5.7,3.6-17,6-30,6c0,0,0,0,0,0c0,0,0,0,0,0V70h0c8.2,0,16-1,21.9-2.8
		C149.9,65.2,151.6,63.2,151.8,62.7z"/>
	<path class="st0" d="M110.2,62.1C110.2,62.1,110.3,62.1,110.2,62.1c-1.1-0.1-2.2-0.3-3.3-0.5c0,0,0.1,0,0.1,0v7.2
		c1.1,0.2,2.1,0.3,3.2,0.5V62.1z"/>
	<path class="st0" d="M101.5,54.8c5.6,1.6,12.9,2.4,20.3,2.4c7.5,0,14.7-0.9,20.3-2.4c4.5-1.2,6.8-2.6,7.8-3.4
		c-0.4-0.4-1.1-0.8-2.1-1.3c-6.2,2.5-15.6,4-26,4c-10.4,0-19.7-1.6-26-4c-1,0.5-1.7,1-2.1,1.3C94.7,52.2,97.1,53.6,101.5,54.8z"/>
	<path class="st0" d="M119.1,42.7c-1.2,0-2.4-0.1-3.5-0.2v7.2c1.2,0.1,2.3,0.1,3.5,0.2V42.7z"/>
	<path class="st0" d="M98.6,39.7c-2.7-0.8-5-1.8-6.8-2.9c0,0,0.1,0,0.1,0.1v5.9c0.1,0.4,1.6,2.2,6.7,4V39.7z"/>
	<path class="st0" d="M151.8,42.7v-5.9c0,0,0.1,0,0.1-0.1c-5.7,3.6-17,6-30,6c0,0,0,0,0,0c0,0,0,0,0,0v7.2h0c8.2,0,16-1,21.9-2.8
		C149.9,45.2,151.6,43.2,151.8,42.7z"/>
	<path class="st0" d="M110.2,42C110.2,42,110.3,42,110.2,42c-1.1-0.1-2.2-0.3-3.3-0.5c0,0,0.1,0,0.1,0v7.2c1.1,0.2,2.1,0.3,3.2,0.5
		V42z"/>
	<path class="st0" d="M101.5,34.8c5.6,1.6,12.9,2.4,20.3,2.4c7.5,0,14.7-0.9,20.3-2.4c4.5-1.2,6.8-2.6,7.8-3.4
		c-0.4-0.4-1.1-0.8-2.1-1.3c-6.2,2.5-15.6,4-26,4c-10.4,0-19.7-1.6-26-4c-1,0.5-1.7,1-2.1,1.3C94.7,32.2,97.1,33.6,101.5,34.8z"/>
	<path class="st0" d="M146.6,3.6C146.7,3.6,146.7,3.6,146.6,3.6C146.7,3.6,146.7,3.6,146.6,3.6z"/>
	<path class="st0" d="M119.1,22.7c-1.2,0-2.4-0.1-3.5-0.2v7.2c1.2,0.1,2.3,0.1,3.5,0.2V22.7z"/>
	<path class="st0" d="M91.9,22.7c0.1,0.4,1.6,2.2,6.7,4v-7c-2.7-0.8-5-1.8-6.8-2.9c0,0,0.1,0,0.1,0.1V22.7z"/>
	<path class="st0" d="M121.8,22.7C121.8,22.7,121.8,22.7,121.8,22.7C121.8,22.7,121.8,22.7,121.8,22.7v7.2h0c8.2,0,16-1,21.9-2.8
		c6.2-1.9,7.9-3.9,8-4.4v-5.9c0,0,0.1,0,0.1-0.1C146.1,20.3,134.8,22.7,121.8,22.7z"/>
	<path class="st0" d="M110.2,22C110.2,22,110.3,22,110.2,22c-1.1-0.1-2.2-0.3-3.3-0.5c0,0,0.1,0,0.1,0v7.2c1.1,0.2,2.1,0.3,3.2,0.5
		V22z"/>
	<path class="st0" d="M121.8,17.2c7.5,0,14.7-0.9,20.3-2.4c4.5-1.2,6.8-2.6,7.8-3.4c-1-0.8-3.3-2.2-7.8-3.4
		c-5.6-1.6-12.9-2.4-20.3-2.4c-7.5,0-14.7,0.9-20.3,2.4c-4.5,1.2-6.8,2.6-7.8,3.4c1,0.8,3.3,2.2,7.8,3.4
		C107.1,16.3,114.4,17.2,121.8,17.2z"/>
	<path class="st0" d="M27.8,204.9c1.2,0.1,2.3,0.1,3.5,0.2v-7.2c-1.2,0-2.4-0.1-3.5-0.2V204.9z"/>
	<path class="st0" d="M4.1,191.9v5.9c0.1,0.4,1.6,2.2,6.7,4v-7C8.1,193.9,5.8,193,4.1,191.9C4.1,191.9,4.1,191.9,4.1,191.9z"/>
	<path class="st0" d="M48.7,203.8c0-0.1,0.1-0.1,0.1-0.2c0.1-0.1,0.2-0.2,0.3-0.3c0-0.1,0.1-0.1,0.1-0.2c0.3-0.3,0.6-0.6,1-0.9
		c-1.7-1.3-2.6-2.8-2.6-4.3c0-0.2,0-0.6,0-1c-4.2,0.6-8.8,1-13.7,1c0,0,0,0,0,0c0,0,0,0,0,0v7.2h0c5.2,0,10.1-0.4,14.6-1.1
		C48.7,203.9,48.7,203.8,48.7,203.8z"/>
	<path class="st0" d="M19.2,196.7v7.2c1.1,0.2,2.1,0.3,3.2,0.5v-7.2c0,0,0.1,0,0.1,0C21.3,197,20.2,196.9,19.2,196.7
		C19.1,196.7,19.2,196.7,19.2,196.7z"/>
	<path class="st0" d="M47.8,191.3c0-1.1,0-2.2,0-3.1c-4.2,0.6-8.8,1-13.7,1c-10.4,0-19.7-1.6-26-4c-1,0.5-1.7,1-2.1,1.3
		c1,0.8,3.3,2.2,7.8,3.4c5.6,1.6,12.9,2.4,20.3,2.4C38.8,192.4,43.5,192,47.8,191.3z"/>
	<path class="st0" d="M31.3,177.8c-1.2,0-2.4-0.1-3.5-0.2v7.2c1.2,0.1,2.3,0.1,3.5,0.2V177.8z"/>
	<path class="st0" d="M10.8,174.8c-2.7-0.8-5-1.8-6.8-2.9c0,0,0.1,0,0.1,0.1v5.9c0.1,0.4,1.6,2.2,6.7,4V174.8z"/>
	<path class="st0" d="M48.7,183.9c0,0,0.1-0.1,0.1-0.1c0-0.1,0.1-0.1,0.1-0.2c0.1-0.1,0.2-0.2,0.3-0.3c0-0.1,0.1-0.1,0.1-0.2
		c0.3-0.3,0.6-0.6,1-0.9c-1.7-1.3-2.6-2.8-2.6-4.3c0-0.2,0-0.6,0-1c-4.2,0.6-8.8,1-13.7,1c0,0,0,0,0,0c0,0,0,0,0,0v7.2h0
		C39.2,185.1,44.2,184.7,48.7,183.9z"/>
	<path class="st0" d="M22.4,177.1C22.5,177.1,22.5,177.2,22.4,177.1c-1.1-0.1-2.2-0.3-3.3-0.5c0,0,0.1,0,0.1,0v7.2
		c1.1,0.2,2.1,0.3,3.2,0.5V177.1z"/>
	<path class="st0" d="M13.7,169.9c5.6,1.6,12.9,2.4,20.3,2.4c4.8,0,9.5-0.4,13.7-1c0-1.1,0-2.2,0-3.1c-4.2,0.6-8.8,1-13.7,1
		c-10.4,0-19.7-1.6-26-4c-1,0.5-1.7,1-2.1,1.3C6.9,167.3,9.3,168.7,13.7,169.9z"/>
	<path class="st0" d="M31.3,157.8c-1.2,0-2.4-0.1-3.5-0.2v7.2c1.2,0.1,2.3,0.1,3.5,0.2V157.8z"/>
	<path class="st0" d="M10.8,154.8c-2.7-0.8-5-1.8-6.8-2.9c0,0,0.1,0,0.1,0.1v5.9c0.1,0.4,1.6,2.2,6.7,4V154.8z"/>
	<path class="st0" d="M48.7,163.9c0,0,0.1-0.1,0.1-0.1c0-0.1,0.1-0.1,0.1-0.2c0.1-0.1,0.2-0.2,0.3-0.3c0-0.1,0.1-0.1,0.1-0.2
		c0.3-0.3,0.6-0.6,1-0.9c-1.7-1.3-2.6-2.8-2.6-4.3c0-0.2,0-0.6,0-1c-4.2,0.6-8.8,1-13.7,1c0,0,0,0,0,0c0,0,0,0,0,0v7.2h0
		C39.2,165,44.2,164.6,48.7,163.9z"/>
	<path class="st0" d="M22.4,157.1C22.5,157.1,22.5,157.1,22.4,157.1c-1.1-0.1-2.2-0.3-3.3-0.5c0,0,0.1,0,0.1,0v7.2
		c1.1,0.2,2.1,0.3,3.2,0.5V157.1z"/>
	<path class="st0" d="M13.7,149.9c5.6,1.6,12.9,2.4,20.3,2.4c4.8,0,9.5-0.4,13.7-1c0-1.1,0-2.2,0-3.1c-4.2,0.6-8.8,1-13.7,1
		c-10.4,0-19.7-1.6-26-4c-1,0.5-1.7,1-2.1,1.3C6.9,147.3,9.3,148.6,13.7,149.9z"/>
	<path class="st0" d="M31.3,137.8c-1.2,0-2.4-0.1-3.5-0.2v7.2c1.2,0.1,2.3,0.1,3.5,0.2V137.8z"/>
	<path class="st0" d="M10.8,134.7c-2.7-0.8-5-1.8-6.8-2.9c0,0,0.1,0,0.1,0.1v5.9c0.1,0.4,1.6,2.2,6.7,4V134.7z"/>
	<path class="st0" d="M48.7,143.9c0,0,0.1-0.1,0.1-0.1c0-0.1,0.1-0.1,0.1-0.2c0.1-0.1,0.2-0.2,0.3-0.3c0-0.1,0.1-0.1,0.1-0.2
		c0.3-0.3,0.6-0.6,1-0.9c-1.7-1.3-2.6-2.8-2.6-4.3c0-0.2,0-0.6,0-1c-4.2,0.6-8.8,1-13.7,1c0,0,0,0,0,0c0,0,0,0,0,0v7.2h0
		C39.2,145,44.2,144.6,48.7,143.9z"/>
	<path class="st0" d="M22.4,137.1C22.5,137.1,22.5,137.1,22.4,137.1c-1.1-0.1-2.2-0.3-3.3-0.5c0,0,0.1,0,0.1,0v7.2
		c1.1,0.2,2.1,0.3,3.2,0.5V137.1z"/>
	<path class="st0" d="M13.7,129.9c5.6,1.6,12.9,2.4,20.3,2.4c4.8,0,9.5-0.4,13.7-1c0-1.1,0-2.2,0-3.1c-4.2,0.6-8.8,1-13.7,1
		c-10.4,0-19.7-1.6-26-4c-1,0.5-1.7,1-2.1,1.3C6.9,127.3,9.3,128.6,13.7,129.9z"/>
	<path class="st0" d="M31.3,117.7c-1.2,0-2.4-0.1-3.5-0.2v7.2c1.2,0.1,2.3,0.1,3.5,0.2V117.7z"/>
	<path class="st0" d="M4.1,117.7c0.1,0.4,1.6,2.2,6.7,4v-7c-2.7-0.8-5-1.8-6.8-2.9c0,0,0.1,0,0.1,0.1V117.7z"/>
	<path class="st0" d="M48.7,123.9c0,0,0.1-0.1,0.1-0.1c0-0.1,0.1-0.1,0.1-0.2c0.1-0.1,0.2-0.2,0.3-0.3c0-0.1,0.1-0.1,0.1-0.2
		c0.3-0.3,0.6-0.6,1-0.9c-1.7-1.3-2.6-2.8-2.6-4.3c0-0.2,0-0.6,0-1c-4.2,0.6-8.8,1-13.7,1c0,0,0,0,0,0c0,0,0,0,0,0v7.2h0
		C39.2,125,44.2,124.6,48.7,123.9z"/>
	<path class="st0" d="M22.4,117.1C22.5,117.1,22.5,117.1,22.4,117.1c-1.1-0.1-2.2-0.3-3.3-0.5c0,0,0.1,0,0.1,0v7.2
		c1.1,0.2,2.1,0.3,3.2,0.5V117.1z"/>
	<path class="st0" d="M34.1,112.3c4.8,0,9.5-0.4,13.7-1c0-2,0-3.9,0-4.8c0-0.2,0-0.4,0-0.6c0-0.1,0-0.1,0-0.2c0-0.1,0-0.2,0.1-0.4
		c0-0.1,0-0.1,0.1-0.2c0-0.1,0.1-0.2,0.1-0.3c0-0.1,0.1-0.1,0.1-0.2c0.1-0.1,0.1-0.2,0.2-0.3c0-0.1,0.1-0.1,0.1-0.2
		c0.1-0.1,0.1-0.2,0.2-0.3c0-0.1,0.1-0.1,0.1-0.2c0.1-0.1,0.2-0.2,0.3-0.3c0-0.1,0.1-0.1,0.1-0.2c0.3-0.3,0.6-0.6,1-0.9
		c0,0,0,0-0.1-0.1c-4.8-1-10.5-1.5-16.2-1.5c-7.5,0-14.7,0.9-20.3,2.4c-4.5,1.2-6.8,2.6-7.8,3.4c1,0.8,3.3,2.2,7.8,3.4
		C19.4,111.4,26.6,112.3,34.1,112.3z"/>
	<path class="st0" d="M77.8,217.8c-0.7,0-1.5-0.1-2.2-0.1v7.2c0.7,0,1.5,0.1,2.2,0.1C77.8,222.6,77.8,219.6,77.8,217.8z"/>
	<path class="st0" d="M51.9,211.9v5.9c0.1,0.4,1.6,2.2,6.7,4v-7C55.9,214,53.6,213,51.9,211.9C51.8,211.9,51.8,211.9,51.9,211.9z"/>
	<path class="st0" d="M66.9,216.7v7.2c1.1,0.2,2.1,0.3,3.2,0.5v-7.2c0,0,0.1,0,0.1,0C69.1,217,68,216.9,66.9,216.7
		C66.9,216.7,66.9,216.7,66.9,216.7z"/>
	<path class="st0" d="M80.4,212.2c-1.2-1-2-2-2.4-3.1c-8.9-0.3-16.7-1.8-22.2-3.9c-1,0.5-1.7,1-2.1,1.3c1,0.8,3.3,2.2,7.8,3.4
		c5.2,1.5,11.8,2.3,18.7,2.4C80.2,212.3,80.3,212.2,80.4,212.2z"/>
	<path class="st0" d="M77.8,197.7c-0.7,0-1.5-0.1-2.2-0.1v7.2c0.7,0,1.5,0.1,2.2,0.1C77.8,202.6,77.8,199.6,77.8,197.7z"/>
	<path class="st0" d="M51.9,197.8c0.1,0.4,1.6,2.2,6.7,4v-7c-2.7-0.8-5-1.8-6.8-2.9c0,0,0.1,0,0.1,0.1V197.8z"/>
	<path class="st0" d="M70.2,197.2C70.2,197.2,70.2,197.2,70.2,197.2c-1.1-0.1-2.2-0.3-3.3-0.5c0,0,0.1,0,0.1,0v7.2
		c1.1,0.2,2.1,0.3,3.2,0.5V197.2z"/>
	<path class="st0" d="M61.5,189.9c5.2,1.5,11.8,2.3,18.7,2.4c0.1-0.1,0.1-0.1,0.2-0.2c-1.2-1-2-2-2.4-3.1
		c-8.9-0.3-16.7-1.8-22.2-3.9c-1,0.5-1.7,1-2.1,1.3C54.7,187.3,57,188.7,61.5,189.9z"/>
	<path class="st0" d="M77.8,177.7c-0.7,0-1.5-0.1-2.2-0.1v7.2c0.7,0,1.5,0.1,2.2,0.1C77.8,182.6,77.8,179.6,77.8,177.7z"/>
	<path class="st0" d="M51.9,177.8c0.1,0.4,1.6,2.2,6.7,4v-7c-2.7-0.8-5-1.8-6.8-2.9c0,0,0.1,0,0.1,0.1V177.8z"/>
	<path class="st0" d="M70.2,177.1C70.2,177.1,70.2,177.2,70.2,177.1c-1.1-0.1-2.2-0.3-3.3-0.5c0,0,0.1,0,0.1,0v7.2
		c1.1,0.2,2.1,0.3,3.2,0.5V177.1z"/>
	<path class="st0" d="M61.5,169.9c5.2,1.5,11.8,2.3,18.7,2.4c0.1-0.1,0.1-0.1,0.2-0.2c-1.2-1-2-2-2.4-3.1
		c-8.9-0.3-16.7-1.8-22.2-3.9c-1,0.5-1.7,1-2.1,1.3C54.7,167.3,57,168.7,61.5,169.9z"/>
	<path class="st0" d="M77.8,157.7c-0.7,0-1.5-0.1-2.2-0.1v7.2c0.7,0,1.5,0.1,2.2,0.1C77.8,162.6,77.8,159.6,77.8,157.7z"/>
	<path class="st0" d="M51.9,157.8c0.1,0.4,1.6,2.2,6.7,4v-7c-2.7-0.8-5-1.8-6.8-2.9c0,0,0.1,0,0.1,0.1V157.8z"/>
	<path class="st0" d="M70.2,157.1C70.2,157.1,70.2,157.1,70.2,157.1c-1.1-0.1-2.2-0.3-3.3-0.5c0,0,0.1,0,0.1,0v7.2
		c1.1,0.2,2.1,0.3,3.2,0.5V157.1z"/>
	<path class="st0" d="M107.8,145.1c-0.1,0-0.1,0.1-0.2,0.1c0.1,0,0.2,0,0.3,0C107.9,145.2,107.8,145.2,107.8,145.1z"/>
	<path class="st0" d="M61.5,149.9c5.2,1.5,11.8,2.3,18.7,2.4c0.1-0.1,0.2-0.1,0.3-0.2c0.1-0.1,0.1-0.1,0.2-0.2
		c0.1-0.1,0.3-0.2,0.4-0.3c0.1-0.1,0.2-0.1,0.3-0.2c0.1-0.1,0.3-0.2,0.4-0.3c0.1-0.1,0.2-0.1,0.3-0.2c0.2-0.1,0.3-0.2,0.5-0.3
		c0.1-0.1,0.2-0.1,0.3-0.2c0.2-0.1,0.3-0.2,0.5-0.3c0.1-0.1,0.2-0.1,0.3-0.2c0.2-0.1,0.4-0.2,0.6-0.3c0.1,0,0.2-0.1,0.3-0.1
		c0.3-0.1,0.6-0.3,0.9-0.4c0,0,0,0,0,0c0.2-0.1,0.3-0.1,0.5-0.2c-1.4,0.1-2.8,0.1-4.3,0.1c-10.4,0-19.7-1.6-26-4
		c-1,0.5-1.7,1-2.1,1.3C54.7,147.3,57,148.6,61.5,149.9z"/>
	<path class="st0" d="M79.1,137.8c-1.2,0-2.4-0.1-3.5-0.2v7.2c1.2,0.1,2.3,0.1,3.5,0.2V137.8z"/>
	<path class="st0" d="M51.9,137.8c0.1,0.4,1.6,2.2,6.7,4v-7c-2.7-0.8-5-1.8-6.8-2.9c0,0,0.1,0,0.1,0.1V137.8z"/>
	<path class="st0" d="M103.7,142.2c6.2-1.9,7.9-3.9,8-4.4v-5.9c0,0,0.1,0,0.1-0.1c-5.7,3.6-17,6-30,6c0,0,0,0,0,0c0,0,0,0,0,0v7.2h0
		C90,145,97.8,144,103.7,142.2z"/>
	<path class="st0" d="M70.2,137.1C70.2,137.1,70.2,137.1,70.2,137.1c-1.1-0.1-2.2-0.3-3.3-0.5c0,0,0.1,0,0.1,0v7.2
		c1.1,0.2,2.1,0.3,3.2,0.5V137.1z"/>
	<path class="st0" d="M61.5,129.9c5.6,1.6,12.9,2.4,20.3,2.4s14.7-0.9,20.3-2.4c4.5-1.2,6.8-2.6,7.8-3.4c-0.4-0.4-1.1-0.8-2.1-1.3
		c-6.2,2.5-15.6,4-26,4c-10.4,0-19.7-1.6-26-4c-1,0.5-1.7,1-2.1,1.3C54.7,127.3,57,128.6,61.5,129.9z"/>
	<path class="st0" d="M79.1,117.7c-1.2,0-2.4-0.1-3.5-0.2v7.2c1.2,0.1,2.3,0.1,3.5,0.2V117.7z"/>
	<path class="st0" d="M51.9,117.7c0.1,0.4,1.6,2.2,6.7,4v-7c-2.7-0.8-5-1.8-6.8-2.9c0,0,0.1,0,0.1,0.1V117.7z"/>
	<path class="st0" d="M103.7,122.2c6.2-1.9,7.9-3.9,8-4.4v-5.9c0,0,0.1,0,0.1-0.1c-5.7,3.6-17,6-30,6c0,0,0,0,0,0c0,0,0,0,0,0v7.2h0
		C90,125,97.8,124,103.7,122.2z"/>
	<path class="st0" d="M70.2,117.1C70.2,117.1,70.2,117.1,70.2,117.1c-1.1-0.1-2.2-0.3-3.3-0.5c0,0,0.1,0,0.1,0v7.2
		c1.1,0.2,2.1,0.3,3.2,0.5V117.1z"/>
	<path class="st0" d="M61.5,109.9c5.6,1.6,12.9,2.4,20.3,2.4s14.7-0.9,20.3-2.4c4.5-1.2,6.8-2.6,7.8-3.4c-0.4-0.4-1.1-0.8-2.1-1.3
		c-6.2,2.5-15.6,4-26,4c-10.4,0-19.7-1.6-26-4c-1,0.5-1.7,1-2.1,1.3C54.7,107.2,57,108.6,61.5,109.9z"/>
	<path class="st0" d="M106.7,78.7C106.7,78.7,106.6,78.6,106.7,78.7C106.6,78.6,106.7,78.7,106.7,78.7z"/>
	<path class="st0" d="M79.1,97.7c-1.2,0-2.4-0.1-3.5-0.2v7.2c1.2,0.1,2.3,0.1,3.5,0.2V97.7z"/>
	<path class="st0" d="M51.9,97.7c0.1,0.4,1.6,2.2,6.7,4v-7c-2.7-0.8-5-1.8-6.8-2.9c0,0,0.1,0,0.1,0.1V97.7z"/>
	<path class="st0" d="M81.8,97.8C81.8,97.8,81.8,97.8,81.8,97.8C81.8,97.8,81.8,97.8,81.8,97.8v7.2h0c8.2,0,16-1,21.9-2.8
		c6.2-1.9,7.9-3.9,8-4.4v-5.9c0,0,0.1,0,0.1-0.1C106.1,95.3,94.8,97.8,81.8,97.8z"/>
	<path class="st0" d="M70.2,97.1C70.2,97.1,70.2,97.1,70.2,97.1c-1.1-0.1-2.2-0.3-3.3-0.5c0,0,0.1,0,0.1,0v7.2
		c1.1,0.2,2.1,0.3,3.2,0.5V97.1z"/>
	<path class="st0" d="M81.8,92.3c7.5,0,14.7-0.9,20.3-2.4c4.5-1.2,6.8-2.6,7.8-3.4c-1-0.8-3.3-2.2-7.8-3.4
		c-5.6-1.6-12.9-2.4-20.3-2.4S67.1,81.4,61.5,83c-4.5,1.2-6.8,2.6-7.8,3.4c1,0.8,3.3,2.2,7.8,3.4C67.1,91.4,74.3,92.3,81.8,92.3z"/>
	<path class="st0" d="M155.7,224.9c1.2,0.1,2.3,0.1,3.5,0.2v-7.2c-1.2,0-2.4-0.1-3.5-0.2V224.9z"/>
	<path class="st0" d="M161.8,217.9C161.9,217.9,161.9,217.9,161.8,217.9l0,7.2h0c8.2,0,16-1,21.9-2.8c6.2-1.9,7.9-3.9,8-4.4v-5.9
		c0,0,0.1,0,0.1-0.1C186.1,215.4,174.9,217.9,161.8,217.9C161.9,217.9,161.9,217.9,161.8,217.9z"/>
	<path class="st0" d="M147,216.7v7.2c1.1,0.2,2.1,0.3,3.2,0.5v-7.2c0,0,0.1,0,0.1,0C149.2,217,148,216.9,147,216.7
		C146.9,216.7,147,216.7,147,216.7z"/>
	<path class="st0" d="M145.9,207.9c0,1-0.4,1.9-1.1,2.9c5,1.1,11,1.7,17.1,1.7c7.5,0,14.7-0.9,20.3-2.4c4.5-1.2,6.8-2.6,7.8-3.4
		c-0.4-0.4-1.1-0.8-2.1-1.3c-6.2,2.5-15.6,4-26,4C156.1,209.2,150.6,208.7,145.9,207.9z"/>
	<path class="st0" d="M155.7,204.9c1.2,0.1,2.3,0.1,3.5,0.2v-7.2c-1.2,0-2.4-0.1-3.5-0.2V204.9z"/>
	<path class="st0" d="M191.8,197.8v-5.9c0,0,0.1,0,0.1-0.1c-5.7,3.6-17,6-30,6c0,0,0,0,0,0c0,0,0,0,0,0v7.2h0c8.2,0,16-1,21.9-2.8
		C189.9,200.3,191.7,198.3,191.8,197.8z"/>
	<path class="st0" d="M150.3,197.2C150.3,197.2,150.3,197.2,150.3,197.2c-1.1-0.1-2.2-0.3-3.3-0.5c0,0,0.1,0,0.1,0v7.2
		c1.1,0.2,2.1,0.3,3.2,0.5V197.2z"/>
	<path class="st0" d="M190,186.5c-0.4-0.4-1.1-0.8-2.1-1.3c-6.2,2.5-15.6,4-26,4c-5.8,0-11.2-0.5-16-1.3c0,1-0.4,1.9-1.1,2.9
		c5,1.1,11,1.7,17.1,1.7c7.5,0,14.7-0.9,20.3-2.4C186.7,188.7,189,187.3,190,186.5z"/>
	<path class="st0" d="M155.7,177.6v7.2c1.2,0.1,2.3,0.1,3.5,0.2v-7.2C158,177.8,156.8,177.7,155.7,177.6z"/>
	<path class="st0" d="M191.8,171.9C191.8,171.9,191.9,171.9,191.8,171.9c-5.7,3.5-16.9,5.9-29.9,5.9c0,0,0,0,0,0c0,0,0,0,0,0v7.2h0
		c8.2,0,16-1,21.9-2.8c6.2-1.9,7.9-3.9,8-4.4V171.9z"/>
	<path class="st0" d="M150.3,177.1C150.3,177.1,150.3,177.2,150.3,177.1c-1.1-0.1-2.2-0.3-3.3-0.5c0,0,0.1,0,0.1,0v7.2
		c1.1,0.2,2.1,0.3,3.2,0.5V177.1z"/>
	<path class="st0" d="M161.9,169.2c-5.8,0-11.2-0.5-16-1.3c0,1-0.4,1.9-1.1,2.9c5,1.1,11,1.7,17.1,1.7c7.5,0,14.7-0.9,20.3-2.4
		c4.5-1.2,6.8-2.6,7.8-3.4c-0.4-0.4-1.1-0.8-2.1-1.3C181.6,167.6,172.3,169.2,161.9,169.2z"/>
	<path class="st0" d="M155.7,157.6v7.2c1.2,0.1,2.3,0.1,3.5,0.2v-7.2C158,157.7,156.8,157.7,155.7,157.6z"/>
	<path class="st0" d="M191.8,151.9C191.8,151.9,191.9,151.8,191.8,151.9c-5.7,3.5-16.9,5.9-29.9,5.9c0,0,0,0,0,0c0,0,0,0,0,0v7.2h0
		c8.2,0,16-1,21.9-2.8c6.2-1.9,7.9-3.9,8-4.4V151.9z"/>
	<path class="st0" d="M150.3,157.1C150.3,157.1,150.3,157.1,150.3,157.1c-1.1-0.1-2.2-0.3-3.3-0.5c0,0,0.1,0,0.1,0v7.2
		c1.1,0.2,2.1,0.3,3.2,0.5V157.1z"/>
	<path class="st0" d="M161.9,149.1c-10.4,0-19.7-1.6-26-4c-1,0.5-1.7,1-2.1,1.3c1,0.8,3.3,2.2,7.8,3.4c5.6,1.6,12.9,2.4,20.3,2.4
		c7.5,0,14.7-0.9,20.3-2.4c4.5-1.2,6.8-2.6,7.8-3.4c-0.4-0.4-1.1-0.8-2.1-1.3C181.6,147.6,172.3,149.1,161.9,149.1z"/>
	<path class="st0" d="M186.8,118.7C186.7,118.7,186.7,118.7,186.8,118.7C186.7,118.7,186.7,118.7,186.8,118.7z"/>
	<path class="st0" d="M155.7,137.6v7.2c1.2,0.1,2.3,0.1,3.5,0.2v-7.2C158,137.7,156.8,137.7,155.7,137.6z"/>
	<path class="st0" d="M131.9,131.9v5.9c0.1,0.4,1.6,2.2,6.7,4v-7C135.9,133.9,133.6,132.9,131.9,131.9
		C131.9,131.8,131.9,131.8,131.9,131.9z"/>
	<path class="st0" d="M191.8,131.9C191.8,131.8,191.9,131.8,191.8,131.9c-5.7,3.5-16.9,5.9-29.9,5.9c0,0,0,0,0,0c0,0,0,0,0,0v7.2h0
		c8.2,0,16-1,21.9-2.8c6.2-1.9,7.9-3.9,8-4.4V131.9z"/>
	<path class="st0" d="M150.3,137.1C150.3,137.1,150.3,137.1,150.3,137.1c-1.1-0.1-2.2-0.3-3.3-0.5c0,0,0.1,0,0.1,0v7.2
		c1.1,0.2,2.1,0.3,3.2,0.5V137.1z"/>
	<path class="st0" d="M161.9,120.6c-7.5,0-14.7,0.9-20.3,2.4c-4.5,1.2-6.8,2.6-7.8,3.4c1,0.8,3.3,2.2,7.8,3.4
		c5.6,1.6,12.9,2.4,20.3,2.4c7.5,0,14.7-0.9,20.3-2.4c4.5-1.2,6.8-2.6,7.8-3.4c-1-0.8-3.3-2.2-7.8-3.4
		C176.6,121.4,169.3,120.6,161.9,120.6z"/>
	<path class="st0" d="M105.6,254.9c1.2,0.1,2.3,0.1,3.5,0.2v-7.2c-1.2,0-2.4-0.1-3.5-0.2V254.9z"/>
	<path class="st0" d="M81.9,241.9v5.9c0.1,0.4,1.6,2.2,6.7,4v-7C85.9,244,83.6,243,81.9,241.9C81.8,241.9,81.9,241.9,81.9,241.9z"/>
	<path class="st0" d="M111.8,247.9C111.8,247.9,111.8,247.9,111.8,247.9l0,7.2h0c8.2,0,16-1,21.9-2.8c6.2-1.9,7.9-3.9,8-4.4v-5.9
		c0,0,0.1,0,0.1-0.1C136.1,245.5,124.8,247.9,111.8,247.9C111.8,247.9,111.8,247.9,111.8,247.9z"/>
	<path class="st0" d="M97,246.7v7.2c1.1,0.2,2.1,0.3,3.2,0.5v-7.2c0,0,0.1,0,0.1,0C99.1,247.1,98,246.9,97,246.7
		C96.9,246.7,96.9,246.7,97,246.7z"/>
	<path class="st0" d="M85.9,235.2c-1,0.5-1.7,1-2.1,1.3c1,0.8,3.3,2.2,7.8,3.4c5.6,1.6,12.9,2.4,20.3,2.4s14.7-0.9,20.3-2.4
		c4.5-1.2,6.8-2.6,7.8-3.4c-0.4-0.4-1.1-0.8-2.1-1.3c-6.2,2.5-15.6,4-26,4C101.4,239.2,92.1,237.7,85.9,235.2z"/>
	<path class="st0" d="M109.1,227.8c-1.2,0-2.4-0.1-3.5-0.2v7.2c1.2,0.1,2.3,0.1,3.5,0.2V227.8z"/>
	<path class="st0" d="M88.6,224.8c-2.7-0.8-5-1.8-6.8-2.9c0,0,0.1,0,0.1,0.1v5.9c0.1,0.4,1.6,2.2,6.7,4V224.8z"/>
	<path class="st0" d="M141.8,221.9c-5.7,3.6-17,6-30,6c0,0,0,0,0,0c0,0,0,0,0,0v7.2h0c8.2,0,16-1,21.9-2.8c6.2-1.9,7.9-3.9,8-4.4
		L141.8,221.9C141.8,221.9,141.8,221.9,141.8,221.9z"/>
	<path class="st0" d="M100.2,227.2C100.2,227.2,100.3,227.2,100.2,227.2c-1.1-0.1-2.2-0.3-3.3-0.5c0,0,0.1,0,0.1,0v7.2
		c1.1,0.2,2.1,0.3,3.2,0.5V227.2z"/>
	<path class="st0" d="M137.8,215.2c-6.2,2.5-15.6,4-26,4c-10.4,0-19.7-1.6-26-4c-1,0.5-1.7,1-2.1,1.3c1,0.8,3.3,2.2,7.8,3.4
		c5.6,1.6,12.9,2.4,20.3,2.4s14.7-0.9,20.3-2.4c4.5-1.2,6.8-2.6,7.8-3.4C139.5,216.2,138.8,215.7,137.8,215.2z"/>
	<path class="st0" d="M105.6,207.7v7.2c1.2,0.1,2.3,0.1,3.5,0.2v-7.2C107.9,207.8,106.8,207.7,105.6,207.7z"/>
	<path class="st0" d="M88.6,211.8v-7c-2.7-0.8-5-1.8-6.8-2.9c0,0,0.1,0,0.1,0.1v5.9C82,208.3,83.5,210,88.6,211.8z"/>
	<path class="st0" d="M141.8,201.9C141.8,201.9,141.8,201.9,141.8,201.9c-5.7,3.5-16.9,5.9-29.9,5.9c0,0,0,0,0,0c0,0,0,0,0,0v7.2h0
		c8.2,0,16-1,21.9-2.8c6.2-1.9,7.9-3.9,8-4.4V201.9z"/>
	<path class="st0" d="M100.2,207.2C100.2,207.2,100.3,207.2,100.2,207.2c-1.1-0.1-2.2-0.3-3.3-0.5c0,0,0.1,0,0.1,0v7.2
		c1.1,0.2,2.1,0.3,3.2,0.5V207.2z"/>
	<path class="st0" d="M83.7,196.5c1,0.8,3.3,2.2,7.8,3.4c5.6,1.6,12.9,2.4,20.3,2.4s14.7-0.9,20.3-2.4c4.5-1.2,6.8-2.6,7.8-3.4
		c-0.4-0.4-1.1-0.8-2.1-1.3c-6.2,2.5-15.6,4-26,4c-10.4,0-19.7-1.6-26-4C84.9,195.7,84.2,196.1,83.7,196.5z"/>
	<path class="st0" d="M105.6,187.6v7.2c1.2,0.1,2.3,0.1,3.5,0.2v-7.2C107.9,187.8,106.8,187.7,105.6,187.6z"/>
	<path class="st0" d="M88.6,191.8v-7c-2.7-0.8-5-1.8-6.8-2.9c0,0,0.1,0,0.1,0.1v5.9C82,188.2,83.5,190,88.6,191.8z"/>
	<path class="st0" d="M141.8,181.9C141.8,181.9,141.8,181.9,141.8,181.9c-5.7,3.5-16.9,5.9-29.9,5.9c0,0,0,0,0,0c0,0,0,0,0,0v7.2h0
		c8.2,0,16-1,21.9-2.8c6.2-1.9,7.9-3.9,8-4.4V181.9z"/>
	<path class="st0" d="M97,193.9c1.1,0.2,2.1,0.3,3.2,0.5v-7.2c0,0,0.1,0,0.1,0c-1.2-0.1-2.3-0.3-3.4-0.5c0,0,0.1,0,0.1,0V193.9z"/>
	<path class="st0" d="M83.7,176.5c1,0.8,3.3,2.2,7.8,3.4c5.6,1.6,12.9,2.4,20.3,2.4s14.7-0.9,20.3-2.4c4.5-1.2,6.8-2.6,7.8-3.4
		c-0.4-0.4-1.1-0.8-2.1-1.3c-6.2,2.5-15.6,4-26,4c-10.4,0-19.7-1.6-26-4C84.9,175.7,84.2,176.1,83.7,176.5z"/>
	<path class="st0" d="M136.7,148.7C136.7,148.7,136.7,148.7,136.7,148.7C136.7,148.7,136.7,148.7,136.7,148.7z"/>
	<path class="st0" d="M105.6,167.6v7.2c1.2,0.1,2.3,0.1,3.5,0.2v-7.2C107.9,167.7,106.8,167.7,105.6,167.6z"/>
	<path class="st0" d="M88.6,171.8v-7c-2.7-0.8-5-1.8-6.8-2.9c0,0,0.1,0,0.1,0.1v5.9C82,168.2,83.5,170,88.6,171.8z"/>
	<path class="st0" d="M141.8,161.9C141.8,161.9,141.8,161.8,141.8,161.9c-5.7,3.5-16.9,5.9-29.9,5.9c0,0,0,0,0,0c0,0,0,0,0,0v7.2h0
		c8.2,0,16-1,21.9-2.8c6.2-1.9,7.9-3.9,8-4.4V161.9z"/>
	<path class="st0" d="M97,173.9c1.1,0.2,2.1,0.3,3.2,0.5v-7.2c0,0,0.1,0,0.1,0c-1.2-0.1-2.3-0.3-3.4-0.5c0,0,0.1,0,0.1,0V173.9z"/>
	<path class="st0" d="M111.8,162.3c7.5,0,14.7-0.9,20.3-2.4c4.5-1.2,6.8-2.6,7.8-3.4c-1-0.8-3.3-2.2-7.8-3.4
		c-5.6-1.6-12.9-2.4-20.3-2.4s-14.7,0.9-20.3,2.4c-4.5,1.2-6.8,2.6-7.8,3.4c1,0.8,3.3,2.2,7.8,3.4
		C97.1,161.5,104.4,162.3,111.8,162.3z"/>
</g>
</svg>
