<?xml version="1.0" encoding="utf-8"?>
<!-- Generator: Adobe Illustrator 24.0.3, SVG Export Plug-In . SVG Version: 6.00 Build 0)  -->
<svg version="1.1" id="Layer_1" xmlns="http://www.w3.org/2000/svg" xmlns:xlink="http://www.w3.org/1999/xlink" x="0px" y="0px"
	 viewBox="0 0 289.9 300.5" style="enable-background:new 0 0 289.9 300.5;" xml:space="preserve">
<style type="text/css">
	.st0{fill:#FFFFFF;}
	.st1{fill:#FFB600;}
</style>
<g>
	<path class="st0" d="M33.8,108.3c1.6,0,3.2,0.1,4.8,0.2V108c-2.6-0.8-4.7-1.7-6.4-2.8c0,0,0,0,0.1,0v3.1
		C32.8,108.3,33.3,108.3,33.8,108.3z"/>
	<path class="st0" d="M41.3,103.4c1.2,0.3,2.5,0.6,3.8,0.9c0-1.1,0-2.1,0-2.9c-3.5-0.6-6.5-1.5-9.1-2.5c-0.9,0.5-1.6,0.9-2,1.3
		C35,100.9,37.2,102.2,41.3,103.4z"/>
	<path class="st0" d="M38.6,89.1c-2.6-0.8-4.7-1.7-6.4-2.8c0,0,0,0,0.1,0c0.3,5.5-1.9,6.3,6.3,9.3V89.1z"/>
	<path class="st0" d="M46.6,96.9c0.3-0.3,0.6-0.6,1-0.9c-0.4-0.3-0.8-0.7-1.1-1v2C46.5,97,46.6,97,46.6,96.9z"/>
	<path class="st0" d="M41.3,84.5c1.2,0.3,2.5,0.6,3.8,0.9c0-1.1,0-2.1,0-2.9c-3.5-0.6-6.5-1.5-9.1-2.5c-0.9,0.5-1.6,0.9-2,1.3
		C35,82.1,37.2,83.4,41.3,84.5z"/>
	<path class="st0" d="M55.9,73.3c0.3-0.1,0.6-0.2,0.9-0.3c-0.7,0-1.5-0.1-2.2-0.1v0.7C55.1,73.6,55.5,73.4,55.9,73.3z"/>
	<path class="st0" d="M38.6,70.3c-2.6-0.8-4.7-1.7-6.4-2.8c0,0,0,0,0.1,0c0.3,5.5-1.9,6.3,6.3,9.3V70.3z"/>
	<path class="st0" d="M81,70.7c0.6,0,1.2,0.1,1.8,0.1c0-0.2,0-0.5,0-0.7C82.2,70.3,81.6,70.5,81,70.7C80.9,70.7,81,70.7,81,70.7z"/>
	<path class="st0" d="M46.5,78.2c0.8-0.9,2-1.7,3.1-2.3v-3.4c0,0,0,0,0.1,0c-1.1-0.1-2.2-0.3-3.2-0.5c0,0,0.1,0,0.1,0V78.2z"/>
	<path class="st0" d="M41.3,65.7c12.5,3,32.6,4.1,43.9-2.6c-0.6-0.5-1.1-1-1.4-1.5C72.3,66.1,47.1,66,36,61.2
		c-0.9,0.5-1.6,0.9-2,1.3C35,63.2,37.2,64.5,41.3,65.7z"/>
	<path class="st0" d="M57.9,54.3c-1.1,0-2.2-0.1-3.3-0.1v6.8c1.1,0.1,2.2,0.1,3.3,0.1V54.3z"/>
	<path class="st0" d="M38.6,51.4c-2.6-0.8-4.7-1.7-6.4-2.8c0,0,0,0,0.1,0c0.3,5.5-1.9,6.3,6.3,9.3V51.4z"/>
	<path class="st0" d="M81.1,58.4c0.6-0.2,1.2-0.4,1.7-0.6c0-1.7,0-4.4,0-6.6c-5.8,1.9-13.7,3-22.4,3c0,0,0,0,0,0v6.8
		C68.2,61.1,75.5,60.2,81.1,58.4z"/>
	<path class="st0" d="M49.6,53.7C49.6,53.7,49.6,53.7,49.6,53.7c-1-0.1-2.1-0.3-3.1-0.4c0,0,0.1,0,0.1,0V60c1,0.2,2,0.3,3.1,0.5
		V53.7z"/>
	<path class="st0" d="M41.3,46.8c12.5,3,32.6,4.1,43.9-2.6c-0.5-0.4-0.9-0.8-1.2-1.2c-11.5,4.6-37.3,4.5-48.3-0.5
		c-0.8,0.4-1.3,0.8-1.7,1.1C35,44.4,37.2,45.7,41.3,46.8z"/>
	<path class="st0" d="M82.8,17.4c-0.1,0-0.1,0-0.2-0.1C82.7,17.4,82.7,17.4,82.8,17.4C82.8,17.4,82.8,17.4,82.8,17.4z"/>
	<path class="st0" d="M57.9,35.7c-1.1,0-2.2-0.1-3.3-0.1v6.8c1.1,0.1,2.2,0.1,3.3,0.1V35.7z"/>
	<path class="st0" d="M32.3,35.7c0.1,0.4,1.5,2.1,6.3,3.8v-6.6c-2.6-0.8-4.7-1.7-6.4-2.8c0,0,0,0,0.1,0V35.7z"/>
	<path class="st0" d="M81.1,39.9c0.6-0.2,1.2-0.4,1.7-0.6c0-1.6,0-4.3,0-6.6c-5.8,1.9-13.7,3-22.4,3c0,0,0,0,0,0v6.8
		C68.2,42.6,75.5,41.6,81.1,39.9z"/>
	<path class="st0" d="M49.6,35.1C49.6,35.1,49.6,35.1,49.6,35.1c-1-0.1-2.1-0.3-3.1-0.4c0,0,0.1,0,0.1,0v6.8c1,0.2,2,0.3,3.1,0.5
		V35.1z"/>
	<path class="st0" d="M60.5,30.6c8.8-0.1,16.3-0.9,23.3-3.7c0.4-0.6,0.9-1,1.5-1.5c-0.9-0.7-1.6-1.5-2-2.3
		c-13.6-4.9-36.9-5.4-49.2,2C40.1,29.3,51.4,30.5,60.5,30.6z"/>
	<path class="st0" d="M270.9,201.4c3.9-0.1,15.2-4.1,15-5.8c0,0,0-5.6,0-5.6c0,0,0,0,0.1,0c-3.3,2.1-8.6,3.7-15,4.7
		C270.9,196.1,270.9,199,270.9,201.4z"/>
	<path class="st0" d="M269.2,189.7c4.5-0.4,13-2.7,15-4.8c-0.4-0.3-1.1-0.8-2-1.3c-3.1,1.2-6.9,2.2-11.3,2.8
		C270.8,187.6,270.2,188.7,269.2,189.7z"/>
	<path class="st0" d="M279.8,158.4c0.5,0.2,1,0.3,1.4,0.5C280.8,158.7,280.3,158.5,279.8,158.4z"/>
	<path class="st0" d="M270.9,175.8c0,1.4,0,4.3,0,6.8c3.9-0.1,15.2-4.1,15-5.8c0,0,0-5.6,0-5.6c0,0,0,0,0.1,0
		C282.7,173.2,277.4,174.9,270.9,175.8z"/>
	<path class="st0" d="M270.9,167.4c0,1.2-0.6,2.4-1.8,3.5c4.5-0.4,13-2.7,15-4.8c-1.5-1.6-9.3-4.1-13.3-4.5
		C270.9,163.9,270.9,166.3,270.9,167.4z"/>
	<path class="st1" d="M289.8,176.8c-0.2-2.8,0.4-9.5-0.3-12.2c-3.8-6-12.1-6.9-18.5-8.2c-0.1-1.6-1.2-2.8-2.4-3.8
		c4.3-3.1,1.8-10.4,2.4-14.8c-2.5-9.2-20.2-9.9-28.3-10.6c-0.4-5.1,1.5-9.4-2.4-12.3c4.3-3.1,1.8-10.4,2.4-14.8
		c0-1.7-1.2-3.1-2.4-4.1c4.3-3.1,1.8-10.4,2.4-14.8c0-1.7-1.2-3.1-2.4-4.1c4.3-3.1,1.8-10.4,2.4-14.8c-3.3-10.9-28.1-10.8-37.7-10.5
		c-0.4-5.2,1.5-9.4-2.4-12.4c1.6-1.3,2.4-2.6,2.4-4.1c-0.3-3.1,0.7-9.9-0.6-12.8c-11.3-11.7-43.2-10.1-57.4-4.2
		c-0.4-4.4,0.9-7.6-1-10.5c-7.2-6.9-18.4-7.3-27.9-8c-11.4,0.1-24.7,0-33.9,7.6c-2.4,2.8-1,5.5-1.3,9.9c-14-4.1-43.7-5.9-54,5.9
		c-1,2.8-0.2,9.5-0.4,12.4c0,1.4,0.8,2.7,2.2,3.9c-1.2,1-2.2,2.3-2.2,3.9c0.6,4.3-1.9,11.7,2.4,14.8c-1.3,1-2.4,2.4-2.4,4.1
		c0.6,4.3-1.9,11.7,2.4,14.8c-1.3,1-2.4,2.4-2.4,4.1c0.6,4.3-1.9,11.7,2.4,14.8c-3.9,3-2,7.2-2.4,12.3c-8,0.7-25.8,1.4-28.3,10.6
		c0.7,4.3-1.9,11.7,2.4,14.8c-1.3,1-2.4,2.4-2.4,4.1c0.6,4.3-1.9,11.7,2.4,14.8c-1.3,1-2.4,2.4-2.4,4.1c0.6,4.3-1.9,11.7,2.4,14.8
		c-1.3,1-2.4,2.4-2.4,4.1c0.6,4.3-1.9,11.7,2.4,14.8c-1.3,1-2.4,2.4-2.4,4.1c0.6,4.3-1.9,11.7,2.4,14.8c-1.3,1-2.4,2.4-2.4,4.1
		c0.6,4.3-1.9,11.7,2.4,14.8c-4.2,2.8-1.9,10.6-2.4,14.8c-1.3,8.6,31.6,12.8,45,9.8c0,2.8,0,7.5,0,9.1c0,5.5,12.5,10,28.5,10.6
		c0.3,1,1.1,2,2.2,2.9c-1.3,1-2.4,2.4-2.4,4.1c0,1.9,0,8.7,0,10.7c0,5.9,14.4,10.7,32.1,10.7c17.7,0,32.1-4.8,32.1-10.7
		c0-1.9,0-8.7,0-10.7c0-1.7-1.2-3.1-2.4-4.1c1.6-1.3,2.4-2.6,2.4-4.1c13.1,3.5,48.2-0.3,47.1-9.4c0-1.5,0-6.1,0-8.9
		c11.9-1.6,20.4-5.4,20.4-9.9c0-1.4,0-5.5,0-8.3c15,1.5,38.9-3.7,37.7-10.5c0-1.4,0-5.4,0-8.2c15.6-0.6,27.8-5,28.2-10.3
		c11.1-1.7,18.9-5.4,18.9-9.7c-0.6-4.2,1.8-12-2.4-14.8C288.9,179.6,289.8,178.2,289.8,176.8z M286,171.2
		C286,171.2,285.9,171.2,286,171.2l-0.1,5.6c0.2,1.7-11,5.7-15,5.8c0-2.5,0-5.4,0-6.8C277.4,174.9,282.7,173.2,286,171.2z
		 M242.7,199.8c0-1,0-2.1,0-3c8.3-0.3,15.5-1.7,20.7-3.7c0.9,0.5,1.6,0.9,2,1.3C260.6,198,250.2,199.5,242.7,199.8z M180.8,237.2
		v5.6c-4.3,5.2-19.1,6.8-28.2,6.8v-6.8c0,0,0,0,0,0C164.8,242.8,175.4,240.5,180.8,237.2C180.8,237.1,180.8,237.1,180.8,237.2z
		 M124.6,263.6c-12.7,3.3-34.6,3.8-45.6-3.2c0.4-0.3,1.1-0.8,2-1.3c11.3,4.9,37.6,4.9,48.9,0c0.9,0.5,1.6,0.9,2,1.3
		C131,261.1,128.8,262.4,124.6,263.6z M71.3,249.4v-6.8c0.7,0,1.4,0.1,2.1,0.1c0,1.8,0,4.6,0,6.8C72.7,249.4,72,249.4,71.3,249.4z
		 M48.9,237.1c1.7,1,3.8,2,6.4,2.8v6.6C47.1,243.5,49.3,242.6,48.9,237.1C49,237.1,49,237.1,48.9,237.1z M4,223.9v-5.6
		c0,0,0,0-0.1,0c1.7,1,3.8,2,6.4,2.8v6.6C5.6,226,4.2,224.3,4,223.9z M4,205v-5.6c0,0,0,0-0.1,0c1.7,1,3.8,2,6.4,2.8v6.6
		C5.6,207.1,4.2,205.4,4,205z M4,186.2v-5.6c0,0,0,0-0.1,0c1.7,1,3.8,2,6.4,2.8v6.6C5.6,188.3,4.2,186.6,4,186.2z M4,167.3v-5.6
		c0,0,0,0-0.1,0c1.7,1,3.8,2,6.4,2.8v6.6C5.6,169.4,4.2,167.8,4,167.3z M4,148.5v-5.6c0,0,0,0-0.1,0c1.7,1,3.8,2,6.4,2.8v6.6
		C5.6,150.6,4.2,148.9,4,148.5z M32.2,105.2c1.7,1,3.8,2,6.4,2.8v0.6c-2.1-0.1-4.2-0.2-6.3-0.2L32.2,105.2
		C32.3,105.2,32.3,105.2,32.2,105.2z M32.3,92v-5.6c0,0,0,0-0.1,0c1.7,1,3.8,2,6.4,2.8v6.6C33.8,94.1,32.4,92.4,32.3,92z M32.3,73.1
		v-5.6c0,0,0,0-0.1,0c1.7,1,3.8,2,6.4,2.8v6.6C33.8,75.2,32.4,73.5,32.3,73.1z M32.3,54.3v-5.6c0,0,0,0-0.1,0c1.7,1,3.8,2,6.4,2.8
		V58C33.8,56.4,32.4,54.7,32.3,54.3z M46.5,53.2C46.5,53.2,46.4,53.2,46.5,53.2c1,0.2,2,0.3,3.1,0.4c0,0,0,0-0.1,0v6.8
		c-1-0.1-2.1-0.3-3.1-0.5V53.2z M54.6,54.1c1.1,0.1,2.2,0.1,3.3,0.1v6.8c-1.1,0-2.2-0.1-3.3-0.1V54.1z M60.5,54.3
		C60.5,54.3,60.5,54.3,60.5,54.3c8.7,0,16.6-1.2,22.3-3c0,2.2,0,4.9,0,6.6c-6.5,2.3-13.7,3.2-22.3,3.2V54.3z M46.5,34.7
		C46.5,34.7,46.4,34.7,46.5,34.7c1,0.2,2,0.3,3.1,0.4c0,0,0,0-0.1,0v6.8c-1-0.1-2.1-0.3-3.1-0.5V34.7z M54.6,35.6
		c1.1,0.1,2.2,0.1,3.3,0.1v6.8c-1.1,0-2.2-0.1-3.3-0.1V35.6z M60.5,35.8C60.5,35.8,60.5,35.8,60.5,35.8c8.7,0,16.6-1.2,22.3-3
		c0,2.3,0,5,0,6.6c-6.5,2.3-13.7,3.2-22.3,3.2V35.8z M90.4,28.2c11.3,4.9,37.6,4.9,48.9,0c0.6,0.3,1.2,0.6,1.5,0.9
		c0,0.2,0,0.5,0,0.7c-13.4,7.1-39.4,7.2-52.5-0.4C88.8,29.1,89.5,28.7,90.4,28.2z M100.9,20.3C100.9,20.2,100.8,20.2,100.9,20.3
		c1,0.2,2,0.3,3.1,0.4c0,0,0,0-0.1,0v6.8c-1-0.1-2.1-0.3-3.1-0.5V20.3z M109,21.1c1.1,0.1,2.2,0.1,3.3,0.1v6.8
		c-1.1,0-2.2-0.1-3.3-0.1V21.1z M158.9,34.4C158.9,34.4,158.9,34.4,158.9,34.4c1,0.2,2,0.3,3.1,0.4c0,0,0,0-0.1,0v6.8
		c-1-0.1-2.1-0.3-3.1-0.5V34.4z M167.1,35.3c1.1,0.1,2.2,0.1,3.3,0.1v6.8c-1.1,0-2.2-0.1-3.3-0.1V35.3z M151,39.2
		c-8.2-3-6-3.9-6.3-9.3c0,0,0,0-0.1,0c1.7,1,3.8,2,6.4,2.8V39.2z M199.4,62.5c-13,7.6-39.9,7.6-52.9,0c0.4-0.3,1.1-0.8,2-1.3
		c11.3,4.9,37.6,4.9,48.9,0C198.3,61.7,199,62.1,199.4,62.5z M238.8,86.4v5.6c-4.3,5.2-19.1,6.8-28.2,6.8V92c0,0,0,0,0,0
		C222.8,92,233.5,89.7,238.8,86.4C238.8,86.3,238.8,86.4,238.8,86.4z M238.8,105.2v5.6c-4.3,5.2-19.1,6.8-28.2,6.8v-6.8c0,0,0,0,0,0
		C222.8,110.8,233.5,108.6,238.8,105.2C238.8,105.2,238.8,105.2,238.8,105.2z M208.1,211.8c-1.1,0-2.2-0.1-3.3-0.1
		c0-1.1,0-5.8,0.2-6.8c1,0.1,2,0.1,3.1,0.1V211.8z M180.8,218.3v5.6c-4.3,5.2-19.1,6.8-28.2,6.8v-6.8c0,0,0,0,0,0
		C164.8,223.9,175.4,221.6,180.8,218.3C180.8,218.3,180.8,218.3,180.8,218.3z M138.6,229.6v-6.8c0,0-0.1,0-0.1,0
		c1,0.2,2.1,0.3,3.2,0.5c0,0,0,0-0.1,0v6.8C140.6,229.9,139.6,229.8,138.6,229.6z M102.9,258.9c-1.1,0-2.2-0.1-3.3-0.1V252
		c1.1,0.1,2.2,0.1,3.3,0.1V258.9z M71.3,230.5v-6.8c0.7,0,1.4,0.1,2.1,0.1c0,1.8,0,4.6,0,6.8C72.7,230.6,72,230.6,71.3,230.5z
		 M63.2,229.6v-6.8c0,0-0.1,0-0.1,0c1,0.2,2.1,0.3,3.2,0.5c0,0,0,0-0.1,0v6.8C65.2,229.9,64.2,229.8,63.2,229.6z M48.9,218.3
		c1.7,1,3.8,2,6.4,2.8v6.6C47.1,224.6,49.3,223.8,48.9,218.3C49,218.3,49,218.3,48.9,218.3z M71.3,211.7v-6.8c0.7,0,1.4,0.1,2.1,0.1
		c0,1.8,0,4.6,0,6.8C72.7,211.7,72,211.7,71.3,211.7z M63.2,210.7V204c0,0-0.1,0-0.1,0c1,0.2,2.1,0.3,3.2,0.5c0,0,0,0-0.1,0v6.8
		C65.2,211.1,64.2,210.9,63.2,210.7z M48.9,199.4c1.7,1,3.8,2,6.4,2.8v6.6C47.1,205.8,49.3,204.9,48.9,199.4
		C49,199.5,49,199.4,48.9,199.4z M71.3,192.8V186c0.7,0,1.4,0.1,2.1,0.1c0,1.8,0,4.6,0,6.8C72.7,192.9,72,192.9,71.3,192.8z
		 M63.2,191.9v-6.8c0,0-0.1,0-0.1,0c1,0.2,2.1,0.3,3.2,0.5c0,0,0,0-0.1,0v6.8C65.2,192.2,64.2,192.1,63.2,191.9z M48.9,180.6
		c1.7,1,3.8,2,6.4,2.8v6.6C47.1,186.9,49.3,186.1,48.9,180.6C49,180.6,49,180.6,48.9,180.6z M63.2,173.1v-6.8c0,0-0.1,0-0.1,0
		c1,0.2,2.1,0.3,3.2,0.5c0,0,0,0-0.1,0v6.8C65.2,173.4,64.2,173.2,63.2,173.1z M48.9,161.7c1.7,1,3.8,2,6.4,2.8v6.6
		C47.1,168.1,49.3,167.2,48.9,161.7C49,161.8,49,161.7,48.9,161.7z M77.2,155.3L77.2,155.3l0-6.8c0,0,0,0,0,0
		c12.2,0,22.9-2.3,28.3-5.6c0,0,0,0-0.1,0v5.6C101.1,153.7,86.3,155.3,77.2,155.3z M63.2,154.2v-6.8c0,0-0.1,0-0.1,0
		c1,0.2,2.1,0.3,3.2,0.5c0,0,0,0-0.1,0v6.8C65.2,154.5,64.2,154.4,63.2,154.2z M48.9,142.9c1.7,1,3.8,2,6.4,2.8v6.6
		C47.1,149.2,49.3,148.4,48.9,142.9C49,142.9,49,142.9,48.9,142.9z M49,110.8v-5.6c0,0,0,0-0.1,0c1.7,1,3.8,2,6.4,2.8v6.6
		C50.5,112.9,49.1,111.2,49,110.8z M49,92v-5.6c0,0,0,0-0.1,0c1.7,1,3.8,2,6.4,2.8v6.6C50.5,94.1,49.1,92.4,49,92z M54.6,73.7V73
		c0.7,0,1.4,0.1,2.2,0.1C56.1,73.3,55.4,73.5,54.6,73.7z M140.9,73.4c0.1,1.3,0.9,2.5,2.2,3.6v0.4c-0.7,0.6-1.3,1.2-1.7,2
		c-7.2,4.1-16.6,5.1-26.5,5.2v-6.8c0,0,0,0,0,0C125.6,77.9,135.1,76.1,140.9,73.4z M114.9,65.8L114.9,65.8l0-6.8c0,0,0,0,0,0
		c10.7,0,20.2-1.7,26-4.4c0.1,1.3,0.9,2.5,2.2,3.6v0.4c-0.7,0.6-1.3,1.2-1.7,2C134.2,64.7,124.8,65.7,114.9,65.8z M86.7,59v-5.6
		c0,0,0,0-0.1,0c1.7,1,3.8,2,6.4,2.8v6.6C88.2,61.1,86.8,59.4,86.7,59z M100.9,57.9C100.9,57.9,100.8,57.9,100.9,57.9
		c1,0.2,2,0.3,3.1,0.4c0,0,0,0-0.1,0v6.8c-1-0.1-2.1-0.3-3.1-0.5V57.9z M109,58.8c1.1,0.1,2.2,0.1,3.3,0.1v6.8
		c-1.1,0-2.2-0.1-3.3-0.1V58.8z M114.9,47L114.9,47l0-6.8c0,0,0,0,0,0c10.7,0,20.2-1.7,26-4.4c0.1,1.3,0.9,2.5,2.2,3.6v0.4
		c-0.7,0.6-1.3,1.2-1.7,2C134.2,45.9,124.8,46.8,114.9,47z M86.7,40.1v-5.6c0,0,0,0-0.1,0c1.7,1,3.8,2,6.4,2.8v6.6
		C88.2,42.2,86.8,40.6,86.7,40.1z M100.9,39.1C100.9,39.1,100.8,39.1,100.9,39.1c1,0.2,2,0.3,3.1,0.4c0,0,0,0-0.1,0v6.8
		c-1-0.1-2.1-0.3-3.1-0.5V39.1z M109,40c1.1,0.1,2.2,0.1,3.3,0.1v6.8c-1.1,0-2.2-0.1-3.3-0.1V40z M201.1,67.6v5.6
		c-4.3,5.2-19.1,6.8-28.2,6.8v-6.8c0,0,0,0,0,0C185.1,73.1,195.8,70.9,201.1,67.6C201.2,67.5,201.1,67.5,201.1,67.6z M158.9,72.1
		C158.9,72.1,158.9,72.1,158.9,72.1c1,0.2,2,0.3,3.1,0.4c0,0,0,0-0.1,0v6.8c-1-0.1-2.1-0.3-3.1-0.5V72.1z M167.1,73
		c1.1,0.1,2.2,0.1,3.3,0.1v6.8c-1.1,0-2.2-0.1-3.3-0.1V73z M151,76.9c-8.2-3-6-3.9-6.3-9.3c0,0,0,0-0.1,0c1.7,1,3.8,2,6.4,2.8V76.9z
		 M201.1,86.4V92c-4.3,5.2-19.1,6.8-28.2,6.8V92c0,0,0,0,0,0C185.1,92,195.8,89.7,201.1,86.4C201.2,86.4,201.1,86.4,201.1,86.4z
		 M158.9,90.9C158.9,90.9,158.9,90.9,158.9,90.9c1,0.2,2,0.3,3.1,0.4c0,0,0,0-0.1,0v6.8c-1-0.1-2.1-0.3-3.1-0.5V90.9z M167.1,91.8
		c1.1,0.1,2.2,0.1,3.3,0.1v6.8c-1.1,0-2.2-0.1-3.3-0.1V91.8z M151,95.7c-8.2-3-6-3.9-6.3-9.3c0,0,0,0-0.1,0c1.7,1,3.8,2,6.4,2.8
		V95.7z M201.1,105.2v5.6c-4.3,5.2-19.1,6.8-28.2,6.8v-6.8c0,0,0,0,0,0C185.1,110.8,195.8,108.6,201.1,105.2
		C201.2,105.2,201.1,105.2,201.1,105.2z M158.9,109.8C158.9,109.8,158.9,109.8,158.9,109.8c1,0.2,2,0.3,3.1,0.4c0,0,0,0-0.1,0v6.8
		c-1-0.1-2.1-0.3-3.1-0.5V109.8z M167.1,110.7c1.1,0.1,2.2,0.1,3.3,0.1v6.8c-1.1,0-2.2-0.1-3.3-0.1V110.7z M151,114.6
		c-8.2-3-6-3.9-6.3-9.3c0,0,0,0-0.1,0c1.7,1,3.8,2,6.4,2.8V114.6z M205,129.7c0,0,0-0.1,0-0.2c1,0.1,2,0.1,3.1,0.1v6.8
		c-1.1,0-2.2-0.1-3.3-0.1C204.7,135.3,204.7,130.5,205,129.7z M238.8,161.8v5.6c-4.3,5.2-19.1,6.8-28.2,6.8v-6.8c0,0,0,0,0,0
		C222.8,167.4,233.5,165.1,238.8,161.8C238.8,161.7,238.8,161.8,238.8,161.8z M208.1,193c-1.1,0-2.2-0.1-3.3-0.1
		c0-1.1,0-5.8,0.2-6.8c1,0.1,2,0.1,3.1,0.1V193z M184,211.2c-0.5-0.8-1.1-1.5-1.8-2c1.9-1.5,2.6-2.9,2.4-4.8
		c7.1-0.9,13-2.7,16.6-4.9c0,0,0,0-0.1,0v5.6C200.7,207.4,188.6,211,184,211.2z M102.9,240.1c-1.1,0-2.2-0.1-3.3-0.1v-6.8
		c1.1,0.1,2.2,0.1,3.3,0.1V240.1z M77.3,233.3v-5.6c0,0,0,0-0.1,0c1.7,1,3.8,2,6.4,2.8v6.6C78.8,235.4,77.4,233.7,77.3,233.3z
		 M91.5,232.3C91.4,232.3,91.4,232.2,91.5,232.3c1,0.2,2,0.3,3.1,0.4c0,0,0,0-0.1,0v6.8c-1-0.1-2.1-0.3-3.1-0.5V232.3z M105.5,221.3
		L105.5,221.3l0-6.8c0,0,0,0,0,0c12.2,0,22.9-2.3,28.3-5.6c0,0,0,0-0.1,0v5.6C129.3,219.7,114.5,221.3,105.5,221.3z M102.9,221.3
		c-1.1,0-2.2-0.1-3.3-0.1v-6.8c1.1,0.1,2.2,0.1,3.3,0.1V221.3z M105.5,202.4L105.5,202.4l0-6.8c0,0,0,0,0,0
		c12.2,0,22.9-2.3,28.3-5.6c0,0,0,0-0.1,0v5.6C129.3,200.8,114.5,202.5,105.5,202.4z M79,185c13-7.6,39.9-7.6,52.9,0
		C118.9,192.5,92,192.5,79,185z M112.3,84.6c-1,0-2.1-0.1-3.1-0.1c0.1-2.8-0.3-4.3-0.2-6.8c1.1,0.1,2.2,0.1,3.3,0.1V84.6z
		 M114.9,88.5c9.8,0,18.6-1.5,24.5-3.8c0.6,0.3,1.2,0.6,1.5,0.9c0,0.2,0,0.5,0,0.7c-7.9,4.8-21.2,5.5-31.6,5c0-0.8,0-1.8,0-3
		C111.1,88.5,113,88.5,114.9,88.5z M205,148.5c0,0,0-0.1,0-0.2c1,0.1,2,0.1,3.1,0.1v6.8c-1.1,0-2.2-0.1-3.3-0.1
		C204.7,154.2,204.7,149.4,205,148.5z M235.1,155.4c0.9,0.5,1.6,0.9,2,1.3c-7.5,5.1-21.8,5.9-32.1,5.3c0-1,0-2.1,0-3
		C215.1,159.8,228.3,158.3,235.1,155.4z M235.1,174.3c0.9,0.5,1.6,0.9,2,1.3c-7.5,5.1-21.8,5.9-32.1,5.3c0-1,0-2.1,0-3
		C215.1,178.6,228.3,177.1,235.1,174.3z M180.8,199.5v5.6c-4.3,5.2-19.1,6.8-28.2,6.8v-6.8c0,0,0,0,0,0
		C164.8,205.1,175.4,202.8,180.8,199.5C180.8,199.4,180.8,199.5,180.8,199.5z M138.6,210.7V204c0,0-0.1,0-0.1,0
		c1,0.2,2.1,0.3,3.2,0.5c0,0,0,0-0.1,0v6.8C140.6,211.1,139.6,210.9,138.6,210.7z M124.3,161.7c1.7,1,3.8,2,6.4,2.8v6.6
		C122.4,168.1,124.7,167.2,124.3,161.7C124.4,161.8,124.3,161.7,124.3,161.7z M109.2,156.2c-0.2-0.5-0.2-2.6-0.2-3.1
		c1.1,0.1,2.2,0.1,3.3,0.1v6.8c-1,0-2.1-0.1-3.1-0.1C109.2,158.2,109.3,157.3,109.2,156.2z M114.9,141.2L114.9,141.2l0-6.8
		c0,0,0,0,0,0c10.7,0,20.2-1.7,26-4.4c0.1,1.3,0.9,2.5,2.2,3.6v0.4c-0.7,0.6-1.3,1.2-1.7,2C134.2,140.1,124.8,141,114.9,141.2z
		 M109.2,137.3c-0.2-0.5-0.2-2.6-0.2-3.1c1.1,0.1,2.2,0.1,3.3,0.1v6.8c-1,0-2.1-0.1-3.1-0.1C109.2,139.3,109.3,138.4,109.2,137.3z
		 M140.9,111.1c0.1,1.3,0.9,2.5,2.2,3.6v0.4c-0.7,0.6-1.3,1.2-1.7,2c-7.2,4.1-16.6,5.1-26.5,5.2v-6.8c0,0,0,0,0,0
		C125.6,115.6,135.1,113.8,140.9,111.1z M114.9,103.5L114.9,103.5l0-6.8c0,0,0,0,0,0c10.7,0,20.2-1.7,26-4.4
		c0.1,1.3,0.9,2.5,2.2,3.6v0.4c-0.7,0.6-1.3,1.2-1.7,2C134.2,102.4,124.8,103.3,114.9,103.5z M109.2,99.6c-0.2-0.5-0.2-2.6-0.2-3.1
		c1.1,0.1,2.2,0.1,3.3,0.1v6.8c-1,0-2.1-0.1-3.1-0.1C109.2,101.6,109.3,100.7,109.2,99.6z M109.2,118.5c-0.2-0.5-0.2-2.6-0.2-3.1
		c1.1,0.1,2.2,0.1,3.3,0.1v6.8c-1,0-2.1-0.1-3.1-0.1C109.2,120.5,109.3,119.6,109.2,118.5z M114.9,126.2c9.8,0,18.6-1.5,24.5-3.8
		c0.6,0.3,1.2,0.6,1.5,0.9c0,0.2,0,0.5,0,0.7c-7.9,4.8-21.2,5.5-31.6,5c0-0.8,0-1.8,0-3C111.1,126.2,113,126.2,114.9,126.2z
		 M114.9,153.2C114.9,153.2,114.9,153.2,114.9,153.2c2.6,0,5.2-0.1,7.7-0.3c-2.3,1.9-2.1,3.9-2.1,7c-1.8,0.1-3.7,0.2-5.6,0.2V153.2z
		 M126.1,156.7c13-7.6,39.9-7.6,52.9,0C166,164.3,139.1,164.3,126.1,156.7z M197.4,155.4c0.9,0.5,1.6,0.9,2,1.3
		c-2,2-10.4,4.3-14.8,4.7c0-1.1,0-2.1,0-2.9C189.6,157.8,194,156.8,197.4,155.4z M184,192.3c-0.5-0.8-1.1-1.5-1.8-2
		c1.9-1.5,2.6-2.9,2.4-4.8c7.1-0.9,13-2.7,16.6-4.9c0,0,0,0-0.1,0v5.6C200.7,188.5,188.6,192.2,184,192.3z M152.6,193L152.6,193
		l0-6.8c0,0,0,0,0,0c12.2,0,22.9-2.3,28.3-5.6c0,0,0,0-0.1,0v5.6C176.5,191.4,161.7,193,152.6,193z M138.6,191.9v-6.8
		c0,0-0.1,0-0.1,0c1,0.2,2.1,0.3,3.2,0.5c0,0,0,0-0.1,0v6.8C140.6,192.2,139.6,192.1,138.6,191.9z M133.4,178.8
		c-4.2-1.2-6.4-2.5-7.3-3.2c0.4-0.3,1.1-0.8,2-1.3c11.3,4.9,37.6,4.9,48.9,0c0.9,0.5,1.6,0.9,2,1.3
		C168,182.5,146.1,182.1,133.4,178.8z M129,177.7c-0.5-0.2-0.9-0.3-1.4-0.5C128,177.4,128.5,177.5,129,177.7z M146.7,186
		c1.1,0.1,2.2,0.1,3.3,0.1v6.8c-1.1,0-2.2-0.1-3.3-0.1V186z M201.1,161.8v5.6c-0.4,2.4-12.5,6-17.1,6.1c-0.5-0.8-1.1-1.5-1.8-2
		c1.9-1.5,2.6-2.9,2.4-4.8C191.7,165.7,197.6,164,201.1,161.8C201.2,161.7,201.1,161.8,201.1,161.8z M180.8,161.8v5.6
		c-4.3,5.2-19.1,6.8-28.2,6.8v-6.8c0,0,0,0,0,0C164.8,167.4,175.4,165.1,180.8,161.8C180.8,161.7,180.8,161.8,180.8,161.8z
		 M146.7,167.2c1.1,0.1,2.2,0.1,3.3,0.1v6.8c-1.1,0-2.2-0.1-3.3-0.1V167.2z M138.5,166.3c1,0.2,2.1,0.3,3.2,0.5c0,0,0,0-0.1,0v6.8
		c-1-0.1-2.1-0.3-3.1-0.5L138.5,166.3C138.5,166.3,138.5,166.3,138.5,166.3z M184.6,180.3c0-1.1,0-2.1,0-2.9c5-0.7,9.3-1.7,12.7-3
		c0.9,0.5,1.6,0.9,2,1.3C197.4,177.5,189,179.8,184.6,180.3z M110.9,174.4c-0.6,0-1.2-0.1-1.8-0.1c0,0,0-2.4,0-2.4
		c1.1,0.1,2.2,0.1,3.3,0.1v2.5C111.8,174.5,111.3,174.4,110.9,174.4z M101.8,174.3c-0.1,0-0.2,0-0.3,0c0.1,0,0.1,0,0.2-0.1
		C101.7,174.3,101.7,174.3,101.8,174.3z M114.9,172.1C114.9,172.1,114.9,172.1,114.9,172.1c2.6,0,5.2-0.1,7.7-0.3
		c-1.1,1-2,2.2-2.1,3.8c-1.9-0.3-3.7-0.6-5.6-0.8V172.1z M152.6,196.9c9.8,0,18.6-1.5,24.5-3.8c0.9,0.5,1.6,0.9,2,1.3
		c-10.3,6.6-30.1,6.4-42.6,4c0.7-0.9,1-1.8,1-2.7C142,196.4,147.1,196.9,152.6,196.9z M146.7,204.9c1.1,0.1,2.2,0.1,3.3,0.1v6.8
		c-1.1,0-2.2-0.1-3.3-0.1V204.9z M208.1,174.1c-1.1,0-2.2-0.1-3.3-0.1c0-1.1,0-5.8,0.2-6.8c1,0.1,2,0.1,3.1,0.1V174.1z M201.1,142.9
		v5.6c-0.4,2.4-12.5,6-17.1,6.1c-2.4-3.6-6.9-4.9-10.8-6.1C185.3,148.5,195.8,146.2,201.1,142.9
		C201.2,142.9,201.1,142.9,201.1,142.9z M151,146c-2.1,0-4.2,0.1-6.3,0.3v-3.4c0,0,0,0-0.1,0c1.7,1,3.8,2,6.4,2.8V146z M114.9,107.4
		c9.8,0,18.6-1.5,24.5-3.8c0.6,0.3,1.2,0.6,1.5,0.9c0,0.2,0,0.5,0,0.7c-7.9,4.8-21.2,5.5-31.6,5c0-0.8,0-1.8,0-3
		C111.1,107.3,113,107.4,114.9,107.4z M63.2,135.4v-6.8c0,0-0.1,0-0.1,0c1,0.2,2.1,0.3,3.2,0.5c0,0,0,0-0.1,0v6.8
		C65.2,135.7,64.2,135.5,63.2,135.4z M71.3,129.5c1.1,0.1,2.2,0.1,3.3,0.1v6.8c-1.1,0-2.2-0.1-3.3-0.1V129.5z M77.2,136.5
		L77.2,136.5l0-6.8c0,0,0,0,0,0c12.2,0,22.9-2.3,28.3-5.6c0,0,0,0-0.1,0v5.6C101.1,134.9,86.3,136.5,77.2,136.5z M114.9,145.1
		c9.8,0,18.6-1.5,24.5-3.8c0.6,0.3,1.2,0.6,1.5,0.9c0,0.2,0,0.5,0,0.7c-7.9,4.8-21.2,5.5-31.6,5c0-0.8,0-1.8,0-3
		C111.1,145,113,145.1,114.9,145.1z M114.9,163.9c1.9,0,3.8-0.1,5.6-0.2c0,1.2,0,2.2,0,3c-3.7,0.2-7.6,0.2-11.3,0c0-0.8,0-1.8,0-3
		C111.1,163.9,113,163.9,114.9,163.9z M77.3,195.6V190c0,0,0,0-0.1,0c1.7,1,3.8,2,6.4,2.8v6.6C78.8,197.7,77.4,196,77.3,195.6z
		 M91.5,194.6C91.4,194.6,91.4,194.6,91.5,194.6c1,0.2,2,0.3,3.1,0.4c0,0,0,0-0.1,0v6.8c-1-0.1-2.1-0.3-3.1-0.5V194.6z M99.6,202.3
		v-6.8c1.1,0.1,2.2,0.1,3.3,0.1v6.8C101.8,202.4,100.7,202.3,99.6,202.3z M77.3,214.5v-5.6c0,0,0,0-0.1,0c1.7,1,3.8,2,6.4,2.8v6.6
		C78.8,216.5,77.4,214.9,77.3,214.5z M91.5,213.4C91.4,213.4,91.4,213.4,91.5,213.4c1,0.2,2,0.3,3.1,0.4c0,0,0,0-0.1,0v6.8
		c-1-0.1-2.1-0.3-3.1-0.5V213.4z M171.7,216.4c-9.7,2.8-25,3-35.2,0.7c0.7-0.9,1-1.8,1-2.7c11.4,2.3,30.4,1.4,39.5-2.5
		c0.9,0.5,1.6,0.9,2,1.3C178.1,214,175.9,215.3,171.7,216.4z M184.6,199.1c0-1.1,0-2.1,0-2.9c5-0.7,9.3-1.7,12.7-3
		c0.9,0.5,1.6,0.9,2,1.3C197.4,196.3,189,198.7,184.6,199.1z M238.8,142.9v5.6c-4.3,5.2-19.1,6.8-28.2,6.8v-6.8c0,0,0,0,0,0
		C222.8,148.5,233.5,146.2,238.8,142.9C238.8,142.9,238.8,142.9,238.8,142.9z M172.9,143.4c-9.1-0.1-20.5-1.3-26.5-5.5
		c0.4-0.3,1.1-0.8,2-1.3c11.3,4.9,37.6,4.9,48.9,0c0.9,0.5,1.6,0.9,2,1.3C193.4,142.1,182,143.3,172.9,143.4z M158.8,128.6
		c1,0.2,2.1,0.3,3.2,0.5c0,0,0,0-0.1,0v6.8c-1-0.1-2.1-0.3-3.1-0.5L158.8,128.6C158.9,128.6,158.9,128.6,158.8,128.6z M170.4,136.5
		c-1.1,0-2.2-0.1-3.3-0.1v-6.8c1.1,0.1,2.2,0.1,3.3,0.1V136.5z M201.1,124.1v5.6c-4.3,5.2-19.1,6.8-28.2,6.8v-6.8c0,0,0,0,0,0
		C185.1,129.7,195.8,127.4,201.1,124.1C201.2,124.1,201.1,124.1,201.1,124.1z M151,133.4c-8.2-3-6-3.9-6.3-9.3c0,0,0,0-0.1,0
		c1.7,1,3.8,2,6.4,2.8V133.4z M99.3,73.6c0.5,0.2,1,0.3,1.4,0.5C100.3,73.9,99.8,73.7,99.3,73.6z M66.2,98.1c-1-0.1-2.1-0.3-3.1-0.5
		v-6.8c0,0-0.1,0-0.1,0c1,0.2,2.1,0.3,3.2,0.5c0,0,0,0-0.1,0V98.1z M71.3,91.8c1.1,0.1,2.2,0.1,3.3,0.1v6.8c-1.1,0-2.2-0.1-3.3-0.1
		V91.8z M77.2,98.8L77.2,98.8l0-6.8c0,0,0,0,0,0c12.2,0,22.9-2.3,28.3-5.6c0,0,0,0-0.1,0V92C101.1,97.2,86.3,98.8,77.2,98.8z
		 M105.4,105.2C105.4,105.2,105.4,105.2,105.4,105.2l-0.1,5.6c-4.3,5.2-19.1,6.8-28.2,6.8v-6.8c0,0,0,0,0,0
		C89.4,110.8,100,108.6,105.4,105.2z M66.2,117c-1-0.1-2.1-0.3-3.1-0.5v-6.8c0,0-0.1,0-0.1,0c1,0.2,2.1,0.3,3.2,0.5c0,0,0,0-0.1,0
		V117z M71.3,110.7c1.1,0.1,2.2,0.1,3.3,0.1v6.8c-1.1,0-2.2-0.1-3.3-0.1V110.7z M52.7,117.7c11.3,4.9,37.6,4.9,48.9,0
		c0.9,0.5,1.6,0.9,2,1.3c-13,7.6-39.9,7.6-52.9,0C51.1,118.7,51.8,118.2,52.7,117.7z M49,124.1C49,124.1,49,124.1,49,124.1
		c1.6,1,3.8,1.9,6.3,2.7v6.6C47.1,130.4,49.3,129.5,49,124.1z M54.7,137.3c11.6,4.2,36.1,4,46.9-0.7c0.9,0.5,1.6,0.9,2,1.3
		c-13.1,7.6-38.9,7.4-52.3,0.4C52.5,138,53.6,137.6,54.7,137.3z M71.3,148.3c1.1,0.1,2.2,0.1,3.3,0.1v6.8c-1.1,0-2.2-0.1-3.3-0.1
		V148.3z M71.3,167.2c1.1,0.1,2.2,0.1,3.3,0.1v6.8c-1.1,0-2.2-0.1-3.3-0.1V167.2z M77.2,167.4C77.2,167.4,77.2,167.4,77.2,167.4
		c12.2,0,22.9-2.3,28.3-5.6c0,0,0,0-0.1,0v5.6c-4.3,5.2-19.1,6.8-28.2,6.8V167.4z M105.5,206.3c9.8,0,18.6-1.5,24.5-3.8
		c0.9,0.5,1.6,0.9,2,1.3c-13,7.6-39.9,7.6-52.9,0c0.4-0.3,1.1-0.8,2-1.3C86.9,204.9,95.7,206.3,105.5,206.3z M105.5,225.2
		c9.8,0,18.6-1.5,24.5-3.8c0.9,0.5,1.6,0.9,2,1.3c-13,7.6-39.9,7.6-52.9,0c0.4-0.3,1.1-0.8,2-1.3C86.9,223.7,95.7,225.2,105.5,225.2
		z M105.5,244c9.8,0,18.6-1.5,24.5-3.8c0.9,0.5,1.6,0.9,2,1.3c-13,7.6-39.9,7.6-52.9,0c0.4-0.3,1.1-0.8,2-1.3
		C86.9,242.5,95.7,244,105.5,244z M77.3,252.1v-5.6c0,0,0,0-0.1,0c1.7,1,3.8,2,6.4,2.8v6.6C78.8,254.2,77.4,252.6,77.3,252.1z
		 M91.5,251.1C91.4,251.1,91.4,251.1,91.5,251.1c1,0.2,2,0.3,3.1,0.4c0,0,0,0-0.1,0v6.8c-1-0.1-2.1-0.3-3.1-0.5V251.1z M126.1,237.5
		c-5.6,1.7-12.9,2.7-20.6,2.7v-6.8c0,0,0,0,0,0c12.2,0,22.9-2.3,28.3-5.6c0,0,0,0-0.1,0C133.4,233.8,135.6,234.2,126.1,237.5z
		 M146.7,223.7c1.1,0.1,2.2,0.1,3.3,0.1v6.8c-1.1,0-2.2-0.1-3.3-0.1V223.7z M210.6,199.9c-1.9,0-3.8-0.1-5.6-0.2c0-1,0-2.1,0-3
		c10.1,0.7,23.4-0.8,30.1-3.6c0.9,0.5,1.6,0.9,2,1.3C231,198.6,219.7,199.8,210.6,199.9z M238.8,186.2c-4.3,5.2-19.1,6.8-28.2,6.8
		v-6.8c0,0,0,0,0,0c12.2,0,22.9-2.3,28.3-5.6c0,0,0,0-0.1,0V186.2z M242.7,181c0-1,0-2.1,0-3c8.3-0.3,15.5-1.7,20.7-3.7
		c0.9,0.5,1.6,0.9,2,1.3C260.6,179.1,250.2,180.7,242.7,181z M267.1,161.7C267.1,161.7,267.1,161.8,267.1,161.7l-0.1,5.6
		c-3.1,4.4-17.1,6.6-24.7,6.8c-0.4-1.1-1.2-1.9-2.1-2.7c1.6-1.3,2.4-2.7,2.4-4.2C253.3,166.9,262.3,164.7,267.1,161.7z M237.1,137.8
		c-7.5,5.1-21.8,5.9-32.1,5.3c0-1,0-2.1,0-3c10.1,0.7,23.4-0.8,30.1-3.6C236,137.1,236.7,137.5,237.1,137.8z M238.8,124.1v5.6
		c-4.3,5.2-19.1,6.8-28.2,6.8v-6.8c0,0,0,0,0,0C222.8,129.7,233.5,127.4,238.8,124.1C238.8,124.1,238.8,124.1,238.8,124.1z
		 M172.9,124.5c-9.1-0.1-20.5-1.3-26.5-5.5c0.4-0.3,1.1-0.8,2-1.3c11.3,4.9,37.6,4.9,48.9,0c0.9,0.5,1.6,0.9,2,1.3
		C193.4,123.3,182,124.4,172.9,124.5z M204.8,117.5c0-1.1,0-5.8,0.2-6.8c1,0.1,2,0.1,3.1,0.1v6.8C207,117.6,205.9,117.5,204.8,117.5
		z M172.9,105.7c-9.1-0.1-20.5-1.3-26.5-5.5c0.4-0.3,1.1-0.8,2-1.3c11.3,4.9,37.6,4.9,48.9,0c0.9,0.5,1.6,0.9,2,1.3
		C193.4,104.4,182,105.6,172.9,105.7z M204.8,98.6c0-1.1,0-5.8,0.2-6.8c1,0.1,2,0.1,3.1,0.1v6.8C207,98.7,205.9,98.7,204.8,98.6z
		 M172.9,86.8c-9.1-0.1-20.5-1.3-26.5-5.5c0.4-0.3,1.1-0.8,2-1.3c11.3,4.9,37.6,4.9,48.9,0c0.9,0.5,1.6,0.9,2,1.3
		C193.4,85.6,182,86.7,172.9,86.8z M204.8,79.7c0-1.1,0-5.8,0.2-6.8c1,0.1,2,0.1,3.1,0.1v6.8C207,79.9,205.9,79.8,204.8,79.7z
		 M158.8,53.2c1,0.2,2.1,0.3,3.2,0.5c0,0,0,0-0.1,0v6.8c-1-0.1-2.1-0.3-3.1-0.5L158.8,53.2C158.9,53.2,158.9,53.2,158.8,53.2z
		 M170.4,61.1c-1.1,0-2.2-0.1-3.3-0.1v-6.8c1.1,0.1,2.2,0.1,3.3,0.1V61.1z M201.1,48.7v5.6c-4.3,5.2-19.1,6.8-28.2,6.8v-6.8
		c0,0,0,0,0,0C185.1,54.3,195.8,52,201.1,48.7C201.2,48.7,201.1,48.7,201.1,48.7z M151,58c-8.2-3-6-3.9-6.3-9.3c0,0,0,0-0.1,0
		c1.7,1,3.8,2,6.4,2.8V58z M90.4,47.1c11.3,4.9,37.6,4.9,48.9,0c0.6,0.3,1.2,0.6,1.5,0.9c0,0.2,0,0.5,0,0.7
		c-13.4,7.1-39.4,7.2-52.5-0.4C88.8,48,89.5,47.6,90.4,47.1z M90.4,65.9c11.3,4.9,37.6,4.9,48.9,0c0.6,0.3,1.2,0.6,1.5,0.9
		c0,0.2,0,0.5,0,0.7c-13.4,7.1-39.4,7.2-52.5-0.4C88.8,66.8,89.5,66.4,90.4,65.9z M82.8,70.8c-0.6,0-1.3-0.1-1.9-0.1
		c0.7-0.2,1.3-0.4,1.9-0.6C82.8,70.3,82.8,70.6,82.8,70.8z M46.4,72.1c1,0.2,2.1,0.3,3.2,0.5c0,0,0,0-0.1,0v3.4
		c-1.1,0.6-2.2,1.4-3.1,2.3L46.4,72.1C46.5,72.1,46.4,72.1,46.4,72.1z M50.7,81.3c13-7.6,39.9-7.6,52.9,0
		C90.6,88.9,63.7,88.9,50.7,81.3z M46.5,95.1c0.3,0.3,0.7,0.7,1.1,1c-0.4,0.3-0.7,0.6-1.1,1V95.1z M50.7,100.1
		c0.4-0.3,1.1-0.8,2-1.3c11.3,4.9,37.6,4.9,48.9,0c0.9,0.5,1.6,0.9,2,1.3C90.6,107.7,63.7,107.7,50.7,100.1z M18.2,128.6
		C18.2,128.6,18.2,128.6,18.2,128.6c1,0.2,2,0.3,3.1,0.4c0,0,0,0-0.1,0v6.8c-1-0.1-2.1-0.3-3.1-0.5V128.6z M26.4,129.5
		c1.1,0.1,2.2,0.1,3.3,0.1v6.8c-1.1,0-2.2-0.1-3.3-0.1V129.5z M32.2,129.7C32.2,129.7,32.2,129.7,32.2,129.7c4.6,0,9-0.3,12.9-0.9
		c-0.2,2.5,1,4.2,3.9,6c-4.9,1.1-10.7,1.7-16.8,1.7V129.7z M18.2,147.5C18.2,147.4,18.2,147.4,18.2,147.5c1,0.2,2,0.3,3.1,0.4
		c0,0,0,0-0.1,0v6.8c-1-0.1-2.1-0.3-3.1-0.5V147.5z M26.4,148.3c1.1,0.1,2.2,0.1,3.3,0.1v6.8c-1.1,0-2.2-0.1-3.3-0.1V148.3z
		 M32.2,148.5C32.2,148.5,32.2,148.5,32.2,148.5c4.6,0,9-0.3,12.9-0.9c-0.1,2,0.5,3.4,2.4,5c-0.6,0.5-1.1,1-1.6,1.7
		c-4.2,0.7-8.9,1.1-13.7,1.1V148.5z M50.7,156.7c0.4-0.3,1.1-0.8,2-1.3c11.3,4.9,37.6,4.9,48.9,0c0.9,0.5,1.6,0.9,2,1.3
		C90.6,164.3,63.7,164.3,50.7,156.7z M18.2,166.3C18.2,166.3,18.2,166.3,18.2,166.3c1,0.2,2,0.3,3.1,0.4c0,0,0,0-0.1,0v6.8
		c-1-0.1-2.1-0.3-3.1-0.5V166.3z M26.4,167.2c1.1,0.1,2.2,0.1,3.3,0.1v6.8c-1.1,0-2.2-0.1-3.3-0.1V167.2z M32.2,167.4
		C32.2,167.4,32.2,167.4,32.2,167.4c4.6,0,9-0.3,12.9-0.9c-0.1,2,0.5,3.4,2.4,5c-0.6,0.5-1.1,1-1.6,1.6c-4.2,0.7-8.9,1.1-13.7,1.1
		V167.4z M50.7,175.5c0.4-0.3,1.1-0.8,2-1.3c6.4,2.7,18.6,4.2,28.5,3.7c-2,0.8-3.9,1.7-5.6,3.1C67.2,180.8,56.2,179.5,50.7,175.5z
		 M18.2,185.1C18.2,185.1,18.2,185.1,18.2,185.1c1,0.2,2,0.3,3.1,0.4c0,0,0,0-0.1,0v6.8c-1-0.1-2.1-0.3-3.1-0.5V185.1z M26.4,186
		c1.1,0.1,2.2,0.1,3.3,0.1v6.8c-1.1,0-2.2-0.1-3.3-0.1V186z M32.2,186.2C32.2,186.2,32.2,186.2,32.2,186.2c4.6,0,9-0.3,12.9-0.9
		c-0.1,2,0.5,3.4,2.4,5c-0.6,0.5-1.1,1-1.6,1.7c-4.2,0.7-8.9,1.1-13.7,1.1V186.2z M50.7,194.4c0.4-0.3,1.1-0.8,2-1.3
		c5.2,2,12.5,3.4,20.9,3.7c0.3,1,1.1,2,2.2,2.9c-0.1,0.1-0.1,0.1-0.2,0.2C67.2,199.7,56.2,198.4,50.7,194.4z M18.2,204
		C18.2,204,18.2,204,18.2,204c1,0.2,2,0.3,3.1,0.4c0,0,0,0-0.1,0v6.8c-1-0.1-2.1-0.3-3.1-0.5V204z M26.4,204.9
		c1.1,0.1,2.2,0.1,3.3,0.1v6.8c-1.1,0-2.2-0.1-3.3-0.1V204.9z M32.2,205.1C32.2,205.1,32.2,205.1,32.2,205.1c4.6,0,9-0.3,12.9-0.9
		c-0.1,2,0.5,3.4,2.4,5c-0.6,0.5-1.1,1-1.6,1.7c-4.2,0.7-8.9,1.1-13.7,1.1V205.1z M50.7,213.2c0.4-0.3,1.1-0.8,2-1.3
		c5.2,2,12.5,3.4,20.9,3.7c0.3,1,1.1,2,2.2,2.9c-0.1,0.1-0.1,0.1-0.2,0.2C67.2,218.5,56.2,217.2,50.7,213.2z M18.2,222.8
		C18.2,222.8,18.2,222.8,18.2,222.8c1,0.2,2,0.3,3.1,0.4c0,0,0,0-0.1,0v6.8c-1-0.1-2.1-0.3-3.1-0.5V222.8z M26.4,223.7
		c1.1,0.1,2.2,0.1,3.3,0.1v6.8c-1.1,0-2.2-0.1-3.3-0.1V223.7z M32.2,223.9C32.2,223.9,32.2,223.9,32.2,223.9c4.6,0,9-0.3,12.9-0.9
		c-0.1,2,0.5,3.4,2.4,5c-0.6,0.5-1.1,1-1.6,1.7c-4.2,0.7-8.9,1.1-13.7,1.1V223.9z M50.7,232.1c0.4-0.3,1.1-0.8,2-1.3
		c5.2,2,12.5,3.4,20.9,3.7c0.3,1,1.1,2,2.2,2.9c-0.1,0.1-0.1,0.1-0.2,0.2C67.2,237.4,56.2,236.1,50.7,232.1z M63.2,241.7
		C63.2,241.7,63.1,241.7,63.2,241.7c1,0.2,2,0.3,3.1,0.4c0,0,0,0-0.1,0v6.8c-1-0.1-2.1-0.3-3.1-0.5V241.7z M77.3,271v-5.6
		c0,0,0,0-0.1,0c1.7,1,3.8,2,6.4,2.8v6.6C78.8,273.1,77.4,271.4,77.3,271z M91.5,269.9C91.4,269.9,91.4,269.9,91.5,269.9
		c1,0.2,2,0.3,3.1,0.4c0,0,0,0-0.1,0v6.8c-1-0.1-2.1-0.3-3.1-0.5V269.9z M99.6,270.8c1.1,0.1,2.2,0.1,3.3,0.1v6.8
		c-1.1,0-2.2-0.1-3.3-0.1V270.8z M126.1,256.3c-5.6,1.7-12.9,2.7-20.6,2.7v-6.8c0,0,0,0,0,0c12.2,0,22.9-2.3,28.3-5.6c0,0,0,0-0.1,0
		C133.4,252.7,135.6,253,126.1,256.3z M138.6,241.7C138.5,241.7,138.5,241.7,138.6,241.7c1,0.2,2,0.3,3.1,0.4c0,0,0,0-0.1,0v6.8
		c-1-0.1-2.1-0.3-3.1-0.5V241.7z M146.7,242.6c1.1,0.1,2.2,0.1,3.3,0.1v6.8c-1.1,0-2.2-0.1-3.3-0.1V242.6z M171.7,235.3
		c-9.7,2.8-25,3-35.2,0.7c0.7-0.9,1-1.8,1-2.7c11.4,2.3,30.4,1.4,39.5-2.5c0.9,0.5,1.6,0.9,2,1.3
		C178.1,232.8,175.9,234.1,171.7,235.3z M184,230c-0.5-0.8-1.1-1.5-1.8-2c1.9-1.5,2.6-2.9,2.4-4.8c7.1-0.9,13-2.7,16.6-4.9
		c0,0,0,0-0.1,0v5.6C200.7,226.2,188.6,229.9,184,230z M184.6,217.9c0-1.1,0-2.1,0-2.9c5-0.7,9.3-1.7,12.7-3c0.9,0.5,1.6,0.9,2,1.3
		C197.4,215.2,189,217.5,184.6,217.9z M205,215.6c10.1,0.7,23.4-0.8,30.1-3.6c0.9,0.5,1.6,0.9,2,1.3c-7.5,5.1-21.8,5.9-32.1,5.3
		C205,217.5,205,216.5,205,215.6z M238.8,205c-4.3,5.2-19.1,6.8-28.2,6.8v-6.8c0,0,0,0,0,0c12.2,0,22.9-2.3,28.3-5.6c0,0,0,0-0.1,0
		V205z M259.5,190.4c-4.7,1.5-10.7,2.4-17.1,2.6c-0.4-1.1-1.2-1.9-2.1-2.7c1.6-1.3,2.4-2.7,2.4-4.2c10.6-0.4,19.6-2.6,24.5-5.6
		c0,0,0,0-0.1,0C266.8,186.7,269,187,259.5,190.4z M276.9,162.9c4.2,1.2,6.4,2.5,7.3,3.2c-2.1,2-10.5,4.3-15,4.8
		c2.9-2.9,1.4-4.9,1.8-9.3C273.1,162,275.1,162.4,276.9,162.9z M265.4,156.7c-4.8,3.6-15.1,5.1-22.7,5.4c0-1,0-2.1,0-3
		c8.3-0.3,15.5-1.7,20.7-3.7C264.3,155.9,264.9,156.3,265.4,156.7z M267.1,142.9C267.1,142.9,267.1,142.9,267.1,142.9l-0.1,5.6
		c-3.1,4.4-17.1,6.6-24.7,6.8c-0.4-1.1-1.2-1.9-2.1-2.7c1.6-1.3,2.4-2.7,2.4-4.2C253.3,148,262.3,145.9,267.1,142.9z M258,134.6
		c4.2,1.2,6.4,2.5,7.3,3.2c-4.8,3.6-15.1,5.1-22.7,5.4c-0.2-4.3,0.9-7-2.4-9.5c0.6-0.5,1-0.9,1.4-1.4
		C247.7,132.5,253.4,133.3,258,134.6z M237.1,119c-7.5,5.1-21.8,5.9-32.1,5.3c0-1,0-2.1,0-3c10.1,0.7,23.4-0.8,30.1-3.6
		C236,118.2,236.7,118.7,237.1,119z M237.1,100.1c-7.5,5.1-21.8,5.9-32.1,5.3c0-1,0-2.1,0-3c10.1,0.7,23.3-0.8,30.1-3.6
		C236,99.4,236.7,99.8,237.1,100.1z M237.1,81.3c-7.5,5.1-21.8,5.9-32.1,5.3c0-1,0-2.1,0-3c10.1,0.7,23.4-0.8,30.1-3.6
		C236,80.5,236.7,80.9,237.1,81.3z M238.9,67.5C238.8,67.5,238.8,67.5,238.9,67.5l-0.1,5.6c-4.3,5.2-19.1,6.8-28.2,6.8v-6.8
		c0,0,0,0,0,0C222.8,73.1,233.5,70.8,238.9,67.5z M210.6,56.9c9.1,0.1,20.5,1.3,26.5,5.5c-7.5,5.1-21.8,5.9-32.1,5.3
		c-0.1-4.3,0.9-6.9-2.4-9.4c0.5-0.4,0.9-0.8,1.2-1.2C206,57,208.3,56.9,210.6,56.9z M199.4,43.6c-13,7.6-39.9,7.6-52.9,0
		c0.4-0.3,1.1-0.8,2-1.3c11.3,4.9,37.6,4.9,48.9,0C198.3,42.8,199,43.3,199.4,43.6z M201.2,29.8C201.2,29.8,201.1,29.8,201.2,29.8
		l-0.1,5.6c-4.3,5.2-19.1,6.8-28.2,6.8v-6.8c0,0,0,0,0,0C185.1,35.5,195.8,33.2,201.2,29.8z M153.8,21.5c12.7-3.3,34.6-3.8,45.6,3.2
		c-13,7.6-39.9,7.6-52.9,0C147.4,24,149.6,22.7,153.8,21.5z M143.1,15.7C143.1,15.7,143.1,15.7,143.1,15.7l-0.1,5.2
		c-0.7,0.6-1.3,1.2-1.7,2c-7.2,4.1-16.6,5.1-26.5,5.2v-6.8c0,0,0,0,0,0C127.1,21.3,137.7,19,143.1,15.7z M95.7,7.4
		c12.7-3.3,34.6-3.8,45.6,3.2c-13,7.6-39.9,7.6-52.9,0C89.3,9.9,91.5,8.6,95.7,7.4z M93,18.4V25c-8.2-3-6-3.9-6.3-9.3c0,0,0,0-0.1,0
		C88.3,16.7,90.4,17.6,93,18.4z M41.3,21.9c12-3.2,30.3-3.3,41.9,1.2c0.4,0.8,1.1,1.6,2,2.3c-0.6,0.5-1,0.9-1.5,1.5
		C70.1,32,46.5,32.5,34,25.1C35,24.3,37.2,23,41.3,21.9z M38.6,32.9v6.6c-8.2-3-6-3.9-6.3-9.3c0,0,0,0-0.1,0
		C33.9,31.2,36.1,32.1,38.6,32.9z M60.5,46.5c9.3,0,17.7-1.3,23.5-3.4c0.3,0.4,0.8,0.8,1.2,1.2c-13,7.2-38.6,6.6-51.2-0.6
		c0.4-0.3,0.9-0.7,1.7-1.1C41.6,44.9,50.5,46.5,60.5,46.5z M60.5,65c9.2,0,17.5-1.3,23.3-3.4c0.4,0.5,0.9,1,1.4,1.5
		c-13,7.2-38.6,6.6-51.2-0.6c0.4-0.3,1.1-0.8,2-1.3C41.9,63.5,50.7,65,60.5,65z M45.1,82.5c0,0.8,0,1.8,0,2.9
		c-3.4-0.5-10.2-3-11.1-4.1c0.4-0.3,1.1-0.8,2-1.3C38.6,81.1,41.7,81.9,45.1,82.5z M45.1,101.4c0,0.8,0,1.8,0,2.9
		c-3.4-0.5-10.2-3-11.1-4.1c0.4-0.3,1.1-0.8,2-1.3C38.6,99.9,41.7,100.7,45.1,101.4z M13.1,115.8c9.5-2.7,24.3-3,34.4-0.9
		c0,0,0,0,0.1,0.1c-3.1,2.3-2.4,4.7-2.4,8.6c-11.9,1.7-29.9,1.6-39.4-4.6C6.7,118.2,8.9,116.9,13.1,115.8z M10.3,126.8v6.6
		c-8.2-3-6-3.9-6.3-9.3c0,0,0,0-0.1,0C5.6,125.1,7.8,126,10.3,126.8z M32.2,140.4c4.6,0,9-0.3,12.9-0.9c0,0.8,0,1.9,0,2.9
		c-11.9,1.7-29.9,1.6-39.4-4.6c0.4-0.3,1.1-0.8,2-1.3C13.7,138.9,22.4,140.4,32.2,140.4z M32.2,159.2c4.6,0,9-0.3,12.9-0.9
		c0,0.8,0,1.9,0,2.9c-11.9,1.7-29.9,1.6-39.4-4.6c0.4-0.3,1.1-0.8,2-1.3C13.7,157.7,22.4,159.2,32.2,159.2z M32.2,178.1
		c4.6,0,9-0.3,12.9-0.9c0,0.8,0,1.9,0,2.9c-11.9,1.7-29.9,1.6-39.4-4.6c0.4-0.3,1.1-0.8,2-1.3C13.7,176.6,22.4,178.1,32.2,178.1z
		 M32.2,196.9c4.6,0,9-0.3,12.9-0.9c0,0.8,0,1.9,0,2.9c-11.9,1.7-29.9,1.6-39.4-4.6c0.4-0.3,1.1-0.8,2-1.3
		C13.7,195.4,22.4,196.9,32.2,196.9z M32.2,215.7c4.6,0,9-0.3,12.9-0.9c0,0.8,0,1.9,0,2.9c-11.9,1.7-29.9,1.6-39.4-4.6
		c0.4-0.3,1.1-0.8,2-1.3C13.7,214.3,22.4,215.7,32.2,215.7z M10.3,246.5c-8.2-3-6-3.9-6.3-9.3c0,0,0,0-0.1,0c1.7,1,3.8,2,6.4,2.8
		V246.5z M5.8,232.1c0.4-0.3,1.1-0.8,2-1.3c8.5,3.6,26.2,4.7,37.4,2.9c0,0.8,0,1.9,0,2.9C33.2,238.4,15.2,238.2,5.8,232.1z
		 M21.3,242.1v6.8c-1-0.1-2.1-0.3-3.1-0.5v-6.8c0,0-0.1,0-0.1,0C19.2,241.8,20.3,242,21.3,242.1C21.3,242.1,21.3,242.1,21.3,242.1z
		 M29.7,249.5c-1.1,0-2.2-0.1-3.3-0.1v-6.8c1.1,0.1,2.2,0.1,3.3,0.1V249.5z M32.2,249.6v-6.8c0,0,0,0,0,0c4.6,0,9-0.3,12.9-0.9
		c-0.1,2,0.5,3.4,2.4,5c-0.6,0.5-1.1,1-1.6,1.7C41.8,249.2,37.1,249.6,32.2,249.6z M55.3,265.3c-8.2-3-6-3.9-6.3-9.3c0,0,0,0-0.1,0
		c1.7,1,3.8,2,6.4,2.8V265.3z M50.7,250.9c0.4-0.3,1.1-0.8,2-1.3c5.2,2,12.5,3.4,20.9,3.7c0.3,1,1.1,2,2.2,2.9
		c-0.1,0.1-0.1,0.1-0.2,0.2C67.2,256.2,56.2,254.9,50.7,250.9z M66.2,261v6.8c-1-0.1-2.1-0.3-3.1-0.5v-6.8c0,0-0.1,0-0.1,0
		C64.1,260.7,65.2,260.8,66.2,261C66.3,261,66.3,261,66.2,261z M71.3,261.4c0.7,0,1.4,0.1,2.1,0.1c0,1.8,0,4.6,0,6.8
		c-0.7,0-1.4,0-2.1-0.1V261.4z M83.6,293.6c-8.2-3-6-3.9-6.3-9.3c0,0,0,0-0.1,0c1.7,1,3.8,2,6.4,2.8V293.6z M94.5,289.2v6.8
		c-1-0.1-2.1-0.3-3.1-0.5v-6.8c0,0-0.1,0-0.1,0C92.4,288.9,93.5,289.1,94.5,289.2C94.6,289.2,94.5,289.2,94.5,289.2z M102.9,296.6
		c-1.1,0-2.2-0.1-3.3-0.1v-6.8c1.1,0.1,2.2,0.1,3.3,0.1V296.6z M133.6,284.3v5.6c-4.3,5.2-19.1,6.8-28.2,6.8v-6.8c0,0,0,0,0,0
		C117.7,289.9,128.3,287.6,133.6,284.3C133.7,284.2,133.7,284.3,133.6,284.3z M131.9,279.2c-13,7.6-39.9,7.6-52.9,0
		c0.4-0.3,1.1-0.8,2-1.3c11.3,4.9,37.6,4.9,48.9,0C130.9,278.4,131.5,278.8,131.9,279.2z M133.6,271c-4.3,5.2-19.1,6.8-28.2,6.8V271
		c0,0,0,0,0,0c12.2,0,22.9-2.3,28.3-5.6c0,0,0,0-0.1,0V271z M141.6,261v6.8c-1-0.1-2.1-0.3-3.1-0.5v-6.8c0,0-0.1,0-0.1,0
		C139.5,260.7,140.6,260.8,141.6,261C141.7,261,141.7,261,141.6,261z M150,268.4c-1.1,0-2.2-0.1-3.3-0.1v-6.8
		c1.1,0.1,2.2,0.1,3.3,0.1V268.4z M180.8,256v5.6c-4.3,5.2-19.1,6.8-28.2,6.8v-6.8c0,0,0,0,0,0C164.8,261.6,175.4,259.3,180.8,256
		C180.8,256,180.8,256,180.8,256z M171.7,254.1c-9.7,2.8-25,3-35.2,0.7c0.7-0.9,1-1.8,1-2.7c11.4,2.3,30.4,1.4,39.5-2.5
		c0.9,0.5,1.6,0.9,2,1.3C178.1,251.7,175.9,253,171.7,254.1z M201.1,237.2v5.6c-0.4,2.4-12.5,6-17.1,6.1c-0.5-0.8-1.1-1.5-1.8-2
		c1.9-1.5,2.6-2.9,2.4-4.8C191.7,241.1,197.6,239.3,201.1,237.2C201.2,237.1,201.1,237.1,201.1,237.2z M192.1,235.3
		c-2.2,0.6-4.8,1.1-7.4,1.5c0-1.1,0-2.1,0-2.9c5-0.7,9.3-1.7,12.7-3c0.9,0.5,1.6,0.9,2,1.3C198.5,232.8,196.3,234.1,192.1,235.3z
		 M208.1,230.7c-1.1,0-2.2-0.1-3.3-0.1c0-1.1,0-5.8,0.2-6.8c1,0.1,2,0.1,3.1,0.1V230.7z M238.8,218.3v5.6
		c-4.3,5.2-19.1,6.8-28.2,6.8v-6.8c0,0,0,0,0,0C222.8,223.9,233.5,221.6,238.8,218.3C238.8,218.3,238.8,218.3,238.8,218.3z
		 M259.5,209.2c-4.7,1.5-10.7,2.4-17.1,2.6c-0.4-1.1-1.2-1.9-2.1-2.7c1.6-1.3,2.4-2.7,2.4-4.2c10.6-0.4,19.6-2.6,24.5-5.6
		c0,0,0,0-0.1,0C266.8,205.5,269,205.9,259.5,209.2z M285.9,190v5.6c0.2,1.7-11,5.7-15,5.8c0-2.5,0-5.4,0-6.8
		C277.4,193.7,282.7,192.1,285.9,190C286,190,285.9,190,285.9,190z M284.2,185c-2.1,2-10.5,4.3-15,4.8c1-1,1.6-2.1,1.7-3.2
		c4.4-0.7,8.2-1.6,11.3-2.8C283.1,184.2,283.8,184.6,284.2,185z"/>
	<path class="st0" d="M267.1,205v-5.6c0,0,0,0,0.1,0c-4.8,3-13.9,5.1-24.5,5.6c0,1.5-0.8,2.9-2.4,4.2c0.9,0.7,1.7,1.6,2.1,2.7
		C249.9,211.7,264,209.4,267.1,205z"/>
	<path class="st0" d="M265.4,194.4c-0.4-0.3-1.1-0.8-2-1.3c-5.1,2-12.4,3.4-20.7,3.7c0,0.9,0,1.9,0,3
		C250.2,199.5,260.6,198,265.4,194.4z"/>
	<path class="st0" d="M267.1,180.6C267.1,180.6,267.1,180.6,267.1,180.6c-4.8,3-13.8,5.1-24.4,5.5c0,1.5-0.8,2.9-2.4,4.2
		c0.9,0.7,1.7,1.6,2.1,2.7c7.6-0.1,21.6-2.4,24.7-6.8C267.1,186.2,267.1,180.6,267.1,180.6z"/>
	<path class="st0" d="M265.4,175.5c-0.4-0.3-1.1-0.8-2-1.3c-5.1,2-12.4,3.4-20.7,3.7c0,0.9,0,1.9,0,3
		C250.2,180.7,260.6,179.1,265.4,175.5z"/>
	<path class="st0" d="M242.7,167.3c0,1.5-0.8,2.9-2.4,4.2c0.9,0.7,1.7,1.6,2.1,2.7c7.6-0.1,21.6-2.4,24.7-6.8c0,0,0-5.6,0-5.6
		c0,0,0,0,0.1,0C262.3,164.7,253.3,166.9,242.7,167.3z"/>
	<path class="st0" d="M242.7,159.1c0,0.9,0,1.9,0,3c7.5-0.3,17.9-1.8,22.7-5.4c-0.4-0.3-1.1-0.8-2-1.3
		C258.2,157.4,250.9,158.8,242.7,159.1z"/>
	<path class="st0" d="M261,130.1c0.5,0.2,1,0.3,1.4,0.5C262,130.4,261.5,130.3,261,130.1z"/>
	<path class="st0" d="M242.7,148.4c0,1.5-0.8,2.9-2.4,4.2c0.9,0.7,1.7,1.6,2.1,2.7c7.6-0.1,21.6-2.4,24.7-6.8c0,0,0-5.6,0-5.6
		c0,0,0,0,0.1,0C262.3,145.9,253.3,148,242.7,148.4z"/>
	<path class="st0" d="M240.3,133.8c3.3,2.5,2.3,5.2,2.4,9.5c7.5-0.3,17.9-1.8,22.7-5.4c-5.1-3.8-15.7-5.2-23.7-5.5
		C241.3,132.8,240.8,133.3,240.3,133.8z"/>
	<path class="st0" d="M205,223.9c-0.3,0.8-0.2,5.7-0.2,6.6c1.1,0.1,2.2,0.1,3.3,0.1v-6.8c-1,0-2.1-0.1-3.1-0.1
		C205,223.8,205,223.9,205,223.9z"/>
	<path class="st0" d="M210.6,223.9C210.6,223.9,210.6,223.9,210.6,223.9l0,6.8c9.1,0,23.9-1.6,28.2-6.8c0,0,0-5.6,0-5.6
		c0,0,0,0,0.1,0C233.5,221.6,222.8,223.9,210.6,223.9z"/>
	<path class="st0" d="M229.8,216.4c4.2-1.2,6.4-2.5,7.3-3.2c-0.4-0.3-1.1-0.8-2-1.3c-6.7,2.8-20,4.4-30.1,3.6c0,0.9,0,1.9,0,3
		C213.1,219.1,223.1,218.4,229.8,216.4z"/>
	<path class="st0" d="M205,204.9c-0.2,1-0.3,5.7-0.2,6.8c1.1,0.1,2.2,0.1,3.3,0.1V205C207,205,206,205,205,204.9z"/>
	<path class="st0" d="M238.8,199.5C238.8,199.5,238.8,199.4,238.8,199.5c-5.3,3.3-16,5.6-28.2,5.6c0,0,0,0,0,0v6.8
		c9.1,0,23.9-1.6,28.2-6.8C238.8,205,238.8,199.5,238.8,199.5z"/>
	<path class="st0" d="M229.8,197.6c4.2-1.2,6.4-2.5,7.3-3.2c-0.4-0.3-1.1-0.8-2-1.3c-6.7,2.8-20,4.4-30.1,3.6c0,0.9,0,1.9,0,3
		C213.1,200.3,223.1,199.5,229.8,197.6z"/>
	<path class="st0" d="M205,186c-0.2,1-0.3,5.7-0.2,6.8c1.1,0.1,2.2,0.1,3.3,0.1v-6.8C207,186.2,206,186.1,205,186z"/>
	<path class="st0" d="M238.8,180.6C238.8,180.6,238.8,180.6,238.8,180.6c-5.3,3.3-16,5.6-28.2,5.6c0,0,0,0,0,0v6.8
		c9.1,0,23.9-1.6,28.2-6.8C238.8,186.2,238.8,180.6,238.8,180.6z"/>
	<path class="st0" d="M205,177.9c0,0.9,0,1.9,0,3c10.3,0.6,24.7-0.2,32.1-5.3c-0.4-0.3-1.1-0.8-2-1.3
		C228.3,177.1,215.1,178.6,205,177.9z"/>
	<path class="st0" d="M205,167.2c-0.2,1-0.3,5.7-0.2,6.8c1.1,0.1,2.2,0.1,3.3,0.1v-6.8C207,167.3,206,167.3,205,167.2z"/>
	<path class="st0" d="M210.6,167.4C210.6,167.4,210.6,167.4,210.6,167.4C210.6,167.4,210.6,167.4,210.6,167.4v6.8
		c9.1,0,23.9-1.6,28.2-6.8c0,0,0-5.6,0-5.6c0,0,0,0,0.1,0C233.5,165.1,222.8,167.4,210.6,167.4z"/>
	<path class="st0" d="M205,159c0,0.9,0,1.9,0,3c10.3,0.6,24.7-0.2,32.1-5.3c-0.4-0.3-1.1-0.8-2-1.3C228.3,158.3,215.1,159.8,205,159
		z"/>
	<path class="st0" d="M204.8,155.1c1.1,0.1,2.2,0.1,3.3,0.1v-6.8c-1,0-2.1-0.1-3.1-0.1C204.8,149.3,204.7,154.1,204.8,155.1z"/>
	<path class="st0" d="M210.6,148.5C210.6,148.5,210.6,148.5,210.6,148.5C210.6,148.5,210.6,148.5,210.6,148.5v6.8
		c9.1,0,23.9-1.6,28.2-6.8c0,0,0-5.6,0-5.6c0,0,0,0,0.1,0C233.5,146.2,222.8,148.5,210.6,148.5z"/>
	<path class="st0" d="M210.6,140.4c-1.9,0-3.8-0.1-5.6-0.2c0,0.9,0,1.9,0,3c10.3,0.6,24.7-0.2,32.1-5.3c-0.4-0.3-1.1-0.8-2-1.3
		C229.2,138.9,220.4,140.4,210.6,140.4z"/>
	<path class="st0" d="M204.8,136.3c1.1,0.1,2.2,0.1,3.3,0.1v-6.8c-1,0-2.1-0.1-3.1-0.1C204.8,130.5,204.7,135.2,204.8,136.3z"/>
	<path class="st0" d="M210.6,129.7C210.6,129.7,210.6,129.7,210.6,129.7C210.6,129.7,210.6,129.7,210.6,129.7v6.8
		c9.1,0,23.9-1.6,28.2-6.8c0,0,0-5.6,0-5.6c0,0,0,0,0.1,0C233.5,127.4,222.8,129.7,210.6,129.7z"/>
	<path class="st0" d="M205,121.4c0,0.9,0,1.9,0,3c10.3,0.6,24.7-0.2,32.1-5.3c-0.4-0.3-1.1-0.8-2-1.3
		C228.3,120.6,215.1,122.1,205,121.4z"/>
	<path class="st0" d="M208.1,110.8c-1,0-2.1-0.1-3.1-0.1c-0.2,1-0.3,5.7-0.2,6.8c1.1,0.1,2.2,0.1,3.3,0.1V110.8z"/>
	<path class="st0" d="M210.6,110.8C210.6,110.8,210.6,110.8,210.6,110.8C210.6,110.8,210.6,110.8,210.6,110.8v6.8
		c9.1,0,23.9-1.6,28.2-6.8c0,0,0-5.6,0-5.6c0,0,0,0,0.1,0C233.5,108.6,222.8,110.8,210.6,110.8z"/>
	<path class="st0" d="M205,102.5c0,0.9,0,2,0,3c10.3,0.6,24.7-0.2,32.1-5.3c-0.4-0.3-1.1-0.8-2-1.3
		C228.3,101.7,215.1,103.2,205,102.5z"/>
	<path class="st0" d="M208.1,91.9c-1,0-2.1-0.1-3.1-0.1c-0.2,1-0.3,5.7-0.2,6.8c1.1,0.1,2.2,0.1,3.3,0.1V91.9z"/>
	<path class="st0" d="M210.6,92C210.6,92,210.6,92,210.6,92C210.6,92,210.6,92,210.6,92v6.8c9.1,0,23.9-1.6,28.2-6.8
		c0,0,0-5.6,0-5.6c0,0,0,0,0.1,0C233.5,89.7,222.8,92,210.6,92z"/>
	<path class="st0" d="M205,83.6c0,0.9,0,1.9,0,3c10.3,0.6,24.7-0.2,32.1-5.3c-0.4-0.3-1.1-0.8-2-1.3C228.3,82.9,215.1,84.4,205,83.6
		z"/>
	<path class="st0" d="M232.7,54.7c0.5,0.2,1,0.3,1.4,0.5C233.7,55,233.2,54.9,232.7,54.7z"/>
	<path class="st0" d="M208.1,73.1c-1,0-2.1-0.1-3.1-0.1c-0.2,1-0.3,5.7-0.2,6.8c1.1,0.1,2.2,0.1,3.3,0.1V73.1z"/>
	<path class="st0" d="M210.6,73.1C210.6,73.1,210.6,73.1,210.6,73.1C210.6,73.1,210.6,73.1,210.6,73.1v6.8c9.1,0,23.9-1.6,28.2-6.8
		c0,0,0-5.6,0-5.6c0,0,0,0,0.1,0C233.5,70.8,222.8,73.1,210.6,73.1z"/>
	<path class="st0" d="M202.6,58.4c3.3,2.5,2.3,5.1,2.4,9.4c10.3,0.6,24.7-0.2,32.1-5.3c-7.8-5.3-22.7-6-33.3-5.2
		C203.4,57.6,203,58,202.6,58.4z"/>
	<path class="st0" d="M184.6,242.8c0,1.4-0.9,2.8-2.4,4.1c0.7,0.6,1.4,1.2,1.8,2c4.5-0.2,16.7-3.8,17.1-6.1c0,0,0-5.6,0-5.6
		c0,0,0,0,0.1,0c-3.6,2.2-9.5,4-16.6,4.9C184.6,242.3,184.6,242.6,184.6,242.8z"/>
	<path class="st0" d="M197.4,230.8c-3.4,1.3-7.8,2.4-12.7,3c0,0.9,0,1.9,0,2.9c4.4-0.4,12.8-2.8,14.8-4.7
		C199,231.7,198.3,231.3,197.4,230.8z"/>
	<path class="st0" d="M193.6,228c9.5-3.3,7.3-3.7,7.6-9.7c0,0,0,0,0.1,0c-3.6,2.2-9.5,4-16.6,4.9c0.1,1.9-0.6,3.3-2.4,4.8
		c0.7,0.6,1.4,1.2,1.8,2C187.5,229.6,190.8,228.9,193.6,228z"/>
	<path class="st0" d="M199.4,213.2c-0.4-0.3-1.1-0.8-2-1.3c-3.4,1.3-7.8,2.4-12.7,3c0,0.9,0,1.9,0,2.9
		C189,217.5,197.4,215.2,199.4,213.2z"/>
	<path class="st0" d="M193.6,209.2c9.5-3.3,7.3-3.7,7.6-9.7c0,0,0,0,0.1,0c-3.6,2.2-9.5,4-16.6,4.9c0.1,1.9-0.6,3.3-2.4,4.8
		c0.7,0.6,1.4,1.2,1.8,2C187.5,210.7,190.8,210.1,193.6,209.2z"/>
	<path class="st0" d="M199.4,194.4c-0.4-0.3-1.1-0.8-2-1.3c-3.4,1.3-7.8,2.4-12.7,3c0,0.9,0,1.9,0,2.9
		C189,198.7,197.4,196.3,199.4,194.4z"/>
	<path class="st0" d="M193.6,190.4c9.5-3.3,7.3-3.7,7.6-9.7c0,0,0,0,0.1,0c-3.6,2.2-9.5,4-16.6,4.9c0.1,1.9-0.6,3.3-2.4,4.8
		c0.7,0.6,1.4,1.2,1.8,2C187.5,191.9,190.8,191.2,193.6,190.4z"/>
	<path class="st0" d="M199.4,175.5c-0.4-0.3-1.1-0.8-2-1.3c-3.4,1.3-7.8,2.4-12.7,3c0,0.9,0,1.9,0,2.9
		C189,179.8,197.4,177.5,199.4,175.5z"/>
	<path class="st0" d="M184.6,166.6c0.1,1.9-0.6,3.3-2.4,4.8c0.7,0.6,1.4,1.2,1.8,2c4.5-0.2,16.7-3.8,17.1-6.1c0,0,0-5.6,0-5.6
		c0,0,0,0,0.1,0C197.6,164,191.7,165.7,184.6,166.6z"/>
	<path class="st0" d="M192.1,159.9c4.2-1.2,6.4-2.5,7.3-3.2c-0.4-0.3-1.1-0.8-2-1.3c-3.4,1.3-7.8,2.4-12.7,3c0,0.9,0,1.9,0,2.9
		C187.3,161,189.8,160.5,192.1,159.9z"/>
	<path class="st0" d="M112.3,172c-1.1,0-2.2-0.1-3.3-0.1c0,0,0,2.4,0,2.4c1.1,0,2.2,0.1,3.3,0.2V172z"/>
	<path class="st0" d="M116.2,174.9c1.5,0.2,2.9,0.4,4.3,0.6c0-1.5,1-2.8,2.1-3.8c-2.5,0.2-5.1,0.3-7.7,0.3c0,0,0,0,0,0v2.7
		C115.3,174.8,115.7,174.8,116.2,174.9z"/>
	<path class="st0" d="M114.9,166.9c1.9,0,3.8-0.1,5.6-0.2c0-0.8,0-1.8,0-3c-3.6,0.2-7.6,0.2-11.3,0c0,1.2,0,2.2,0,3
		C111.1,166.8,113,166.9,114.9,166.9z"/>
	<path class="st0" d="M112.3,160v-6.8c-1.1,0-2.2-0.1-3.3-0.1c-0.1,2.5,0.3,4,0.2,6.8C110.3,159.9,111.3,160,112.3,160z"/>
	<path class="st0" d="M120.5,159.9c0-3.1-0.3-5.1,2.1-7c-2.5,0.2-5.1,0.3-7.7,0.3c0,0,0,0,0,0v6.8C116.8,160,118.7,160,120.5,159.9z
		"/>
	<path class="st0" d="M114.9,148.1c9.2-0.1,19.5-1.2,26-5.2c0-0.2,0-0.5,0-0.7c-0.4-0.3-0.9-0.6-1.5-0.9c-6.7,2.8-20,4.4-30.1,3.6
		c0,1.2,0,2.2,0,3C111.1,148,113,148.1,114.9,148.1z"/>
	<path class="st0" d="M112.3,141.2v-6.8c-1.1,0-2.2-0.1-3.3-0.1c-0.1,2.5,0.3,4,0.2,6.8C110.3,141.1,111.3,141.1,112.3,141.2z"/>
	<path class="st0" d="M141.4,136c0.4-0.8,1-1.4,1.7-2v-0.4c-1.3-1.1-2.1-2.3-2.2-3.6c-5.8,2.7-15.3,4.4-26,4.4c0,0,0,0,0,0v6.8
		C124.8,141,134.2,140.1,141.4,136z"/>
	<path class="st0" d="M114.9,129.2c9.2-0.1,19.5-1.2,26-5.2c0-0.2,0-0.5,0-0.7c-0.4-0.3-0.9-0.6-1.5-0.9c-6.7,2.8-20,4.4-30.1,3.6
		c0,1.2,0,2.2,0,3C111.1,129.2,113,129.2,114.9,129.2z"/>
	<path class="st0" d="M112.3,122.3v-6.8c-1.1,0-2.2-0.1-3.3-0.1c-0.1,2.5,0.3,4,0.2,6.8C110.3,122.2,111.3,122.3,112.3,122.3z"/>
	<path class="st0" d="M114.9,115.5C114.9,115.5,114.9,115.5,114.9,115.5C114.9,115.5,114.9,115.5,114.9,115.5v6.8
		c9.9-0.2,19.3-1.1,26.5-5.2c0.4-0.8,1-1.4,1.7-2v-0.4c-1.3-1.1-2.1-2.3-2.2-3.6C135.1,113.8,125.6,115.5,114.9,115.5z"/>
	<path class="st0" d="M114.9,110.4c9.2-0.1,19.5-1.2,26-5.2c0-0.2,0-0.5,0-0.7c-0.4-0.3-0.9-0.6-1.5-0.9c-6.7,2.8-20,4.4-30.1,3.6
		c0,1.2,0,2.2,0,3C111.1,110.3,113,110.4,114.9,110.4z"/>
	<path class="st0" d="M112.3,103.5v-6.8c-1.1,0-2.2-0.1-3.3-0.1c-0.1,2.5,0.3,4,0.2,6.8C110.3,103.4,111.3,103.4,112.3,103.5z"/>
	<path class="st0" d="M141.4,98.3c0.4-0.8,1-1.4,1.7-2v-0.4c-1.3-1.1-2.1-2.3-2.2-3.6c-5.8,2.7-15.3,4.4-26,4.4c0,0,0,0,0,0v6.8
		C124.8,103.3,134.2,102.4,141.4,98.3z"/>
	<path class="st0" d="M114.9,91.5c9.2-0.1,19.5-1.2,26-5.2c0-0.2,0-0.5,0-0.7c-0.4-0.3-0.9-0.6-1.5-0.9c-6.7,2.8-20,4.4-30.1,3.6
		c0,1.2,0,2.2,0,3C111.1,91.5,113,91.5,114.9,91.5z"/>
	<path class="st0" d="M109,80.1c0.4,1.5,0.1,2.4,0.2,4.4c1,0.1,2,0.1,3.1,0.1v-6.8c-1.1,0-2.2-0.1-3.3-0.1V80.1z"/>
	<path class="st0" d="M114.9,77.9C114.9,77.9,114.9,77.9,114.9,77.9C114.9,77.9,114.9,77.9,114.9,77.9v6.8
		c9.9-0.2,19.3-1.1,26.5-5.2c0.4-0.8,1-1.4,1.7-2V77c-1.3-1.1-2.1-2.3-2.2-3.6C135.1,76.1,125.6,77.9,114.9,77.9z"/>
	<path class="st0" d="M95.7,70.4c12.7,3.3,33.7,3.7,45.1-2.9c0-0.2,0-0.5,0-0.7c-0.4-0.3-0.9-0.6-1.5-0.9c-11.3,4.9-37.6,4.9-48.9,0
		c-0.9,0.5-1.6,0.9-2,1.3C89.3,67.9,91.5,69.2,95.7,70.4z"/>
	<path class="st0" d="M112.3,59c-1.1,0-2.2-0.1-3.3-0.1v6.8c1.1,0.1,2.2,0.1,3.3,0.1V59z"/>
	<path class="st0" d="M93,62.7v-6.6c-2.6-0.8-4.7-1.7-6.4-2.8c0,0,0,0,0.1,0C87,58.9,84.8,59.7,93,62.7z"/>
	<path class="st0" d="M141.4,60.6c0.4-0.8,1-1.4,1.7-2v-0.4c-1.3-1.1-2.1-2.3-2.2-3.6c-5.8,2.7-15.3,4.4-26,4.4c0,0,0,0,0,0v6.8
		C124.8,65.7,134.2,64.7,141.4,60.6z"/>
	<path class="st0" d="M103.9,58.4C104,58.4,104,58.4,103.9,58.4c-1-0.1-2.1-0.3-3.1-0.4c0,0,0.1,0,0.1,0v6.8c1,0.2,2,0.3,3.1,0.5
		V58.4z"/>
	<path class="st0" d="M95.7,51.6c12.7,3.3,33.7,3.7,45.1-2.9c0-0.2,0-0.5,0-0.7c-0.4-0.3-0.9-0.6-1.5-0.9c-11.3,4.9-37.6,4.9-48.9,0
		c-0.9,0.5-1.6,0.9-2,1.3C89.3,49.1,91.5,50.4,95.7,51.6z"/>
	<path class="st0" d="M112.3,40.1c-1.1,0-2.2-0.1-3.3-0.1v6.8c1.1,0.1,2.2,0.1,3.3,0.1V40.1z"/>
	<path class="st0" d="M93,43.9v-6.6c-2.6-0.8-4.7-1.7-6.4-2.8c0,0,0,0,0.1,0C87,40,84.8,40.9,93,43.9z"/>
	<path class="st0" d="M141.4,41.7c0.4-0.8,1-1.4,1.7-2v-0.4c-1.3-1.1-2.1-2.3-2.2-3.6c-5.8,2.7-15.3,4.4-26,4.4c0,0,0,0,0,0V47
		C124.8,46.8,134.2,45.9,141.4,41.7z"/>
	<path class="st0" d="M103.9,39.5C104,39.5,104,39.5,103.9,39.5c-1-0.1-2.1-0.3-3.1-0.4c0,0,0.1,0,0.1,0v6.8c1,0.2,2,0.3,3.1,0.5
		V39.5z"/>
	<path class="st0" d="M95.7,32.7c12.7,3.3,33.7,3.7,45.1-2.9c0-0.2,0-0.5,0-0.7c-0.4-0.3-0.9-0.6-1.5-0.9c-11.3,4.9-37.6,4.9-48.9,0
		c-0.9,0.5-1.6,0.9-2,1.3C89.3,30.2,91.5,31.5,95.7,32.7z"/>
	<path class="st0" d="M137,2.9c0.5,0.2,1,0.3,1.4,0.5C138,3.2,137.5,3.1,137,2.9z"/>
	<path class="st0" d="M112.3,21.3c-1.1,0-2.2-0.1-3.3-0.1v6.8c1.1,0.1,2.2,0.1,3.3,0.1V21.3z"/>
	<path class="st0" d="M86.7,21.3c0.1,0.4,1.5,2.1,6.3,3.8v-6.6c-2.6-0.8-4.7-1.7-6.4-2.8c0,0,0,0,0.1,0V21.3z"/>
	<path class="st0" d="M114.9,21.3C114.9,21.3,114.9,21.3,114.9,21.3C114.9,21.3,114.9,21.3,114.9,21.3v6.8
		c9.9-0.2,19.3-1.1,26.5-5.2c0.4-0.8,1-1.4,1.7-2v-5.2c0,0,0,0,0.1,0C137.7,19,127.1,21.3,114.9,21.3z"/>
	<path class="st0" d="M103.9,20.7C104,20.7,104,20.7,103.9,20.7c-1-0.1-2.1-0.3-3.1-0.4c0,0,0.1,0,0.1,0V27c1,0.2,2,0.3,3.1,0.5
		V20.7z"/>
	<path class="st0" d="M114.9,16.2c9.1-0.1,20.5-1.3,26.5-5.5c-13-7.6-39.9-7.6-52.9,0C94.4,14.9,105.8,16.1,114.9,16.2z"/>
	<path class="st0" d="M26.4,249.4c1.1,0.1,2.2,0.1,3.3,0.1v-6.8c-1.1,0-2.2-0.1-3.3-0.1V249.4z"/>
	<path class="st0" d="M4,237.2c0.3,5.5-1.9,6.3,6.3,9.3v-6.6C7.8,239.1,5.6,238.1,4,237.2C4,237.1,4,237.1,4,237.2z"/>
	<path class="st0" d="M46.1,248.4c0.4-0.6,0.9-1.1,1.5-1.5c-1.9-1.6-2.6-3-2.4-5c-4,0.6-8.3,0.9-12.9,0.9c0,0,0,0,0,0v6.8
		c4.9,0,9.5-0.4,13.7-1.1C46,248.4,46,248.4,46.1,248.4z"/>
	<path class="st0" d="M18.2,241.7v6.8c1,0.2,2,0.3,3.1,0.5v-6.8c0,0,0,0,0.1,0C20.3,242,19.2,241.8,18.2,241.7
		C18.2,241.7,18.2,241.7,18.2,241.7z"/>
	<path class="st0" d="M45.1,236.6c0-1.1,0-2.1,0-2.9c-11.1,1.9-28.8,0.8-37.4-2.9c-0.9,0.5-1.6,0.9-2,1.3
		C15.2,238.2,33.2,238.4,45.1,236.6z"/>
	<path class="st0" d="M29.7,223.9c-1.1,0-2.2-0.1-3.3-0.1v6.8c1.1,0.1,2.2,0.1,3.3,0.1V223.9z"/>
	<path class="st0" d="M10.3,221c-2.6-0.8-4.7-1.7-6.4-2.8c0,0,0,0,0.1,0c0.3,5.5-1.9,6.3,6.3,9.3V221z"/>
	<path class="st0" d="M46,229.6c0.4-0.6,1-1.1,1.6-1.7c-1.9-1.6-2.6-3-2.4-5c-4,0.6-8.3,0.9-12.9,0.9c0,0,0,0,0,0v6.8
		C37.1,230.7,41.8,230.3,46,229.6z"/>
	<path class="st0" d="M21.3,223.3C21.3,223.3,21.3,223.3,21.3,223.3c-1-0.1-2.1-0.3-3.1-0.4c0,0,0.1,0,0.1,0v6.8
		c1,0.2,2,0.3,3.1,0.5V223.3z"/>
	<path class="st0" d="M13.1,216.4c8.8,2.5,22.3,2.9,32,1.3c0-1.1,0-2.1,0-2.9c-11.1,1.9-28.8,0.8-37.4-2.9c-0.9,0.5-1.6,0.9-2,1.3
		C6.7,214,8.9,215.3,13.1,216.4z"/>
	<path class="st0" d="M29.7,205c-1.1,0-2.2-0.1-3.3-0.1v6.8c1.1,0.1,2.2,0.1,3.3,0.1V205z"/>
	<path class="st0" d="M10.3,202.2c-2.6-0.8-4.7-1.7-6.4-2.8c0,0,0,0,0.1,0c0.3,5.5-1.9,6.3,6.3,9.3V202.2z"/>
	<path class="st0" d="M46,210.8c0.4-0.6,1-1.1,1.6-1.7c-1.9-1.6-2.6-3-2.4-5c-4,0.6-8.3,0.9-12.9,0.9c0,0,0,0,0,0v6.8
		C37.1,211.9,41.8,211.5,46,210.8z"/>
	<path class="st0" d="M21.3,204.4C21.3,204.4,21.3,204.4,21.3,204.4c-1-0.1-2.1-0.3-3.1-0.4c0,0,0.1,0,0.1,0v6.8
		c1,0.2,2,0.3,3.1,0.5V204.4z"/>
	<path class="st0" d="M13.1,197.6c8.8,2.5,22.3,2.9,32,1.3c0-1.1,0-2.1,0-2.9c-11.1,1.9-28.8,0.8-37.4-2.9c-0.9,0.5-1.6,0.9-2,1.3
		C6.7,195.1,8.9,196.4,13.1,197.6z"/>
	<path class="st0" d="M29.7,186.2c-1.1,0-2.2-0.1-3.3-0.1v6.8c1.1,0.1,2.2,0.1,3.3,0.1V186.2z"/>
	<path class="st0" d="M10.3,183.3c-2.6-0.8-4.7-1.7-6.4-2.8c0,0,0,0,0.1,0c0.3,5.5-1.9,6.3,6.3,9.3V183.3z"/>
	<path class="st0" d="M46,191.9c0.4-0.6,1-1.1,1.6-1.7c-1.9-1.6-2.6-3-2.4-5c-4,0.6-8.3,0.9-12.9,0.9c0,0,0,0,0,0v6.8
		C37.1,193,41.8,192.6,46,191.9z"/>
	<path class="st0" d="M21.3,185.6C21.3,185.6,21.3,185.6,21.3,185.6c-1-0.1-2.1-0.3-3.1-0.4c0,0,0.1,0,0.1,0v6.8
		c1,0.2,2,0.3,3.1,0.5V185.6z"/>
	<path class="st0" d="M13.1,178.8c8.8,2.5,22.3,2.9,32,1.3c0-1.1,0-2.1,0-2.9c-11.1,1.9-28.8,0.8-37.4-2.9c-0.9,0.5-1.6,0.9-2,1.3
		C6.7,176.3,8.9,177.6,13.1,178.8z"/>
	<path class="st0" d="M29.7,167.3c-1.1,0-2.2-0.1-3.3-0.1v6.8c1.1,0.1,2.2,0.1,3.3,0.1V167.3z"/>
	<path class="st0" d="M10.3,164.5c-2.6-0.8-4.7-1.7-6.4-2.8c0,0,0,0,0.1,0c0.3,5.5-1.9,6.3,6.3,9.3V164.5z"/>
	<path class="st0" d="M46,173.1c0.4-0.6,1-1.1,1.6-1.6c-1.9-1.6-2.6-3-2.4-5c-4,0.6-8.3,0.9-12.9,0.9c0,0,0,0,0,0v6.8
		C37.1,174.2,41.8,173.8,46,173.1z"/>
	<path class="st0" d="M21.3,166.7C21.3,166.7,21.3,166.7,21.3,166.7c-1-0.1-2.1-0.3-3.1-0.4c0,0,0.1,0,0.1,0v6.8
		c1,0.2,2,0.3,3.1,0.5V166.7z"/>
	<path class="st0" d="M13.1,159.9c8.8,2.5,22.3,2.9,32,1.3c0-1.1,0-2.1,0-2.9c-11.1,1.9-28.8,0.8-37.4-2.9c-0.9,0.5-1.6,0.9-2,1.3
		C6.7,157.5,8.9,158.7,13.1,159.9z"/>
	<path class="st0" d="M73.4,261.5c-0.7,0-1.4,0-2.1-0.1v6.8c0.7,0,1.4,0.1,2.1,0.1C73.4,266.1,73.4,263.3,73.4,261.5z"/>
	<path class="st0" d="M49,256c0.3,5.5-1.9,6.3,6.3,9.3v-6.6C52.8,257.9,50.6,257,49,256C49,256,49,256,49,256z"/>
	<path class="st0" d="M63.2,260.5v6.8c1,0.2,2,0.3,3.1,0.5V261c0,0,0,0,0.1,0C65.2,260.8,64.1,260.7,63.2,260.5
		C63.1,260.5,63.2,260.5,63.2,260.5z"/>
	<path class="st0" d="M75.8,256.3c-1.1-0.9-1.9-1.9-2.2-2.9c-8.3-0.3-15.7-1.7-20.9-3.7c-0.9,0.5-1.6,0.9-2,1.3
		c5.5,4,16.4,5.3,24.9,5.5C75.7,256.4,75.8,256.3,75.8,256.3z"/>
	<path class="st0" d="M73.4,242.7c-0.7,0-1.4,0-2.1-0.1v6.8c0.7,0,1.4,0.1,2.1,0.1C73.4,247.3,73.4,244.4,73.4,242.7z"/>
	<path class="st0" d="M49,242.7c0.1,0.4,1.5,2.1,6.3,3.8v-6.6c-2.6-0.8-4.7-1.7-6.4-2.8c0,0,0,0,0.1,0V242.7z"/>
	<path class="st0" d="M66.2,242.1C66.3,242.1,66.3,242.1,66.2,242.1c-1-0.1-2.1-0.3-3.1-0.4c0,0,0.1,0,0.1,0v6.8
		c1,0.2,2,0.3,3.1,0.5V242.1z"/>
	<path class="st0" d="M58,235.3c4.9,1.4,11.1,2.2,17.6,2.3c0.1-0.1,0.1-0.1,0.2-0.2c-1.1-0.9-1.9-1.9-2.2-2.9
		c-8.3-0.3-15.7-1.7-20.9-3.7c-0.9,0.5-1.6,0.9-2,1.3C51.7,232.8,53.9,234.1,58,235.3z"/>
	<path class="st0" d="M73.4,223.8c-0.7,0-1.4,0-2.1-0.1v6.8c0.7,0,1.4,0.1,2.1,0.1C73.4,228.4,73.4,225.6,73.4,223.8z"/>
	<path class="st0" d="M49,223.9c0.1,0.4,1.5,2.1,6.3,3.8V221c-2.6-0.8-4.7-1.7-6.4-2.8c0,0,0,0,0.1,0V223.9z"/>
	<path class="st0" d="M66.2,223.3C66.3,223.3,66.3,223.3,66.2,223.3c-1-0.1-2.1-0.3-3.1-0.4c0,0,0.1,0,0.1,0v6.8
		c1,0.2,2,0.3,3.1,0.5V223.3z"/>
	<path class="st0" d="M58,216.4c4.9,1.4,11.1,2.2,17.6,2.3c0.1-0.1,0.1-0.1,0.2-0.2c-1.1-0.9-1.9-1.9-2.2-2.9
		c-8.3-0.3-15.7-1.7-20.9-3.7c-0.9,0.5-1.6,0.9-2,1.3C51.7,214,53.9,215.3,58,216.4z"/>
	<path class="st0" d="M73.4,205c-0.7,0-1.4,0-2.1-0.1v6.8c0.7,0,1.4,0.1,2.1,0.1C73.4,209.6,73.4,206.7,73.4,205z"/>
	<path class="st0" d="M49,205c0.1,0.4,1.5,2.1,6.3,3.8v-6.6c-2.6-0.8-4.7-1.7-6.4-2.8c0,0,0,0,0.1,0V205z"/>
	<path class="st0" d="M66.2,204.4C66.3,204.4,66.3,204.4,66.2,204.4c-1-0.1-2.1-0.3-3.1-0.4c0,0,0.1,0,0.1,0v6.8
		c1,0.2,2,0.3,3.1,0.5V204.4z"/>
	<path class="st0" d="M58,197.6c4.9,1.4,11.1,2.2,17.6,2.3c0.1-0.1,0.1-0.1,0.2-0.2c-1.1-0.9-1.9-1.9-2.2-2.9
		c-8.3-0.3-15.7-1.7-20.9-3.7c-0.9,0.5-1.6,0.9-2,1.3C51.7,195.1,53.9,196.4,58,197.6z"/>
	<path class="st0" d="M29.7,148.5c-1.1,0-2.2-0.1-3.3-0.1v6.8c1.1,0.1,2.2,0.1,3.3,0.1V148.5z"/>
	<path class="st0" d="M10.3,145.6c-2.6-0.8-4.7-1.7-6.4-2.8c0,0,0,0,0.1,0c0.3,5.5-1.9,6.3,6.3,9.3V145.6z"/>
	<path class="st0" d="M46,154.3c0.4-0.6,1-1.1,1.6-1.7c-1.9-1.6-2.6-3-2.4-5c-4,0.6-8.3,0.9-12.9,0.9c0,0,0,0,0,0v6.8
		C37.1,155.3,41.8,155,46,154.3z"/>
	<path class="st0" d="M21.3,147.9C21.3,147.9,21.3,147.9,21.3,147.9c-1-0.1-2.1-0.3-3.1-0.4c0,0,0.1,0,0.1,0v6.8
		c1,0.2,2,0.3,3.1,0.5V147.9z"/>
	<path class="st0" d="M13.1,141.1c8.8,2.5,22.3,2.9,32,1.3c0-1.1,0-2.1,0-2.9c-11.1,1.9-28.8,0.8-37.4-2.9c-0.9,0.5-1.6,0.9-2,1.3
		C6.7,138.6,8.9,139.9,13.1,141.1z"/>
	<path class="st0" d="M73.4,186.1c-0.7,0-1.4,0-2.1-0.1v6.8c0.7,0,1.4,0.1,2.1,0.1C73.4,190.7,73.4,187.9,73.4,186.1z"/>
	<path class="st0" d="M49,186.2c0.1,0.4,1.5,2.1,6.3,3.8v-6.6c-2.6-0.8-4.7-1.7-6.4-2.8c0,0,0,0,0.1,0V186.2z"/>
	<path class="st0" d="M66.2,185.6C66.3,185.6,66.3,185.6,66.2,185.6c-1-0.1-2.1-0.3-3.1-0.4c0,0,0.1,0,0.1,0v6.8
		c1,0.2,2,0.3,3.1,0.5V185.6z"/>
	<path class="st0" d="M101.8,174.3c0,0-0.1,0-0.1-0.1c-0.1,0-0.1,0-0.2,0.1C101.6,174.3,101.7,174.3,101.8,174.3z"/>
	<path class="st0" d="M58,178.8c4.9,1.4,11.1,2.2,17.6,2.3c1.6-1.4,3.6-2.3,5.6-3.1c-9.9,0.5-22.1-1-28.5-3.7
		c-0.9,0.5-1.6,0.9-2,1.3C51.7,176.3,53.9,177.6,58,178.8z"/>
	<path class="st0" d="M74.6,167.3c-1.1,0-2.2-0.1-3.3-0.1v6.8c1.1,0.1,2.2,0.1,3.3,0.1V167.3z"/>
	<path class="st0" d="M49,167.3c0.1,0.4,1.5,2.1,6.3,3.8v-6.6c-2.6-0.8-4.7-1.7-6.4-2.8c0,0,0,0,0.1,0V167.3z"/>
	<path class="st0" d="M97.8,171.5c9.5-3.3,7.3-3.7,7.6-9.7c0,0,0,0,0.1,0c-5.4,3.4-16.1,5.6-28.3,5.6c0,0,0,0,0,0v6.8
		C84.9,174.2,92.2,173.2,97.8,171.5z"/>
	<path class="st0" d="M66.2,166.7C66.3,166.7,66.3,166.7,66.2,166.7c-1-0.1-2.1-0.3-3.1-0.4c0,0,0.1,0,0.1,0v6.8
		c1,0.2,2,0.3,3.1,0.5V166.7z"/>
	<path class="st0" d="M58,159.9c12.7,3.3,34.6,3.8,45.6-3.2c-0.4-0.3-1.1-0.8-2-1.3c-11.3,4.9-37.6,4.9-48.9,0
		c-0.9,0.5-1.6,0.9-2,1.3C51.7,157.5,53.9,158.7,58,159.9z"/>
	<path class="st0" d="M74.6,148.5c-1.1,0-2.2-0.1-3.3-0.1v6.8c1.1,0.1,2.2,0.1,3.3,0.1V148.5z"/>
	<path class="st0" d="M49,148.5c0.1,0.4,1.5,2.1,6.3,3.8v-6.6c-2.6-0.8-4.7-1.7-6.4-2.8c0,0,0,0,0.1,0V148.5z"/>
	<path class="st0" d="M97.8,152.7c9.5-3.3,7.3-3.7,7.6-9.7c0,0,0,0,0.1,0c-5.4,3.4-16.1,5.6-28.3,5.6c0,0,0,0,0,0v6.8
		C84.9,155.3,92.2,154.4,97.8,152.7z"/>
	<path class="st0" d="M66.2,147.9C66.3,147.9,66.3,147.9,66.2,147.9c-1-0.1-2.1-0.3-3.1-0.4c0,0,0.1,0,0.1,0v6.8
		c1,0.2,2,0.3,3.1,0.5V147.9z"/>
	<path class="st0" d="M58,141.1c12.7,3.3,34.6,3.8,45.6-3.2c-0.4-0.3-1.1-0.8-2-1.3c-10.9,4.7-35.3,4.9-46.9,0.7
		c-1.1,0.3-2.2,0.7-3.4,1C52.5,139,54.5,140.1,58,141.1z"/>
	<path class="st0" d="M144.7,142.9C144.7,142.9,144.7,142.9,144.7,142.9l0.1,3.4c2.1-0.2,4.2-0.3,6.3-0.3v-0.4
		C148.5,144.9,146.3,143.9,144.7,142.9z"/>
	<path class="st0" d="M173.3,148.5c3.9,1.2,8.4,2.6,10.8,6.1c4.5-0.2,16.7-3.8,17.1-6.1c0,0,0-5.6,0-5.6c0,0,0,0,0.1,0
		C195.8,146.2,185.3,148.5,173.3,148.5z"/>
	<path class="st0" d="M199.4,137.8c-0.4-0.3-1.1-0.8-2-1.3c-11.3,4.9-37.6,4.9-48.9,0c-0.9,0.5-1.6,0.9-2,1.3
		C159.5,145.4,186.4,145.4,199.4,137.8z"/>
	<path class="st0" d="M167.1,136.3c1.1,0.1,2.2,0.1,3.3,0.1v-6.8c-1.1,0-2.2-0.1-3.3-0.1V136.3z"/>
	<path class="st0" d="M144.7,124C144.7,124.1,144.7,124.1,144.7,124c0.4,5.5-1.9,6.3,6.4,9.4v-6.6C148.5,126,146.3,125.1,144.7,124z
		"/>
	<path class="st0" d="M172.9,129.7C172.9,129.7,172.9,129.7,172.9,129.7C172.9,129.7,172.9,129.7,172.9,129.7v6.8
		c9.1,0,23.9-1.6,28.2-6.8c0,0,0-5.6,0-5.6c0,0,0,0,0.1,0C195.8,127.4,185.2,129.7,172.9,129.7z"/>
	<path class="st0" d="M158.9,135.4c1,0.2,2,0.3,3.1,0.5V129c0,0,0,0,0.1,0c-1.1-0.1-2.2-0.3-3.2-0.5c0,0,0.1,0,0.1,0V135.4z"/>
	<path class="st0" d="M199.4,119c-0.4-0.3-1.1-0.8-2-1.3c-11.3,4.9-37.6,4.9-48.9,0c-0.9,0.5-1.6,0.9-2,1.3
		C159.5,126.6,186.4,126.6,199.4,119z"/>
	<path class="st0" d="M170.4,110.8c-1.1,0-2.2-0.1-3.3-0.1v6.8c1.1,0.1,2.2,0.1,3.3,0.1V110.8z"/>
	<path class="st0" d="M144.7,105.2C144.7,105.2,144.7,105.2,144.7,105.2c0.4,5.5-1.9,6.3,6.4,9.4V108
		C148.5,107.2,146.3,106.2,144.7,105.2z"/>
	<path class="st0" d="M172.9,110.8C172.9,110.8,172.9,110.8,172.9,110.8C172.9,110.8,172.9,110.8,172.9,110.8v6.8
		c9.1,0,23.9-1.6,28.2-6.8c0,0,0-5.6,0-5.6c0,0,0,0,0.1,0C195.8,108.6,185.2,110.8,172.9,110.8z"/>
	<path class="st0" d="M162,110.2C162,110.2,162,110.2,162,110.2c-1-0.1-2.1-0.3-3.1-0.4c0,0,0.1,0,0.1,0v6.8c1,0.2,2,0.3,3.1,0.5
		V110.2z"/>
	<path class="st0" d="M199.4,100.1c-0.4-0.3-1.1-0.8-2-1.3c-11.3,4.9-37.6,4.9-48.9,0c-0.9,0.5-1.6,0.9-2,1.3
		C159.5,107.7,186.4,107.7,199.4,100.1z"/>
	<path class="st0" d="M170.4,92c-1.1,0-2.2-0.1-3.3-0.1v6.8c1.1,0.1,2.2,0.1,3.3,0.1V92z"/>
	<path class="st0" d="M144.7,86.4C144.7,86.4,144.7,86.4,144.7,86.4c0.4,5.5-1.9,6.3,6.4,9.4v-6.6C148.5,88.3,146.3,87.4,144.7,86.4
		z"/>
	<path class="st0" d="M172.9,92C172.9,92,172.9,92,172.9,92C172.9,92,172.9,92,172.9,92v6.8c9.1,0,23.9-1.6,28.2-6.8
		c0,0,0-5.6,0-5.6c0,0,0,0,0.1,0C195.8,89.7,185.2,92,172.9,92z"/>
	<path class="st0" d="M162,91.4C162,91.4,162,91.4,162,91.4c-1-0.1-2.1-0.3-3.1-0.4c0,0,0.1,0,0.1,0v6.8c1,0.2,2,0.3,3.1,0.5V91.4z"
		/>
	<path class="st0" d="M199.4,81.3c-0.4-0.3-1.1-0.8-2-1.3c-11.3,4.9-37.6,4.9-48.9,0c-0.9,0.5-1.6,0.9-2,1.3
		C159.5,88.9,186.4,88.9,199.4,81.3z"/>
	<path class="st0" d="M29.7,129.6c-1.1,0-2.2-0.1-3.3-0.1v6.8c1.1,0.1,2.2,0.1,3.3,0.1V129.6z"/>
	<path class="st0" d="M4,129.7c0.1,0.4,1.5,2.1,6.3,3.8v-6.6C7.8,126,5.6,125.1,4,124c0,0,0,0,0.1,0V129.7z"/>
	<path class="st0" d="M49.1,134.8c-2.9-1.8-4.1-3.5-3.9-6c-4,0.6-8.3,0.9-12.9,0.9c0,0,0,0,0,0v6.8
		C38.3,136.5,44.1,135.9,49.1,134.8z"/>
	<path class="st0" d="M21.3,129C21.3,129,21.3,129,21.3,129c-1-0.1-2.1-0.3-3.1-0.4c0,0,0.1,0,0.1,0v6.8c1,0.2,2,0.3,3.1,0.5V129z"
		/>
	<path class="st0" d="M32.2,124.5c4.5,0,8.9-0.3,12.9-1c0.1-3.9-0.7-6.4,2.4-8.6c0,0,0,0-0.1-0.1c-12.3-2.3-31.6-2.3-41.7,4.1
		C11.8,123.3,23.1,124.4,32.2,124.5z"/>
	<path class="st0" d="M170.4,73.1c-1.1,0-2.2-0.1-3.3-0.1v6.8c1.1,0.1,2.2,0.1,3.3,0.1V73.1z"/>
	<path class="st0" d="M144.7,67.5C144.7,67.5,144.7,67.5,144.7,67.5c0.4,5.5-1.9,6.3,6.4,9.4v-6.6C148.5,69.5,146.3,68.5,144.7,67.5
		z"/>
	<path class="st0" d="M172.9,73.1C172.9,73.1,172.9,73.1,172.9,73.1C172.9,73.1,172.9,73.1,172.9,73.1V80c9.1,0,23.9-1.6,28.2-6.8
		c0,0,0-5.6,0-5.6c0,0,0,0,0.1,0C195.8,70.9,185.2,73.1,172.9,73.1z"/>
	<path class="st0" d="M162,72.5C162,72.5,162,72.5,162,72.5c-1-0.1-2.1-0.3-3.1-0.4c0,0,0.1,0,0.1,0v6.8c1,0.2,2,0.3,3.1,0.5V72.5z"
		/>
	<path class="st0" d="M172.9,65c-9.8,0-18.6-1.5-24.5-3.8c-0.9,0.5-1.6,0.9-2,1.3c13,7.6,39.9,7.6,52.9,0c-0.4-0.3-1.1-0.8-2-1.3
		C191.5,63.5,182.7,65,172.9,65z"/>
	<path class="st0" d="M167.1,60.9c1.1,0.1,2.2,0.1,3.3,0.1v-6.8c-1.1,0-2.2-0.1-3.3-0.1V60.9z"/>
	<path class="st0" d="M144.7,48.7C144.7,48.7,144.7,48.7,144.7,48.7c0.4,5.5-1.9,6.3,6.4,9.4v-6.6C148.5,50.6,146.3,49.7,144.7,48.7
		z"/>
	<path class="st0" d="M172.9,54.3C172.9,54.3,172.9,54.3,172.9,54.3C172.9,54.3,172.9,54.3,172.9,54.3v6.8c9.1,0,23.9-1.6,28.2-6.8
		c0,0,0-5.6,0-5.6c0,0,0,0,0.1,0C195.8,52,185.2,54.3,172.9,54.3z"/>
	<path class="st0" d="M158.9,60c1,0.2,2,0.3,3.1,0.5v-6.8c0,0,0,0,0.1,0c-1.1-0.1-2.2-0.3-3.2-0.5c0,0,0.1,0,0.1,0V60z"/>
	<path class="st0" d="M148.5,42.4c-0.9,0.5-1.6,0.9-2,1.3c13,7.6,39.9,7.6,52.9,0c-0.4-0.3-1.1-0.8-2-1.3
		C186.1,47.3,159.8,47.3,148.5,42.4z"/>
	<path class="st0" d="M195,17c0.5,0.2,0.9,0.3,1.4,0.5C196,17.4,195.5,17.2,195,17z"/>
	<path class="st0" d="M170.4,35.4c-1.1,0-2.2-0.1-3.3-0.1v6.8c1.1,0.1,2.2,0.1,3.3,0.1V35.4z"/>
	<path class="st0" d="M144.7,29.8C144.7,29.8,144.7,29.8,144.7,29.8c0.4,5.5-1.9,6.3,6.4,9.4v-6.6C148.5,31.8,146.3,30.9,144.7,29.8
		z"/>
	<path class="st0" d="M172.9,35.5C172.9,35.5,172.9,35.5,172.9,35.5C172.9,35.5,172.9,35.5,172.9,35.5v6.8c9.1,0,23.9-1.6,28.2-6.8
		c0,0,0-5.6,0-5.6c0,0,0,0,0.1,0C195.8,33.2,185.2,35.5,172.9,35.5z"/>
	<path class="st0" d="M162,34.8C162,34.8,162,34.8,162,34.8c-1-0.1-2.1-0.3-3.1-0.4c0,0,0.1,0,0.1,0v6.8c1,0.2,2,0.3,3.1,0.5V34.8z"
		/>
	<path class="st0" d="M153.8,28c12.7,3.3,34.6,3.8,45.6-3.2c-13-7.6-39.9-7.6-52.9,0C147.4,25.5,149.6,26.8,153.8,28z"/>
	<path class="st0" d="M74.6,129.6c-1.1,0-2.2-0.1-3.3-0.1v6.8c1.1,0.1,2.2,0.1,3.3,0.1V129.6z"/>
	<path class="st0" d="M55.3,133.4v-6.6c-2.6-0.8-4.7-1.7-6.4-2.8c0,0,0,0,0.1,0C49.3,129.6,47.1,130.4,55.3,133.4z"/>
	<path class="st0" d="M97.8,133.8c9.5-3.3,7.3-3.7,7.6-9.7c0,0,0,0,0.1,0c-5.4,3.4-16.1,5.6-28.3,5.6c0,0,0,0,0,0v6.8
		C84.9,136.5,92.2,135.5,97.8,133.8z"/>
	<path class="st0" d="M66.2,129C66.3,129,66.3,129,66.2,129c-1-0.1-2.1-0.3-3.1-0.4c0,0,0.1,0,0.1,0v6.8c1,0.2,2,0.3,3.1,0.5V129z"
		/>
	<path class="st0" d="M58,122.2c12.7,3.3,34.6,3.8,45.6-3.2c-0.4-0.3-1.1-0.8-2-1.3c-11.3,4.9-37.6,4.9-48.9,0
		c-0.9,0.5-1.6,0.9-2,1.3C51.7,119.8,53.9,121.1,58,122.2z"/>
	<path class="st0" d="M74.6,110.8c-1.1,0-2.2-0.1-3.3-0.1v6.8c1.1,0.1,2.2,0.1,3.3,0.1V110.8z"/>
	<path class="st0" d="M55.3,114.6V108c-2.6-0.8-4.7-1.7-6.4-2.8c0,0,0,0,0.1,0C49.3,110.7,47.1,111.5,55.3,114.6z"/>
	<path class="st0" d="M77.2,110.8C77.2,110.8,77.2,110.8,77.2,110.8C77.2,110.8,77.2,110.8,77.2,110.8v6.8c9.1,0,23.9-1.6,28.2-6.8
		c0,0,0-5.6,0-5.6c0,0,0,0,0.1,0C100,108.6,89.4,110.8,77.2,110.8z"/>
	<path class="st0" d="M66.2,110.2C66.3,110.2,66.3,110.2,66.2,110.2c-1-0.1-2.1-0.3-3.1-0.4c0,0,0.1,0,0.1,0v6.8
		c1,0.2,2,0.3,3.1,0.5V110.2z"/>
	<path class="st0" d="M77.2,105.7c9.1-0.1,20.5-1.3,26.5-5.5c-0.4-0.3-1.1-0.8-2-1.3c-11.3,4.9-37.6,4.9-48.9,0
		c-0.9,0.5-1.6,0.9-2,1.3C56.8,104.4,68.1,105.6,77.2,105.7z"/>
	<path class="st0" d="M99.3,73.6c0.5,0.2,1,0.3,1.4,0.5C100.3,73.9,99.8,73.7,99.3,73.6z"/>
	<path class="st0" d="M74.6,92c-1.1,0-2.2-0.1-3.3-0.1v6.8c1.1,0.1,2.2,0.1,3.3,0.1V92z"/>
	<path class="st0" d="M55.3,95.7v-6.6c-2.6-0.8-4.7-1.7-6.4-2.8c0,0,0,0,0.1,0C49.3,91.9,47.1,92.7,55.3,95.7z"/>
	<path class="st0" d="M97.8,96.1c9.5-3.3,7.3-3.7,7.6-9.7c0,0,0,0,0.1,0C100,89.7,89.4,92,77.2,92c0,0,0,0,0,0v6.8
		C84.9,98.8,92.2,97.9,97.8,96.1z"/>
	<path class="st0" d="M66.2,91.4C66.3,91.4,66.3,91.4,66.2,91.4c-1-0.1-2.1-0.3-3.1-0.4c0,0,0.1,0,0.1,0v6.8c1,0.2,2,0.3,3.1,0.5
		V91.4z"/>
	<path class="st0" d="M77.2,86.8c9.1-0.1,20.5-1.3,26.5-5.5c-13-7.6-39.9-7.6-52.9,0C56.8,85.6,68.1,86.7,77.2,86.8z"/>
	<path class="st0" d="M146.7,268.2c1.1,0.1,2.2,0.1,3.3,0.1v-6.8c-1.1,0-2.2-0.1-3.3-0.1V268.2z"/>
	<path class="st0" d="M152.5,261.6C152.6,261.6,152.6,261.6,152.5,261.6l0,6.8c9.1,0,23.9-1.6,28.2-6.8c0,0,0-5.6,0-5.6
		c0,0,0,0,0.1,0C175.4,259.3,164.8,261.6,152.5,261.6z"/>
	<path class="st0" d="M138.6,260.5v6.8c1,0.2,2,0.3,3.1,0.5V261c0,0,0,0,0.1,0C140.6,260.8,139.5,260.7,138.6,260.5
		C138.5,260.5,138.5,260.5,138.6,260.5z"/>
	<path class="st0" d="M177,249.7c-9.1,3.9-28.1,4.8-39.5,2.5c0,0.9-0.4,1.8-1,2.7c12.4,2.5,32.3,2.6,42.6-4
		C178.6,250.6,178,250.1,177,249.7z"/>
	<path class="st0" d="M150,249.5v-6.8c-1.1,0-2.2-0.1-3.3-0.1v6.8C147.8,249.4,148.9,249.5,150,249.5z"/>
	<path class="st0" d="M152.6,242.8C152.6,242.8,152.6,242.8,152.6,242.8C152.6,242.8,152.6,242.8,152.6,242.8v6.8
		c9.1,0,23.9-1.6,28.2-6.8c0,0,0-5.6,0-5.6c0,0,0,0,0.1,0C175.4,240.5,164.8,242.8,152.6,242.8z"/>
	<path class="st0" d="M141.6,242.1C141.7,242.1,141.7,242.1,141.6,242.1c-1-0.1-2.1-0.3-3.1-0.4c0,0,0.1,0,0.1,0v6.8
		c1,0.2,2,0.3,3.1,0.5V242.1z"/>
	<path class="st0" d="M177,230.8c-9.1,3.9-28.1,4.8-39.5,2.5c0,0.9-0.4,1.8-1,2.7c12.4,2.5,32.3,2.6,42.6-4
		C178.6,231.7,178,231.3,177,230.8z"/>
	<path class="st0" d="M150,230.7v-6.8c-1.1,0-2.2-0.1-3.3-0.1v6.8C147.8,230.6,148.9,230.6,150,230.7z"/>
	<path class="st0" d="M152.6,223.9C152.6,223.9,152.6,223.9,152.6,223.9C152.6,223.9,152.6,223.9,152.6,223.9v6.8
		c9.1,0,23.9-1.6,28.2-6.8c0,0,0-5.6,0-5.6c0,0,0,0,0.1,0C175.4,221.6,164.8,223.9,152.6,223.9z"/>
	<path class="st0" d="M141.6,223.3C141.7,223.3,141.7,223.3,141.6,223.3c-1-0.1-2.1-0.3-3.1-0.4c0,0,0.1,0,0.1,0v6.8
		c1,0.2,2,0.3,3.1,0.5V223.3z"/>
	<path class="st0" d="M179,213.2c-0.4-0.3-1.1-0.8-2-1.3c-9.1,3.9-28.1,4.8-39.5,2.5c0,0.9-0.4,1.8-1,2.7
		C148.9,219.6,168.7,219.8,179,213.2z"/>
	<path class="st0" d="M150,211.8V205c-1.1,0-2.2-0.1-3.3-0.1v6.8C147.8,211.8,148.9,211.8,150,211.8z"/>
	<path class="st0" d="M152.6,205.1C152.6,205.1,152.6,205.1,152.6,205.1C152.6,205.1,152.6,205.1,152.6,205.1v6.8
		c9.1,0,23.9-1.6,28.2-6.8c0,0,0-5.6,0-5.6c0,0,0,0,0.1,0C175.4,202.8,164.8,205.1,152.6,205.1z"/>
	<path class="st0" d="M141.6,204.4C141.7,204.4,141.7,204.4,141.6,204.4c-1-0.1-2.1-0.3-3.1-0.4c0,0,0.1,0,0.1,0v6.8
		c1,0.2,2,0.3,3.1,0.5V204.4z"/>
	<path class="st0" d="M152.6,199.9c9.1-0.1,20.5-1.3,26.5-5.5c-0.4-0.3-1.1-0.8-2-1.3c-9.1,3.9-28.1,4.8-39.5,2.5
		c0,0.9-0.4,1.8-1,2.7C141.2,199.3,146.8,199.9,152.6,199.9z"/>
	<path class="st0" d="M150,193v-6.8c-1.1,0-2.2-0.1-3.3-0.1v6.8C147.8,192.9,148.9,193,150,193z"/>
	<path class="st0" d="M173.2,190.4c9.5-3.3,7.3-3.7,7.6-9.7c0,0,0,0,0.1,0c-5.4,3.4-16.1,5.6-28.3,5.6c0,0,0,0,0,0v6.8
		C160.3,193,167.6,192.1,173.2,190.4z"/>
	<path class="st0" d="M141.6,185.6C141.7,185.6,141.7,185.6,141.6,185.6c-1-0.1-2.1-0.3-3.1-0.4c0,0,0.1,0,0.1,0v6.8
		c1,0.2,2,0.3,3.1,0.5V185.6z"/>
	<path class="st0" d="M152.6,181c9.1-0.1,20.5-1.3,26.5-5.5c-0.4-0.3-1.1-0.8-2-1.3c-11.3,4.9-37.6,4.9-48.9,0
		c-0.9,0.5-1.6,0.9-2,1.3C132.1,179.8,143.5,181,152.6,181z"/>
	<path class="st0" d="M99.6,296.5c1.1,0.1,2.2,0.1,3.3,0.1v-6.8c-1.1,0-2.2-0.1-3.3-0.1V296.5z"/>
	<path class="st0" d="M77.3,284.3c0.3,5.5-1.9,6.3,6.3,9.3V287C81,286.2,78.9,285.3,77.3,284.3C77.2,284.2,77.2,284.3,77.3,284.3z"
		/>
	<path class="st0" d="M105.4,289.9C105.4,289.9,105.4,289.9,105.4,289.9l0,6.8c9.1,0,23.9-1.6,28.2-6.8c0,0,0-5.6,0-5.6
		c0,0,0,0,0.1,0C128.3,287.6,117.7,289.9,105.4,289.9z"/>
	<path class="st0" d="M91.5,288.8v6.8c1,0.2,2,0.3,3.1,0.5v-6.8c0,0,0,0,0.1,0C93.5,289.1,92.4,288.9,91.5,288.8
		C91.4,288.8,91.4,288.8,91.5,288.8z"/>
	<path class="st0" d="M81,277.9c-0.9,0.5-1.6,0.9-2,1.3c13,7.6,39.9,7.6,52.9,0c-0.4-0.3-1.1-0.8-2-1.3
		C118.6,282.9,92.3,282.9,81,277.9z"/>
	<path class="st0" d="M102.9,271c-1.1,0-2.2-0.1-3.3-0.1v6.8c1.1,0.1,2.2,0.1,3.3,0.1V271z"/>
	<path class="st0" d="M83.6,268.1c-2.6-0.8-4.7-1.7-6.4-2.8c0,0,0,0,0.1,0c0.3,5.5-1.9,6.3,6.3,9.3V268.1z"/>
	<path class="st0" d="M133.7,265.4c-5.4,3.4-16.1,5.6-28.3,5.6c0,0,0,0,0,0v6.8c9.1,0,23.9-1.6,28.2-6.8
		C133.6,271,133.6,265.4,133.7,265.4C133.7,265.4,133.7,265.4,133.7,265.4z"/>
	<path class="st0" d="M94.5,270.4C94.5,270.4,94.6,270.4,94.5,270.4c-1-0.1-2.1-0.3-3.1-0.4c0,0,0.1,0,0.1,0v6.8
		c1,0.2,2,0.3,3.1,0.5V270.4z"/>
	<path class="st0" d="M129.9,259.1c-11.3,4.9-37.6,4.9-48.9,0c-0.9,0.5-1.6,0.9-2,1.3c13,7.6,39.9,7.6,52.9,0
		C131.5,260,130.9,259.6,129.9,259.1z"/>
	<path class="st0" d="M99.6,252v6.8c1.1,0.1,2.2,0.1,3.3,0.1v-6.8C101.8,252.1,100.7,252.1,99.6,252z"/>
	<path class="st0" d="M83.6,255.9v-6.6c-2.6-0.8-4.7-1.7-6.4-2.8c0,0,0,0,0.1,0C77.6,252.1,75.3,252.9,83.6,255.9z"/>
	<path class="st0" d="M133.6,246.6C133.7,246.6,133.7,246.6,133.6,246.6c-5.3,3.3-16,5.6-28.2,5.6c0,0,0,0,0,0v6.8
		c9.1,0,23.9-1.6,28.2-6.8C133.6,252.1,133.6,246.6,133.6,246.6z"/>
	<path class="st0" d="M94.5,251.5C94.5,251.5,94.6,251.5,94.5,251.5c-1-0.1-2.1-0.3-3.1-0.4c0,0,0.1,0,0.1,0v6.8
		c1,0.2,2,0.3,3.1,0.5V251.5z"/>
	<path class="st0" d="M79,241.5c13,7.6,39.9,7.6,52.9,0c-0.4-0.3-1.1-0.8-2-1.3c-11.3,4.9-37.6,4.9-48.9,0
		C80.1,240.7,79.4,241.2,79,241.5z"/>
	<path class="st0" d="M99.6,233.1v6.8c1.1,0.1,2.2,0.1,3.3,0.1v-6.8C101.8,233.3,100.7,233.2,99.6,233.1z"/>
	<path class="st0" d="M83.6,237.1v-6.6c-2.6-0.8-4.7-1.7-6.4-2.8c0,0,0,0,0.1,0C77.6,233.2,75.3,234,83.6,237.1z"/>
	<path class="st0" d="M133.6,227.7C133.7,227.7,133.7,227.7,133.6,227.7c-5.3,3.3-16,5.6-28.2,5.6c0,0,0,0,0,0v6.8
		c9.1,0,23.9-1.6,28.2-6.8C133.6,233.3,133.6,227.7,133.6,227.7z"/>
	<path class="st0" d="M91.5,239c1,0.2,2,0.3,3.1,0.5v-6.8c0,0,0,0,0.1,0c-1.1-0.1-2.2-0.3-3.2-0.5c0,0,0.1,0,0.1,0V239z"/>
	<path class="st0" d="M79,222.6c13,7.6,39.9,7.6,52.9,0c-0.4-0.3-1.1-0.8-2-1.3c-11.3,4.9-37.6,4.9-48.9,0
		C80.1,221.9,79.4,222.3,79,222.6z"/>
	<path class="st0" d="M99.6,214.3v6.8c1.1,0.1,2.2,0.1,3.3,0.1v-6.8C101.8,214.4,100.7,214.4,99.6,214.3z"/>
	<path class="st0" d="M83.6,218.2v-6.6c-2.6-0.8-4.7-1.7-6.4-2.8c0,0,0,0,0.1,0C77.6,214.4,75.3,215.2,83.6,218.2z"/>
	<path class="st0" d="M126.1,218.6c9.5-3.3,7.3-3.7,7.6-9.7c0,0,0,0,0.1,0c-5.4,3.4-16.1,5.6-28.3,5.6c0,0,0,0,0,0v6.8
		C113.2,221.3,120.5,220.3,126.1,218.6z"/>
	<path class="st0" d="M91.5,220.2c1,0.2,2,0.3,3.1,0.5v-6.8c0,0,0,0,0.1,0c-1.1-0.1-2.2-0.3-3.2-0.5c0,0,0.1,0,0.1,0V220.2z"/>
	<path class="st0" d="M79,203.8c13,7.6,39.9,7.6,52.9,0c-0.4-0.3-1.1-0.8-2-1.3c-11.3,4.9-37.6,4.9-48.9,0
		C80.1,203,79.4,203.5,79,203.8z"/>
	<path class="st0" d="M150,174.1v-6.8c-1.1,0-2.2-0.1-3.3-0.1v6.8C147.8,174.1,148.9,174.1,150,174.1z"/>
	<path class="st0" d="M124.4,167.3c0.1,0.4,1.5,2.1,6.3,3.8v-6.6c-2.6-0.8-4.7-1.7-6.4-2.8c0,0,0,0,0.1,0V167.3z"/>
	<path class="st0" d="M152.6,167.4C152.6,167.4,152.6,167.4,152.6,167.4C152.6,167.4,152.6,167.4,152.6,167.4v6.8
		c9.1,0,23.9-1.6,28.2-6.8c0,0,0-5.6,0-5.6c0,0,0,0,0.1,0C175.4,165.1,164.8,167.4,152.6,167.4z"/>
	<path class="st0" d="M138.6,173.1c1,0.2,2,0.3,3.1,0.5v-6.8c0,0,0,0,0.1,0c-1.1-0.1-2.2-0.3-3.2-0.5c0,0,0.1,0,0.1,0V173.1z"/>
	<path class="st0" d="M152.6,162.2c9.1-0.1,20.5-1.3,26.5-5.5c-13-7.6-39.9-7.6-52.9,0C132.1,160.9,143.5,162.1,152.6,162.2z"/>
	<path class="st0" d="M127.6,177.2c0.5,0.2,1,0.3,1.4,0.5C128.5,177.5,128,177.4,127.6,177.2z"/>
	<path class="st0" d="M102.9,195.6c-1.1,0-2.2-0.1-3.3-0.1v6.8c1.1,0.1,2.2,0.1,3.3,0.1V195.6z"/>
	<path class="st0" d="M83.6,199.4v-6.6c-2.6-0.8-4.7-1.7-6.4-2.8c0,0,0,0,0.1,0C77.6,195.5,75.3,196.3,83.6,199.4z"/>
	<path class="st0" d="M126.1,199.8c9.5-3.3,7.3-3.7,7.6-9.7c0,0,0,0,0.1,0c-5.4,3.4-16.1,5.6-28.3,5.6c0,0,0,0,0,0v6.8
		C113.2,202.4,120.5,201.5,126.1,199.8z"/>
	<path class="st0" d="M91.5,201.3c1,0.2,2,0.3,3.1,0.5V195c0,0,0,0,0.1,0c-1.1-0.1-2.2-0.3-3.2-0.5c0,0,0.1,0,0.1,0V201.3z"/>
	<path class="st0" d="M86.3,188.2c12.7,3.3,34.6,3.8,45.6-3.2c-13-7.6-39.9-7.6-52.9,0C79.9,185.7,82.1,187,86.3,188.2z"/>
</g>
</svg>
