<?xml version="1.0" encoding="utf-8"?>
<!-- Generator: Adobe Illustrator 17.0.0, SVG Export Plug-In . SVG Version: 6.00 Build 0)  -->
<!DOCTYPE svg PUBLIC "-//W3C//DTD SVG 1.1//EN" "http://www.w3.org/Graphics/SVG/1.1/DTD/svg11.dtd">
<svg version="1.1" id="Layer_1" xmlns="http://www.w3.org/2000/svg" xmlns:xlink="http://www.w3.org/1999/xlink" x="0px" y="0px"
	 width="20.827px" height="20.696px" viewBox="113.703 7.421 20.827 20.696" enable-background="new 113.703 7.421 20.827 20.696"
	 xml:space="preserve">
<g id="TOKEN">
	<g>
		<circle fill="#FFB600" cx="124.05" cy="17.769" r="10.348"/>
		<circle fill="#F1F2F2" cx="124.105" cy="17.769" r="7.745"/>
		<g>
			<path fill="#FFB600" d="M119.239,21.281l0.796-7.704c-0.335,0.082-0.635,0.178-0.9,0.288c-0.265,0.11-0.472,0.227-0.619,0.349
				c0.18,0.106,0.32,0.251,0.423,0.435c0.102,0.184,0.153,0.366,0.153,0.545c0,0.163-0.035,0.318-0.104,0.465
				c-0.069,0.147-0.159,0.278-0.269,0.392c-0.11,0.114-0.241,0.204-0.392,0.269c-0.151,0.065-0.308,0.098-0.471,0.098
				c-0.188,0-0.355-0.039-0.502-0.116c-0.147-0.077-0.274-0.181-0.38-0.312c-0.106-0.13-0.186-0.277-0.239-0.44
				c-0.053-0.163-0.08-0.334-0.08-0.513c0-0.489,0.147-0.932,0.441-1.331c0.294-0.399,0.708-0.739,1.243-1.02
				c0.535-0.281,1.176-0.497,1.923-0.647c0.747-0.151,1.574-0.226,2.48-0.226c0.637,0,1.18,0.063,1.629,0.189
				c0.449,0.126,0.814,0.306,1.096,0.538c0.282,0.232,0.486,0.511,0.612,0.837c0.127,0.326,0.19,0.693,0.19,1.1
				c0,0.163-0.021,0.367-0.061,0.611c-0.041,0.245-0.108,0.497-0.202,0.758c-0.094,0.261-0.223,0.522-0.386,0.782
				c-0.163,0.261-0.367,0.493-0.612,0.697c-0.245,0.204-0.533,0.369-0.863,0.495c-0.331,0.126-0.716,0.181-1.157,0.165l-0.894-0.012
				l-0.355,3.307H119.239z M123.893,14.496c0-0.343-0.125-0.616-0.374-0.821c-0.249-0.204-0.574-0.306-0.974-0.306l-0.318,3.037
				c0.343-0.025,0.62-0.1,0.833-0.227c0.212-0.126,0.38-0.282,0.502-0.465c0.122-0.184,0.208-0.382,0.257-0.594
				C123.869,14.908,123.893,14.7,123.893,14.496z"/>
			<path fill="#FFB600" d="M124.914,16.184c0.412-0.535,0.861-1.006,1.347-1.415c0.486-0.408,1.002-0.735,1.549-0.98
				c0.547-0.245,1.119-0.367,1.715-0.367c0.22,0,0.443,0.016,0.667,0.049c0.224,0.033,0.451,0.09,0.68,0.171l-0.919,9.479h-2.535
				l0.147-1.274c-0.18-0.163-0.374-0.339-0.582-0.527c-0.208-0.188-0.429-0.375-0.661-0.563c-0.233-0.188-0.478-0.374-0.735-0.557
				c-0.257-0.184-0.517-0.349-0.778-0.496c-0.139,0.31-0.265,0.619-0.38,0.925c-0.114,0.306-0.212,0.606-0.294,0.9
				c-0.082,0.294-0.147,0.576-0.196,0.845c-0.049,0.269-0.073,0.519-0.073,0.747h-1.849c0-0.237,0.026-0.508,0.08-0.814
				c0.053-0.306,0.13-0.637,0.233-0.992c0.102-0.355,0.238-0.725,0.374-1.121C123.461,17.974,124.501,16.719,124.914,16.184z
				 M125.385,18.579c0.424,0.237,0.831,0.494,1.219,0.772c0.388,0.278,0.769,0.572,1.145,0.882l0.514-4.691
				c-0.229,0.041-0.465,0.149-0.71,0.325c-0.245,0.176-0.492,0.4-0.741,0.674c-0.249,0.274-0.496,0.584-0.741,0.931
				C125.826,17.818,125.597,18.187,125.385,18.579z"/>
		</g>
	</g>
</g>
</svg>
