<?xml version="1.0" encoding="utf-8"?>
<!-- Generator: Adobe Illustrator 17.0.0, SVG Export Plug-In . SVG Version: 6.00 Build 0)  -->
<!DOCTYPE svg PUBLIC "-//W3C//DTD SVG 1.1//EN" "http://www.w3.org/Graphics/SVG/1.1/DTD/svg11.dtd">
<svg version="1.1" id="Layer_1" xmlns="http://www.w3.org/2000/svg" xmlns:xlink="http://www.w3.org/1999/xlink" x="0px" y="0px"
	 width="135.052px" height="39.175px" viewBox="0 0 135.052 39.175" enable-background="new 0 0 135.052 39.175"
	 xml:space="preserve">
<symbol  id="logo_playalong" viewBox="-440.653 -95.577 881.307 191.154">
	<g>
		<path fill="#18C5FF" d="M-404.291-40.911l11.202,108.398c-4.712-1.15-8.935-2.499-12.666-4.05
			c-3.735-1.551-6.635-3.188-8.703-4.911c2.526-1.494,4.508-3.533,5.946-6.118c1.435-2.585,2.154-5.143,2.154-7.669
			c0-2.3-0.49-4.481-1.465-6.549c-0.978-2.068-2.24-3.907-3.791-5.515c-1.551-1.61-3.39-2.873-5.515-3.791
			c-2.127-0.921-4.338-1.379-6.635-1.379c-2.644,0-4.998,0.544-7.066,1.631c-2.067,1.088-3.851,2.551-5.342,4.384
			c-1.494,1.831-2.612,3.894-3.361,6.188c-0.746,2.292-1.12,4.699-1.12,7.219c0,6.874,2.067,13.119,6.204,18.733
			c4.136,5.614,9.966,10.399,17.492,14.352c7.523,3.953,16.544,6.988,27.056,9.11c10.513,2.119,22.145,3.18,34.898,3.18
			c8.961,0,16.601-0.889,22.921-2.666c6.317-1.777,11.46-4.3,15.423-7.569c3.964-3.269,6.834-7.196,8.617-11.781
			c1.78-4.589,2.672-9.748,2.672-15.478c0-2.294-0.289-5.162-0.862-8.601c-0.577-3.441-1.524-6.995-2.844-10.663
			c-1.322-3.67-3.132-7.34-5.429-11.007c-2.299-3.67-5.17-6.94-8.617-9.804c-3.447-2.868-7.496-5.189-12.149-6.966
			s-10.081-2.553-16.286-2.321l-12.58,0.172l-4.997-46.53L-404.291-40.911L-404.291-40.911z M-338.804,54.562
			c0,4.825-1.753,8.673-5.256,11.546c-3.506,2.871-8.073,4.308-13.701,4.308l-4.48-42.739c4.825,0.345,8.73,1.405,11.719,3.189
			c2.986,1.779,5.342,3.964,7.065,6.549c1.723,2.585,2.93,5.369,3.619,8.358C-339.149,48.759-338.804,51.688-338.804,54.562z"/>
		<path fill="#18C5FF" d="M-243.332-17.474c-1.15-3.562-3.016-6.866-5.601-9.909c-2.585-3.045-5.488-5.687-8.703-7.927
			c-3.218-2.24-6.694-3.993-10.426-5.256c-3.735-1.263-7.324-1.896-10.771-1.896c-4.597,0-8.475,0.69-11.633,2.068
			c-3.162,1.379-5.747,3.331-7.755,5.86c-2.012,2.526-3.507,5.571-4.481,9.134c-0.978,3.56-1.465,7.523-1.465,11.891
			c0,1.836,0.116,3.676,0.345,5.514l9.65,96.852l33.95,2.758c-0.806-7.238-1.637-15.052-2.499-23.438
			c-0.862-8.388-1.723-16.832-2.585-25.333c-0.862-8.503-1.723-16.948-2.585-25.332c-0.862-8.388-1.753-16.259-2.671-23.61
			c-0.232-1.034-0.345-1.896-0.345-2.585c0-1.15,0.113-2.24,0.345-3.275c0.229-1.034,0.574-1.925,1.034-2.671
			c0.458-0.749,1.091-1.352,1.896-1.809c0.802-0.461,1.836-0.69,3.102-0.69c1.379,0,2.784,0.286,4.222,0.862
			c1.435,0.574,2.727,1.319,3.878,2.24c1.147,0.919,2.154,1.952,3.016,3.103c0.862,1.147,1.465,2.24,1.809,3.274L-243.332-17.474z"
			/>
		<path fill="#18C5FF" d="M-150.1-7.651c1.379-1.61,2.757-3.247,4.136-4.911c1.379-1.667,2.758-3.304,4.136-4.912
			c-1.034-3.218-2.758-6.29-5.17-9.22c-2.413-2.93-5.256-5.574-8.531-7.927c-3.275-2.356-6.78-4.222-10.512-5.601
			c-3.735-1.379-7.497-2.068-11.288-2.068c-11.95,0-19.245,4.709-21.886,14.132c-0.577-0.922-1.15-1.81-1.723-2.672
			c-0.577-0.862-1.266-1.696-2.068-2.498c-0.577-0.577-1.438-1.379-2.585-2.413c-1.15-1.034-2.585-2.068-4.308-3.102
			c-1.723-1.034-3.765-1.896-6.118-2.585c-2.356-0.69-5.084-1.034-8.186-1.034c-4.826,0-8.991,0.862-12.494,2.585
			c-3.507,1.723-6.406,4.05-8.703,6.98c-2.299,2.929-3.964,6.403-4.997,10.426c-1.034,4.02-1.551,8.385-1.551,13.097
			c0,1.147,0.027,2.9,0.086,5.256c0.057,2.354,0.259,5.025,0.604,8.014c0.345,2.986,0.832,6.204,1.465,9.65
			c0.631,3.447,1.521,6.893,2.671,10.34c1.147,3.447,2.585,6.748,4.308,9.909c1.723,3.159,3.791,5.973,6.204,8.445
			c2.412,2.469,5.226,4.421,8.444,5.86c3.216,1.435,6.95,2.154,11.202,2.154c2.068,0,4.077-0.232,6.032-0.69
			c1.952-0.461,3.762-1.034,5.429-1.723c1.664-0.69,3.188-1.438,4.567-2.24c1.379-0.806,2.525-1.551,3.447-2.24l1.034,8.272
			l33.26-1.379l-5.687-56.526c-0.116-1.15-0.172-2.412-0.172-3.791s0.199-2.645,0.603-3.791c0.401-1.15,1.034-2.068,1.895-2.758
			c0.862-0.689,2.039-1.034,3.533-1.034c1.379,0,2.784,0.315,4.222,0.948c1.435,0.631,2.728,1.435,3.878,2.413
			c1.147,0.975,2.154,2.068,3.016,3.274C-151.048-9.805-150.444-8.685-150.1-7.651z M-199.56,24.92
			c-0.345,0.574-0.862,1.293-1.551,2.154c-0.689,0.862-1.839,1.293-3.447,1.293c-1.954,0-3.791-0.806-5.515-2.413
			c-1.723-1.61-3.247-3.791-4.566-6.549c-1.322-2.757-2.386-6.118-3.189-10.081c-0.805-3.964-1.206-8.302-1.206-13.012
			c0-3.102,0.199-5.544,0.603-7.324c0.401-1.782,0.948-3.102,1.637-3.964s1.379-1.379,2.068-1.551
			c0.689-0.173,1.319-0.259,1.895-0.259c1.723,0,3.56,0.544,5.515,1.637c1.952,1.091,3.447,2.9,4.48,5.428L-199.56,24.92z"/>
		<path fill="#18C5FF" d="M-129.767-55.215c0.803-0.803,1.922-1.492,3.361-2.068c1.435-0.574,2.9-1.034,4.394-1.379
			c1.491-0.345,2.9-0.574,4.222-0.69c1.319-0.113,2.21-0.172,2.671-0.172c2.641,0,4.68,0.662,6.118,1.981
			c1.435,1.322,2.585,3.103,3.447,5.343c0.862,2.24,1.491,4.825,1.895,7.755c0.402,2.93,0.776,6.002,1.12,9.22l0.345,2.93
			c-1.034-1.494-2.154-2.844-3.361-4.05c-1.206-1.206-2.671-2.27-4.394-3.189c-1.723-0.921-3.791-1.637-6.204-2.154
			c-2.412-0.517-5.342-0.776-8.789-0.776c-4.596,0-8.504,0.749-11.719,2.241c-3.218,1.491-5.833,3.589-7.841,6.29
			c-2.012,2.698-3.447,5.887-4.308,9.564c-0.862,3.676-1.293,7.696-1.293,12.063c0,2.068,0.056,4.136,0.172,6.204l6.032,57.732
			l32.915-1.551l-5.514-54.285c0-0.46-0.03-0.891-0.087-1.293c-0.059-0.404-0.086-0.776-0.086-1.12c0-0.922,0.2-2.012,0.604-3.275
			c0.401-1.266,0.948-2.413,1.637-3.447c0.69-1.034,1.521-1.925,2.499-2.671c0.975-0.749,2.038-1.12,3.189-1.12
			c1.491,0,3.102,0.431,4.825,1.292c1.723,0.861,2.986,2.211,3.791,4.05l6.549,63.591l33.605-1.551l-8.445-82.893
			c-0.231-1.379-0.46-3.016-0.689-4.911c-0.232-1.896-0.518-3.878-0.862-5.946c-0.345-2.068-0.806-4.249-1.379-6.549
			c-0.576-2.297-1.266-4.537-2.067-6.721c-2.758-8.272-7.182-14.446-13.27-18.526c-6.091-4.076-13.615-6.118-22.576-6.118
			c-5.401,0-10.024,0.835-13.873,2.499c-3.851,1.666-7.612,4.338-11.288,8.013L-129.767-55.215z"/>
		<path fill="#18C5FF" d="M-37.225-2.998c-2.3,0-4.54,0.431-6.721,1.293c-2.184,0.862-4.079,2.068-5.687,3.619
			c-1.61,1.551-2.93,3.388-3.964,5.515c-1.034,2.125-1.551,4.508-1.551,7.152c0,4.02,0.892,7.496,2.671,10.426
			c1.78,2.93,4.249,5.313,7.41,7.152c3.159,1.836,6.834,3.188,11.03,4.05c4.192,0.861,8.703,1.292,13.528,1.292
			c3.904,0,7.955-0.374,12.15-1.12c4.192-0.748,8.587-1.868,13.183-3.36c4.71,8.272,9.966,16.17,15.769,23.696
			c5.8,7.523,12.119,14.158,18.957,19.904c6.834,5.744,14.102,10.34,21.8,13.787c7.696,3.447,15.739,5.17,24.127,5.17
			c3.103,0,6.231-0.232,9.392-0.69c3.159-0.46,6.347-1.266,9.564-2.412L91.508-40.911H55.835l2.067,17.923
			c-2.528,2.296-5.256,4.766-8.186,7.41c-2.929,2.641-6.032,5.283-9.306,7.927c-3.275,2.642-6.721,5.256-10.34,7.841
			c-3.619,2.585-7.268,4.912-10.944,6.98c-1.954-4.368-3.735-8.703-5.342-13.012c-1.61-4.308-2.989-8.53-4.136-12.666
			c-1.15-4.136-2.067-8.1-2.757-11.891s-1.034-7.297-1.034-10.512h-26.021c0,3.331,0.372,7.152,1.12,11.46
			c0.746,4.308,1.836,8.961,3.274,13.959c1.435,4.998,3.189,10.254,5.257,15.769c2.067,5.514,4.421,11.142,7.065,16.889
			c-4.136,1.034-7.987,1.551-11.547,1.551c-1.723,0-3.447-0.115-5.17-0.344c0.229-1.266,0.345-2.701,0.345-4.308
			c0-2.3-0.461-4.51-1.379-6.635c-0.921-2.127-2.184-3.937-3.791-5.428c-1.61-1.494-3.477-2.701-5.601-3.619
			C-32.717-2.54-34.929-2.998-37.225-2.998z M27.228,23.024c5.973-3.333,11.689-6.952,17.147-10.857
			C49.831,8.26,55.203,4.124,60.488-0.241l7.238,66.004c-3.218-0.577-6.549-2.098-9.995-4.567
			c-3.447-2.472-6.923-5.631-10.426-9.478c-3.506-3.85-6.98-8.216-10.426-13.097C33.432,33.736,30.214,28.539,27.228,23.024z"/>
		<path fill="#18C5FF" d="M167.507-17.474c-1.15-3.562-3.016-6.866-5.601-9.909c-2.585-3.045-5.488-5.687-8.703-7.927
			c-3.218-2.24-6.694-3.993-10.426-5.256c-3.735-1.263-7.324-1.896-10.771-1.896c-4.596,0-8.474,0.69-11.633,2.068
			c-3.161,1.379-5.746,3.331-7.755,5.86c-2.011,2.526-3.506,5.571-4.48,9.134c-0.978,3.56-1.465,7.523-1.465,11.891
			c0,1.836,0.116,3.676,0.345,5.514l9.651,96.852l33.949,2.758c-0.805-7.238-1.637-15.052-2.498-23.438
			c-0.862-8.388-1.723-16.832-2.585-25.333c-0.862-8.503-1.723-16.948-2.585-25.332c-0.862-8.388-1.753-16.259-2.672-23.61
			c-0.231-1.034-0.344-1.896-0.344-2.585c0-1.15,0.113-2.24,0.344-3.275c0.229-1.034,0.574-1.925,1.034-2.671
			c0.458-0.749,1.091-1.352,1.895-1.809c0.803-0.461,1.836-0.69,3.102-0.69c1.379,0,2.785,0.286,4.222,0.862
			c1.435,0.574,2.728,1.319,3.878,2.24c1.147,0.919,2.154,1.952,3.016,3.103c0.862,1.147,1.465,2.24,1.809,3.274L167.507-17.474z"/>
		<path fill="#18C5FF" d="M204.558,51.459c5.628,0,10.857-0.317,15.683-0.948c4.825-0.633,9.074-1.925,12.752-3.878
			c3.676-1.954,6.662-4.855,8.962-8.703c2.297-3.851,3.732-9.048,4.308-15.596c1.836-0.116,3.964-0.059,6.376,0.172
			c2.412,0.229,4.852,0.544,7.324,0.948c2.469,0.402,4.852,0.862,7.151,1.379c2.297,0.517,4.136,1.004,5.515,1.465l-3.274-20.163
			c-4.023-1.61-8.044-2.757-12.063-3.447c-4.023-0.689-7.815-1.093-11.374-1.206c-0.46-3.333-1.093-6.721-1.895-10.167
			c-0.806-3.447-1.982-6.807-3.533-10.082c-1.551-3.274-3.533-6.376-5.946-9.306c-2.413-2.93-5.372-5.515-8.875-7.755
			c-3.506-2.24-7.669-4.023-12.494-5.343s-10.399-1.981-16.717-1.981c-6.436,0-12.063,0.46-16.889,1.379
			c-4.825,0.919-8.848,2.642-12.063,5.17c-3.218,2.526-5.66,6.059-7.324,10.599c-1.664,4.537-2.499,10.482-2.499,17.836
			c0,4.825,0.289,9.65,0.862,14.476c0.574,4.825,1.551,9.419,2.93,13.787c1.379,4.364,3.245,8.471,5.601,12.321
			c2.354,3.848,5.256,7.152,8.703,9.909c3.447,2.758,7.524,4.968,12.236,6.635C192.723,50.625,198.238,51.459,204.558,51.459z
			 M214.553,9.927c-3.218,2.068-6.177,4.335-8.875,6.807c-2.701,2.469-5.027,4.968-6.979,7.496c-1.723-1.723-3.162-3.821-4.308-6.29
			c-1.15-2.472-2.098-5.057-2.844-7.755c-0.749-2.701-1.293-5.316-1.637-7.842c-0.345-2.528-0.517-4.712-0.517-6.549
			c0-0.805,0.027-1.981,0.086-3.533c0.057-1.551,0.315-3.132,0.776-4.739c0.458-1.61,1.263-2.989,2.413-4.136
			c1.147-1.15,2.814-1.723,4.997-1.723c3.216,0,5.916,0.975,8.1,2.93c2.181,1.952,3.904,4.365,5.17,7.238
			c1.263,2.871,2.154,5.946,2.671,9.22C214.122,4.326,214.438,7.283,214.553,9.927z"/>
		<path fill="#18C5FF" d="M305.89,13.374c0,1.607-0.087,3.129-0.259,4.567c-0.172,1.435-0.49,2.757-0.948,3.964
			c-0.461,1.206-1.064,2.154-1.809,2.843c-0.749,0.69-1.696,1.034-2.844,1.034c-1.839,0-3.447-0.776-4.825-2.327
			c-1.379-1.551-2.472-3.476-3.275-5.773l-5.859-58.593h-33.605l8.961,91.337l33.778,1.379l-1.034-8.962
			c3.103,2.871,6.403,4.912,9.909,6.118c3.504,1.206,6.98,1.809,10.427,1.809c8.501,0,14.704-2.386,18.612-7.152
			c3.904-4.768,5.859-11.288,5.859-19.56c0-2.873-0.202-5.889-0.603-9.048c-0.404-3.162-0.835-6.204-1.292-9.134
			c-0.461-2.93-0.892-5.717-1.293-8.359c-0.404-2.644-0.603-4.941-0.603-6.893c0-1.839,0.431-3.506,1.293-4.997
			c0.862-1.494,2.439-2.241,4.739-2.241c1.607,0,2.986,0.2,4.136,0.604c1.147,0.401,2.095,0.975,2.844,1.723
			c0.746,0.746,1.435,1.693,2.068,2.843c0.63,1.147,1.293,2.413,1.981,3.791c1.263-1.61,2.612-3.247,4.05-4.911
			c1.435-1.667,2.843-3.304,4.222-4.912c-1.266-3.562-2.989-6.866-5.17-9.909c-2.183-3.045-4.739-5.687-7.668-7.927
			c-2.93-2.24-6.062-3.993-9.392-5.256c-3.334-1.263-6.721-1.896-10.168-1.896c-5.17,0-9.422,0.72-12.752,2.154
			c-3.334,1.435-5.976,3.302-7.928,5.601c-1.954,2.297-3.274,4.912-3.964,7.842c-0.69,2.929-1.034,5.886-1.034,8.875
			c0,2.642,0.172,5.399,0.517,8.272c0.345,2.871,0.746,5.688,1.206,8.445c0.458,2.757,0.862,5.369,1.206,7.841
			C305.717,9.036,305.89,11.306,305.89,13.374z"/>
		<path fill="#18C5FF" d="M373.1-55.215c0.802-0.803,1.865-1.492,3.188-2.068c1.319-0.574,2.698-1.034,4.136-1.379
			c1.435-0.345,2.727-0.574,3.878-0.69c1.147-0.113,1.952-0.172,2.412-0.172c2.526,0,4.481,0.662,5.86,1.981
			c1.379,1.322,2.412,3.103,3.102,5.343c0.69,2.24,1.177,4.825,1.465,7.755c0.286,2.93,0.66,6.002,1.12,9.22
			c-0.69-0.689-1.465-1.465-2.326-2.326c-0.862-0.862-2.012-1.667-3.447-2.413c-1.438-0.749-3.189-1.349-5.257-1.809
			c-2.067-0.458-4.712-0.69-7.927-0.69c-5.286,0-9.71,0.948-13.27,2.844c-3.563,1.895-6.436,4.48-8.617,7.755
			c-2.183,3.275-3.735,6.95-4.653,11.03c-0.921,4.076-1.379,8.358-1.379,12.838c0,2.181,0.113,5.17,0.345,8.961
			c0.229,3.791,0.717,7.868,1.465,12.236c0.746,4.364,1.952,8.759,3.619,13.183c1.664,4.421,3.934,8.445,6.807,12.063
			c2.87,3.619,6.433,6.575,10.684,8.875c4.249,2.297,9.478,3.447,15.683,3.447c1.836,0,3.503-0.202,4.997-0.604
			c1.492-0.404,2.844-0.977,4.05-1.723c1.206-0.748,2.383-1.551,3.533-2.412c1.147-0.862,2.297-1.753,3.447-2.671l1.034,8.444
			l33.605-1.551l-8.444-82.893c-0.232-1.379-0.431-3.016-0.604-4.911c-0.172-1.896-0.46-3.878-0.862-5.946
			c-0.404-2.068-0.891-4.249-1.465-6.549c-0.576-2.297-1.266-4.537-2.068-6.721c-2.644-8.272-6.866-14.446-12.666-18.526
			c-5.803-4.076-13.127-6.118-21.973-6.118c-2.758,0-5.229,0.202-7.41,0.603c-2.184,0.404-4.195,1.034-6.032,1.896
			c-1.839,0.862-3.649,1.954-5.429,3.274c-1.782,1.322-3.533,2.903-5.256,4.739L373.1-55.215z M404.12,24.92
			c-0.345,0.574-0.862,1.293-1.551,2.154s-1.839,1.293-3.447,1.293c-1.955,0-3.821-0.806-5.601-2.413
			c-1.782-1.61-3.334-3.791-4.653-6.549c-1.322-2.757-2.385-6.118-3.188-10.081c-0.806-3.964-1.206-8.302-1.206-13.012
			c0-3.102,0.229-5.544,0.69-7.324c0.458-1.782,1.004-3.102,1.637-3.964c0.631-0.862,1.319-1.379,2.068-1.551
			c0.746-0.173,1.405-0.259,1.982-0.259c1.723,0,3.56,0.544,5.515,1.637c1.952,1.091,3.387,2.9,4.308,5.428L404.12,24.92z"/>
	</g>
	<g>
		<path fill="#FFFFFF" d="M-20.084-95.576v44.911h11.642c4.39-0.19,6.171-1.272,7.57-2.99c2.608-3.181,2.354-6.934,2.354-10.623
			c0-0.382,0.382-6.743-2.354-10.051c-2.1-2.545-5.916-2.8-8.906-2.8h-4.707v-18.447L-20.084-95.576L-20.084-95.576z M-10.732-72.23
			c2.481,0.063,5.025-0.127,6.234,2.608c0.509,1.081,0.509,2.481,0.509,5.025c0,1.463,0,2.863-0.127,4.326
			c-0.509,4.453-3.817,4.517-7.443,4.517h-2.926v-16.477L-10.732-72.23L-10.732-72.23z"/>
		<path fill="#FFFFFF" d="M29.98-95.576v44.911h5.725v-39.886h13.168v-5.025H29.98z"/>
		<path fill="#FFFFFF" d="M92.893-95.576l-1.59,8.651H80.87l-1.527-8.651h-5.789l9.67,44.911h5.598l9.924-44.911H92.893z
			 M85.959-58.998l-4.135-23.093h8.524L85.959-58.998z"/>
		<path fill="#FFFFFF" d="M129.277-95.576v17.685l-9.542,27.227h5.916l6.68-22.456l6.679,22.456h5.916l-9.859-27.227v-17.685
			H129.277z"/>
	</g>
	<g>
		<path fill="#FFFFFF" d="M205.902-95.576v44.911h5.725v-39.886h13.168v-5.025H205.902z"/>
		<path fill="#FFFFFF" d="M251.958-95.576v44.911h5.534v-44.911H251.958z"/>
		<path fill="#FFFFFF" d="M292.607-95.576l-8.397,44.911h5.726l6.234-39.377l6.233,39.377h5.662l-8.334-44.911H292.607z"/>
		<path fill="#FFFFFF" d="M334.783-95.576v44.911h19.784v-5.025H340.38v-13.359h12.405v-5.089H340.38V-90.55h14.632v-5.025h-20.229
			V-95.576z"/>
	</g>
</symbol>
<use xlink:href="#logo_playalong"  width="881.307" height="191.154" id="XMLID_16_" x="-440.653" y="-95.577" transform="matrix(0.1443 0 0 -0.1443 67.4633 18.4536)" overflow="visible"/>
</svg>
