<?xml version="1.0" encoding="utf-8"?>
<!-- Generator: Adobe Illustrator 17.0.0, SVG Export Plug-In . SVG Version: 6.00 Build 0)  -->
<!DOCTYPE svg PUBLIC "-//W3C//DTD SVG 1.1//EN" "http://www.w3.org/Graphics/SVG/1.1/DTD/svg11.dtd">
<svg version="1.1" id="Layer_1" xmlns="http://www.w3.org/2000/svg" xmlns:xlink="http://www.w3.org/1999/xlink" x="0px" y="0px"
	 width="125.263px" height="99.296px" viewBox="0 0 125.263 99.296" enable-background="new 0 0 125.263 99.296"
	 xml:space="preserve">
<g id="PxPRFX.tif_1_">
	<g>
		<path fill="#F1F2F2" d="M16.225,48.127c2.034,0.532,3.925,1.059,5.834,1.508c0.676,0.159,0.549,0.598,0.55,1.028
			c0.004,4.418,0.002,8.836,0.002,13.254c0,4.386,0,8.772,0,13.157c0,0.352,0,0.703,0,1.138
			c15.008,4.586,29.984,9.162,45.051,13.766c0-18.258,0-36.412,0-54.827c-0.476,0.71-0.825,1.226-1.17,1.746
			c-3.225,4.859-6.447,9.721-9.677,14.578c-1.189,1.788-2.165,2.168-4.273,1.622c-14.554-3.764-29.105-7.537-43.658-11.306
			c-2.026-0.525-4.058-1.023-6.079-1.563c-2.836-0.757-3.623-3.015-1.892-5.388c4.938-6.77,9.913-13.514,14.793-20.325
			c1.047-1.461,2.28-2.364,3.967-2.974C31.598,9.229,43.51,4.878,55.38,0.419c2.056-0.772,3.938-0.293,5.881-0.019
			c8.293,1.17,16.577,2.396,24.864,3.606c6.406,0.936,12.811,1.88,19.217,2.813c0.348,0.051,0.705,0.041,1.058,0.049
			c1.099,0.026,2.015,0.433,2.653,1.345c5.178,7.39,10.365,14.774,15.51,22.187c1.298,1.87,0.742,3.748-1.292,4.73
			c-3.856,1.86-7.716,3.711-11.586,5.542c-2.497,1.182-5.029,2.291-7.521,3.484c-6.497,3.112-12.98,6.253-19.469,9.382
			c-0.232,0.112-0.461,0.231-0.698,0.333c-2.044,0.881-3.693,0.297-4.659-1.701c-1.064-2.201-2.084-4.424-3.124-6.637
			c-0.711-1.512-1.423-3.023-2.248-4.773c0,16.779,0,33.304,0,49.937c0.856-0.47,1.668-0.909,2.474-1.358
			c9.031-5.03,18.057-10.07,27.101-15.077c0.689-0.381,0.906-0.811,0.904-1.579c-0.027-8.417-0.005-16.834-0.038-25.25
			c-0.003-0.774,0.235-1.132,0.935-1.412c1.786-0.713,3.539-1.509,5.472-2.343c0,0.491,0,0.827,0,1.163
			c0,10.126-0.011,20.252,0.011,30.378c0.004,1.631-0.687,2.731-2.092,3.509C96.733,85.37,84.737,92.026,72.748,98.693
			c-1.164,0.647-2.259,0.778-3.582,0.37c-16.729-5.161-33.475-10.268-50.215-15.391c-1.922-0.588-2.726-1.686-2.726-3.697
			c-0.001-10.255,0-20.51,0-30.765C16.225,48.89,16.225,48.57,16.225,48.127z M94.972,11.644c-0.358-0.07-0.473-0.098-0.589-0.115
			c-5.068-0.741-10.136-1.481-15.204-2.22c-6.821-0.996-13.641-2.004-20.467-2.965c-0.634-0.089-1.356-0.001-1.961,0.218
			c-7.595,2.75-15.177,5.538-22.761,8.319c-0.851,0.312-1.695,0.642-2.746,1.04c0.454,0.11,0.669,0.173,0.889,0.214
			c12.414,2.284,24.827,4.576,37.248,6.823c0.638,0.115,1.419,0.016,2.007-0.256c7.127-3.299,14.231-6.648,21.34-9.986
			C93.413,12.395,94.092,12.065,94.972,11.644z"/>
	</g>
</g>
</svg>
