<?xml version="1.0" encoding="utf-8"?>
<!-- Generator: Adobe Illustrator 17.0.0, SVG Export Plug-In . SVG Version: 6.00 Build 0)  -->
<!DOCTYPE svg PUBLIC "-//W3C//DTD SVG 1.1//EN" "http://www.w3.org/Graphics/SVG/1.1/DTD/svg11.dtd">
<svg version="1.1" id="Layer_1" xmlns="http://www.w3.org/2000/svg" xmlns:xlink="http://www.w3.org/1999/xlink" x="0px" y="0px"
	 width="85.318px" height="85.318px" viewBox="0 0 85.318 85.318" enable-background="new 0 0 85.318 85.318" xml:space="preserve">
<g>
	<path fill="#231F20" d="M42.659,0C19.137,0,0,19.137,0,42.659c0,23.522,19.137,42.659,42.659,42.659s42.659-19.137,42.659-42.659
		C85.318,19.137,66.181,0,42.659,0z M42.659,80.559c-20.898,0-37.9-17.002-37.9-37.9s17.002-37.9,37.9-37.9s37.9,17.002,37.9,37.9
		S63.557,80.559,42.659,80.559z"/>
	<polygon fill="#231F20" points="18.619,36.488 22.777,32.331 22.777,67.311 31.614,67.311 31.614,10.995 12.37,30.239 	"/>
	<rect x="35.337" y="62.913" fill="#231F20" width="31.765" height="4.079"/>
	<rect x="35.337" y="54.068" fill="#231F20" width="31.765" height="4.079"/>
	<rect x="35.337" y="45.223" fill="#231F20" width="31.765" height="4.079"/>
	<rect x="35.337" y="36.379" fill="#231F20" width="31.765" height="4.079"/>
	<rect x="35.337" y="27.534" fill="#231F20" width="31.765" height="4.079"/>
	<rect x="35.337" y="18.689" fill="#231F20" width="31.765" height="4.079"/>
</g>
</svg>
