<?xml version="1.0" encoding="utf-8"?>
<!-- Generator: Adobe Illustrator 17.0.0, SVG Export Plug-In . SVG Version: 6.00 Build 0)  -->
<!DOCTYPE svg PUBLIC "-//W3C//DTD SVG 1.1//EN" "http://www.w3.org/Graphics/SVG/1.1/DTD/svg11.dtd">
<svg version="1.1" id="Layer_1" xmlns="http://www.w3.org/2000/svg" xmlns:xlink="http://www.w3.org/1999/xlink" x="0px" y="0px"
	 width="135.052px" height="25.333px" viewBox="0 7.421 135.052 25.333" enable-background="new 0 7.421 135.052 25.333"
	 xml:space="preserve">
<g>
	<g>
		<path fill="#FFFFFF" d="M119.93,15.439c-1.284,1.273-1.926,2.812-1.925,4.616c-0.001,1.805,0.641,3.351,1.925,4.637
			c1.273,1.271,2.819,1.906,4.637,1.905c1.792,0.001,3.331-0.634,4.616-1.905c1.271-1.286,1.906-2.832,1.905-4.637
			c0.001-1.805-0.634-3.344-1.905-4.616c-1.286-1.284-2.825-1.926-4.616-1.925C122.749,13.513,121.203,14.155,119.93,15.439z"/>
		<path fill="#FFFFFF" d="M87.18,13.513c-1.818-0.001-3.364,0.641-4.637,1.925c-1.284,1.273-1.926,2.812-1.925,4.616
			c-0.001,1.805,0.641,3.351,1.925,4.637c1.273,1.271,2.819,1.906,4.637,1.905c1.792,0.001,3.331-0.634,4.616-1.905
			c1.271-1.286,1.906-2.832,1.905-4.637c0.001-1.805-0.634-3.344-1.905-4.616C90.511,14.155,88.972,13.513,87.18,13.513z"/>
		<path fill="#FFFFFF" d="M41.037,13.513c-1.818-0.001-3.364,0.641-4.637,1.925c-1.284,1.273-1.926,2.812-1.925,4.616
			c-0.001,1.805,0.641,3.351,1.925,4.637c1.273,1.271,2.819,1.906,4.637,1.905c1.792,0.001,3.331-0.634,4.616-1.905
			c1.271-1.286,1.906-2.832,1.905-4.637c0.001-1.805-0.634-3.344-1.905-4.616C44.367,14.155,42.828,13.513,41.037,13.513z"/>
		<g>
			<path fill="none" d="M61.386,13.99c-0.688-0.414-1.993-0.621-3.913-0.621h-5.486v5.3h5.486c1.92,0,3.224-0.207,3.913-0.621
				c0.593-0.381,0.89-1.044,0.89-1.987c0-0.014,0-0.028,0-0.041c0-0.014,0-0.028,0-0.041C62.276,15.033,61.979,14.371,61.386,13.99z
				"/>
			<path fill="none" d="M41.037,13.513c-1.818-0.001-3.364,0.641-4.637,1.925c-1.284,1.273-1.926,2.812-1.925,4.616
				c-0.001,1.805,0.641,3.351,1.925,4.637c1.273,1.271,2.819,1.906,4.637,1.905c1.792,0.001,3.331-0.634,4.616-1.905
				c1.271-1.286,1.906-2.832,1.905-4.637c0.001-1.805-0.634-3.344-1.905-4.616C44.367,14.155,42.828,13.513,41.037,13.513z"/>
			<path fill="none" d="M30.375,14.093c-0.692-0.429-1.941-0.643-3.747-0.642h-4.637v5.61h4.472
				c1.866-0.001,3.156-0.222,3.871-0.662c0.636-0.42,0.954-1.131,0.952-2.132C31.286,15.248,30.983,14.524,30.375,14.093z"/>
			<path fill="none" d="M87.18,13.513c-1.818-0.001-3.364,0.641-4.637,1.925c-1.284,1.273-1.926,2.812-1.925,4.616
				c-0.001,1.805,0.641,3.351,1.925,4.637c1.273,1.271,2.819,1.906,4.637,1.905c1.792,0.001,3.331-0.634,4.616-1.905
				c1.271-1.286,1.906-2.832,1.905-4.637c0.001-1.805-0.634-3.344-1.905-4.616C90.511,14.155,88.972,13.513,87.18,13.513z"/>
			<path fill="none" d="M124.567,13.513c-1.818-0.001-3.364,0.641-4.637,1.925c-1.284,1.273-1.926,2.812-1.925,4.616
				c-0.001,1.805,0.641,3.351,1.925,4.637c1.273,1.271,2.819,1.906,4.637,1.905c1.792,0.001,3.331-0.634,4.616-1.905
				c1.271-1.286,1.906-2.832,1.905-4.637c0.001-1.805-0.634-3.344-1.905-4.616C127.898,14.155,126.359,13.513,124.567,13.513z"/>
			<path fill="#CCCCCC" d="M82.088,10.305H58.343l0,0h-9.771v3.607c-0.212-0.256-0.44-0.506-0.683-0.75
				c-1.902-1.904-4.193-2.856-6.873-2.857c-2.694,0.001-4.992,0.953-6.894,2.857c-0.009,0.009-0.017,0.019-0.026,0.029
				c-0.297-0.57-0.692-1.059-1.195-1.457c-1.165-0.952-2.959-1.428-5.382-1.428h-8.964v11.241c-0.227-0.46-0.528-0.862-0.911-1.201
				c-0.883-0.804-2.443-1.425-4.679-1.863l-4.078-0.787c-1.149-0.224-1.949-0.5-2.401-0.828c-0.36-0.31-0.54-0.738-0.538-1.284
				c0.002-0.798,0.347-1.405,1.035-1.822c0.65-0.391,1.533-0.619,2.65-0.683c0.021,0,0.041,0,0.062,0
				c1.439,0.014,2.522,0.269,3.25,0.766c0.699,0.497,1.086,1.263,1.159,2.298l0.021,0.393h3.436v-0.435
				c-0.029-2.022-0.733-3.575-2.112-4.658c-1.321-1.076-3.219-1.614-5.693-1.615c-0.028,0-0.048,0-0.062,0c-0.028,0-0.055,0-0.083,0
				H9.591c-2.133,0.116-3.817,0.62-5.051,1.511v0.021c-1.458,1.045-2.189,2.536-2.194,4.472c0.001,1.48,0.47,2.653,1.408,3.519
				c0.903,0.846,2.331,1.432,4.285,1.76l4.596,0.828c1.058,0.199,1.81,0.475,2.256,0.828c0.387,0.34,0.58,0.803,0.58,1.387
				c-0.002,0.854-0.382,1.51-1.139,1.967c-0.84,0.511-2.034,0.766-3.581,0.766c-1.806,0.001-3.158-0.324-4.057-0.973
				c-0.848-0.653-1.296-1.64-1.346-2.96L5.327,22.56H1.725l0.021,0.414c0.044,2.398,0.824,4.192,2.339,5.382
				c1.47,1.2,3.644,1.8,6.521,1.801c2.658-0.001,4.714-0.54,6.169-1.615h0.021c0.803-0.589,1.385-1.307,1.76-2.146v3.264h3.436
				v-7.597h5.527c1.54,0,2.823-0.197,3.855-0.587c0.286,2.08,1.195,3.9,2.749,5.452c1.902,1.903,4.199,2.856,6.894,2.857
				c2.68-0.001,4.971-0.953,6.873-2.857c0.244-0.243,0.471-0.494,0.683-0.75v3.483h3.416v-7.929h4.72l6.003,7.929h4.037
				l-6.086-8.053c1.336-0.202,2.412-0.616,3.229-1.242c1.227-0.928,1.841-2.295,1.842-4.099c0-0.083,0-0.166,0-0.248
				c0-0.083,0-0.166,0-0.248c-0.001-0.842-0.14-1.585-0.408-2.236h4.548v16.126h3.436V13.534h4.844
				C79.199,12.108,80.51,11.032,82.088,10.305z M30.334,18.399c-0.715,0.441-2.005,0.662-3.871,0.662h-4.472v-5.61h4.637
				c1.806-0.001,3.055,0.213,3.747,0.642c0.607,0.431,0.911,1.155,0.911,2.174C31.288,17.268,30.97,17.979,30.334,18.399z
				 M45.653,24.692c-1.286,1.271-2.825,1.906-4.616,1.905c-1.818,0.001-3.364-0.633-4.637-1.905
				c-1.284-1.286-1.926-2.832-1.925-4.637c0-1.805,0.641-3.344,1.925-4.616c1.273-1.284,2.819-1.926,4.637-1.925
				c1.792,0,3.331,0.641,4.616,1.925c1.271,1.273,1.906,2.812,1.905,4.616C47.559,21.86,46.924,23.406,45.653,24.692z
				 M62.276,16.018c0,0.014,0,0.028,0,0.041c0,0.943-0.297,1.606-0.89,1.987c-0.688,0.414-1.993,0.621-3.913,0.621h-5.486v-5.3
				h5.486c1.92,0,3.224,0.207,3.913,0.621c0.593,0.381,0.89,1.044,0.89,1.987C62.276,15.991,62.276,16.005,62.276,16.018z"/>
			<path fill="#CCCCCC" d="M131.419,13.162c-1.902-1.904-4.193-2.856-6.873-2.857c-2.694,0.001-4.992,0.953-6.894,2.857
				c-1.904,1.902-2.856,4.193-2.857,6.873c0.001,2.694,0.953,4.992,2.857,6.894c1.902,1.903,4.199,2.856,6.894,2.857
				c2.68-0.001,4.971-0.953,6.873-2.857c1.903-1.902,2.856-4.199,2.857-6.894C134.275,17.354,133.323,15.063,131.419,13.162z
				 M129.183,24.692c-1.286,1.271-2.825,1.906-4.616,1.905c-1.818,0.001-3.364-0.633-4.637-1.905
				c-1.284-1.286-1.926-2.832-1.925-4.637c0-1.805,0.641-3.344,1.925-4.616c1.273-1.284,2.819-1.926,4.637-1.925
				c1.792,0,3.331,0.641,4.616,1.925c1.271,1.273,1.906,2.812,1.905,4.616C131.089,21.86,130.454,23.406,129.183,24.692z"/>
			<path fill="#CCCCCC" d="M109.778,23.483c-0.24,0.373-0.53,0.73-0.862,1.062c-1.237,1.224-2.741,1.845-4.471,1.845
				c-1.756,0-3.267-0.62-4.491-1.844c-1.237-1.237-1.865-2.748-1.865-4.491c0-1.742,0.627-3.246,1.866-4.471
				c1.223-1.237,2.734-1.864,4.49-1.864c1.729,0,3.233,0.627,4.47,1.865c0.159,0.159,0.308,0.321,0.443,0.483l0.062,0.074h4.193
				l-0.142-0.297c-0.491-1.024-1.173-1.977-2.028-2.831c-1.936-1.936-4.298-2.917-7.019-2.917c-2.736,0-5.104,0.981-7.04,2.917
				c-0.701,0.701-1.273,1.46-1.722,2.269c-0.431-0.753-0.97-1.463-1.63-2.123c-1.902-1.904-4.193-2.856-6.873-2.857
				c-2.694,0.001-4.992,0.953-6.894,2.857c-1.904,1.902-2.856,4.193-2.857,6.873c0.001,2.694,0.953,4.992,2.857,6.894
				c1.902,1.903,4.199,2.856,6.894,2.857c2.68-0.001,4.971-0.953,6.873-2.857c0.66-0.66,1.199-1.37,1.63-2.126
				c0.449,0.811,1.021,1.571,1.722,2.272c1.936,1.936,4.304,2.918,7.04,2.918c2.722,0,5.084-0.982,7.019-2.918
				c1.023-1.023,1.784-2.168,2.262-3.405l0.109-0.281h-3.975L109.778,23.483z M91.797,24.692c-1.286,1.271-2.825,1.906-4.616,1.905
				c-1.818,0.001-3.364-0.633-4.637-1.905c-1.284-1.286-1.926-2.832-1.925-4.637c0-1.805,0.641-3.344,1.925-4.616
				c1.273-1.284,2.819-1.926,4.637-1.925c1.792,0,3.331,0.641,4.616,1.925c1.271,1.273,1.906,2.812,1.905,4.616
				C93.702,21.86,93.068,23.406,91.797,24.692z"/>
		</g>
	</g>
</g>
</svg>
