<?xml version="1.0" encoding="utf-8"?>
<!-- Generator: Adobe Illustrator 23.0.1, SVG Export Plug-In . SVG Version: 6.00 Build 0)  -->
<svg version="1.1" id="Layer_1" xmlns="http://www.w3.org/2000/svg" xmlns:xlink="http://www.w3.org/1999/xlink" x="0px" y="0px"
	 viewBox="0 0 137.8 131.9" style="enable-background:new 0 0 137.8 131.9;" xml:space="preserve">
<style type="text/css">
	.st0{fill:#FFFFFF;stroke:#231F20;stroke-width:16;stroke-miterlimit:10;}
</style>
<title>star-icon-dark-with-border</title>
<path class="st0" d="M69.1,107.3l-11.4,5.4c-6.9,3.3-13.8,6.5-20.7,9.8c-0.8,0.4-1.6,0.6-2.5,0.6c-2,0.1-4.3-1.8-4.1-3.9
	c0.2-1.5,0.3-3,0.5-4.5c0.4-3.6,0.9-7.1,1.3-10.7c0.4-3.6,0.9-6.9,1.3-10.4c0.4-2.9,0.7-5.8,1.1-8.7c0,0,0-0.1,0-0.1
	c0.6-1.7-0.2-2.7-1.4-3.9c-7.7-8-15.3-16.1-22.9-24.1C9.6,55.9,9,54.7,9,53.5c0-1.8,1.3-3.4,3.1-3.8c5.1-1,10.2-2,15.3-3l19.6-3.8
	c0.3-0.1,0.5-0.1,0.8-0.2l5.4-10c3.8-7,7.6-14,11.4-21c0.4-0.7,0.8-1.3,1.4-1.9c1.7-1.4,4.3-1.2,5.7,0.5c0.1,0.1,0.1,0.1,0.2,0.2
	c0.4,0.5,0.7,1.1,0.9,1.6c5.5,9.9,11,19.7,16.5,29.6c0.3,0.6,0.8,1.1,1.5,1.2c6.6,1.2,13.2,2.4,19.8,3.7c4.9,0.9,9.9,1.8,14.8,2.7
	c2.2,0.4,3.6,2.6,3.2,4.8c-0.1,0.7-0.4,1.3-0.9,1.8c-1.1,1.4-2.4,2.6-3.6,3.9c-6.9,7.4-13.8,14.7-20.6,22.1
	c-0.4,0.4-0.6,0.9-0.5,1.5c0.6,4.3,1.1,8.5,1.7,12.8c0.5,3.8,1,7.6,1.5,11.4c0.4,3.3,0.9,6.6,1.3,9.9c0.1,0.8,0.1,1.6,0.1,2.4
	c-0.1,1.5-1.8,3-3.5,3.1c-1.1,0.1-2.1-0.2-3-0.6c-8.6-4-17.2-8-25.8-12.1L69.1,107.3z"/>
</svg>
