<?xml version="1.0" encoding="utf-8"?>
<!-- Generator: Adobe Illustrator 17.0.0, SVG Export Plug-In . SVG Version: 6.00 Build 0)  -->
<!DOCTYPE svg PUBLIC "-//W3C//DTD SVG 1.1//EN" "http://www.w3.org/Graphics/SVG/1.1/DTD/svg11.dtd">
<svg version="1.1" id="Layer_1" xmlns="http://www.w3.org/2000/svg" xmlns:xlink="http://www.w3.org/1999/xlink" x="0px" y="0px"
	 width="130.781px" height="124.631px" viewBox="0 0 130.781 124.631" enable-background="new 0 0 130.781 124.631"
	 xml:space="preserve">
<g>
	<path fill="#EFDF18" d="M65.391,0.506c-34.137,0-61.81,27.673-61.81,61.809s27.673,61.81,61.81,61.81
		c34.136,0,61.809-27.673,61.809-61.81S99.527,0.506,65.391,0.506z M113.006,52.879c-5.915,6.336-11.829,12.673-17.759,18.995
		c-0.369,0.393-0.497,0.771-0.428,1.289c0.494,3.673,0.978,7.348,1.455,11.024c0.426,3.283,0.835,6.568,1.259,9.851
		c0.366,2.834,0.753,5.666,1.105,8.501c0.083,0.671,0.123,1.36,0.073,2.033c-0.097,1.3-1.568,2.556-3.018,2.663
		c-0.93,0.068-1.787-0.155-2.626-0.548c-7.404-3.466-14.813-6.921-22.22-10.379c-1.743-0.814-3.486-1.627-5.288-2.468
		c-3.286,1.558-6.532,3.095-9.777,4.635c-5.929,2.813-11.86,5.624-17.785,8.446c-0.676,0.322-1.37,0.5-2.117,0.541
		c-1.749,0.096-3.679-1.56-3.496-3.374c0.131-1.294,0.253-2.59,0.409-3.881c0.369-3.062,0.753-6.122,1.133-9.182
		c0.37-2.976,0.747-5.952,1.116-8.928c0.31-2.499,0.613-4.999,0.918-7.499c0.003-0.028-0.003-0.059,0.007-0.084
		c0.514-1.446-0.2-2.38-1.168-3.393c-6.596-6.901-13.131-13.859-19.691-20.794c-0.766-0.81-1.251-1.689-1.253-2.863
		c-0.003-1.584,1.243-2.999,2.692-3.291c4.38-0.883,8.77-1.716,13.157-2.567c5.636-1.093,11.273-2.185,16.909-3.28
		c0.22-0.043,0.434-0.116,0.67-0.18c1.555-2.861,3.108-5.718,4.662-8.576c3.284-6.04,6.562-12.084,9.862-18.116
		c0.322-0.588,0.702-1.187,1.193-1.63c1.319-1.191,3.817-1.171,5.094,0.633c0.309,0.437,0.561,0.917,0.821,1.387
		c4.707,8.488,9.416,16.974,14.104,25.472c0.315,0.571,0.672,0.852,1.337,0.972c5.677,1.027,11.345,2.102,17.016,3.163
		c4.253,0.796,8.509,1.58,12.759,2.391c2.576,0.491,3.682,3.613,1.98,5.66C115.134,50.676,114.05,51.762,113.006,52.879z"/>
</g>
</svg>
