<?xml version="1.0" encoding="utf-8"?>
<!-- Generator: Adobe Illustrator 17.0.0, SVG Export Plug-In . SVG Version: 6.00 Build 0)  -->
<!DOCTYPE svg PUBLIC "-//W3C//DTD SVG 1.1//EN" "http://www.w3.org/Graphics/SVG/1.1/DTD/svg11.dtd">
<svg version="1.1" id="Layer_1" xmlns="http://www.w3.org/2000/svg" xmlns:xlink="http://www.w3.org/1999/xlink" x="0px" y="0px"
	 width="130.781px" height="124.631px" viewBox="0 0 130.781 124.631" enable-background="new 0 0 130.781 124.631"
	 xml:space="preserve">
<g>
	<path fill="#eedf17" d="M65.603,107.636c-4.17,1.977-8.288,3.928-12.405,5.881c-7.523,3.569-15.048,7.136-22.566,10.716
		c-0.858,0.409-1.738,0.634-2.686,0.687c-2.219,0.122-4.667-1.98-4.435-4.281c0.166-1.642,0.321-3.286,0.519-4.925
		c0.467-3.885,0.955-7.768,1.438-11.651c0.47-3.777,0.948-7.552,1.416-11.329c0.393-3.171,0.777-6.343,1.165-9.515
		c0.004-0.036-0.003-0.075,0.008-0.107c0.652-1.834-0.253-3.02-1.482-4.306C18.206,70.051,9.914,61.221,1.59,52.423
		C0.618,51.395,0.003,50.28,0,48.79c-0.004-2.009,1.577-3.805,3.416-4.175c5.558-1.12,11.128-2.177,16.694-3.257
		c7.151-1.387,14.303-2.773,21.454-4.162c0.279-0.054,0.551-0.147,0.85-0.229c1.973-3.63,3.944-7.256,5.915-10.881
		c4.167-7.664,8.326-15.333,12.513-22.986c0.408-0.746,0.891-1.506,1.513-2.068c1.673-1.511,4.844-1.486,6.464,0.803
		c0.393,0.555,0.711,1.164,1.042,1.76c5.972,10.77,11.947,21.537,17.895,32.32c0.4,0.725,0.853,1.081,1.696,1.234
		c7.203,1.303,14.396,2.667,21.591,4.013c5.397,1.01,10.796,2.005,16.189,3.034c3.268,0.623,4.672,4.585,2.513,7.182
		c-1.239,1.49-2.615,2.867-3.939,4.286c-7.505,8.039-15.009,16.08-22.533,24.102c-0.468,0.499-0.631,0.979-0.542,1.635
		c0.627,4.661,1.24,9.324,1.846,13.987c0.54,4.165,1.06,8.334,1.598,12.499c0.464,3.596,0.956,7.189,1.402,10.787
		c0.106,0.852,0.156,1.726,0.092,2.579c-0.123,1.649-1.989,3.243-3.83,3.379c-1.179,0.087-2.267-0.197-3.332-0.696
		c-9.394-4.398-18.795-8.781-28.194-13.169C70.101,109.734,67.889,108.703,65.603,107.636z"/>
</g>
</svg>
