<?xml version="1.0" encoding="utf-8"?>
<!-- Generator: Adobe Illustrator 17.0.0, SVG Export Plug-In . SVG Version: 6.00 Build 0)  -->
<!DOCTYPE svg PUBLIC "-//W3C//DTD SVG 1.1//EN" "http://www.w3.org/Graphics/SVG/1.1/DTD/svg11.dtd">
<svg version="1.1" id="Layer_1" xmlns="http://www.w3.org/2000/svg" xmlns:xlink="http://www.w3.org/1999/xlink" x="0px" y="0px"
	 width="20.827px" height="20.696px" viewBox="0 0 20.827 20.696" enable-background="new 0 0 20.827 20.696" xml:space="preserve">
<symbol  id="game_master_icon_color" viewBox="-22.533 -30.43 45.068 60.863">
	<g>
		<path fill="none" d="M-13.022,9.158l0-2.606c0-5.256,0-10.512-0.006-15.768c3.64-2.475,7.275-4.957,10.912-7.438l2.114-1.442
			l12.111,8.265c0.304,0.208,0.607,0.416,0.912,0.622V9.158L0,18.044L-13.022,9.158z"/>
		<path fill="none" d="M-18.763,13.076V8.574c0-7.238,0.001-14.476-0.009-21.715c5.033-3.421,10.058-6.852,15.083-10.282
			l3.685-2.515l17.147,11.701c0.538,0.369,1.077,0.738,1.618,1.1l0.001,26.213L0,25.88L-18.763,13.076z M16.782-9.721
			c0.07-0.926-0.331-1.735-1.113-2.247c-0.482-0.313-0.956-0.64-1.431-0.966l-14.14-9.609l-1.195,0.652
			c-0.099,0.061-0.199,0.123-0.297,0.189l-2.843,1.94c-3.796,2.591-7.592,5.182-11.391,7.765c-0.772,0.525-1.163,1.284-1.162,2.258
			c0.007,5.429,0.006,10.86,0.006,16.29v4.593L0,22.598l16.783-11.454L16.782-9.721z"/>
		<path fill="#FFFFFF" d="M0,30.434l-22.524-15.371V8.574c0-7.352,0.001-14.705-0.009-22.058c-0.001-1.094,0.434-1.943,1.292-2.525
			c5.147-3.499,10.29-7.009,15.433-10.52l4.29-2.928c0.135-0.092,0.274-0.177,0.41-0.26l1.143-0.713l17.958,12.217l1.281,0.876
			c0.675,0.463,1.35,0.927,2.034,1.372c0.872,0.57,1.312,1.478,1.214,2.482l0.003,28.545L0,30.434z M18.761-13.137
			c-0.541-0.361-1.08-0.73-1.618-1.1L-0.004-25.938l-3.685,2.515c-5.025,3.431-10.051,6.861-15.083,10.282
			c0.01,7.239,0.009,14.477,0.009,21.715v4.502L0,25.88l18.763-12.804L18.761-13.137z"/>
		<path fill="#FFFFFF" d="M-16.783,11.145V6.552c0-5.43,0-10.861-0.006-16.29c-0.001-0.974,0.389-1.732,1.162-2.258
			c3.799-2.583,7.595-5.174,11.391-7.765l2.843-1.94c0.098-0.066,0.198-0.129,0.297-0.189l1.195-0.652l14.14,9.609
			c0.475,0.326,0.948,0.652,1.431,0.966c0.782,0.512,1.184,1.321,1.113,2.247l0.001,20.865L0,22.598L-16.783,11.145z M13.021-9.21
			c-0.305-0.206-0.608-0.414-0.912-0.622l-12.111-8.265l-2.114,1.442c-3.636,2.481-7.272,4.964-10.912,7.438
			c0.006,5.256,0.006,10.512,0.006,15.768l0,2.606L0,18.044l13.021-8.886V-9.21z"/>
	</g>
</symbol>
<use xlink:href="#game_master_icon_color"  width="45.068" height="60.863" id="XMLID_1_" x="-22.533" y="-30.43" transform="matrix(0.3325 0 0 -0.3325 10.4132 10.3486)" overflow="visible"/>
</svg>
