<?xml version="1.0" encoding="utf-8"?>
<!-- Generator: Adobe Illustrator 17.0.0, SVG Export Plug-In . SVG Version: 6.00 Build 0)  -->
<!DOCTYPE svg PUBLIC "-//W3C//DTD SVG 1.1//EN" "http://www.w3.org/Graphics/SVG/1.1/DTD/svg11.dtd">
<svg version="1.1" id="Layer_1" xmlns="http://www.w3.org/2000/svg" xmlns:xlink="http://www.w3.org/1999/xlink" x="0px" y="0px"
	 width="20.827px" height="20.696px" viewBox="0 0 20.827 20.696" enable-background="new 0 0 20.827 20.696" xml:space="preserve">
<symbol  id="prize_play_icon_color" viewBox="-28.715 -27.309 57.43 54.617">
	<g id="lZOGyr.tif_2_">
		<g>
			<path fill="#FFFFFF" d="M0.578,9.763c2.785-1.606,5.545-3.197,8.304-4.79c1.801-1.039,3.6-2.083,5.405-3.115
				c0.227-0.129,0.34-0.261,0.339-0.543c-0.011-3.307-0.007-16.621-0.008-19.928c0-0.087-0.01-0.175-0.016-0.278
				c-4.855-2.803-9.707-5.605-14.579-8.417c-0.099,0.05-0.205,0.096-0.304,0.153c-4.292,2.477-8.583,4.957-12.879,7.427
				c-0.237,0.136-0.32,0.287-0.32,0.555c0.008,3.484,0.008,16.976,0,20.459c-0.001,0.263,0.069,0.421,0.31,0.56
				C-8.656,4.44-4.148,7.045,0.361,9.648C0.425,9.684,0.491,9.717,0.578,9.763z"/>
			<path fill="#FFFFFF" d="M-17.081-17.449c-0.506,0.285-0.93,0.517-1.348,0.759c-3.19,1.843-6.371,3.701-9.574,5.52
				c-0.529,0.3-0.717,0.62-0.71,1.235c0.036,3.365,0.017,16.739,0.017,20.104c0,0.176,0,0.353,0,0.562
				c0.521,0.306,1.037,0.614,1.557,0.914c2.718,1.569,5.438,3.135,8.157,4.702c1.251,0.721,2.506,1.437,3.752,2.167
				c0.229,0.134,0.402,0.146,0.642,0.005c1.577-0.923,3.166-1.825,4.749-2.738c1.928-1.111,3.854-2.225,5.781-3.339
				c0.305-0.176,0.606-0.357,0.969-0.571c-0.141-0.11-0.23-0.199-0.335-0.259c-1.977-1.143-3.957-2.283-5.934-3.425
				c-1.927-1.113-3.852-2.228-5.778-3.342c-0.51-0.295-1.013-0.605-1.537-0.874c-0.303-0.156-0.415-0.35-0.413-0.693
				c0.012-3.38,0.007-16.768,0.007-20.149C-17.081-17.031-17.081-17.192-17.081-17.449z"/>
			<path fill="#FFFFFF" d="M15.478,18.373c4.42-2.552,8.808-5.085,13.229-7.637c0-0.137,0-0.283,0-0.428
				c0-3.527-0.005-17.061,0.008-20.588c0.001-0.338-0.096-0.528-0.393-0.696c-1.487-0.842-2.96-1.709-4.44-2.563
				c-1.671-0.965-3.343-1.927-5.016-2.888c-0.175-0.1-0.356-0.189-0.608-0.321c-0.014,0.245-0.032,0.413-0.033,0.581
				c-0.002,3.113-0.01,16.235,0.009,19.348c0.002,0.412-0.134,0.632-0.483,0.832c-2.636,1.501-5.262,3.021-7.89,4.536
				c-1.749,1.008-3.496,2.019-5.243,3.031c-0.112,0.065-0.215,0.145-0.38,0.257c0.189,0.129,0.334,0.243,0.491,0.334
				c2.665,1.541,5.332,3.08,7.998,4.618C13.632,17.31,14.539,17.831,15.478,18.373z"/>
			<path fill="#FFFFFF" d="M0.57,13.916c-3.948,2.279-7.877,4.547-11.883,6.859C-7.512,22.971-3.777,25.128,0,27.309
				c3.931-2.269,7.874-4.545,11.885-6.86C8.098,18.263,4.354,16.101,0.57,13.916z"/>
		</g>
	</g>
</symbol>
<use xlink:href="#prize_play_icon_color"  width="57.43" height="54.617" id="XMLID_1_" x="-28.715" y="-27.309" transform="matrix(0.3532 0 0 -0.3532 10.4132 10.3482)" overflow="visible"/>
</svg>
