<?xml version="1.0" encoding="utf-8"?>
<!-- Generator: Adobe Illustrator 17.0.0, SVG Export Plug-In . SVG Version: 6.00 Build 0)  -->
<!DOCTYPE svg PUBLIC "-//W3C//DTD SVG 1.1//EN" "http://www.w3.org/Graphics/SVG/1.1/DTD/svg11.dtd">
<svg version="1.1" id="Layer_1" xmlns="http://www.w3.org/2000/svg" xmlns:xlink="http://www.w3.org/1999/xlink" x="0px" y="0px"
	 width="20.827px" height="20.696px" viewBox="0 0 20.827 20.696" enable-background="new 0 0 20.827 20.696" xml:space="preserve">
<symbol  id="Live_Play_Icon_Red" viewBox="-32.351 -42.802 64.703 85.605">
	<g>
		<polygon fill="#C61818" points="0,37.286 20.237,-7.379 26.537,-10.893 31.797,-3.384 32.351,-3.384 32.073,-2.988 32.351,-2.592 
			31.797,-2.592 0,42.803 -31.797,-2.592 -32.351,-2.592 -32.073,-2.988 -32.351,-3.384 -31.797,-3.384 -27.108,-10.077 
			-22.051,-6.899 		"/>
	</g>
	<g>
		<polygon fill="#C61818" points="0,-37.285 -20.237,7.38 -26.537,10.893 -31.797,3.384 -32.351,3.384 -32.073,2.988 -32.351,2.593 
			-31.797,2.593 0,-42.802 31.797,2.593 32.351,2.593 32.073,2.988 32.351,3.384 31.797,3.384 27.109,10.078 22.051,6.9 		"/>
	</g>
</symbol>
<use xlink:href="#Live_Play_Icon_Red"  width="64.703" height="85.605" x="-32.351" y="-42.802" transform="matrix(0.235 0 0 -0.235 10.4135 10.3483)" overflow="visible"/>
</svg>
