<?xml version="1.0" encoding="utf-8"?>
<!-- Generator: Adobe Illustrator 17.0.0, SVG Export Plug-In . SVG Version: 6.00 Build 0)  -->
<!DOCTYPE svg PUBLIC "-//W3C//DTD SVG 1.1//EN" "http://www.w3.org/Graphics/SVG/1.1/DTD/svg11.dtd">
<svg version="1.1" id="Layer_1" xmlns="http://www.w3.org/2000/svg" xmlns:xlink="http://www.w3.org/1999/xlink" x="0px" y="0px"
	 width="141.862px" height="121.393px" viewBox="0 0 141.862 121.393" enable-background="new 0 0 141.862 121.393"
	 xml:space="preserve">
<g>
	<path fill="#17C5FF" d="M135.894,13.953c0.288-0.799,0.546-1.633,0.766-2.508L139.545,0l-10.973,4.347
		c-1.281,0.508-2.486,0.98-3.638,1.431c-2.459,0.963-4.781,1.873-7.059,2.824c-0.868,0.363-1.288,0.417-1.461,0.417
		c-0.297,0-0.887-0.33-1.58-0.882c-5.927-4.725-12.419-7.12-19.298-7.12c-4.731,0-9.52,1.163-14.231,3.455
		C70,9.973,63.631,19.665,62.886,32.5c-0.021,0.363-0.037,0.725-0.049,1.085C46.052,31.159,32.019,23.013,19.094,8.297l-6.077-6.919
		L9.086,9.705C4.334,19.771,3.734,29.352,7.321,38.696l-1.756-0.431L5.37,45.766c-0.246,9.42,2.706,16.15,8.087,21.798l-1.993,0.112
		l3.2,7.845c2.183,5.35,5.213,11.333,11.136,15.142c1.462,0.94,2.964,1.787,4.477,2.577c-5.829,2.576-12.535,3.805-20.492,3.805
		c-0.62,0-1.242-0.007-1.867-0.022L0,96.84l1.905,7.655l0.013,0.077c0.102,0.592,0.412,2.394,2.004,3.866l0.16,0.149
		c0.581,0.542,1.458,1.361,2.679,2.005c13.585,7.167,27.22,10.8,40.527,10.8c14.69,0,29.069-4.416,42.736-13.124
		c11.655-7.427,20.755-16.977,27.047-28.386c6.033-10.94,9.504-23.631,10.317-37.718c0.237-4.111,1.173-6.212,3.711-8.326
		c5.072-4.226,5.902-5.692,7.246-10.124c0.086-0.283,0.178-0.587,0.28-0.917l3.235-10.418L135.894,13.953z M127.231,29.195
		c-4.111,3.425-5.567,7.246-5.877,12.622c-1.498,25.98-12.51,47.293-34.578,61.354c-12.898,8.218-26.119,12.177-39.488,12.177
		c-12.483,0-25.094-3.449-37.706-10.102c-0.578-0.305-1.068-0.795-1.556-1.246c-0.138-0.127-0.121-0.422-0.249-0.934
		c0.671,0.015,1.34,0.023,2.006,0.023c12.037,0,23.277-2.6,32.997-10.492c-4.777-2.4-9.501-4.31-13.713-7.018
		c-4.217-2.712-6.663-7.084-8.808-12.341c3.18-0.178,5.873-0.329,10.026-0.561c-14.537-8.641-19.17-15.451-18.875-26.753
		c2.857,0.701,5.684,1.395,8.51,2.089c-9.034-10.947-11.758-22.195-5.369-35.727C29.131,28.885,46.447,38.963,68.9,40.262
		c0-2.598-0.119-5.012,0.02-7.411c0.61-10.51,5.579-18.345,15.029-22.943c3.91-1.902,7.797-2.846,11.587-2.846
		c5.45,0,10.698,1.95,15.53,5.802c1.921,1.531,3.602,2.2,5.348,2.2c1.2,0,2.43-0.316,3.79-0.884
		c3.249-1.357,6.543-2.607,10.594-4.213c-1.437,5.7-4.918,9.287-8.045,13.701c3.352-0.884,6.705-1.767,10.101-2.662
		C131.593,25.068,131.816,25.374,127.231,29.195z"/>
</g>
</svg>
