<svg height="495pt" viewBox="-81 0 495 495.62596" width="495pt" xmlns="http://www.w3.org/2000/svg"><path d="m325.652344 72.613281.136718-.230469c8.78125-14.890624 8.878907-33.351562.253907-48.332031s-24.636719-24.167969-41.921875-24.050781c-17.289063.117188-33.175782 9.519531-41.597656 24.613281l-209.277344 392.648438c-10.90625 1.960937-25.496094 5.984375-30.058594 13.882812-4.660156 9.511719-3.59375 20.835938 2.761719 29.3125 6.636719 10.148438 15.65625 18.527344 26.273437 24.398438 10.6875 6.542969 22.882813 10.21875 35.40625 10.671875 10.148438.855468 19.957032-3.878906 25.601563-12.359375 4.558593-7.898438.742187-22.542969-3.007813-32.96875zm-216 235.257813 37.074218 21.40625-6.640624 10.671875-10.265626 16.507812-35.199218-20.328125 9.757812-18.304687zm11.671875 62.167968-16.933594 27.199219-32.394531-18.695312 15.058594-28.253907zm-56.863281 22.601563 31.457031 18.160156-16.9375 27.199219-29.601563-17.074219zm192-360.257813c5.609374-10.078124 16.210937-16.359374 27.746093-16.433593 11.535157-.078125 22.21875 6.0625 27.964844 16.066406 5.742187 10.003906 5.65625 22.324219-.222656 32.246094l-156.800781 251.441406-38.03125-21.960937zm-177.175782 442.945313c-3.535156 5.480469-20.257812 6.535156-39.0625-4.328125-8.285156-4.558594-15.351562-11.03125-20.617187-18.882812-2.894531-3.542969-3.917969-8.257813-2.761719-12.6875 6.503906-3.601563 13.652344-5.886719 21.042969-6.726563l36.679687 21.175781c2.917969 6.785156 4.519532 14.0625 4.71875 21.449219zm0 0"/><path d="m332.164062 382.597656c.390626-35.3125-27.921874-64.257812-63.234374-64.652344-35.316407-.390624-64.261719 27.921876-64.652344 63.238282v.0625c-.214844 17.039062 6.394531 33.453125 18.351562 45.59375 11.957032 12.136718 28.273438 18.988281 45.3125 19.03125h.960938c34.789062-.300782 62.929687-28.410156 63.261718-63.199219zm-93.101562-38.742187 1.230469-.921875c1.667969-1.210938 3.414062-2.316406 5.222656-3.308594l.34375-.160156c1.71875-.910156 3.488281-1.710938 5.304687-2.402344.503907-.183594 1.007813-.375 1.519532-.550781 1.914062-.65625 3.867187-1.1875 5.847656-1.601563h.144531c-3.816406 18.890625-18.582031 33.65625-37.472656 37.472656v-.121093c.40625-2.007813.941406-3.988281 1.601563-5.925781.167968-.480469.34375-.953126.519531-1.425782.683593-1.851562 1.484375-3.65625 2.402343-5.40625.046876-.089844.078126-.183594.125-.28125.996094-1.8125 2.105469-3.5625 3.328126-5.230468.296874-.417969.601562-.800782.914062-1.234376 1.269531-1.683593 2.648438-3.289062 4.128906-4.796874 1.519532-1.472657 3.136719-2.84375 4.839844-4.105469zm-18.28125 44.757812c28.105469-3.929687 50.199219-26.027343 54.128906-54.132812 21.207032 2.867187 37.886719 19.550781 40.75 40.757812-28.109375 3.933594-50.203125 26.035157-54.128906 54.144531-21.214844-2.878906-37.894531-19.578124-40.75-40.800781zm76.597656 31.386719-1.230468.917969c-1.667969 1.214843-3.414063 2.320312-5.222657 3.3125l-.34375.160156c-1.71875.90625-3.488281 1.710937-5.304687 2.402344-.503906.183593-1.007813.375-1.519532.550781-1.914062.652344-3.867187 1.1875-5.847656 1.597656h-.144531c3.816406-18.886718 18.582031-33.652344 37.472656-37.46875v.117188c-.40625 2.007812-.941406 3.988281-1.601562 5.929687-.167969.480469-.34375.953125-.519531 1.421875-.683594 1.855469-1.484376 3.660156-2.402344 5.410156-.046875.085938-.078125.183594-.125.28125-.996094 1.8125-2.105469 3.5625-3.328125 5.230469-.296875.414063-.601563.800781-.914063 1.230469-1.269531 1.6875-2.648437 3.292969-4.125 4.800781-1.523437 1.472657-3.140625 2.84375-4.84375 4.105469zm0 0"/></svg>