<?xml version="1.0" standalone="no"?>
<!DOCTYPE svg PUBLIC "-//W3C//DTD SVG 1.1//EN" "http://www.w3.org/Graphics/SVG/1.1/DTD/svg11.dtd" >
<svg xmlns="http://www.w3.org/2000/svg" xmlns:xlink="http://www.w3.org/1999/xlink" version="1.1">
<metadata></metadata>
<defs>
<font id="pamainregular" horiz-adv-x="724" >
<font-face units-per-em="2048" ascent="1536" descent="-512" />
<missing-glyph horiz-adv-x="468" />
<glyph horiz-adv-x="0" />
<glyph unicode="&#xd;" horiz-adv-x="468" />
<glyph horiz-adv-x="0" />
<glyph horiz-adv-x="0" />
<glyph unicode=" "  horiz-adv-x="468" />
<glyph unicode="&#x09;" horiz-adv-x="468" />
<glyph unicode="&#xa0;" horiz-adv-x="468" />
<glyph unicode="!" horiz-adv-x="425" d="M168 0v242h176v-242h-176zM168 991v455h176v-455l-45 -598h-90z" />
<glyph unicode="&#x22;" horiz-adv-x="811" d="M106.5 1423.5q-0.5 16.5 4.5 32.5q4 23 29.5 50.5t78.5 27.5q31 0 57 -16q33 -20 38 -45t5 -58l-83 -526h-48l-79 502q-2 16 -2.5 32.5zM490.5 1423.5q-1.5 16.5 3.5 32.5q4 23 30.5 50.5t79.5 27.5q31 0 58 -16q33 -20 38 -45t2 -58l-81 -526h-48l-79 502 q-2 16 -3.5 32.5z" />
<glyph unicode="#" horiz-adv-x="1193" d="M0 471v158h305l33 219h-289v158h309l64 440h164l-62 -440h226l63 440h160l-60 -440h283v-158h-305l-33 -219h287v-158h-307l-68 -471h-164l68 471h-228l-65 -471h-168l70 471h-283zM469 629h227l31 219h-227z" />
<glyph unicode="$" horiz-adv-x="811" d="M59 340v80v80h168v-80v-66.5t4 -64.5q0 -8 3.5 -24.5t10.5 -35t20.5 -37t35.5 -32.5q10 -6 20.5 -11.5t30.5 -11.5v535l-86 90q-16 18 -37.5 39.5t-50.5 62.5q-49 66 -65.5 125.5t-16.5 145.5q0 39 5 78.5t17.5 76.5t35 70t59.5 57q43 29 83 37t56 10v172h117l2 -172 q10 0 30.5 -2t47 -10t55.5 -22.5t53 -38.5q51 -55 61.5 -124t10.5 -139v-110h-164v80q-2 72 -11 113.5t-38 68.5q-18 16 -47 23v-488l96 -104q43 -47 78 -89t61.5 -86t41 -95.5t14.5 -118.5q0 -72 -17.5 -124.5t-43 -89t-56.5 -60t-57 -36.5q-35 -16 -70 -22t-47 -8v-175 h-117v175q-12 2 -25.5 3t-25.5 5q-27 4 -85 30.5t-103 92.5q-23 35 -34 72.5t-15.5 76.5t-4.5 78zM266 1139q0 -43 9.5 -75t22.5 -56.5t27.5 -42t26.5 -29.5v367q-25 -10 -41 -27q-18 -16 -27.5 -37.5t-13.5 -42t-4 -36v-21.5zM469 543l2 -406q18 6 28.5 12.5t18.5 10.5 q37 27 51.5 75t14.5 89q0 14 -2 33.5t-15 48.5q-20 51 -54 88.5t-44 48.5z" />
<glyph unicode="%" horiz-adv-x="1280" d="M43 991q0 53 1 104.5t1 104.5q0 98 20.5 146.5t63.5 76.5q39 25 74 30t51 5q14 0 45 -4t66 -22t55 -44t30.5 -58t13.5 -66.5t3 -69.5q0 -49 1 -99.5t1 -99.5q0 -55 -1 -109.5t-3 -107.5q0 -39 -4 -79t-23 -74q-16 -33 -58 -63t-124 -30q-14 0 -52 3.5t-79 29.5 q-31 20 -46.5 46t-22.5 62t-9 83t-2 108q0 31 -1 62.5t-1 64.5zM180 906q0 -44 2 -89v-76q0 -8 1 -22t7.5 -27.5t20.5 -24t43 -10.5q6 0 16.5 1t20.5 6.5t19 15.5t14 29q2 12 4 50t2 79q0 39 -1 76.5t-1 76.5q0 55 1 110.5t-1 110.5q0 20 -1 41t-8.5 38.5t-21.5 28.5t-43 11 q-39 -2 -51.5 -21.5t-16.5 -33.5q-4 -16 -4 -57t-2 -89v-135v-89zM238 0l710 1446h94l-704 -1446h-100zM811 449q0 53 1 104t1 104q0 98 20.5 146.5t63.5 77.5q39 25 74 29.5t51 4.5q14 0 45 -4t66 -22t55 -44t30.5 -57.5t13.5 -66.5t3 -70q0 -49 1 -98t1 -100 q0 -55 -1 -109.5t-3 -107.5q0 -37 -4 -78t-23 -76q-16 -33 -58 -62.5t-124 -29.5q-14 0 -52 3t-79 30q-31 20 -46.5 45.5t-22.5 61.5t-9 83t-2 109q0 31 -1 62.5t-1 64.5zM948 363.5q0 -44.5 2 -87.5v-77q0 -6 1 -20.5t7.5 -29t20.5 -24.5t43 -10q6 0 16.5 1t20.5 6t19 15 t14 29q2 12 4 50t2 79q0 39 -1 77t-1 77q0 55 1 110t-1 111q0 20 -1 40.5t-8.5 38t-21.5 28.5t-43 11q-39 0 -51.5 -20t-16.5 -35q-4 -16 -4 -57t-2 -88v-135v-89.5z" />
<glyph unicode="&#x26;" horiz-adv-x="937" d="M43 315q0 18 4 49t14.5 70t30 82t49.5 86q16 23 26.5 34t21 21.5l25.5 25.5l44 44q-49 104 -71.5 178t-22.5 125q0 12 1 31.5t11 48.5q6 20 21.5 49t43 54.5t69.5 43t102 17.5q16 0 39.5 -3t56.5 -14q18 -6 45 -20t52.5 -40t43 -64.5t17.5 -94.5q0 -39 -13.5 -88 t-60.5 -114q-39 -57 -76 -94t-55 -54q41 -86 88 -165t94 -156q4 6 12.5 21t14.5 36q8 29 13 62.5t7 62.5t2 50.5v27.5h158q2 -35 0 -68q0 -12 -4 -39.5t-10.5 -62.5t-17.5 -75t-27 -79q-6 -16 -16.5 -35.5t-29.5 -52.5q4 -8 8.5 -13t14.5 -16q16 -18 35.5 -26t38 -11.5 t33 -3.5h20.5v-153q-12 0 -34.5 -1t-50.5 4t-59.5 16.5t-62.5 33.5q-16 12 -28.5 24.5l-16.5 16.5l-37 -31q-35 -27 -70.5 -42t-67.5 -22t-57.5 -9t-39.5 -2q-74 0 -134.5 24.5t-103.5 68.5t-66.5 106.5t-23.5 135.5zM215 311q0 -8 2 -29.5t8 -43.5q4 -12 14.5 -31t28 -37 t45 -31.5t64.5 -13.5q35 0 62.5 10t48 24.5t35 29t20.5 22.5q-29 37 -49.5 70.5t-43 73.5t-50 91.5t-66.5 126.5q-27 -20 -43 -38q-25 -27 -50.5 -82.5t-25.5 -141.5zM324 1026q0 -41 14 -81t53 -109l29 28q33 35 63.5 76t30.5 94q0 31 -10 51.5t-25.5 31.5t-32 15.5 t-28.5 4.5q-23 0 -42.5 -7.5t-31.5 -23.5q-16 -20 -18 -47t-2 -33z" />
<glyph unicode="'" horiz-adv-x="425" d="M106.5 1423.5q-0.5 16.5 4.5 32.5q4 23 29.5 50.5t78.5 27.5q31 0 57 -16q33 -20 38 -45t5 -58l-83 -526h-48l-79 502q-2 16 -2.5 32.5z" />
<glyph unicode="(" horiz-adv-x="598" d="M141 571q0 166 42 312.5t97.5 263.5t113 200t87.5 123l88 -77q-41 -61 -84 -134t-78.5 -168.5t-58 -219t-22.5 -285.5q0 -41 3 -119t19.5 -177.5t50 -212t97.5 -224.5q23 -39 40 -67t44 -62l-84 -74q-16 20 -33 39.5t-34 45t-37.5 58.5t-45.5 80q-23 37 -56.5 103.5 t-67.5 155.5t-57.5 200.5t-23.5 238.5z" />
<glyph unicode=")" horiz-adv-x="598" d="M18 -274q43 57 88.5 136t82 183.5t60 238.5t23.5 304q0 162 -23.5 285.5t-59 219t-78.5 168t-84 132.5l90 77q31 -43 88 -125.5t113.5 -199.5t97.5 -262.5t41 -313.5q0 -127 -24.5 -237.5t-57.5 -199.5t-68 -155.5t-55 -103.5q-51 -90 -85 -137t-67 -86z" />
<glyph unicode="*" d="M25 1151l41 135l233 -80v240h135v-240l230 70l36 -125l-223 -74l141 -194l-110 -82l-139 194l-148 -194l-106 82l143 194z" />
<glyph unicode="+" horiz-adv-x="1024" d="M66 514v164h364v366h162v-366h366v-164h-366v-369h-162v369h-364z" />
<glyph unicode="," horiz-adv-x="342" d="M84 0v242h174v-232q0 -94 -13.5 -145t-45.5 -86q-25 -27 -52.5 -39t-62.5 -21v107q31 10 47 28.5t22.5 42t6.5 50v53.5h-76z" />
<glyph unicode="-" horiz-adv-x="555" d="M43 473v160h469v-160h-469z" />
<glyph unicode="." horiz-adv-x="342" d="M84 0v242h174v-242h-174z" />
<glyph unicode="/" horiz-adv-x="598" d="M10 0l412 1446h166l-406 -1446h-172z" />
<glyph unicode="0" horiz-adv-x="768" d="M57 683v155q2 43 2 87v89v74.5t4 74.5q8 90 40 158t114 109q53 27 100.5 30.5t65.5 3.5q23 0 72 -6t104 -35q51 -29 81 -69.5t45 -90t19.5 -102.5t4.5 -104q0 -84 1 -166t1 -166q0 -66 -1 -128t-3 -126v-127q-2 -41 -5.5 -83t-14.5 -81t-31.5 -73.5t-55.5 -61.5 q-31 -23 -80 -43t-133 -20q-23 0 -79 6t-115 41q-53 31 -80 73.5t-39.5 103t-13.5 140.5t-1 182q-2 78 -2 155zM236 658.5q0 -93.5 2 -189.5v-94t4 -94q4 -35 12 -63t37 -50q29 -20 55.5 -23.5t36.5 -3.5q59 0 89 23.5t40 48.5q6 18 10 52t5 69t1 67.5v51.5v594 q-2 74 -6 119.5t-20 76.5q-10 18 -38 39t-79 21q-41 0 -67.5 -12.5t-42 -31t-21.5 -39t-8 -36.5q-8 -37 -9 -130t-1 -206v-189.5z" />
<glyph unicode="1" horiz-adv-x="768" d="M76 1135v137h49.5t46.5 4q82 8 126 46t46 124h152v-1446h-181v1135h-239z" />
<glyph unicode="2" horiz-adv-x="768" d="M70 0v174l299 506q16 29 32.5 58.5t32.5 58.5q25 45 40 80.5t24.5 70.5t12.5 73t3 89q0 6 -1 31.5t-5 50.5q-8 37 -23.5 58.5t-34 32.5t-37 14t-34.5 3q-37 0 -55.5 -11t-30.5 -23q-35 -35 -38 -81t-3 -89v-166h-166v180q0 16 1 30.5t1 28.5q0 16 3 47t14.5 68t35 73 t68.5 64q39 23 82 33t86 10q72 0 123 -21.5t83.5 -53t51 -66.5t27.5 -61q10 -25 16 -68t6 -107q0 -41 -9 -120.5t-54 -180.5q-16 -35 -34 -66.5l-38 -66.5l-297 -497h450v-156h-632z" />
<glyph unicode="3" horiz-adv-x="768" d="M61 315q0 29 1 58.5t1 60.5l164 -2q-2 -33 -1 -65.5t3 -65.5q2 -43 10.5 -75.5t43.5 -59.5q10 -8 31.5 -17.5t54.5 -9.5q8 0 38.5 4t57.5 25q25 18 36 44t15 54.5t4 57v53.5q0 23 1 44t1 44v19.5t-3 41t-10 49t-20 46.5q-25 37 -68.5 49t-84.5 12h-27.5t-29.5 -2l2 162 l21 -1q20 -1 47.5 1t57 10t50.5 27q35 31 43 81t8 89q0 66 -6 133q0 14 -4 35.5t-17.5 42t-38 34t-67.5 13.5q-12 0 -35 -3.5t-45 -25.5q-29 -29 -37 -71t-8 -115v-27.5t2 -28.5h-164q-4 57 0 117q2 47 8 92t23.5 83t49.5 67.5t81 48.5q14 4 50 12t81 8q66 0 108.5 -15 t67.5 -32q66 -43 94.5 -116.5t28.5 -217.5q0 -111 -13.5 -172t-56.5 -98q-29 -27 -57.5 -33t-40.5 -10q14 -4 37.5 -10t48.5 -21.5t47.5 -42t34.5 -69.5q6 -23 11 -61t7 -79t3 -78.5t1 -62.5q0 -16 -3 -67.5t-21 -102.5q-10 -29 -30.5 -62.5t-56.5 -62t-88 -49t-124 -20.5 q-12 0 -37 2t-56.5 9t-66.5 21.5t-67 38.5q-43 35 -67 93.5t-24 168.5z" />
<glyph unicode="4" horiz-adv-x="768" d="M43 324v198l293 924h252v-969h127v-153h-127v-324h-170v324h-375zM178 477h240l8 807z" />
<glyph unicode="5" horiz-adv-x="768" d="M57 344v39.5t2 40.5l170 -2q-2 -80 1 -130t22 -85q16 -35 52 -49.5t71 -14.5q49 0 76.5 18.5t40.5 35.5q27 39 26.5 101t1.5 159q0 31 1 62.5t1 64.5q0 53 -3 95t-9 62q-4 12 -11 27.5t-21.5 30t-37 25t-55.5 10.5q-10 0 -30.5 -3.5t-43.5 -19.5q-29 -20 -38 -53t-9 -94 h-164l23 782h559v-156h-395l-11 -360q2 4 10.5 11t18.5 13q29 18 70 28.5t76 10.5q20 0 62 -7t87 -40q31 -25 50.5 -54.5t30.5 -71.5t14 -96t3 -128q0 -61 -1 -122.5t-1 -125.5q-2 -70 -11 -131t-54 -119q-33 -43 -71 -66.5t-74.5 -34.5t-67.5 -13t-49 -2 q-100 0 -153.5 30.5t-82.5 61.5q-43 49 -57 102q-10 29 -14.5 67t-4.5 101z" />
<glyph unicode="6" horiz-adv-x="768" d="M70 463v635q2 152 41 226.5t110 109.5q37 16 76 23t80 7q115 0 176 -39t88 -84q35 -57 39 -116.5t2 -122.5l-168 2q0 55 -1 88t-13 57q-10 18 -39 37t-80 19q-49 0 -78 -18.5t-42 -44t-17 -52.5t-4 -41q-4 -49 -3 -98.5t1 -98.5v-110q12 14 28.5 31.5t40 34t56 27.5 t75.5 11q12 0 40 -3t61 -17q47 -18 83.5 -55t53.5 -85q16 -47 20 -122.5t4 -186.5q0 -94 -6 -192q-4 -66 -17 -120t-61 -99q-33 -33 -69.5 -50.5t-70.5 -24.5t-60.5 -8t-38.5 -1t-37 1t-54.5 7t-61 20.5t-60.5 38.5q-35 31 -54.5 69t-28.5 86t-10 111.5t-1 147.5zM240 310.5 q0 -13.5 2 -32t7 -39t13 -36.5q12 -23 30.5 -36t37 -19.5t34 -7.5t21.5 -1q57 0 83 23.5t36 46.5q14 31 17 97.5t3 152.5v83t-2 85q-2 29 -5 58.5t-19 51.5q-18 31 -51 44.5t-68 13.5q-10 0 -25.5 -2t-34 -10.5t-35 -24t-26.5 -41.5q-12 -35 -15 -98.5t-3 -149.5v-143v-15.5 z" />
<glyph unicode="7" horiz-adv-x="768" d="M68 1286v160h630v-133l-20 -40t-21 -40q-20 -43 -46.5 -113.5t-59.5 -177.5q-39 -127 -62.5 -240.5t-38 -225t-21.5 -227.5t-9 -249h-197q2 68 8.5 163t22.5 214t48 261t87 302q29 86 61.5 172t67.5 174h-450z" />
<glyph unicode="8" horiz-adv-x="768" d="M66 342v125t5 99t17 78t35 63q29 35 61.5 47t46.5 16q-4 0 -21 4t-32 10q-27 12 -52.5 46t-35.5 100q-4 33 -6 75t-2 111q0 43 4 87t17.5 84t38 75t65.5 59q41 27 87 35t93 8q102 0 162.5 -32.5t87.5 -67.5q37 -47 46 -110.5t9 -118.5q0 -47 -1 -94.5t-7 -94.5 q0 -10 -3 -31.5t-13.5 -46t-31 -48t-54.5 -38.5q-14 -6 -22.5 -7t-22.5 -5q16 -4 44.5 -14.5t57.5 -40.5q39 -41 51 -98.5t12 -161.5v-88t-2 -66t-6 -53.5t-10 -50.5q-16 -70 -52 -113t-102 -72q-53 -23 -94 -26.5t-61 -3.5q-23 0 -72 6t-104 37q-33 18 -57.5 43.5t-42 62.5 t-25.5 88t-8 123zM242 342.5q0 -18.5 2 -37.5q0 -14 2 -41.5t15 -54.5t42 -46.5t80 -19.5q12 0 29.5 2t37 11.5t37 28t27.5 48.5q8 27 10 70.5t2 104.5v49t-2 49q0 12 -2 39.5t-16 56.5t-43 49.5t-80 20.5q-49 0 -74.5 -17.5t-36.5 -33.5q-25 -35 -26.5 -72t-1.5 -78 q-2 -23 -2 -46.5v-45.5v-36.5zM248 1083q0 -23 1 -46t1 -46q4 -29 8 -53.5t23 -46.5q14 -16 38.5 -30.5t71.5 -14.5q31 0 53.5 10t36 23.5t20.5 29t11 27.5q4 20 6 63.5t4 98.5v15v34.5t-2 42t-6 39.5q-4 12 -11 28.5t-21.5 31t-38 23.5t-56.5 9q-10 0 -36.5 -3t-51.5 -24 q-31 -27 -41 -78t-10 -133z" />
<glyph unicode="9" horiz-adv-x="768" d="M59 885q0 125 7 254q4 86 21 153.5t91 118.5q31 20 61.5 31.5t58.5 15.5t48.5 5t32.5 1q94 0 143 -23.5t80 -54.5q10 -8 26.5 -28.5t30.5 -50.5q16 -33 23.5 -67t8.5 -75t0 -94t-1 -123v-234.5t-2 -234.5v-157q0 -12 -1 -40t-8 -64t-23.5 -75t-47.5 -73 q-29 -35 -81 -61.5t-152 -26.5q-61 0 -107.5 14t-79 35.5t-54 47t-32.5 48.5q-12 23 -19 56.5t-7 92.5q0 29 1 53.5t1 51.5h164q0 -29 -1 -55.5t1 -55.5q2 -31 8 -54t31 -44q14 -12 35.5 -21.5t62.5 -9.5q10 0 34.5 3t49.5 24q18 14 28.5 32.5t15.5 42t7 55.5t4 73 q0 23 1 43t1 43q0 41 -1 83t-1 83q-12 -12 -30.5 -27.5t-43 -29t-58.5 -24t-77 -10.5q-86 2 -133 36t-67 63q-27 39 -38.5 97t-11.5 157zM233 850q2 -10 3.5 -33.5t13.5 -48.5q8 -23 37.5 -51.5t91.5 -28.5q16 0 47 6t57 37q16 18 21.5 33.5t9.5 26.5q4 20 5 43.5t1 27.5 v275q0 39 -8 73.5t-39 63.5q-25 23 -52.5 28t-39.5 5q-61 0 -90 -29t-39 -51q-8 -16 -11 -30.5t-4 -33t-1 -43v-57.5q0 -23 -1.5 -46.5t-1.5 -45.5v-121z" />
<glyph unicode=":" horiz-adv-x="425" d="M168 0v242h176v-242h-176zM168 735v242h176v-242h-176z" />
<glyph unicode=";" horiz-adv-x="425" d="M168 0v242h176v-232v-29.5t-2 -29.5q0 -10 -2 -33.5t-10 -54.5t-26.5 -61.5t-51.5 -51.5q-14 -10 -32.5 -17t-51.5 -14l2 105q29 8 49 33q27 31 27 68.5v74.5h-78zM168 745v232h176v-232h-176z" />
<glyph unicode="&#x3c;" horiz-adv-x="1024" d="M0 635v176l1024 496v-179l-821 -405l821 -406v-178z" />
<glyph unicode="=" horiz-adv-x="1024" d="M0 328v159h1024v-159h-1024zM0 698v160h1024v-160h-1024z" />
<glyph unicode="&#x3e;" horiz-adv-x="1024" d="M0 139v178l821 406l-821 405v179l1024 -496v-176z" />
<glyph unicode="?" horiz-adv-x="811" d="M117 954v205q2 43 7 88t26 86q18 37 48.5 62.5t67.5 42t77 23.5t77 7q18 0 59 -5t86 -23.5t88 -56t66 -103.5q12 -37 15 -71.5t3 -73.5v-62.5t-8 -99.5q-6 -37 -15 -64.5t-26.5 -56.5t-41 -65.5t-56.5 -90.5q-10 -16 -20.5 -33.5t-20.5 -35.5q-23 -49 -26 -86t-3 -60v-46 t2 -48h-135v80v82t9.5 71.5t29.5 82t57 114.5q14 25 28.5 49.5t25.5 51.5q8 18 13 34.5t7 35t3 42t1 57.5q0 16 1 33t1 35q0 4 -1 24.5t-7 37.5q-10 27 -43 57.5t-98 30.5q-10 0 -32 -2.5t-44 -16.5q-45 -23 -51 -63.5t-11 -83.5v-185h-159zM367 0v242h176v-242h-176z" />
<glyph unicode="@" horiz-adv-x="1835" d="M141 487q0 113 22.5 209.5t56.5 175t71 137t67 97.5q39 49 103.5 110.5t156 115.5t207 90t260.5 36q84 0 151 -13t119 -34.5t92 -49.5t69 -54q33 -29 64.5 -69t57 -93t41 -122t15.5 -157q0 -72 -11.5 -138t-28 -121.5t-32.5 -97.5t-29 -65q-10 -20 -45 -76.5t-88 -109.5 q-12 -10 -33.5 -29.5t-52.5 -38t-69.5 -33t-83.5 -14.5q-8 0 -29 2t-44.5 11.5t-47 29t-37.5 54.5q-10 25 -11 49t-1 28q-12 -16 -38 -45.5t-63 -57.5t-86 -48.5t-108 -20.5q-18 0 -61.5 8.5t-90.5 43.5q-74 55 -94.5 135t-20.5 153q0 20 2.5 62.5t16.5 99.5 q14 55 39.5 112.5t60.5 108t80 92t98 68.5q16 8 51 20.5t87 12.5q12 0 32.5 -2t47 -11.5t55 -28t53.5 -50.5q16 -18 25.5 -39t19.5 -43l31 127h139l-67 -307q-8 -37 -17.5 -83t-19 -94.5t-15.5 -94.5t-6 -83q0 -47 19.5 -66.5t42.5 -19.5q43 0 100 49.5t104 135.5 q14 27 33 66.5t35 93t27.5 117t11.5 134.5q0 119 -37 210t-104.5 152.5t-160.5 92.5t-206 31q-47 0 -145.5 -16.5t-216.5 -82.5q-20 -10 -52 -30.5t-69 -50t-77 -69.5t-77 -91q-25 -33 -54.5 -84.5t-56 -119t-45 -150.5t-18.5 -179q0 -23 3 -69t18.5 -104t47 -122.5 t91.5 -126.5q68 -72 148.5 -110.5t154.5 -57t131 -22.5t80 -4q39 0 96 5t128 24.5t154 56.5t171 100q14 10 29.5 22.5t29.5 22.5q23 16 40 33.5t34 34.5l65 -84q-16 -18 -34.5 -36t-36.5 -34q-37 -31 -100.5 -76t-149.5 -85t-194.5 -68.5t-233.5 -28.5q-29 0 -92.5 4 t-141.5 27q-72 18 -167 60t-181 124t-145.5 210t-59.5 316zM651 487q0 -29 4 -63.5t21 -63.5q10 -20 23.5 -33.5t23.5 -19.5q29 -23 52.5 -25.5t35.5 -2.5q29 0 79 18t101 80q16 20 37 52t38 75t28.5 95.5t11.5 113.5v33.5t-8 50.5q-4 12 -14.5 34.5t-29 44t-47 37 t-67.5 15.5q-29 0 -80 -16.5t-98 -80.5q-37 -49 -59.5 -103t-34 -102t-14.5 -85t-3 -54z" />
<glyph unicode="A" horiz-adv-x="811" d="M0 0l311 1446h181l319 -1446h-188l-52 279h-335l-50 -279h-186zM266 434h275l-142 744z" />
<glyph unicode="B" horiz-adv-x="894" d="M102 0v1446h359q109 -4 165 -26.5t93 -61.5q31 -35 48 -73t24.5 -73.5t8.5 -63.5t1 -42v-37t-6.5 -60.5t-18.5 -72.5t-37 -72q-27 -35 -50 -49t-40 -20q-23 -10 -40 -12.5t-40 -2.5q16 0 55.5 -5t80.5 -34q53 -35 85.5 -102.5t32.5 -194.5q0 -68 -4 -119t-14 -89.5 t-26.5 -68.5t-39.5 -56q-31 -37 -61.5 -56.5t-46.5 -25.5q-29 -10 -54.5 -16.5t-57.5 -8.5t-71.5 -3t-95.5 -1h-250zM283 158h104h47q20 0 41 1t37 5q63 14 98 64.5t35 168.5v25.5t-2 56.5t-8 69t-21 62q-4 8 -15 23.5t-34 32.5q-18 12 -34.5 18t-37 9t-48 3h-64.5h-98v-538 zM283 852h123h44t44 4q57 10 94 56t37 157v22.5t-5.5 48t-16.5 57.5t-34 50q-37 31 -89 34t-93 3h-104v-432z" />
<glyph unicode="C" horiz-adv-x="854" d="M90 508v231v122t2 122q0 41 2 90t9.5 98.5t21.5 95.5t43 83q25 33 57.5 55t70.5 36.5t79 20.5t78 6q98 0 155.5 -31.5t85.5 -60.5q41 -43 58.5 -107.5t17.5 -183.5v-47t-2 -47h-166v78t-2 80q-2 45 -10 78t-45 61q-12 10 -35 19.5t-57 9.5q-16 0 -41 -3t-48.5 -16.5 t-44 -39t-30.5 -68.5q-14 -61 -17.5 -186t-3.5 -289q0 -162 6 -324q2 -43 4.5 -95t24.5 -93q14 -27 35.5 -41.5t43 -21.5t40 -8t27.5 -1q12 0 39.5 4t56.5 27q25 18 38 48t19 63.5t7 66.5t1 61v107h168v-77t-2 -77q0 -10 -1 -49t-7 -76q-10 -57 -28.5 -96t-42 -64.5t-49 -41 t-50.5 -23.5q-51 -18 -97 -21t-63 -3q-61 0 -114.5 12t-104.5 51q-10 10 -29.5 27.5t-37.5 46.5q-20 31 -33 67.5t-19 83.5t-8 105.5t-2 134.5z" />
<glyph unicode="D" horiz-adv-x="894" d="M102 0v1446h273q66 0 131 -2t129 -31q51 -23 82 -55.5t47 -66.5t23.5 -64.5t9.5 -46.5q6 -47 8 -150.5t2 -232.5q0 -80 -1 -161t-3 -161q0 -80 -6 -160q-8 -86 -40 -159.5t-112 -116.5q-66 -35 -135.5 -37t-136.5 -2h-271zM283 160h118q35 2 72 4t72 18q23 12 42 34 t29 75q4 20 6.5 58t4.5 87t2 107.5v120.5v178t-2 178q-4 86 -11.5 135t-40.5 82q-39 35 -96 39t-104 4h-92v-1120z" />
<glyph unicode="E" horiz-adv-x="811" d="M102 0v1446h637v-162h-456v-430h399v-164h-399v-528h471v-162h-652z" />
<glyph unicode="F" horiz-adv-x="768" d="M102 0v1446h637v-162h-454v-426h395v-158h-395v-700h-183z" />
<glyph unicode="G" horiz-adv-x="894" d="M90 719q0 154 6 307v27.5t2 59.5t7.5 72t13.5 66q25 82 72 126t98 64.5t98 23.5t72 3q88 0 142 -16t87 -39q18 -12 29.5 -23.5t17.5 -19.5q35 -41 49 -90q10 -33 11.5 -69.5t1.5 -104.5v-102h-170v71q0 18 -1 36.5t-1 37.5q0 23 -4.5 51.5t-20.5 55t-48 44t-89 17.5 q-14 0 -46 -4t-67 -27q-25 -16 -37 -33q-4 -6 -11 -20t-11 -37q-10 -51 -13.5 -159.5t-7.5 -250.5v-174q0 -121 6 -243q4 -61 6.5 -94t14.5 -62q23 -45 60.5 -65.5t84.5 -20.5q16 0 54.5 6t76.5 41q8 6 22.5 22.5t25.5 41.5q10 29 14 81t6 125v148h-213v156h381v-748h-152 v100q-16 -16 -28.5 -27.5t-28.5 -25.5q-23 -16 -76 -43q-48 -24 -116 -24h-15q-25 0 -62.5 6t-77.5 26.5t-77 59.5t-57 106q-10 31 -14.5 60.5t-6.5 64.5t-3 80t-3 106q0 57 -1 113.5t-1 116.5z" />
<glyph unicode="H" horiz-adv-x="894" d="M102 0v1446h181v-615h329v615h181v-1446h-181v674h-329v-674h-181z" />
<glyph unicode="I" horiz-adv-x="382" d="M102 0v1446h179v-1446h-179z" />
<glyph unicode="J" horiz-adv-x="811" d="M39 357v79l174 -2v-129q0 -8 1 -37.5t17 -58.5q12 -23 42 -49.5t94 -26.5q27 0 55.5 6t53 26.5t40.5 55.5t19 94q1 25 1 49v25q-1 37 -1 74v983h180v-973v-51.5t-2 -50.5q0 -37 -1 -74t-7.5 -72t-19.5 -67.5t-40 -65.5q-16 -20 -40.5 -40.5t-58.5 -37t-80 -27t-108 -10.5 q-12 0 -34.5 1.5t-52 7.5t-61.5 19t-63 38q-27 23 -44 44.5t-21 31.5q-18 33 -27.5 72.5t-12.5 81.5t-3 84z" />
<glyph unicode="K" horiz-adv-x="854" d="M102 0v1446h179v-623l372 623h201l-342 -545l342 -901h-201l-256 739l-116 -174v-565h-179z" />
<glyph unicode="L" d="M102 0v1446h185v-1284h424v-162h-609z" />
<glyph unicode="M" horiz-adv-x="1150" d="M102 0v1446h271l202 -1290l199 1290h275v-1446h-166l24 1309l-215 -1309h-227l-215 1309l29 -1309h-177z" />
<glyph unicode="N" horiz-adv-x="894" d="M102 0v1446h248l293 -1266l-25 1266h175v-1446h-254l-283 1253l25 -1253h-179z" />
<glyph unicode="O" horiz-adv-x="894" d="M90 645q0 98 1 195.5t3 195.5q4 125 21.5 194.5t56.5 119.5q33 43 101.5 80.5t191.5 37.5q16 0 54 -3t82 -18t88 -47t73 -91q16 -31 23.5 -63t11.5 -66q4 -39 6 -97.5t3 -122t1 -122v-95.5q-2 -66 -4 -128t-4 -128q0 -33 -1 -64.5t-3 -64.5q-4 -39 -9.5 -80.5 t-16.5 -81.5t-31.5 -77t-51.5 -64q-35 -31 -93 -53t-157 -22q-16 0 -49 1t-74 11t-83 33.5t-74 70.5q-10 12 -21.5 35t-21.5 57q-16 59 -19.5 179t-3.5 278zM274 653.5q0 -104.5 2 -209.5q0 -78 2.5 -127t12.5 -84q6 -16 15 -34.5t27.5 -35t45.5 -26.5t67 -10q45 0 84 20.5 t58 63.5q23 47 25.5 133t7.5 207q0 47 1 95t1 97v151t-2 150q0 43 -3.5 101.5t-25.5 99.5q-12 23 -46 47.5t-93 24.5q-16 0 -46 -5t-61 -30q-27 -20 -41 -49t-20 -68t-8.5 -89t-2.5 -113v-101v-208.5z" />
<glyph unicode="P" horiz-adv-x="854" d="M102 0v1446h375q53 -2 91 -10.5t67 -20.5t49.5 -28.5t36.5 -36.5q31 -39 47 -80t22.5 -85t6.5 -88v-89q0 -4 1 -41v-10q0 -35 -6 -77q-6 -50 -22 -103.5t-49 -92.5q-25 -31 -59.5 -49.5t-73.5 -27.5t-78 -11t-76 -2h-151v-594h-181zM283 752h120q31 0 61 1t55.5 8 t48 24.5t36.5 50.5q12 27 14.5 63.5t2.5 97.5v70t-5 70q-6 53 -27.5 82.5t-54 43t-73.5 16.5t-84 3h-94v-530z" />
<glyph unicode="Q" horiz-adv-x="894" d="M90 594v208.5t4 209.5q0 72 8.5 154.5t47.5 148.5q16 29 40.5 56.5t62.5 49t90 34.5t124 13q80 0 134 -19t90 -48t56.5 -63.5t30.5 -67.5q23 -66 28 -156t5 -237q0 -109 -3 -216.5t-7 -218.5q-2 -43 -4 -87t-8.5 -87t-20.5 -85t-39 -79t-46 -54t-38 -25l178 -152 l-100 -104l-219 213q-16 -2 -45 -4h-14q-24 0 -56 4q-125 10 -197.5 71.5t-89.5 190.5q-12 100 -12 350zM273 563v-33q0 -65 3 -131q0 -47 3.5 -103t25.5 -97q23 -39 63 -55.5t81 -16.5q66 0 97.5 26.5t43.5 49.5q23 51 25.5 137t5.5 209q2 49 3 97t3 97q1 46 1 91t-1 90 q-2 88 -4 178q0 14 -2.5 49t-17.5 72t-50 65.5t-100 28.5q-41 0 -76 -15.5t-60 -52.5q-10 -16 -19 -38.5t-15 -63.5q-8 -66 -8.5 -166t-0.5 -252q0 -84 -1 -166z" />
<glyph unicode="R" horiz-adv-x="894" d="M102 0v1446h316q70 -2 140.5 -11.5t129.5 -56.5q45 -37 68.5 -87t33 -98t10.5 -85t1 -47q0 -96 -15 -180q-10 -61 -26.5 -95t-32.5 -57q-35 -41 -69.5 -55.5t-51.5 -18.5l258 -655h-188l-246 635h-149v-635h-179zM281 776h94q59 0 94 3t63 14q33 14 51.5 42.5t26.5 62.5 t9.5 70t1.5 64q0 37 -2.5 78t-14.5 76q-14 39 -39.5 59.5t-58.5 28.5t-69 8h-68h-88v-506z" />
<glyph unicode="S" horiz-adv-x="811" d="M55 340v160h170v-72q0 -74 2 -115t15 -75q6 -14 17 -33t29.5 -34t47.5 -26.5t67 -11.5q53 0 98.5 23.5t67.5 70.5q12 27 14.5 51.5t2.5 34.5q0 45 -10.5 80t-28 63.5t-42 55.5t-54.5 57l-195 201q-43 43 -73.5 82t-51 80t-31 89t-10.5 112q0 16 2 54t14 83q10 35 32 70.5 t60 64.5t93 46t135 17q18 0 59 -3t87 -21.5t87 -56t60 -107.5q10 -37 11 -83t1 -85v-92h-160l-2 76v43q-2 49 -14 93t-63 68q-25 10 -45.5 12.5t-30.5 2.5q-33 0 -59.5 -8.5t-49.5 -30.5q-12 -10 -18 -22.5t-10 -16.5q-6 -14 -10.5 -37.5t-4.5 -58.5q0 -10 1 -34t11 -50 q16 -51 55.5 -94t76.5 -80l165 -174l62 -68q12 -14 23.5 -27.5t21.5 -27.5q27 -35 53.5 -94.5t26.5 -163.5q0 -66 -12.5 -113t-31 -81t-42 -56.5t-45.5 -36.5q-35 -23 -69 -35t-64.5 -18t-55 -7t-37.5 -1q-18 0 -62 4t-94 22.5t-97.5 58t-71.5 113.5q-14 41 -17.5 81 t-5.5 81z" />
<glyph unicode="T" horiz-adv-x="768" d="M20 1284v162h728v-162h-275v-1284h-178v1284h-275z" />
<glyph unicode="U" horiz-adv-x="894" d="M96 459v987h183v-959q0 -92 1 -157.5t15 -104.5q16 -41 44 -58t42 -22q14 -4 28.5 -7t43.5 -3q41 0 72.5 9.5t58.5 43.5q4 6 12 18.5t12 33.5q4 23 6 70.5t2 107.5v1028h183v-1079q0 -51 -4 -100.5t-18.5 -94.5t-43 -83t-80.5 -64q-33 -18 -64.5 -27.5t-60 -13.5t-50 -4 h-34.5q-66 0 -139.5 17t-124.5 66q-10 10 -28.5 35t-30.5 64q-10 29 -15.5 61.5t-7.5 60t-1 49t1 27.5v49.5t-2 49.5z" />
<glyph unicode="V" horiz-adv-x="768" d="M0 1446h184l201 -1268l201 1268h182l-268 -1446h-230z" />
<glyph unicode="W" horiz-adv-x="1280" d="M0 1446h178l178 -1268l170 1268h232l166 -1268l180 1268h176l-244 -1446h-237l-158 1198l-164 -1198h-241z" />
<glyph unicode="X" horiz-adv-x="811" d="M0 0l276 788l-258 658h199l174 -555l162 555h192l-237 -658l303 -788h-195l-221 627l-207 -627h-188z" />
<glyph unicode="Y" horiz-adv-x="811" d="M0 1446h190l216 -723l215 723h190l-317 -877v-569h-187v569z" />
<glyph unicode="Z" horiz-adv-x="768" d="M45 0v147l475 1137h-407v162h610v-137l-483 -1149h483v-160h-678z" />
<glyph unicode="[" horiz-adv-x="641" d="M199 -350v1820h401v-129h-229v-1560h229v-131h-401z" />
<glyph unicode="\" d="M53 1446h164l455 -1446h-164z" />
<glyph unicode="]" horiz-adv-x="641" d="M39 -219h231v1560h-231v129h403v-1820h-403v131z" />
<glyph unicode="^" horiz-adv-x="1492" d="M291 688l385 758h158l368 -758h-198l-254 533l-263 -533h-196z" />
<glyph unicode="_" horiz-adv-x="1024" d="M-20 -281h1064v-161h-1064v161z" />
<glyph unicode="`" horiz-adv-x="468" d="M-121 1374h223l109 -219h-131z" />
<glyph unicode="a" d="M39 248q0 66 17.5 118t64.5 99q35 37 79 63.5t122 81.5q59 41 91.5 71t57.5 52v35q0 14 -2 37.5t-13.5 47.5t-37 41t-72.5 17q-49 0 -74.5 -17t-36 -40t-11.5 -48.5t-1 -39.5q0 -20 1 -38.5t3 -39.5l-149 2v43.5t2 42.5q2 53 7 95t44 85q45 53 105.5 69.5t125.5 16.5 q59 0 111.5 -14t95.5 -59q25 -27 36 -50.5t16 -35.5q10 -31 11 -70t1 -104v-492q0 -66 3 -112t15 -70q8 -14 17.5 -22.5t13.5 -12.5h-201v123q-8 -18 -22.5 -42t-39 -46.5t-61 -37.5t-90.5 -15q-16 0 -50 5t-73 27q-66 41 -86 101.5t-20 132.5zM207 254q0 -6 1 -30.5 t11 -51.5t32.5 -48.5t67.5 -21.5q47 2 75 23.5t38 36.5q29 37 34 81t5 89v252q-14 -14 -28.5 -27.5t-28.5 -26.5q-12 -10 -24.5 -18t-27.5 -18q-45 -35 -66.5 -51.5t-39.5 -39.5q-16 -20 -32.5 -55t-16.5 -94z" />
<glyph unicode="b" horiz-adv-x="768" d="M90 0v1446h162v-504q6 6 13 16.5t24 22.5q18 16 58 38.5t106 22.5q49 0 84.5 -13t61.5 -33.5t41 -42t22 -38.5q12 -29 18 -68.5t9 -82.5t4 -84t1 -70v-152.5t-4 -152.5t-10 -122t-23 -77q-6 -16 -21 -36.5t-40 -41t-60.5 -33.5t-84.5 -13q-45 0 -80 12t-59.5 29.5t-41 36 t-26.5 30.5v-90h-154zM252 399q0 -80 3 -132t19 -85q18 -35 57.5 -54t74.5 -19q14 0 30.5 3t31.5 13t28.5 28.5t19.5 51.5q8 37 10 112.5t2 174.5v86t-2 86q-2 31 -2 61.5t-4 58.5q-2 8 -6 32t-16.5 47.5t-36 42t-64.5 18.5q-10 0 -26.5 -3t-35 -12.5t-35.5 -27t-30 -43.5 q-16 -39 -18 -81q-1 -21 -1 -52t1 -72v-234z" />
<glyph unicode="c" d="M74 467q0 72 1 141.5t7 141.5q0 6 2 32.5t10 60.5t24.5 69.5t43.5 62.5q41 41 97 54t112 13q72 0 136 -19t103 -83q16 -27 25.5 -53.5t13.5 -59t5 -74.5t1 -100l-155 2v65t-4 66q0 4 -2 33t-19 51q-23 37 -55.5 43.5t-48.5 6.5q-37 0 -59.5 -11.5t-35 -28t-18.5 -35 t-8 -30.5q-6 -37 -9 -119t-3 -186q0 -53 1 -107.5t3 -107.5v-15.5t1 -33t5 -40t12 -36.5q12 -23 26.5 -35t30 -17t29.5 -6t23 -1q16 0 35.5 4t38 17t31.5 37t18 62q2 12 5 57.5t3 92.5h155q0 -125 -11 -193.5t-54 -119.5q-47 -53 -106.5 -69.5t-127.5 -16.5 q-111 0 -167 39.5t-78 84.5q-23 53 -30 142.5t-7 218.5z" />
<glyph unicode="d" horiz-adv-x="768" d="M74 504q0 55 1 110.5t3 110.5q4 68 11 107.5t20 68.5q29 67 84 105q52 37 117 36h7q20 0 64.5 -8t89.5 -45q18 -16 26.5 -26.5t14.5 -18.5v502h166v-1446h-154v106q-12 -20 -20 -29t-15 -18q-25 -27 -50 -42t-49.5 -23t-46 -10t-34.5 -2q-68 0 -109.5 25.5t-65 59 t-34 68.5t-12.5 55q-4 33 -9 122t-5 192zM237 424v-24q0 -47 3 -95q2 -47 5 -71.5t11 -45.5q4 -8 12 -21t22.5 -25.5t34 -21.5t48.5 -9q16 0 28.5 3t16.5 3q23 8 44 27.5t34 66.5q12 41 15 115.5t5 183.5v98t-4 99q-2 37 -7 78.5t-28 76.5t-55.5 44t-48.5 9q-10 0 -27.5 -3 t-38.5 -15q-27 -16 -40 -43t-18 -56.5t-6 -60t-3 -55.5q0 -35 -1 -71t-1 -70q0 -59 -1 -117z" />
<glyph unicode="e" d="M74 509v95q0 45 1 88t7 88q8 88 30.5 131t57.5 72q27 23 55.5 34t54 16t46 6t32.5 1q55 0 103.5 -10t93.5 -45q10 -8 27.5 -25.5t33.5 -46.5q14 -31 21.5 -66.5t10.5 -72.5t3 -73.5v-67.5v-152l-411 -2q-2 -45 -2 -89.5t2 -88.5q2 -37 4 -58.5t6 -37.5q8 -33 24.5 -50.5 t34 -26.5t34.5 -11t30 -2q12 0 32.5 2t43.5 20q31 23 41 65q8 35 8 92v23h153v-29q0 -50 -5 -98q-7 -61 -54 -116q-27 -35 -78 -63.5t-147 -28.5q-86 0 -150.5 29.5t-105.5 107.5q-14 29 -21.5 56.5t-10.5 60t-3 75.5v103q-2 47 -2 95zM240 612h258v43v59.5t-2 59.5 q-4 59 -32 100t-95 41q-78 0 -109 -65q-16 -35 -18 -78t-2 -117v-43z" />
<glyph unicode="f" horiz-adv-x="468" d="M10 901v123h121v111q0 55 4 117.5t37 111.5q20 33 66.5 60.5t134.5 27.5q35 0 52 -3t34 -9v-142q-10 4 -25.5 8.5t-40.5 4.5q-29 0 -41 -5.5t-22 -15.5q-29 -23 -33 -60.5t-4 -103.5v-102h166v-123h-166v-901h-162v901h-121z" />
<glyph unicode="g" horiz-adv-x="768" d="M72 565v55.5t2 55.5q2 63 9 134t42 130q31 53 86 77.5t117 24.5q45 0 77.5 -11t56 -27.5t39 -35t25.5 -34.5v90h152v-973q0 -29 1 -55.5t-1 -54.5q-4 -111 -38 -161t-81 -77q-61 -35 -117.5 -41t-81.5 -6q-12 0 -33.5 1t-49 7t-57.5 19.5t-58 37.5q-10 10 -27.5 28 t-32.5 50q-12 29 -16 57.5t-4 61.5h151q0 -4 1.5 -27.5t11.5 -44.5q10 -18 39.5 -38.5t83.5 -20.5q10 0 36.5 3t53.5 20q45 31 50 82t5 96v118l-18 -24q-10 -12 -25.5 -26.5t-39 -29t-54.5 -23.5t-70 -9q-12 0 -33.5 2t-47 11t-53.5 27.5t-48 49.5q-20 29 -30.5 63.5 t-15.5 71.5t-5 74v69q0 51 -1 101.5t-1 101.5zM240 357.5q0 -48.5 4 -97.5q0 -6 1 -20.5t6 -30.5t14 -33.5t28 -32.5q10 -6 28.5 -15t49.5 -9t52 9t36.5 22.5t24 26.5t12.5 24q10 25 15 55.5t6 63t1 65.5v57v58q0 49 -1 98t-3 100q0 27 -2 52q-2 23 -4 45t-8 39 q-14 43 -47 68.5t-80 25.5q-27 0 -44.5 -9.5t-25.5 -13.5q-45 -35 -54 -108.5t-9 -184.5v-159v-95.5z" />
<glyph unicode="h" horiz-adv-x="768" d="M90 0v1446h162v-514q14 16 45 51t90 51q4 0 27.5 4t44.5 4q16 0 51 -5t74 -31q37 -25 56 -61t27.5 -76t9.5 -83t1 -81v-705h-162v616v74t-2 74q-4 49 -14.5 75.5t-26.5 43.5q-30 30 -81 30h-3q-55 0 -90 -34q-37 -41 -41 -101.5t-6 -163.5v-614h-162z" />
<glyph unicode="i" horiz-adv-x="342" d="M90 0v1024h162v-1024h-162zM90 1204v211h162v-211h-162z" />
<glyph unicode="j" horiz-adv-x="342" d="M-96 -342l2 135q29 0 74 -1h4q42 0 69 20q10 6 19.5 20t13.5 43q2 16 3 70.5t1 113.5v965h162v-954v-82t-2 -82q0 -25 -3 -51.5t-9 -49.5q-10 -35 -27.5 -62.5t-48.5 -47t-77 -29.5t-114 -10q-16 0 -33.5 1t-33.5 1zM90 1202v213h162v-213h-162z" />
<glyph unicode="k" d="M90 0v1446h162v-887l303 465h188l-276 -397l262 -627h-174l-199 475l-104 -143v-332h-162z" />
<glyph unicode="l" horiz-adv-x="342" d="M88 0v1446h166v-1446h-166z" />
<glyph unicode="m" horiz-adv-x="1193" d="M90 0v1024h154v-100q4 6 16 21.5t29 31.5q20 16 62 40.5t112 24.5q53 0 98 -19t78 -60q6 -6 11 -15.5t16 -23.5q2 4 15 20.5t28 30.5q18 18 59 42.5t109 24.5q16 0 53 -5t76 -31q68 -47 84 -115t16 -143v-748h-168v672q0 63 -2 104t-14 70q-23 47 -57 58t-54 11 q-33 0 -52.5 -10t-29.5 -18q-20 -20 -30.5 -47t-14.5 -56.5t-4 -58.5v-53v-672h-166v672q0 70 -2 114.5t-18 73.5q-25 39 -60 48.5t-49 6.5q-12 0 -37.5 -4t-50.5 -28q-31 -33 -36 -82t-7 -133v-668h-164z" />
<glyph unicode="n" horiz-adv-x="768" d="M90 0v1024h156v-94q10 10 17 20.5t18 20.5q23 18 67.5 44.5t118.5 26.5q53 0 100 -20.5t76 -67.5q25 -41 31 -91q4 -38 4 -99v-43v-721h-166v750q0 8 -1 35.5t-11.5 55t-35 50t-73.5 22.5q-31 0 -52.5 -9t-35.5 -23.5t-22.5 -28.5t-12.5 -25q-12 -31 -12 -65.5t-2 -99.5 v-662h-164z" />
<glyph unicode="o" d="M74 330v133v134.5t4 131.5q2 59 15 125t59 115q29 29 80 51t139 22q104 0 160.5 -37.5t83 -89t31.5 -104.5t5 -84q1 -56 1 -112.5t-1 -112.5q0 -49 -1 -98.5t-3 -98.5q-4 -47 -5 -69.5t-5 -45.5q-6 -37 -21.5 -73.5t-46 -66.5t-81 -49t-130.5 -19q-72 0 -137 23.5 t-104 88.5q-31 53 -36 114.5t-7 121.5zM246 559q0 -61 1 -123.5t1 -124.5q0 -45 2 -77.5t8 -51.5q23 -71 98 -71h2q53 0 78 28.5t35 77.5q6 35 8 112t2 175v112.5t-2 112.5q0 27 -3 58.5t-14 59t-32.5 45t-60.5 17.5q-33 0 -53.5 -12t-33 -27.5t-18.5 -31t-8 -25.5 q-8 -33 -9 -99.5t-1 -154.5z" />
<glyph unicode="p" horiz-adv-x="768" d="M90 -326v1350h162l2 -98q10 14 25.5 33.5t40 38t59.5 31.5t82 13q20 0 58 -6t79 -39q29 -23 45 -48t25.5 -48.5t12.5 -43l5 -32.5q4 -37 6 -94t2 -141q0 -141 -6 -283q-4 -80 -12 -128t-25 -83q-8 -16 -23.5 -35.5t-40 -37t-58 -29.5t-78.5 -12q-23 0 -68 9t-88 50 q-16 16 -24.5 26.5t-12.5 18.5v-412h-168zM260 409.5q0 -51.5 4 -102.5q0 -4 1 -18.5t4 -35t8.5 -42t15.5 -39.5q35 -68 108 -68q29 0 47.5 10.5t31 24t18.5 27.5t8 22q8 29 10 78t4 119q2 37 3 75t1 75q0 41 -1 82.5t-1 82.5q-2 14 -2 27.5v28.5q-2 29 -9 56.5t-20.5 50 t-37 35.5t-56.5 13q-53 0 -81.5 -32.5t-41.5 -79.5q-12 -45 -13 -114t-1 -173v-102.5z" />
<glyph unicode="q" horiz-adv-x="768" d="M74 514q0 53 1 106.5t1 106.5q2 59 10 114.5t43 102.5q8 12 24.5 28.5t40 32t54.5 26.5t71 11q49 0 83 -14t57.5 -34.5t38 -42t22.5 -36.5v109h158v-1350h-162v428q-6 -10 -14 -22t-19 -23q-23 -27 -47 -42t-47.5 -22t-44 -9t-33.5 -2q-18 0 -57 7t-80 40 q-37 31 -56.5 69.5t-28.5 79.5t-10 86t-3 88q0 41 -1 81t-1 81zM244 426q0 -37 2 -74q2 -25 2 -49t2 -51q2 -10 5 -32.5t14.5 -47.5t35 -43t66.5 -18q49 0 75.5 23.5t36.5 37.5q8 10 13.5 24.5t9.5 41.5q13 66 13 206q0 35 -1 74q0 90 -6 182q-2 51 -4 78t-12 51 q-4 10 -13.5 24.5t-25 28t-37 21.5t-51.5 8q-53 0 -82 -32.5t-37 -81.5q-4 -35 -5 -117t-1 -180v-74z" />
<glyph unicode="r" horiz-adv-x="512" d="M90 0v1024h158v-193q10 25 21.5 47.5t25.5 45.5q35 52 88 86q50 33 108 32h7h26v-172q-29 0 -58.5 -1t-57.5 -9q-63 -16 -94 -58q-32 -42 -44 -96q-12 -50 -11 -102v-8v-37q0 -36 -1 -70v-489h-168z" />
<glyph unicode="s" horiz-adv-x="641" d="M35 354h158q0 -27 1 -51t3 -51q0 -20 2 -41t12 -37q12 -20 27.5 -32.5t32 -18.5t29.5 -7t19 -1q55 0 87 34.5t32 88.5q0 68 -30.5 103.5t-75.5 76.5l-127 110q-33 29 -58.5 54.5t-44 54.5t-29 63.5t-10.5 79.5q0 10 1.5 30.5t6.5 45.5t16 52.5t30 52.5q23 29 50.5 43 t37.5 18q16 6 47 13t74 7q6 0 28.5 -1t51 -7t58.5 -18t54 -37q29 -31 41 -70q14 -37 17.5 -74.5t3.5 -111.5h-146v58.5t-8 56.5q-6 20 -26.5 46.5t-73.5 26.5q-14 0 -33 -4t-36 -15t-28.5 -33.5t-11.5 -59.5q0 -10 1 -22.5t11 -31.5q16 -37 51 -67.5t64 -54.5l117 -97 q16 -14 30.5 -26.5t28.5 -26.5q59 -63 71.5 -119.5t12.5 -91.5q0 -68 -18.5 -114t-44 -76.5t-56 -48t-55.5 -25.5q-39 -12 -73.5 -14t-47.5 -2q-98 0 -148 29.5t-75 64.5q-16 23 -26.5 49.5t-15.5 59t-7 74.5t-2 95z" />
<glyph unicode="t" horiz-adv-x="468" d="M12 901v123h127v274h164v-274h152v-123h-152v-661q0 -23 2 -43.5t17 -42.5q10 -14 25 -23.5t50 -9.5q10 0 22.5 1t35.5 7l-2 -133q-33 -10 -55.5 -12t-37.5 -2h-23.5t-46 5t-55 15t-49.5 31q-23 20 -33 48t-15 58.5t-5 61v57.5q0 18 1 37.5t1 38.5v567h-123z" />
<glyph unicode="u" horiz-adv-x="768" d="M90 381v643h164v-672v-43t2 -43q0 -4 1 -35.5t13 -58.5q20 -47 54 -57.5t53 -10.5q12 0 34.5 4.5t45.5 22.5q41 31 50 82t9 143v668h162v-1024h-158l-2 94q-10 -14 -27.5 -33.5t-43 -37t-61.5 -29.5t-85 -12q-16 0 -54 6t-79 39q-31 25 -47.5 57.5t-22.5 74.5t-7 96 t-1 126z" />
<glyph unicode="v" horiz-adv-x="641" d="M0 1024h178l135 -840l150 840h178l-235 -1024h-187z" />
<glyph unicode="w" horiz-adv-x="1067" d="M0 1024h178l109 -877l133 877h221l133 -864l121 864h172l-201 -1024h-196l-140 862l-141 -862h-201z" />
<glyph unicode="x" horiz-adv-x="681" d="M0 0l246 549l-213 475h190l111 -336l123 336h184l-215 -475l256 -549h-186l-162 406l-154 -406h-180z" />
<glyph unicode="y" horiz-adv-x="681" d="M12 1024h176l162 -823l131 823h174l-176 -893q-6 -29 -12 -55.5t-10 -55.5q-8 -37 -16.5 -76.5t-20.5 -77.5t-30.5 -74t-47.5 -64q-43 -41 -90 -51.5t-105 -10.5h-106v141q27 -1 54 -1t55 1q14 2 33.5 5.5t38 15.5t30.5 34.5t12 63.5q0 33 -6 62.5t-14 62.5z" />
<glyph unicode="z" horiz-adv-x="598" d="M18 0v135l385 750h-333v139h505v-139l-382 -750h382v-135h-557z" />
<glyph unicode="{" d="M141 506v12q35 10 58.5 22.5t46.5 47.5q29 45 34 103.5t7 156.5v344q2 37 5 72.5t12 70.5t27.5 66t51.5 59q35 31 65.5 42t45.5 16q14 2 37.5 5t48 4t48 3t40.5 2l-2 -12q-43 -10 -79 -25.5t-69 -52.5q-41 -43 -48 -102.5t-9 -161.5v-201v-112.5t-4 -112.5q0 -8 -1 -30 t-8.5 -49.5t-22.5 -57t-42 -54.5q-16 -16 -36.5 -26.5t-61.5 -24.5q41 -16 69.5 -31.5t57.5 -52.5q16 -25 26.5 -47.5t15.5 -50t7 -63.5t2 -85v-340q2 -100 10 -157.5t45 -100.5q33 -39 70 -55t80 -27l-2 -12q-119 2 -187.5 18.5t-116.5 67.5q-31 33 -46 73t-21 81t-7 83 t-1 76v265q0 53 -1 94t-5.5 73.5t-12.5 59.5t-24 51q-23 35 -45.5 48.5t-57.5 27.5z" />
<glyph unicode="|" horiz-adv-x="468" d="M152 -512v2044h165v-2044h-165z" />
<glyph unicode="}" d="M59 -500q41 10 76 23.5t68 48.5q41 43 50 104.5t11 165.5v201v105.5t2 105.5q0 6 2 29.5t9.5 54.5t23.5 63.5t45 59.5q20 18 44 28.5t50 20.5q-2 0 -22.5 7t-38.5 18q-29 16 -47.5 36.5t-29.5 40t-17 36t-9 24.5q-10 43 -12 111.5t-2 168.5v226q0 88 -7 140t-30 93 q-18 31 -42.5 50.5t-49 31.5t-45 18.5t-29.5 8.5v12q66 -2 115 -8t87 -17.5t66.5 -31t51.5 -50.5q18 -25 29.5 -52t18.5 -62t9 -79t2 -102v-264q0 -57 1 -100t6.5 -78t16.5 -61.5t30 -51.5q23 -29 43 -40t49 -21v-12q-20 -6 -27.5 -9.5t-17.5 -7.5q-12 -6 -29.5 -19 t-34.5 -42q-25 -43 -30 -101.5t-5 -152.5v-256q-2 -43 -3 -86t-5 -86q-2 -16 -7 -43t-20.5 -58.5t-42 -63.5t-71.5 -54q-23 -10 -45.5 -16.5t-48 -9.5t-59.5 -5t-79 -4v12z" />
<glyph unicode="~" horiz-adv-x="1492" d="M254 594q10 12 30.5 41t54.5 58.5t80 51t107 21.5q61 -2 117.5 -23.5t110.5 -46.5l67 -30q35 -16 70 -29.5t74 -13.5t72.5 18t60 41t43 43t20.5 25l78 -148q-14 -16 -32.5 -37.5t-57.5 -50.5q-10 -8 -26.5 -20.5t-41 -24.5t-55.5 -20.5t-68 -8.5q-45 2 -86 15.5 t-116 48.5l-62 31q-4 2 -20.5 9t-40 16t-51 16.5t-54.5 7.5q-35 0 -62.5 -12.5t-50 -33t-42 -44t-37.5 -48.5z" />
<glyph unicode="&#xa1;" horiz-adv-x="425" d="M84 0v457l43 596h92l39 -596v-457h-174zM84 1206v240h174v-240h-174z" />
<glyph unicode="&#xa3;" horiz-adv-x="937" d="M23 160q0 23 3 36t7 23q14 39 37.5 61.5t49 34t48 14.5t35.5 3q55 0 88 -19.5t49 -29.5q4 35 4 68.5t-5 72.5t-18.5 87t-33.5 114h-203v153h152q-18 49 -32 89t-23 78t-13 79t-4 94q0 12 1 46t10 75t31.5 85t65.5 77q35 29 93.5 48t156.5 19q12 0 45 -2t71 -13t78 -34.5 t68 -68.5q31 -47 43.5 -116t12.5 -185v-24.5t-2 -27.5l-179 2q0 117 -6 191t-59 110q-25 16 -50.5 18.5t-35.5 2.5q-45 0 -76 -16.5t-50.5 -44t-27.5 -64.5t-8 -76q0 -41 6 -83t14.5 -76.5t15.5 -61.5t11 -35q14 -47 37 -86h275v-153h-230q16 -68 29.5 -130.5t13.5 -134.5 q-2 -61 -10 -98t-19 -63q8 -4 14.5 -9.5t14.5 -9.5q16 -10 50 -22.5t57 -12.5q39 0 59.5 20.5t24.5 31.5q6 12 11 33.5t7 44t3 44t1 35.5q0 61 -6 123h166q2 -53 2 -103t-4 -102q-4 -47 -11.5 -91t-31.5 -87q-23 -41 -51.5 -63.5t-57 -33.5t-54.5 -14t-42 -3q-45 0 -84 12 t-69.5 28.5t-51 33t-30.5 24.5q-10 -10 -17.5 -18.5t-17.5 -16.5q-16 -14 -59.5 -36.5t-104.5 -22.5q-20 0 -41 3t-37 11q-47 20 -76.5 64t-29.5 98zM152 172q2 -12 11 -27.5t38 -15.5q39 0 60.5 21.5t25.5 29.5q-29 18 -46.5 25.5t-35.5 7.5q-31 0 -42 -14.5t-11 -26.5z " />
<glyph unicode="&#xa4;" horiz-adv-x="1366" d="M86 223l158 154q-18 27 -37 56.5t-34 66.5t-25.5 85t-10.5 111q0 29 9.5 99.5t52.5 148.5q8 16 19 33.5t24 34.5l-154 155l123 123l154 -153q12 8 23 15t24 15q41 25 108.5 49.5t165.5 24.5q61 0 108.5 -10t84 -25.5t66.5 -34t56 -34.5l154 153l125 -123l-156 -155 q18 -27 36 -55.5t33 -65.5t24.5 -83t9.5 -108q0 -49 -6 -98q-6 -35 -14.5 -63.5t-20.5 -55t-27.5 -52t-36.5 -56.5l158 -156l-127 -123l-156 156q-25 -16 -53.5 -33.5t-65 -33t-83.5 -25.5t-111 -10q-66 0 -114 10t-84.5 25.5t-65.5 34t-55 34.5l-156 -156zM301 698 q0 -12 2 -37.5t9 -57.5t22.5 -68.5t40.5 -71.5q14 -20 41.5 -47t66.5 -49.5t88.5 -39t110.5 -16.5q14 0 43 2t64.5 12.5t74.5 29t76 53.5q20 18 42 44.5t40 61.5t29.5 81t11.5 101q0 14 -1 39t-8 55.5t-22.5 66.5t-44.5 73q-14 18 -39.5 44.5t-63.5 50.5t-87 39t-111 15 q-23 0 -63.5 -4t-94.5 -26q-113 -47 -170 -144.5t-57 -206.5z" />
<glyph unicode="&#xa6;" horiz-adv-x="468" d="M152 389h165v-780h-165v780zM152 631v780h165v-780h-165z" />
<glyph unicode="&#xa7;" horiz-adv-x="854" d="M45 657q0 88 39 147.5t98 117.5q-16 16 -21 22t-11 17q-16 25 -32 66.5t-16 109.5v29.5t4 45.5q10 78 41 129.5t103 83.5q29 12 72 23.5t108 11.5q35 0 70 -4t69 -14q104 -29 140 -103.5t36 -173.5v-43t-2 -43h-163v67t-2.5 48t-9.5 37.5t-19 34.5q-33 39 -72 44t-55 5 q-68 0 -98.5 -29t-40.5 -57q-6 -18 -8.5 -35.5t-2.5 -38.5q0 -23 2 -43t13 -37q12 -23 31.5 -39t42 -30.5t46 -24.5t44.5 -18q109 -45 180 -80t106 -74q41 -47 51.5 -96t10.5 -70q0 -70 -27 -122t-39 -70q-20 -31 -39.5 -52.5t-27.5 -29.5q33 -37 61.5 -88.5t28.5 -153.5 q0 -25 -5.5 -83t-45.5 -124q-16 -29 -41 -52.5t-61 -42t-87 -28.5t-121 -10q-16 0 -59 3t-92 21.5t-95.5 57.5t-66.5 111q-10 41 -12 93t-4 95v35h178q-2 -61 0 -99t12 -67q16 -49 59 -71.5t95 -22.5q55 0 83.5 16t45.5 35q29 35 34 73.5t5 53.5q0 18 -8.5 61t-49.5 80 q-29 27 -66.5 43.5t-72.5 32.5t-66.5 29.5t-64.5 29.5q-68 29 -94 49q-16 10 -35 26.5t-36 42.5t-28.5 60.5t-11.5 81.5zM186 707q0 -37 17.5 -65t43 -47.5t56.5 -34.5t59 -28q53 -25 108 -47t108 -49q8 6 14 12.5t12 12.5q8 10 28.5 45t20.5 82q0 49 -20.5 74.5t-32.5 35.5 q-39 31 -84 49.5t-90 36.5q-41 16 -80 34t-80 34q-6 -6 -19.5 -18.5t-26.5 -31t-23.5 -42t-10.5 -53.5z" />
<glyph unicode="&#xa8;" horiz-adv-x="468" d="M-131 1153v211h162v-211h-162zM186 1153v211h160v-211h-160z" />
<glyph unicode="&#xa9;" horiz-adv-x="1705" d="M125 725q0 70 11 130t27.5 108.5t35 85t34.5 61.5q16 29 49 72t95 96q31 25 75 55.5t103 57t134 44t165 17.5q119 0 215 -30.5t170 -74.5t124 -95.5t79 -90.5q20 -29 44.5 -71.5t46 -99t36 -125t14.5 -146.5q-2 -150 -65.5 -299.5t-194.5 -257.5q-109 -90 -228.5 -129 t-242.5 -39q-102 0 -186 23.5t-150.5 58.5t-115 73.5t-76.5 67.5q-29 31 -64 78t-64.5 110.5t-50 143.5t-20.5 176zM190 723q0 -25 3.5 -68t17.5 -97t41 -116.5t76 -126.5q29 -37 76 -82t113.5 -82.5t150.5 -64.5t186 -27q88 0 162 19.5t133 49.5t102 62.5t70 59.5 q68 66 106.5 138.5t58 139t25 117.5t5.5 76q0 31 -7.5 95.5t-35 142t-83 159.5t-153.5 150q-27 18 -62.5 38.5t-84 39t-106.5 29.5t-128 11q-139 0 -260 -52t-211 -141t-142.5 -211t-52.5 -259zM383 725q0 25 7 86t42 135q16 37 51 83t88.5 87t127 68.5t169.5 27.5 q18 0 51 -2t74 -13t87 -31.5t94 -57.5q23 -18 42 -38.5t39 -41.5l-114 -108q-23 25 -43 43q-14 12 -35 29.5t-48.5 31.5t-63.5 24.5t-81 10.5q-18 0 -60 -6t-89 -29q-27 -12 -58.5 -36.5t-58 -61.5t-44 -87.5t-17.5 -115.5q2 -51 11 -85t19 -54q12 -27 35 -59.5t60 -61.5 t88 -48.5t116 -19.5q27 0 85.5 11.5t123.5 62.5q16 14 30.5 28.5t29.5 30.5l114 -100q-16 -18 -32.5 -35.5t-34.5 -34.5q-18 -16 -49 -36.5t-71 -38t-89 -29.5t-109 -12q-29 0 -100.5 8t-155.5 57q-51 29 -88 66q-51 49 -79.5 103t-43 102.5t-17.5 87.5t-3 59z" />
<glyph unicode="&#xab;" d="M45 487v177l287 319v-238l-152 -170l152 -172v-239zM379 487v177l285 319v-238l-152 -170l152 -172v-239z" />
<glyph unicode="&#xac;" horiz-adv-x="1366" d="M0 518v162h1366v-680h-164v518h-1202z" />
<glyph unicode="&#xad;" horiz-adv-x="555" d="M43 473v160h469v-160h-469z" />
<glyph unicode="&#xae;" horiz-adv-x="1705" d="M125 725q0 90 17.5 165t43 133t54 100t51.5 69q29 33 77 78t117.5 85t161.5 68.5t209 28.5q174 0 326.5 -74.5t259.5 -218.5q72 -98 107.5 -208.5t33.5 -231.5q0 -33 -5 -85t-23.5 -114.5t-53.5 -132.5t-92 -137q-72 -86 -153.5 -137.5t-157.5 -77t-140.5 -33.5 t-103.5 -8q-123 0 -236.5 39t-209.5 110q-35 27 -84.5 76t-93.5 121t-74.5 168t-30.5 217zM190 723q0 -133 50 -252q37 -94 100 -170t144 -130t175.5 -83t196.5 -29q31 0 89.5 6.5t133.5 32.5q100 35 181 97.5t137.5 144.5t88.5 179.5t32 201.5q0 27 -3.5 70t-16.5 96 t-38.5 112.5t-70.5 120.5q-25 33 -69 79t-109.5 87t-153.5 70.5t-201 29.5q-27 0 -69 -3t-94 -16t-111.5 -38.5t-118.5 -68.5q-33 -25 -80 -69t-90 -110.5t-73 -155.5t-30 -202zM545 268v920h299q41 0 85 -1t85 -8.5t77.5 -26.5t65.5 -56q12 -16 30.5 -53t18.5 -91 q0 -16 -4 -41.5t-17.5 -53.5t-38 -54.5t-65.5 -46.5q-10 -4 -25.5 -10.5t-39.5 -12.5q41 -18 55 -28q27 -20 41 -46t23.5 -56t13.5 -59.5t8 -58.5q14 -86 27.5 -133t34.5 -84l-189 2q-29 59 -36 119t-17 123t-24.5 94t-47.5 49q-29 16 -55.5 20.5t-83.5 6.5h-57v-414h-164z M709 811h137h27.5t27.5 2q39 4 74 18.5t53 51.5q4 4 9 20.5t5 36.5q0 12 -9 47t-48 57q-20 10 -48 14.5t-75 4.5q-10 0 -22.5 -1t-24.5 -1h-106v-250z" />
<glyph unicode="&#xb0;" d="M33 1217q0 68 25.5 128t70.5 105t105 70.5t128 25.5q70 0 129.5 -25.5t104.5 -70.5t70.5 -105.5t25.5 -127.5q0 -20 -4 -57.5t-26 -84.5q-41 -86 -122 -138t-178 -52q-70 0 -130 26.5t-104 71.5t-69.5 105.5t-25.5 128.5zM201 1221q0 -68 48 -115t113 -47q68 0 115 47 t47 115q0 66 -47 113.5t-115 47.5t-114.5 -48t-46.5 -113z" />
<glyph unicode="&#xb1;" horiz-adv-x="1024" d="M63 0v162h898v-162h-898zM63 698v164h371v367h162v-367h365v-164h-365v-366h-162v366h-371z" />
<glyph unicode="&#xb4;" horiz-adv-x="468" d="M16 1155l109 219h223l-201 -219h-131z" />
<glyph unicode="&#xb5;" horiz-adv-x="1150" d="M141 748q0 94 13 131l8 16t16 24.5t26.5 21.5t39.5 9q14 0 31.5 -6t33.5 -33q12 -16 18.5 -40.5t6.5 -67.5q0 -39 -4 -78t-8 -80q-4 -49 -10.5 -97t-12.5 -97t-11 -98.5t-16 -96.5q14 -35 22.5 -50.5t16.5 -29.5q29 -41 71 -66.5t95 -25.5q16 0 46 6t63 31 q37 27 61.5 64.5t39.5 74.5t22.5 66.5t9.5 38.5q10 53 14 115.5t4 117.5t-1 95t-1 48q0 61 4 105.5t21 66.5q6 10 24.5 24.5t49.5 12.5q6 0 20 -2t31 -12q31 -23 42 -68t11 -118q0 -16 -1 -61.5t-7 -106t-18.5 -129t-32.5 -131.5q-4 -16 -13.5 -40t-27.5 -59 q23 -57 52.5 -80.5t57.5 -23.5q4 0 15.5 2t23.5 10q18 10 28.5 27.5t14.5 34t5 31t1 18.5q0 10 -1 21t-3 24l58 2q29 -70 28 -142q0 -10 -3 -37.5t-16.5 -56t-41 -52.5t-78.5 -24q-31 0 -54.5 9.5t-40 23t-27.5 26.5t-17 21q-23 29 -31 52.5t-12 37.5q-37 -55 -78 -89.5 t-81 -54t-77 -27t-63 -7.5q-61 0 -114.5 25.5t-94.5 73.5q-14 14 -18.5 20t-10.5 16q-2 -25 -3 -62.5t4 -84.5t18.5 -102.5t42.5 -114.5q12 -25 26 -47.5t29 -44.5q14 -23 26.5 -46.5t12.5 -52.5q0 -37 -24.5 -61.5t-63.5 -24.5q-16 0 -28.5 4.5t-18.5 8.5q-18 10 -35 25.5 t-33 54.5q-27 55 -40 137t-13 215v50t2 84t7 104.5t13 109.5q-4 33 -9 64.5t-9 64.5q-6 53 -11.5 112.5t-7.5 112t-3 90t-1 48.5z" />
<glyph unicode="&#xb6;" horiz-adv-x="1366" d="M178 1036q0 12 2 37t8.5 55.5t19.5 66.5t36 73q8 12 23.5 31.5t39 41t54 42t71.5 34.5q41 16 82 21.5t119 7.5h471v-111h-70v-1677h-119v1677h-294v-1677h-119v995q-59 12 -107.5 29.5t-99.5 65.5q-10 10 -28.5 29.5t-35.5 47.5q-16 27 -34.5 81.5t-18.5 129.5z" />
<glyph unicode="&#xb7;" horiz-adv-x="382" d="M55 592q0 57 40 100t100 43q59 0 98 -45t37 -104q-4 -57 -42 -94t-95 -35q-23 0 -39.5 4t-24.5 8q-35 18 -54.5 53t-19.5 70z" />
<glyph unicode="&#xb8;" horiz-adv-x="468" d="M-70 -403l27 49q12 -4 42 -16.5t71 -12.5t78.5 27.5t37.5 74.5q0 33 -22.5 56.5t-57.5 21.5q-23 0 -39 -11t-22 -15l-41 16l76 223h55l-55 -162q27 10 45 15.5t47 5.5q59 0 99 -36t40 -95q0 -47 -26 -86q-18 -31 -64.5 -63.5t-132.5 -32.5q-35 0 -66.5 6t-91.5 35z" />
<glyph unicode="&#xbb;" d="M61 164v239l152 172l-152 170v238l287 -319v-177zM393 164v239l152 172l-152 170v238l287 -319v-177z" />
<glyph unicode="&#xbf;" horiz-adv-x="811" d="M74 313v64.5t8 101.5q6 33 16.5 60.5t26.5 56.5t40.5 65.5t55.5 88.5q10 16 19.5 31.5t17.5 31.5q14 29 23.5 59.5t9.5 94.5q0 23 -1 46t-1 46h135v-80q0 -51 -1 -87t-11.5 -73t-32 -84t-60.5 -121q-12 -20 -23 -40.5t-22 -43.5q-8 -18 -13 -34.5t-8 -35t-4 -43t-1 -61.5 q0 -16 -1 -30.5t-1 -30.5q0 -4 1 -24.5t9 -37.5q8 -27 41 -59.5t100 -32.5q10 0 33 3t45 18q41 23 48 63.5t9 81.5v187h160v-207q0 -66 -7 -103t-23 -67q-18 -37 -48 -62.5t-67 -43t-78 -24.5t-80 -7q-20 0 -69.5 6t-104.5 34q-57 31 -86 73t-41 85t-13 80t-1 55zM268 1206 v240h174v-240h-174z" />
<glyph unicode="&#xc0;" horiz-adv-x="811" d="M0 0l311 1446h181l319 -1446h-188l-52 279h-335l-50 -279h-186zM166 1784h223l109 -219h-133zM266 434h275l-142 744z" />
<glyph unicode="&#xc1;" horiz-adv-x="811" d="M0 0l311 1446h181l319 -1446h-188l-52 279h-335l-50 -279h-186zM266 434h275l-142 744zM315 1565l109 219h223l-201 -219h-131z" />
<glyph unicode="&#xc2;" horiz-adv-x="811" d="M0 0l311 1446h181l319 -1446h-188l-52 279h-335l-50 -279h-186zM143 1565l207 219h133l203 -219h-180l-109 123l-116 -123h-138zM266 434h275l-142 744z" />
<glyph unicode="&#xc3;" horiz-adv-x="811" d="M0 0l311 1446h181l319 -1446h-188l-52 279h-335l-50 -279h-186zM150 1575q0 8 1 24.5t6 37t16 42t32 39.5q23 23 51 33q14 6 28.5 7t18.5 1q37 0 66.5 -9t89.5 -34q53 -20 78 -20q20 0 30.5 7t15.5 17.5t7 20.5t2 16h74q-2 -29 -4.5 -41t-8.5 -28q-16 -49 -52 -81 t-89 -32q-41 0 -84 17.5t-78 29.5q-2 2 -26.5 9t-44.5 7q-33 0 -43.5 -18t-14.5 -45h-71zM266 434h275l-142 744z" />
<glyph unicode="&#xc4;" horiz-adv-x="811" d="M0 0l311 1446h181l319 -1446h-188l-52 279h-335l-50 -279h-186zM139 1565v219h170v-219h-170zM266 434h275l-142 744zM504 1565v219h170v-219h-170z" />
<glyph unicode="&#xc5;" horiz-adv-x="811" d="M0 0l311 1446h181l319 -1446h-188l-52 279h-335l-50 -279h-186zM242 1696q0 70 49 117t117 47t115.5 -48.5t47.5 -115.5q0 -68 -48 -116t-117 -48q-68 0 -116 48t-48 116zM266 434h275l-142 744zM332 1696q2 -29 23.5 -51.5t52.5 -22.5t52 21.5t21 54.5q0 31 -21 52.5 t-54 21.5q-29 0 -51.5 -21.5t-22.5 -54.5z" />
<glyph unicode="&#xc6;" horiz-adv-x="1280" d="M0 0l510 1446h702v-162h-426v-430h365v-164h-365v-528h453v-162h-631v317h-313l-107 -317h-188zM348 473h260v791z" />
<glyph unicode="&#xc7;" horiz-adv-x="854" d="M90 508v231v122t2 122q0 41 2 90t9.5 98.5t21.5 95.5t43 83q25 33 57.5 55t70.5 36.5t79 20.5t78 6q98 0 155.5 -31.5t85.5 -60.5q41 -43 58.5 -107.5t17.5 -183.5v-47t-2 -47h-166v78t-2 80q-2 45 -10 78t-45 61q-12 10 -35 19.5t-57 9.5q-16 0 -41 -3t-48.5 -16.5 t-44 -39t-30.5 -68.5q-14 -61 -17.5 -186t-3.5 -289q0 -162 6 -324q2 -43 4.5 -95t24.5 -93q14 -27 35.5 -41.5t43 -21.5t40 -8t27.5 -1q12 0 39.5 4t56.5 27q25 18 38 48t19 63.5t7 66.5t1 61v107h168v-77t-2 -77q0 -10 -1 -49t-7 -76q-10 -57 -28.5 -96t-42 -64.5t-49 -41 t-50.5 -23.5q-51 -18 -97 -21t-63 -3q-61 0 -114.5 12t-104.5 51q-10 10 -29.5 27.5t-37.5 46.5q-20 31 -33 67.5t-19 83.5t-8 105.5t-2 134.5zM250 -403l26 49q12 -4 42 -16.5t71 -12.5t79 27.5t38 74.5q0 33 -21.5 56.5t-56.5 21.5q-25 0 -41 -11t-22 -15l-41 16l75 223 h56l-54 -162q25 10 44.5 15.5t46.5 5.5q59 0 99 -36t40 -95q0 -47 -27 -86q-18 -31 -64 -63.5t-132 -32.5q-35 0 -67 6t-91 35z" />
<glyph unicode="&#xc8;" horiz-adv-x="811" d="M102 0v1446h637v-162h-456v-430h399v-164h-399v-528h471v-162h-652zM166 1784h223l109 -219h-133z" />
<glyph unicode="&#xc9;" horiz-adv-x="811" d="M102 0v1446h637v-162h-456v-430h399v-164h-399v-528h471v-162h-652zM315 1565l109 219h223l-201 -219h-131z" />
<glyph unicode="&#xca;" horiz-adv-x="811" d="M102 0v1446h637v-162h-456v-430h399v-164h-399v-528h471v-162h-652zM133 1565l207 219h133l201 -219h-178l-109 123l-119 -123h-135z" />
<glyph unicode="&#xcb;" horiz-adv-x="811" d="M102 0v1446h637v-162h-456v-430h399v-164h-399v-528h471v-162h-652zM139 1565v219h170v-219h-170zM504 1565v219h170v-219h-170z" />
<glyph unicode="&#xcc;" horiz-adv-x="382" d="M-47 1784h223l109 -219h-133zM102 0v1446h179v-1446h-179z" />
<glyph unicode="&#xcd;" horiz-adv-x="382" d="M102 0v1446h179v-1446h-179zM102 1565l109 219h223l-201 -219h-131z" />
<glyph unicode="&#xce;" horiz-adv-x="382" d="M-82 1565l209 219h133l201 -219h-178l-109 123l-119 -123h-137zM102 0v1446h179v-1446h-179z" />
<glyph unicode="&#xcf;" horiz-adv-x="382" d="M-74 1565v219h170v-219h-170zM102 0v1446h179v-1446h-179zM291 1565v219h170v-219h-170z" />
<glyph unicode="&#xd1;" horiz-adv-x="894" d="M102 0v1446h248l293 -1266l-25 1266h175v-1446h-254l-283 1253l25 -1253h-179zM190 1575q0 8 2.5 24.5t7.5 37t16 42t32 39.5q23 23 51 33q14 6 28.5 7t18.5 1q35 0 65.5 -9t90.5 -34q29 -10 45 -15t33 -5q20 0 30.5 7t15.5 17.5t7 20.5t2 16h74q-4 -29 -6.5 -41 t-6.5 -28q-16 -49 -52 -81t-89 -32q-41 0 -84 17.5t-80 29.5q0 2 -24.5 9t-44.5 7q-35 0 -44.5 -18t-13.5 -45h-74z" />
<glyph unicode="&#xd2;" horiz-adv-x="894" d="M90 645q0 98 1 195.5t3 195.5q4 125 21.5 194.5t56.5 119.5q33 43 101.5 80.5t191.5 37.5q16 0 54 -3t82 -18t88 -47t73 -91q16 -31 23.5 -63t11.5 -66q4 -39 6 -97.5t3 -122t1 -122v-95.5q-2 -66 -4 -128t-4 -128q0 -33 -1 -64.5t-3 -64.5q-4 -39 -9.5 -80.5 t-16.5 -81.5t-31.5 -77t-51.5 -64q-35 -31 -93 -53t-157 -22q-16 0 -49 1t-74 11t-83 33.5t-74 70.5q-10 12 -21.5 35t-21.5 57q-16 59 -19.5 179t-3.5 278zM209 1784h223l107 -219h-131zM274 653.5q0 -104.5 2 -209.5q0 -78 2.5 -127t12.5 -84q6 -16 15 -34.5t27.5 -35 t45.5 -26.5t67 -10q45 0 84 20.5t58 63.5q23 47 25.5 133t7.5 207q0 47 1 95t1 97v151t-2 150q0 43 -3.5 101.5t-25.5 99.5q-12 23 -46 47.5t-93 24.5q-16 0 -46 -5t-61 -30q-27 -20 -41 -49t-20 -68t-8.5 -89t-2.5 -113v-101v-208.5z" />
<glyph unicode="&#xd3;" horiz-adv-x="894" d="M90 645q0 98 1 195.5t3 195.5q4 125 21.5 194.5t56.5 119.5q33 43 101.5 80.5t191.5 37.5q16 0 54 -3t82 -18t88 -47t73 -91q16 -31 23.5 -63t11.5 -66q4 -39 6 -97.5t3 -122t1 -122v-95.5q-2 -66 -4 -128t-4 -128q0 -33 -1 -64.5t-3 -64.5q-4 -39 -9.5 -80.5 t-16.5 -81.5t-31.5 -77t-51.5 -64q-35 -31 -93 -53t-157 -22q-16 0 -49 1t-74 11t-83 33.5t-74 70.5q-10 12 -21.5 35t-21.5 57q-16 59 -19.5 179t-3.5 278zM274 653.5q0 -104.5 2 -209.5q0 -78 2.5 -127t12.5 -84q6 -16 15 -34.5t27.5 -35t45.5 -26.5t67 -10q45 0 84 20.5 t58 63.5q23 47 25.5 133t7.5 207q0 47 1 95t1 97v151t-2 150q0 43 -3.5 101.5t-25.5 99.5q-12 23 -46 47.5t-93 24.5q-16 0 -46 -5t-61 -30q-27 -20 -41 -49t-20 -68t-8.5 -89t-2.5 -113v-101v-208.5zM358 1565l109 219h223l-201 -219h-131z" />
<glyph unicode="&#xd4;" horiz-adv-x="894" d="M90 645q0 98 1 195.5t3 195.5q4 125 21.5 194.5t56.5 119.5q33 43 101.5 80.5t191.5 37.5q16 0 54 -3t82 -18t88 -47t73 -91q16 -31 23.5 -63t11.5 -66q4 -39 6 -97.5t3 -122t1 -122v-95.5q-2 -66 -4 -128t-4 -128q0 -33 -1 -64.5t-3 -64.5q-4 -39 -9.5 -80.5 t-16.5 -81.5t-31.5 -77t-51.5 -64q-35 -31 -93 -53t-157 -22q-16 0 -49 1t-74 11t-83 33.5t-74 70.5q-10 12 -21.5 35t-21.5 57q-16 59 -19.5 179t-3.5 278zM174 1565l209 219h133l201 -219h-178l-109 123l-119 -123h-137zM274 653.5q0 -104.5 2 -209.5q0 -78 2.5 -127 t12.5 -84q6 -16 15 -34.5t27.5 -35t45.5 -26.5t67 -10q45 0 84 20.5t58 63.5q23 47 25.5 133t7.5 207q0 47 1 95t1 97v151t-2 150q0 43 -3.5 101.5t-25.5 99.5q-12 23 -46 47.5t-93 24.5q-16 0 -46 -5t-61 -30q-27 -20 -41 -49t-20 -68t-8.5 -89t-2.5 -113v-101v-208.5z" />
<glyph unicode="&#xd5;" horiz-adv-x="894" d="M90 645q0 98 1 195.5t3 195.5q4 125 21.5 194.5t56.5 119.5q33 43 101.5 80.5t191.5 37.5q16 0 54 -3t82 -18t88 -47t73 -91q16 -31 23.5 -63t11.5 -66q4 -39 6 -97.5t3 -122t1 -122v-95.5q-2 -66 -4 -128t-4 -128q0 -33 -1 -64.5t-3 -64.5q-4 -39 -9.5 -80.5 t-16.5 -81.5t-31.5 -77t-51.5 -64q-35 -31 -93 -53t-157 -22q-16 0 -49 1t-74 11t-83 33.5t-74 70.5q-10 12 -21.5 35t-21.5 57q-16 59 -19.5 179t-3.5 278zM190 1575q0 8 2.5 24.5t7.5 37t16 42t32 39.5q23 23 51 33q14 6 28.5 7t18.5 1q35 0 65.5 -9t90.5 -34 q29 -10 45 -15t33 -5q20 0 30.5 7t15.5 17.5t7 20.5t2 16h74q-4 -29 -6.5 -41t-6.5 -28q-16 -49 -52 -81t-89 -32q-41 0 -84 17.5t-80 29.5q0 2 -24.5 9t-44.5 7q-35 0 -44.5 -18t-13.5 -45h-74zM274 653.5q0 -104.5 2 -209.5q0 -78 2.5 -127t12.5 -84q6 -16 15 -34.5 t27.5 -35t45.5 -26.5t67 -10q45 0 84 20.5t58 63.5q23 47 25.5 133t7.5 207q0 47 1 95t1 97v151t-2 150q0 43 -3.5 101.5t-25.5 99.5q-12 23 -46 47.5t-93 24.5q-16 0 -46 -5t-61 -30q-27 -20 -41 -49t-20 -68t-8.5 -89t-2.5 -113v-101v-208.5z" />
<glyph unicode="&#xd6;" horiz-adv-x="894" d="M90 645q0 98 1 195.5t3 195.5q4 125 21.5 194.5t56.5 119.5q33 43 101.5 80.5t191.5 37.5q16 0 54 -3t82 -18t88 -47t73 -91q16 -31 23.5 -63t11.5 -66q4 -39 6 -97.5t3 -122t1 -122v-95.5q-2 -66 -4 -128t-4 -128q0 -33 -1 -64.5t-3 -64.5q-4 -39 -9.5 -80.5 t-16.5 -81.5t-31.5 -77t-51.5 -64q-35 -31 -93 -53t-157 -22q-16 0 -49 1t-74 11t-83 33.5t-74 70.5q-10 12 -21.5 35t-21.5 57q-16 59 -19.5 179t-3.5 278zM182 1565v219h170v-219h-170zM274 610q0 -59 1 -117.5t1 -117.5v-33.5t3 -36.5q2 -18 6 -48t21.5 -58.5t50 -50 t89.5 -21.5q31 0 62 10t53 33q16 16 26.5 41t16.5 49q10 41 12 126t5 198q0 41 1 79.5t1 79.5v151t-2 150q0 43 -3.5 101.5t-25.5 99.5q-12 23 -46 47.5t-93 24.5q-12 0 -37 -3t-54 -20q-41 -25 -57 -63.5t-22 -83.5q-4 -31 -6.5 -85t-2.5 -125v-155v-172zM547 1565v219h170 v-219h-170z" />
<glyph unicode="&#xd7;" horiz-adv-x="1024" d="M88 289l311 311l-311 307l115 113l311 -307l307 307l115 -113l-307 -307l307 -311l-115 -117l-307 309l-311 -309z" />
<glyph unicode="&#xd8;" horiz-adv-x="894" d="M37 41l76 152q-6 39 -11.5 75.5t-7.5 80.5t-3 100.5t-1 134.5q0 104 1 206.5t3 206.5q2 123 14.5 195t41.5 123q16 27 39.5 54.5t60.5 49t87 35.5t120 14q8 0 30.5 -1t52 -6t63.5 -14t63 -28q12 -8 22 -16t21 -17l41 78l73 -39l-57 -116q4 -12 10 -26.5t12 -41.5 q16 -63 18.5 -170.5t2.5 -261.5q0 -55 -1 -110.5t-3 -110.5q-2 -53 -2 -106.5t-4 -106.5q-2 -41 -8.5 -86t-18.5 -88t-34.5 -83t-57.5 -69t-91.5 -49t-152.5 -20q-14 0 -38.5 1t-56.5 6t-66.5 18t-67.5 38q-8 6 -20.5 17.5t-28.5 31.5l-45 -92zM274 518l338 674 q-6 29 -12 43t-14 25q-16 20 -36 31.5t-39 17.5t-34.5 7t-21.5 1q-14 0 -36 -3t-45.5 -15.5t-45 -35t-33.5 -61.5q-16 -47 -18.5 -144t-2.5 -227q0 -78 1 -156.5t-1 -156.5zM276 334q2 -51 13.5 -100.5t58.5 -79.5q33 -20 59.5 -23.5t41.5 -3.5q49 0 79.5 17.5t47 42 t23.5 49t9 40.5q6 39 8 131.5t7 202.5q2 68 3 133.5t1 133.5q0 39 -1 76.5t-1 74.5z" />
<glyph unicode="&#xd9;" horiz-adv-x="894" d="M96 459v987h183v-959q0 -92 1 -157.5t15 -104.5q16 -41 44 -58t42 -22q14 -4 28.5 -7t43.5 -3q41 0 72.5 9.5t58.5 43.5q4 6 12 18.5t12 33.5q4 23 6 70.5t2 107.5v1028h183v-1079q0 -51 -4 -100.5t-18.5 -94.5t-43 -83t-80.5 -64q-33 -18 -64.5 -27.5t-60 -13.5t-50 -4 h-34.5q-66 0 -139.5 17t-124.5 66q-10 10 -28.5 35t-30.5 64q-10 29 -15.5 61.5t-7.5 60t-1 49t1 27.5v49.5t-2 49.5zM209 1784h223l107 -219h-131z" />
<glyph unicode="&#xda;" horiz-adv-x="894" d="M96 459v987h183v-959q0 -92 1 -157.5t15 -104.5q16 -41 44 -58t42 -22q14 -4 28.5 -7t43.5 -3q41 0 72.5 9.5t58.5 43.5q4 6 12 18.5t12 33.5q4 23 6 70.5t2 107.5v1028h183v-1079q0 -51 -4 -100.5t-18.5 -94.5t-43 -83t-80.5 -64q-33 -18 -64.5 -27.5t-60 -13.5t-50 -4 h-34.5q-66 0 -139.5 17t-124.5 66q-10 10 -28.5 35t-30.5 64q-10 29 -15.5 61.5t-7.5 60t-1 49t1 27.5v49.5t-2 49.5zM358 1565l109 219h223l-201 -219h-131z" />
<glyph unicode="&#xdb;" horiz-adv-x="894" d="M96 459v987h183v-959q0 -92 1 -157.5t15 -104.5q16 -41 44 -58t42 -22q14 -4 28.5 -7t43.5 -3q41 0 72.5 9.5t58.5 43.5q4 6 12 18.5t12 33.5q4 23 6 70.5t2 107.5v1028h183v-1079q0 -51 -4 -100.5t-18.5 -94.5t-43 -83t-80.5 -64q-33 -18 -64.5 -27.5t-60 -13.5t-50 -4 h-34.5q-66 0 -139.5 17t-124.5 66q-10 10 -28.5 35t-30.5 64q-10 29 -15.5 61.5t-7.5 60t-1 49t1 27.5v49.5t-2 49.5zM174 1565l209 219h133l201 -219h-178l-109 123l-119 -123h-137z" />
<glyph unicode="&#xdc;" horiz-adv-x="894" d="M96 459v987h183v-959q0 -92 1 -157.5t15 -104.5q16 -41 44 -58t42 -22q14 -4 28.5 -7t43.5 -3q41 0 72.5 9.5t58.5 43.5q4 6 12 18.5t12 33.5q4 23 6 70.5t2 107.5v1028h183v-1079q0 -51 -4 -100.5t-18.5 -94.5t-43 -83t-80.5 -64q-33 -18 -64.5 -27.5t-60 -13.5t-50 -4 h-34.5q-66 0 -139.5 17t-124.5 66q-10 10 -28.5 35t-30.5 64q-10 29 -15.5 61.5t-7.5 60t-1 49t1 27.5v49.5t-2 49.5zM182 1565v219h170v-219h-170zM547 1565v219h170v-219h-170z" />
<glyph unicode="&#xdf;" horiz-adv-x="811" d="M90 0v1157q2 98 21.5 148.5t58.5 80.5q27 23 79 44.5t132 21.5q14 0 50 -3t78 -17.5t82 -45t62 -88.5q10 -27 15.5 -61.5t5.5 -93.5q0 -66 -15.5 -107t-39 -64.5t-52 -34.5t-57.5 -19q23 -4 40 -9.5t40 -15.5q35 -16 56.5 -39t33.5 -47.5t17 -46t8 -33.5q4 -27 8 -85 t4 -132q0 -41 -1 -83t-3 -83q-2 -43 -6.5 -87t-16.5 -85q-14 -41 -34.5 -69.5t-43 -48t-45 -30t-39.5 -16.5q-27 -10 -48 -12t-50 -2q-23 0 -36 1t-48 7v139q27 -6 41 -8t29 -2q6 0 20.5 2t30.5 8t31.5 18.5t25.5 35.5q16 33 20.5 93t4.5 146q0 102 -6 207q-2 33 -6.5 76 t-24.5 74q-23 29 -54.5 39t-66.5 10q-10 0 -22.5 -1t-22.5 -1v145q29 0 72 2t67 29q18 20 23.5 58t5.5 65q0 23 -4 59.5t-14 58.5q-10 18 -36 39t-77 21q-10 0 -44 -5t-56 -36q-4 -6 -9.5 -14.5t-9.5 -24.5q-8 -27 -8 -71v-109v-1055h-166z" />
<glyph unicode="&#xe0;" d="M39 248q0 66 17.5 118t64.5 99q35 37 79 63.5t122 81.5q59 41 91.5 71t57.5 52v35q0 14 -2 37.5t-13.5 47.5t-37 41t-72.5 17q-49 0 -74.5 -17t-36 -40t-11.5 -48.5t-1 -39.5q0 -20 1 -38.5t3 -39.5l-149 2v43.5t2 42.5q2 53 7 95t44 85q45 53 105.5 69.5t125.5 16.5 q59 0 111.5 -14t95.5 -59q25 -27 36 -50.5t16 -35.5q10 -31 11 -70t1 -104v-492q0 -66 3 -112t15 -70q8 -14 17.5 -22.5t13.5 -12.5h-201v123q-8 -18 -22.5 -42t-39 -46.5t-61 -37.5t-90.5 -15q-16 0 -50 5t-73 27q-66 41 -86 101.5t-20 132.5zM135 1374h223l109 -219h-131z M207 254q0 -6 1 -30.5t11 -51.5t32.5 -48.5t67.5 -21.5q47 2 75 23.5t38 36.5q29 37 34 81t5 89v252q-14 -14 -28.5 -27.5t-28.5 -26.5q-12 -10 -24.5 -18t-27.5 -18q-45 -35 -66.5 -51.5t-39.5 -39.5q-16 -20 -32.5 -55t-16.5 -94z" />
<glyph unicode="&#xe1;" d="M39 248q0 66 17.5 118t64.5 99q35 37 79 63.5t122 81.5q59 41 91.5 71t57.5 52v35q0 14 -2 37.5t-13.5 47.5t-37 41t-72.5 17q-49 0 -74.5 -17t-36 -40t-11.5 -48.5t-1 -39.5q0 -20 1 -38.5t3 -39.5l-149 2v43.5t2 42.5q2 53 7 95t44 85q45 53 105.5 69.5t125.5 16.5 q59 0 111.5 -14t95.5 -59q25 -27 36 -50.5t16 -35.5q10 -31 11 -70t1 -104v-492q0 -66 3 -112t15 -70q8 -14 17.5 -22.5t13.5 -12.5h-201v123q-8 -18 -22.5 -42t-39 -46.5t-61 -37.5t-90.5 -15q-16 0 -50 5t-73 27q-66 41 -86 101.5t-20 132.5zM207 254q0 -6 1 -30.5 t11 -51.5t32.5 -48.5t67.5 -21.5q47 2 75 23.5t38 36.5q29 37 34 81t5 89v252q-14 -14 -28.5 -27.5t-28.5 -26.5q-12 -10 -24.5 -18t-27.5 -18q-45 -35 -66.5 -51.5t-39.5 -39.5q-16 -20 -32.5 -55t-16.5 -94zM272 1155l109 219h223l-201 -219h-131z" />
<glyph unicode="&#xe2;" d="M39 248q0 66 17.5 118t64.5 99q35 37 79 63.5t122 81.5q59 41 91.5 71t57.5 52v35q0 14 -2 37.5t-13.5 47.5t-37 41t-72.5 17q-49 0 -74.5 -17t-36 -40t-11.5 -48.5t-1 -39.5q0 -20 1 -38.5t3 -39.5l-149 2v43.5t2 42.5q2 53 7 95t44 85q45 53 105.5 69.5t125.5 16.5 q59 0 111.5 -14t95.5 -59q25 -27 36 -50.5t16 -35.5q10 -31 11 -70t1 -104v-492q0 -66 3 -112t15 -70q8 -14 17.5 -22.5t13.5 -12.5h-201v123q-8 -18 -22.5 -42t-39 -46.5t-61 -37.5t-90.5 -15q-16 0 -50 5t-73 27q-66 41 -86 101.5t-20 132.5zM100 1153l209 225h133 l201 -225h-178l-111 129l-116 -129h-138zM207 254q0 -6 1 -30.5t11 -51.5t32.5 -48.5t67.5 -21.5q47 2 75 23.5t38 36.5q29 37 34 81t5 89v252q-14 -14 -28.5 -27.5t-28.5 -26.5q-12 -10 -24.5 -18t-27.5 -18q-45 -35 -66.5 -51.5t-39.5 -39.5q-16 -20 -32.5 -55t-16.5 -94z " />
<glyph unicode="&#xe3;" d="M39 248q0 66 17.5 118t64.5 99q35 37 79 63.5t122 81.5q59 41 91.5 71t57.5 52v35q0 14 -2 37.5t-13.5 47.5t-37 41t-72.5 17q-49 0 -74.5 -17t-36 -40t-11.5 -48.5t-1 -39.5q0 -20 1 -38.5t3 -39.5l-149 2v43.5t2 42.5q2 53 7 95t44 85q45 53 105.5 69.5t125.5 16.5 q59 0 111.5 -14t95.5 -59q25 -27 36 -50.5t16 -35.5q10 -31 11 -70t1 -104v-492q0 -66 3 -112t15 -70q8 -14 17.5 -22.5t13.5 -12.5h-201v123q-8 -18 -22.5 -42t-39 -46.5t-61 -37.5t-90.5 -15q-16 0 -50 5t-73 27q-66 41 -86 101.5t-20 132.5zM106 1165q0 16 7.5 60.5 t48.5 83.5q29 25 51 32q14 4 28.5 6.5t18.5 2.5q37 0 66.5 -10.5t89.5 -32.5q53 -20 80 -21q18 0 29.5 7t15.5 17.5t6 20.5t2 17h74q-2 -29 -4.5 -41.5t-6.5 -28.5q-4 -10 -12 -28.5t-25.5 -37t-43 -33t-62.5 -14.5q-39 0 -84 18.5t-80 28.5q-47 16 -69 17q-20 0 -30.5 -8.5 t-16 -19.5t-7.5 -21.5t-2 -14.5h-74zM207 254q0 -6 1 -30.5t11 -51.5t32.5 -48.5t67.5 -21.5q47 2 75 23.5t38 36.5q29 37 34 81t5 89v252q-14 -14 -28.5 -27.5t-28.5 -26.5q-12 -10 -24.5 -18t-27.5 -18q-45 -35 -66.5 -51.5t-39.5 -39.5q-16 -20 -32.5 -55t-16.5 -94z" />
<glyph unicode="&#xe4;" d="M39 248q0 66 17.5 118t64.5 99q35 37 79 63.5t122 81.5q59 41 91.5 71t57.5 52v35q0 14 -2 37.5t-13.5 47.5t-37 41t-72.5 17q-49 0 -74.5 -17t-36 -40t-11.5 -48.5t-1 -39.5q0 -20 1 -38.5t3 -39.5l-149 2v43.5t2 42.5q2 53 7 95t44 85q45 53 105.5 69.5t125.5 16.5 q59 0 111.5 -14t95.5 -59q25 -27 36 -50.5t16 -35.5q10 -31 11 -70t1 -104v-492q0 -66 3 -112t15 -70q8 -14 17.5 -22.5t13.5 -12.5h-201v123q-8 -18 -22.5 -42t-39 -46.5t-61 -37.5t-90.5 -15q-16 0 -50 5t-73 27q-66 41 -86 101.5t-20 132.5zM117 1153v211h162v-211h-162z M207 254q0 -6 1 -30.5t11 -51.5t32.5 -48.5t67.5 -21.5q47 2 75 23.5t38 36.5q29 37 34 81t5 89v252q-14 -14 -28.5 -27.5t-28.5 -26.5q-12 -10 -24.5 -18t-27.5 -18q-45 -35 -66.5 -51.5t-39.5 -39.5q-16 -20 -32.5 -55t-16.5 -94zM436 1153v211h158v-211h-158z" />
<glyph unicode="&#xe5;" d="M39 248q0 66 17.5 118t64.5 99q35 37 79 63.5t122 81.5q59 41 91.5 71t57.5 52v35q0 14 -2 37.5t-13.5 47.5t-37 41t-72.5 17q-49 0 -74.5 -17t-36 -40t-11.5 -48.5t-1 -39.5q0 -20 1 -38.5t3 -39.5l-149 2v43.5t2 42.5q2 53 7 95t44 85q45 53 105.5 69.5t125.5 16.5 q59 0 111.5 -14t95.5 -59q25 -27 36 -50.5t16 -35.5q10 -31 11 -70t1 -104v-492q0 -66 3 -112t15 -70q8 -14 17.5 -22.5t13.5 -12.5h-201v123q-8 -18 -22.5 -42t-39 -46.5t-61 -37.5t-90.5 -15q-16 0 -50 5t-73 27q-66 41 -86 101.5t-20 132.5zM193 1288q0 68 47.5 116 t117.5 48q68 0 116 -48t48 -118q-2 -68 -50 -116t-116 -48q-70 0 -116.5 49.5t-46.5 116.5zM207 254q0 -6 1 -30.5t11 -51.5t32.5 -48.5t67.5 -21.5q47 2 75 23.5t38 36.5q29 37 34 81t5 89v252q-14 -14 -28.5 -27.5t-28.5 -26.5q-12 -10 -24.5 -18t-27.5 -18 q-45 -35 -66.5 -51.5t-39.5 -39.5q-16 -20 -32.5 -55t-16.5 -94zM283 1288q0 -33 21.5 -53.5t53.5 -20.5q29 0 51.5 21.5t22.5 52.5q0 23 -9 37t-22.5 22.5t-26 11.5t-18.5 3q-16 0 -26 -4q-47 -20 -47 -70z" />
<glyph unicode="&#xe6;" horiz-adv-x="1110" d="M68 242q0 88 17 129t46 73q18 20 36.5 37t43.5 34t56.5 37.5t74.5 49.5q37 27 72 53.5t69 55.5v65q0 12 -2 35t-12 45.5t-32.5 38.5t-67.5 16q-10 0 -32 -3t-40 -19q-37 -29 -42 -77t-5 -89v-33l-150 2q2 57 3 122t30 118q20 39 71.5 74.5t153.5 35.5q18 0 64.5 -4 t93.5 -30q10 -6 19.5 -12.5t25.5 -20.5q14 10 24.5 17t16.5 12q18 10 58 24t100 14q59 0 98 -14t62 -29q45 -29 68.5 -66.5t32.5 -80.5t10 -90t3 -92v-187h-399v-227q2 -45 14.5 -73.5t29.5 -46t37.5 -24t43.5 -6.5q8 0 27.5 3.5t35.5 15.5q20 14 31.5 33.5t15.5 39t5.5 35 t1.5 19.5q2 14 2 26.5v26.5v27h155v-35v-21.5t-2 -40t-7 -49t-13 -49.5q-10 -27 -28.5 -54.5t-50.5 -50t-78 -36.5t-107 -14q-96 0 -145.5 31.5t-78.5 64.5q-27 -25 -50 -42.5t-48 -29.5t-53.5 -18t-65.5 -6q-53 0 -91 14t-64.5 34.5t-42 44t-23.5 44.5q-8 18 -13 47t-5 76z M225 252q0 -55 29 -97t90 -42q72 0 111 59q16 25 22 54.5t6 88.5l-2 236q-18 -14 -36.5 -27.5t-38.5 -27.5q-35 -25 -68 -48.5t-57.5 -51t-40 -61.5t-15.5 -83zM635 616h246v109q-2 23 -3 55.5t-10 55.5q-18 53 -56 66t-58 13q-10 0 -29.5 -4t-42.5 -20q-39 -31 -43 -77 t-4 -89v-109z" />
<glyph unicode="&#xe7;" d="M74 467q0 72 1 141.5t7 141.5q0 6 2 32.5t10 60.5t24.5 69.5t43.5 62.5q41 41 97 54t112 13q72 0 136 -19t103 -83q16 -27 25.5 -53.5t13.5 -59t5 -74.5t1 -100l-155 2v65t-4 66q0 4 -2 33t-19 51q-23 37 -55.5 43.5t-48.5 6.5q-37 0 -59.5 -11.5t-35 -28t-18.5 -35 t-8 -30.5q-6 -37 -9 -119t-3 -186q0 -53 1 -107.5t3 -107.5v-15.5t1 -33t5 -40t12 -36.5q12 -23 26.5 -35t30 -17t29.5 -6t23 -1q16 0 35.5 4t38 17t31.5 37t18 62q2 12 5 57.5t3 92.5h155q0 -125 -11 -193.5t-54 -119.5q-47 -53 -106.5 -69.5t-127.5 -16.5 q-111 0 -167 39.5t-78 84.5q-23 53 -30 142.5t-7 218.5zM186 -403l27 49q12 -4 42 -16.5t71 -12.5t78.5 27.5t37.5 74.5q0 33 -22.5 56.5t-57.5 21.5q-23 0 -39 -11t-22 -15l-41 16l76 223h55l-55 -162q27 10 45 15.5t47 5.5q57 0 98 -36t41 -95q0 -47 -26 -86 q-20 -31 -65.5 -63.5t-131.5 -32.5q-35 0 -66.5 6t-91.5 35z" />
<glyph unicode="&#xe8;" d="M74 509v95q0 45 1 88t7 88q8 88 30.5 131t57.5 72q27 23 55.5 34t54 16t46 6t32.5 1q55 0 103.5 -10t93.5 -45q10 -8 27.5 -25.5t33.5 -46.5q14 -31 21.5 -66.5t10.5 -72.5t3 -73.5v-67.5v-152l-411 -2q-4 -90 0 -178q2 -37 4 -58.5t6 -37.5q8 -33 24.5 -50.5t34 -26.5 t34.5 -11t30 -2q12 0 32.5 2t43.5 20q31 23 41 65t8 115h153q2 -66 -5 -127t-54 -116q-27 -35 -78 -63.5t-147 -28.5q-86 0 -150.5 29.5t-105.5 107.5q-14 29 -21.5 56.5t-10.5 60t-3 75.5v103q-2 47 -2 95zM135 1374h223l109 -219h-131zM240 612h258v43v59.5t-2 59.5 q-4 59 -32 100t-95 41q-78 0 -109 -65q-16 -35 -18 -78t-2 -117v-43z" />
<glyph unicode="&#xe9;" d="M74 509v95q0 45 1 88t7 88q8 88 30.5 131t57.5 72q27 23 55.5 34t54 16t46 6t32.5 1q55 0 103.5 -10t93.5 -45q10 -8 27.5 -25.5t33.5 -46.5q14 -31 21.5 -66.5t10.5 -72.5t3 -73.5v-67.5v-152l-411 -2q-4 -90 0 -178q2 -37 4 -58.5t6 -37.5q8 -33 24.5 -50.5t34 -26.5 t34.5 -11t30 -2q12 0 32.5 2t43.5 20q31 23 41 65t8 115h153q2 -66 -5 -127t-54 -116q-27 -35 -78 -63.5t-147 -28.5q-86 0 -150.5 29.5t-105.5 107.5q-14 29 -21.5 56.5t-10.5 60t-3 75.5v103q-2 47 -2 95zM240 612h258v43v59.5t-2 59.5q-4 59 -32 100t-95 41 q-78 0 -109 -65q-16 -35 -18 -78t-2 -117v-43zM272 1155l109 219h223l-201 -219h-131z" />
<glyph unicode="&#xea;" d="M74 509v95q0 45 1 88t7 88q8 88 30.5 131t57.5 72q27 23 55.5 34t54 16t46 6t32.5 1q55 0 103.5 -10t93.5 -45q10 -8 27.5 -25.5t33.5 -46.5q14 -31 21.5 -66.5t10.5 -72.5t3 -73.5v-67.5v-152l-411 -2q-4 -90 0 -178q2 -37 4 -58.5t6 -37.5q8 -33 24.5 -50.5t34 -26.5 t34.5 -11t30 -2q12 0 32.5 2t43.5 20q31 23 41 65t8 115h153q2 -66 -5 -127t-54 -116q-27 -35 -78 -63.5t-147 -28.5q-86 0 -150.5 29.5t-105.5 107.5q-14 29 -21.5 56.5t-10.5 60t-3 75.5v103q-2 47 -2 95zM100 1153l209 225h133l201 -225h-178l-111 129l-116 -129h-138z M240 612h258v43v59.5t-2 59.5q-4 59 -32 100t-95 41q-78 0 -109 -65q-16 -35 -18 -78t-2 -117v-43z" />
<glyph unicode="&#xeb;" d="M74 509v95q0 45 1 88t7 88q8 88 30.5 131t57.5 72q27 23 55.5 34t54 16t46 6t32.5 1q55 0 103.5 -10t93.5 -45q10 -8 27.5 -25.5t33.5 -46.5q14 -31 21.5 -66.5t10.5 -72.5t3 -73.5v-67.5v-152l-411 -2q-4 -90 0 -178q2 -37 4 -58.5t6 -37.5q8 -33 24.5 -50.5t34 -26.5 t34.5 -11t30 -2q12 0 32.5 2t43.5 20q31 23 41 65t8 115h153q2 -66 -5 -127t-54 -116q-27 -35 -78 -63.5t-147 -28.5q-86 0 -150.5 29.5t-105.5 107.5q-14 29 -21.5 56.5t-10.5 60t-3 75.5v103q-2 47 -2 95zM125 1153v211h162v-211h-162zM240 612h258v43v59.5t-2 59.5 q-4 59 -32 100t-95 41q-78 0 -109 -65q-16 -35 -18 -78t-2 -117v-43zM442 1153v211h160v-211h-160z" />
<glyph unicode="&#xec;" horiz-adv-x="342" d="M-57 1374h223l108 -219h-131zM90 0v1024h162v-1024h-162z" />
<glyph unicode="&#xed;" horiz-adv-x="342" d="M80 1155l108 219h224l-199 -219h-133zM90 0v1024h162v-1024h-162z" />
<glyph unicode="&#xee;" horiz-adv-x="342" d="M-92 1153l209 225h133l201 -225h-179l-108 129l-119 -129h-137zM90 0v1024h162v-1024h-162z" />
<glyph unicode="&#xef;" horiz-adv-x="342" d="M-68 1153v211h162v-211h-162zM90 0v1024h162v-1024h-162zM252 1153v211h158v-211h-158z" />
<glyph unicode="&#xf1;" horiz-adv-x="768" d="M90 0v1024h156v-94q10 10 17 20.5t18 20.5q23 18 67.5 44.5t118.5 26.5q53 0 100 -20.5t76 -67.5q25 -41 31 -91t4 -142v-721h-166v750q0 8 -1 35.5t-11.5 55t-35 50t-73.5 22.5q-31 0 -52.5 -9t-35.5 -23.5t-22.5 -28.5t-12.5 -25q-12 -31 -12 -65.5t-2 -99.5v-662h-164 zM127 1165q0 8 1 24.5t7 36t17.5 42t31.5 41.5q25 25 49 32q16 4 31 6.5t19 2.5q35 0 64.5 -10.5t88.5 -32.5q53 -20 80 -21q20 0 30.5 7t15.5 17.5t6 20.5t1 17h74q-2 -29 -4 -41.5t-6 -28.5q-4 -10 -12.5 -28.5t-25.5 -37t-43 -33t-63 -14.5q-39 0 -84 18.5t-79 28.5 q-25 10 -39.5 13.5t-30.5 3.5q-20 0 -30.5 -8.5t-15.5 -19.5t-7 -21.5t-2 -14.5h-74z" />
<glyph unicode="&#xf2;" d="M74 330v133v134.5t4 131.5q2 59 15 125t59 115q29 29 80 51t139 22q104 0 160.5 -37.5t83 -89t31.5 -104.5t5 -84q2 -113 0 -225q0 -49 -1 -98.5t-3 -98.5q-4 -47 -5 -69.5t-5 -45.5q-6 -37 -21.5 -73.5t-46 -66.5t-81 -49t-130.5 -19q-72 0 -137 23.5t-104 88.5 q-31 53 -36 114.5t-7 121.5zM135 1374h223l109 -219h-131zM246 559q0 -61 1 -123.5t1 -124.5q0 -45 2 -77.5t8 -51.5q23 -72 100 -71q53 0 78 28.5t35 77.5q6 35 8 112t2 175v112.5t-2 112.5q0 27 -3 58.5t-14 59t-32.5 45t-60.5 17.5q-33 0 -53.5 -12t-33 -27.5t-18.5 -31 t-8 -25.5q-8 -33 -9 -99.5t-1 -154.5z" />
<glyph unicode="&#xf3;" d="M74 330v133v134.5t4 131.5q2 59 15 125t59 115q29 29 80 51t139 22q104 0 160.5 -37.5t83 -89t31.5 -104.5t5 -84q2 -113 0 -225q0 -49 -1 -98.5t-3 -98.5q-4 -47 -5 -69.5t-5 -45.5q-6 -37 -21.5 -73.5t-46 -66.5t-81 -49t-130.5 -19q-72 0 -137 23.5t-104 88.5 q-31 53 -36 114.5t-7 121.5zM246 559q0 -61 1 -123.5t1 -124.5q0 -45 2 -77.5t8 -51.5q23 -72 100 -71q53 0 78 28.5t35 77.5q6 35 8 112t2 175v112.5t-2 112.5q0 27 -3 58.5t-14 59t-32.5 45t-60.5 17.5q-33 0 -53.5 -12t-33 -27.5t-18.5 -31t-8 -25.5q-8 -33 -9 -99.5 t-1 -154.5zM272 1155l109 219h223l-201 -219h-131z" />
<glyph unicode="&#xf4;" d="M74 330v133v134.5t4 131.5q2 59 15 125t59 115q29 29 80 51t139 22q104 0 160.5 -37.5t83 -89t31.5 -104.5t5 -84q2 -113 0 -225q0 -49 -1 -98.5t-3 -98.5q-4 -47 -5 -69.5t-5 -45.5q-6 -37 -21.5 -73.5t-46 -66.5t-81 -49t-130.5 -19q-72 0 -137 23.5t-104 88.5 q-31 53 -36 114.5t-7 121.5zM100 1153l209 225h133l201 -225h-178l-111 129l-116 -129h-138zM246 559q0 -61 1 -123.5t1 -124.5q0 -45 2 -77.5t8 -51.5q23 -72 100 -71q53 0 78 28.5t35 77.5q6 35 8 112t2 175v112.5t-2 112.5q0 27 -3 58.5t-14 59t-32.5 45t-60.5 17.5 q-33 0 -53.5 -12t-33 -27.5t-18.5 -31t-8 -25.5q-8 -33 -9 -99.5t-1 -154.5z" />
<glyph unicode="&#xf5;" d="M74 330v133v134.5t4 131.5q2 59 15 125t59 115q29 29 80 51t139 22q104 0 160.5 -37.5t83 -89t31.5 -104.5t5 -84q2 -113 0 -225q0 -49 -1 -98.5t-3 -98.5q-4 -47 -5 -69.5t-5 -45.5q-6 -37 -21.5 -73.5t-46 -66.5t-81 -49t-130.5 -19q-72 0 -137 23.5t-104 88.5 q-31 53 -36 114.5t-7 121.5zM106 1165q0 16 7.5 60.5t48.5 83.5q29 25 51 32q14 4 28.5 6.5t18.5 2.5q37 0 66.5 -10.5t89.5 -32.5q53 -20 80 -21q18 0 29.5 7t15.5 17.5t6 20.5t2 17h74q-2 -29 -4.5 -41.5t-6.5 -28.5q-4 -10 -12 -28.5t-25.5 -37t-43 -33t-62.5 -14.5 q-39 0 -84 18.5t-80 28.5q-47 16 -69 17q-20 0 -30.5 -8.5t-16 -19.5t-7.5 -21.5t-2 -14.5h-74zM246 559q0 -61 1 -123.5t1 -124.5q0 -45 2 -77.5t8 -51.5q23 -72 100 -71q53 0 78 28.5t35 77.5q6 35 8 112t2 175v112.5t-2 112.5q0 27 -3 58.5t-14 59t-32.5 45t-60.5 17.5 q-33 0 -53.5 -12t-33 -27.5t-18.5 -31t-8 -25.5q-8 -33 -9 -99.5t-1 -154.5z" />
<glyph unicode="&#xf6;" d="M74 330v133v134.5t4 131.5q2 59 15 125t59 115q29 29 80 51t139 22q104 0 160.5 -37.5t83 -89t31.5 -104.5t5 -84q2 -113 0 -225q0 -49 -1 -98.5t-3 -98.5q-4 -47 -5 -69.5t-5 -45.5q-6 -37 -21.5 -73.5t-46 -66.5t-81 -49t-130.5 -19q-72 0 -137 23.5t-104 88.5 q-31 53 -36 114.5t-7 121.5zM125 1153v211h160v-211h-160zM246 559q0 -61 1 -123.5t1 -124.5q0 -45 2 -77.5t8 -51.5q23 -72 100 -71q53 0 78 28.5t35 77.5q6 35 8 112t2 175v112.5t-2 112.5q0 27 -3 58.5t-14 59t-32.5 45t-60.5 17.5q-33 0 -53.5 -12t-33 -27.5t-18.5 -31 t-8 -25.5q-8 -33 -9 -99.5t-1 -154.5zM442 1153v211h158v-211h-158z" />
<glyph unicode="&#xf7;" horiz-adv-x="1024" d="M0 514v162h1024v-162h-1024zM399 297q0 49 34 83t81 34q51 -2 84 -35t33 -82q-2 -51 -36 -82t-83 -31t-82 35t-31 78zM399 889q0 10 2 24.5t13 34.5q33 59 102 60q49 -2 82 -35t33 -84q0 -12 -5 -31.5t-19.5 -38t-37 -31t-55.5 -12.5q-47 2 -81 34t-34 79z" />
<glyph unicode="&#xf8;" d="M29 27l63 116q-8 35 -12 73t-6 110q-2 33 -2 64.5v64.5q0 63 1 124.5t3 122.5v36t7 71t22.5 84t46.5 76q27 27 61.5 42t66 22t57 8t34.5 1q63 0 105 -13t65 -30q8 -4 16 -11t14 -11l45 70l56 -46l-56 -92q2 -6 6.5 -15t8.5 -26q14 -47 17 -110.5t3 -167.5 q0 -72 -1 -141.5t-3 -141.5q-2 -33 -4 -66.5t-10 -67.5t-22.5 -65.5t-41.5 -56.5q-27 -27 -75 -48t-132 -21q-8 0 -28.5 1t-47 5t-56 15t-56.5 30q-10 8 -19.5 16t-19.5 19l-43 -86zM244 406l229 399q0 2 -3 15.5t-7 23.5q-6 16 -27.5 40.5t-70.5 24.5q-43 -2 -64.5 -19.5 t-30.5 -33.5q-25 -39 -25.5 -125t-0.5 -199v-126zM250 236.5q0 -21.5 4 -41.5q10 -39 35.5 -61.5t66.5 -22.5q37 0 72 22.5t45 97.5q2 14 4 50t3 83.5t1 101.5v109v46.5t-2 46.5l-229 -406v-25.5z" />
<glyph unicode="&#xf9;" horiz-adv-x="768" d="M90 381v643h164v-672v-43t2 -43q0 -4 1 -35.5t13 -58.5q20 -47 54 -57.5t53 -10.5q12 0 34.5 4.5t45.5 22.5q41 31 50 82t9 143v668h162v-1024h-158l-2 94q-10 -14 -27.5 -33.5t-43 -37t-61.5 -29.5t-85 -12q-16 0 -54 6t-79 39q-31 25 -47.5 57.5t-22.5 74.5t-7 96 t-1 126zM156 1374h223l108 -219h-131z" />
<glyph unicode="&#xfa;" horiz-adv-x="768" d="M90 381v643h164v-672v-43t2 -43q0 -4 1 -35.5t13 -58.5q20 -47 54 -57.5t53 -10.5q12 0 34.5 4.5t45.5 22.5q41 31 50 82t9 143v668h162v-1024h-158l-2 94q-10 -14 -27.5 -33.5t-43 -37t-61.5 -29.5t-85 -12q-16 0 -54 6t-79 39q-31 25 -47.5 57.5t-22.5 74.5t-7 96 t-1 126zM295 1155l106 219h226l-201 -219h-131z" />
<glyph unicode="&#xfb;" horiz-adv-x="768" d="M90 381v643h164v-672v-43t2 -43q0 -4 1 -35.5t13 -58.5q20 -47 54 -57.5t53 -10.5q12 0 34.5 4.5t45.5 22.5q41 31 50 82t9 143v668h162v-1024h-158l-2 94q-10 -14 -27.5 -33.5t-43 -37t-61.5 -29.5t-85 -12q-16 0 -54 6t-79 39q-31 25 -47.5 57.5t-22.5 74.5t-7 96 t-1 126zM121 1153l209 225h133l201 -225h-179l-108 129l-119 -129h-137z" />
<glyph unicode="&#xfc;" horiz-adv-x="768" d="M90 381v643h164v-672v-43t2 -43q0 -4 1 -35.5t13 -58.5q20 -47 54 -57.5t53 -10.5q12 0 34.5 4.5t45.5 22.5q41 31 50 82t9 143v668h162v-1024h-158l-2 94q-10 -14 -27.5 -33.5t-43 -37t-61.5 -29.5t-85 -12q-16 0 -54 6t-79 39q-31 25 -47.5 57.5t-22.5 74.5t-7 96 t-1 126zM150 1153v211h161v-211h-161zM469 1153v211h158v-211h-158z" />
<glyph unicode="&#xff;" horiz-adv-x="681" d="M12 1024h176l162 -823l131 823h174l-176 -893q-6 -29 -12 -55.5t-10 -55.5q-8 -37 -16.5 -76.5t-20.5 -77.5t-30.5 -74t-47.5 -64q-43 -41 -90 -51.5t-105 -10.5h-106v141q53 -2 109 0q14 2 33.5 5.5t38 15.5t30.5 34.5t12 63.5q0 33 -6 62.5t-14 62.5zM104 1153v211h160 v-211h-160zM422 1153v211h158v-211h-158z" />
<glyph unicode="&#x152;" horiz-adv-x="1323" d="M90 558v40q0 111 1 220.5t7 223.5q2 49 6.5 96.5t14.5 90.5t31.5 82t60.5 73q55 49 117.5 66.5t132.5 17.5q29 0 54.5 -2t51.5 -6l40 -4t42 -4q29 -4 57.5 -4t57.5 -2h496v-162h-429v-430h365v-164h-365v-528h451v-162h-524l-74 -4t-74 -6q-45 -4 -87 -7t-87 -3h-39.5 t-52.5 6t-60.5 20t-64.5 43q-51 41 -74.5 92.5t-33.5 114.5q-10 47 -14.5 105.5t-5.5 109.5t-1 87zM276 568.5q0 -74.5 5 -152.5q2 -78 10 -126t26 -81q16 -25 54.5 -49.5t105.5 -24.5q39 0 71 10.5t58 38.5q8 10 17.5 24.5t17.5 41.5q10 39 12 101.5t4 154.5v469q0 41 1 80 t-3 80q-4 47 -17 84.5t-52 66.5q-27 16 -53.5 22.5t-55.5 6.5q-12 0 -32.5 -2t-44 -10.5t-46 -27t-39.5 -48.5q-29 -53 -32.5 -143.5t-6.5 -221.5v-141v-152.5z" />
<glyph unicode="&#x153;" horiz-adv-x="1110" d="M74 510q0 43 1 87t3 87v43.5t2 42.5q10 115 50 168t89 76q18 8 55 18t88 10q82 0 130.5 -28.5t72.5 -46.5q47 41 89 58t106 17q66 0 106.5 -17t63.5 -34q39 -29 60.5 -64.5t31.5 -74.5t12 -81t2 -85v-199h-397v-67q0 -18 -1 -50t-1 -65t2 -63.5t8 -48.5q12 -41 44 -61.5 t73 -20.5q20 0 38.5 5t35.5 21q31 29 37 74t8 123h153q0 -16 -1 -32.5t-1 -33.5q-6 -115 -37.5 -168t-81.5 -82q-18 -10 -57 -23t-96 -13q-84 0 -128 29.5t-71 54.5q-8 -8 -16 -15.5t-19 -15.5q-23 -16 -68.5 -34.5t-115.5 -18.5q-84 0 -135 29.5t-74 56.5 q-14 16 -21.5 30.5t-11.5 24.5q-23 59 -25.5 154.5t-2.5 232.5zM238 414.5q0 -56.5 4 -113.5q2 -57 6 -86t20 -57q33 -49 94 -49q12 0 35 4t43 26q16 18 24.5 41t12.5 51.5t4 65.5t2 82q2 33 2 63.5t2 63.5v103t-2 104q0 27 -1 58.5t-9 55.5q-4 8 -10 23.5t-19.5 29 t-34 23.5t-49.5 10q-51 0 -78.5 -32.5t-33.5 -79.5q-2 -12 -4 -40t-4 -66t-3 -81t-1 -86v-113.5zM639 621h242q0 86 -2 144t-23 93q-23 37 -54.5 44t-45.5 7q-10 0 -26.5 -2t-37.5 -16q-20 -14 -31.5 -37t-15.5 -47.5t-5 -49t-1 -44.5v-92z" />
<glyph unicode="&#x178;" horiz-adv-x="811" d="M0 1446h190l216 -723l215 723h190l-317 -877v-569h-187v569zM139 1565v219h170v-219h-170zM504 1565v219h170v-219h-170z" />
<glyph unicode="&#x2c6;" horiz-adv-x="468" d="M-156 1153l209 225h133l201 -225h-178l-111 129l-116 -129h-138z" />
<glyph unicode="&#x2dc;" horiz-adv-x="468" d="M-150 1165q0 16 7.5 60.5t48.5 83.5q29 25 51 32q14 4 28.5 6.5t18.5 2.5q37 0 66.5 -10.5t89.5 -32.5q53 -20 80 -21q18 0 29.5 7t15.5 17.5t6 20.5t2 17h74q-2 -29 -4.5 -41.5t-6.5 -28.5q-4 -10 -12 -28.5t-25.5 -37t-43 -33t-62.5 -14.5q-39 0 -84 18.5t-80 28.5 q-47 16 -69 17q-20 0 -30.5 -8.5t-16 -19.5t-7.5 -21.5t-2 -14.5h-74z" />
<glyph unicode="&#x2000;" horiz-adv-x="930" />
<glyph unicode="&#x2001;" horiz-adv-x="1860" />
<glyph unicode="&#x2002;" horiz-adv-x="930" />
<glyph unicode="&#x2003;" horiz-adv-x="1860" />
<glyph unicode="&#x2004;" horiz-adv-x="620" />
<glyph unicode="&#x2005;" horiz-adv-x="465" />
<glyph unicode="&#x2006;" horiz-adv-x="310" />
<glyph unicode="&#x2007;" horiz-adv-x="310" />
<glyph unicode="&#x2008;" horiz-adv-x="232" />
<glyph unicode="&#x2009;" horiz-adv-x="372" />
<glyph unicode="&#x200a;" horiz-adv-x="103" />
<glyph unicode="&#x2010;" horiz-adv-x="555" d="M43 473v160h469v-160h-469z" />
<glyph unicode="&#x2011;" horiz-adv-x="555" d="M43 473v160h469v-160h-469z" />
<glyph unicode="&#x2012;" horiz-adv-x="555" d="M43 473v160h469v-160h-469z" />
<glyph unicode="&#x2013;" horiz-adv-x="768" d="M43 473v160h682v-160h-682z" />
<glyph unicode="&#x2014;" horiz-adv-x="1024" d="M0 516v166h1024v-166h-1024z" />
<glyph unicode="&#x2018;" horiz-adv-x="342" d="M84 926v288q0 10 3 37t12.5 57.5t30 62.5t56.5 52q10 4 27.5 11.5t44.5 11.5v-105q-33 -8 -49 -27.5t-22.5 -44t-6.5 -51v-51.5h78v-241h-174z" />
<glyph unicode="&#x2019;" horiz-adv-x="342" d="M84 926v104q31 10 47 28.5t22.5 42t6.5 50.5v55h-76v240h174v-229q0 -96 -13.5 -146.5t-45.5 -87.5q-25 -27 -52.5 -38t-62.5 -19z" />
<glyph unicode="&#x201a;" horiz-adv-x="342" d="M84 0v242h174v-232q0 -94 -13.5 -145t-45.5 -86q-25 -27 -52.5 -39t-62.5 -21v107q31 10 47 28.5t22.5 42t6.5 50v53.5h-76z" />
<glyph unicode="&#x201c;" horiz-adv-x="641" d="M84 926v288q0 10 3 37t12.5 57.5t30 62.5t56.5 52q10 4 27.5 11.5t44.5 11.5v-105q-27 -6 -45 -26q-29 -33 -31 -71t-2 -77h78v-241h-174zM382 1191.5q-1 18.5 1 37.5q0 10 3 32.5t12.5 50t26.5 55.5t48 48q27 16 50.5 22.5t33.5 8.5v-105l-22.5 -9t-28.5 -23 q-20 -27 -24.5 -54.5t-2.5 -87.5h78v-241h-174v231q0 16 -1 34.5z" />
<glyph unicode="&#x201d;" horiz-adv-x="641" d="M84 926v104q8 2 20.5 7t26.5 22q29 31 30 69.5t-1 75.5h-76v242h174v-232q0 -59 -8 -121.5t-51 -109.5q-16 -16 -41 -31.5t-74 -25.5zM383 926v104q8 2 20.5 7t26.5 22q29 31 29 69.5v75.5h-76v242h174v-289q0 -10 -2 -33.5t-11 -54.5t-27.5 -61.5t-51.5 -51.5 q-14 -10 -31.5 -17t-50.5 -13z" />
<glyph unicode="&#x201e;" horiz-adv-x="641" d="M84 0v242h174v-232q0 -59 -8 -122.5t-51 -110.5q-16 -16 -41 -31.5t-74 -26.5v105q8 4 20.5 8t26.5 21q29 33 30 70.5t-1 76.5h-76zM383 0v242h174v-291q0 -10 -2 -33.5t-11 -54.5t-27.5 -61.5t-51.5 -51.5q-14 -10 -31.5 -17t-50.5 -14v105q31 10 49 33q27 31 27 68.5 v74.5h-76z" />
<glyph unicode="&#x2022;" horiz-adv-x="681" d="M76 723q0 10 3 39t15 59q8 23 27.5 51.5t50.5 55t74 44t100 17.5q12 0 37 -3t55 -13q57 -23 92 -57.5t51.5 -71.5t21.5 -71t5 -50q0 -117 -73.5 -191.5t-190.5 -74.5q-16 0 -45 3t-66 19q-78 35 -117.5 102.5t-39.5 141.5z" />
<glyph unicode="&#x2026;" horiz-adv-x="2048" d="M225 104q0 51 35 83t86 32q47 0 80 -34t31 -81q0 -14 -9.5 -47.5t-50.5 -54.5q-29 -14 -55 -14q-51 0 -84 34.5t-33 81.5zM909 104q0 49 35 82t84 33q47 0 79 -33t34 -82q0 -6 -2 -20t-9 -31q-16 -31 -43.5 -48t-60.5 -17q-49 0 -83 32.5t-34 83.5zM1591 104q0 51 36 83 t81 32q49 0 82 -33t33 -82q0 -47 -33 -81.5t-82 -34.5q-51 0 -84 34.5t-33 81.5z" />
<glyph unicode="&#x202f;" horiz-adv-x="372" />
<glyph unicode="&#x205f;" horiz-adv-x="465" />
<glyph unicode="&#x2122;" horiz-adv-x="1406" d="M33 1346v100h553v-100h-213v-580h-121v580h-219zM643 766v680h162l170 -537l166 537h162v-680h-117l4 422l6 137l-35 -115l-137 -444h-104l-140 444l-35 113l9 -135l6 -422h-117z" />
<glyph unicode="&#x25fc;" horiz-adv-x="1024" d="M0 0v1024h1024v-1024h-1024z" />
<glyph unicode="&#xfb01;" horiz-adv-x="811" d="M10 901v123h121v111q0 55 4 117.5t37 111.5q20 33 66.5 60.5t134.5 27.5q35 0 52 -3t34 -9v-142q-10 4 -25.5 8.5t-40.5 4.5q-29 0 -41 -5.5t-22 -15.5q-29 -23 -33 -60.5t-4 -103.5v-102h166v-123h-166v-901h-162v901h-121zM559 0v1024h162v-1024h-162zM559 1204v211 h162v-211h-162z" />
<glyph unicode="&#xfb02;" horiz-adv-x="811" d="M10 901v123h121v111q0 55 4 117.5t37 111.5q20 33 66.5 60.5t134.5 27.5q35 0 52 -3t34 -9v-142q-10 4 -25.5 8.5t-40.5 4.5q-29 0 -41 -5.5t-22 -15.5q-29 -23 -33 -60.5t-4 -103.5v-102h166v-123h-166v-901h-162v901h-121zM557 0v1446h166v-1446h-166z" />
</font>
</defs>
</svg>
