<?xml version="1.0" standalone="no"?>
<!DOCTYPE svg PUBLIC "-//W3C//DTD SVG 1.1//EN" "http://www.w3.org/Graphics/SVG/1.1/DTD/svg11.dtd" >
<svg xmlns="http://www.w3.org/2000/svg" xmlns:xlink="http://www.w3.org/1999/xlink" version="1.1">
<metadata></metadata>
<defs>
<font id="pamainbold" horiz-adv-x="811" >
<font-face units-per-em="2048" ascent="1536" descent="-512" />
<missing-glyph horiz-adv-x="512" />
<glyph horiz-adv-x="0" />
<glyph unicode="&#xd;" horiz-adv-x="512" />
<glyph horiz-adv-x="0" />
<glyph horiz-adv-x="0" />
<glyph unicode=" "  horiz-adv-x="512" />
<glyph unicode="&#x09;" horiz-adv-x="512" />
<glyph unicode="&#xa0;" horiz-adv-x="512" />
<glyph unicode="!" horiz-adv-x="468" d="M154 0v270h243v-270h-243zM160 793v653h231v-641l-39 -416h-159z" />
<glyph unicode="&#x22;" d="M106.5 1423.5q-0.5 16.5 4.5 32.5q4 23 29.5 50.5t78.5 27.5q31 0 57 -16q33 -20 38 -45t5 -58l-83 -526h-48l-79 502q-2 16 -2.5 32.5zM490.5 1423.5q-1.5 16.5 3.5 32.5q4 23 30.5 50.5t79.5 27.5q31 0 58 -16q33 -20 38 -45t2 -58l-81 -526h-48l-79 502 q-2 16 -3.5 32.5z" />
<glyph unicode="#" horiz-adv-x="1193" d="M0 471v158h305l33 219h-289v158h309l64 440h164l-62 -440h226l63 440h160l-60 -440h283v-158h-305l-33 -219h287v-158h-307l-68 -471h-164l68 471h-228l-65 -471h-168l70 471h-283zM469 629h227l31 219h-227z" />
<glyph unicode="$" horiz-adv-x="854" d="M76 1100q0 8 1 33.5t7 59.5t19.5 72t37.5 68q31 37 68 57.5t72.5 31t63.5 13.5t40 3v166h104v-166q23 -4 70 -13.5t96 -50.5q51 -41 78 -106.5t27 -192.5q0 -23 -1 -46t-1 -46h-230v135q0 29 -3 57.5t-25 51.5q-23 23 -45.5 25.5t-32.5 2.5q-47 0 -68.5 -20.5 t-29.5 -36.5q-4 -6 -7.5 -21.5t-5.5 -35.5q0 -10 -1 -19.5t-1 -19.5q0 -53 18.5 -78t34.5 -43l306 -317q18 -18 31.5 -34t29.5 -38q39 -55 48 -109.5t9 -122.5q0 -123 -29.5 -189.5t-74.5 -107.5q-57 -49 -110.5 -60t-82.5 -15v-193h-104v193q-59 4 -110.5 17t-98.5 54 q-35 31 -51 62t-23 47q-10 29 -14 60.5t-6 90.5v160h227v-162q0 -10 1 -27.5t9 -39.5q8 -25 24.5 -38t34 -19.5t33 -8.5t21.5 -2q29 0 46.5 7.5t25.5 11.5q37 27 44 71.5t7 83.5q0 37 -6 62.5t-15.5 44t-20.5 33t-24 26.5l-288 295q-12 12 -27.5 29.5t-38.5 48.5 q-23 33 -41 77t-18 128z" />
<glyph unicode="%" horiz-adv-x="1449" d="M53 637.5v34.5v463q0 29 1 52t12 52q27 78 93 106.5t138 28.5q8 0 39 -2t67.5 -13t71.5 -36t53 -70q10 -25 12.5 -52t4.5 -52v-481q-2 -18 -7.5 -62.5t-41.5 -87.5q-25 -29 -53.5 -43t-56.5 -20t-49.5 -7.5t-33.5 -1.5q-10 0 -43 1.5t-70.5 13.5t-73.5 39.5t-53 81.5 q-10 29 -10 55.5zM217 655q2 -27 8 -44t33 -27q12 -4 25.5 -5t15.5 -1q8 0 20.5 1t28.5 9q18 10 23.5 25.5t7.5 52.5v485v28.5t-7 32t-23.5 25.5t-49.5 10t-50.5 -11t-24.5 -26.5t-7 -33v-27.5v-494zM389 -47l545 1511l129 -47l-543 -1509zM905 213v463q2 29 3 53.5t12 52.5 q8 23 24.5 46.5t44 43t67.5 31.5t95 12q8 0 39 -2t67.5 -13t71.5 -35.5t53 -71.5q8 -18 11.5 -41t5.5 -62v-481q-2 -41 -10.5 -76t-36.5 -70q-25 -29 -54.5 -44t-57.5 -22t-50.5 -8t-32.5 -1h-35.5t-56.5 7t-63.5 24.5t-57.5 50.5q-4 4 -12 17t-14 30q-6 16 -8.5 38.5 t-4.5 57.5zM1071 197q0 -25 6 -42.5t31 -27.5q18 -8 45 -8q6 0 18.5 1t28.5 9q27 14 30 34.5t3 45.5v485v16.5t-2 16.5q-2 23 -16.5 42t-61.5 19q-35 0 -51.5 -11t-23.5 -26.5t-7 -32v-26.5v-495z" />
<glyph unicode="&#x26;" horiz-adv-x="1067" d="M55 373q0 59 9.5 99t19.5 63q20 57 53 107t67 89t62.5 65.5t40.5 37.5q-16 29 -28 53q-4 8 -16.5 35.5t-27 67.5t-24.5 87t-10 92q0 82 40 160t117 115q43 20 84 23t58 3q14 0 51 -3t78 -19q20 -10 45.5 -26.5t48 -45t39 -69.5t16.5 -97q0 -66 -18.5 -121t-48 -104 t-67.5 -94t-77 -92l189 -369l12 31q12 31 20.5 76t10.5 118h211q-4 -88 -16.5 -153.5t-30 -116.5t-39 -90t-45.5 -74q12 -14 25.5 -24.5t30.5 -16.5t41.5 -9t59.5 -3l-2 -174q-12 -2 -44 -7t-70 -5q-78 0 -121 25.5t-68 49.5q-74 -41 -133 -61.5t-141 -20.5q-20 0 -64.5 4.5 t-95.5 22.5q-121 45 -181.5 146.5t-60.5 224.5zM295 375q0 -8 2 -29.5t10 -44.5q20 -49 65.5 -78.5t98.5 -29.5q23 0 58.5 7t82.5 36l-211 382q-43 -55 -74.5 -111t-31.5 -132zM420 1182q0 -25 7 -53.5t16.5 -52t16.5 -41t9 -19.5q14 23 27.5 42t27.5 42q25 41 32 62.5 t7 45.5q0 47 -25.5 61.5t-41.5 14.5q-41 -2 -58.5 -34.5t-17.5 -67.5z" />
<glyph unicode="'" horiz-adv-x="425" d="M106.5 1423.5q-0.5 16.5 4.5 32.5q4 23 29.5 50.5t78.5 27.5q31 0 57 -16q33 -20 38 -45t5 -58l-83 -526h-48l-79 502q-2 16 -2.5 32.5z" />
<glyph unicode="(" horiz-adv-x="598" d="M111 203v823q0 43 12 119t74 168q47 66 114.5 124t139.5 97q25 14 51 26.5t55 24.5l-2 -190q-23 -12 -56.5 -38t-70.5 -77q-49 -72 -61.5 -142.5t-12.5 -154.5v-801q0 -12 1 -36.5t6.5 -56.5t16.5 -67.5t34 -70.5q16 -27 51 -65t94 -81l-2 -178q-29 10 -66.5 27.5 t-95.5 54.5q-18 12 -55 38t-78 67t-78 97t-55 130q-10 41 -12 81t-4 81z" />
<glyph unicode=")" horiz-adv-x="598" d="M41 -373l2 191q23 14 62.5 45t76.5 90q41 66 50.5 132.5t11.5 143.5v801q0 18 -1 51t-14 80q-23 86 -71.5 139.5t-116.5 106.5l2 178q43 -14 82 -34.5t80 -47.5q18 -12 52 -35.5t71 -60.5t72.5 -87t58.5 -114q16 -49 21 -97t7 -99v-824q0 -33 -2 -61.5t-10 -61.5 q-29 -123 -114 -215t-187 -155q-39 -23 -65.5 -36t-67.5 -30z" />
<glyph unicode="*" horiz-adv-x="681" d="M35 1155l43 139l186 -53v205h150v-205l186 59l47 -135l-186 -65l119 -158l-119 -90l-115 162l-117 -162l-116 80l116 168z" />
<glyph unicode="+" horiz-adv-x="1024" d="M66 514v164h364v366h162v-366h366v-164h-366v-369h-162v369h-364z" />
<glyph unicode="," horiz-adv-x="382" d="M53 -276l140 276h-119v264h239v-264l-170 -276h-90z" />
<glyph unicode="-" horiz-adv-x="681" d="M68 446v203h548v-203h-548z" />
<glyph unicode="." horiz-adv-x="382" d="M72 0v264h239v-264h-239z" />
<glyph unicode="/" horiz-adv-x="512" d="M25 0l266 1446h201l-265 -1446h-202z" />
<glyph unicode="0" d="M59 317v705q0 14 1 27.5t1 29.5q4 53 14.5 96.5t43.5 86.5q33 45 76 68.5t83.5 34.5t74.5 13t48 2q78 0 134.5 -16t95.5 -42t62.5 -58.5t35.5 -65.5q10 -29 14.5 -61.5t6.5 -94.5v-731q0 -31 -2.5 -55.5t-10.5 -52.5q-4 -18 -15 -48t-34.5 -59.5t-59.5 -57.5t-89 -42 q-18 -4 -49 -9t-78 -5q-72 0 -143.5 16t-127.5 70q-12 12 -30.5 35.5t-30.5 64.5q-10 29 -14.5 59.5t-6.5 89.5zM297 293q0 -10 1 -31.5t10 -43t30.5 -37t62.5 -15.5q27 0 43.5 6t26.5 12q33 23 37 56.5t6 68.5v740v11v23.5t-2 28.5t-6 27q-10 35 -37 49t-61 14 q-47 0 -70 -18.5t-32 -43t-9 -48v-33.5v-766z" />
<glyph unicode="1" d="M98 954l2 189q8 4 20.5 6t29.5 10q8 2 26.5 12.5t42 24.5t48 32.5t46.5 41.5q18 20 30.5 36.5t39.5 55.5h160v-1362h-240v1038q-8 -6 -15 -12t-18 -12q-20 -12 -64 -30.5t-108 -29.5z" />
<glyph unicode="2" d="M43 0v33q4 92 16.5 175t53.5 169q41 82 93 139t118 121l31.5 31.5l31.5 31.5q29 29 59.5 61t47.5 70q10 23 12 45.5t4 47.5v155q-2 29 -7 55.5t-28 45.5q-18 14 -37.5 16t-27.5 2q-4 0 -23.5 -1t-36.5 -9q-37 -18 -45 -52t-10 -69v-162h-223v166q0 61 12 113.5t53 99.5 q33 37 74 56.5t79 28.5t68.5 10t42.5 1q10 0 51.5 -2t92.5 -16t99 -47t75 -94q16 -39 20 -83t6 -53v-180q-4 -53 -6 -77.5t-12 -51.5q-20 -61 -83.5 -131t-166.5 -170q-43 -43 -91 -94t-69 -113q-4 -16 -6 -25.5t-4 -37.5h453v-205h-717z" />
<glyph unicode="3" d="M59 262v166h236v-145q0 -45 6 -60q10 -23 34.5 -41t76.5 -18q8 0 24.5 2t34.5 12q29 16 35 42t8 54v205q-2 37 -5 72t-36 63q-29 25 -64.5 28t-70.5 5h-49v160h49h20.5t36 4t41 13.5t37.5 25.5q27 27 30 58.5t3 66.5v102v20.5t-4 32t-16.5 34t-39.5 24.5q-14 4 -27 6 t-18 2q-6 0 -19 -2t-29.5 -8t-31 -19.5t-20.5 -36.5q-4 -10 -4 -21v-13v-142h-225v170q0 12 4 46t22 69q20 43 56 69.5t79 43t89.5 22.5t89.5 6q68 0 119 -13t87.5 -34.5t61.5 -49.5t37 -56q10 -20 16 -47t10 -74v-160q-2 -41 -6 -76.5t-35 -68.5q-33 -35 -71.5 -46.5 t-81.5 -19.5q20 -4 44.5 -8t48.5 -12t45.5 -20.5t33.5 -32.5q25 -35 28 -79t3 -83v-207q-2 -49 -6.5 -76t-12.5 -49q-12 -31 -36.5 -63.5t-63.5 -60.5t-94.5 -45t-130.5 -17q-12 0 -55.5 3t-93.5 19t-100 51t-77 99q-10 23 -14.5 43t-8.5 65z" />
<glyph unicode="4" d="M43 258v191l350 919h285v-919h82v-191h-82v-258h-219v258h-416zM244 449h215l14 677z" />
<glyph unicode="5" d="M57 283v141h236v-139v-20.5t4 -31.5q6 -20 27.5 -42.5t72.5 -22.5q47 0 71 18.5t32 36.5q6 14 8 28.5t2 29.5v337q2 37 -4 75t-43 61q-10 6 -23.5 11t-38.5 5q-20 0 -56 -13.5t-58 -64.5q-6 -14 -9.5 -24.5t-7.5 -34.5h-188l14 729h635v-205h-442l-4 -278q23 16 72 43.5 t128 27.5q61 0 106.5 -18.5t75 -44t46 -55t24.5 -52.5t10.5 -48t4.5 -77v-338q-2 -55 -6.5 -84.5t-12.5 -58.5q-23 -74 -69 -112.5t-96 -56t-94 -20.5t-62 -3q-8 0 -35 1t-62.5 7t-76.5 18t-74 37q-39 29 -59.5 64.5t-31 70.5t-13.5 62.5t-3 40.5z" />
<glyph unicode="6" d="M63 301v784q0 20 6.5 67.5t36.5 96.5q25 39 61 64.5t77 40t86 20.5t88 6q35 0 76 -5t79.5 -18.5t72.5 -35t54 -53.5q20 -33 28.5 -69t12.5 -103v-95h-225v74q-2 29 -6 61.5t-37 49.5q-18 10 -36.5 11t-24.5 1q-45 0 -67.5 -15.5t-33 -37t-12.5 -44t-2 -36.5l2 -268 q12 10 31.5 24.5t45 27.5t60.5 22.5t78 9.5q59 0 100 -17.5t68 -43t40 -54.5t19 -49q4 -18 7.5 -41t3.5 -62v-317q0 -10 -1 -54t-18 -85q-12 -33 -35.5 -65t-62.5 -56.5t-94.5 -39.5t-130.5 -15q-12 0 -43 1t-70 10t-81 27.5t-77 53.5q-29 29 -41 54.5t-18 39.5 q-14 41 -15.5 82t-1.5 51zM297 326q2 -35 5 -69t30 -60q23 -23 46 -26t36 -3q47 0 67.5 21.5t26.5 37.5q4 10 6 25.5t4 38.5v248q0 53 -8 80.5t-31 44.5q-8 6 -24.5 13t-40.5 7q-8 0 -26.5 -3t-39.5 -13q-37 -23 -44 -52.5t-7 -66.5v-223z" />
<glyph unicode="7" d="M41 1001v361h735v-203q-14 -23 -27.5 -46t-25.5 -48q-29 -53 -80 -167t-96 -267q-10 -31 -26.5 -94.5t-34 -147.5t-29 -184.5t-11.5 -204.5h-256q0 31 3.5 62.5t8.5 68.5t13 83t23 108q29 129 65.5 243.5t73.5 209.5t69.5 167t55.5 115q14 29 28.5 53.5t28.5 50.5h-319 v-160h-199z" />
<glyph unicode="8" d="M57 293v174l3 58.5t6 39.5q14 70 52 101.5t97 60.5q-2 2 -25.5 13.5t-42.5 25.5q-29 23 -43 49.5t-20 52t-7 46t-1 32.5v144q2 53 10 99t43 89q14 18 31.5 32.5t38.5 26.5q29 16 62.5 24.5t62 12.5t51 5t31.5 1q70 0 121 -13t87.5 -34.5t61 -49.5t37.5 -58 q10 -25 14 -56.5t6 -87.5v-118q-2 -59 -5 -86t-19 -56t-41 -47t-78 -47q39 -16 59.5 -28.5t36.5 -26.5q41 -35 49 -80t13 -94v-185q-2 -72 -14.5 -131t-69.5 -112q-37 -33 -75 -51.5t-73 -26.5t-63.5 -9t-44.5 -1q-72 0 -126.5 15t-94.5 38.5t-64.5 53.5t-38.5 61 q-10 27 -16.5 57.5t-10.5 85.5zM293 293q4 -51 15 -73.5t36 -35.5q29 -14 59 -14q8 0 27 2t37 12q35 18 40 47t9 62v213q-2 33 -6 62.5t-35 52.5q-20 14 -39.5 16t-27.5 2q-45 0 -69 -16.5t-34 -39t-11 -45t-1 -34.5v-211zM301 926q2 -57 16 -80q10 -16 31 -26.5t60 -10.5 q23 0 41 5t34 24q20 23 22.5 48t2.5 54v143q-2 31 -9 55.5t-36 41.5q-18 10 -33.5 12t-23.5 2q-33 0 -62 -14.5t-39 -49.5q-4 -12 -4 -23v-15v-166z" />
<glyph unicode="9" d="M53 258v109h236v-86q2 -16 3 -32t5 -32q8 -20 30.5 -37.5t69.5 -17.5q6 0 21.5 1t33 7t34 20.5t22.5 38.5q4 10 4 20.5v29.5v288q-29 -20 -77 -50t-130 -30q-57 0 -98 13.5t-68.5 34t-44 45t-24.5 49.5q-6 18 -10.5 38.5t-6.5 59.5v336q2 53 9.5 98t35.5 92 q12 23 30.5 41.5t39.5 32.5q35 23 91 38t149 15q70 0 122 -12t89.5 -33.5t62.5 -48t39 -57.5q12 -29 17 -58.5t7 -89.5v-790q0 -53 -9 -98.5t-42 -90.5q-53 -74 -138 -97t-171 -23q-12 0 -43 1t-71 10t-80.5 28.5t-73.5 56.5q-10 12 -26.5 35.5t-27.5 60.5q-4 20 -6 41 t-4 43zM289 823q2 -47 5 -69.5t21 -44.5q10 -10 28.5 -20.5t53.5 -10.5q31 0 49.5 7t28.5 17q29 25 33 55.5t4 65.5v252q-2 33 -7 59.5t-36 49.5q-10 4 -25.5 11t-40.5 7q-45 0 -68.5 -18.5t-33.5 -41t-11 -46t-1 -35.5v-238z" />
<glyph unicode=":" horiz-adv-x="468" d="M156 0v266h245v-266h-245zM156 780v269h245v-269h-245z" />
<glyph unicode=";" horiz-adv-x="468" d="M137 -276l146 276h-129v266h243v-266l-168 -276h-92zM154 782v267h243v-267h-243z" />
<glyph unicode="&#x3c;" horiz-adv-x="1024" d="M0 635v176l1024 496v-179l-821 -405l821 -406v-178z" />
<glyph unicode="=" horiz-adv-x="1024" d="M0 328v159h1024v-159h-1024zM0 698v160h1024v-160h-1024z" />
<glyph unicode="&#x3e;" horiz-adv-x="1024" d="M0 139v178l821 406l-821 405v179l1024 -496v-176z" />
<glyph unicode="?" horiz-adv-x="854" d="M133 948v152v53t8 84q6 45 24.5 86t56.5 72.5t98.5 50t152.5 18.5h36t59.5 -6t70.5 -18.5t70 -36.5q10 -6 28.5 -25.5t32.5 -48.5t20.5 -72t6.5 -110q0 -29 -1 -55.5t-3 -55.5q-2 -41 -6.5 -66.5t-13.5 -47t-23.5 -45t-36.5 -56.5l-103 -149q-43 -59 -61.5 -94t-22.5 -72 q-4 -18 -4 -36.5v-35.5v-45h-231v72q-2 27 -1 41t3 26q6 53 22.5 86t44.5 78l136 209q14 25 28 45q23 35 27 58.5t2 64.5v129q0 8 -3 24.5t-12.5 34t-26.5 29.5t-50 12q-51 0 -71.5 -22.5t-24.5 -42.5q-4 -10 -5 -45v-240h-227zM291 0v266h237v-266h-237z" />
<glyph unicode="@" horiz-adv-x="1835" d="M141 487q0 113 22.5 209.5t56.5 175t71 137t67 97.5q39 49 103.5 110.5t156 115.5t207 90t260.5 36q84 0 151 -13t119 -34.5t92 -49.5t69 -54q33 -29 64.5 -69t57 -93t41 -122t15.5 -157q0 -72 -11.5 -138t-28 -121.5t-32.5 -97.5t-29 -65q-10 -20 -45 -76.5t-88 -109.5 q-12 -10 -33.5 -29.5t-52.5 -38t-69.5 -33t-83.5 -14.5q-8 0 -29 2t-44.5 11.5t-47 29t-37.5 54.5q-10 25 -11 49t-1 28q-12 -16 -38 -45.5t-63 -57.5t-86 -48.5t-108 -20.5q-18 0 -61.5 8.5t-90.5 43.5q-74 55 -94.5 135t-20.5 153q0 20 2.5 62.5t16.5 99.5 q14 55 39.5 112.5t60.5 108t80 92t98 68.5q16 8 51 20.5t87 12.5q12 0 32.5 -2t47 -11.5t55 -28t53.5 -50.5q16 -18 25.5 -39t19.5 -43l31 127h139l-67 -307q-8 -37 -17.5 -83t-19 -94.5t-15.5 -94.5t-6 -83q0 -47 19.5 -66.5t42.5 -19.5q43 0 100 49.5t104 135.5 q14 27 33 66.5t35 93t27.5 117t11.5 134.5q0 119 -37 210t-104.5 152.5t-160.5 92.5t-206 31q-47 0 -145.5 -16.5t-216.5 -82.5q-20 -10 -52 -30.5t-69 -50t-77 -69.5t-77 -91q-25 -33 -54.5 -84.5t-56 -119t-45 -150.5t-18.5 -179q0 -23 3 -69t18.5 -104t47 -122.5 t91.5 -126.5q68 -72 148.5 -110.5t154.5 -57t131 -22.5t80 -4q39 0 96 5t128 24.5t154 56.5t171 100q14 10 29.5 22.5t29.5 22.5q23 16 40 33.5t34 34.5l65 -84q-16 -18 -34.5 -36t-36.5 -34q-37 -31 -100.5 -76t-149.5 -85t-194.5 -68.5t-233.5 -28.5q-29 0 -92.5 4 t-141.5 27q-72 18 -167 60t-181 124t-145.5 210t-59.5 316zM651 487q0 -29 4 -63.5t21 -63.5q10 -20 23.5 -33.5t23.5 -19.5q29 -23 52.5 -25.5t35.5 -2.5q29 0 79 18t101 80q16 20 37 52t38 75t28.5 95.5t11.5 113.5v33.5t-8 50.5q-4 12 -14.5 34.5t-29 44t-47 37 t-67.5 15.5q-29 0 -80 -16.5t-98 -80.5q-37 -49 -59.5 -103t-34 -102t-14.5 -85t-3 -54z" />
<glyph unicode="A" horiz-adv-x="894" d="M20 0l281 1446h305l271 -1446h-271l-35 236h-245l-39 -236h-267zM358 459h185l-88 620z" />
<glyph unicode="B" horiz-adv-x="980" d="M102 0v1446h449q66 0 126 -6t114 -49q61 -47 72 -108.5t14 -131.5v-129v-12.5t-1.5 -25.5t-3.5 -32.5t-4 -31.5q-10 -45 -30.5 -72t-43 -41t-46 -20.5t-39.5 -8.5q63 -12 92.5 -28.5t50.5 -40.5q35 -45 37 -94.5t4 -100.5v-205q0 -16 -1 -32.5t-1 -32.5q0 -12 -4 -40 t-16.5 -60.5t-38 -63.5t-68.5 -51q-47 -23 -100.5 -25t-104.5 -4h-457zM369 209h112h33.5t34.5 4q43 6 63 37q19 28 19 91v13v170q0 33 -1 48.5t-7 31.5q-16 45 -57.5 53.5t-82.5 8.5h-114v-457zM369 874h96h44t28 5q39 6 57 34.5t18 94.5v98q0 27 -1 38t-5 25 q-6 25 -19.5 39.5t-31.5 20.5t-38.5 8t-41.5 2h-106v-365z" />
<glyph unicode="C" horiz-adv-x="937" d="M90 307v787q2 18 2 37.5t2 37.5q4 70 25.5 124.5t77.5 99.5q45 35 111.5 59.5t187.5 24.5q70 0 140.5 -12.5t129.5 -53.5q29 -20 52.5 -47t37.5 -59q16 -35 20.5 -67t4.5 -97v-221h-263v182q-2 14 -2 26.5t-2 24.5q-4 66 -36.5 92.5t-96.5 26.5q-29 0 -45 -5t-26 -12 q-37 -23 -43.5 -62.5t-8.5 -78.5v-774v-35t4 -24q14 -104 127 -105q33 0 52.5 7t31.5 16q31 23 37 56.5t8 98.5v189h263v-205q-2 -43 -4.5 -87t-16.5 -85q-27 -76 -83 -116t-115.5 -58.5t-108.5 -20.5t-61 -2q-47 0 -85 5.5t-53 9.5q-80 16 -145.5 55t-97.5 117 q-16 41 -18.5 75.5t-2.5 75.5z" />
<glyph unicode="D" horiz-adv-x="980" d="M102 0v1446h490q14 0 36.5 -2t48 -9.5t55.5 -21.5t59 -39q37 -31 57 -66.5t31.5 -74.5t14.5 -81t3 -87v-676v-39.5t-2 -40.5q-6 -115 -49 -176t-86 -88q-55 -31 -112.5 -36t-117.5 -9h-428zM369 211h94h37.5t38.5 4q33 6 51 20.5t27.5 34t11.5 45t2 52.5v720q0 35 -4 67 t-33 56q-27 23 -58.5 24t-62.5 1h-104v-1024z" />
<glyph unicode="E" horiz-adv-x="854" d="M102 0v1446h701v-219h-434v-340h409v-219h-409v-445h454v-223h-721z" />
<glyph unicode="F" d="M102 0v1446h709v-223h-440v-363h413v-215h-413v-645h-269z" />
<glyph unicode="G" horiz-adv-x="980" d="M90 264v823q2 49 6 97.5t21 95.5q23 59 64.5 98t95 60.5t111.5 30t114 8.5q43 0 93 -5.5t97 -20.5t88 -41t68 -67q31 -47 35 -92t4 -61v-211h-266v139q0 37 -4.5 72t-41.5 57q-10 6 -29.5 13.5t-49.5 7.5q-10 0 -36 -3t-48 -20q-31 -23 -41.5 -59.5t-10.5 -104.5v-764 v-28.5t11 -46.5q10 -23 33.5 -44.5t80.5 -21.5q10 0 43 4t62 33q23 29 27 61.5t4 67.5v225h-164v217h430v-784h-228v86q-23 -23 -33 -34t-24 -21q-29 -23 -59.5 -35t-58 -18.5t-49 -7.5t-34.5 -1q-68 0 -118 16.5t-84.5 41t-56 54.5t-31.5 56q-12 31 -14.5 62.5t-6.5 64.5z " />
<glyph unicode="H" horiz-adv-x="980" d="M102 0v1446h267v-567h243v567h267v-1446h-267v662h-243v-662h-267z" />
<glyph unicode="I" horiz-adv-x="468" d="M102 0v1446h265v-1446h-265z" />
<glyph unicode="J" d="M2 264v195h248v-137v-19q0 -41 7 -66q9 -30 38 -44q20 -12 49 -13q10 0 25.5 2t31.5 17q25 16 32 46.5t7 84.5v1116h269v-1118q0 -10 -1 -58.5t-16 -95.5q-23 -80 -74 -122t-108 -60.5t-105.5 -20.5t-64.5 -2q-10 0 -35.5 1t-60.5 6.5t-73 18.5t-71 38q-16 10 -39.5 36.5 t-40.5 73.5q-12 39 -14 73t-4 48z" />
<glyph unicode="K" horiz-adv-x="937" d="M102 0v1446h271v-563l289 563h274l-330 -625l338 -821h-289l-282 707v-707h-271z" />
<glyph unicode="L" horiz-adv-x="768" d="M102 0v1446h267v-1227h391v-219h-658z" />
<glyph unicode="M" horiz-adv-x="1409" d="M102 0v1446h435l170 -1012l172 1012h428v-1446h-267l25 1253l-234 -1253h-247l-240 1253l21 -1253h-263z" />
<glyph unicode="N" horiz-adv-x="1024" d="M102 0v1446h342l261 -1061l-27 1061h244v-1446h-336l-256 1083l22 -1083h-250z" />
<glyph unicode="O" horiz-adv-x="980" d="M90 309v811q0 12 1 42t8 69t25.5 79t55.5 72q41 35 117 65t199 30q156 0 242.5 -53.5t119.5 -116.5q16 -35 23.5 -76t9.5 -117v-805q-2 -70 -16.5 -131t-67.5 -112q-66 -59 -147.5 -78t-165.5 -19q-80 0 -158 15.5t-143 68.5q-33 27 -49.5 50.5t-22.5 39.5 q-18 39 -23.5 82t-7.5 84zM358 354q0 -33 3.5 -68.5t21.5 -64.5q12 -16 28.5 -24.5t33 -12.5t29.5 -5t18 -1q10 0 34.5 3t48.5 22q37 25 42.5 64.5t5.5 80.5v748v45t-17 71q-10 20 -34.5 42t-75.5 22q-10 0 -36 -4t-50 -23q-23 -16 -33 -34.5t-14.5 -40t-4.5 -44v-45.5v-731 z" />
<glyph unicode="P" horiz-adv-x="937" d="M102 0v1446h537q6 0 27.5 -1t44.5 -5q66 -14 98.5 -47t42.5 -56q23 -47 27 -108.5t4 -108.5v-190q0 -102 -8.5 -158.5t-43.5 -97.5q-33 -41 -85 -55.5t-150 -16.5h-225v-602h-269zM371 809h129q41 0 65.5 6t36.5 23q14 18 16.5 47.5t2.5 52.5v147v62t-21 55 q-12 14 -27.5 21.5t-30 9.5t-25.5 1t-15 -1h-131v-424z" />
<glyph unicode="Q" horiz-adv-x="980" d="M90 283v843q2 47 6 89t25 85q16 33 46 65t75 56.5t107.5 40t142.5 15.5q76 0 154.5 -18.5t139.5 -69.5q10 -8 31 -30t37 -54q16 -35 22.5 -75t10.5 -116v-813q0 -74 -10.5 -108.5t-28.5 -69.5l145 -152l-164 -161l-182 186l-12 -4l-12 -4q-18 -4 -60.5 -11.5t-95.5 -7.5 q-80 0 -161 21.5t-140 81.5q-23 25 -35 45t-16 33q-18 41 -21.5 80.5t-3.5 52.5zM358 309q0 -18 4.5 -39.5t16.5 -41t37.5 -33t70.5 -13.5q51 0 79 19.5t39 45t12 52.5t1 43v801q0 14 -4 36.5t-16 44t-36.5 36t-69.5 14.5q-10 0 -29 -2t-41 -12q-47 -20 -55.5 -64.5 t-8.5 -87.5v-799z" />
<glyph unicode="R" horiz-adv-x="980" d="M102 0v1446h533q47 0 91 -8t85 -39q33 -25 49.5 -54.5t24.5 -63.5t9 -69.5t1 -70.5v-156v-21.5t-2 -40t-8 -48t-19 -46.5q-2 -4 -10 -16t-20 -22q-23 -18 -48.5 -28.5t-78.5 -23.5q4 0 30.5 -8t48.5 -20q43 -23 67 -55.5t35 -64.5t13 -60.5t2 -43.5v-294v-20.5t3 -45.5 t11.5 -55.5t22.5 -48.5q6 -6 11 -11.5t14 -11.5h-293q-4 6 -6 11t-6 12q-8 16 -16.5 44.5t-10.5 71.5v330v33.5t-2 36.5q-6 59 -45 77.5t-92 20.5h-127v-637h-267zM369 844h139q27 2 54.5 7t45.5 28q16 18 17.5 38.5t5.5 63.5v139q-4 41 -9.5 60.5t-21.5 36.5q-23 18 -44 20 t-48 2h-139v-395z" />
<glyph unicode="S" horiz-adv-x="937" d="M78 299v211h264v-168q2 -41 5 -82t42 -65q12 -8 31.5 -14.5t50.5 -6.5q35 0 56.5 7t35.5 20q29 23 34 70.5t5 121.5q0 14 -2 55t-27 78q-16 23 -34.5 37.5t-26.5 20.5l-252 170q-41 31 -66.5 52t-54.5 66q-23 39 -37 88.5t-14 141.5v29.5t3 49t10.5 59.5t21.5 60 q31 66 86 102t112.5 52t103.5 19.5t56 3.5q16 0 62.5 -3.5t101.5 -20.5t106.5 -56t79.5 -111q6 -14 9.5 -24.5t5.5 -23.5t4 -29.5t4 -43.5v-143h-266v147q0 16 -5 35t-17.5 34t-35 25.5t-61.5 10.5q-47 0 -83 -26.5t-36 -117.5v-17t2 -36.5t8.5 -44t18.5 -41.5 q10 -14 55 -47l258 -178q14 -10 50 -40t69 -73q25 -31 36 -59.5t16 -58t5 -61.5v-71v-71.5t-1 -55t-4 -45t-9 -41.5q-12 -43 -36.5 -82.5t-70 -70.5t-111 -49.5t-157.5 -18.5q-78 0 -154.5 15.5t-142.5 66.5q-35 29 -52 55.5t-24 43.5q-14 31 -19 59.5t-9 89.5z" />
<glyph unicode="T" d="M4 1237v209h803v-209h-268v-1237h-269v1237h-266z" />
<glyph unicode="U" horiz-adv-x="980" d="M100 332v1114h267v-1075q2 -29 3 -57.5t11 -55.5q10 -23 26.5 -35t33 -18t30.5 -7t21 -1q10 0 32.5 3t44.5 19q39 27 42 71t3 83v1073h269v-1120q-4 -66 -13.5 -121t-52.5 -111q-39 -49 -91 -75.5t-101.5 -37t-89 -11.5t-52.5 -1q-80 0 -157.5 21.5t-137.5 83.5 q-10 10 -28.5 35.5t-32.5 62.5q-16 39 -20.5 80t-6.5 80z" />
<glyph unicode="V" horiz-adv-x="854" d="M12 1446h283l141 -957l131 957h273l-273 -1446h-268z" />
<glyph unicode="W" horiz-adv-x="1449" d="M25 1446h276l145 -1090l156 1090h252l152 -1090l151 1090h270l-278 -1446h-281l-139 987l-156 -987h-284z" />
<glyph unicode="X" horiz-adv-x="980" d="M29 0l319 770l-285 676h291l138 -408l139 408h291l-289 -684l319 -762h-293l-170 502l-172 -502h-288z" />
<glyph unicode="Y" horiz-adv-x="854" d="M2 1446h281l147 -729l141 729h281l-289 -1018v-428h-272v446z" />
<glyph unicode="Z" horiz-adv-x="854" d="M47 0v168l461 1055h-402v223h705v-143l-473 -1078h465v-225h-756z" />
<glyph unicode="[" horiz-adv-x="681" d="M102 -352v1906h492v-182h-250v-1540h252v-184h-494z" />
<glyph unicode="\" horiz-adv-x="724" d="M53 1446h164l455 -1446h-164z" />
<glyph unicode="]" horiz-adv-x="681" d="M88 1372v182h494v-1906h-492v184h250v1540h-252z" />
<glyph unicode="^" horiz-adv-x="1492" d="M291 688l385 758h158l368 -758h-198l-254 533l-263 -533h-196z" />
<glyph unicode="_" horiz-adv-x="1024" d="M-20 -281h1064v-161h-1064v161z" />
<glyph unicode="`" horiz-adv-x="512" d="M-211 1446h313l138 -270h-179z" />
<glyph unicode="a" d="M66 223v74q0 57 4 112.5t45 102.5q23 27 52.5 44t57.5 34l254 127v61v20q0 34 -5 52q-7 24 -28 39q-8 4 -20 9t-33 5q-8 0 -34.5 -5t-41.5 -36q-6 -14 -7 -38.5t-1 -59.5v-39h-223v119q0 8 2 25.5t8 38t17.5 43t31.5 42.5q33 33 97.5 55.5t167.5 22.5q12 0 48 -2 t80 -14.5t87 -39t71 -75.5q18 -33 21.5 -59.5t3.5 -40.5v-584v-54.5t2 -66.5t8 -66.5t21 -50.5q2 -8 16 -18h-256q-16 16 -20.5 34.5t-8.5 57.5q-10 -10 -18 -19.5t-19 -19.5q-20 -20 -61 -48t-113 -28q-16 0 -53 5.5t-74 33.5q-33 25 -49 59t-23 71.5t-7 76.5zM303 283 q0 -59 11.5 -90t47.5 -31q27 2 46.5 12t42.5 25l26 22v307l-119 -77q-16 -12 -20 -17q-23 -23 -29 -56.5t-6 -94.5z" />
<glyph unicode="b" horiz-adv-x="854" d="M90 0v1446h244v-479q10 10 20.5 18t20.5 16q6 4 23.5 15.5t41 23t53 20.5t60.5 9q66 0 123 -38t82 -101q10 -29 12 -52.5t6 -52.5v-594q-4 -43 -7 -66.5t-9 -41.5q-25 -68 -82 -107t-129 -39q-23 0 -75 12.5t-101 59.5q-16 16 -24.5 27.5t-12.5 19.5l-2 -96h-244z M332 305.5q0 -12.5 2 -29.5q6 -47 28.5 -69.5t71.5 -22.5q10 0 30.5 3t37.5 26q16 20 21 44t5 67v440q0 27 -4 51.5t-24 42.5q-25 25 -64 25q-16 0 -48 -9.5t-48 -54.5q-4 -14 -6 -28.5t-2 -42.5v-424v-18.5z" />
<glyph unicode="c" d="M78 285v465q4 57 12 105t45 95q33 43 77 67.5t86 36t76 13.5t46 2q8 0 49 -2t90 -17.5t98.5 -47t73.5 -91.5q10 -23 14.5 -52.5t6.5 -82.5v-125h-240v127q0 20 -1 30.5t-3 20.5q-4 16 -24 42q-18 24 -58 24h-6q-23 0 -36 -5t-22 -9q-25 -16 -32.5 -45t-10.5 -82v-457 q0 -29 1.5 -43t5.5 -29q10 -33 33.5 -49t56.5 -16q4 0 20.5 2t32.5 12q29 20 35 55t6 66v121h242v-119v-35.5t-5.5 -52.5t-17.5 -60.5t-37 -62.5q-33 -41 -75 -63.5t-81.5 -31.5t-71.5 -10t-44 -1q-115 0 -179.5 29.5t-99.5 68.5q-4 6 -18 26.5t-25 47.5q-14 33 -16 65.5 t-4 67.5z" />
<glyph unicode="d" horiz-adv-x="854" d="M80 315v478v43.5t9 64.5t31.5 72t65.5 63q14 8 45 21.5t76 13.5q68 0 117 -32.5t94 -73.5v481h244v-1446h-246l2 102q-10 -12 -24.5 -33.5t-39 -42t-59.5 -33.5t-82 -13q-55 0 -91 16t-54 29q-29 20 -47.5 45.5t-27.5 59.5t-11 79t-2 106zM322 303v-20q0 -31 5 -47 q7 -20 29 -35q6 -4 22.5 -10.5t37.5 -6.5q55 0 84 41q10 16 13 33.5t5 52.5v451q-2 35 -7 61.5t-38 42.5q-20 12 -34.5 14.5t-24.5 2.5q-8 0 -22.5 -3t-31.5 -14q-31 -23 -34.5 -52.5t-3.5 -63.5v-447z" />
<glyph unicode="e" d="M78 317v443q2 12 5 56t21 85q18 45 52 78t76 52.5t88.5 28.5t93.5 9q63 0 113.5 -14.5t86 -37t59 -48t36.5 -49.5q14 -29 19 -60t9 -90v-299h-415v-172q0 -29 1 -42t5 -28q12 -41 39.5 -50t44.5 -9q59 0 77 57q2 4 2.5 10.5t2.5 12.5q0 8 2 14l2 82h235v-84q0 -29 -1 -48 t-9 -46q-16 -55 -47 -92t-72 -58.5t-91 -29.5t-101 -8q-80 0 -136.5 18t-92.5 47t-56.5 64.5t-30.5 70.5q-12 39 -15 83t-3 54zM322 643h174v129q0 8 -1 25.5t-8.5 35t-25 31t-49.5 13.5q-33 0 -51.5 -13.5t-26.5 -30t-10 -34t-2 -27.5v-129z" />
<glyph unicode="f" horiz-adv-x="512" d="M23 887v162h108v184l6 49q8 49 26.5 75.5t35.5 41.5q43 37 95 44t107 7q23 0 45.5 -1t45.5 -3v-201q-33 4 -52 4q-13 0 -20 -2q-16 -4 -25.5 -14t-13.5 -20.5t-5 -20.5t-1 -14v-129h108v-162h-110v-887h-242v887h-108z" />
<glyph unicode="g" horiz-adv-x="854" d="M78 250v555q2 31 3 58.5t11 56.5q6 18 19.5 43.5t38 49t61.5 40t90 16.5q72 0 120 -28.5t97 -75.5v84h246v-1086q-2 -16 -2 -33.5t-2 -33.5q0 -14 -4 -39t-14.5 -54.5t-31 -59.5t-57.5 -54q-31 -23 -93 -42.5t-154 -19.5q-33 0 -50.5 2t-33.5 4q-12 2 -43 8.5t-65 23 t-65.5 45t-48.5 75.5q-12 31 -14 63.5t-2 65.5h242v-19.5t4 -29.5q4 -16 23.5 -39t66.5 -23q23 0 35 5.5t20 9.5q31 16 37 48t6 62v162q-12 -14 -29.5 -31.5t-42 -33t-59.5 -26.5t-82 -11t-77.5 10t-47.5 20q-37 18 -56.5 44t-28.5 55.5t-12 63.5t-5 69zM319 293 q4 -47 9 -62q6 -20 18 -31.5t25.5 -16.5t26 -6t18.5 -1q39 0 58.5 14.5t28.5 34t11 39t2 29.5v465v28.5t-9 42t-29.5 39t-59.5 17.5q-6 0 -24.5 -2t-35.5 -17q-20 -16 -28 -37.5t-11 -68.5v-467z" />
<glyph unicode="h" horiz-adv-x="854" d="M90 0v1446h240l2 -481l27.5 27.5t43 34.5t61.5 29.5t81 12.5q72 0 127 -37t78 -106q6 -18 9 -41t5 -64v-821h-244v745q0 33 -1 49.5t-7 32.5q-10 23 -32.5 35t-49.5 12q-49 0 -68.5 -27.5t-23.5 -43.5q-4 -12 -4 -20.5v-22.5v-760h-244z" />
<glyph unicode="i" horiz-adv-x="425" d="M90 0v1049h246v-1049h-246zM90 1200v246h246v-246h-246z" />
<glyph unicode="j" horiz-adv-x="425" d="M-16 -154q37 0 53 3.5t33 17.5q20 18 21 38.5t1 65.5v1078h244v-1147v-36t-8.5 -63.5t-27.5 -71.5t-56 -59q-37 -25 -79 -29.5t-83 -4.5q-14 0 -39 1t-59 5v202zM92 1202v244h244v-244h-244z" />
<glyph unicode="k" d="M90 0v1446h242v-756l200 359h271l-268 -437l296 -612h-274l-225 535v-535h-242z" />
<glyph unicode="l" horiz-adv-x="425" d="M90 0v1446h246v-1446h-246z" />
<glyph unicode="m" horiz-adv-x="1280" d="M92 0v1049h244v-70q10 8 27.5 24.5t44 31t60.5 25.5t75 11q43 0 74.5 -12t56 -29.5t40 -35t25.5 -27.5q31 27 53.5 43t42 26.5t37 16.5t39.5 10q27 4 41.5 5t26.5 1q72 0 126 -37t75 -106q4 -20 6 -39t4 -56v-831h-244v776q0 31 -4 58.5t-33 48.5q-8 4 -20 9t-31 5 q-31 0 -49 -11.5t-28.5 -30.5t-14.5 -43t-6 -48v-764h-242v770q0 33 -2 61.5t-31 51.5q-20 18 -57 18t-56.5 -17.5t-27.5 -39t-9 -42t-1 -26.5v-776h-242z" />
<glyph unicode="n" horiz-adv-x="854" d="M90 0v1049h248l-2 -76q47 47 92 71.5t117 24.5t131 -37t80 -110q4 -23 5 -42.5t3 -60.5v-819h-242v772q-2 49 -7 72.5t-30 40.5q-6 4 -17 8t-30 4q-43 0 -64.5 -19.5t-30.5 -44t-9 -47v-30.5v-756h-244z" />
<glyph unicode="o" d="M78 297v469q2 53 6 80.5t14 52.5q18 49 52 82t76 52.5t89 27.5t95 8q12 0 51 -2t86 -16.5t92 -46t70 -89.5q12 -29 16 -57.5t8 -81.5v-506q-4 -55 -13 -98t-46 -86q-35 -41 -77 -63.5t-82 -31.5t-72.5 -10t-47.5 -1q-37 0 -63.5 3t-40.5 7q-16 2 -42 11t-55.5 28.5 t-56 49.5t-41.5 77q-10 27 -13 56.5t-5 84.5zM322 256q0 -6 1 -24.5t9 -37t24.5 -33t49.5 -14.5q35 0 52 15.5t25.5 34t8.5 37v24.5v533q-2 49 -8.5 73.5t-30.5 40.5q-12 10 -25.5 11.5t-19.5 1.5q-20 0 -31.5 -5.5t-18.5 -9.5q-29 -23 -31.5 -52.5t-4.5 -62.5v-532z" />
<glyph unicode="p" horiz-adv-x="854" d="M90 -362v1411h244v-80q8 8 28.5 24.5t48 33.5t63.5 29.5t79 12.5q10 0 30.5 -2t45 -11t50.5 -25.5t48 -45.5q33 -45 39 -94t10 -98v-557q-2 -14 -6 -61.5t-29 -94.5q-16 -29 -45 -55q-16 -14 -49 -29.5t-86 -15.5q-76 0 -125 30.5t-102 77.5v-450h-244zM334 271.5 q0 -17.5 8 -35.5q16 -41 48 -49.5t44 -8.5q39 0 59.5 16.5t26.5 32.5q8 16 9 36t1 24v485q-4 45 -12 65.5t-31 34.5q-6 4 -19 9.5t-34 5.5q-33 0 -55 -15q-31 -18 -38 -45.5t-7 -60.5v-471v-23.5z" />
<glyph unicode="q" horiz-adv-x="854" d="M78 229v572q2 29 4 57.5t12 56.5q25 74 86 115q59 39 132 39h7q41 0 75 -11t58.5 -26.5t42 -31t27.5 -25.5v74h242v-1411h-242v450q-12 -10 -24.5 -22.5t-26.5 -22.5q-41 -35 -81 -50.5t-93 -15.5t-89 17.5t-59.5 41t-37 48.5t-19.5 43q-10 33 -12 62.5t-2 39.5zM322 291 q0 -10 2 -28.5t11 -37t27.5 -32t55.5 -13.5q41 0 61.5 16.5t29.5 37t10 41t1 30.5v483q0 4 -1 17.5t-5 25.5q-10 31 -36.5 46.5t-57.5 15.5q-16 0 -28.5 -4t-18.5 -6q-33 -16 -42 -39t-9 -56v-497z" />
<glyph unicode="r" horiz-adv-x="598" d="M90 0v1049h244l-2 -134q4 8 13 24.5t24 37.5q27 33 55.5 52.5t56 27.5t51 9t39.5 1l-2 -242q-14 6 -31.5 11.5t-48.5 5.5q-10 0 -36.5 -3t-55.5 -22q-25 -18 -38 -41.5t-19 -49.5t-7 -53.5t-1 -54.5v-618h-242z" />
<glyph unicode="s" horiz-adv-x="768" d="M55 260v109h226v-82q2 -27 2 -39t4 -27q4 -18 22.5 -42.5t65.5 -24.5q6 0 22.5 2t32.5 12t28.5 34.5t12.5 65.5q0 29 -3 47.5t-10 32.5t-21.5 26.5t-37.5 28.5l-204 146q-35 29 -59.5 54.5t-39 54t-20.5 63.5t-6 80q0 78 23.5 130t65.5 82.5t99 43t129 12.5 q117 0 181.5 -34t88.5 -79q18 -31 22.5 -62.5t6.5 -64.5v-116h-211v75q0 6 -1 24.5t-9 39t-26.5 36t-53.5 15.5q-8 0 -18.5 -1t-26.5 -9q-23 -14 -31 -36.5t-8 -47.5q0 -47 17.5 -66.5t52.5 -48.5l225 -157q14 -14 31.5 -31t31.5 -33q18 -27 28.5 -65.5t10.5 -104.5 q0 -59 -7 -118.5t-48 -110.5q-35 -41 -95.5 -67.5t-172.5 -26.5q-43 0 -88 5t-85 21.5t-73 44t-51 74.5q-16 41 -19.5 81t-3.5 54z" />
<glyph unicode="t" horiz-adv-x="555" d="M14 887v162h131v381h242v-381h145v-162h-145v-598q0 -25 1 -35t5 -23q10 -37 41 -47t64 -10q10 0 20 1t21 3v-176q-20 -4 -49 -8t-76 -4q-106 0 -165 23.5t-81 74.5q-14 29 -16 59.5t-5 61.5v678h-133z" />
<glyph unicode="u" horiz-adv-x="854" d="M90 258v791h246v-754q-2 -29 0 -54.5t22 -45.5q27 -27 66 -27q6 0 25.5 3t35.5 17q14 12 21.5 32t10.5 38t2 32.5t-1 16.5v742h246v-1049h-246v86q-10 -10 -29.5 -27.5t-48 -34t-65.5 -29.5t-80 -13q-16 0 -51 6t-72 30q-31 23 -48.5 50.5t-24.5 58.5t-8 64.5t-1 66.5z " />
<glyph unicode="v" horiz-adv-x="724" d="M2 1049h244l108 -727l125 727h244l-252 -1049h-238z" />
<glyph unicode="w" horiz-adv-x="1150" d="M8 1049h238l110 -693l123 693h199l110 -693l119 693h238l-238 -1049h-229l-103 623l-122 -623h-232z" />
<glyph unicode="x" horiz-adv-x="768" d="M8 0l228 569l-185 480h252l90 -351l94 351h236l-188 -480l225 -569h-262l-119 424l-119 -424h-252z" />
<glyph unicode="y" horiz-adv-x="724" d="M2 1049h242l135 -674l104 674h240l-240 -1125q-18 -82 -35.5 -130t-44.5 -81q-29 -35 -75.5 -55t-137.5 -20q-47 0 -78.5 5t-78.5 13l37 192q12 -4 34.5 -9t57.5 -5q31 0 50 12.5t30.5 33t17.5 44t12 47.5l2 29z" />
<glyph unicode="z" horiz-adv-x="724" d="M49 0v205l367 647h-328v197h578v-197l-363 -647h379v-205h-633z" />
<glyph unicode="{" horiz-adv-x="724" d="M141 506v12q35 10 58.5 22.5t46.5 47.5q29 45 34 103.5t7 156.5v344q2 37 5 72.5t12 70.5t27.5 66t51.5 59q35 31 65.5 42t45.5 16q14 2 37.5 5t48 4t48 3t40.5 2l-2 -12q-43 -10 -79 -25.5t-69 -52.5q-41 -43 -48 -102.5t-9 -161.5v-201v-112.5t-4 -112.5q0 -8 -1 -30 t-8.5 -49.5t-22.5 -57t-42 -54.5q-16 -16 -36.5 -26.5t-61.5 -24.5q41 -16 69.5 -31.5t57.5 -52.5q16 -25 26.5 -47.5t15.5 -50t7 -63.5t2 -85v-340q2 -100 10 -157.5t45 -100.5q33 -39 70 -55t80 -27l-2 -12q-119 2 -187.5 18.5t-116.5 67.5q-31 33 -46 73t-21 81t-7 83 t-1 76v265q0 53 -1 94t-5.5 73.5t-12.5 59.5t-24 51q-23 35 -45.5 48.5t-57.5 27.5z" />
<glyph unicode="|" horiz-adv-x="468" d="M152 -512v2044h165v-2044h-165z" />
<glyph unicode="}" horiz-adv-x="724" d="M59 -500q41 10 76 23.5t68 48.5q41 43 50 104.5t11 165.5v201v105.5t2 105.5q0 6 2 29.5t9.5 54.5t23.5 63.5t45 59.5q20 18 44 28.5t50 20.5q-2 0 -22.5 7t-38.5 18q-29 16 -47.5 36.5t-29.5 40t-17 36t-9 24.5q-10 43 -12 111.5t-2 168.5v226q0 88 -7 140t-30 93 q-18 31 -42.5 50.5t-49 31.5t-45 18.5t-29.5 8.5v12q66 -2 115 -8t87 -17.5t66.5 -31t51.5 -50.5q18 -25 29.5 -52t18.5 -62t9 -79t2 -102v-264q0 -57 1 -100t6.5 -78t16.5 -61.5t30 -51.5q23 -29 43 -40t49 -21v-12q-20 -6 -27.5 -9.5t-17.5 -7.5q-12 -6 -29.5 -19 t-34.5 -42q-25 -43 -30 -101.5t-5 -152.5v-256q-2 -43 -3 -86t-5 -86q-2 -16 -7 -43t-20.5 -58.5t-42 -63.5t-71.5 -54q-23 -10 -45.5 -16.5t-48 -9.5t-59.5 -5t-79 -4v12z" />
<glyph unicode="~" horiz-adv-x="1492" d="M254 594q10 12 30.5 41t54.5 58.5t80 51t107 21.5q61 -2 117.5 -23.5t110.5 -46.5l67 -30q35 -16 70 -29.5t74 -13.5t72.5 18t60 41t43 43t20.5 25l78 -148q-14 -16 -32.5 -37.5t-57.5 -50.5q-10 -8 -26.5 -20.5t-41 -24.5t-55.5 -20.5t-68 -8.5q-45 2 -86 15.5 t-116 48.5l-62 31q-4 2 -20.5 9t-40 16t-51 16.5t-54.5 7.5q-35 0 -62.5 -12.5t-50 -33t-42 -44t-37.5 -48.5z" />
<glyph unicode="&#xa1;" horiz-adv-x="468" d="M72 1176v270h243v-270h-243zM78 0v641l39 416h159l33 -404v-653h-231z" />
<glyph unicode="&#xa3;" horiz-adv-x="980" d="M45 147q0 78 52.5 126.5t127.5 48.5q25 0 49.5 -5.5t46 -12.5t38 -13t20.5 -8l11 27.5t7 45.5q0 35 -18.5 88.5t-56.5 124.5h-228v125h176l-37 86q-6 16 -18 45t-22.5 68t-18.5 86t-8 100q0 115 32.5 177.5t71.5 97.5q33 29 93.5 57.5t160.5 28.5q66 0 132.5 -17.5 t117.5 -58.5q31 -25 51.5 -56.5t34.5 -68.5q14 -41 17.5 -77t7.5 -77v-100h-236v84q0 12 -1 23.5t-1 23.5q0 10 -3 31.5t-14.5 43t-35 37t-62.5 15.5q-10 0 -30.5 -3t-42.5 -21q-27 -23 -39 -58t-12 -100q0 -104 32.5 -189.5t71.5 -177.5h217v-125h-172q4 -16 11 -40.5 t7 -65.5q0 -43 -8 -82t-18 -70.5t-19.5 -55.5t-15.5 -36l12 -8t13 -8q20 -10 51 -22.5t53 -12.5q6 0 18.5 2t24.5 10q27 20 32 53t9 62l2 108h207v-153q0 -6 -2 -42t-10 -67q-6 -23 -19.5 -50.5t-38 -54t-64.5 -44t-100 -17.5q-12 0 -35.5 2.5t-52.5 12.5q-27 8 -77 29.5 t-107 60.5l-25.5 -25.5t-43 -35t-59.5 -31t-77 -13.5q-10 0 -30.5 2.5t-44.5 12.5q-12 6 -31 17t-35 29.5t-27.5 46.5t-11.5 64zM162 141q2 -23 17.5 -37t37.5 -14q31 2 50.5 22t37.5 40q-27 23 -52.5 32t-37.5 9q-23 0 -38 -15.5t-15 -36.5z" />
<glyph unicode="&#xa4;" horiz-adv-x="1366" d="M86 223l158 154q-18 27 -37 56.5t-34 66.5t-25.5 85t-10.5 111q0 29 9.5 99.5t52.5 148.5q8 16 19 33.5t24 34.5l-154 155l123 123l154 -153q12 8 23 15t24 15q41 25 108.5 49.5t165.5 24.5q61 0 108.5 -10t84 -25.5t66.5 -34t56 -34.5l154 153l125 -123l-156 -155 q18 -27 36 -55.5t33 -65.5t24.5 -83t9.5 -108q0 -49 -6 -98q-6 -35 -14.5 -63.5t-20.5 -55t-27.5 -52t-36.5 -56.5l158 -156l-127 -123l-156 156q-25 -16 -53.5 -33.5t-65 -33t-83.5 -25.5t-111 -10q-66 0 -114 10t-84.5 25.5t-65.5 34t-55 34.5l-156 -156zM301 698 q0 -12 2 -37.5t9 -57.5t22.5 -68.5t40.5 -71.5q14 -20 41.5 -47t66.5 -49.5t88.5 -39t110.5 -16.5q14 0 43 2t64.5 12.5t74.5 29t76 53.5q20 18 42 44.5t40 61.5t29.5 81t11.5 101q0 14 -1 39t-8 55.5t-22.5 66.5t-44.5 73q-14 18 -39.5 44.5t-63.5 50.5t-87 39t-111 15 q-23 0 -63.5 -4t-94.5 -26q-113 -47 -170 -144.5t-57 -206.5z" />
<glyph unicode="&#xa6;" horiz-adv-x="468" d="M152 389h165v-780h-165v780zM152 631v780h165v-780h-165z" />
<glyph unicode="&#xa7;" horiz-adv-x="894" d="M29 637q0 39 7 63.5t13 40.5q23 53 65 103.5t81 91.5q-23 25 -37.5 46.5t-23.5 43t-13 47t-4 57.5v40t2 40q0 14 4 39t15.5 54.5t33 60.5t57.5 55q31 20 71 30.5t75 14.5t61.5 5t32.5 1q139 0 213 -39.5t102 -101.5q16 -35 18.5 -68.5t2.5 -68.5v-143h-232v92 q-2 29 -1 40t-3 27q-6 31 -20 47.5t-31.5 24.5t-34 9t-24.5 1q-37 0 -57.5 -13t-30 -31.5t-10.5 -38t-1 -29.5q0 -47 14.5 -71t49.5 -54l43 -43l25 -19l245 -211q12 -10 34 -30.5t42.5 -51t34.5 -71.5t14 -92q0 -61 -18 -117q-23 -59 -62 -104.5t-80 -90.5q25 -27 42.5 -48 t29.5 -50t17.5 -70t5.5 -104q0 -47 -8.5 -93t-36.5 -89q-33 -51 -76 -75t-98 -38q-37 -8 -67 -11t-67 -3q-10 0 -38.5 1t-67.5 8t-82 22.5t-78 43.5q-31 25 -46 49.5t-21 38.5q-8 23 -12.5 48.5t-4.5 72.5v174h236v-106v-60.5t16 -60.5q20 -33 53 -38t41 -5q49 0 72 20.5 t29 38.5q4 14 4 27.5v17.5v44.5t-2 31t-5 23.5t-12 24q-16 25 -34.5 40.5t-57.5 49.5l-258 222q-10 6 -17 13t-18 15q-25 25 -53.5 63t-40.5 72q-6 16 -12 41t-6 64zM248 682q0 -25 11 -46.5t28.5 -41t36 -35.5t32.5 -31q53 -47 109 -92t115 -88q0 2 11 14.5t23.5 31 t22.5 42t10 45.5q0 14 -6 35t-29 49q-23 29 -79 76t-132 109q-23 16 -44 34.5t-44 36.5q-20 -29 -42.5 -63.5t-22.5 -75.5z" />
<glyph unicode="&#xa8;" horiz-adv-x="512" d="M-209 1231l4 256h242v-256h-246zM168 1233v254h246v-254h-246z" />
<glyph unicode="&#xa9;" horiz-adv-x="1705" d="M125 725q0 70 11 130t27.5 108.5t35 85t34.5 61.5q16 29 49 72t95 96q31 25 75 55.5t103 57t134 44t165 17.5q119 0 215 -30.5t170 -74.5t124 -95.5t79 -90.5q20 -29 44.5 -71.5t46 -99t36 -125t14.5 -146.5q-2 -150 -65.5 -299.5t-194.5 -257.5q-109 -90 -228.5 -129 t-242.5 -39q-102 0 -186 23.5t-150.5 58.5t-115 73.5t-76.5 67.5q-29 31 -64 78t-64.5 110.5t-50 143.5t-20.5 176zM190 723q0 -25 3.5 -68t17.5 -97t41 -116.5t76 -126.5q29 -37 76 -82t113.5 -82.5t150.5 -64.5t186 -27q88 0 162 19.5t133 49.5t102 62.5t70 59.5 q68 66 106.5 138.5t58 139t25 117.5t5.5 76q0 31 -7.5 95.5t-35 142t-83 159.5t-153.5 150q-27 18 -62.5 38.5t-84 39t-106.5 29.5t-128 11q-139 0 -260 -52t-211 -141t-142.5 -211t-52.5 -259zM383 725q0 25 7 86t42 135q16 37 51 83t88.5 87t127 68.5t169.5 27.5 q18 0 51 -2t74 -13t87 -31.5t94 -57.5q23 -18 42 -38.5t39 -41.5l-114 -108q-23 25 -43 43q-14 12 -35 29.5t-48.5 31.5t-63.5 24.5t-81 10.5q-18 0 -60 -6t-89 -29q-27 -12 -58.5 -36.5t-58 -61.5t-44 -87.5t-17.5 -115.5q2 -51 11 -85t19 -54q12 -27 35 -59.5t60 -61.5 t88 -48.5t116 -19.5q27 0 85.5 11.5t123.5 62.5q16 14 30.5 28.5t29.5 30.5l114 -100q-16 -18 -32.5 -35.5t-34.5 -34.5q-18 -16 -49 -36.5t-71 -38t-89 -29.5t-109 -12q-29 0 -100.5 8t-155.5 57q-51 29 -88 66q-51 49 -79.5 103t-43 102.5t-17.5 87.5t-3 59z" />
<glyph unicode="&#xab;" horiz-adv-x="641" d="M63 451v188l209 199v-199l-79 -92l79 -82v-205zM360 453v192l209 193v-199l-88 -92l88 -86v-201z" />
<glyph unicode="&#xac;" horiz-adv-x="1366" d="M0 518v162h1366v-680h-164v518h-1202z" />
<glyph unicode="&#xad;" horiz-adv-x="681" d="M68 446v203h548v-203h-548z" />
<glyph unicode="&#xae;" horiz-adv-x="1705" d="M125 725q0 90 17.5 165t43 133t54 100t51.5 69q29 33 77 78t117.5 85t161.5 68.5t209 28.5q174 0 326.5 -74.5t259.5 -218.5q72 -98 107.5 -208.5t33.5 -231.5q0 -33 -5 -85t-23.5 -114.5t-53.5 -132.5t-92 -137q-72 -86 -153.5 -137.5t-157.5 -77t-140.5 -33.5 t-103.5 -8q-123 0 -236.5 39t-209.5 110q-35 27 -84.5 76t-93.5 121t-74.5 168t-30.5 217zM190 723q0 -133 50 -252q37 -94 100 -170t144 -130t175.5 -83t196.5 -29q31 0 89.5 6.5t133.5 32.5q100 35 181 97.5t137.5 144.5t88.5 179.5t32 201.5q0 27 -3.5 70t-16.5 96 t-38.5 112.5t-70.5 120.5q-25 33 -69 79t-109.5 87t-153.5 70.5t-201 29.5q-27 0 -69 -3t-94 -16t-111.5 -38.5t-118.5 -68.5q-33 -25 -80 -69t-90 -110.5t-73 -155.5t-30 -202zM545 268v920h299q41 0 85 -1t85 -8.5t77.5 -26.5t65.5 -56q12 -16 30.5 -53t18.5 -91 q0 -16 -4 -41.5t-17.5 -53.5t-38 -54.5t-65.5 -46.5q-10 -4 -25.5 -10.5t-39.5 -12.5q41 -18 55 -28q27 -20 41 -46t23.5 -56t13.5 -59.5t8 -58.5q14 -86 27.5 -133t34.5 -84l-189 2q-29 59 -36 119t-17 123t-24.5 94t-47.5 49q-29 16 -55.5 20.5t-83.5 6.5h-57v-414h-164z M709 811h137h27.5t27.5 2q39 4 74 18.5t53 51.5q4 4 9 20.5t5 36.5q0 12 -9 47t-48 57q-20 10 -48 14.5t-75 4.5q-10 0 -22.5 -1t-24.5 -1h-106v-250z" />
<glyph unicode="&#xb0;" horiz-adv-x="724" d="M33 1217q0 68 25.5 128t70.5 105t105 70.5t128 25.5q70 0 129.5 -25.5t104.5 -70.5t70.5 -105.5t25.5 -127.5q0 -20 -4 -57.5t-26 -84.5q-41 -86 -122 -138t-178 -52q-70 0 -130 26.5t-104 71.5t-69.5 105.5t-25.5 128.5zM201 1221q0 -68 48 -115t113 -47q68 0 115 47 t47 115q0 66 -47 113.5t-115 47.5t-114.5 -48t-46.5 -113z" />
<glyph unicode="&#xb1;" horiz-adv-x="1024" d="M63 0v162h898v-162h-898zM63 698v164h371v367h162v-367h365v-164h-365v-366h-162v366h-371z" />
<glyph unicode="&#xb4;" horiz-adv-x="512" d="M-23 1208l134 277h319q-35 -37 -69.5 -73t-67.5 -71q-33 -33 -62.5 -65.5t-60.5 -65.5z" />
<glyph unicode="&#xb5;" horiz-adv-x="1150" d="M141 748q0 94 13 131l8 16t16 24.5t26.5 21.5t39.5 9q14 0 31.5 -6t33.5 -33q12 -16 18.5 -40.5t6.5 -67.5q0 -39 -4 -78t-8 -80q-4 -49 -10.5 -97t-12.5 -97t-11 -98.5t-16 -96.5q14 -35 22.5 -50.5t16.5 -29.5q29 -41 71 -66.5t95 -25.5q16 0 46 6t63 31 q37 27 61.5 64.5t39.5 74.5t22.5 66.5t9.5 38.5q10 53 14 115.5t4 117.5t-1 95t-1 48q0 61 4 105.5t21 66.5q6 10 24.5 24.5t49.5 12.5q6 0 20 -2t31 -12q31 -23 42 -68t11 -118q0 -16 -1 -61.5t-7 -106t-18.5 -129t-32.5 -131.5q-4 -16 -13.5 -40t-27.5 -59 q23 -57 52.5 -80.5t57.5 -23.5q4 0 15.5 2t23.5 10q18 10 28.5 27.5t14.5 34t5 31t1 18.5q0 10 -1 21t-3 24l58 2q29 -70 28 -142q0 -10 -3 -37.5t-16.5 -56t-41 -52.5t-78.5 -24q-31 0 -54.5 9.5t-40 23t-27.5 26.5t-17 21q-23 29 -31 52.5t-12 37.5q-37 -55 -78 -89.5 t-81 -54t-77 -27t-63 -7.5q-61 0 -114.5 25.5t-94.5 73.5q-14 14 -18.5 20t-10.5 16q-2 -25 -3 -62.5t4 -84.5t18.5 -102.5t42.5 -114.5q12 -25 26 -47.5t29 -44.5q14 -23 26.5 -46.5t12.5 -52.5q0 -37 -24.5 -61.5t-63.5 -24.5q-16 0 -28.5 4.5t-18.5 8.5q-18 10 -35 25.5 t-33 54.5q-27 55 -40 137t-13 215v50t2 84t7 104.5t13 109.5q-4 33 -9 64.5t-9 64.5q-6 53 -11.5 112.5t-7.5 112t-3 90t-1 48.5z" />
<glyph unicode="&#xb6;" horiz-adv-x="1366" d="M178 1036q0 12 2 37t8.5 55.5t19.5 66.5t36 73q8 12 23.5 31.5t39 41t54 42t71.5 34.5q41 16 82 21.5t119 7.5h471v-111h-70v-1677h-119v1677h-294v-1677h-119v995q-59 12 -107.5 29.5t-99.5 65.5q-10 10 -28.5 29.5t-35.5 47.5q-16 27 -34.5 81.5t-18.5 129.5z" />
<glyph unicode="&#xb7;" horiz-adv-x="382" d="M55 592q0 57 40 100t100 43q59 0 98 -45t37 -104q-4 -57 -42 -94t-95 -35q-23 0 -39.5 4t-24.5 8q-35 18 -54.5 53t-19.5 70z" />
<glyph unicode="&#xb8;" horiz-adv-x="512" d="M-55 -313q23 -4 64.5 -5t64.5 5q29 10 38 27.5t9 27.5q0 20 -11.5 32.5t-24.5 18.5t-24.5 7t-13.5 1v252h90v-162h27.5t49.5 -4t57.5 -16t52.5 -37q8 -8 18 -28.5t10 -53.5q0 -16 -10 -50t-49 -60q-23 -14 -51.5 -21.5t-56 -10.5t-47 -4t-21.5 -1q-35 0 -75 4t-46 4 q-12 4 -25.5 6t-25.5 6v62z" />
<glyph unicode="&#xbb;" horiz-adv-x="641" d="M70 260v199l88 92l-88 86v201l211 -193v-192zM367 260v199l82 92l-82 82v205l208 -191v-188z" />
<glyph unicode="&#xbf;" horiz-adv-x="854" d="M57 297q0 29 1 57.5t3 57.5q0 29 1 42t6 29q10 45 28.5 75t42.5 69l105 149q43 59 60.5 94t23.5 72q4 16 4 34.5v35.5v45h231v-70q0 -41 -3 -69.5t-11 -53t-22.5 -50.5t-34.5 -58l-134 -211q-6 -8 -11 -16.5t-11 -16.5q-10 -16 -23.5 -43t-13.5 -72v-125q0 -6 1 -12 t1 -12q2 -25 9 -49.5t32 -40.5q8 -4 18.5 -7.5t30.5 -3.5q37 0 57.5 13.5t29.5 30t11.5 36t2.5 31.5v240h227v-152q0 -72 -9.5 -149.5t-62.5 -133.5q-25 -25 -57.5 -41t-68.5 -25t-72.5 -12t-69.5 -3q-92 0 -146.5 19t-89.5 44q-43 29 -61 74q-12 29 -18.5 70.5t-6.5 107.5z M324 1180v266h239v-266h-239z" />
<glyph unicode="&#xc0;" horiz-adv-x="894" d="M20 0l281 1446h305l271 -1446h-271l-35 236h-245l-39 -236h-267zM129 1833h315l136 -272h-177zM358 459h185l-88 620z" />
<glyph unicode="&#xc1;" horiz-adv-x="894" d="M20 0l281 1446h305l271 -1446h-271l-35 236h-245l-39 -236h-267zM319 1563l132 274h319l-260 -274h-191zM358 459h185l-88 620z" />
<glyph unicode="&#xc2;" horiz-adv-x="894" d="M20 0l281 1446h305l271 -1446h-271l-35 236h-245l-39 -236h-267zM137 1561l176 272h262l177 -272h-213l-90 149l-99 -149h-213zM358 459h185l-88 620z" />
<glyph unicode="&#xc3;" horiz-adv-x="894" d="M20 0l281 1446h305l271 -1446h-271l-35 236h-245l-39 -236h-267zM115 1563q2 61 14 115.5t64 97.5q51 43 120 43q33 0 73 -10.5t101 -39.5q39 -18 63.5 -28t47.5 -10q4 0 10 1t17 5q16 10 24 26.5t15 51.5h131q0 -31 -2 -65t-10.5 -64.5t-25 -58.5t-44.5 -46 q-10 -6 -34 -16.5t-58 -10.5q-41 0 -94.5 19.5t-88.5 36.5q-25 12 -49 23.5t-51 11.5t-43 -11.5t-26.5 -25t-14.5 -27.5t-6 -20zM358 459h185l-88 620z" />
<glyph unicode="&#xc4;" horiz-adv-x="894" d="M20 0l281 1446h305l271 -1446h-271l-35 236h-245l-39 -236h-267zM141 1561v247h240v-247h-240zM358 459h185l-88 620zM553 1561v247h238v-247h-238z" />
<glyph unicode="&#xc5;" horiz-adv-x="894" d="M20 0l281 1446h305l271 -1446h-271l-35 236h-245l-39 -236h-267zM281 1700q0 76 53 129t129 53q78 0 130 -54t52 -130t-53 -129t-129 -53t-129 54t-53 130zM358 459h185l-88 620zM377 1696q0 -35 25.5 -59.5t60.5 -24.5t59.5 24.5t24.5 59.5q-2 35 -26.5 59.5t-59.5 24.5 t-59.5 -24.5t-24.5 -59.5z" />
<glyph unicode="&#xc6;" horiz-adv-x="1449" d="M6 0l537 1446h860v-223h-461v-334h434v-217h-434v-449h463v-223h-729v299h-283l-100 -299h-287zM467 518h209v615z" />
<glyph unicode="&#xc7;" horiz-adv-x="937" d="M90 307v787q2 18 2 37.5t2 37.5q4 70 25.5 124.5t77.5 99.5q45 35 111.5 59.5t187.5 24.5q70 0 140.5 -12.5t129.5 -53.5q29 -20 52.5 -47t37.5 -59q16 -35 20.5 -67t4.5 -97v-221h-263v182q-2 14 -2 26.5t-2 24.5q-4 66 -36.5 92.5t-96.5 26.5q-29 0 -45 -5t-26 -12 q-37 -23 -43.5 -62.5t-8.5 -78.5v-774v-35t4 -24q14 -104 127 -105q33 0 52.5 7t31.5 16q31 23 37 56.5t8 98.5v189h263v-205q-2 -43 -4.5 -87t-16.5 -85q-27 -76 -83 -116t-115.5 -58.5t-108.5 -20.5t-61 -2q-47 0 -85 5.5t-53 9.5q-80 16 -145.5 55t-97.5 117 q-16 41 -18.5 75.5t-2.5 75.5zM307 -313q23 -4 65 -5t64 5q29 10 38 27.5t9 27.5q0 20 -11 32.5t-24.5 18.5t-24.5 7t-13 1v252h90v-162h27.5t49 -4t57.5 -16t52 -37q8 -8 18.5 -28.5t12.5 -53.5q-2 -16 -12.5 -50t-49.5 -60q-23 -14 -51.5 -21.5t-56 -10.5t-47 -4t-21.5 -1 q-35 0 -73.5 4t-47.5 4q-12 4 -25.5 6t-25.5 6v62z" />
<glyph unicode="&#xc8;" horiz-adv-x="854" d="M102 0v1446h701v-219h-434v-340h409v-219h-409v-445h454v-223h-721zM109 1833h313l137 -272h-178z" />
<glyph unicode="&#xc9;" horiz-adv-x="854" d="M102 0v1446h701v-219h-434v-340h409v-219h-409v-445h454v-223h-721zM299 1563l131 274h318l-261 -274h-188z" />
<glyph unicode="&#xca;" horiz-adv-x="854" d="M102 0v1446h701v-219h-434v-340h409v-219h-409v-445h454v-223h-721zM115 1561l176 272h264l176 -272h-215l-90 149l-98 -149h-213z" />
<glyph unicode="&#xcb;" horiz-adv-x="854" d="M102 0v1446h701v-219h-434v-340h409v-219h-409v-445h454v-223h-721zM106 1561v247h240v-247h-240zM518 1561v247h238v-247h-238z" />
<glyph unicode="&#xcc;" horiz-adv-x="468" d="M-84 1833h315l136 -272h-177zM102 0v1446h265v-1446h-265z" />
<glyph unicode="&#xcd;" horiz-adv-x="468" d="M102 0v1446h265v-1446h-265zM106 1563l132 274h317l-258 -274h-191z" />
<glyph unicode="&#xce;" horiz-adv-x="468" d="M-78 1561l176 272h264l177 -272h-213l-90 149l-99 -149h-215zM102 0v1446h265v-1446h-265z" />
<glyph unicode="&#xcf;" horiz-adv-x="468" d="M-86 1561v247h240v-247h-240zM102 0v1446h265v-1446h-265zM328 1561v247h237v-247h-237z" />
<glyph unicode="&#xd1;" horiz-adv-x="1024" d="M102 0v1446h342l261 -1061l-27 1061h244v-1446h-336l-256 1083l22 -1083h-250zM178 1563q4 61 16.5 115.5t63.5 97.5q49 43 121 43q33 0 71.5 -10.5t100.5 -39.5q39 -18 64.5 -28t46.5 -10q4 0 10 1t16 5q16 10 24.5 26.5t14.5 51.5h131q0 -31 -2 -65t-10 -64.5 t-23.5 -58.5t-44.5 -46q-10 -6 -34.5 -16.5t-59.5 -10.5q-41 0 -94 19.5t-88 36.5q-23 12 -48.5 23.5t-52.5 11.5t-43 -11.5t-26 -25t-14.5 -27.5t-6.5 -20z" />
<glyph unicode="&#xd2;" horiz-adv-x="980" d="M90 309v811q0 12 1 42t8 69t25.5 79t55.5 72q41 35 117 65t199 30q156 0 242.5 -53.5t119.5 -116.5q16 -35 23.5 -76t9.5 -117v-805q-2 -70 -16.5 -131t-67.5 -112q-66 -59 -147.5 -78t-165.5 -19q-80 0 -158 15.5t-143 68.5q-33 27 -49.5 50.5t-22.5 39.5 q-18 39 -23.5 82t-7.5 84zM172 1833h315l136 -272h-177zM358 354q0 -33 3.5 -68.5t21.5 -64.5q12 -16 28.5 -24.5t33 -12.5t29.5 -5t18 -1q10 0 34.5 3t48.5 22q37 25 42.5 64.5t5.5 80.5v748v45t-17 71q-10 20 -34.5 42t-75.5 22q-10 0 -36 -4t-50 -23q-23 -16 -33 -34.5 t-14.5 -40t-4.5 -44v-45.5v-731z" />
<glyph unicode="&#xd3;" horiz-adv-x="980" d="M90 309v811q0 12 1 42t8 69t25.5 79t55.5 72q41 35 117 65t199 30q156 0 242.5 -53.5t119.5 -116.5q16 -35 23.5 -76t9.5 -117v-805q-2 -70 -16.5 -131t-67.5 -112q-66 -59 -147.5 -78t-165.5 -19q-80 0 -158 15.5t-143 68.5q-33 27 -49.5 50.5t-22.5 39.5 q-18 39 -23.5 82t-7.5 84zM358 354q0 -33 3.5 -68.5t21.5 -64.5q12 -16 28.5 -24.5t33 -12.5t29.5 -5t18 -1q10 0 34.5 3t48.5 22q37 25 42.5 64.5t5.5 80.5v748v45t-17 71q-10 20 -34.5 42t-75.5 22q-10 0 -36 -4t-50 -23q-23 -16 -33 -34.5t-14.5 -40t-4.5 -44v-45.5v-731 zM362 1563l132 274h317l-258 -274h-191z" />
<glyph unicode="&#xd4;" horiz-adv-x="980" d="M90 309v811q0 12 1 42t8 69t25.5 79t55.5 72q41 35 117 65t199 30q156 0 242.5 -53.5t119.5 -116.5q16 -35 23.5 -76t9.5 -117v-805q-2 -70 -16.5 -131t-67.5 -112q-66 -59 -147.5 -78t-165.5 -19q-80 0 -158 15.5t-143 68.5q-33 27 -49.5 50.5t-22.5 39.5 q-18 39 -23.5 82t-7.5 84zM178 1561l176 272h264l177 -272h-213l-90 149l-99 -149h-215zM358 354q0 -33 3.5 -68.5t21.5 -64.5q12 -16 28.5 -24.5t33 -12.5t29.5 -5t18 -1q10 0 34.5 3t48.5 22q37 25 42.5 64.5t5.5 80.5v748v45t-17 71q-10 20 -34.5 42t-75.5 22 q-10 0 -36 -4t-50 -23q-23 -16 -33 -34.5t-14.5 -40t-4.5 -44v-45.5v-731z" />
<glyph unicode="&#xd5;" horiz-adv-x="980" d="M90 309v811q0 12 1 42t8 69t25.5 79t55.5 72q41 35 117 65t199 30q156 0 242.5 -53.5t119.5 -116.5q16 -35 23.5 -76t9.5 -117v-805q-2 -70 -16.5 -131t-67.5 -112q-66 -59 -147.5 -78t-165.5 -19q-80 0 -158 15.5t-143 68.5q-33 27 -49.5 50.5t-22.5 39.5 q-18 39 -23.5 82t-7.5 84zM158 1563q2 61 14 115.5t64 97.5q51 43 120 43q33 0 72 -10.5t100 -39.5q41 -18 65.5 -28t47.5 -10q4 0 10 1t17 5q16 10 23 26.5t16 51.5h131q0 -31 -2 -65t-10.5 -64.5t-25 -58.5t-44.5 -46q-10 -6 -34 -16.5t-58 -10.5q-41 0 -94.5 19.5 t-88.5 36.5q-25 12 -49 23.5t-53 11.5q-25 0 -41 -11.5t-26.5 -25t-14.5 -27.5t-6 -20zM358 354q0 -33 3.5 -68.5t21.5 -64.5q12 -16 28.5 -24.5t33 -12.5t29.5 -5t18 -1q10 0 34.5 3t48.5 22q37 25 42.5 64.5t5.5 80.5v748v45t-17 71q-10 20 -34.5 42t-75.5 22 q-10 0 -36 -4t-50 -23q-23 -16 -33 -34.5t-14.5 -40t-4.5 -44v-45.5v-731z" />
<glyph unicode="&#xd6;" horiz-adv-x="980" d="M90 309v811q0 12 1 42t8 69t25.5 79t55.5 72q41 35 117 65t199 30q156 0 242.5 -53.5t119.5 -116.5q16 -35 23.5 -76t9.5 -117v-805q-2 -70 -16.5 -131t-67.5 -112q-66 -59 -147.5 -78t-165.5 -19q-80 0 -158 15.5t-143 68.5q-33 27 -49.5 50.5t-22.5 39.5 q-18 39 -23.5 82t-7.5 84zM170 1561v247h240v-247h-240zM358 354q0 -33 3.5 -68.5t21.5 -64.5q12 -16 28.5 -24.5t33 -12.5t29.5 -5t18 -1q10 0 34.5 3t48.5 22q37 25 42.5 64.5t5.5 80.5v748v45t-17 71q-10 20 -34.5 42t-75.5 22q-10 0 -36 -4t-50 -23q-23 -16 -33 -34.5 t-14.5 -40t-4.5 -44v-45.5v-731zM584 1561v247h237v-247h-237z" />
<glyph unicode="&#xd7;" horiz-adv-x="1024" d="M88 289l311 311l-311 307l115 113l311 -307l307 307l115 -113l-307 -307l307 -311l-115 -117l-307 309l-311 -309z" />
<glyph unicode="&#xd8;" horiz-adv-x="980" d="M68 41l67 127q-16 27 -26.5 60.5t-14.5 95.5v809q2 66 13.5 113.5t54.5 99.5q41 49 89 75.5t93 39t83 14.5t56 2q104 0 172 -27t103 -51l41 78l116 -58l-67 -133q16 -29 26.5 -57.5t14.5 -89.5v-826q-2 -31 -4 -61.5t-13 -61.5q-12 -35 -37.5 -73.5t-69.5 -71.5 t-107.5 -54.5t-151.5 -21.5q-55 0 -98 8.5t-76 21.5t-57.5 28.5t-45.5 29.5l-41 -80zM365 297q2 -23 5 -35t9 -22q10 -23 34.5 -40.5t75.5 -17.5q8 0 35 3t51 22q35 27 40.5 64.5t5.5 76.5v475l-256 -493v-33zM365 623l256 493v45q-2 16 -4.5 28.5t-10.5 29.5 q-10 16 -35.5 32.5t-70.5 16.5q-8 0 -34 -3t-50 -20q-20 -12 -30.5 -31.5t-14.5 -40t-5 -43t-1 -40.5v-467z" />
<glyph unicode="&#xd9;" horiz-adv-x="980" d="M100 332v1114h267v-1075q2 -29 3 -57.5t11 -55.5q10 -23 26.5 -35t33 -18t30.5 -7t21 -1q10 0 32.5 3t44.5 19q39 27 42 71t3 83v1073h269v-1120q-4 -66 -13.5 -121t-52.5 -111q-39 -49 -91 -75.5t-101.5 -37t-89 -11.5t-52.5 -1q-80 0 -157.5 21.5t-137.5 83.5 q-10 10 -28.5 35.5t-32.5 62.5q-16 39 -20.5 80t-6.5 80zM172 1833h315l136 -272h-177z" />
<glyph unicode="&#xda;" horiz-adv-x="980" d="M100 332v1114h267v-1075q2 -29 3 -57.5t11 -55.5q10 -23 26.5 -35t33 -18t30.5 -7t21 -1q10 0 32.5 3t44.5 19q39 27 42 71t3 83v1073h269v-1120q-4 -66 -13.5 -121t-52.5 -111q-39 -49 -91 -75.5t-101.5 -37t-89 -11.5t-52.5 -1q-80 0 -157.5 21.5t-137.5 83.5 q-10 10 -28.5 35.5t-32.5 62.5q-16 39 -20.5 80t-6.5 80zM362 1563l132 274h317l-258 -274h-191z" />
<glyph unicode="&#xdb;" horiz-adv-x="980" d="M100 332v1114h267v-1075q2 -29 3 -57.5t11 -55.5q10 -23 26.5 -35t33 -18t30.5 -7t21 -1q10 0 32.5 3t44.5 19q39 27 42 71t3 83v1073h269v-1120q-4 -66 -13.5 -121t-52.5 -111q-39 -49 -91 -75.5t-101.5 -37t-89 -11.5t-52.5 -1q-80 0 -157.5 21.5t-137.5 83.5 q-10 10 -28.5 35.5t-32.5 62.5q-16 39 -20.5 80t-6.5 80zM178 1561l176 272h264l177 -272h-213l-90 149l-99 -149h-215z" />
<glyph unicode="&#xdc;" horiz-adv-x="980" d="M100 332v1114h267v-1075q2 -29 3 -66t17 -63q10 -16 36 -30.5t73 -14.5q8 0 30.5 3t44.5 19q37 27 40 70t3 84v1073h269v-1120q-4 -66 -13.5 -121t-52.5 -111q-39 -49 -91 -75.5t-101.5 -37t-89 -11.5t-52.5 -1q-80 0 -157.5 21.5t-137.5 83.5q-10 10 -28.5 35.5 t-32.5 62.5q-16 39 -20.5 80t-6.5 80zM172 1561v247h240v-247h-240zM586 1561v247h237v-247h-237z" />
<glyph unicode="&#xdf;" horiz-adv-x="854" d="M90 0v1206q0 49 6 92t41 84q33 41 95.5 68t175.5 27h44t44 -4q12 -2 40.5 -7.5t62.5 -18.5t66.5 -40t51.5 -70q12 -31 16 -61.5t4 -61.5v-133q-2 -51 -5 -83.5t-16.5 -54t-42 -34t-81.5 -22.5q27 -4 54.5 -10.5t52 -16.5t43 -29.5t28.5 -50.5q4 -16 7 -55t3 -88v-399 q0 -10 -1 -42t-11 -67q-25 -84 -92.5 -115.5t-147.5 -31.5q-37 0 -69.5 5t-69.5 13l2 141q16 -2 30.5 -3t31.5 -1q37 2 55 18.5t24.5 37t6.5 40v27.5v375q-2 43 -5.5 65.5t-19.5 40.5q-18 23 -44 26t-52 7h-37v166h29q27 0 38 1t23 5q37 12 42 45t7 62v149q0 12 -2 28.5 t-10 33t-26.5 28t-53.5 11.5h-13.5t-25.5 -4.5t-27.5 -12.5t-19.5 -22q-6 -12 -7 -25.5t-1 -28.5v-1210h-244z" />
<glyph unicode="&#xe0;" d="M66 223v74q0 57 4 112.5t45 102.5q23 27 52.5 44t57.5 34l254 127v61q2 47 -5 71.5t-28 39.5q-8 4 -20 9t-33 5q-8 0 -34.5 -5t-41.5 -36q-6 -14 -7 -38.5t-1 -59.5v-39h-223v119q0 8 2 25.5t8 38t17.5 43t31.5 42.5q33 33 97.5 55.5t167.5 22.5q12 0 48 -2t80 -14.5 t87 -39t71 -75.5q18 -33 21.5 -59.5t3.5 -40.5v-584v-54.5t2 -66.5t8 -66.5t21 -50.5q2 -8 16 -18h-256q-16 16 -20.5 34.5t-8.5 57.5q-10 -10 -18 -19.5t-19 -19.5q-20 -20 -61 -48t-113 -28q-16 0 -53 5.5t-74 33.5q-33 25 -49 59t-23 71.5t-7 76.5zM88 1446h313l136 -270 h-177zM303 283q0 -59 11.5 -90t47.5 -31q27 2 46.5 12t42.5 25l26 22v307l-119 -77q-16 -12 -20 -17q-23 -23 -29 -56.5t-6 -94.5z" />
<glyph unicode="&#xe1;" d="M66 223v74q0 57 4 112.5t45 102.5q23 27 52.5 44t57.5 34l254 127v61q2 47 -5 71.5t-28 39.5q-8 4 -20 9t-33 5q-8 0 -34.5 -5t-41.5 -36q-6 -14 -7 -38.5t-1 -59.5v-39h-223v119q0 8 2 25.5t8 38t17.5 43t31.5 42.5q33 33 97.5 55.5t167.5 22.5q12 0 48 -2t80 -14.5 t87 -39t71 -75.5q18 -33 21.5 -59.5t3.5 -40.5v-584v-54.5t2 -66.5t8 -66.5t21 -50.5q2 -8 16 -18h-256q-16 16 -20.5 34.5t-8.5 57.5q-10 -10 -18 -19.5t-19 -19.5q-20 -20 -61 -48t-113 -28q-16 0 -53 5.5t-74 33.5q-33 25 -49 59t-23 71.5t-7 76.5zM276 1208l134 277h319 q-35 -37 -69.5 -73t-67.5 -71q-33 -33 -63.5 -65.5t-59.5 -65.5zM303 283q0 -59 11.5 -90t47.5 -31q27 2 46.5 12t42.5 25l26 22v307l-119 -77q-16 -12 -20 -17q-23 -23 -29 -56.5t-6 -94.5z" />
<glyph unicode="&#xe2;" d="M66 223v74q0 57 4 112.5t45 102.5q23 27 52.5 44t57.5 34l254 127v61q2 47 -5 71.5t-28 39.5q-8 4 -20 9t-33 5q-8 0 -34.5 -5t-41.5 -36q-6 -14 -7 -38.5t-1 -59.5v-39h-223v119q0 8 2 25.5t8 38t17.5 43t31.5 42.5q33 33 97.5 55.5t167.5 22.5q12 0 48 -2t80 -14.5 t87 -39t71 -75.5q18 -33 21.5 -59.5t3.5 -40.5v-584v-54.5t2 -66.5t8 -66.5t21 -50.5q2 -8 16 -18h-256q-16 16 -20.5 34.5t-8.5 57.5q-10 -10 -18 -19.5t-19 -19.5q-20 -20 -61 -48t-113 -28q-16 0 -53 5.5t-74 33.5q-33 25 -49 59t-23 71.5t-7 76.5zM94 1176l176 270h265 l176 -270h-215l-90 149l-99 -149h-213zM303 283q0 -59 11.5 -90t47.5 -31q27 2 46.5 12t42.5 25l26 22v307l-119 -77q-16 -12 -20 -17q-23 -23 -29 -56.5t-6 -94.5z" />
<glyph unicode="&#xe3;" d="M66 223v74q0 57 4 112.5t45 102.5q23 27 52.5 44t57.5 34l254 127v61q2 47 -5 71.5t-28 39.5q-8 4 -20 9t-33 5q-8 0 -34.5 -5t-41.5 -36q-6 -14 -7 -38.5t-1 -59.5v-39h-223v119q0 8 2 25.5t8 38t17.5 43t31.5 42.5q33 33 97.5 55.5t167.5 22.5q12 0 48 -2t80 -14.5 t87 -39t71 -75.5q18 -33 21.5 -59.5t3.5 -40.5v-584v-54.5t2 -66.5t8 -66.5t21 -50.5q2 -8 16 -18h-256q-16 16 -20.5 34.5t-8.5 57.5q-10 -10 -18 -19.5t-19 -19.5q-20 -20 -61 -48t-113 -28q-16 0 -53 5.5t-74 33.5q-33 25 -49 59t-23 71.5t-7 76.5zM72 1176 q4 61 16 116.5t62 98.5q51 43 122 43q31 0 71 -11.5t101 -40.5q39 -16 63.5 -27.5t47.5 -11.5q10 0 27 9q16 10 24 26.5t15 51.5l131 -3q0 -31 -2 -63.5t-10.5 -64t-25 -58.5t-44.5 -45q-10 -6 -34 -17.5t-58 -11.5q-41 2 -94.5 21.5t-88.5 36.5q-23 10 -48 22.5t-52 12.5 t-43 -11.5t-26.5 -26t-14.5 -27.5t-6 -19h-133zM303 283q0 -59 11.5 -90t47.5 -31q27 2 46.5 12t42.5 25l26 22v307l-119 -77q-16 -12 -20 -17q-23 -23 -29 -56.5t-6 -94.5z" />
<glyph unicode="&#xe4;" d="M66 223v74q0 57 4 112.5t45 102.5q23 27 52.5 44t57.5 34l254 127v61q2 47 -5 71.5t-28 39.5q-8 4 -20 9t-33 5q-8 0 -34.5 -5t-41.5 -36q-6 -14 -7 -38.5t-1 -59.5v-39h-223v119q0 8 2 25.5t8 38t17.5 43t31.5 42.5q33 33 97.5 55.5t167.5 22.5q12 0 48 -2t80 -14.5 t87 -39t71 -75.5q18 -33 21.5 -59.5t3.5 -40.5v-584v-54.5t2 -66.5t8 -66.5t21 -50.5q2 -8 16 -18h-256q-16 16 -20.5 34.5t-8.5 57.5q-10 -10 -18 -19.5t-19 -19.5q-20 -20 -61 -48t-113 -28q-16 0 -53 5.5t-74 33.5q-33 25 -49 59t-23 71.5t-7 76.5zM92 1219v245h240v-245 h-240zM303 283q0 -59 11.5 -90t47.5 -31q27 2 46.5 12t42.5 25l26 22v307l-119 -77q-16 -12 -20 -17q-23 -23 -29 -56.5t-6 -94.5zM506 1219v245h237v-245h-237z" />
<glyph unicode="&#xe5;" d="M66 223v74q0 57 4 112.5t45 102.5q23 27 52.5 44t57.5 34l254 127v61q2 47 -5 71.5t-28 39.5q-8 4 -20 9t-33 5q-8 0 -34.5 -5t-41.5 -36q-6 -14 -7 -38.5t-1 -59.5v-39h-223v119q0 8 2 25.5t8 38t17.5 43t31.5 42.5q33 33 97.5 55.5t167.5 22.5q12 0 48 -2t80 -14.5 t87 -39t71 -75.5q18 -33 21.5 -59.5t3.5 -40.5v-584v-54.5t2 -66.5t8 -66.5t21 -50.5q2 -8 16 -18h-256q-16 16 -20.5 34.5t-8.5 57.5q-10 -10 -18 -19.5t-19 -19.5q-20 -20 -61 -48t-113 -28q-16 0 -53 5.5t-74 33.5q-33 25 -49 59t-23 71.5t-7 76.5zM231 1356 q0 76 53.5 129t131.5 53t130 -53t52 -131q0 -37 -14.5 -70t-39 -57.5t-58 -40t-72.5 -15.5q-76 2 -129.5 55.5t-53.5 129.5zM303 283q0 -59 11.5 -90t47.5 -31q27 2 46.5 12t42.5 25l26 22v307l-119 -77q-16 -12 -20 -17q-23 -23 -29 -56.5t-6 -94.5zM330 1352 q0 -35 25.5 -59.5t60.5 -24.5t58.5 24.5t23.5 59.5q0 37 -24.5 60.5t-59.5 23.5t-59.5 -25t-24.5 -59z" />
<glyph unicode="&#xe6;" horiz-adv-x="1236" d="M63 322q0 43 5.5 87t29.5 80q16 25 42 44.5t50.5 34t43 22.5t22.5 10l233 96v88q-2 25 -7 45.5t-27 34.5q-23 16 -56 17q-35 0 -53 -12.5t-27.5 -29t-11.5 -34t-2 -27.5v-63h-219v114q0 10 1 29t7 41.5t17.5 47t33.5 46.5q43 43 105.5 59.5t120.5 16.5q41 0 88 -7t86 -22 q12 -4 28.5 -10t42.5 -20q12 6 23.5 12t22.5 12q39 16 96 25.5t98 9.5q18 0 57 -4t83 -22.5t86 -54.5t65 -97q12 -35 15 -65.5t5 -41.5v-315h-434v-186q0 -2 -1 -20.5t3 -33.5q6 -20 25.5 -40.5t66.5 -20.5q23 0 44.5 7t33.5 28q12 16 13.5 37.5t3.5 40.5v67h243v-96 q-8 -70 -27.5 -124t-78.5 -95q-33 -20 -84 -38t-137 -18q-41 0 -74 5.5t-61.5 15.5t-57.5 25.5t-61 37.5q-31 -18 -97.5 -49.5t-164.5 -31.5q-10 0 -44 2t-74 16t-77 45t-51 86q-10 39 -11.5 96.5t-1.5 96.5zM295 283q0 -6 1 -25.5t9 -39t25.5 -36t52.5 -16.5 q45 0 70.5 22.5t33.5 32.5v293q-25 -10 -50 -21.5t-48 -23.5q-39 -23 -58.5 -47.5t-27.5 -49t-8 -48v-41.5zM733 633h187v131q2 29 -3.5 54.5t-31.5 43.5q-27 16 -58 17q-6 0 -17 -2.5t-24.5 -7.5t-25.5 -14t-19 -28q-4 -12 -6 -23t-2 -34v-137z" />
<glyph unicode="&#xe7;" d="M78 285v465q4 57 12 105t45 95q33 43 77 67.5t86 36t76 13.5t46 2q8 0 49 -2t90 -17.5t98.5 -47t73.5 -91.5q10 -23 14.5 -52.5t6.5 -82.5v-125h-240v127q0 20 -1 30.5t-3 20.5q-4 16 -23.5 42t-64.5 24q-23 0 -36 -5t-22 -9q-25 -16 -32.5 -45t-10.5 -82v-457 q0 -29 1.5 -43t5.5 -29q10 -33 33.5 -49t56.5 -16q4 0 20.5 2t32.5 12q29 20 35 55t6 66v121h242v-119v-35.5t-5.5 -52.5t-17.5 -60.5t-37 -62.5q-33 -41 -75 -63.5t-81.5 -31.5t-71.5 -10t-44 -1q-115 0 -179.5 29.5t-99.5 68.5q-4 6 -18 26.5t-25 47.5q-14 33 -16 65.5 t-4 67.5zM242 -375l2 62q12 -2 28.5 -3t35 -1h35.5t28 4q29 10 38 27.5t9 27.5q0 20 -10.5 32.5t-23.5 18.5t-24.5 7t-13.5 1v252h88l2 -162h27.5t49.5 -4t57.5 -16t52.5 -37q6 -8 17 -28.5t11 -53.5q0 -16 -10 -50t-49 -60q-23 -14 -52.5 -21.5t-56 -10.5t-46 -4t-21.5 -1 q-35 0 -75 4t-46 4q-12 4 -25.5 6t-27.5 6z" />
<glyph unicode="&#xe8;" d="M78 317v443q2 12 5 56t21 85q18 45 52 78t76 52.5t88.5 28.5t93.5 9q63 0 113.5 -14.5t86 -37t59 -48t36.5 -49.5q14 -29 19 -60t9 -90v-299h-415v-172q0 -29 1 -42t5 -28q12 -41 39.5 -50t44.5 -9q59 0 77 57q2 4 2.5 10.5t2.5 12.5q0 8 2 14l2 82h235v-84q0 -29 -1 -48 t-9 -46q-16 -55 -47 -92t-72 -58.5t-91 -29.5t-101 -8q-80 0 -136.5 18t-92.5 47t-56.5 64.5t-30.5 70.5q-12 39 -15 83t-3 54zM88 1446h313l136 -270h-177zM322 643h174v129q0 8 -1 25.5t-8.5 35t-25 31t-49.5 13.5q-33 0 -51.5 -13.5t-26.5 -30t-10 -34t-2 -27.5v-129z " />
<glyph unicode="&#xe9;" d="M78 317v443q2 12 5 56t21 85q18 45 52 78t76 52.5t88.5 28.5t93.5 9q63 0 113.5 -14.5t86 -37t59 -48t36.5 -49.5q14 -29 19 -60t9 -90v-299h-415v-172q0 -29 1 -42t5 -28q12 -41 39.5 -50t44.5 -9q59 0 77 57q2 4 2.5 10.5t2.5 12.5q0 8 2 14l2 82h235v-84q0 -29 -1 -48 t-9 -46q-16 -55 -47 -92t-72 -58.5t-91 -29.5t-101 -8q-80 0 -136.5 18t-92.5 47t-56.5 64.5t-30.5 70.5q-12 39 -15 83t-3 54zM276 1208l134 277h319q-35 -37 -69.5 -73t-67.5 -71q-33 -33 -63.5 -65.5t-59.5 -65.5zM322 643h174v129q0 8 -1 25.5t-8.5 35t-25 31 t-49.5 13.5q-33 0 -51.5 -13.5t-26.5 -30t-10 -34t-2 -27.5v-129z" />
<glyph unicode="&#xea;" d="M78 317v443q2 12 5 56t21 85q18 45 52 78t76 52.5t88.5 28.5t93.5 9q63 0 113.5 -14.5t86 -37t59 -48t36.5 -49.5q14 -29 19 -60t9 -90v-299h-415v-172q0 -29 1 -42t5 -28q12 -41 39.5 -50t44.5 -9q59 0 77 57q2 4 2.5 10.5t2.5 12.5q0 8 2 14l2 82h235v-84q0 -29 -1 -48 t-9 -46q-16 -55 -47 -92t-72 -58.5t-91 -29.5t-101 -8q-80 0 -136.5 18t-92.5 47t-56.5 64.5t-30.5 70.5q-12 39 -15 83t-3 54zM94 1176l176 270h265l176 -270h-215l-90 149l-99 -149h-213zM322 643h174v129q0 8 -1 25.5t-8.5 35t-25 31t-49.5 13.5q-33 0 -51.5 -13.5 t-26.5 -30t-10 -34t-2 -27.5v-129z" />
<glyph unicode="&#xeb;" d="M78 317v443q2 12 5 56t21 85q18 45 52 78t76 52.5t88.5 28.5t93.5 9q63 0 113.5 -14.5t86 -37t59 -48t36.5 -49.5q14 -29 19 -60t9 -90v-299h-415v-172q0 -29 1 -42t5 -28q12 -41 39.5 -50t44.5 -9q59 0 77 57q2 4 2.5 10.5t2.5 12.5q0 8 2 14l2 82h235v-84q0 -29 -1 -48 t-9 -46q-16 -55 -47 -92t-72 -58.5t-91 -29.5t-101 -8q-80 0 -136.5 18t-92.5 47t-56.5 64.5t-30.5 70.5q-12 39 -15 83t-3 54zM90 1231l2 256h244v-256h-246zM322 643h174v129q0 8 -1 25.5t-8.5 35t-25 31t-49.5 13.5q-33 0 -51.5 -13.5t-26.5 -30t-10 -34t-2 -27.5v-129z M467 1233v254h246v-254h-246z" />
<glyph unicode="&#xec;" horiz-adv-x="425" d="M-104 1446h313l137 -270h-178zM90 0v1049h246v-1049h-246z" />
<glyph unicode="&#xed;" horiz-adv-x="425" d="M84 1208l133 277h320q-35 -37 -69 -73t-69 -71q-33 -33 -62.5 -65.5t-60.5 -65.5zM90 0v1049h246v-1049h-246z" />
<glyph unicode="&#xee;" horiz-adv-x="425" d="M-98 1176l176 270h264l176 -270h-215l-90 149l-98 -149h-213zM90 0v1049h246v-1049h-246z" />
<glyph unicode="&#xef;" horiz-adv-x="425" d="M-102 1231l4 256h241v-256h-245zM90 0v1049h246v-1049h-246zM274 1233v254h246v-254h-246z" />
<glyph unicode="&#xf1;" horiz-adv-x="854" d="M90 0v1049h248l-2 -76q47 47 92 71.5t117 24.5t131 -37t80 -110q4 -23 5 -42.5t3 -60.5v-819h-242v772q-2 49 -7 72.5t-30 40.5q-6 4 -17 8t-30 4q-43 0 -64.5 -19.5t-30.5 -44t-9 -47v-30.5v-756h-244zM92 1176q4 61 16.5 116.5t63.5 98.5q49 43 121 43q33 0 71.5 -11.5 t100.5 -40.5q41 -16 65.5 -27.5t44.5 -11.5q12 0 29 9q16 10 23.5 26.5t15.5 51.5l131 -3q0 -31 -3 -63.5t-10 -64t-23.5 -58.5t-45.5 -45q-10 -6 -33.5 -17.5t-58.5 -11.5q-41 2 -95 21.5t-89 36.5q-23 10 -48.5 22.5t-52.5 12.5q-25 0 -41 -11.5t-26 -26t-15.5 -27.5 t-7.5 -19h-133z" />
<glyph unicode="&#xf2;" d="M78 297v469q2 53 6 80.5t14 52.5q18 49 52 82t76 52.5t89 27.5t95 8q12 0 51 -2t86 -16.5t92 -46t70 -89.5q12 -29 16 -57.5t8 -81.5v-506q-4 -55 -13 -98t-46 -86q-35 -41 -77 -63.5t-82 -31.5t-72.5 -10t-47.5 -1q-37 0 -63.5 3t-40.5 7q-16 2 -42 11t-55.5 28.5 t-56 49.5t-41.5 77q-10 27 -13 56.5t-5 84.5zM88 1446h313l136 -270h-177zM322 256q0 -6 1 -24.5t9 -37t24.5 -33t49.5 -14.5q35 0 52 15.5t25.5 34t8.5 37v24.5v533q-2 49 -8.5 73.5t-30.5 40.5q-12 10 -25.5 11.5t-19.5 1.5q-20 0 -31.5 -5.5t-18.5 -9.5 q-29 -23 -31.5 -52.5t-4.5 -62.5v-532z" />
<glyph unicode="&#xf3;" d="M78 297v469q2 53 6 80.5t14 52.5q18 49 52 82t76 52.5t89 27.5t95 8q12 0 51 -2t86 -16.5t92 -46t70 -89.5q12 -29 16 -57.5t8 -81.5v-506q-4 -55 -13 -98t-46 -86q-35 -41 -77 -63.5t-82 -31.5t-72.5 -10t-47.5 -1q-37 0 -63.5 3t-40.5 7q-16 2 -42 11t-55.5 28.5 t-56 49.5t-41.5 77q-10 27 -13 56.5t-5 84.5zM276 1208l134 277h319q-35 -37 -69.5 -73t-67.5 -71q-33 -33 -63.5 -65.5t-59.5 -65.5zM322 256q0 -6 1 -24.5t9 -37t24.5 -33t49.5 -14.5q35 0 52 15.5t25.5 34t8.5 37v24.5v533q-2 49 -8.5 73.5t-30.5 40.5q-12 10 -25.5 11.5 t-19.5 1.5q-20 0 -31.5 -5.5t-18.5 -9.5q-29 -23 -31.5 -52.5t-4.5 -62.5v-532z" />
<glyph unicode="&#xf4;" d="M78 297v469q2 53 6 80.5t14 52.5q18 49 52 82t76 52.5t89 27.5t95 8q12 0 51 -2t86 -16.5t92 -46t70 -89.5q12 -29 16 -57.5t8 -81.5v-506q-4 -55 -13 -98t-46 -86q-35 -41 -77 -63.5t-82 -31.5t-72.5 -10t-47.5 -1q-37 0 -63.5 3t-40.5 7q-16 2 -42 11t-55.5 28.5 t-56 49.5t-41.5 77q-10 27 -13 56.5t-5 84.5zM94 1176l176 270h265l176 -270h-215l-90 149l-99 -149h-213zM322 256q0 -6 1 -24.5t9 -37t24.5 -33t49.5 -14.5q35 0 52 15.5t25.5 34t8.5 37v24.5v533q-2 49 -8.5 73.5t-30.5 40.5q-12 10 -25.5 11.5t-19.5 1.5 q-20 0 -31.5 -5.5t-18.5 -9.5q-29 -23 -31.5 -52.5t-4.5 -62.5v-532z" />
<glyph unicode="&#xf5;" d="M72 1176q4 61 16 116.5t62 98.5q51 43 122 43q31 0 71 -11.5t101 -40.5q39 -16 63.5 -27.5t47.5 -11.5q10 0 27 9q16 10 24 26.5t15 51.5l131 -3q0 -31 -2 -63.5t-10.5 -64t-25 -58.5t-44.5 -45q-10 -6 -34 -17.5t-58 -11.5q-41 2 -94.5 21.5t-88.5 36.5q-23 10 -48 22.5 t-52 12.5t-43 -11.5t-26.5 -26t-14.5 -27.5t-6 -19h-133zM78 297v469q2 53 6 80.5t14 52.5q18 49 52 82t76 52.5t89 27.5t95 8q12 0 51 -2t86 -16.5t92 -46t70 -89.5q12 -29 16 -57.5t8 -81.5v-506q-4 -55 -13 -98t-46 -86q-35 -41 -77 -63.5t-82 -31.5t-72.5 -10t-47.5 -1 q-37 0 -63.5 3t-40.5 7q-16 2 -42 11t-55.5 28.5t-56 49.5t-41.5 77q-10 27 -13 56.5t-5 84.5zM322 256q0 -6 1 -24.5t9 -37t24.5 -33t49.5 -14.5q35 0 52 15.5t25.5 34t8.5 37v24.5v533q-2 49 -8.5 73.5t-30.5 40.5q-12 10 -25.5 11.5t-19.5 1.5q-20 0 -31.5 -5.5 t-18.5 -9.5q-29 -23 -31.5 -52.5t-4.5 -62.5v-532z" />
<glyph unicode="&#xf6;" d="M78 297v469q2 53 6 80.5t14 52.5q18 49 52 82t76 52.5t89 27.5t95 8q12 0 51 -2t86 -16.5t92 -46t70 -89.5q12 -29 16 -57.5t8 -81.5v-506q-4 -55 -13 -98t-46 -86q-35 -41 -77 -63.5t-82 -31.5t-72.5 -10t-47.5 -1q-37 0 -63.5 3t-40.5 7q-16 2 -42 11t-55.5 28.5 t-56 49.5t-41.5 77q-10 27 -13 56.5t-5 84.5zM86 1219v245h240v-245h-240zM322 256q0 -6 1 -24.5t9 -37t24.5 -33t49.5 -14.5q35 0 52 15.5t25.5 34t8.5 37v24.5v533q-2 49 -8.5 73.5t-30.5 40.5q-12 10 -25.5 11.5t-19.5 1.5q-20 0 -31.5 -5.5t-18.5 -9.5 q-29 -23 -31.5 -52.5t-4.5 -62.5v-532zM498 1219v245h237v-245h-237z" />
<glyph unicode="&#xf7;" horiz-adv-x="1024" d="M0 514v162h1024v-162h-1024zM399 297q0 49 34 83t81 34q51 -2 84 -35t33 -82q-2 -51 -36 -82t-83 -31t-82 35t-31 78zM399 889q0 10 2 24.5t13 34.5q33 59 102 60q49 -2 82 -35t33 -84q0 -12 -5 -31.5t-19.5 -38t-37 -31t-55.5 -12.5q-47 2 -81 34t-34 79z" />
<glyph unicode="&#xf8;" d="M18 33l74 117q-10 29 -12 49t0 71v506q0 14 1 40t8 56.5t24.5 62.5t52.5 60q51 43 113.5 58.5t126.5 15.5q92 0 146 -23.5t89 -44.5l51 78l84 -53l-74 -106q2 -4 4.5 -7.5t4.5 -7.5q10 -20 14 -54t6 -83v-498q0 -14 -1 -37.5t-9 -52t-23.5 -59.5t-46.5 -60 q-51 -51 -109.5 -66t-127.5 -15q-43 0 -76 4t-61.5 13t-56 26.5t-62.5 42.5l-58 -84zM299 260q2 -27 8 -47t31 -37q8 -6 22.5 -11t38.5 -5q43 0 64.5 17.5t30.5 33.5q10 18 10 38.5v24.5v338l-205 -323v-29zM301 475l207 320l-2 20q-2 12 -1 13t-3 10q-4 18 -24.5 40.5 t-67.5 22.5q-10 0 -26.5 -2t-35.5 -14q-31 -20 -37 -48t-10 -61v-301z" />
<glyph unicode="&#xf9;" horiz-adv-x="854" d="M90 258v791h246v-754q-2 -29 0 -54.5t22 -45.5q27 -27 66 -27q6 0 25.5 3t35.5 17q14 12 21.5 32t10.5 38t2 32.5t-1 16.5v742h246v-1049h-246v86q-10 -10 -29.5 -27.5t-48 -34t-65.5 -29.5t-80 -13q-16 0 -51 6t-72 30q-31 23 -48.5 50.5t-24.5 58.5t-8 64.5t-1 66.5z M109 1446h313l137 -270h-178z" />
<glyph unicode="&#xfa;" horiz-adv-x="854" d="M90 258v791h246v-754q-2 -29 0 -54.5t22 -45.5q27 -27 66 -27q6 0 25.5 3t35.5 17q14 12 21.5 32t10.5 38t2 32.5t-1 16.5v742h246v-1049h-246v86q-10 -10 -29.5 -27.5t-48 -34t-65.5 -29.5t-80 -13q-16 0 -51 6t-72 30q-31 23 -48.5 50.5t-24.5 58.5t-8 64.5t-1 66.5z M297 1208l133 277h320q-35 -37 -69 -73t-69 -71q-33 -33 -62.5 -65.5t-60.5 -65.5z" />
<glyph unicode="&#xfb;" horiz-adv-x="854" d="M90 258v791h246v-754q-2 -29 0 -54.5t22 -45.5q27 -27 66 -27q6 0 25.5 3t35.5 17q14 12 21.5 32t10.5 38t2 32.5t-1 16.5v742h246v-1049h-246v86q-10 -10 -29.5 -27.5t-48 -34t-65.5 -29.5t-80 -13q-16 0 -51 6t-72 30q-31 23 -48.5 50.5t-24.5 58.5t-8 64.5t-1 66.5z M115 1176l176 270h264l176 -270h-215l-90 149l-98 -149h-213z" />
<glyph unicode="&#xfc;" horiz-adv-x="854" d="M90 258v791h246v-754v-24.5t7 -43t24.5 -40t54.5 -17.5q43 0 62.5 19.5t27.5 44t7 46t-1 27.5v744h246v-1051h-246l-2 96q-10 -10 -17 -18t-18 -19q-59 -53 -107 -65t-83 -12q-16 0 -53 6t-72 35q-29 23 -44.5 50t-22.5 58t-8 62.5t-1 64.5zM106 1219v245h240v-245h-240z M520 1219v245h238v-245h-238z" />
<glyph unicode="&#xff;" horiz-adv-x="724" d="M2 1049h242l135 -674l104 674h240l-240 -1125q-18 -82 -35.5 -130t-44.5 -81q-29 -35 -75.5 -55t-137.5 -20q-47 0 -78.5 5t-78.5 13l37 192q12 -4 34.5 -9t57.5 -5q31 0 50 12.5t30.5 33t17.5 44t12 47.5l2 29zM47 1231l4 256h242v-256h-246zM424 1233v254h246v-254 h-246z" />
<glyph unicode="&#x152;" horiz-adv-x="1409" d="M90 324v749v40t2 40q4 94 40 166t124 115q47 23 97 33t100 10q12 0 36.5 -1t55 -7.5t65.5 -19.5t70 -36q20 -14 34.5 -28.5l20.5 -20.5v82h608v-223h-456v-338h432v-213h-432v-445h473v-227h-625l-2 63q-16 -16 -28.5 -25t-34.5 -20q-31 -18 -83 -33.5t-136 -15.5 q-16 0 -63.5 4t-101 23.5t-103.5 60.5t-74 117q-10 31 -12.5 60.5t-6.5 89.5zM358 336q0 -25 1 -38t6 -26q4 -12 12 -27.5t22.5 -28.5t37 -23.5t52.5 -10.5q23 2 43.5 7.5t36.5 17.5q39 29 44 65.5t5 77.5v737q-2 55 -5 82t-19 54q-12 18 -35.5 32.5t-71.5 14.5 q-49 0 -71.5 -16.5t-32.5 -34.5q-16 -25 -20.5 -52.5t-4.5 -81.5v-749z" />
<glyph unicode="&#x153;" horiz-adv-x="1236" d="M78 295v448q2 49 5 79t11 52q14 49 46 86t72 60.5t87 36t96 12.5q45 0 94.5 -12.5t124.5 -65.5q12 8 36 21.5t55.5 26t70.5 21.5t84 9q88 0 166 -43t113 -129q10 -25 14 -53.5t6 -79.5v-293h-416v-192q2 -29 6.5 -54.5t30.5 -42.5q6 -4 20.5 -10t37.5 -6q16 0 29.5 4 t17.5 8q33 23 35 56.5t2 41.5l2 76h235v-86q0 -6 -1 -45t-11 -74q-18 -68 -61.5 -102.5t-89.5 -49.5t-87 -16.5t-55 -1.5q-96 0 -150.5 24t-91.5 46q-33 -20 -86 -43.5t-145 -23.5t-171 41.5t-114 136.5q-8 25 -12 54.5t-6 82.5zM326 244.5q0 -11.5 4 -25.5q6 -20 16 -31.5 t21.5 -17.5t22.5 -8t18 -2q8 0 19 2t28 10q23 12 32 30.5t13 63.5v508q-2 43 -9.5 63.5t-25.5 32.5q-16 10 -29.5 12.5t-19.5 2.5q-31 0 -49 -13q-18 -12 -26.5 -26.5t-11.5 -28.5t-3 -26.5v-16.5v-514v-15.5zM741 635h179v139q0 31 -6.5 57.5t-34.5 42.5q-4 4 -16.5 9.5 t-31.5 5.5q-4 0 -17 -2t-28 -10q-31 -16 -37 -42t-8 -59v-141z" />
<glyph unicode="&#x178;" horiz-adv-x="854" d="M2 1446h281l147 -729l141 729h281l-289 -1018v-428h-272v446zM106 1561v247h240v-247h-240zM518 1561v247h238v-247h-238z" />
<glyph unicode="&#x2c6;" horiz-adv-x="512" d="M-205 1176l176 270h265l176 -270h-215l-91 149l-98 -149h-213z" />
<glyph unicode="&#x2dc;" horiz-adv-x="512" d="M-227 1176q4 61 16 116.5t64 98.5q49 43 120 43q33 0 72 -11.5t100 -40.5q39 -16 65 -27.5t46 -11.5q10 0 27 9q16 10 24 26.5t15 51.5l131 -3q0 -31 -2 -63.5t-10.5 -64t-24 -58.5t-43.5 -45q-10 -6 -35 -17.5t-59 -11.5q-41 2 -94.5 21.5t-88.5 36.5q-23 10 -48 22.5 t-52 12.5q-25 0 -41 -11.5t-26.5 -26t-15.5 -27.5t-7 -19h-133z" />
<glyph unicode="&#x2000;" horiz-adv-x="941" />
<glyph unicode="&#x2001;" horiz-adv-x="1882" />
<glyph unicode="&#x2002;" horiz-adv-x="941" />
<glyph unicode="&#x2003;" horiz-adv-x="1882" />
<glyph unicode="&#x2004;" horiz-adv-x="627" />
<glyph unicode="&#x2005;" horiz-adv-x="470" />
<glyph unicode="&#x2006;" horiz-adv-x="313" />
<glyph unicode="&#x2007;" horiz-adv-x="313" />
<glyph unicode="&#x2008;" horiz-adv-x="235" />
<glyph unicode="&#x2009;" horiz-adv-x="376" />
<glyph unicode="&#x200a;" horiz-adv-x="104" />
<glyph unicode="&#x2010;" horiz-adv-x="681" d="M68 446v203h548v-203h-548z" />
<glyph unicode="&#x2011;" horiz-adv-x="681" d="M68 446v203h548v-203h-548z" />
<glyph unicode="&#x2012;" horiz-adv-x="681" d="M68 446v203h548v-203h-548z" />
<glyph unicode="&#x2013;" d="M57 444v203h697v-203h-697z" />
<glyph unicode="&#x2014;" horiz-adv-x="1024" d="M0 516v166h1024v-166h-1024z" />
<glyph unicode="&#x2018;" horiz-adv-x="382" d="M70 897v274l153 275h88l-125 -275h125v-274h-241z" />
<glyph unicode="&#x2019;" horiz-adv-x="382" d="M49 897l144 277h-127v272h241v-272l-164 -277h-94z" />
<glyph unicode="&#x201a;" horiz-adv-x="382" d="M53 -276l140 276h-119v264h239v-264l-170 -276h-90z" />
<glyph unicode="&#x201c;" horiz-adv-x="768" d="M70 901v266l170 279h94l-150 -279h127v-266h-241zM442 901v266l164 279h96l-139 -279h125v-266h-246z" />
<glyph unicode="&#x201d;" horiz-adv-x="768" d="M61 901l140 279h-127v266h248v-266l-164 -279h-97zM428 901l152 279h-127v266h241v-266l-172 -279h-94z" />
<glyph unicode="&#x201e;" horiz-adv-x="768" d="M78 0v266h239v-266l-141 -281h-88l119 281h-129zM449 0v266h241v-266l-149 -281h-92l131 281h-131z" />
<glyph unicode="&#x2022;" horiz-adv-x="681" d="M76 723q0 10 3 39t15 59q8 23 27.5 51.5t50.5 55t74 44t100 17.5q12 0 37 -3t55 -13q57 -23 92 -57.5t51.5 -71.5t21.5 -71t5 -50q0 -117 -73.5 -191.5t-190.5 -74.5q-16 0 -45 3t-66 19q-78 35 -117.5 102.5t-39.5 141.5z" />
<glyph unicode="&#x2026;" horiz-adv-x="2048" d="M225 104q0 51 35 83t86 32q47 0 80 -34t31 -81q0 -14 -9.5 -47.5t-50.5 -54.5q-29 -14 -55 -14q-51 0 -84 34.5t-33 81.5zM909 104q0 49 35 82t84 33q47 0 79 -33t34 -82q0 -6 -2 -20t-9 -31q-16 -31 -43.5 -48t-60.5 -17q-49 0 -83 32.5t-34 83.5zM1591 104q0 51 36 83 t81 32q49 0 82 -33t33 -82q0 -47 -33 -81.5t-82 -34.5q-51 0 -84 34.5t-33 81.5z" />
<glyph unicode="&#x202f;" horiz-adv-x="376" />
<glyph unicode="&#x205f;" horiz-adv-x="470" />
<glyph unicode="&#x2122;" horiz-adv-x="1406" d="M33 1346v100h553v-100h-213v-580h-121v580h-219zM643 766v680h162l170 -537l166 537h162v-680h-117l4 422l6 137l-35 -115l-137 -444h-104l-140 444l-35 113l9 -135l6 -422h-117z" />
<glyph unicode="&#x25fc;" horiz-adv-x="1044" d="M0 0v1044h1044v-1044h-1044z" />
<glyph unicode="&#xfb01;" horiz-adv-x="937" d="M23 887v162h108v184l6 49q8 49 26.5 75.5t35.5 41.5q43 37 95 44t107 7q23 0 45.5 -1t45.5 -3v-201q-55 6 -72 2q-16 -4 -25.5 -14t-13.5 -20.5t-5 -20.5t-1 -14v-129h108v-162h-110v-887h-242v887h-108zM602 0v1049h246v-1049h-246zM602 1200v246h246v-246h-246z" />
<glyph unicode="&#xfb02;" horiz-adv-x="937" d="M23 887v162h108v184l6 49q8 49 26.5 75.5t35.5 41.5q43 37 95 44t107 7q23 0 45.5 -1t45.5 -3v-201q-55 6 -72 2q-16 -4 -25.5 -14t-13.5 -20.5t-5 -20.5t-1 -14v-129h108v-162h-110v-887h-242v887h-108zM602 0v1446h246v-1446h-246z" />
</font>
</defs>
</svg>
