<?xml version="1.0" standalone="no"?>
<!DOCTYPE svg PUBLIC "-//W3C//DTD SVG 1.1//EN" "http://www.w3.org/Graphics/SVG/1.1/DTD/svg11.dtd" >
<svg xmlns="http://www.w3.org/2000/svg" xmlns:xlink="http://www.w3.org/1999/xlink" version="1.1">
<metadata></metadata>
<defs>
<font id="pawrittenregular" horiz-adv-x="727" >
<font-face units-per-em="2048" ascent="1536" descent="-512" />
<missing-glyph horiz-adv-x="1024" />
<glyph horiz-adv-x="0" />
<glyph unicode="&#xd;" horiz-adv-x="1024" />
<glyph horiz-adv-x="0" />
<glyph horiz-adv-x="0" />
<glyph unicode=" "  horiz-adv-x="1024" />
<glyph unicode="&#x09;" horiz-adv-x="1024" />
<glyph unicode="&#xa0;" horiz-adv-x="1024" />
<glyph unicode="!" horiz-adv-x="534" d="M51 102q0 76 43 103q31 20 109 20q200 0 200 -78q0 -176 -196 -176q-35 0 -135 47q-20 37 -21 84zM188 643v25l76 891q0 10 -15.5 62t-19.5 58q59 51 131 52q64 -1 123 -60q-14 -20 -39 -69q-102 -369 -127 -809q0 -14 -6 -54.5t-6 -62.5q0 -31 41 -195q-10 -10 -37 -30 q-10 -2 -39 -2q-35 0 -55 10q-27 51 -27 184z" />
<glyph unicode="&#x22;" horiz-adv-x="516" d="M51 1622q0 127 72 127q25 0 53 -31v-24q0 -4 3 -18.5t3 -22.5q0 -16 -8 -51t-8 -54q0 -43 11 -128t11 -128q0 -104 -71 -104q-47 0 -58 24q-8 346 -8 410zM285 1538q0 39 10 102q14 80 33 84q10 6 28 7q109 0 109 -43q0 -6 -16.5 -33t-18.5 -35q-16 -43 -16 -137 q0 -35 4 -99.5t4 -99.5q0 -96 -74 -96q-47 0 -59 24q-4 295 -4 326z" />
<glyph unicode="#" horiz-adv-x="1097" d="M51 510q0 2 8 63l177 11l81 622q-129 -49 -122 -49q-18 0 -35 36t-17 58q0 2 9 64l180 10q31 211 30 285q0 53 7 94q53 37 84 37q37 0 67.5 -23.5t30.5 -56.5q0 -29 -19 -72q-27 -55 -30 -65q-10 -41 -41 -193l233 12q14 102 47 379q66 43 76 43q33 0 63.5 -22.5 t30.5 -54.5q0 -35 -18 -86q-31 -72 -33 -78q-16 -66 -37 -172q66 2 72 2q55 0 98 -21q54 -24 54 -73q0 -12 -7.5 -38t-11.5 -34q-41 -10 -35 -10q-10 0 -31.5 14t-29.5 16q-20 4 -131 9q-29 -203 -80 -609q76 4 86 4q53 0 94 -20q53 -27 53 -76q0 -12 -7 -37.5t-7 -34.5 q-45 -10 -37 -10q-10 0 -31.5 14.5t-29.5 16.5q-23 6 -135 10q-16 -160 -17 -348q0 -10 8.5 -33.5t8.5 -34.5q0 -31 -25 -53t-55 -22q-76 0 -76 139q0 143 31 360q-49 6 -111 6q-57 0 -121 -6q-2 -33 -24 -198q-18 -121 -19 -201q0 -111 -80 -111q-14 0 -33.5 28t-19.5 42 q0 72 45 418l-117 -47q-18 0 -34.5 35.5t-16.5 60.5zM360 588l236 14l82 621q-53 8 -115 8q-57 0 -121 -4q-29 -213 -82 -639z" />
<glyph unicode="$" horiz-adv-x="1155" d="M51 526q0 68 105 68q37 0 90 -41q80 -63 82 -68q72 -43 243 -43q20 0 35 17v248q-184 76 -205 86q-115 70 -114 172q0 123 121 213q6 8 225 131v350q0 39 38 64.5t79 25.5q27 0 92 -45v-27q0 -8 -17.5 -19t-23.5 -18q-12 -14 -25 -137q-10 -100 -10 -151q33 0 95.5 12 t92.5 12q150 1 150 -73q0 -76 -182 -76q-16 0 -48 3t-47 3q-45 0 -75 -23q-27 -348 -27 -399q106 -31 215 -59q137 -43 137 -136q0 -104 -133 -161q-111 -37 -219 -76v-80q-4 -137 27 -264l30 -15q-6 -68 -98 -63h-16q-14 31 -33 94q-16 76 -23 295q-16 14 -108 14 q-117 0 -260 39q-193 49 -193 127zM449 997q0 -43 43 -100t86 -57h40v342h-24q-145 -74 -145 -185zM725 479h35q29 0 59.5 31.5t30.5 56.5q0 78 -125 111v-199z" />
<glyph unicode="%" horiz-adv-x="1638" d="M102 1231q0 186 64 317q82 172 248 172q129 0 213 -131q78 -115 80 -248l10 -16q94 6 243.5 102.5t190.5 180.5q14 39 27 73q18 47 55 48q39 0 76 -28t37 -65q0 -14 -13 -26q-84 -41 -307 -461q-178 -340 -260 -543q-35 -80 -107 -284q-84 -236 -84 -259q0 -10 16.5 -24 t16.5 -25q0 -35 -37 -34q-27 0 -67 40q-2 86 -2 84q0 135 196 584q133 307 269 615l-6 16q-82 -39 -265 -102q-37 -168 -82 -242q-74 -113 -215 -113q-297 0 -297 369zM207 1268q0 -326 184 -326q72 0 125 64q47 57 62 131q16 18 14 49v26q-266 4 -342 226 q-43 -135 -43 -170zM336 1495q0 -90 73.5 -141t165.5 -51q41 0 41 43q0 82 -51 174q-55 102 -131 102q-45 0 -71.5 -38t-26.5 -89zM930 356q0 143 61 303q76 203 195 203q27 0 94 -28l23 -62q12 16 38 16q121 0 189 -139q57 -113 57 -246q0 -176 -78 -290 q-92 -133 -260 -133q-160 0 -243 110q-76 102 -76 266zM1034 362q0 -115 49 -198q55 -104 164 -105q109 0 178 123q58 102 58 221q0 219 -129 293q-33 12 -67 26.5t-30 49.5h-28q-78 -37 -142 -180q-53 -129 -53 -230z" />
<glyph unicode="&#x26;" horiz-adv-x="1574" d="M51 266q0 164 240 430q20 20 55 62q-88 176 -110 235q-47 125 -48 256q0 209 122 345.5t329 136.5q147 0 245.5 -95.5t98.5 -240.5q0 -80 -18 -135q-41 -119 -441 -529q6 -57 222.5 -276t269.5 -219q43 0 165 88t122 127q0 49 -125 86q-102 35 -170 34q-66 0 -127 -34 q-37 18 -37 49q0 74 108 73q530 0 531 -135q0 -172 -353 -377q31 -47 110 -91t136 -44q18 0 54 16.5t57 16.5q8 0 37 -10v-27q0 -37 -68 -67q-55 -25 -100 -25q-106 0 -221 74q-123 80 -140 82q-305 -131 -532 -131q-176 0 -285 71q-127 88 -127 254zM207 209q0 -96 72 -129 q49 -27 155 -27q76 0 236 39q184 41 200 82q-233 193 -448 461q-215 -233 -215 -426zM311 1257q0 -82 39 -210q41 -137 90 -193q143 102 267 262q145 193 145 332q0 86 -53.5 139t-139.5 53q-139 0 -243.5 -119.5t-104.5 -263.5z" />
<glyph unicode="'" horiz-adv-x="284" d="M51 1565q0 37 10 102q14 78 33 84q10 4 29 4q110 0 110 -43q0 -4 -17 -31.5t-19 -33.5q-14 -45 -15 -140q0 -33 3 -98.5t3 -97.5q0 -98 -73 -99q-45 0 -60 27q-4 295 -4 326z" />
<glyph unicode="(" horiz-adv-x="499" d="M51 883q0 213 55 520q68 371 162 471q10 12 27 12q76 0 76 -125q-8 -18 -23 -18q-8 0 -12 4t-8 4q-72 0 -113 -340q-29 -240 -29 -420q0 -578 82 -835q6 -18 47 -112.5t41 -102.5q0 -72 -92 -72q-47 0 -102 194q-111 369 -111 820z" />
<glyph unicode=")" horiz-adv-x="526" d="M127 12q201 68 201 719q0 250 -29 510q-35 369 -106 459q-27 31 -66 41v43q0 27 33 49t57 22q29 0 41 -4q111 -123 172 -481q45 -276 45 -530q0 -449 -129 -781q-55 -137 -98 -137q-23 0 -121 45v45z" />
<glyph unicode="*" horiz-adv-x="657" d="M-72 1489q25 96 97 119q35 4 159 4q0 6 -51 78q-43 59 -43 71q0 35 39 69t68 34q47 0 98 -115q37 -78 74 -158q70 49 137 99q117 80 131 79q37 0 55.5 -51t18.5 -98v-12q-53 -33 -160 -101q2 -4 86 -61q53 -33 53 -80q0 -12 -7 -32.5t-7 -30.5q-10 -14 -39 -15 q-94 0 -152 51q-4 -8 -6 -20q0 -31 66 -117v-41q-74 -35 -84 -35q-41 0 -92 82q-37 59 -74 115q-47 -41 -96 -84q-63 -57 -109 -57q-29 0 -78 28v50q0 14 142 153q-20 31 -110.5 41t-115.5 35z" />
<glyph unicode="+" horiz-adv-x="1331" d="M51 860q0 29 20.5 57.5t45.5 28.5q47 0 136 -10t136 -10h193v528q33 18 63 19q29 0 68 -18.5t39 -43.5q0 -47 -20.5 -139t-20.5 -137v-209h395q59 0 156 24q18 -10 18 -28q0 -125 -119 -125h-450v-383q0 -55 24 -154q-14 -20 -28 -20q-125 0 -125 120v437h-512 q-18 33 -19 63z" />
<glyph unicode="," horiz-adv-x="434" d="M36 -401.5q-5 34.5 30 65.5q45 39 92 72t71 94q20 51 0 109.5t-63 85.5q-43 29 -66.5 45t-23.5 45q0 31 20.5 59.5t89.5 28.5q47 0 83 -30t48 -99q18 -106 14.5 -185t-52.5 -161q-43 -74 -94.5 -119t-102.5 -45q-41 0 -46 34.5z" />
<glyph unicode="-" d="M51 778q14 20 31 21q18 0 57 -16.5t66 -16.5q51 0 153.5 8t153.5 8q96 0 121 -34q2 -6 12 -50q8 -33 31 -39v-26q0 -10 -21 -10q-23 0 -67.5 16t-67.5 16q-31 0 -91 -5t-89 -5q-254 0 -289 133z" />
<glyph unicode="." horiz-adv-x="339" d="M51 74q0 88 90 88q51 0 99.5 -30t48.5 -79q0 -35 -49 -61q-37 -20 -78 -21q-45 0 -78 31t-33 72z" />
<glyph unicode="/" horiz-adv-x="1021" d="M51 0q0 23 21.5 51.5t40.5 50.5q143 229 297 598q125 313 247 625q57 141 78 223q2 47 25 131q16 35 59 60.5t84 25.5q33 1 68 -34q-31 -51 -86 -160l-477 -1149q-195 -463 -308 -463q-49 0 -49 41z" />
<glyph unicode="0" horiz-adv-x="1421" d="M51 748q0 268 137 544q158 307 387 389q94 37 228 37q41 0 172 -55q201 -78 305 -313q90 -199 90 -439q0 -344 -168 -616q-190 -324 -512 -324q-303 0 -481 244q-158 217 -158 533zM184 739q0 -133 19 -213q37 -178 182 -295.5t330 -117.5q270 0 413 284q115 226 115 525 q0 279 -98 462q-129 231 -385 232q-90 0 -185 -62q-193 -123 -296 -356q-94 -215 -95 -459z" />
<glyph unicode="1" horiz-adv-x="440" d="M102 1253v62q0 59 43 231q47 184 74 185q39 0 79 -71t40 -112q0 -8 -31 -178q-59 -344 -59 -518v-530q0 -217 26 -263q2 -6 19.5 -26.5t17.5 -32.5q0 -43 -43 -43q-41 0 -104 33q-20 43 -21 84v1149q-12 10 -41 30z" />
<glyph unicode="2" horiz-adv-x="1335" d="M51 33q0 43 43 92q80 70 238 213q223 199 405 469q225 330 226 555q0 117 -81 195.5t-202 78.5q-125 0 -262 -101t-172 -220q-10 -76 -23 -154q-20 -115 -67 -114q-18 0 -57.5 31.5t-39.5 47.5q0 143 129 312q121 158 261 225q117 61 251 61q164 0 286 -122.5t122 -282.5 q0 -256 -246 -563q-145 -184 -450 -455q-63 -57 -86 -82q-47 -51 -66 -96q14 -23 45 -23l12 2l879 138q41 4 68 -37q20 -37 20 -80q0 -61 -35 -62q2 0 -41 13q-63 20 -149 20q-354 0 -729 -100q-4 -2 -92 -31q-70 -23 -86 -22q-100 0 -101 92z" />
<glyph unicode="3" horiz-adv-x="1458" d="M51 285q0 23 24.5 45t47.5 22q41 0 76 -65q25 -49 47 -99q80 -119 350 -118q184 0 340 73q170 82 256 230q61 111 61 190q0 145 -157 254q-143 92 -297 92q-31 0 -184.5 -60.5t-247.5 -60.5q-90 0 -91 41q0 39 42 85.5t192 56.5q176 14 215 30q84 33 209 181 q119 141 119 276q0 90 -54.5 146.5t-144.5 56.5q-98 0 -248.5 -70.5t-214.5 -146.5q-14 -18 -4 -64l-96 -96q-74 -68 -103 -67q-23 0 -52.5 20t-29.5 41q0 43 60 123q109 143 307 256q211 117 381 117q143 0 239.5 -78t96.5 -221q0 -123 -90 -258q-74 -119 -187 -209 q6 -10 142 -43q147 -41 229 -107q123 -102 123 -280q0 -164 -96 -289q-233 -307 -635 -307q-172 0 -338 41q-84 23 -180 100q-106 86 -107 162z" />
<glyph unicode="4" horiz-adv-x="1601" d="M51 575q0 80 156 228q113 98 225 198q186 164 549 506q51 68 102 131q66 80 136 80q39 0 70.5 -28.5t31.5 -67.5q0 -20 -21 -84q-27 -84 -28 -92q-12 -55 -72 -449q-43 -289 -43 -364q0 -29 23 -47q23 2 74 4t77 2q197 0 246 -72v-45l-18 -14q-94 18 -318 18 q-63 0 -81.5 -27.5t-18.5 -99.5q0 -217 26 -293q2 -8 20.5 -36.5t18.5 -38.5q0 -12 -18 -43h-82q-20 0 -56 44t-36 66q0 10 6 31.5t6 32.5q0 41 3 126t3 126q0 92 -28 92q-115 0 -342.5 -33t-342.5 -33q-66 0 -163 58q-104 63 -105 124zM227 596q0 -76 95 -74h10l694 60 l68 794h-29q-170 -104 -473 -370q-365 -315 -365 -410z" />
<glyph unicode="5" horiz-adv-x="1380" d="M51 178q0 61 82 62q55 0 188.5 -100.5t245.5 -100.5q244 0 410 133q180 143 180 379q0 166 -113.5 263t-281.5 97q-84 0 -199 -28q-123 -31 -182 -72q-2 0 -51 -49q-33 -31 -56 -31q-31 0 -86 35q0 25 15.5 74t15.5 75v134q-2 90 -2 137q0 340 80 516q14 8 45 8 q41 0 63.5 -24.5t43.5 -24.5q6 0 145 18q276 33 373 33q160 0 159 -90q0 -33 -36 -96h-23q-12 0 -47 12t-45 16q-45 10 -197 11q-49 0 -200 -21q-164 -20 -181 -39q-55 -47 -55 -440q0 -84 8 -133l6 -6q10 0 117 47q143 59 326 59q217 0 356 -112q148 -123 148 -336 q0 -268 -216 -457q-205 -178 -479 -178q-109 0 -203 17.5t-208 76.5q-145 72 -146 135z" />
<glyph unicode="6" horiz-adv-x="1372" d="M76 606q0 283 151 563q143 266 377 447q176 135 256 135q33 0 78 -36t45 -68q0 -66 -41 -66q-12 0 -30.5 20.5t-30.5 20.5q-100 0 -275 -170q-141 -141 -213 -264q-133 -227 -147 -375q18 10 45 47q215 260 491 260q246 0 392.5 -149.5t146.5 -395.5 q0 -274 -188.5 -461.5t-462.5 -187.5q-283 0 -445 205q-150 186 -149 475zM223 545q16 -219 115 -359q117 -164 326 -163q229 0 383 180q145 167 145 403q0 186 -107.5 302t-293.5 116q-137 0 -330 -139q-201 -139 -201 -256q0 -4 3 -14.5t3 -16.5q0 -37 -43 -53z" />
<glyph unicode="7" horiz-adv-x="1189" d="M25 1305q0 16 16 65q20 57 22 72q10 74 21.5 151.5t48.5 141.5q23 -2 38 -22.5t28 -41.5l16 -2q35 -2 141 33q127 41 150 47q133 25 270 25q98 0 219 -25q47 -10 125 -51q97 -47 97 -76q0 -6 -52 -66q-59 -68 -61 -69q-348 -473 -486 -817q-57 -143 -114 -283 q-66 -180 -66 -297q0 -31 41 -170q-8 -20 -26 -20q-59 0 -95 61q-33 53 -32 119q0 27 20 125q74 328 258 700q29 55 359 660q10 14 10 26q-43 37 -99 37q-6 0 -20 -3t-20 -3q-10 0 -23.5 4t-22.5 4q-80 0 -309 -49q-252 -53 -272.5 -84t-28.5 -127q-10 -88 -51 -127 q-6 -2 -25 -2q-78 0 -77 64z" />
<glyph unicode="8" horiz-adv-x="1361" d="M51 410q0 166 103 288q76 92 245 193q-266 162 -266 366q0 215 172 351q160 127 381 127q152 0 290 -88t204 -226q39 55 43 56q57 0 57 -82q0 -133 -190 -267q-154 -86 -304 -176v-6l5 -10q520 -138 520 -498q0 -174 -116 -302t-292 -163q-96 -16 -215 -16 q-254 0 -424 96q-213 121 -213 357zM172 410q0 -186 176 -279q141 -78 346 -78q188 0 322 80q160 94 160 270q0 174 -172 283q-84 51 -326 131q-92 31 -115 31q-12 0 -74 -41q-170 -109 -219 -158q-98 -98 -98 -239zM254 1268q0 -102 123 -193q113 -84 219 -84q37 0 235 99 q181 90 277 188q-25 37 -45 82q-123 270 -377 270q-172 0 -297 -94q-135 -102 -135 -268z" />
<glyph unicode="9" horiz-adv-x="1200" d="M51 1083q0 281 142 467q154 205 425 205q256 0 404 -211q127 -188 127 -454q0 -340 -166 -650q-74 -139 -192 -276q-154 -184 -254 -184q-41 0 -99 30q-68 35 -67 74q0 51 47 51q14 0 39.5 -20.5t42.5 -20.5q94 0 258 242q141 205 182 334l33 102q-248 -201 -447 -201 q-143 0 -258.5 70t-175.5 199q-41 86 -41 243zM176 1057q0 -164 92 -275q100 -117 262 -116q88 0 262.5 112.5t204.5 192.5q21 51 21 106q0 215 -88 381q-109 203 -305 203q-201 0 -334 -207q-115 -184 -115 -397z" />
<glyph unicode=":" horiz-adv-x="362" d="M51 100q0 31 31 67t59 36q53 0 100.5 -38t47.5 -91q0 -33 -28 -68t-62 -35q-41 0 -94.5 44t-53.5 85zM55 946q0 90 99 90q145 0 145 -90q0 -47 -46 -76.5t-97 -29.5q-100 0 -101 106z" />
<glyph unicode=";" horiz-adv-x="493" d="M111.5 -401.5q-5.5 34.5 31.5 65.5q43 39 90.5 72t73.5 94q20 51 0 109.5t-63 85.5q-45 29 -67.5 45t-22.5 45q0 31 20.5 59.5t89.5 28.5q45 0 81 -30t48 -99q18 -106 14 -185t-51 -161q-45 -74 -96 -119t-102 -45q-41 0 -46.5 34.5zM133 946q0 90 96 90q148 0 148 -90 q0 -47 -46 -76.5t-98 -29.5q-100 0 -100 106z" />
<glyph unicode="&#x3c;" horiz-adv-x="919" d="M51 864q0 25 31 45l659 430q98 -31 99 -102q0 -25 -269 -174q-162 -92 -325 -182q106 -70 297 -174q225 -121 301 -166q24 -58 24 -62l-6 -10q-53 -61 -84 -61q-27 0 -342 191.5t-366 234.5q-18 14 -19 30z" />
<glyph unicode="=" horiz-adv-x="1005" d="M51 637q0 10 4 31.5t6 29.5q33 10 33 11q23 0 69 -6.5t70 -6.5q53 0 163 10.5t167 10.5q29 0 83 -5t81 -5q33 0 92.5 19t89.5 19q16 0 30.5 -30.5t14.5 -50.5v-68q-731 -39 -751 -39q-152 0 -152 80zM51 956v68q186 12 371 23q225 16 375 16q53 0 105 -28t52 -79 q0 -10 -4 -31.5t-4 -29.5q-33 -10 -35 -10q-8 0 -33.5 14t-29.5 14q-70 27 -375 27q-121 0 -194 -14q-23 -4 -89.5 -33t-74.5 -29q-18 0 -41 38t-23 54z" />
<glyph unicode="&#x3e;" horiz-adv-x="919" d="M51 1268q2 4 2 10q57 61 88 61q25 0 340.5 -192.5t368.5 -235.5q18 -12 18 -28q0 -25 -30 -45l-664 -430q-98 31 -98 102q0 25 270 176q164 90 328 178q-109 72 -297 174q-225 121 -303 168q-23 55 -23 62z" />
<glyph unicode="?" horiz-adv-x="1294" d="M51 1247q0 84 164 228q145 125 248 161q184 66 264 66q158 0 330 -123q186 -133 186 -285q0 -86 -78 -207q-70 -104 -417 -346q-305 -209 -314 -313q37 -27 67.5 -49.5t30.5 -81.5q-8 -10 -26 -10q-45 0 -114.5 77.5t-69.5 124.5q0 117 153 230q127 80 250 162 q350 246 350 413q0 121 -92 201q-88 72 -213 72t-318.5 -114t-256.5 -226q8 -14 24 -15q8 0 23.5 5.5t23.5 5.5q63 0 64 -41q0 -27 -41 -56.5t-70 -29.5q-45 0 -106.5 52t-61.5 99zM356 145q0 33 56 62q49 23 88 22q53 0 85.5 -37t32.5 -90q0 -113 -104 -112q-70 0 -114 43 t-44 112z" />
<glyph unicode="@" horiz-adv-x="2127" d="M94 596q0 279 95.5 490.5t236.5 352t304 211t302 70.5q205 0 389.5 -59t322.5 -168t220 -263.5t82 -346.5q0 -215 -58.5 -362.5t-141.5 -235.5t-177 -126t-170 -38q-66 0 -118 32.5t-86.5 80t-53 96.5t-18.5 80t2 48t5 36.5t11.5 43t18.5 66.5q4 23 28.5 54.5t83.5 31.5 q35 0 35 -20q0 -10 -6 -21q-16 -23 -28.5 -40t-29.5 -74q-8 -29 1.5 -82.5t38 -107.5t72.5 -93t112 -39q63 0 123.5 47t106.5 138t73.5 220.5t27.5 292.5q0 195 -63 329t-166.5 219t-231.5 122t-259 37q-90 0 -192.5 -26.5t-205 -85t-199 -145.5t-170 -207t-117.5 -274.5 t-44 -344.5q0 -274 74.5 -441.5t189.5 -261.5t257 -126t282 -32q133 0 246.5 34t204.5 82t154.5 99.5t100.5 87.5q6 10 16.5 22.5t20.5 21t22.5 8.5t24.5 -17q14 -18 17.5 -44.5t-1 -53.5t-14.5 -48.5t-20 -29.5q-186 -143 -381 -204.5t-350 -61.5q-174 0 -352.5 48 t-322 168t-234.5 316.5t-91 493.5zM683 428q-13 92 1 190q14 127 55 229.5t98.5 175.5t126 114t134.5 41q49 0 96 -24t87 -55.5t70 -68t44 -63.5q29 -47 39 -107.5t10 -97.5q0 -10 -3 -25.5t-10.5 -31t-22.5 -25.5t-42 -10q-31 0 -43 13t-16 29.5t-1 35t3 28.5 q6 94 -4.5 151.5t-32 89.5t-51 44t-56.5 12q-47 0 -97 -24.5t-94 -76.5t-80 -132t-56 -191q-41 -221 -4.5 -336.5t159.5 -115.5q59 0 106.5 49t83.5 112.5t57.5 124t27.5 80.5l57 -18q-2 -12 -7 -49t-16.5 -86.5t-32 -101.5t-54 -96t-83 -71.5t-116.5 -27.5q-102 0 -171 42 t-109 111.5t-53 161.5z" />
<glyph unicode="A" horiz-adv-x="1300" d="M25 8q0 14 20.5 68.5t24.5 66.5q43 285 166 627q338 961 522 961q197 0 305 -502q37 -176 88 -676q16 -12 78 -29q45 -10 45 -41q0 -82 -64 -82q-25 0 -53 11q0 -131 64 -291q-2 -35 -32 -55.5t-65 -20.5q-31 0 -69 18q-20 41 -21 130q0 23 2 83v84q0 47 -8 62 q-7 1 -15 1q-19 0 -49 -4q-42 -5 -61 -5q-111 0 -346 -31q-268 -35 -309 -72q-23 -16 -49 -184q-20 -135 -23 -199q-12 -18 -35 -18q-35 0 -75.5 33.5t-40.5 64.5zM291 545q-2 -11 -2 -20q0 -42 39 -42q14 0 155 27q111 20 543 47q-63 451 -82 547q-83 426 -176 426h-2 q-106 -4 -264 -393q-90 -246 -176 -492q-16 -33 -35 -100z" />
<glyph unicode="B" horiz-adv-x="1292" d="M51 186q0 39 37 43t39 17q0 -2 0 41t4 138t4 142l-2 90q-53 18 -53 50q0 39 47 63v856q0 20 29.5 51t50.5 31q41 0 47 -8q14 -16 27 -33q-41 -236 -41 -338l4 -16q174 448 516 448h2q201 0 305 -153q94 -135 94 -340q0 -154 -71 -303q-82 -174 -209 -215 q336 -41 336 -295q0 -78 -37 -140q-172 -307 -588 -307q-131 0 -332 51q0 -6 -2 -10q0 -8 10 -49q-10 -31 -39 -39l-20 10h-6q-41 0 -49 52q-8 82 -14.5 90t-53.5 28q-35 14 -35 45zM256 305q0 -68 4 -121q121 -71 320 -71h6q164 0 319 96q180 108 180 262q0 141 -272 182 q-109 16 -383 17q-109 0 -172 -15q-2 -84 -2 -350zM266 766q-10 0 189 0q295 0 428 104q149 121 149 408q0 383 -280 383q-188 0 -344 -248q-141 -223 -142 -422v-225z" />
<glyph unicode="C" horiz-adv-x="1222" d="M51 715q0 270 80 512q88 281 266 434q129 115 262 115q199 0 295 -189q78 -150 78 -366q0 -106 -35 -248q-43 -184 -112 -185q-53 0 -76 56q14 10 49 37q66 63 66 311q0 152 -56 291q-72 178 -198 178q-98 0 -209 -121q-82 -88 -142 -207q-131 -270 -131 -667 q0 -264 93 -420q117 -195 358 -195q133 0 243.5 71t170.5 187q10 39 43 109q20 33 51 33q51 -1 51 -58q0 -41 -22 -106q-55 -156 -220 -252q-150 -86 -327 -86q-299 0 -451 246q-127 203 -127 520z" />
<glyph unicode="D" horiz-adv-x="1277" d="M76 362q0 215 8 639t8 641q0 6 -3 20.5t-3 20.5q0 57 61 58q31 0 67 -24.5t36 -53.5q0 -31 -16.5 -75t-16.5 -72v-101q31 18 90.5 126t120.5 159q94 82 242 82q276 0 415 -228q115 -188 115 -481q0 -389 -172 -731q-211 -414 -563 -414q-127 0 -240 90q-43 -57 -57 -57 q-27 0 -55 19q-37 100 -37 382zM205 352q0 -119 63 -207q72 -96 191 -96q205 0 364 215q137 176 185 404q41 202 41 417q0 233 -66 388q-90 215 -293 215q-143 0 -282 -179q-117 -145 -162 -309q-41 -147 -41 -317v-531z" />
<glyph unicode="E" horiz-adv-x="1189" d="M76 553q0 481 26 821l4 82q0 20 -6 52t-6 46q0 61 84 68q96 10 375 80q254 61 362 61q14 0 37 -4h6q38 1 73 -23q38 -26 38 -55q0 -51 -129 -51q-119 0 -346 -41q-256 -49 -318 -100q-20 -195 -49 -608q10 -12 29 -13q76 0 227.5 48.5t231.5 48.5q63 0 127 -33l20 -78 q6 -10 -65 -35q-37 23 -92 23q-66 0 -243 -46t-243 -77q-10 -55 -10 -260q0 -387 199 -387q94 0 272 63.5t272 63.5q164 -1 213 -93q-14 -27 -30 -26q-10 0 -30 3t-30 3q-111 0 -319.5 -69.5t-317.5 -69.5q-362 0 -362 606z" />
<glyph unicode="F" horiz-adv-x="1048" d="M31 1550q0 27 22 52q10 6 64 8q45 2 59 20q6 20 6 39q0 39 51 70q39 22 66 22h2q27 0 29 -32v-56q6 -16 18 -24q121 25 244 51q145 29 246 29q145 -1 229 -103q-29 -29 -63 -29q-16 0 -47 4.5t-48 4.5q-109 0 -286 -45q-213 -53 -287 -62l-55 -481q-4 -51 -5 -86 q0 -57 39 -58q10 0 23 5q246 61 356 61q119 0 119 2q0 1 -12 2q51 -4 82 -51l8 -64q-8 -18 -25.5 -18t-47.5 -5t-46 -5q-219 0 -496 -84q-18 -84 -18 -377q0 -240 18 -268q10 -16 24.5 -31.5t14.5 -26.5q0 -16 -28.5 -38.5t-42.5 -22.5q-4 0 -78 41q-53 141 -53 373 q0 180 29.5 537.5t29.5 539.5q0 39 -37 43q-55 10 -65 18q-39 25 -39 45z" />
<glyph unicode="G" horiz-adv-x="1236" d="M51 776q0 340 133 629q172 367 469 367q23 0 76 -21q150 -59 256 -266q102 -195 102 -369q0 -313 -124 -313q-72 0 -72 59q0 10 32.5 74.5t32.5 101.5q0 182 -67 359q-90 231 -246 231q-160 0 -276 -192q-92 -152 -125 -342.5t-33 -331.5q0 -268 47 -395 q70 -201 276 -263q66 -20 107 -20q119 0 223.5 59.5t159.5 157.5q51 92 51 129q0 55 -88 55q-176 0 -281.5 -49t-99.5 -49q-84 0 -84 135q0 31 33 51.5t186 44.5q145 27 201 27q102 0 174 -61.5t72 -161.5q0 -209 -180 -336q-164 -115 -400 -115q-307 0 -448 265 q-106 203 -107 540z" />
<glyph unicode="H" horiz-adv-x="1417" d="M39 471q0 20 22.5 57t44.5 37q6 0 15.5 -2t13.5 -2l12 2q4 113 5 451q0 449 61 608q27 70 92 70q41 0 79 -27t38 -68q0 -16 -23 -69q-27 -63 -28 -74q-70 -246 -70 -743q0 -115 45 -115q12 0 135 27q276 51 369 51q23 0 78 13t107 13q50 0 50 67v5l-6 225q-1 30 -1 60 q0 189 22 377q39 342 139 342q51 0 92 -54q33 -49 35 -104q-41 -31 -43 -33q-18 -18 -29 -47q-55 -145 -65 -803q92 -20 92 -61q0 -27 -23 -60q-27 -10 -75 -30q0 -113 26 -330q2 -14 25 -78q18 -51 18 -72q0 -31 -22.5 -61.5t-52.5 -30.5q-70 0 -97 103q-2 12 -19.5 162.5 t-17.5 193.5q0 45 7 86q-158 -2 -373 -43q-184 -35 -369 -74l-47 -47q4 -96 4 -196q10 -152 47 -195q-10 -33 -31.5 -33t-51 -11t-44.5 -11q-49 0 -61 190q-6 121 -8 242l-19 24l-10 -2q-33 0 -60.5 19.5t-27.5 50.5z" />
<glyph unicode="I" horiz-adv-x="440" d="M84 383l18 1214q0 35 48.5 76t85.5 41q23 0 62.5 -27t39.5 -47q0 -2 -23 -43q-10 -20 -20 -135q-57 -526 -57 -970q0 -367 77 -480q-48 -32 -75 -32h-2q-111 0 -134 178q-20 160 -20 225z" />
<glyph unicode="J" horiz-adv-x="1073" d="M51 551q0 209 72 209q115 0 115 -195q0 -31 -2.5 -88t-2.5 -86q0 -94 82 -191.5t177 -97.5q286 0 286 844v6q0 550 2 550v-3l-4 6q-72 -2 -205 -76.5t-143 -74.5q-31 0 -49.5 31.5t-18.5 62.5q0 45 58 70q45 18 184 57q115 33 178 72l6 6q10 80 68 80q16 0 48 -22.5 t48 -22.5q23 0 65 11t64 11q39 0 80 -24.5t41 -57.5q0 -43 -51 -43q-14 0 -45 3t-47 3q-123 0 -123 -75q0 -20 4 -59.5t4 -59.5q0 -436 -37 -752q-33 -285 -88 -428q-102 -248 -311 -248q-176 0 -322 207q-133 190 -133 375z" />
<glyph unicode="K" horiz-adv-x="1257" d="M45 367l47 1251q0 10 -4 24.5t-4 20.5q0 96 72 96q39 0 100 -39t61 -73q0 -16 -18 -25q-25 -12 -29 -14q-20 -18 -30 -115q-47 -532 -47 -805l12 -12q410 555 434 588q355 454 470 454h1q16 0 27 -4q2 -6 43 -61q28 -36 28 -64q0 -39 -30 -39q-6 0 -32 7.5t-30 7.5 q-47 0 -244 -219q-186 -209 -217 -279q-26 -53 -26 -93q0 -183 182 -489q194 -327 353 -327h1q27 0 76 23.5t74 23.5q45 0 45 -37q0 -53 -72 -92q-61 -35 -119 -35q-213 0 -421 291q-92 131 -273 485q-76 -88 -164 -219q-112 -165 -112 -230q0 -271 59 -370l6 -45 q-29 -33 -61 -33q-57 0 -90 80q-18 41 -44 180q-24 129 -24 180v7z" />
<glyph unicode="L" horiz-adv-x="970" d="M51 506q0 160 24.5 474t24.5 472q0 33 -5 96.5t-5 98.5q0 25 2 53q29 33 76 33q90 0 90 -209q0 -182 -32.5 -546t-32.5 -546q0 -346 229 -346q78 0 217 44t215 44q41 0 65.5 -37t24.5 -82q-236 -88 -532 -88q-219 0 -301 170q-59 121 -60 369z" />
<glyph unicode="M" horiz-adv-x="1660" d="M90 418q0 190 20.5 571t20.5 572q0 41 -8 64.5t-8 27.5q0 100 204 100q39 0 93 -53q8 -80 22 -236q29 -225 152 -655q150 -528 243 -528q121 0 265 481q88 311 143 614q33 98 84 277q31 116 174 116h2q33 0 66.5 -18t33.5 -49q0 -23 -19 -43.5t-34.5 -40t-15.5 -78.5 q1 -41 1 -62t-1 -22q-63 -547 -64 -1024q0 -250 0 -244q10 -180 76 -204v-25q-12 -29 -43 -29q-162 0 -192 316q-7 66 -7 132q0 55 5 111l67 826q-96 -344 -190 -690q-174 -543 -340 -543q-74 0 -154 94q-63 72 -98 160q-78 201 -164 559q-63 287 -129 571l-16 -39 q-40 -417 -40 -625q0 -28 1 -52l26 -586q4 -92 62 -101q2 -69 -120 -69h-3q-115 0 -115 424z" />
<glyph unicode="N" horiz-adv-x="1167" d="M51 598q0 111 33 337t33 339v332q0 4 -3 15t-3 17q0 66 129 66q109 0 149 -66q10 -18 21 -112q8 -61 14 -125q35 -205 184 -674q178 -543 256 -543q68 0 68 260v15l-8 768q0 135 49 301q63 217 166 217q39 0 80 -25q2 -23 -24 -33t-48 -20q-37 -20 -64 -231 q-24 -160 -24 -259v-8l-6 -776q-4 -102 -45 -221q-53 -154 -136 -154q-125 0 -233 232q-43 92 -121 350t-231 772q-29 -6 -31 -51q-6 -70 -41 -358q-29 -221 -29 -359q0 -412 52 -477q29 -41 28 -45q0 -29 -36.5 -54.5t-65.5 -25.5q-102 0 -103 336q0 45 -5 130t-5 130z" />
<glyph unicode="O" horiz-adv-x="1464" d="M61 735q0 369 164 662q195 354 535 354q297 0 469 -305q143 -254 143 -578q0 -362 -162 -628q-188 -311 -524 -312q-84 0 -197 39q-428 135 -428 768zM186 659q0 -47 21 -153q43 -219 143 -328q119 -123 330 -123q293 0 436 291q113 221 113 545q0 567 -379 696 q-41 14 -72 15q-164 0 -323 -150q-268 -256 -269 -793z" />
<glyph unicode="P" horiz-adv-x="1282" d="M76 408q0 76 12 230q10 132 10 209v25v22q0 79 12 216q14 158 13 233v244q0 18 -9.5 56t-9.5 57q0 49 68 49q43 0 72.5 -39t29.5 -82q0 -33 -14 -94t-14 -96l2 -66q59 102 119 205q136 192 362 192h2q246 0 373 -202q102 -166 102 -422q0 -90 -14 -178 q-100 -626 -518 -626q-15 0 -31 1q-242 16 -407 160l-19 -13v-106v-19q0 -136 27 -202q2 -8 27.5 -53.5t25.5 -55.5q0 -31 -23.5 -57.5t-56.5 -26.5q-76 0 -106 51q-20 39 -27 123q-8 131 -8 265zM233 721q25 14 37 14q18 0 32.5 -25.5t25.5 -33.5q-2 -8 -7.5 -5t-5.5 -5 q0 -12 21 -48q97 -153 304 -153h3q195 0 291 129q74 94 119 301q26 147 26 219q0 199 -67 350q-90 197 -264 197q-225 0 -381 -299q-133 -256 -134 -504v-137z" />
<glyph unicode="Q" horiz-adv-x="1462" d="M102 770q0 369 156 647q190 342 530 342q297 0 474 -301q149 -251 149 -573q0 -526 -297 -774q98 -141 127 -191q72 -113 100 -203q-12 -57 -59 -57q-29 0 -134.5 192.5t-150.5 192.5q-12 0 -67 -20q-68 -23 -76 -25q-25 -6 -117 -10q-18 -1 -35 -1q-600 0 -600 781z M227 741q0 -270 121 -444q135 -193 379 -201h6q71 0 180 41v29q-43 41 -122 84q-94 49 -132 78q-27 20 -26 49q0 65 89 65h3q82 0 324 -243q229 219 229 692q0 264 -111 471q-133 256 -381 270q-13 1 -27 1q-198 0 -341 -197q-121 -166 -164 -398q-27 -129 -27 -297z" />
<glyph unicode="R" horiz-adv-x="1406" d="M25 659q0 57 163 103q18 92 25 246q10 193 14 249q2 27 23 154q16 85 16 143v13q-12 8 -67.5 8t-55.5 43q0 53 52 65q35 10 73 21q8 27 33 57q25 8 41 8q29 0 58.5 -28.5t52.5 -28.5q12 0 35.5 4t35.5 4q285 0 480 -118q237 -136 237 -402q0 -223 -131 -360 q-82 -90 -317 -217q-14 -4 -35 -15q51 -47 230 -164.5t255 -193.5q113 -111 113 -226v-12v-12q-14 -27 -43 -27q-35 0 -45 15q-20 104 -346 333.5t-441 229.5h-145v-160q0 -33 16 -153q16 -127 27 -142q43 -68 43 -63q0 -59 -66 -60q-76 0 -113.5 54.5t-37.5 502.5 q0 35 -90 64t-90 65zM330 748q190 -72 235 -72q37 0 103 20q190 55 307 187q133 141 133 325q0 195 -176 299q-145 88 -354 88q-74 0 -123 -10l-33 -51q-35 -59 -41 -158q-4 -139 -10 -166q-31 -145 -41 -462z" />
<glyph unicode="S" horiz-adv-x="1148" d="M51 195q0 63 62 63q49 0 112 -55q90 -86 97 -90q98 -63 315 -64q293 0 293 154q0 72 -127 176q-20 14 -191 137q-274 195 -346 272q-162 172 -162 400q0 209 121 383q132 194 334 194h2q170 0 293 -145q109 -127 141 -309q2 -61 21 -187l20 -92q0 -205 -100 -205 q-25 0 -51.5 29t-26.5 55q0 35 15.5 104.5t15.5 104.5q0 178 -58 314q-74 184 -225 184q-152 0 -252 -132t-100 -288q0 -211 219 -399q203 -145 408 -295q217 -158 217 -287q0 -143 -178 -219q-143 -61 -308 -61q-152 0 -331 61q-229 78 -230 197z" />
<glyph unicode="T" horiz-adv-x="1212" d="M35 1599q27 43 383 89q288 32 424 32h8q297 0 297 -123q0 -63 -43 -63q4 0 -57 27q-39 20 -197 20h-115q-61 0 -76.5 -18.5t-24.5 -87t-30 -201.5q-49 -391 -49 -836q0 -332 70 -446q0 -35 -27 -35q-133 0 -168 154q-16 57 -16 256q0 287 10 432q4 70 29 321 q20 203 20 324q0 96 1 96l1 -24q-2 39 -33 38q-45 0 -136 -18t-138 -18q-102 0 -133 81z" />
<glyph unicode="U" horiz-adv-x="1165" d="M90 745q0 125 15.5 375t15.5 373q0 23 -15.5 64.5t-15.5 62.5q0 27 42 54.5t71 27.5q87 0 87 2h-1q29 -5 29 -44q0 -6 -1 -13q-18 -72 -38 -189q-49 -473 -50 -584v-331q0 -176 68 -310q84 -170 244 -170q268 0 362 515q47 256 47 731l2 106q1 23 1 43q0 40 -3 70 q-6 59 -26.5 101t-20.5 48q0 25 19.5 56.5t44.5 31.5q29 0 68.5 -23.5t39.5 -49.5v-748q0 -207 -49 -455q-59 -311 -156 -415q-125 -133 -292 -133q-199 0 -308 92q-133 113 -166 327q-14 90 -14 385z" />
<glyph unicode="V" horiz-adv-x="1212" d="M51 1630q0 31 46 57.5t79 26.5q43 0 79 -33.5t36 -78.5q0 -51 -6 -149.5t-6 -149.5q0 -135 83 -531q133 -631 224 -631q59 0 135 140q123 219 225 649q98 414 98 682q0 98 -49 131q51 74 82 74q41 0 64 -64q20 -53 20 -100q0 -197 -65 -588q-47 -264 -160 -614 q-154 -481 -277 -482q-109 0 -174 33q-127 70 -239 637q-27 129 -119 743q-12 80 -47 203q0 2 -14.5 17.5t-14.5 27.5z" />
<glyph unicode="W" horiz-adv-x="1533" d="M74 1554q0 156 119 156q43 0 104 -33v-69q-39 -8 -53.5 -30t-18.5 -83q-1 -24 -1 -54t1 -67l2 -96q0 -322 33 -641q49 -471 143 -471q49 0 113 194q47 133 70 252q92 444 92 738q0 16 33.5 41.5t50.5 25.5q55 0 104 -39t54 -90q-47 -76 -48 -235q0 -246 33 -506 q51 -373 152 -373q139 0 223 453q61 330 61 581q0 141 -26 224q-20 53 -41 108q-25 70 -25 109q0 135 70 135q72 0 108 -258q27 -180 27 -346q0 -305 -82 -664q-115 -493 -308 -493h-1q-141 0 -209 186q-45 123 -68 383q-27 272 -38 321q-8 -31 -103 -460 q-102 -475 -242 -476q-76 0 -143 72q-102 109 -154 696q-32 387 -32 785v24z" />
<glyph unicode="X" horiz-adv-x="1431" d="M12 8q39 35 113 109q39 41 259 404.5t220 381.5q0 39 -225 362.5t-225 385.5q0 84 90 84q41 0 135 -43l8 -15v-9q0 -129 109 -325q98 -154 194 -305q106 160 301 490q25 63 92 182q43 59 93 59q27 0 46 -25.5t21 -53.5l-483 -779q80 -156 272 -436q231 -340 301 -340 q23 0 37 23h27q20 -24 20 -47q0 -35 -32.5 -55.5t-65.5 -20.5q-164 0 -631 741q-12 2 -21.5 -8t-93.5 -162q-94 -162 -190 -325q-102 -186 -145 -342q-43 -33 -82 -33q-53 0 -144 102z" />
<glyph unicode="Y" horiz-adv-x="1243" d="M51 1638q0 104 82 105q53 0 86 -55q27 -51 27 -109q0 -18 -11.5 -46t-11.5 -44q0 -117 127 -402q140 -305 235 -305h1q43 47 243 512q176 418 265 418q92 0 98 -72q-25 -45 -94.5 -125.5t-91.5 -130.5q-186 -367 -326 -718q-182 -469 -182 -692q0 -23 2 -44 q-46 -32 -86 -32h-2q-82 0 -131 143q16 12 51 47t108 244q45 141 95 282q-164 127 -285 402q-199 459 -199 622z" />
<glyph unicode="Z" horiz-adv-x="1447" d="M51 250q0 133 92 252q106 137 291 289q20 18 324 251q94 68 270 218q80 76 148 174q92 125 92 196q0 104 -162 105q-164 0 -378 -61.5t-359 -145.5q-61 -41 -123 -80q-100 -66 -113 -66q-63 0 -63 110v17v29q178 111 497 213q338 106 531 107q119 0 190 -62 q37 -33 73 -99.5t36 -111.5q0 -139 -314 -430q-293 -256 -587 -512q-313 -297 -314 -446q0 -104 127 -105q123 0 370 30t370 30q68 0 137 -27q86 -33 96 -86q-23 -37 -55 -37q-20 0 -60.5 14.5t-60.5 12.5h-12l-406 -49l-203 -27q-168 0 -286 61q-147 80 -148 236z" />
<glyph unicode="[" horiz-adv-x="481" d="M51 1704q0 61 94 61q23 0 43 -10h224q12 6 32.5 -17.5t20.5 -45.5q0 -35 -53 -41h-164q-51 -203 -51 -555v-398q0 -739 49 -878l215 4q31 -14 31 -45q0 -27 -31 -62l-236 -2q-20 -12 -41 -12q-113 0 -112 383q0 225 10 1485q0 25 -15.5 67.5t-15.5 65.5z" />
<glyph unicode="\" horiz-adv-x="1021" d="M51 1731q33 35 66 34q41 0 85 -25.5t58 -60.5q8 -43 26.5 -128t75.5 -226q123 -311 250 -625q154 -369 297 -598q16 -23 39 -51t23 -51q0 -41 -49 -41q-113 0 -308 463l-479 1149q-31 55 -84 160z" />
<glyph unicode="]" horiz-adv-x="481" d="M0 1702q0 29 51 51h205q20 12 41 12q113 0 113 -385q0 -225 -11 -1484q0 -25 15.5 -67t15.5 -65q0 -61 -94 -61q-25 0 -45 10h-221q-39 12 -39 43q0 29 39 62h163q51 203 52 811v397q0 481 -49 623h-185q-51 20 -51 53z" />
<glyph unicode="^" horiz-adv-x="737" d="M51 1847l2 15q285 256 316 256q29 0 315 -256l2 -15q0 -10 -11 -30.5t-20 -20.5q-49 0 -159 102q-33 31 -64 41q-43 18 -63 29q-37 -8 -129 -70q-109 -102 -158 -102q-8 0 -19.5 20.5t-11.5 30.5z" />
<glyph unicode="_" horiz-adv-x="1196" d="M0 -242h1196v-88h-1196v88z" />
<glyph unicode="`" horiz-adv-x="501" d="M51 1987q0 23 30 62.5t50 39.5q57 0 320 -279v-14q0 -10 -10.5 -30.5t-20.5 -20.5q-51 0 -156 102q-72 70 -133 99q-29 8 -72 22z" />
<glyph unicode="a" horiz-adv-x="923" d="M63 219q0 106 146 205q133 92 246 92h254q16 16 16 55q0 170 -29 258q-47 145 -182 146q-96 0 -178 -123q-76 -113 -76 -215v-14.5v-14.5q0 -20 -20 -20q-25 0 -55.5 30.5t-30.5 55.5q0 72 43 180.5t94 163.5q65 69 157 69h3q145 0 268 -92q131 -100 133 -239l8 -830 q0 -37 -57 -37q-61 0 -74 52q-2 8 -2 100q0 25 -8 41q-143 -104 -309 -105q-115 0 -224 64q-123 72 -123 178zM225 223q0 -70 64 -108q53 -33 129 -33q109 0 208 72t99 178q0 102 -160 102q-125 0 -219 -43q-121 -55 -121 -168z" />
<glyph unicode="b" horiz-adv-x="874" d="M63 264v15l50 1429h34q37 0 69 -38t32 -75q0 -96 -24.5 -282.5t-24.5 -280.5v-98q20 8 51 59q39 63 67 90q51 45 125 45q125 0 228 -102q92 -92 123 -223q18 -86 18 -236q0 -221 -61 -372q-84 -211 -277 -211q-49 0 -131 28q-63 23 -127 47q-6 -16 -6 -34q0 -12 3 -37 t3 -37q0 -39 -43 -39q-45 0 -72 37q-18 18 -28 151q-8 104 -9 164zM193 469q0 -150 51 -254q63 -141 194 -141q129 0 195 184q43 131 43 295q0 158 -33 274q-49 178 -164 179q-141 0 -223 -207q-63 -164 -63 -330z" />
<glyph unicode="c" horiz-adv-x="931" d="M63 399q0 197 84 441q106 301 263 301q74 0 196.5 -73t138.5 -138q16 -80 17 -158q0 -280 -83 -280h-1q-20 0 -48 15t-28 36q0 10 10.5 26.5t12.5 22.5q10 33 10 153q0 283 -129 283q-139 0 -230 -258q-67 -196 -67 -374v-5q0 -137 45 -229q57 -121 180 -121q76 0 174 76 q90 70 133 147q10 25 31 72q14 16 37 16q14 0 36.5 -34t22.5 -52q0 -61 -105.5 -164.5t-170.5 -121.5q-90 -29 -150 -29q-186 0 -286 135q-92 121 -93 313z" />
<glyph unicode="d" horiz-adv-x="940" d="M63 379q0 215 80 444q102 303 271 303q72 0 147 -53q14 -10 119 -108q27 174 27 764q18 16 49 16q47 0 82.5 -36t35.5 -83q0 -59 -14 -151q-18 -121 -22 -152q-8 -80 -27 -526q-14 -410 -14 -455q0 -272 47 -385q-16 -29 -45 -29q-27 0 -58.5 26t-40.5 50q0 51 -14 158 q-152 -193 -289 -193q-168 0 -256 125q-78 109 -78 285zM199 358q0 -113 37 -194q49 -109 145 -109q160 0 242 246q61 178 61 379q0 113 -51 203q-60 108 -166 108h-2q-127 0 -205 -262q-61 -197 -61 -371z" />
<glyph unicode="e" horiz-adv-x="864" d="M63 403q0 193 70 414q92 287 236 287q123 0 268 -125t145 -248q0 -158 -128 -275.5t-287 -117.5q-16 0 -66.5 25.5t-67.5 25.5q-35 0 -34 -20q0 -295 194 -295q100 0 185 67q51 37 112 119q49 66 66 66q57 0 57 -72q0 -113 -149 -203q-137 -82 -256 -82q-344 0 -345 434z M229 618q0 -74 48.5 -124t121.5 -50q104 0 174 91q64 81 64 190q0 88 -51 167t-135 79q-102 0 -166 -129q-55 -106 -56 -224z" />
<glyph unicode="f" horiz-adv-x="741" d="M84 879q0 73 99 73h3h93q6 51 10 131q39 680 381 680q221 0 221 -184q0 -51 -78 -51q-14 0 -22 6q-10 106 -144 106q-125 0 -194 -286q-45 -203 -45 -387q16 4 45 0h69q94 0 94 -56q0 -18 -4 -51q-39 -22 -122 -22h-7q-66 0 -82 -11q-8 -100 -8 -362v-184q0 -123 29 -248 q6 -12 6 -23q0 -61 -88 -61q-76 0 -76 207q0 665 10 665h-131q-59 0 -59 58z" />
<glyph unicode="g" horiz-adv-x="919" d="M63 -422q0 68 54 68q25 0 41 -31q27 -43 35 -47q20 -20 104 -39q76 -20 115 -21q143 0 217 113q65 93 65 243q0 169 -28 267q-123 -162 -295 -162q-51 0 -120 35t-104 76q-67 81 -67 253v5q0 217 78 469q102 323 269 323h1q133 0 281 -239q16 -29 49 -74q33 -10 96 -49 q0 -16 -2 -43q-53 -256 -53 -414q0 -78 7 -241.5t7 -245.5q0 -160 -25 -232q-31 -84 -117.5 -140t-178.5 -56q-109 0 -248 45q-180 57 -181 137zM217 358q0 -315 182 -315q137 0 230 231q71 187 71 353q0 53 -36 90q-8 106 -56 184q-57 94 -157 94q-70 0 -140 -155 q-51 -119 -67 -222q-27 -154 -27 -260z" />
<glyph unicode="h" horiz-adv-x="837" d="M43 94l16 1575q-6 14 -6 31q0 45 51 45q27 0 76 -34t49 -58q0 -61 -23.5 -176t-23.5 -174q0 -4 4 -340q94 84 146 84q82 0 198 -50q221 -92 222 -485v-582q-20 -20 -76 -20q-29 0 -60 37q2 219 2 350q0 649 -217 649q-92 0 -153 -106q-53 -92 -53 -191q0 -10 -6.5 -31.5 t-6.5 -31.5v-328q0 -43 12.5 -125t12.5 -123t-62 -41q-43 0 -72.5 41t-29.5 84z" />
<glyph unicode="i" horiz-adv-x="360" d="M76 104v940q35 18 65 19q31 0 64 -19q43 -18 43 -43q0 -47 -20.5 -139t-20.5 -137v-567q0 -55 22 -154q-10 -20 -26 -20q-127 0 -127 120zM84 1415q0 88 88 88q51 0 88 -34t37 -85q0 -86 -82 -86q-49 0 -90 36t-41 81z" />
<glyph unicode="j" horiz-adv-x="454" d="M-416 -500q0 43 56 43q16 0 24 -2q119 -143 293 -143q266 0 266 463q0 14 -18 1124l20 23q80 20 90 20q33 0 62 -27q-45 -129 -45 -239q0 -174 8 -520t8 -521q0 -170 -82 -296q-98 -150 -256 -150q-84 0 -246 74q-180 80 -180 151zM182 1268v35q0 77 74 77h2 q51 0 92 -33.5t41 -84.5q0 -35 -31.5 -60.5t-68.5 -25.5t-109 92z" />
<glyph unicode="k" horiz-adv-x="974" d="M63 1694q0 27 40 52.5t71 25.5q23 0 49.5 -14.5t26.5 -35.5q0 -2 -12 -61q-18 -70 -19 -268l-10 -744l14 -12q82 51 226 190q88 92 178 185q145 147 172 147q39 -1 61 -35q21 -32 21 -65v-6l-2 -15q-98 -63 -287 -229q-219 -193 -219 -254q0 -23 78 -115 q121 -141 237 -282q162 -176 275 -230v-28q-63 -51 -103 -52q-57 0 -194 162q-174 207 -185 217q-31 27 -108 121q-66 80 -117 111l-47 -62v-254q0 -23 17.5 -65.5t17.5 -65.5q0 -14 -22.5 -28.5t-39.5 -14.5q-102 0 -102 111v358q0 33 8 98.5t8 98.5v706q0 152 -12 238 q0 12 -12 57q-8 35 -9 58z" />
<glyph unicode="l" horiz-adv-x="317" d="M63 1731q48 34 80 34h2q37 0 73 -25.5t36 -60.5q0 -27 -14 -67q-14 -51 -17 -64q-30 -169 -30 -466v-19q0 -489 -5 -489v1q8 -315 41 -473q0 -8 12.5 -34.5t12.5 -42.5q0 -66 -72 -66q-110 0 -110 439v24l8 1149q0 29 -8.5 81t-8.5 79z" />
<glyph unicode="m" horiz-adv-x="1302" d="M63 250v604q0 262 62 262q27 0 53.5 -24.5t26.5 -49.5q0 -55 -17 -141q-14 -113 -16 -141l12 -12q49 111 97 219q70 141 163 141q133 0 232 -287q25 31 63.5 128.5t69.5 137.5q49 61 121 62q68 0 153 -92q156 -166 156 -602v-471q-53 -33 -82 -33q-18 0 -51 18 q2 41 2 137q2 90 2 140q0 788 -164 788q-96 0 -168 -246q-57 -197 -57 -333v-256q0 -20 12 -57.5t12 -55.5q0 -20 -28.5 -40.5t-48.5 -20.5q-23 0 -51.5 32.5t-28.5 55.5v514q0 82 -27 207q-37 159 -87 159h-1q-29 0 -84 -71q-192 -245 -192 -601q0 -47 10 -133t10 -127 q0 -77 -61 -77h-2q-31 0 -54 26q-10 12 -24 115q-12 92 -13 125z" />
<glyph unicode="n" horiz-adv-x="940" d="M63 1042q0 20 32 47t50 27q33 0 62 -37q-8 -166 -8 -194q0 -37 4 -74q23 8 61 84q47 98 82 133q61 72 139 72q31 0 93 -23q139 -51 198 -168q98 -203 98 -536v-385q-14 -29 -43 -29t-92 35v20q0 25 3 71t3 67q0 849 -212 849h-1q-68 0 -143 -98q-194 -239 -194 -602 q0 -53 16 -146.5t16 -142.5q0 -39 -53 -39q-102 0 -102 162v582q0 23 5 66.5t5 66.5q0 33 -9.5 97.5t-9.5 94.5z" />
<glyph unicode="o" horiz-adv-x="940" d="M63 438q0 217 99 426q123 260 311 260q49 0 139 -57q262 -164 262 -563q0 -219 -96 -383q-115 -199 -319 -199q-209 0 -312 162q-84 133 -84 354zM205 444q0 -160 45 -270q68 -151 207 -151h2q154 0 231 174q62 135 62 309q0 164 -43 295q-63 182 -197 182 q-154 0 -242 -203q-65 -154 -65 -331v-5z" />
<glyph unicode="p" horiz-adv-x="894" d="M63 223q0 88 11 240q10 176 12 242q2 34 2 78.5t-2 99.5q-2 141 -2 182q0 176 92 176q47 0 47 -33q0 -63 -10 -186t-10 -184h10q57 78 117 159q70 90 172 90q172 0 258 -153q71 -123 71 -307q0 -254 -73 -424q-100 -240 -316 -240q-141 0 -245 131q-18 -8 -19 -157 q0 -334 35 -472q2 -14 23.5 -62t21.5 -58q0 -41 -51 -41q-61 0 -86 17t-41 118q-16 84 -17 133v651zM178 268q0 -8 25 -24q14 -10 30 -25q41 -57 83 -117.5t126 -60.5q141 0 213 229q52 164 52 346q0 135 -29 234q-43 143 -141 143q-72 0 -175 -125q-88 -111 -124 -225 q-29 -88 -45 -256q-14 -123 -15 -119z" />
<glyph unicode="q" horiz-adv-x="903" d="M63 397q0 215 72 426q98 283 268 283q98 0 185 -90q72 -80 141 -158q49 6 37 6h2q72 0 72 -65q0 8 -47 -125q-63 -190 -64 -737q0 -526 109 -562v-37q-49 -24 -68 -24h-2q-162 0 -162 708v17l-12 12q-92 -84 -242 -84q-158 0 -231 144q-57 109 -58 286zM186 399 q0 -356 185 -356q156 0 231 242q51 165 51 372q0 61 -28 88q4 25 4 52q0 57 -63.5 127.5t-123.5 70.5q-123 0 -196 -245q-59 -184 -60 -351z" />
<glyph unicode="r" horiz-adv-x="696" d="M63 1001q0 51 18.5 62.5t70.5 11.5q63 0 73 -47q2 -51 4 -98q68 102 78 114q55 63 117 64q47 0 92 -29q27 -14 72 -78.5t45 -89.5q0 -10 -4 -43q-33 -51 -64 -51q-20 0 -35 25q-8 162 -133 162q-82 0 -161 -304q-31 -109 -32 -292q0 -236 13 -291q2 -6 12.5 -31t10.5 -37 q0 -57 -76 -57q-88 0 -88 90q0 12 7 36.5t7 37.5q0 141 -13.5 422.5t-13.5 422.5z" />
<glyph unicode="s" horiz-adv-x="913" d="M63 223q0 72 82 72h13h16q4 -78 164 -168q143 -82 229 -82q113 0 113 78q0 45 -137 127q-190 111 -258 178q-141 135 -142 311q0 133 70 254q78 143 199 144q88 0 210.5 -81t143.5 -163q20 -70 20 -162q0 -98 -36 -217q-23 -18 -54 -18q-18 0 -56 14t-38 31v-1q3 0 27 56 q20 43 20 160q0 272 -170 272q-90 0 -143 -119q-47 -98 -47 -198q0 -125 145 -242q49 -41 271 -178q145 -88 145 -139q0 -90 -135 -152q-113 -49 -219 -49q-68 0 -158 33q-49 20 -156 108q-119 94 -119 131z" />
<glyph unicode="t" horiz-adv-x="696" d="M63 807q0 89 176 89q15 0 31 -1l35 465q0 6 -7 23.5t-7 23.5q0 16 20.5 30.5t48.5 10.5q90 -6 91 -88q0 -66 -18.5 -194t-18.5 -189q0 -31 6 -57l141 6q72 0 72 -56q0 -40 -35 -63q-20 -16 -96 -27q-84 -10 -99 -18q-2 -27 -2 -283q0 -201 7 -270q0 -27 12 -88.5 t12 -95.5q0 -20 -25.5 -41t-46.5 -21q-51 0 -81 107q-20 76 -21 145q0 360 6 533q-8 6 -38 6t-81 -6q-10 -1 -19 -1q-63 0 -63 60z" />
<glyph unicode="u" horiz-adv-x="847" d="M66 453v555q-2 9 -2 18q0 59 87 59h3q71 0 71 -79q0 -125 -8 -322q-8 -252 -8 -322v-8q0 -88 41 -176q51 -108 130 -108h1q131 0 203 174q51 129 51 286v334q0 20 -14.5 58.5t-14.5 60.5q0 12 2 29q37 33 72 35q10 1 19 1q98 0 98 -92q0 -78 -17.5 -235.5t-17.5 -271.5 q0 -47 9 -176.5t9 -186.5q0 -113 -24 -135q-16 -10 -45 -10q-55 0 -76 49q-10 49 -21 94q-74 -111 -254 -137q-9 -1 -17 -1q-60 0 -136 58q-80 61 -105 123q-36 84 -36 313v13z" />
<glyph unicode="v" horiz-adv-x="903" d="M63 1036q0 20 21.5 42t42.5 22q31 0 92 -51q-10 -43 -10 -86q0 -156 61 -377q57 -199 133 -359q45 -86 72 -86q100 0 174 402q57 311 58 506q0 16 24.5 33.5t40.5 17.5q66 0 68 -82q2 -26 2 -53q0 -211 -94 -553q-115 -430 -244 -430q-154 0 -281 325q-80 197 -133 465 q-27 127 -27 264z" />
<glyph unicode="w" horiz-adv-x="1304" d="M63 762q0 180 11 282q18 25 47 25q27 0 65.5 -21.5t38.5 -50.5q0 -33 -16 -103.5t-16 -111.5q0 -665 168 -665h1q111 0 179 252q51 186 51 335v11v246q0 53 61 53q74 0 74 -103q0 -12 -4 -37.5t-4 -39.5v-314q0 -111 39 -235q49 -168 131 -168q109 0 184 280 q55 215 55 375q0 162 -20 199q0 2 -17.5 22.5t-17.5 28.5q0 27 23.5 52.5t52.5 25.5q92 0 92 -283q0 -244 -63 -481q-90 -338 -263 -338q-125 0 -215 156q-33 76 -65 155l-10 -4q-37 -102 -74 -205q-55 -118 -160 -118h-2q-326 0 -326 780z" />
<glyph unicode="x" horiz-adv-x="1013" d="M39 -53q0 45 190.5 309t190.5 279q0 27 -123 225q-119 190 -154 231q25 68 105 68q43 0 80 -41q2 -6 53 -119q53 -129 123 -244q98 123 194 244q156 195 195 195q29 0 49.5 -25t20.5 -53q0 -20 -195 -225t-195 -248q0 -51 168 -261t213 -210q12 0 47 8v-37 q0 -25 -37.5 -43t-68.5 -18q-102 0 -229 176q-90 131 -177 262q-143 -150 -348 -582q-102 23 -102 109z" />
<glyph unicode="y" horiz-adv-x="944" d="M25 -385q0 76 71 76q16 0 35 -10q43 -47 86 -91q87 -79 218 -79h3q168 0 226 118q32 72 32 258v11q0 25 -10 102q-7 45 -7 83q0 16 1 30q-72 -68 -102 -84q-55 -37 -123 -37q-174 0 -262 135q-80 119 -80 301q0 344 10 584q10 82 90 82q87 0 87 -29q0 -3 -1 -6 q-49 -133 -49 -596q0 -358 205 -359q127 0 200 193q54 144 54 294v5l-2 293q2 43 6 109q4 61 71 61h13q86 -6 86 -49v-6q-20 -113 -39 -226q-23 -121 -23 -225l-2 -801q0 -172 -103.5 -273.5t-277.5 -101.5q-96 0 -213 52q-135 57 -186 141q-14 23 -14 45z" />
<glyph unicode="z" horiz-adv-x="888" d="M63 96q0 98 146 293q51 66 276 330q152 180 162 231q-25 20 -82 21q-102 0 -196 -45q-63 -27 -131 -82q-55 -43 -62 -43q-63 0 -63 84q0 86 239 149q195 51 318 51q153 0 153 -98q0 -63 -61 -135q-160 -178 -322 -358q-233 -276 -237 -377q23 -27 86 -27q143 0 459 72 q14 2 36.5 -30t22.5 -62q0 -70 -100 -70q-90 0 -241 -16.5t-228 -16.5q-66 0 -115 31q-59 35 -60 98z" />
<glyph unicode="&#xa9;" horiz-adv-x="1955" d="M51 848q0 383 271.5 654.5t654.5 271.5q385 0 656.5 -271.5t271.5 -654.5q0 -385 -271.5 -656.5t-656.5 -271.5q-383 0 -654.5 271.5t-271.5 656.5zM154 848q0 -342 241.5 -583.5t581.5 -241.5q342 0 583.5 241.5t241.5 583.5q0 340 -241.5 581.5t-583.5 241.5 q-340 0 -581.5 -241.5t-241.5 -581.5zM481 758q0 199 70 372q78 195 225 302q113 82 230 81q162 0 247 -122q76 -109 76 -277q0 -80 -35 -184q-41 -133 -98 -133q-51 0 -82 55q12 8 41 29q57 43 57 213q0 106 -45 198q-57 115 -153 115q-78 0 -164 -76q-72 -61 -119 -145 q-109 -188 -108 -461q0 -418 364 -418q233 0 336 176q10 27 37 74q20 29 53 29q55 0 55 -51q0 -147 -176 -246q-152 -80 -311 -80q-242 0 -375 158q-125 147 -125 391z" />
<glyph unicode="&#xad;" d="M51 778q14 20 31 21q18 0 57 -16.5t66 -16.5q51 0 153.5 8t153.5 8q96 0 121 -34q2 -6 12 -50q8 -33 31 -39v-26q0 -10 -21 -10q-23 0 -67.5 16t-67.5 16q-31 0 -91 -5t-89 -5q-254 0 -289 133z" />
<glyph unicode="&#xae;" horiz-adv-x="1075" d="M51 1262q0 201 143.5 344t342.5 143q201 0 344 -143t143 -344q0 -199 -143.5 -342.5t-343.5 -143.5q-199 0 -342.5 143.5t-143.5 342.5zM102 1262q0 -178 128 -306.5t307 -128.5q180 0 308 128.5t128 306.5q0 180 -128 308t-308 128q-178 0 -306.5 -128t-128.5 -308z M315 1206q0 20 62 35q2 59 12 176q12 133 12 113l-21 2q-22 2 -22 16q0 12 32 31.5t34 22.5q10 0 32.5 -8.5t39.5 -8.5q102 0 172 -41q84 -51 84 -147q0 -88 -54 -133q-61 -37 -120 -78q68 -47 133 -92q86 -62 86 -121v-6l-17 -11l-10 7q-8 35 -128 118.5t-161 83.5h-53v-57 q0 -90 31 -131q0 -20 -25 -21q-45 0 -53 86v115q0 12 -33 22.5t-33 26.5zM424 1237q70 -27 88 -27q72 0 133.5 60.5t61.5 132.5q0 70 -64 106q-55 31 -129 31q-25 0 -43 -2v-8q0 -27 -10 -64q-18 -55 -21 -63q-10 -53 -16 -166z" />
<glyph unicode="&#x2000;" horiz-adv-x="1059" />
<glyph unicode="&#x2001;" horiz-adv-x="2118" />
<glyph unicode="&#x2002;" horiz-adv-x="1059" />
<glyph unicode="&#x2003;" horiz-adv-x="2118" />
<glyph unicode="&#x2004;" horiz-adv-x="706" />
<glyph unicode="&#x2005;" horiz-adv-x="529" />
<glyph unicode="&#x2006;" horiz-adv-x="353" />
<glyph unicode="&#x2007;" horiz-adv-x="353" />
<glyph unicode="&#x2008;" horiz-adv-x="264" />
<glyph unicode="&#x2009;" horiz-adv-x="423" />
<glyph unicode="&#x200a;" horiz-adv-x="117" />
<glyph unicode="&#x2010;" d="M51 778q14 20 31 21q18 0 57 -16.5t66 -16.5q51 0 153.5 8t153.5 8q96 0 121 -34q2 -6 12 -50q8 -33 31 -39v-26q0 -10 -21 -10q-23 0 -67.5 16t-67.5 16q-31 0 -91 -5t-89 -5q-254 0 -289 133z" />
<glyph unicode="&#x2011;" d="M51 778q14 20 31 21q18 0 57 -16.5t66 -16.5q51 0 153.5 8t153.5 8q96 0 121 -34q2 -6 12 -50q8 -33 31 -39v-26q0 -10 -21 -10q-23 0 -67.5 16t-67.5 16q-31 0 -91 -5t-89 -5q-254 0 -289 133z" />
<glyph unicode="&#x2012;" d="M51 778q14 20 31 21q18 0 57 -16.5t66 -16.5q51 0 153.5 8t153.5 8q96 0 121 -34q2 -6 12 -50q8 -33 31 -39v-26q0 -10 -21 -10q-23 0 -67.5 16t-67.5 16q-31 0 -91 -5t-89 -5q-254 0 -289 133z" />
<glyph unicode="&#x2013;" horiz-adv-x="1005" d="M49 752q0 18 17 18q188 20 368 28.5t363 8.5q53 0 105 -28t52 -79q0 -43 -7 -57t-36 -14q-8 0 -29.5 12t-33.5 16q-37 16 -129 21.5t-246 5.5q-59 0 -108.5 -4t-85.5 -10q-49 -6 -86 -34t-78 -28q-20 0 -32.5 17.5t-21 40t-10.5 47t-2 39.5z" />
<glyph unicode="&#x2014;" horiz-adv-x="2029" d="M51 649v68l1772 90q53 0 100 -27q55 -29 55 -80q0 8 -8 -61q-27 -10 -35 -10q-10 0 -30 14q-29 14 -33 14q-37 12 -141 13q-223 0 -891 -23q-141 -2 -283 -2q-166 -6 -278 -27q-20 -4 -88 -32.5t-76 -28.5q-18 0 -41 38t-23 54z" />
<glyph unicode="&#x2026;" horiz-adv-x="1466" d="M51 74q0 88 90 88q51 0 99.5 -30t48.5 -79q0 -35 -49 -61q-37 -20 -78 -21q-45 0 -78 31t-33 72zM614 74q0 88 91 88q51 0 99 -30t48 -79q0 -35 -49 -61q-37 -20 -78 -21q-45 0 -78 31t-33 72zM1178 74q0 88 90 88q51 0 99 -30t48 -79q0 -35 -49 -61q-37 -20 -78 -21 q-45 0 -77.5 31t-32.5 72z" />
<glyph unicode="&#x202f;" horiz-adv-x="423" />
<glyph unicode="&#x205f;" horiz-adv-x="529" />
<glyph unicode="&#x2122;" horiz-adv-x="1005" d="M51 1606q8 16 121 32q94 14 137 15q101 0 101 -47q0 -35 -27 -35q-35 16 -74 16h-35q-14 0 -16 -20q-25 -182 -25 -303q0 -96 21 -129v-21q-18 -8 -21 -8q-68 0 -67 111v71q0 43 9 131t9 135l-2 23q-10 0 -37.5 -5t-40.5 -5q-41 0 -53 39zM483 1257q0 55 6.5 168t6.5 170 q0 10 -6.5 20.5t-6.5 12.5q0 43 74 43q16 0 41 -22q4 -23 8 -74q8 -70 41 -199q41 -156 70 -155q45 0 86 182q20 113 45 227q10 47 63 47q43 0 43 -35q-49 -102 -49 -399q0 -94 31 -106v-21q-6 -18 -25 -18q-70 0 -71 243q-51 -197 -125 -196q-70 0 -152 332q-8 -72 -8 -115 v-180q0 -16 18 -17q2 -47 -41 -47q-49 0 -49 139z" />
<glyph unicode="&#x25fc;" horiz-adv-x="1095" d="M0 0v1096h1096v-1096h-1096z" />
</font>
</defs>
</svg>
