<?xml version="1.0" encoding="utf-8"?>
<!-- Generator: Adobe Illustrator 23.0.1, SVG Export Plug-In . SVG Version: 6.00 Build 0)  -->
<svg version="1.1" id="Capa_1" xmlns="http://www.w3.org/2000/svg" xmlns:xlink="http://www.w3.org/1999/xlink" x="0px" y="0px"
	 viewBox="0 0 495.9 495.9" style="enable-background:new 0 0 495.9 495.9;" xml:space="preserve">
<style type="text/css">
	.st0{fill:#FFFFFF;}
</style>
<g id="XMLID_343_">
	<path id="XMLID_348_" class="st0" d="M346.2,83.7H149.7C67,83.7,0,150.7,0,233.4v29.2c0,82.7,67,149.7,149.7,149.7h196.5
		c82.7,0,149.7-67,149.7-149.7v-29.2C495.9,150.7,428.9,83.7,346.2,83.7z M329.2,383.6H166.7C91.9,383.6,31,322.8,31,247.9
		c0-74.8,60.9-135.7,135.7-135.7h162.6c74.8,0,135.7,60.9,135.7,135.7C464.9,322.8,404.1,383.6,329.2,383.6z"/>
	<path id="XMLID_351_" class="st0" d="M329.2,178.4H166.7c-38.4,0-69.6,31.2-69.6,69.6c0,38.4,31.2,69.6,69.6,69.6h162.6
		c38.4,0,69.6-31.2,69.6-69.6C398.8,209.6,367.6,178.4,329.2,178.4z"/>
	<path id="XMLID_352_" class="st0" d="M329.2,137H166.7c-61.1,0-110.9,49.8-110.9,110.9c0,61.1,49.8,110.9,110.9,110.9h162.6
		c61.1,0,110.9-49.7,110.9-110.9C440.1,186.8,390.4,137,329.2,137z M329.2,342.3H166.7c-52,0-94.4-42.3-94.4-94.4
		c0-52,42.3-94.4,94.4-94.4h162.6c52,0,94.4,42.3,94.4,94.4C423.6,300,381.3,342.3,329.2,342.3z"/>
</g>
</svg>
