<?xml version="1.0" standalone="no"?>
<!DOCTYPE svg PUBLIC "-//W3C//DTD SVG 20010904//EN"
 "http://www.w3.org/TR/2001/REC-SVG-20010904/DTD/svg10.dtd">
<svg version="1.0" xmlns="http://www.w3.org/2000/svg"
 width="896.000000pt" height="896.000000pt" viewBox="0 0 896.000000 896.000000"
 preserveAspectRatio="xMidYMid meet">
<metadata>
Created by potrace 1.11, written by Peter Selinger 2001-2013
</metadata>
<g transform="translate(0.000000,896.000000) scale(0.100000,-0.100000)"
fill="#000000" stroke="none">
<path d="M3438 8034 c-2 -1 -57 -5 -123 -9 -66 -3 -140 -8 -165 -10 -25 -2
-79 -7 -120 -10 -41 -3 -91 -8 -110 -10 -19 -2 -55 -6 -80 -9 -76 -8 -214 -26
-241 -31 -14 -3 -41 -7 -60 -9 -19 -3 -34 -5 -34 -6 0 -1 -15 -3 -34 -6 -19
-2 -44 -6 -55 -8 -67 -14 -135 -27 -161 -32 -16 -3 -46 -9 -65 -14 -19 -5 -44
-11 -55 -13 -25 -5 -61 -13 -155 -37 -41 -11 -84 -21 -95 -23 -11 -2 -27 -7
-35 -10 -30 -11 -115 -36 -135 -39 -11 -2 -22 -5 -25 -8 -3 -3 -34 -14 -70
-25 -36 -10 -69 -22 -75 -25 -5 -4 -28 -13 -50 -20 -111 -34 -421 -178 -552
-256 -81 -48 -161 -100 -194 -126 -20 -15 -42 -28 -48 -28 -6 0 -11 -4 -11 -8
0 -5 -19 -23 -43 -40 -116 -85 -311 -287 -387 -402 -8 -12 -27 -39 -41 -59
-38 -53 -113 -207 -140 -287 -30 -91 -28 -84 -64 -249 -11 -50 -14 -319 -4
-371 5 -27 12 -60 14 -74 11 -56 14 -68 29 -103 8 -21 15 -40 15 -43 -3 -23
107 -206 136 -226 5 -4 7 -8 2 -8 -14 0 108 -111 162 -147 46 -31 201 -104
216 -102 3 1 33 -3 68 -7 294 -37 561 87 744 343 32 45 89 161 107 218 29 92
39 234 22 319 -39 188 -167 383 -317 479 -16 11 -29 22 -29 25 0 4 24 23 53
42 28 19 54 37 57 40 50 50 479 227 645 266 6 2 42 11 80 22 127 35 116 37
110 -21 -3 -29 -8 -74 -10 -102 -3 -27 -8 -70 -10 -95 -3 -25 -8 -70 -11 -100
-2 -30 -7 -73 -10 -95 -2 -22 -7 -62 -9 -90 -7 -70 -13 -129 -21 -205 -4 -36
-8 -76 -9 -90 -2 -14 -4 -25 -4 -25 -1 0 -4 -29 -7 -65 -2 -36 -6 -78 -8 -95
-2 -16 -7 -64 -11 -105 -4 -41 -9 -88 -11 -105 -2 -16 -6 -59 -9 -95 -3 -36
-7 -76 -10 -90 -2 -14 -7 -59 -11 -100 -3 -41 -8 -86 -9 -100 -2 -14 -6 -56
-10 -93 -3 -37 -8 -76 -10 -85 -4 -25 -18 -181 -19 -219 -1 -18 -3 -33 -6 -33
-3 0 -5 -17 -6 -38 -1 -38 -14 -174 -19 -204 -2 -9 -6 -50 -10 -91 -3 -41 -8
-85 -10 -98 -2 -13 -6 -55 -10 -94 -3 -38 -8 -88 -10 -110 -3 -22 -8 -62 -10
-90 -3 -27 -8 -75 -11 -105 -3 -30 -7 -68 -9 -85 -1 -16 -6 -61 -10 -100 -4
-38 -9 -83 -10 -100 -2 -16 -6 -57 -9 -90 -4 -33 -9 -78 -11 -100 -10 -106
-16 -163 -20 -200 -2 -22 -7 -67 -10 -100 -4 -33 -8 -71 -10 -85 -2 -14 -7
-61 -11 -105 -3 -44 -8 -89 -10 -100 -2 -11 -7 -49 -10 -85 -3 -36 -7 -78 -9
-95 -11 -108 -17 -175 -20 -205 -2 -19 -7 -64 -10 -100 -3 -36 -8 -75 -10 -87
-2 -12 -6 -57 -10 -100 -4 -43 -8 -88 -10 -101 -2 -13 -7 -52 -10 -87 l-7 -63
786 -1 786 -1 4 23 c6 25 14 102 22 192 3 33 7 70 9 83 2 13 7 53 10 90 3 37
8 78 10 92 3 14 7 57 11 95 3 39 7 81 9 95 3 14 7 54 10 90 4 36 8 81 10 100
3 19 7 58 10 85 3 28 7 68 9 90 3 22 8 69 11 105 3 36 8 76 10 90 2 14 7 54
10 90 3 36 8 83 11 105 4 22 7 56 9 75 2 19 6 59 9 88 14 121 17 150 21 202 3
30 7 64 9 76 2 11 7 54 10 95 4 41 8 83 11 94 2 11 4 22 4 25 1 4 63 5 139 4
227 -4 675 -4 707 0 17 2 55 7 85 10 30 4 63 9 73 12 16 5 15 1 -4 -33 -99
-171 -345 -668 -364 -733 -1 -3 -9 -23 -19 -45 -67 -153 -143 -350 -233 -605
-89 -255 -164 -474 -168 -490 -3 -8 -25 -80 -49 -160 -25 -80 -48 -156 -50
-170 -7 -33 -74 -295 -76 -295 -1 0 -3 -9 -4 -20 -3 -23 -18 -115 -22 -130 -2
-12 -21 -113 -29 -165 -4 -19 -9 -55 -12 -80 -2 -25 -6 -58 -9 -75 -2 -16 -6
-83 -10 -147 l-6 -118 584 0 583 0 2 68 c4 131 18 258 44 397 5 28 12 64 15
80 13 74 21 109 28 133 3 9 8 31 10 47 3 17 10 45 15 63 5 18 10 35 10 37 1 3
1 6 2 8 0 1 2 9 4 17 4 25 56 211 72 265 38 123 116 361 121 370 4 6 7 15 8
20 2 6 23 64 49 130 26 66 48 125 49 130 3 9 22 57 46 110 4 11 32 77 62 147
59 143 56 140 136 87 24 -16 45 -29 48 -29 6 0 124 -75 141 -90 7 -5 14 -10
17 -10 2 0 32 -19 66 -42 35 -24 72 -50 84 -58 44 -30 231 -165 236 -170 3 -3
52 -41 110 -85 58 -43 110 -84 117 -89 7 -6 18 -16 25 -21 47 -37 175 -141
184 -150 11 -10 93 -81 130 -112 36 -30 144 -126 178 -158 18 -16 72 -66 121
-110 162 -147 205 -188 201 -194 -2 -3 -7 -34 -10 -68 -4 -35 -9 -80 -11 -100
-8 -55 -15 -121 -20 -178 -3 -27 -7 -63 -9 -80 -3 -16 -8 -57 -11 -90 -3 -33
-8 -78 -12 -100 -3 -22 -7 -56 -8 -75 -2 -19 -4 -35 -5 -35 -1 0 -3 -15 -4
-33 l-2 -32 798 0 c753 0 798 1 799 18 0 9 2 26 4 37 7 36 27 266 29 317 1 21
3 38 6 38 3 0 5 15 6 33 0 28 3 59 18 212 3 22 7 74 11 115 3 41 8 89 10 105
3 17 7 62 11 100 3 39 7 84 9 100 2 17 6 68 10 114 4 47 8 92 10 101 2 9 6 50
10 91 3 41 8 92 10 114 3 22 7 69 11 105 9 113 12 144 18 185 3 22 8 74 11
115 3 41 8 91 10 110 2 19 6 64 10 100 9 100 12 130 19 200 12 118 15 144 21
220 3 41 8 91 11 110 3 19 7 60 10 90 2 30 7 76 9 103 8 78 14 139 20 202 3
33 8 85 11 115 3 30 7 73 9 95 2 22 4 40 5 40 1 0 3 27 5 60 3 33 7 80 10 105
2 25 7 72 10 105 3 33 8 83 11 110 3 28 7 66 9 85 2 19 6 69 10 110 4 41 8 91
10 111 4 53 15 159 20 199 3 19 7 64 10 100 3 36 7 83 9 105 3 22 7 69 10 105
3 36 8 85 11 110 3 25 8 70 10 100 4 52 11 120 20 200 3 19 7 71 11 115 3 44
8 96 10 115 2 19 6 55 8 80 2 25 7 74 11 110 3 36 8 83 10 105 7 74 15 150 19
190 2 22 7 76 11 120 4 44 9 94 11 110 1 17 5 55 8 86 l6 56 -43 14 c-23 8
-44 14 -47 14 -3 0 -9 3 -15 6 -9 6 -156 44 -207 54 -26 5 -111 19 -130 21
-10 1 -19 2 -20 4 -10 8 -267 24 -393 24 -106 0 -276 -10 -323 -19 -9 -1 -39
-6 -67 -9 -237 -32 -574 -139 -793 -253 -34 -18 -69 -33 -77 -33 -8 0 -15 -4
-15 -9 0 -5 -10 -13 -21 -16 -31 -10 -252 -139 -327 -191 -35 -24 -67 -44 -72
-44 -4 0 -10 -3 -12 -7 -1 -5 -23 -21 -48 -38 -51 -34 -43 -28 -175 -132 -55
-43 -104 -82 -110 -85 -7 -4 -10 57 -11 175 0 201 -6 263 -39 427 -44 220
-125 406 -247 567 -52 69 -192 212 -243 248 -16 11 -41 30 -56 43 -15 12 -30
22 -34 22 -3 0 -25 13 -48 28 -42 29 -252 137 -252 130 -1 -1 -20 5 -43 15
-23 9 -59 24 -79 32 -50 20 -282 82 -335 90 -23 4 -45 8 -48 10 -3 2 -30 6
-60 10 -29 3 -56 8 -59 10 -4 2 -35 6 -71 10 -36 3 -83 8 -105 11 -116 14
-180 16 -522 19 -205 1 -374 1 -375 -1z m472 -989 c14 -3 41 -8 60 -11 19 -3
42 -10 50 -14 8 -4 20 -8 25 -9 54 -6 183 -71 265 -134 137 -106 230 -268 246
-427 5 -51 4 -188 -1 -235 -12 -110 -16 -145 -21 -166 -3 -13 -7 -37 -10 -54
-22 -129 -108 -330 -192 -444 -47 -65 -166 -176 -242 -228 -63 -42 -141 -85
-160 -89 -3 0 -13 -4 -22 -7 -58 -22 -58 -22 -113 -37 -58 -15 -85 -21 -117
-23 -15 -1 -28 -4 -28 -7 0 -3 -31 -6 -70 -8 l-69 -3 4 33 c2 18 7 60 10 93 4
33 8 71 10 85 2 14 7 59 10 100 4 41 9 89 11 105 7 51 16 138 19 190 2 28 4
50 5 50 1 0 4 18 5 40 4 45 14 135 19 180 2 17 7 64 11 105 4 41 9 83 11 94 2
10 6 53 9 95 3 42 7 86 10 99 2 12 6 50 10 85 3 34 8 80 10 102 3 22 7 65 10
95 2 30 4 55 5 55 1 0 3 18 5 40 2 22 6 67 10 100 7 60 11 100 14 143 1 22 3
23 89 17 48 -3 98 -7 112 -10z m3405 -1377 c-2 -13 -6 -48 -10 -78 -3 -30 -8
-71 -10 -90 -3 -19 -7 -57 -10 -85 -8 -80 -14 -137 -20 -185 -11 -95 -18 -166
-19 -197 -1 -18 -3 -33 -6 -33 -3 0 -5 -17 -6 -38 -1 -39 -12 -150 -19 -192
-3 -14 -7 -54 -10 -90 -3 -36 -8 -83 -11 -105 -3 -22 -7 -56 -9 -75 -2 -19 -6
-66 -11 -105 -4 -38 -7 -80 -8 -92 0 -13 -2 -23 -5 -23 -4 0 -6 -15 -6 -32 -1
-31 -10 -125 -20 -208 -2 -19 -7 -55 -10 -80 -3 -25 -7 -74 -10 -109 -3 -35
-7 -75 -10 -90 -2 -14 -7 -51 -10 -81 -11 -111 -15 -146 -20 -180 -2 -19 -7
-62 -10 -95 -3 -33 -8 -80 -11 -105 -3 -25 -7 -61 -9 -80 -2 -19 -7 -60 -10
-90 -7 -62 -14 -129 -19 -180 -2 -19 -7 -64 -11 -100 -4 -36 -8 -77 -9 -91
l-1 -27 -40 32 c-61 47 -65 50 -78 61 -7 6 -34 28 -62 50 -27 22 -52 42 -55
45 -3 3 -43 34 -90 70 -47 36 -92 70 -100 77 -8 7 -62 47 -120 90 -58 42 -106
81 -108 85 -2 4 -8 8 -13 8 -5 0 -35 20 -66 43 -87 66 -445 302 -478 316 -5 2
-28 16 -50 31 -22 15 -47 30 -55 33 -8 4 -44 25 -80 47 -36 22 -73 43 -82 46
-16 6 -14 14 19 73 61 111 228 389 252 417 4 5 14 20 20 32 7 12 49 75 94 140
71 103 107 152 200 276 12 16 32 41 45 54 12 14 22 28 22 31 0 3 15 22 33 42
18 20 43 49 56 65 112 143 398 431 510 514 19 14 39 30 45 35 6 6 38 28 71 50
33 22 66 46 73 53 7 6 19 12 27 12 7 0 15 3 17 8 5 11 131 72 149 72 8 0 20 5
27 12 7 7 12 9 12 6 0 -3 24 3 53 13 69 23 76 23 72 -3z"/>
</g>
</svg>
