<?xml version="1.0" encoding="utf-8"?>
<!-- Generator: Adobe Illustrator 17.0.0, SVG Export Plug-In . SVG Version: 6.00 Build 0)  -->
<!DOCTYPE svg PUBLIC "-//W3C//DTD SVG 1.1//EN" "http://www.w3.org/Graphics/SVG/1.1/DTD/svg11.dtd">
<svg version="1.1" id="Layer_1" xmlns="http://www.w3.org/2000/svg" xmlns:xlink="http://www.w3.org/1999/xlink" x="0px" y="0px"
	 width="20.827px" height="20.696px" viewBox="0 0 20.827 20.696" enable-background="new 0 0 20.827 20.696" xml:space="preserve">
<symbol  id="profile_icon" viewBox="-39.604 -39.759 79.208 79.518">
	<g>
		<path d="M-25.551-24.602c2.592,1.843,5.633,3.05,8.372,4.126c3.408,1.34,6.633,2.608,7.566,4.614
			c0.142,1.729,0.13,3.089,0.117,4.65c-0.001,0.181-0.003,0.364-0.004,0.551c-1.44,1.522-2.849,4.427-3.413,7.108
			c-1.167,0.679-2.519,2.207-2.931,5.644c-0.212,1.76,0.277,3.143,0.979,4.087c-1.889,7.987-1.285,14.093,1.802,18.16
			c2.641,3.48,6.975,5.299,12.881,5.407h0.001c3.866,0,6.778-1.031,8.368-2.927c2.729-0.576,4.812-1.995,6.199-4.229
			c3.232-5.206,1.473-13.179,0.528-16.474c0.676-0.941,1.139-2.3,0.934-4.023c-0.415-3.439-1.769-4.968-2.936-5.646
			c-0.537-2.532-1.859-5.53-3.328-7.104c-0.001-0.194-0.003-0.387-0.005-0.576c-0.014-1.554-0.025-2.907,0.115-4.629
			c0.933-2.006,4.145-3.273,7.537-4.613c2.725-1.076,5.747-2.28,8.327-4.119C31.77-18.183,35.604-9.455,35.604,0.155
			c0,19.632-15.972,35.604-35.603,35.604c-19.633,0-35.605-15.972-35.605-35.604C-35.604-9.459-31.766-18.19-25.551-24.602z"/>
		<path fill="#F1F2F2" d="M39.604,0.155c0,21.838-17.766,39.604-39.603,39.604c-21.838,0-39.605-17.766-39.605-39.604
			c0-13.894,7.198-26.131,18.055-33.202c0.212-0.139,0.426-0.276,0.642-0.412c0.254-0.158,0.509-0.314,0.766-0.467
			c0.347-0.207,0.698-0.409,1.053-0.606c0.152-0.084,0.305-0.167,0.459-0.25c0.467-0.252,0.94-0.494,1.42-0.728
			c0.036-0.017,0.072-0.035,0.108-0.052c5.521-2.675,11.804-4.198,17.982-4.198c3.054,0,6.237,0.649,9.297,1.642
			C27.098-33.613,39.604-18.165,39.604,0.155z M0.001,35.759c19.631,0,35.603-15.972,35.603-35.604
			c0-9.61-3.834-18.338-10.045-24.749c-2.58,1.838-5.603,3.043-8.327,4.119c-3.393,1.34-6.604,2.607-7.537,4.613
			c-0.141,1.722-0.129,3.075-0.115,4.629c0.002,0.189,0.004,0.382,0.005,0.576c1.469,1.574,2.791,4.572,3.328,7.104
			c1.167,0.678,2.521,2.206,2.936,5.646c0.205,1.723-0.258,3.082-0.934,4.023c0.944,3.295,2.704,11.269-0.528,16.474
			c-1.388,2.234-3.471,3.653-6.199,4.229c-1.59,1.896-4.502,2.927-8.368,2.927h-0.001c-5.906-0.108-10.24-1.927-12.881-5.407
			c-3.086-4.067-3.691-10.173-1.802-18.16c-0.702-0.944-1.191-2.327-0.979-4.087c0.412-3.437,1.765-4.965,2.931-5.644
			c0.563-2.682,1.973-5.586,3.413-7.108c0.001-0.187,0.003-0.37,0.004-0.551c0.013-1.562,0.025-2.921-0.117-4.65
			c-0.934-2.006-4.159-3.274-7.566-4.614c-2.738-1.077-5.779-2.283-8.372-4.126C-31.766-18.19-35.604-9.459-35.604,0.155
			C-35.604,19.787-19.632,35.759,0.001,35.759z M-22.501-27.358c2.037,1.291,4.442,2.237,6.786,3.159
			c4.385,1.725,8.526,3.354,9.943,7.161l0.093,0.251l0.024,0.268c0.186,2.07,0.172,3.659,0.158,5.341
			c-0.004,0.461-0.008,0.935-0.008,1.434l0.083,1.161l-1.074,0.562C-7.119-7.54-8.849-4.569-9.136-1.874L-9.252-0.24l-1.649,0.136
			c-0.178,0.076-0.739,0.729-0.973,2.674c-0.114,0.943,0.275,1.292,0.269,1.292l1.26,0.774l-0.372,1.433
			c-1.866,7.187-1.576,12.668,0.84,15.851c1.863,2.455,5.149,3.742,9.731,3.826c2.742,0,4.827-0.669,5.441-1.746l0.487-0.855
			l0.975-0.136c1.958-0.272,3.342-1.1,4.23-2.53c2.323-3.741,0.946-10.737-0.232-14.282l-0.536-1.489l1.361-0.829
			c0.004-0.003,0.411-0.344,0.296-1.31c-0.234-1.943-0.796-2.598-0.912-2.662L9.317-0.229L9.14-1.872
			C8.852-4.548,7.218-7.47,6.597-8.006L5.588-8.534v-1.21c0-0.507-0.004-0.986-0.009-1.454c-0.015-1.676-0.028-3.258,0.157-5.321
			l0.024-0.267l0.093-0.251c1.415-3.805,5.541-5.435,9.909-7.159c2.327-0.919,4.715-1.861,6.738-3.146
			c-4.016-2.97-13.526-8.417-21.62-8.417C-7.651-35.759-16.391-32.582-22.501-27.358z"/>
		<path d="M22.501-27.342c-2.023,1.284-4.411,2.227-6.738,3.146c-4.368,1.725-8.494,3.354-9.909,7.159l-0.093,0.251L5.737-16.52
			c-0.186,2.063-0.172,3.646-0.157,5.321c0.005,0.468,0.009,0.947,0.009,1.454v1.21l1.009,0.528C7.218-7.47,8.852-4.548,9.14-1.872
			l0.177,1.644l1.647,0.136c0.116,0.064,0.678,0.719,0.912,2.662c0.115,0.966-0.292,1.307-0.296,1.31l-1.361,0.829l0.536,1.489
			c1.179,3.545,2.556,10.542,0.232,14.282c-0.889,1.43-2.272,2.258-4.23,2.53l-0.975,0.136L5.295,24
			c-0.614,1.077-2.699,1.746-5.441,1.746c-4.582-0.084-7.868-1.372-9.731-3.826c-2.416-3.183-2.706-8.665-0.84-15.851l0.372-1.433
			l-1.26-0.774c0.006,0-0.382-0.349-0.269-1.292c0.233-1.946,0.794-2.598,0.973-2.674l1.649-0.136l0.115-1.634
			c0.287-2.694,2.017-5.666,2.641-6.147l1.074-0.562l-0.083-1.161c0-0.499,0.004-0.973,0.008-1.434
			c0.014-1.682,0.028-3.271-0.158-5.341l-0.024-0.268l-0.093-0.251c-1.417-3.807-5.558-5.437-9.943-7.161
			c-2.344-0.922-4.749-1.868-6.786-3.159c6.11-5.225,14.851-8.401,23.382-8.401C8.975-35.759,18.486-30.312,22.501-27.342z"/>
	</g>
</symbol>
<use xlink:href="#profile_icon"  width="79.208" height="79.518" id="XMLID_181_" x="-39.604" y="-39.759" transform="matrix(0.2582 0 0 -0.2582 10.4135 10.3481)" overflow="visible"/>
</svg>
