<?xml version="1.0" encoding="utf-8"?>
<!-- Generator: Adobe Illustrator 17.0.0, SVG Export Plug-In . SVG Version: 6.00 Build 0)  -->
<!DOCTYPE svg PUBLIC "-//W3C//DTD SVG 1.1//EN" "http://www.w3.org/Graphics/SVG/1.1/DTD/svg11.dtd">
<svg version="1.1" id="Layer_1" xmlns="http://www.w3.org/2000/svg" xmlns:xlink="http://www.w3.org/1999/xlink" x="0px" y="0px"
	 width="123.468px" height="27.367px" viewBox="0 0 123.468 27.367" enable-background="new 0 0 123.468 27.367"
	 xml:space="preserve">
<g>
	<g id="_x33_Iw80b_1_">
		<g>
			<path fill="#FFFFFF" d="M0,6.789c0.124-0.443,0.252-0.884,0.37-1.328c0.852-3.2,3.13-5.184,7.115-5.342
				c5.751-0.228,11.518-0.058,17.363-0.058c0,1.607,0,3.145,0,4.881c-0.476,0-0.932,0-1.388,0c-4.51,0-9.02-0.024-13.53,0.01
				C7.22,4.972,5.659,6.784,6.197,9.18c0.333,1.484,1.497,2.287,3.451,2.303c2.949,0.024,5.898-0.018,8.846,0.029
				c0.943,0.015,1.905,0.133,2.819,0.361c3.787,0.943,5.157,3.516,4.896,7.856c-0.224,3.735-1.361,6.619-6.607,7.441
				c-0.116,0.018-0.218,0.13-0.326,0.197c-6.078,0-12.156,0-18.234,0c0.075-1.62,0.15-3.24,0.228-4.925
				c5.085,0,10.029,0.012,14.972-0.013c0.681-0.003,1.39-0.097,2.034-0.307c1.439-0.47,2.049-1.785,1.789-3.751
				c-0.179-1.355-1.151-1.914-2.365-1.961c-3.42-0.131-6.844-0.171-10.266-0.263c-3.536-0.094-6.158-1.929-7.036-4.901
				C0.268,10.802,0.133,10.358,0,9.915C0,8.873,0,7.831,0,6.789z"/>
			<path fill="#FFFFFF" d="M74.237,27.367c0-1.604,0-3.207,0-4.745c5.208-5.86,10.354-11.65,15.672-17.633c-5.307,0-10.39,0-15.56,0
				c0-1.679,0-3.217,0-4.857c7.627,0,15.272,0,22.995,0c0,1.61,0,3.199,0,4.917c-4.965,5.7-10.012,11.493-15.273,17.533
				c5.3,0,10.26,0,15.349,0c0,1.686,0,3.236,0,4.786C89.692,27.367,81.965,27.367,74.237,27.367z"/>
			<path fill="#FFFFFF" d="M27.871,27.367c0-9.054,0-18.109,0-27.249c1.915,0,3.715,0,5.676,0c0,4.193,0,8.41,0,12.626
				c0.107,0.045,0.215,0.09,0.322,0.135c3.497-4.247,6.994-8.494,10.534-12.794c2.189,0,4.421,0,6.928,0
				c-3.725,4.526-7.315,8.887-10.969,13.327c2.751,3.457,5.497,6.893,8.224,10.345c0.935,1.183,1.82,2.405,2.728,3.61
				c-2.431,0-4.862,0-7.293,0c-3.37-4.41-6.74-8.82-10.11-13.23c-0.103,0.045-0.206,0.091-0.309,0.136c0,4.365,0,8.729,0,13.094
				C31.692,27.367,29.782,27.367,27.871,27.367z"/>
			<path fill="#FFFFFF" d="M60.952,27.367c-0.49-0.123-0.979-0.251-1.47-0.367c-3.703-0.878-6.14-3.397-6.262-7.292
				c-0.203-6.486-0.055-12.984-0.055-19.576c1.643,0,3.477,0,5.507,0c0,0.509-0.004,1.01,0.001,1.51
				c0.055,5.634,0.076,11.269,0.182,16.903c0.049,2.59,1.393,4.016,4.015,4.132c2.933,0.13,5.876,0.03,9.022,0.03
				c0,1.749,0,3.205,0,4.661C68.246,27.367,64.599,27.367,60.952,27.367z"/>
			<path fill="#FFFFFF" d="M100.025,27.367c3.656-4.449,7.312-8.898,10.998-13.385c-3.65-4.59-7.251-9.119-10.996-13.828
				c2.461,0,4.65,0,6.888,0c3.65,4.55,7.334,9.143,11.068,13.8c-3.665,4.499-7.295,8.956-10.926,13.413
				C104.713,27.367,102.369,27.367,100.025,27.367z"/>
			<path fill="#FFFFFF" d="M123.468,14.082c-1.651,1.934-3.332,3.843-4.945,5.807c-2.027,2.469-3.999,4.983-5.995,7.477
				c-0.868,0-1.737,0-2.605,0c1.931-2.389,3.857-4.783,5.795-7.167c1.664-2.047,3.343-4.082,5.094-6.218
				c-3.656-4.6-7.277-9.156-11.006-13.847c0.924,0,1.643,0,2.472,0c2.606,3.26,5.243,6.586,7.914,9.885
				c1.052,1.299,2.182,2.537,3.276,3.802C123.468,13.909,123.468,13.996,123.468,14.082z"/>
		</g>
	</g>
	<g>
		<path fill="#FFFFFF" d="M116.057,2.489c-0.16,0-0.31-0.03-0.451-0.089c-0.141-0.059-0.264-0.14-0.369-0.242
			c-0.105-0.102-0.188-0.224-0.249-0.364c-0.061-0.141-0.091-0.294-0.091-0.46s0.03-0.32,0.091-0.462
			c0.061-0.142,0.144-0.265,0.249-0.369c0.105-0.104,0.228-0.184,0.369-0.242c0.141-0.058,0.291-0.087,0.451-0.087
			s0.31,0.029,0.451,0.087c0.141,0.058,0.264,0.138,0.369,0.242c0.105,0.104,0.188,0.226,0.249,0.369
			c0.061,0.142,0.091,0.296,0.091,0.462s-0.031,0.319-0.091,0.46c-0.061,0.141-0.144,0.262-0.249,0.364
			c-0.105,0.102-0.228,0.183-0.369,0.242C116.367,2.46,116.217,2.489,116.057,2.489z M116.057,2.343
			c0.142,0,0.274-0.025,0.395-0.075s0.228-0.121,0.32-0.211c0.092-0.09,0.163-0.197,0.215-0.32c0.052-0.123,0.078-0.257,0.078-0.402
			s-0.026-0.28-0.078-0.404c-0.052-0.124-0.124-0.232-0.215-0.322c-0.092-0.09-0.198-0.161-0.32-0.211
			c-0.121-0.05-0.253-0.075-0.395-0.075s-0.274,0.025-0.395,0.075c-0.121,0.05-0.228,0.121-0.32,0.211
			c-0.092,0.09-0.164,0.198-0.215,0.322c-0.052,0.124-0.078,0.259-0.078,0.404s0.026,0.279,0.078,0.402
			c0.052,0.123,0.124,0.23,0.215,0.32c0.092,0.09,0.198,0.161,0.32,0.211C115.783,2.318,115.915,2.343,116.057,2.343z
			 M115.564,2.054V0.522h0.431c0.169,0,0.304,0.043,0.406,0.129s0.153,0.207,0.153,0.364c0,0.086-0.018,0.169-0.053,0.249
			c-0.036,0.08-0.095,0.144-0.178,0.191c0.062,0.101,0.122,0.197,0.18,0.289s0.125,0.195,0.202,0.311h-0.311l-0.338-0.529h-0.022
			h-0.218v0.529H115.564z M115.817,1.286h0.209c0.053,0,0.098-0.009,0.133-0.027c0.036-0.018,0.063-0.04,0.082-0.067
			s0.033-0.055,0.042-0.084c0.009-0.029,0.013-0.058,0.013-0.084c0-0.024-0.004-0.05-0.011-0.08
			c-0.007-0.03-0.022-0.058-0.042-0.084s-0.048-0.049-0.082-0.067c-0.034-0.018-0.079-0.027-0.135-0.027h-0.209V1.286z"/>
	</g>
</g>
</svg>
