<?xml version="1.0" encoding="utf-8"?>
<!-- Generator: Adobe Illustrator 17.0.0, SVG Export Plug-In . SVG Version: 6.00 Build 0)  -->
<!DOCTYPE svg PUBLIC "-//W3C//DTD SVG 1.1//EN" "http://www.w3.org/Graphics/SVG/1.1/DTD/svg11.dtd">
<svg version="1.1" id="Layer_1" xmlns="http://www.w3.org/2000/svg" xmlns:xlink="http://www.w3.org/1999/xlink" x="0px" y="0px"
	 width="107.541px" height="27.2px" viewBox="0 0 107.541 27.2" enable-background="new 0 0 107.541 27.2" xml:space="preserve">
<g>
	<g id="AGdadQ_1_">
		<g>
			<path fill="#FFFFFF" d="M3.617,4.134c0,2.61,0,5.036,0,7.573c0.784,0,1.493,0,2.201,0c2.867,0,5.734,0,8.601,0.001
				c0.337,0,0.679-0.024,1.011,0.02c0.97,0.128,1.658,0.876,1.665,1.77c0.007,0.948-0.73,1.747-1.768,1.776
				c-1.643,0.046-3.288,0.016-4.932,0.016c-2.229,0.001-4.457,0-6.77,0c0,2.601,0,5.109,0,7.798c0.456,0,0.902,0,1.347,0
				c3.794,0,7.589-0.002,11.383,0.001c1.639,0.001,2.549,0.662,2.475,1.842c-0.063,1-0.772,1.791-2.448,1.769
				c-4.679-0.062-9.359-0.018-14.039-0.024c-1.691-0.002-2.327-0.585-2.331-2.249c-0.017-7.21-0.016-14.419-0.001-21.629
				c0.003-1.703,0.588-2.245,2.307-2.247c4.68-0.005,9.36-0.002,14.04-0.001c0.253,0,0.509-0.02,0.758,0.013
				c0.858,0.112,1.478,0.748,1.557,1.572c0.082,0.856-0.351,1.576-1.208,1.841c-0.431,0.133-0.909,0.151-1.366,0.153
				C12.431,4.139,8.763,4.134,5.095,4.134C4.635,4.134,4.175,4.134,3.617,4.134z"/>
			<path fill="#FFFFFF" d="M95.119,0.201c2.05-0.022,4.571,0.666,6.845,2.189c0.278,0.186,0.564,0.38,0.791,0.621
				c0.598,0.637,0.646,1.523,0.156,2.197c-0.479,0.66-1.382,0.92-2.139,0.562c-0.416-0.196-0.785-0.489-1.181-0.729
				c-2.207-1.336-4.567-1.916-7.133-1.397c-2.235,0.452-3.45,1.867-3.412,3.877c0.023,1.219,0.56,2.161,1.635,2.639
				c1.336,0.594,2.736,1.054,4.129,1.506c1.675,0.544,3.419,0.9,5.049,1.549c2.736,1.088,4.398,3.072,4.376,6.158
				c-0.023,3.142-1.527,5.396-4.361,6.667c-3.335,1.497-6.767,1.242-10.094,0.013c-1.514-0.559-2.903-1.507-4.27-2.398
				c-1.01-0.658-1.141-1.809-0.477-2.62c0.641-0.783,1.648-0.879,2.574-0.12c2.089,1.712,4.428,2.734,7.151,2.795
				c1.407,0.032,2.773-0.113,4.012-0.875c2.526-1.552,2.501-4.911-0.143-6.218c-1.263-0.624-2.698-0.903-4.058-1.328
				c-1.682-0.525-3.422-0.911-5.04-1.587c-2.483-1.037-3.961-2.913-4.084-5.713c-0.131-3.006,1.19-5.188,3.76-6.641
				C90.824,0.436,92.607,0.159,95.119,0.201z"/>
			<path fill="#FFFFFF" d="M56.665,14.145c0.021,1.15,0.457,2.753,1.237,4.283c0.237,0.465,0.426,1.027,0.406,1.535
				c-0.03,0.749-0.682,1.323-1.393,1.424c-0.829,0.117-1.478-0.147-1.922-0.898c-1.321-2.235-1.966-4.659-1.889-7.238
				c0.185-6.152,4.364-11.334,10.333-12.822C66.94-0.445,70.296,0.02,73.446,1.8c1.241,0.701,1.516,1.883,0.711,2.827
				c-0.593,0.695-1.461,0.805-2.53,0.23c-1.634-0.88-3.355-1.305-5.214-1.252C61.042,3.755,56.681,8.205,56.665,14.145z"/>
			<path fill="#FFFFFF" d="M66.989,27.2c-2.631,0.006-4.876-0.607-6.981-1.778c-0.726-0.403-1.176-0.957-1.124-1.815
				c0.069-1.127,1.12-1.844,2.277-1.538c0.359,0.095,0.688,0.306,1.025,0.475c6.541,3.272,14.274-1.237,14.611-8.538
				c0.085-1.847-0.402-3.578-1.238-5.227c-0.237-0.467-0.449-1.034-0.406-1.533c0.059-0.699,0.532-1.222,1.278-1.394
				c0.815-0.188,1.502,0.047,1.97,0.781c0.963,1.51,1.533,3.176,1.797,4.944c1.119,7.472-4.005,14.52-11.913,15.549
				C67.786,27.192,67.277,27.185,66.989,27.2z"/>
			<path fill="#FFFFFF" d="M47.988,26.776c-0.251-0.138-0.8-0.305-1.163-0.661c-2.796-2.742-5.568-5.508-8.319-8.296
				c-0.851-0.862-0.843-1.816-0.106-2.579c0.701-0.725,1.774-0.76,2.589,0.04c2.854,2.803,5.681,5.634,8.496,8.476
				c0.531,0.536,0.748,1.2,0.381,1.965C49.538,26.405,49.01,26.731,47.988,26.776z"/>
			<path fill="#FFFFFF" d="M39.933,12.502c-1.62-0.033-2.463-1.486-1.814-2.638c0.101-0.18,0.244-0.343,0.391-0.49
				c2.771-2.772,5.536-5.549,8.324-8.303c0.881-0.87,1.965-0.892,2.692-0.139c0.728,0.753,0.729,1.722-0.127,2.589
				c-2.784,2.818-5.594,5.61-8.421,8.384C40.642,12.233,40.137,12.389,39.933,12.502z"/>
			<path fill="#FFFFFF" d="M25.618,0.381c0.26,0.154,0.753,0.332,1.093,0.666c2.792,2.743,5.567,5.504,8.322,8.285
				c0.811,0.818,0.844,1.89,0.184,2.596c-0.73,0.781-1.806,0.795-2.679-0.066c-2.816-2.778-5.604-5.587-8.402-8.383
				c-0.61-0.61-0.708-1.344-0.38-2.092C24.051,0.711,24.666,0.429,25.618,0.381z"/>
			<path fill="#FFFFFF" d="M25.322,27.022c-0.58-0.43-1.18-0.697-1.505-1.159c-0.398-0.567-0.347-1.286,0.106-1.886
				c0.176-0.233,0.39-0.441,0.598-0.648c2.559-2.556,5.118-5.113,7.682-7.665c1.099-1.095,2.143-1.253,2.951-0.465
				c0.814,0.793,0.673,1.862-0.415,2.951c-2.586,2.589-5.17,5.18-7.782,7.743C26.532,26.308,25.969,26.582,25.322,27.022z"/>
		</g>
	</g>
	<g>
		<path fill="#FFFFFF" d="M105.889,26.738c-0.228,0-0.442-0.042-0.642-0.127c-0.201-0.084-0.376-0.199-0.525-0.345
			c-0.15-0.146-0.268-0.319-0.355-0.519c-0.087-0.2-0.13-0.419-0.13-0.655s0.043-0.456,0.13-0.658
			c0.087-0.203,0.205-0.378,0.355-0.525c0.15-0.148,0.325-0.263,0.525-0.345c0.2-0.082,0.414-0.124,0.642-0.124
			c0.228,0,0.442,0.041,0.642,0.124c0.201,0.082,0.376,0.197,0.525,0.345c0.15,0.148,0.268,0.323,0.355,0.525
			c0.086,0.203,0.13,0.422,0.13,0.658s-0.044,0.455-0.13,0.655c-0.087,0.2-0.205,0.373-0.355,0.519
			c-0.15,0.146-0.325,0.261-0.525,0.345C106.331,26.696,106.117,26.738,105.889,26.738z M105.889,26.529
			c0.203,0,0.39-0.036,0.563-0.108c0.173-0.072,0.325-0.172,0.456-0.301c0.131-0.129,0.233-0.281,0.307-0.456
			c0.074-0.175,0.111-0.366,0.111-0.573s-0.037-0.399-0.111-0.576c-0.074-0.177-0.176-0.33-0.307-0.459
			c-0.131-0.129-0.283-0.229-0.456-0.301c-0.173-0.072-0.361-0.108-0.563-0.108c-0.202,0-0.39,0.036-0.563,0.108
			c-0.173,0.072-0.325,0.172-0.456,0.301c-0.131,0.129-0.233,0.282-0.307,0.459c-0.074,0.177-0.111,0.369-0.111,0.576
			s0.037,0.398,0.111,0.573c0.074,0.175,0.176,0.327,0.307,0.456c0.131,0.129,0.283,0.229,0.456,0.301
			C105.498,26.493,105.686,26.529,105.889,26.529z M105.186,26.117v-2.184h0.614c0.24,0,0.433,0.061,0.579,0.184
			c0.146,0.122,0.218,0.295,0.218,0.519c0,0.123-0.025,0.241-0.076,0.354c-0.051,0.114-0.135,0.205-0.253,0.272
			c0.089,0.144,0.174,0.281,0.256,0.411c0.082,0.131,0.178,0.279,0.288,0.443h-0.443l-0.481-0.753h-0.032h-0.31v0.753H105.186z
			 M105.547,25.022h0.297c0.076,0,0.139-0.013,0.19-0.038c0.051-0.025,0.09-0.057,0.117-0.095c0.027-0.038,0.047-0.078,0.06-0.12
			c0.013-0.042,0.019-0.082,0.019-0.12c0-0.034-0.005-0.072-0.016-0.114c-0.01-0.042-0.031-0.082-0.06-0.12
			c-0.029-0.038-0.068-0.07-0.117-0.095c-0.049-0.025-0.113-0.038-0.193-0.038h-0.297V25.022z"/>
	</g>
</g>
</svg>
