<?xml version="1.0" encoding="utf-8"?>
<!-- Generator: Adobe Illustrator 17.0.0, SVG Export Plug-In . SVG Version: 6.00 Build 0)  -->
<!DOCTYPE svg PUBLIC "-//W3C//DTD SVG 1.1//EN" "http://www.w3.org/Graphics/SVG/1.1/DTD/svg11.dtd">
<svg version="1.1" id="Layer_1" xmlns="http://www.w3.org/2000/svg" xmlns:xlink="http://www.w3.org/1999/xlink" x="0px" y="0px"
	 width="83.51px" height="25.54px" viewBox="0 0 83.51 25.54" enable-background="new 0 0 83.51 25.54" xml:space="preserve">
<g id="r25GMS.tif">
	<g>
		<path fill="#FFFFFF" d="M36.832,0.26c0.675,0,1.35-0.001,2.026,0.001c0.118,0,0.238,0.006,0.354,0.027
			c0.024,0.004,0.063,0.111,0.048,0.126c-0.536,0.561-0.63,1.258-0.629,1.989c0.003,2.165,0,4.329,0.003,6.494
			c0,0.218,0.012,0.437,0.031,0.654c0.039,0.449,0.182,0.851,0.53,1.162c0.049,0.044,0.061,0.128,0.09,0.194
			c-0.052,0.019-0.104,0.055-0.156,0.056c-1.172,0.003-2.343,0.003-3.515,0.001c-0.053,0-0.125-0.02-0.152-0.056
			c-0.019-0.026,0.007-0.117,0.042-0.145c0.482-0.389,0.58-0.931,0.589-1.499c0.012-0.774,0.004-1.549,0.004-2.324
			c0-0.457,0-0.914-0.002-1.37c0-0.079-0.007-0.159-0.023-0.236c-0.007-0.032-0.039-0.072-0.069-0.082
			c-0.03-0.011-0.089-0.001-0.104,0.021c-0.099,0.148-0.194,0.3-0.283,0.454c-0.867,1.517-1.731,3.035-2.598,4.552
			c-0.088,0.155-0.176,0.311-0.275,0.459c-0.051,0.076-0.138,0.081-0.194,0.001c-0.091-0.13-0.172-0.266-0.254-0.403
			c-0.949-1.584-1.897-3.168-2.846-4.752C29.357,5.43,29.26,5.28,29.16,5.132c-0.019-0.027-0.083-0.058-0.096-0.047
			c-0.04,0.03-0.09,0.079-0.092,0.122c-0.012,0.198-0.011,0.397-0.011,0.595c-0.001,1.072-0.002,2.145,0.002,3.217
			c0.001,0.218,0.011,0.437,0.04,0.653c0.054,0.405,0.208,0.762,0.524,1.04c0.05,0.044,0.064,0.128,0.095,0.193
			c-0.052,0.02-0.104,0.056-0.155,0.056c-1.172,0.003-2.343,0.003-3.515,0c-0.053,0-0.106-0.034-0.159-0.051
			c0.028-0.065,0.038-0.151,0.086-0.193c0.352-0.311,0.493-0.71,0.514-1.164c0.009-0.198,0.016-0.397,0.016-0.595
			c0.001-2.224,0.001-4.449,0-6.673c0-0.179-0.003-0.358-0.01-0.536c-0.018-0.472-0.155-0.896-0.501-1.238
			c-0.048-0.048-0.062-0.13-0.092-0.196c0.075-0.018,0.149-0.05,0.224-0.051c1.489-0.003,2.979-0.002,4.468-0.002
			c0.059,0,0.12,0.003,0.178,0.015c0.089,0.02,0.137,0.076,0.097,0.169c-0.055,0.127-0.127,0.248-0.175,0.377
			c-0.186,0.507-0.198,1.012,0.074,1.494c0.576,1.02,1.159,2.036,1.74,3.053c0.029,0.051,0.063,0.109,0.11,0.137
			c0.038,0.023,0.127,0.027,0.146,0.003c0.085-0.109,0.159-0.227,0.225-0.348c0.487-0.887,0.959-1.784,1.462-2.662
			c0.369-0.644,0.397-1.273,0.036-1.92c-0.019-0.035-0.039-0.069-0.055-0.105c-0.051-0.115-0.009-0.199,0.115-0.201
			c0.417-0.008,0.834-0.011,1.251-0.013C36.077,0.258,36.455,0.26,36.832,0.26z"/>
		<path fill="#FFFFFF" d="M69.789,0.262c0.992,0,1.984,0.004,2.976-0.001c0.817-0.004,1.569,0.206,2.25,0.657
			c0.611,0.405,1.078,0.935,1.354,1.618c0.381,0.943,0.312,1.865-0.178,2.751c-0.356,0.644-0.88,1.118-1.534,1.45
			c-0.141,0.072-0.287,0.135-0.429,0.207c-0.081,0.041-0.111,0.113-0.074,0.197c0.04,0.09,0.086,0.18,0.142,0.26
			c0.42,0.602,0.831,1.21,1.267,1.799c0.481,0.649,1.1,1.138,1.84,1.47c0.09,0.041,0.184,0.077,0.267,0.13
			c0.041,0.026,0.061,0.084,0.09,0.127c-0.031,0.017-0.061,0.05-0.092,0.05c-0.932,0.019-1.862,0.062-2.791-0.09
			c-0.913-0.149-1.629-0.571-2.13-1.365c-0.423-0.671-0.889-1.315-1.316-1.983c-0.167-0.261-0.352-0.4-0.675-0.374
			c-0.335,0.027-0.674,0.003-1.011,0.012c-0.232,0.006-0.3,0.062-0.301,0.273c-0.005,0.714-0.007,1.428,0.006,2.142
			c0.007,0.39,0.156,0.734,0.422,1.023c0.054,0.058,0.115,0.111,0.162,0.173c0.02,0.026,0.028,0.077,0.015,0.106
			c-0.012,0.029-0.055,0.058-0.088,0.062c-0.098,0.011-0.198,0.013-0.297,0.013c-1.071,0.001-2.143,0.001-3.214,0
			c-0.099,0-0.2,0.003-0.295-0.017c-0.031-0.006-0.062-0.078-0.068-0.123c-0.003-0.027,0.04-0.065,0.07-0.089
			c0.373-0.292,0.5-0.704,0.55-1.147c0.025-0.216,0.027-0.435,0.027-0.653c0.002-2.222,0.001-4.444,0.001-6.667
			c0-0.04,0-0.079,0-0.119c0-0.63-0.091-1.228-0.577-1.694c-0.066-0.063-0.027-0.171,0.057-0.177c0.158-0.011,0.316-0.02,0.474-0.02
			c1.032-0.002,2.063-0.001,3.095-0.001C69.789,0.261,69.789,0.261,69.789,0.262z M71.321,4.741c0,0.001,0,0.002,0,0.003
			c0.415,0,0.831,0,1.246,0c0.04,0,0.079,0.002,0.119-0.001c0.158-0.011,0.321-0.001,0.472-0.038
			c0.438-0.109,0.732-0.385,0.837-0.83c0.083-0.35-0.132-0.752-0.509-0.995c-0.239-0.155-0.502-0.223-0.787-0.221
			c-0.554,0.005-1.108,0-1.662,0.001c-0.435,0.001-0.871-0.002-1.306,0.008c-0.218,0.005-0.282,0.068-0.286,0.29
			c-0.01,0.475-0.011,0.95-0.004,1.424c0.004,0.311,0.043,0.353,0.337,0.358C70.292,4.747,70.807,4.741,71.321,4.741z"/>
		<path fill="#FFFFFF" d="M27.557,14.607c1.072,0,2.145-0.012,3.217,0.004c1.013,0.015,1.901,0.374,2.642,1.068
			c0.552,0.517,0.915,1.142,1.03,1.9c0.155,1.031-0.141,1.922-0.827,2.693c-0.376,0.423-0.842,0.719-1.356,0.949
			c-0.257,0.115-0.284,0.186-0.154,0.398c0.508,0.831,1.055,1.635,1.714,2.356c0.395,0.432,0.871,0.748,1.395,1
			c0.142,0.068,0.281,0.145,0.42,0.22c0.012,0.006,0.019,0.032,0.018,0.049c-0.001,0.015-0.012,0.034-0.024,0.042
			c-0.015,0.011-0.037,0.017-0.056,0.018c-1.012,0.045-2.024,0.077-3.027-0.121c-0.801-0.158-1.423-0.57-1.869-1.26
			c-0.453-0.7-0.932-1.383-1.384-2.084c-0.156-0.243-0.342-0.359-0.633-0.343c-0.356,0.019-0.715,0.004-1.072,0.015
			c-0.174,0.005-0.258,0.086-0.266,0.257c-0.014,0.297-0.012,0.595-0.014,0.893c-0.002,0.278-0.002,0.556,0,0.834
			c0.005,0.612,0.103,1.19,0.614,1.611c0.026,0.022,0.054,0.086,0.044,0.098c-0.033,0.038-0.084,0.085-0.128,0.085
			c-1.013,0.006-2.025,0.007-3.038,0.008c-0.238,0-0.477-0.002-0.715-0.008c-0.032-0.001-0.077-0.027-0.089-0.054
			c-0.013-0.029-0.006-0.082,0.014-0.107c0.05-0.061,0.115-0.109,0.17-0.165c0.233-0.235,0.357-0.523,0.393-0.848
			c0.024-0.217,0.039-0.436,0.039-0.654c0.003-2.323,0.002-4.647,0.001-6.97c0-0.139-0.007-0.278-0.013-0.417
			c-0.021-0.474-0.167-0.893-0.519-1.229c-0.048-0.045-0.058-0.13-0.085-0.196c0.054-0.015,0.108-0.042,0.162-0.043
			c0.278-0.005,0.556-0.004,0.834-0.004c0.854,0,1.708,0,2.562,0C27.557,14.605,27.557,14.606,27.557,14.607z M29.169,19.11
			c0.515,0,1.03,0.008,1.544-0.002c0.394-0.008,0.735-0.149,0.982-0.47c0.252-0.326,0.257-0.776,0.007-1.103
			c-0.199-0.261-0.458-0.439-0.789-0.483c-0.176-0.024-0.355-0.033-0.533-0.034c-0.812-0.004-1.623-0.002-2.435-0.002
			c-0.099,0-0.198-0.001-0.297,0.006c-0.257,0.018-0.326,0.074-0.331,0.316c-0.009,0.475-0.011,0.95-0.001,1.425
			c0.006,0.273,0.08,0.34,0.367,0.345C28.179,19.115,28.674,19.11,29.169,19.11z"/>
		<path fill="#FFFFFF" d="M19.345,19.728c0.695,0,1.389-0.001,2.084,0c0.139,0,0.278,0.003,0.416,0.01
			c0.089,0.004,0.145,0.112,0.081,0.165c-0.484,0.402-0.513,0.941-0.501,1.514c0.02,0.932,0.006,1.866,0.005,2.799
			c0,0.139,0.002,0.278-0.005,0.417c-0.011,0.22-0.082,0.293-0.3,0.245c-0.725-0.162-1.419-0.029-2.108,0.189
			c-0.246,0.078-0.49,0.16-0.739,0.229c-1.557,0.434-3.081,0.284-4.526-0.393c-1.559-0.731-2.488-1.987-2.787-3.694
			c-0.207-1.182-0.113-2.339,0.345-3.447c0.785-1.901,2.202-3.003,4.249-3.292c1.198-0.169,2.374-0.093,3.534,0.245
			c0.594,0.173,1.146,0.442,1.682,0.748c0.13,0.074,0.203,0.18,0.192,0.338c-0.01,0.138-0.007,0.278-0.015,0.416
			c-0.046,0.792-0.093,1.585-0.143,2.377c-0.002,0.031-0.038,0.075-0.067,0.083c-0.026,0.008-0.078-0.015-0.095-0.04
			c-0.566-0.856-1.383-1.352-2.353-1.607c-0.814-0.214-1.642-0.278-2.475-0.094c-1.345,0.297-2.189,1.266-2.252,2.633
			c-0.021,0.452-0.004,0.917,0.074,1.362c0.235,1.347,1.022,2.187,2.545,2.459c0.706,0.126,1.424,0.092,2.134-0.034
			c0.136-0.024,0.272-0.059,0.402-0.105c0.27-0.097,0.42-0.283,0.412-0.584c-0.008-0.258,0.003-0.516-0.008-0.774
			c-0.008-0.193-0.073-0.266-0.244-0.268c-0.556-0.007-1.111-0.004-1.667-0.003c-0.059,0-0.117,0.023-0.176,0.026
			c-0.148,0.006-0.309,0.189-0.43,0.037c-0.07-0.088-0.04-0.264-0.038-0.4c0.004-0.298,0.02-0.595,0.029-0.893
			c0.022-0.72,0.042-0.66,0.662-0.662C17.956,19.727,18.65,19.728,19.345,19.728z"/>
		<path fill="#FFFFFF" d="M36.238,19.986c-0.044-2.754,2.081-5.142,4.843-5.543c2.583-0.374,5.49,1.185,6.262,4.137
			c0.788,3.008-1.112,6.189-4.319,6.824c-2.016,0.399-3.779-0.147-5.227-1.607C36.758,22.749,36.26,21.458,36.238,19.986z
			 M38.722,19.959c0.004,1.671,1.312,3.201,3.169,3.197c1.693-0.004,3.15-1.351,3.134-3.226c-0.015-1.799-1.401-3.163-3.135-3.165
			C39.919,16.762,38.719,18.396,38.722,19.959z"/>
		<path fill="#FFFFFF" d="M45.285,0.261c0.973,0,1.946-0.001,2.919,0c0.539,0,1.067,0.06,1.575,0.262
			c0.641,0.255,1.188,0.636,1.621,1.174c0.991,1.232,0.978,2.902-0.043,4.109c-0.748,0.885-1.725,1.322-2.872,1.354
			c-0.913,0.026-1.827,0.006-2.74,0.009c-0.848,0.003-0.805-0.078-0.805,0.806c0,0.377-0.001,0.755,0.001,1.132
			c0.003,0.633,0.103,1.23,0.625,1.669c0.026,0.021,0.051,0.089,0.04,0.1c-0.037,0.037-0.089,0.083-0.136,0.083
			c-1.231,0.005-2.462,0.004-3.693,0.004c-0.02,0-0.042,0.002-0.058-0.007c-0.032-0.017-0.076-0.035-0.088-0.063
			c-0.012-0.028-0.002-0.08,0.018-0.105c0.05-0.061,0.112-0.112,0.167-0.169c0.243-0.254,0.372-0.561,0.4-0.907
			c0.019-0.237,0.026-0.476,0.027-0.714c0.002-2.264,0.001-4.527,0.001-6.791c0-0.079-0.002-0.159-0.001-0.238
			c0.007-0.577-0.113-1.105-0.563-1.512c-0.025-0.022-0.049-0.086-0.038-0.1c0.033-0.039,0.083-0.082,0.129-0.086
			c0.158-0.013,0.317-0.012,0.476-0.012C43.26,0.26,44.273,0.26,45.285,0.261L45.285,0.261z M46.881,4.735c0,0.001,0,0.002,0,0.003
			c0.436,0,0.872,0.001,1.308-0.001c0.139-0.001,0.279,0.002,0.415-0.018c0.455-0.065,0.832-0.416,0.903-0.827
			c0.071-0.414-0.125-0.796-0.534-1.04c-0.264-0.158-0.553-0.2-0.856-0.199c-0.872,0.005-1.744,0.001-2.616,0.002
			c-0.099,0-0.199,0-0.297,0.009c-0.172,0.016-0.25,0.085-0.253,0.266c-0.01,0.495-0.012,0.991-0.004,1.486
			c0.004,0.249,0.071,0.312,0.328,0.316C45.811,4.741,46.346,4.735,46.881,4.735z"/>
		<path fill="#FFFFFF" d="M65.955,14.608c1.071,0,2.143-0.015,3.214,0.004c1.102,0.02,2.046,0.437,2.805,1.241
			c0.445,0.471,0.732,1.026,0.854,1.671c0.151,0.802-0.002,1.546-0.427,2.224c-0.653,1.042-1.619,1.605-2.836,1.738
			c-0.236,0.026-0.475,0.022-0.713,0.023c-0.813,0.003-1.627,0-2.44,0.002c-0.159,0-0.318,0.002-0.475,0.015
			c-0.137,0.011-0.207,0.103-0.225,0.235c-0.008,0.059-0.012,0.119-0.012,0.178c-0.001,0.575-0.01,1.151,0.003,1.726
			c0.012,0.55,0.138,1.062,0.589,1.439c0.034,0.029,0.039,0.101,0.041,0.153c0.001,0.012-0.063,0.037-0.099,0.039
			c-0.119,0.007-0.238,0.007-0.357,0.007c-1.012,0-2.023,0.001-3.035-0.001c-0.138,0-0.277-0.006-0.414-0.023
			c-0.019-0.002-0.054-0.102-0.037-0.129c0.041-0.065,0.108-0.113,0.164-0.169c0.235-0.233,0.365-0.519,0.399-0.843
			c0.029-0.276,0.05-0.554,0.05-0.831c0.004-2.222,0.003-4.444,0.001-6.665c0-0.178-0.009-0.357-0.017-0.535
			c-0.023-0.493-0.168-0.934-0.544-1.278c-0.039-0.035-0.054-0.096-0.08-0.146c0.066-0.026,0.131-0.068,0.199-0.074
			c0.138-0.012,0.277-0.005,0.416-0.005c0.992,0,1.984,0,2.976,0C65.955,14.605,65.955,14.607,65.955,14.608z M67.573,19.114
			c0,0,0,0.002,0,0.003c0.475,0,0.951,0.012,1.425-0.006c0.213-0.008,0.437-0.044,0.634-0.123c0.374-0.151,0.616-0.442,0.643-0.854
			c0.026-0.39-0.183-0.674-0.495-0.89c-0.22-0.152-0.465-0.211-0.729-0.21c-0.99,0.001-1.979,0-2.969,0.001
			c-0.039,0-0.079,0.002-0.118,0.007c-0.17,0.019-0.251,0.086-0.254,0.265c-0.01,0.495-0.013,0.99-0.003,1.484
			c0.005,0.252,0.077,0.319,0.324,0.322C66.543,19.119,67.058,19.114,67.573,19.114z"/>
		<path fill="#FFFFFF" d="M56.757,18.567c0-0.735-0.005-1.469,0.002-2.204c0.005-0.597-0.106-1.146-0.57-1.571
			c-0.024-0.022-0.047-0.089-0.035-0.101c0.035-0.037,0.088-0.08,0.134-0.08c1.211-0.004,2.422-0.003,3.634,0
			c0.032,0,0.079,0.024,0.092,0.05c0.014,0.028,0.01,0.087-0.011,0.108c-0.514,0.497-0.616,1.137-0.62,1.805
			c-0.007,1.112,0,2.224-0.004,3.336c-0.003,0.754,0.011,1.511-0.164,2.252c-0.068,0.289-0.148,0.578-0.261,0.852
			c-0.347,0.847-0.948,1.452-1.786,1.825c-0.458,0.204-0.937,0.328-1.431,0.39c-0.991,0.125-1.983,0.127-2.959-0.111
			c-1.95-0.476-2.677-1.702-2.925-3.205c-0.084-0.507-0.112-1.027-0.119-1.541c-0.018-1.29-0.013-2.581-0.009-3.872
			c0.002-0.636-0.126-1.221-0.577-1.701c-0.024-0.025-0.048-0.088-0.036-0.102c0.033-0.038,0.085-0.084,0.13-0.084
			c0.675-0.007,1.35-0.008,2.025-0.008c0.516-0.001,1.033,0,1.549,0.003c0.053,0,0.106,0.029,0.159,0.045
			c-0.017,0.051-0.019,0.12-0.054,0.151c-0.385,0.339-0.524,0.784-0.556,1.274c-0.013,0.198-0.017,0.397-0.016,0.595
			c0.003,1.291,0.005,2.581,0.016,3.872c0.002,0.297,0.016,0.597,0.062,0.89c0.118,0.762,0.538,1.265,1.311,1.433
			c0.591,0.128,1.181,0.129,1.767-0.033c0.585-0.162,0.971-0.538,1.117-1.124c0.076-0.305,0.116-0.625,0.124-0.94
			c0.018-0.734,0.006-1.469,0.006-2.204C56.753,18.567,56.755,18.567,56.757,18.567z"/>
		<path fill="#FFFFFF" d="M57.834,0.269c0.655,0,1.309-0.003,1.964,0.002c0.163,0.001,0.218,0.087,0.134,0.233
			c-0.266,0.461-0.195,0.91,0.005,1.368c1.117,2.563,2.23,5.127,3.345,7.691c0.2,0.46,0.469,0.872,0.864,1.193
			c0.036,0.029,0.071,0.114,0.055,0.142c-0.022,0.038-0.095,0.064-0.146,0.064c-1.19,0.004-2.381,0.005-3.571,0.002
			c-0.218-0.001-0.284-0.084-0.184-0.235c0.305-0.458,0.287-0.949,0.118-1.428c-0.177-0.504-0.413-0.987-0.627-1.478
			c-0.051-0.116-0.142-0.188-0.277-0.19c-0.059-0.001-0.119-0.006-0.178-0.007c-0.992,0-1.984,0.006-2.976-0.005
			c-0.273-0.003-0.445,0.078-0.544,0.347c-0.13,0.353-0.29,0.695-0.44,1.041c-0.255,0.59-0.356,1.176,0.03,1.757
			c0.063,0.095-0.006,0.188-0.133,0.193c-0.198,0.007-0.397,0.008-0.595,0.008c-0.992,0.001-1.984,0-2.976,0
			c-0.059,0-0.12,0.003-0.178-0.009c-0.032-0.006-0.076-0.035-0.084-0.062c-0.008-0.028,0.011-0.08,0.036-0.098
			c0.497-0.37,0.774-0.889,1.013-1.442c1.055-2.438,2.118-4.873,3.177-7.31c0.063-0.145,0.123-0.292,0.177-0.441
			c0.127-0.353,0.106-0.694-0.062-1.036c-0.123-0.25-0.087-0.298,0.208-0.302c0.516-0.008,1.032-0.004,1.547-0.005
			c0.099,0,0.198,0,0.298,0C57.834,0.263,57.834,0.266,57.834,0.269z M57.794,5.865c0-0.001,0-0.001,0-0.001
			c0.336-0.001,0.671,0.003,1.007-0.003c0.106-0.002,0.173-0.114,0.125-0.215c-0.323-0.676-0.651-1.35-0.982-2.023
			c-0.049-0.099-0.171-0.091-0.225,0.019c-0.322,0.656-0.641,1.312-0.955,1.972c-0.063,0.133,0.002,0.245,0.142,0.248
			C57.202,5.871,57.498,5.865,57.794,5.865z"/>
		<path fill="#FFFFFF" d="M17.607,0.26c0.516,0,1.032-0.002,1.547,0.001c0.158,0.001,0.318,0.005,0.475,0.023
			c0.09,0.01,0.129,0.081,0.096,0.171c-0.027,0.074-0.062,0.146-0.096,0.217c-0.147,0.305-0.133,0.615-0.019,0.924
			c0.061,0.167,0.126,0.334,0.197,0.497c1.043,2.4,2.09,4.798,3.13,7.199c0.247,0.57,0.522,1.114,1.033,1.5
			c0.026,0.019,0.047,0.069,0.04,0.099c-0.006,0.027-0.049,0.059-0.08,0.065c-0.057,0.012-0.118,0.01-0.178,0.01
			c-1.131,0-2.261,0-3.392,0c-0.059,0-0.119-0.001-0.178-0.006c-0.126-0.009-0.196-0.1-0.136-0.193
			c0.38-0.581,0.292-1.166,0.033-1.757c-0.159-0.363-0.321-0.725-0.466-1.094c-0.086-0.218-0.231-0.294-0.456-0.293
			c-1.032,0.006-2.063,0.003-3.095,0.003c-0.04,0-0.079,0.004-0.119,0.005c-0.133,0.003-0.226,0.068-0.278,0.187
			c-0.213,0.491-0.453,0.973-0.627,1.477c-0.165,0.478-0.19,0.971,0.116,1.429c0.089,0.133,0.031,0.223-0.126,0.234
			c-0.099,0.007-0.198,0.007-0.297,0.007c-1.051,0-2.103,0-3.154,0c-0.079,0-0.159,0.002-0.238-0.008
			c-0.034-0.004-0.078-0.028-0.092-0.056c-0.014-0.027-0.008-0.088,0.012-0.103c0.597-0.454,0.866-1.119,1.151-1.775
			c0.977-2.256,1.959-4.509,2.938-6.764c0.063-0.145,0.121-0.293,0.186-0.438c0.198-0.438,0.246-0.869-0.008-1.309
			c-0.096-0.166-0.034-0.246,0.177-0.247c0.635-0.005,1.27-0.002,1.904-0.002C17.607,0.263,17.607,0.262,17.607,0.26z M17.58,5.86
			c0,0.004,0,0.009,0,0.013c0.296,0,0.592,0.006,0.887-0.002c0.228-0.006,0.299-0.104,0.208-0.295
			c-0.304-0.641-0.615-1.279-0.929-1.915c-0.07-0.142-0.189-0.143-0.258-0.003c-0.315,0.635-0.625,1.273-0.935,1.911
			c-0.017,0.035-0.023,0.075-0.031,0.113c-0.02,0.095,0.033,0.169,0.113,0.172C16.949,5.866,17.265,5.86,17.58,5.86z"/>
		<path fill="#FFFFFF" d="M5.925,0C7.41,0.016,8.736,0.486,9.962,1.289c0.212,0.139,0.286,0.296,0.252,0.545
			c-0.092,0.669-0.155,1.341-0.252,2.009C9.93,4.063,9.959,4.307,9.801,4.499C9.667,4.332,9.533,4.164,9.398,3.997
			C8.795,3.251,8.068,2.675,7.111,2.484C6.14,2.289,5.175,2.29,4.271,2.791C3.245,3.359,2.72,4.248,2.641,5.396
			C2.505,7.366,3.942,8.569,5.21,8.879c1.092,0.267,2.169,0.147,3.233-0.164c0.713-0.208,1.37-0.524,1.932-1.021
			c0.034-0.03,0.105-0.026,0.157-0.019c0.014,0.002,0.033,0.071,0.027,0.106c-0.166,1.029-0.651,1.865-1.51,2.469
			c-0.662,0.466-1.407,0.727-2.201,0.857c-0.996,0.163-1.988,0.083-2.952-0.176c-2.031-0.547-3.291-1.916-3.742-3.925
			c-0.479-2.133,0.163-4.009,1.708-5.552c0.71-0.708,1.622-1.063,2.589-1.261C4.936,0.094,5.433,0.062,5.925,0z"/>
		<path fill="#FFFFFF" d="M81.518,10.966c-0.595,0-1.191,0.003-1.786-0.003c-0.068-0.001-0.136-0.049-0.203-0.076
			c0.025-0.05,0.038-0.114,0.078-0.146c0.381-0.315,0.517-0.739,0.543-1.211c0.013-0.237,0.029-0.475,0.029-0.713
			c0.002-2.143,0.003-4.286-0.001-6.429c-0.001-0.297-0.028-0.594-0.053-0.89c-0.028-0.325-0.164-0.607-0.36-0.867
			c-0.076-0.102-0.28-0.161-0.192-0.319c0.034-0.061,0.22-0.049,0.337-0.049c1.071-0.003,2.143-0.002,3.214-0.001
			c0.079,0,0.16-0.004,0.237,0.011c0.048,0.01,0.098,0.046,0.131,0.084c0.012,0.014-0.011,0.077-0.035,0.101
			c-0.438,0.435-0.552,0.993-0.596,1.576c-0.007,0.099-0.004,0.198-0.005,0.298c-0.001,0.179,0,0.357,0,0.536
			c0,1.964-0.001,3.929,0.002,5.893c0,0.277,0.019,0.555,0.038,0.831c0.029,0.432,0.182,0.809,0.509,1.105
			c0.029,0.027,0.061,0.054,0.08,0.088c0.017,0.031,0.033,0.076,0.022,0.106c-0.011,0.029-0.054,0.062-0.085,0.064
			c-0.138,0.01-0.277,0.012-0.416,0.013c-0.496,0.001-0.992,0-1.488,0V10.966z"/>
	</g>
</g>
</svg>
